<svg width="18" height="14" viewBox="0 0 18 14" fill="none" xmlns="http://www.w3.org/2000/svg">
<path d="M2.4375 13.75C1.97344 13.75 1.57617 13.5848 1.2457 13.2543C0.915234 12.9238 0.75 12.5266 0.75 12.0625V1.9375C0.75 1.47344 0.915234 1.07617 1.2457 0.745703C1.57617 0.415234 1.97344 0.25 2.4375 0.25H15.9375C16.4016 0.25 16.7988 0.415234 17.1293 0.745703C17.4598 1.07617 17.625 1.47344 17.625 1.9375V12.0625C17.625 12.5266 17.4598 12.9238 17.1293 13.2543C16.7988 13.5848 16.4016 13.75 15.9375 13.75H2.4375ZM15.9375 3.625L9.63047 7.56953C9.56016 7.61172 9.48633 7.64336 9.40898 7.66445C9.33164 7.68555 9.25781 7.69609 9.1875 7.69609C9.11719 7.69609 9.04336 7.68555 8.96601 7.66445C8.88867 7.64336 8.81484 7.61172 8.74453 7.56953L2.4375 3.625V12.0625H15.9375V3.625ZM9.1875 6.15625L15.9375 1.9375H2.4375L9.1875 6.15625ZM2.4375 3.83594V2.59141V2.6125V2.60195V3.83594Z" fill="white"/>
</svg>
