<svg width="436" height="190" viewBox="0 0 436 190" fill="none" xmlns="http://www.w3.org/2000/svg">
<rect x="47.5" y="29" width="141" height="132" rx="19.5" fill="white"/>
<rect x="47.5" y="29" width="141" height="132" rx="19.5" stroke="#E2E8F0"/>
<g filter="url(#filter0_d_6029_2503)">
<rect x="71" y="52.5" width="94" height="23" rx="11.5" fill="white" shape-rendering="crispEdges"/>
<rect x="71.5" y="53" width="93" height="22" rx="11" stroke="#E2E8F0" shape-rendering="crispEdges"/>
<path d="M79.7969 68.5V59.7695H83.0312C83.9648 59.7695 84.7051 60.0137 85.252 60.502C85.7988 60.9902 86.0723 61.6523 86.0723 62.4883C86.0723 63.0469 85.9453 63.5312 85.6914 63.9414C85.4375 64.3477 85.0801 64.6621 84.6191 64.8848C84.1582 65.1035 83.6152 65.2129 82.9902 65.2129H81.0977V68.5H79.7969ZM81.0977 64.0879H82.9668C83.5293 64.0879 83.9727 63.9453 84.2969 63.6602C84.625 63.3711 84.7891 62.9805 84.7891 62.4883C84.7891 61.9961 84.625 61.6094 84.2969 61.3281C83.9727 61.043 83.5293 60.9004 82.9668 60.9004H81.0977V64.0879ZM88.7207 68.5996C88.1035 68.5996 87.5918 68.4434 87.1855 68.1309C86.7793 67.8145 86.5762 67.3477 86.5762 66.7305C86.5762 66.2617 86.6914 65.9023 86.9219 65.6523C87.1562 65.3984 87.459 65.2168 87.8301 65.1074C88.2051 64.998 88.6016 64.918 89.0195 64.8672C89.4062 64.8203 89.7129 64.7812 89.9395 64.75C90.166 64.7188 90.3262 64.6719 90.4199 64.6094C90.5176 64.5469 90.5664 64.4395 90.5664 64.2871V64.2344C90.5664 63.9336 90.457 63.6875 90.2383 63.4961C90.0195 63.3008 89.7129 63.2031 89.3184 63.2031C88.9238 63.2031 88.6016 63.2988 88.3516 63.4902C88.1016 63.6777 87.9648 63.9141 87.9414 64.1992H86.7285C86.7559 63.6094 87.0039 63.127 87.4727 62.752C87.9414 62.377 88.5625 62.1895 89.3359 62.1895C90.0977 62.1895 90.6973 62.377 91.1348 62.752C91.5723 63.127 91.791 63.6289 91.791 64.2578V68.5H90.5723V67.6211H90.5488C90.4199 67.8711 90.2148 68.0977 89.9336 68.3008C89.6562 68.5 89.252 68.5996 88.7207 68.5996ZM88.9727 67.6035C89.5195 67.6035 89.9219 67.4629 90.1797 67.1816C90.4414 66.8965 90.5723 66.5645 90.5723 66.1855V65.459C90.4902 65.5254 90.3047 65.5859 90.0156 65.6406C89.7266 65.6914 89.418 65.7402 89.0898 65.7871C88.75 65.8379 88.4512 65.9336 88.1934 66.0742C87.9355 66.2148 87.8066 66.4414 87.8066 66.7539C87.8066 67.0195 87.9102 67.2285 88.1172 67.3809C88.3281 67.5293 88.6133 67.6035 88.9727 67.6035ZM92.9863 70.9492V69.9062H93.6543C93.8496 69.9062 94.0078 69.8496 94.1289 69.7363C94.2539 69.627 94.3633 69.4453 94.457 69.1914L94.7383 68.459L92.3477 62.3125H93.6719L94.9082 65.7051C94.9902 65.9355 95.0703 66.168 95.1484 66.4023C95.2266 66.6328 95.3027 66.8633 95.377 67.0938C95.4512 66.8633 95.5273 66.6328 95.6055 66.4023C95.6875 66.168 95.7695 65.9355 95.8516 65.7051L97.0703 62.3125H98.377L95.5645 69.584C95.2168 70.4941 94.6191 70.9492 93.7715 70.9492H92.9863ZM99.2207 68.5V62.3125H100.422V63.3496C100.613 62.9668 100.873 62.6777 101.201 62.4824C101.529 62.2871 101.885 62.1895 102.268 62.1895C102.689 62.1895 103.059 62.2969 103.375 62.5117C103.695 62.7266 103.92 63 104.049 63.332C104.217 62.9961 104.471 62.7227 104.811 62.5117C105.154 62.2969 105.555 62.1895 106.012 62.1895C106.395 62.1895 106.742 62.2734 107.055 62.4414C107.367 62.6094 107.615 62.8594 107.799 63.1914C107.982 63.5195 108.074 63.9316 108.074 64.4277V68.5H106.832V64.5332C106.832 64.0918 106.709 63.7715 106.463 63.5723C106.217 63.373 105.926 63.2734 105.59 63.2734C105.176 63.2734 104.85 63.4023 104.611 63.6602C104.373 63.9141 104.254 64.2383 104.254 64.6328V68.5H103.035V64.4512C103.035 64.0957 102.92 63.8105 102.689 63.5957C102.463 63.3809 102.174 63.2734 101.822 63.2734C101.463 63.2734 101.145 63.4004 100.867 63.6543C100.594 63.9082 100.457 64.2793 100.457 64.7676V68.5H99.2207ZM112.117 68.6406C111.504 68.6406 110.977 68.502 110.535 68.2246C110.098 67.9473 109.76 67.5664 109.521 67.082C109.287 66.5938 109.17 66.0391 109.17 65.418C109.17 64.7891 109.293 64.2305 109.539 63.7422C109.785 63.2539 110.125 62.8711 110.559 62.5938C110.992 62.3125 111.49 62.1719 112.053 62.1719C112.639 62.1719 113.146 62.3086 113.576 62.582C114.01 62.8555 114.346 63.2363 114.584 63.7246C114.822 64.209 114.941 64.7695 114.941 65.4062V65.7402H110.389C110.412 66.2988 110.572 66.75 110.869 67.0938C111.17 67.4375 111.592 67.6094 112.135 67.6094C112.541 67.6094 112.875 67.5176 113.137 67.334C113.398 67.1504 113.572 66.9121 113.658 66.6191H114.848C114.773 67.0176 114.607 67.3691 114.35 67.6738C114.096 67.9785 113.775 68.2168 113.389 68.3887C113.006 68.5566 112.582 68.6406 112.117 68.6406ZM110.4 64.8027H113.734C113.684 64.3105 113.51 63.9219 113.213 63.6367C112.916 63.3477 112.533 63.2031 112.064 63.2031C111.596 63.2031 111.213 63.3477 110.916 63.6367C110.623 63.9219 110.451 64.3105 110.4 64.8027ZM117.25 64.9375V68.5H116.014V62.3125H117.227V63.2441C117.648 62.541 118.271 62.1895 119.096 62.1895C119.521 62.1895 119.902 62.2832 120.238 62.4707C120.578 62.6543 120.846 62.9277 121.041 63.291C121.236 63.6543 121.334 64.1055 121.334 64.6445V68.5H120.098V64.7969C120.098 64.3008 119.979 63.9277 119.74 63.6777C119.502 63.4238 119.17 63.2969 118.744 63.2969C118.322 63.2969 117.967 63.4277 117.678 63.6895C117.393 63.9473 117.25 64.3633 117.25 64.9375ZM125.711 62.3125V63.332H124.457V66.8652C124.457 67.0957 124.504 67.2559 124.598 67.3457C124.691 67.4355 124.861 67.4805 125.107 67.4805H125.711V68.5H124.932C123.787 68.5 123.215 68.0078 123.215 67.0234V63.332H122.125V62.3125H123.215V60.625H124.457V62.3125H125.711ZM129.648 68.5V59.7695H130.949V67.3574H135.08V68.5H129.648ZM136.064 68.5V62.3125H137.301V68.5H136.064ZM136.68 61.2461C136.461 61.2461 136.275 61.1738 136.123 61.0293C135.975 60.8809 135.9 60.7012 135.9 60.4902C135.9 60.2754 135.975 60.0957 136.123 59.9512C136.275 59.8027 136.461 59.7285 136.68 59.7285C136.898 59.7285 137.084 59.8027 137.236 59.9512C137.389 60.0957 137.465 60.2754 137.465 60.4902C137.465 60.7012 137.389 60.8809 137.236 61.0293C137.084 61.1738 136.898 61.2461 136.68 61.2461ZM139.938 64.9375V68.5H138.701V62.3125H139.914V63.2441C140.336 62.541 140.959 62.1895 141.783 62.1895C142.209 62.1895 142.59 62.2832 142.926 62.4707C143.266 62.6543 143.533 62.9277 143.729 63.291C143.924 63.6543 144.021 64.1055 144.021 64.6445V68.5H142.785V64.7969C142.785 64.3008 142.666 63.9277 142.428 63.6777C142.189 63.4238 141.857 63.2969 141.432 63.2969C141.01 63.2969 140.654 63.4277 140.365 63.6895C140.08 63.9473 139.938 64.3633 139.938 64.9375ZM145.416 68.5V59.7695H146.652V64.9551H146.67L149.307 62.3125H150.842L148.223 64.9727L151.018 68.5H149.5L147.279 65.7168L146.652 66.3262V68.5H145.416ZM153.965 68.6465C153.492 68.6465 153.066 68.5703 152.688 68.418C152.309 68.2656 152.002 68.0391 151.768 67.7383C151.537 67.4375 151.408 67.0645 151.381 66.6191H152.6C152.67 67.3145 153.117 67.6621 153.941 67.6621C154.332 67.6621 154.641 67.582 154.867 67.4219C155.098 67.2617 155.213 67.0586 155.213 66.8125C155.213 66.6016 155.131 66.4336 154.967 66.3086C154.803 66.1797 154.588 66.0859 154.322 66.0273L153.297 65.7988C152.113 65.541 151.521 64.9512 151.521 64.0293C151.521 63.4824 151.738 63.0371 152.172 62.6934C152.609 62.3496 153.182 62.1777 153.889 62.1777C154.588 62.1777 155.162 62.3594 155.611 62.7227C156.064 63.082 156.299 63.5742 156.314 64.1992H155.131C155.127 63.8984 155.014 63.6504 154.791 63.4551C154.568 63.2559 154.273 63.1562 153.906 63.1562C153.555 63.1562 153.275 63.2383 153.068 63.4023C152.861 63.5664 152.758 63.7676 152.758 64.0059C152.758 64.2168 152.836 64.3867 152.992 64.5156C153.152 64.6445 153.371 64.7402 153.648 64.8027L154.703 65.0371C155.305 65.1699 155.748 65.375 156.033 65.6523C156.318 65.9297 156.461 66.293 156.461 66.7422C156.461 67.1367 156.352 67.4766 156.133 67.7617C155.918 68.043 155.623 68.2617 155.248 68.418C154.873 68.5703 154.445 68.6465 153.965 68.6465Z" fill="#314CFF"/>
</g>
<g filter="url(#filter1_d_6029_2503)">
<rect x="71" y="83.5" width="94" height="23" rx="11.5" fill="white" shape-rendering="crispEdges"/>
<rect x="71.5" y="84" width="93" height="22" rx="11" stroke="#E2E8F0" shape-rendering="crispEdges"/>
<path d="M93.5469 99.6406C92.7461 99.6406 92.0391 99.4512 91.4258 99.0723C90.8125 98.6934 90.334 98.166 89.9902 97.4902C89.6465 96.8145 89.4746 96.0312 89.4746 95.1406C89.4746 94.2422 89.6465 93.4551 89.9902 92.7793C90.334 92.1035 90.8105 91.5762 91.4199 91.1973C92.0332 90.8184 92.7422 90.6289 93.5469 90.6289C94.1836 90.6289 94.7598 90.7539 95.2754 91.0039C95.7949 91.2539 96.2246 91.6074 96.5645 92.0645C96.9043 92.5176 97.125 93.0547 97.2266 93.6758H95.9023C95.7734 93.082 95.498 92.625 95.0762 92.3047C94.6582 91.9805 94.1523 91.8184 93.5586 91.8184C92.9844 91.8184 92.4902 91.957 92.0762 92.2344C91.6621 92.5117 91.3418 92.9004 91.1152 93.4004C90.8926 93.9004 90.7812 94.4805 90.7812 95.1406C90.7812 95.8008 90.8926 96.3789 91.1152 96.875C91.3379 97.3711 91.6562 97.7578 92.0703 98.0352C92.4883 98.3125 92.9844 98.4512 93.5586 98.4512C94.1484 98.4512 94.6523 98.291 95.0703 97.9707C95.4922 97.6504 95.7715 97.1953 95.9082 96.6055H97.2266C97.125 97.2227 96.9043 97.7598 96.5645 98.2168C96.2246 98.6699 95.7949 99.0215 95.2754 99.2715C94.7598 99.5176 94.1836 99.6406 93.5469 99.6406ZM99.6172 95.9375V99.5H98.3809V90.7695H99.6172V94.2031C100.043 93.5273 100.658 93.1895 101.463 93.1895C101.889 93.1895 102.27 93.2832 102.605 93.4707C102.945 93.6543 103.213 93.9277 103.408 94.291C103.604 94.6543 103.701 95.1055 103.701 95.6445V99.5H102.465V95.7969C102.465 95.3008 102.346 94.9277 102.107 94.6777C101.869 94.4238 101.537 94.2969 101.111 94.2969C100.689 94.2969 100.334 94.4277 100.045 94.6895C99.7598 94.9473 99.6172 95.3633 99.6172 95.9375ZM107.738 99.6406C107.125 99.6406 106.598 99.502 106.156 99.2246C105.719 98.9473 105.381 98.5664 105.143 98.082C104.908 97.5938 104.791 97.0391 104.791 96.418C104.791 95.7891 104.914 95.2305 105.16 94.7422C105.406 94.2539 105.746 93.8711 106.18 93.5938C106.613 93.3125 107.111 93.1719 107.674 93.1719C108.26 93.1719 108.768 93.3086 109.197 93.582C109.631 93.8555 109.967 94.2363 110.205 94.7246C110.443 95.209 110.562 95.7695 110.562 96.4062V96.7402H106.01C106.033 97.2988 106.193 97.75 106.49 98.0938C106.791 98.4375 107.213 98.6094 107.756 98.6094C108.162 98.6094 108.496 98.5176 108.758 98.334C109.02 98.1504 109.193 97.9121 109.279 97.6191H110.469C110.395 98.0176 110.229 98.3691 109.971 98.6738C109.717 98.9785 109.396 99.2168 109.01 99.3887C108.627 99.5566 108.203 99.6406 107.738 99.6406ZM106.021 95.8027H109.355C109.305 95.3105 109.131 94.9219 108.834 94.6367C108.537 94.3477 108.154 94.2031 107.686 94.2031C107.217 94.2031 106.834 94.3477 106.537 94.6367C106.244 94.9219 106.072 95.3105 106.021 95.8027ZM114.283 99.6406C113.693 99.6406 113.176 99.5039 112.73 99.2305C112.289 98.957 111.945 98.5781 111.699 98.0938C111.453 97.6055 111.33 97.0469 111.33 96.418C111.33 95.7812 111.453 95.2188 111.699 94.7305C111.949 94.2422 112.295 93.8613 112.736 93.5879C113.178 93.3105 113.693 93.1719 114.283 93.1719C114.775 93.1719 115.215 93.2695 115.602 93.4648C115.992 93.6562 116.309 93.9219 116.551 94.2617C116.793 94.6016 116.939 94.9902 116.99 95.4277H115.76C115.697 95.0801 115.541 94.7949 115.291 94.5723C115.041 94.3496 114.707 94.2383 114.289 94.2383C113.754 94.2383 113.336 94.4355 113.035 94.8301C112.734 95.2246 112.584 95.7539 112.584 96.418C112.584 97.0742 112.734 97.5977 113.035 97.9883C113.336 98.3789 113.754 98.5742 114.289 98.5742C114.715 98.5742 115.043 98.4668 115.273 98.252C115.504 98.0332 115.66 97.7422 115.742 97.3789H116.99C116.943 97.8086 116.799 98.1953 116.557 98.5391C116.314 98.8789 115.998 99.1484 115.607 99.3477C115.217 99.543 114.775 99.6406 114.283 99.6406ZM118.045 99.5V90.7695H119.281V95.9551H119.299L121.936 93.3125H123.471L120.852 95.9727L123.646 99.5H122.129L119.908 96.7168L119.281 97.3262V99.5H118.045ZM126.693 99.6406C126.104 99.6406 125.586 99.5039 125.141 99.2305C124.695 98.957 124.348 98.5781 124.098 98.0938C123.852 97.6094 123.729 97.0508 123.729 96.418C123.729 95.7773 123.852 95.2148 124.098 94.7305C124.348 94.2422 124.695 93.8613 125.141 93.5879C125.586 93.3105 126.104 93.1719 126.693 93.1719C127.283 93.1719 127.799 93.3105 128.24 93.5879C128.686 93.8613 129.031 94.2422 129.277 94.7305C129.527 95.2148 129.652 95.7773 129.652 96.418C129.652 97.0508 129.527 97.6094 129.277 98.0938C129.031 98.5781 128.686 98.957 128.24 99.2305C127.799 99.5039 127.283 99.6406 126.693 99.6406ZM126.693 98.5742C127.225 98.5742 127.643 98.3789 127.947 97.9883C128.252 97.5977 128.404 97.0742 128.404 96.418C128.404 95.7539 128.25 95.2246 127.941 94.8301C127.637 94.4355 127.221 94.2383 126.693 94.2383C126.166 94.2383 125.748 94.4355 125.439 94.8301C125.135 95.2207 124.982 95.75 124.982 96.418C124.982 97.0781 125.135 97.6035 125.439 97.9941C125.744 98.3809 126.162 98.5742 126.693 98.5742ZM132.986 99.623C132.564 99.623 132.184 99.5312 131.844 99.3477C131.508 99.1602 131.24 98.8848 131.041 98.5215C130.846 98.1582 130.748 97.707 130.748 97.168V93.3125H131.984V97.0156C131.984 97.5117 132.104 97.8867 132.342 98.1406C132.58 98.3906 132.914 98.5156 133.344 98.5156C133.762 98.5156 134.113 98.3867 134.398 98.1289C134.688 97.8672 134.832 97.4492 134.832 96.875V93.3125H136.068V99.5H134.855V98.5684C134.434 99.2715 133.811 99.623 132.986 99.623ZM140.445 93.3125V94.332H139.191V97.8652C139.191 98.0957 139.238 98.2559 139.332 98.3457C139.426 98.4355 139.596 98.4805 139.842 98.4805H140.445V99.5H139.666C138.521 99.5 137.949 99.0078 137.949 98.0234V94.332H136.859V93.3125H137.949V91.625H139.191V93.3125H140.445ZM143.609 99.6465C143.137 99.6465 142.711 99.5703 142.332 99.418C141.953 99.2656 141.646 99.0391 141.412 98.7383C141.182 98.4375 141.053 98.0645 141.025 97.6191H142.244C142.314 98.3145 142.762 98.6621 143.586 98.6621C143.977 98.6621 144.285 98.582 144.512 98.4219C144.742 98.2617 144.857 98.0586 144.857 97.8125C144.857 97.6016 144.775 97.4336 144.611 97.3086C144.447 97.1797 144.232 97.0859 143.967 97.0273L142.941 96.7988C141.758 96.541 141.166 95.9512 141.166 95.0293C141.166 94.4824 141.383 94.0371 141.816 93.6934C142.254 93.3496 142.826 93.1777 143.533 93.1777C144.232 93.1777 144.807 93.3594 145.256 93.7227C145.709 94.082 145.943 94.5742 145.959 95.1992H144.775C144.771 94.8984 144.658 94.6504 144.436 94.4551C144.213 94.2559 143.918 94.1562 143.551 94.1562C143.199 94.1562 142.92 94.2383 142.713 94.4023C142.506 94.5664 142.402 94.7676 142.402 95.0059C142.402 95.2168 142.48 95.3867 142.637 95.5156C142.797 95.6445 143.016 95.7402 143.293 95.8027L144.348 96.0371C144.949 96.1699 145.393 96.375 145.678 96.6523C145.963 96.9297 146.105 97.293 146.105 97.7422C146.105 98.1367 145.996 98.4766 145.777 98.7617C145.562 99.043 145.268 99.2617 144.893 99.418C144.518 99.5703 144.09 99.6465 143.609 99.6465Z" fill="#314CFF"/>
</g>
<g filter="url(#filter2_d_6029_2503)">
<rect x="71" y="114.5" width="94" height="23" rx="11.5" fill="white" shape-rendering="crispEdges"/>
<rect x="71.5" y="115" width="93" height="22" rx="11" stroke="#E2E8F0" shape-rendering="crispEdges"/>
<path d="M98.0977 121.77V130.5H96.7969V121.77H98.0977ZM100.828 126.938V130.5H99.5918V124.312H100.805V125.244C101.227 124.541 101.85 124.189 102.674 124.189C103.1 124.189 103.48 124.283 103.816 124.471C104.156 124.654 104.424 124.928 104.619 125.291C104.814 125.654 104.912 126.105 104.912 126.645V130.5H103.676V126.797C103.676 126.301 103.557 125.928 103.318 125.678C103.08 125.424 102.748 125.297 102.322 125.297C101.9 125.297 101.545 125.428 101.256 125.689C100.971 125.947 100.828 126.363 100.828 126.938ZM107.824 130.5L105.469 124.312H106.793L108.023 127.705C108.109 127.947 108.191 128.189 108.27 128.432C108.348 128.674 108.426 128.914 108.504 129.152C108.582 128.914 108.66 128.674 108.738 128.432C108.816 128.189 108.896 127.947 108.979 127.705L110.191 124.312H111.498L109.137 130.5H107.824ZM114.768 130.641C114.178 130.641 113.66 130.504 113.215 130.23C112.77 129.957 112.422 129.578 112.172 129.094C111.926 128.609 111.803 128.051 111.803 127.418C111.803 126.777 111.926 126.215 112.172 125.73C112.422 125.242 112.77 124.861 113.215 124.588C113.66 124.311 114.178 124.172 114.768 124.172C115.357 124.172 115.873 124.311 116.314 124.588C116.76 124.861 117.105 125.242 117.352 125.73C117.602 126.215 117.727 126.777 117.727 127.418C117.727 128.051 117.602 128.609 117.352 129.094C117.105 129.578 116.76 129.957 116.314 130.23C115.873 130.504 115.357 130.641 114.768 130.641ZM114.768 129.574C115.299 129.574 115.717 129.379 116.021 128.988C116.326 128.598 116.479 128.074 116.479 127.418C116.479 126.754 116.324 126.225 116.016 125.83C115.711 125.436 115.295 125.238 114.768 125.238C114.24 125.238 113.822 125.436 113.514 125.83C113.209 126.221 113.057 126.75 113.057 127.418C113.057 128.078 113.209 128.604 113.514 128.994C113.818 129.381 114.236 129.574 114.768 129.574ZM118.822 130.5V124.312H120.059V130.5H118.822ZM119.438 123.246C119.219 123.246 119.033 123.174 118.881 123.029C118.732 122.881 118.658 122.701 118.658 122.49C118.658 122.275 118.732 122.096 118.881 121.951C119.033 121.803 119.219 121.729 119.438 121.729C119.656 121.729 119.842 121.803 119.994 121.951C120.146 122.096 120.223 122.275 120.223 122.49C120.223 122.701 120.146 122.881 119.994 123.029C119.842 123.174 119.656 123.246 119.438 123.246ZM124.107 130.641C123.518 130.641 123 130.504 122.555 130.23C122.113 129.957 121.77 129.578 121.523 129.094C121.277 128.605 121.154 128.047 121.154 127.418C121.154 126.781 121.277 126.219 121.523 125.73C121.773 125.242 122.119 124.861 122.561 124.588C123.002 124.311 123.518 124.172 124.107 124.172C124.6 124.172 125.039 124.27 125.426 124.465C125.816 124.656 126.133 124.922 126.375 125.262C126.617 125.602 126.764 125.99 126.814 126.428H125.584C125.521 126.08 125.365 125.795 125.115 125.572C124.865 125.35 124.531 125.238 124.113 125.238C123.578 125.238 123.16 125.436 122.859 125.83C122.559 126.225 122.408 126.754 122.408 127.418C122.408 128.074 122.559 128.598 122.859 128.988C123.16 129.379 123.578 129.574 124.113 129.574C124.539 129.574 124.867 129.467 125.098 129.252C125.328 129.033 125.484 128.742 125.566 128.379H126.814C126.768 128.809 126.623 129.195 126.381 129.539C126.139 129.879 125.822 130.148 125.432 130.348C125.041 130.543 124.6 130.641 124.107 130.641ZM130.512 130.641C129.898 130.641 129.371 130.502 128.93 130.225C128.492 129.947 128.154 129.566 127.916 129.082C127.682 128.594 127.564 128.039 127.564 127.418C127.564 126.789 127.688 126.23 127.934 125.742C128.18 125.254 128.52 124.871 128.953 124.594C129.387 124.312 129.885 124.172 130.447 124.172C131.033 124.172 131.541 124.309 131.971 124.582C132.404 124.855 132.74 125.236 132.979 125.725C133.217 126.209 133.336 126.77 133.336 127.406V127.74H128.783C128.807 128.299 128.967 128.75 129.264 129.094C129.564 129.438 129.986 129.609 130.529 129.609C130.936 129.609 131.27 129.518 131.531 129.334C131.793 129.15 131.967 128.912 132.053 128.619H133.242C133.168 129.018 133.002 129.369 132.744 129.674C132.49 129.979 132.17 130.217 131.783 130.389C131.4 130.557 130.977 130.641 130.512 130.641ZM128.795 126.803H132.129C132.078 126.311 131.904 125.922 131.607 125.637C131.311 125.348 130.928 125.203 130.459 125.203C129.99 125.203 129.607 125.348 129.311 125.637C129.018 125.922 128.846 126.311 128.795 126.803ZM136.699 130.646C136.227 130.646 135.801 130.57 135.422 130.418C135.043 130.266 134.736 130.039 134.502 129.738C134.271 129.438 134.143 129.064 134.115 128.619H135.334C135.404 129.314 135.852 129.662 136.676 129.662C137.066 129.662 137.375 129.582 137.602 129.422C137.832 129.262 137.947 129.059 137.947 128.812C137.947 128.602 137.865 128.434 137.701 128.309C137.537 128.18 137.322 128.086 137.057 128.027L136.031 127.799C134.848 127.541 134.256 126.951 134.256 126.029C134.256 125.482 134.473 125.037 134.906 124.693C135.344 124.35 135.916 124.178 136.623 124.178C137.322 124.178 137.896 124.359 138.346 124.723C138.799 125.082 139.033 125.574 139.049 126.199H137.865C137.861 125.898 137.748 125.65 137.525 125.455C137.303 125.256 137.008 125.156 136.641 125.156C136.289 125.156 136.01 125.238 135.803 125.402C135.596 125.566 135.492 125.768 135.492 126.006C135.492 126.217 135.57 126.387 135.727 126.516C135.887 126.645 136.105 126.74 136.383 126.803L137.438 127.037C138.039 127.17 138.482 127.375 138.768 127.652C139.053 127.93 139.195 128.293 139.195 128.742C139.195 129.137 139.086 129.477 138.867 129.762C138.652 130.043 138.357 130.262 137.982 130.418C137.607 130.57 137.18 130.646 136.699 130.646Z" fill="#314CFF"/>
</g>
<path d="M165 64.5L189 92M165 126.5L189 99M165 95.5H189" stroke="#E2E8F0" stroke-linecap="round"/>
<rect width="71" height="11" transform="translate(189 89.5)" fill="url(#paint0_linear_6029_2503)"/>
<rect x="260.5" y="35.5" width="119" height="119" rx="19.5" fill="white"/>
<rect x="260.5" y="35.5" width="119" height="119" rx="19.5" stroke="#E2E8F0"/>
<circle cx="320" cy="95" r="35.5" stroke="#E2E8F0"/>
<g clip-path="url(#clip0_6029_2503)">
<rect x="289" y="64.5" width="62" height="62" rx="31" fill="white"/>
<path d="M320 126.5C337.179 126.5 351 112.679 351 95.5C351 78.3207 337.179 64.5 320 64.5C302.821 64.5 289 78.3207 289 95.5C289 112.679 302.821 126.5 320 126.5Z" fill="#4166FB"/>
<path d="M328.523 100.408C328.523 95.8871 325.811 94.3371 320.386 93.6914C316.511 93.1746 315.736 92.1414 315.736 90.3328C315.736 88.5243 317.027 87.3621 319.611 87.3621C321.936 87.3621 323.227 88.1371 323.873 90.0746C324.002 90.4621 324.39 90.7203 324.777 90.7203H326.844C327.361 90.7203 327.748 90.3328 327.748 89.8164V89.6871C327.231 86.8453 324.906 84.6496 321.936 84.3914V81.2914C321.936 80.7746 321.548 80.3871 320.902 80.2578H318.965C318.448 80.2578 318.061 80.6453 317.931 81.2914V84.2621C314.056 84.7789 311.602 87.3621 311.602 90.5914C311.602 94.8539 314.186 96.5328 319.611 97.1789C323.227 97.8246 324.39 98.5996 324.39 100.666C324.39 102.733 322.581 104.154 320.127 104.154C316.769 104.154 315.606 102.733 315.219 100.795C315.09 100.279 314.702 100.02 314.315 100.02H312.119C311.602 100.02 311.215 100.408 311.215 100.925V101.054C311.731 104.283 313.798 106.608 318.061 107.254V110.354C318.061 110.87 318.448 111.258 319.094 111.387H321.031C321.548 111.387 321.936 111 322.065 110.354V107.254C325.94 106.608 328.523 103.895 328.523 100.408Z" fill="white"/>
<path d="M313.413 113.97C303.338 110.354 298.171 99.116 301.917 89.17C303.855 83.745 308.117 79.6117 313.413 77.6742C313.93 77.416 314.188 77.0285 314.188 76.3825V74.5742C314.188 74.0575 313.93 73.67 313.413 73.541C313.284 73.541 313.026 73.541 312.896 73.67C300.626 77.545 293.909 90.591 297.784 102.862C300.109 110.095 305.663 115.649 312.896 117.974C313.413 118.232 313.93 117.974 314.059 117.457C314.188 117.329 314.188 117.199 314.188 116.941V115.132C314.188 114.745 313.801 114.229 313.413 113.97ZM327.105 73.67C326.588 73.4117 326.071 73.67 325.942 74.1867C325.813 74.316 325.813 74.445 325.813 74.7035V76.5117C325.813 77.0285 326.201 77.545 326.588 77.8035C336.663 81.42 341.83 92.6575 338.084 102.604C336.146 108.029 331.884 112.162 326.588 114.099C326.071 114.357 325.813 114.745 325.813 115.391V117.199C325.813 117.716 326.071 118.104 326.588 118.232C326.717 118.232 326.976 118.232 327.105 118.104C339.376 114.229 346.092 101.182 342.217 88.9117C339.892 81.5492 334.209 75.995 327.105 73.67Z" fill="white"/>
</g>
<path d="M260 95.5H284" stroke="#E2E8F0" stroke-linecap="round"/>
<rect width="436" height="190" fill="url(#paint1_linear_6029_2503)"/>
<defs>
<filter id="filter0_d_6029_2503" x="69" y="52.5" width="98" height="27" filterUnits="userSpaceOnUse" color-interpolation-filters="sRGB">
<feFlood flood-opacity="0" result="BackgroundImageFix"/>
<feColorMatrix in="SourceAlpha" type="matrix" values="0 0 0 0 0 0 0 0 0 0 0 0 0 0 0 0 0 0 127 0" result="hardAlpha"/>
<feOffset dy="2"/>
<feGaussianBlur stdDeviation="1"/>
<feComposite in2="hardAlpha" operator="out"/>
<feColorMatrix type="matrix" values="0 0 0 0 0 0 0 0 0 0 0 0 0 0 0 0 0 0 0.08 0"/>
<feBlend mode="normal" in2="BackgroundImageFix" result="effect1_dropShadow_6029_2503"/>
<feBlend mode="normal" in="SourceGraphic" in2="effect1_dropShadow_6029_2503" result="shape"/>
</filter>
<filter id="filter1_d_6029_2503" x="69" y="83.5" width="98" height="27" filterUnits="userSpaceOnUse" color-interpolation-filters="sRGB">
<feFlood flood-opacity="0" result="BackgroundImageFix"/>
<feColorMatrix in="SourceAlpha" type="matrix" values="0 0 0 0 0 0 0 0 0 0 0 0 0 0 0 0 0 0 127 0" result="hardAlpha"/>
<feOffset dy="2"/>
<feGaussianBlur stdDeviation="1"/>
<feComposite in2="hardAlpha" operator="out"/>
<feColorMatrix type="matrix" values="0 0 0 0 0 0 0 0 0 0 0 0 0 0 0 0 0 0 0.08 0"/>
<feBlend mode="normal" in2="BackgroundImageFix" result="effect1_dropShadow_6029_2503"/>
<feBlend mode="normal" in="SourceGraphic" in2="effect1_dropShadow_6029_2503" result="shape"/>
</filter>
<filter id="filter2_d_6029_2503" x="69" y="114.5" width="98" height="27" filterUnits="userSpaceOnUse" color-interpolation-filters="sRGB">
<feFlood flood-opacity="0" result="BackgroundImageFix"/>
<feColorMatrix in="SourceAlpha" type="matrix" values="0 0 0 0 0 0 0 0 0 0 0 0 0 0 0 0 0 0 127 0" result="hardAlpha"/>
<feOffset dy="2"/>
<feGaussianBlur stdDeviation="1"/>
<feComposite in2="hardAlpha" operator="out"/>
<feColorMatrix type="matrix" values="0 0 0 0 0 0 0 0 0 0 0 0 0 0 0 0 0 0 0.08 0"/>
<feBlend mode="normal" in2="BackgroundImageFix" result="effect1_dropShadow_6029_2503"/>
<feBlend mode="normal" in="SourceGraphic" in2="effect1_dropShadow_6029_2503" result="shape"/>
</filter>
<linearGradient id="paint0_linear_6029_2503" x1="35.5" y1="0" x2="35.5" y2="11" gradientUnits="userSpaceOnUse">
<stop stop-color="#DBE3FD"/>
<stop offset="0.504808" stop-color="white"/>
<stop offset="1" stop-color="#DBE3FD"/>
</linearGradient>
<linearGradient id="paint1_linear_6029_2503" x1="218" y1="0" x2="218" y2="190" gradientUnits="userSpaceOnUse">
<stop offset="0.324247" stop-color="#F8FAFC" stop-opacity="0"/>
<stop offset="1" stop-color="#F8FAFC"/>
</linearGradient>
<clipPath id="clip0_6029_2503">
<rect x="289" y="64.5" width="62" height="62" rx="31" fill="white"/>
</clipPath>
</defs>
</svg>
