<svg width="680" height="190" viewBox="0 0 680 190" fill="none" xmlns="http://www.w3.org/2000/svg">
<g clip-path="url(#clip0_6029_2526)">
<g filter="url(#filter0_f_6029_2526)">
<path d="M8 153.726C12.4347 146.937 19.7875 137.269 30.6343 125.45C41.4802 113.632 54.3438 107.618 67.0912 103.266C74.643 100.687 84.9069 98.9131 97.2559 97.4918C109.605 96.0705 123.859 95.4534 132.786 95.444C149.461 95.4266 155.786 97.9219 165.548 99.4881C172.465 100.598 187.078 101.363 201.683 102.915C211.96 104.007 226.453 101.999 242.416 98.8944C257.475 95.9658 265.559 91.7038 268.588 90.6192C272.795 89.1125 278.969 84.56 286 80.0437C298.148 71.8059 312.901 58.07 318.824 52.1371C320.273 50.8795 321.54 49.9538 324.766 49" stroke="#9CAFFC" stroke-width="6" stroke-linecap="round"/>
</g>
<g filter="url(#filter1_f_6029_2526)">
<path d="M147.258 149.945C147.891 149.328 159.621 138.827 181.176 120.313C199.106 104.912 210.592 98.8352 214.897 96.9744C220.51 94.5482 229.742 89.1948 241.088 84.6785C253.876 79.5881 269.395 73.9254 279.219 71.4054C284.776 69.9803 291.223 68.9135 309.859 66.2673C339.852 62.0087 348.49 67.3426 355.051 67.8148C367.304 68.5956 387.213 67.9785 391.854 65.9541C392.982 65.4819 393.932 65.1733 394.911 64.8554" stroke="#D2DAFE" stroke-width="6" stroke-linecap="round"/>
</g>
<g filter="url(#filter2_f_6029_2526)">
<path d="M175 159.772C175.95 155.125 181.681 142.698 186.341 133.001C189.223 127.006 197.98 118.377 207.728 108.877C213.394 103.355 218.81 100.882 224.233 97.4602C229.862 93.9082 241.473 91.8405 261.866 89.6571C274.282 88.3278 291.128 89.3252 301.677 89.947C312.227 90.5688 316.028 91.4945 324.638 92.7428C346.498 95.912 362.794 97.1235 369.009 96.5064C372.691 95.8893 377.442 94.655 380.365 93.7106C383.288 92.7662 384.238 92.1491 386.177 91.5132" stroke="#9CAFFC" stroke-width="6" stroke-linecap="round"/>
</g>
<g filter="url(#filter3_f_6029_2526)">
<path d="M284.523 139.661C284.523 139.044 285.79 136.874 289.294 130.984C295.206 121.043 303.03 108.243 312.452 97.3498C323.957 84.0473 333.113 79.8549 346.542 71.1216C352.727 67.0994 360.317 64.5668 371.144 59.597C387.705 51.996 399.701 49.8959 402.25 49.7416C403.853 49.6446 406.065 49.2787 418.611 49.1198C431.157 48.9608 453.964 48.9608 466.505 48.8065C483.23 48.6008 489.576 47.4086 494.885 46.9364C499.847 45.23 506.221 41.4991 509.768 37.5999C510.723 36.5059 512.307 35.2717 514.898 34" stroke="#D2DAFE" stroke-width="6" stroke-linecap="round"/>
</g>
<g filter="url(#filter4_f_6029_2526)">
<path d="M30 103.152C31.9006 102.535 33.8012 101.918 41.1156 98.977C48.43 96.0363 61.1006 90.7906 79.8234 85.9284C98.5462 81.0661 122.937 76.7461 145.322 74.675C167.707 72.6039 187.346 72.9124 198.255 73.2257C215.567 73.7228 227.047 75.3997 234.112 76.4984C244.568 78.1244 255.844 81.01 266.576 82.4219C275.008 83.5313 281.474 83.5159 288.663 84.4463C295.294 85.3044 311.768 86.3211 325.902 87.0972C355.712 86.9476 359.551 85.7039 361.946 84.6146C363.074 84.1424 364.025 83.8338 365.004 83.5159" stroke="#9CAFFC" stroke-width="6" stroke-linecap="round"/>
</g>
<g filter="url(#filter5_f_6029_2526)">
<path d="M258.605 47.0898C261.773 48.3241 270.374 53.5885 285.051 62.9156C300.627 72.8144 310.747 77.9372 314.251 80.2655C324.619 87.1557 331.538 89.4664 351.312 96.9281C362.358 101.096 367.362 103.174 373.131 104.282C376.6 104.949 381.76 105.68 391.311 106.615C418.752 109.302 426.549 104.446 436.153 100.093C441.24 97.7873 450.201 94.7962 458.235 90.7427C468.819 85.4028 475.504 79.8354 483.351 74.5383C497.893 64.7217 518.718 54.8882 524.953 51.3116C526.407 50.5215 527.357 50.2129 528.322 49.8997C529.286 49.5864 530.237 49.2779 531.216 48.9599" stroke="#D2DAFE" stroke-width="6" stroke-linecap="round"/>
</g>
<g filter="url(#filter6_f_6029_2526)">
<path d="M356.516 131.245C359.693 127.215 365.462 120.978 381.55 106.382C393.879 95.1955 406.699 86.7082 415.645 81.1026C425.919 74.6654 436.129 69.8773 450.312 62.5745C469.154 52.8723 483.203 49.5866 487.191 48.9648C497.01 47.4341 507.181 45.22 517.553 44.4439C533.838 43.2253 548.14 45.2106 554.211 46.6132C562.443 48.5149 569.593 49.8952 578.53 52.5321C589.434 55.4962 598.985 59.227 605.273 62.1958C606.396 62.9766 607.663 63.9023 609.928 64.856" stroke="#9CAFFC" stroke-width="6" stroke-linecap="round"/>
</g>
<g filter="url(#filter7_f_6029_2526)">
<path d="M423 151.306C423.317 148.51 424.593 142.31 426.033 135.279C427.701 127.132 437.667 118.317 443.455 110.659C451.06 100.598 457.537 98.6435 463.767 93.2015C472.992 85.1426 482.802 81.8126 489.689 80.0921C495.086 78.7439 501.999 77.7544 524.811 78.0537C542.73 78.2887 558.249 86.1325 566.807 89.4286C572.194 91.5035 579.751 95.5017 586.149 98.6155C599.251 104.992 606.609 107.339 613.199 109.224C618.961 110.871 623.599 110.78 640.824 110.79C650.802 108.611 655.276 106.741 659.917 104.562C661.045 103.936 661.995 103.319 663.934 101.748" stroke="#D2DAFE" stroke-width="6" stroke-linecap="round"/>
</g>
<g filter="url(#filter8_f_6029_2526)">
<path d="M479 54C483.435 58.9371 499.34 70.1203 520.453 83.3653C532.545 90.9509 543.275 93.8893 549.212 95.1376C555.746 96.5115 569.768 97.0124 579.448 96.082C584.397 95.6064 589.369 92.973 596.712 90.0135C608.43 85.2908 618.454 80.5181 627.27 77.8532C636.861 74.9543 647.539 71.4855 654.647 69.7416C655.611 69.5873 656.562 69.2787 659.427 69.1198C662.292 68.9608 667.044 68.9608 671.939 68.9608" stroke="#9CAFFC" stroke-width="6" stroke-linecap="round"/>
</g>
<rect x="477.432" y="15.6124" width="171.834" height="119.066" rx="11.5" transform="rotate(15 477.432 15.6124)" fill="white" stroke="#E2E8F0"/>
<rect x="520.354" y="77.6124" width="58" height="22" rx="11" transform="rotate(15 520.354 77.6124)" fill="white"/>
<rect x="520.354" y="77.6124" width="58" height="22" rx="11" transform="rotate(15 520.354 77.6124)" stroke="#E2E8F0"/>
<path d="M524.355 94.7309L526.615 86.298L529.739 87.1351C530.641 87.3767 531.293 87.8041 531.695 88.4173C532.096 89.0305 532.189 89.7408 531.973 90.5483C531.828 91.0878 531.58 91.5228 531.229 91.8533C530.878 92.18 530.452 92.3912 529.949 92.487C529.447 92.579 528.894 92.5441 528.291 92.3823L526.463 91.8925L525.612 95.0676L524.355 94.7309ZM526.754 90.8058L528.559 91.2896C529.102 91.4352 529.568 91.4122 529.955 91.2207C530.346 91.0264 530.606 90.6916 530.733 90.2161C530.861 89.7407 530.802 89.3247 530.558 88.9681C530.319 88.6088 529.927 88.3563 529.384 88.2107L527.579 87.727L526.754 90.8058ZM532.949 97.1368C532.353 96.9771 531.899 96.6937 531.588 96.2867C531.277 95.8759 531.202 95.3725 531.362 94.7763C531.483 94.3235 531.687 94.0062 531.975 93.8244C532.267 93.6398 532.606 93.5427 532.993 93.5331C533.383 93.5245 533.787 93.5498 534.204 93.6089C534.59 93.6637 534.896 93.7054 535.123 93.7338C535.35 93.7623 535.517 93.7584 535.623 93.7223C535.734 93.6872 535.809 93.5961 535.848 93.449L535.862 93.398C535.94 93.1075 535.898 92.8415 535.736 92.6C535.575 92.3547 535.304 92.181 534.923 92.0789C534.542 91.9768 534.206 91.9858 533.915 92.106C533.625 92.2224 533.432 92.4153 533.335 92.6847L532.164 92.3708C532.343 91.8081 532.707 91.4063 533.257 91.1654C533.807 90.9245 534.456 90.9041 535.203 91.1043C535.938 91.3015 536.469 91.6378 536.795 92.1132C537.12 92.5887 537.201 93.1301 537.039 93.7376L535.941 97.8353L534.764 97.5198L534.991 96.6709L534.968 96.6648C534.779 96.8729 534.522 97.0387 534.198 97.1621C533.879 97.2827 533.462 97.2743 532.949 97.1368ZM533.45 96.2399C533.979 96.3814 534.404 96.3497 534.726 96.1448C535.052 95.9371 535.264 95.6502 535.363 95.2842L535.551 94.5824C535.454 94.6253 535.259 94.6358 534.966 94.6138C534.674 94.588 534.363 94.5553 534.034 94.5157C533.692 94.4768 533.379 94.4919 533.094 94.561C532.808 94.6301 532.625 94.8156 532.544 95.1174C532.475 95.374 532.521 95.6027 532.682 95.8034C532.847 96.0014 533.103 96.1469 533.45 96.2399ZM536.461 100.51L536.731 99.503L537.377 99.6758C537.565 99.7264 537.733 99.7126 537.879 99.6346C538.028 99.5613 538.181 99.4141 538.337 99.1931L538.798 98.5585L538.08 92.0027L539.359 92.3454L539.675 95.9424C539.695 96.1862 539.712 96.4314 539.727 96.678C539.742 96.9209 539.756 97.1632 539.768 97.405C539.9 97.2016 540.033 96.9987 540.168 96.7963C540.308 96.5912 540.447 96.3879 540.586 96.1865L542.642 93.225L543.904 93.5632L539.305 99.8589C538.734 100.648 538.039 100.933 537.22 100.714L536.461 100.51ZM545.424 100.522C544.854 100.369 544.39 100.103 544.03 99.7238C543.671 99.3444 543.433 98.8885 543.317 98.3559C543.205 97.8243 543.23 97.2529 543.394 96.6417C543.56 96.0229 543.825 95.5114 544.188 95.1072C544.555 94.7003 544.99 94.4224 545.491 94.2735C545.993 94.1209 546.528 94.1209 547.098 94.2735C547.668 94.4262 548.13 94.6936 548.485 95.0757C548.844 95.4551 549.079 95.9125 549.191 96.4478C549.307 96.9804 549.282 97.5561 549.116 98.1749C548.952 98.7861 548.687 99.2933 548.32 99.6965C547.957 100.101 547.525 100.377 547.024 100.526C546.527 100.676 545.994 100.675 545.424 100.522ZM545.7 99.4918C546.213 99.6293 546.667 99.5488 547.063 99.2504C547.458 98.9519 547.741 98.4857 547.911 97.8519C548.083 97.2104 548.071 96.6592 547.875 96.1983C547.682 95.7383 547.332 95.4401 546.822 95.3036C546.313 95.1671 545.858 95.2495 545.458 95.5507C545.062 95.8492 544.778 96.321 544.605 96.9662C544.435 97.6039 544.446 98.1508 544.639 98.607C544.833 99.0594 545.187 99.3543 545.7 99.4918ZM551.507 102.134C551.1 102.024 550.755 101.837 550.475 101.572C550.199 101.304 550.012 100.969 549.913 100.566C549.819 100.165 549.841 99.7036 549.981 99.1829L550.978 95.4588L552.173 95.7788L551.214 99.3557C551.086 99.8349 551.104 100.228 551.268 100.535C551.434 100.838 551.724 101.045 552.139 101.156C552.543 101.265 552.916 101.231 553.258 101.056C553.605 100.878 553.853 100.512 554.001 99.9569L554.923 96.5158L556.117 96.8358L554.516 102.812L553.344 102.499L553.586 101.599C552.996 102.169 552.303 102.347 551.507 102.134ZM560.345 97.9686L560.081 98.9534L558.87 98.6289L557.956 102.042C557.896 102.264 557.9 102.431 557.967 102.542C558.034 102.653 558.187 102.741 558.425 102.804L559.008 102.961L558.744 103.945L557.991 103.744C556.885 103.447 556.46 102.824 556.715 101.873L557.67 98.3074L556.618 98.0253L556.881 97.0405L557.934 97.3226L558.371 95.6926L559.571 96.0141L559.134 97.6441L560.345 97.9686ZM561.762 104.906C561.306 104.783 560.914 104.6 560.587 104.354C560.261 104.109 560.023 103.811 559.875 103.46C559.73 103.11 559.702 102.716 559.791 102.279L560.968 102.594C560.856 103.284 561.198 103.736 561.994 103.949C562.372 104.05 562.69 104.052 562.951 103.956C563.215 103.861 563.379 103.695 563.442 103.457C563.497 103.254 563.461 103.07 563.335 102.907C563.21 102.74 563.027 102.594 562.785 102.468L561.854 101.982C560.777 101.427 560.358 100.704 560.597 99.8135C560.739 99.2852 561.063 98.9112 561.571 98.6914C562.083 98.4726 562.68 98.4547 563.363 98.6377C564.038 98.8186 564.546 99.1427 564.886 99.6099C565.23 100.074 565.329 100.61 565.183 101.218L564.039 100.912C564.114 100.62 564.068 100.351 563.904 100.105C563.74 99.855 563.481 99.6824 563.126 99.5874C562.787 99.4964 562.496 99.5034 562.253 99.6082C562.011 99.7131 561.859 99.8807 561.797 100.111C561.743 100.315 561.774 100.499 561.892 100.664C562.013 100.83 562.2 100.979 562.451 101.111L563.409 101.61C563.956 101.894 564.331 102.207 564.535 102.549C564.739 102.891 564.782 103.278 564.666 103.712C564.564 104.093 564.37 104.393 564.085 104.612C563.805 104.828 563.463 104.963 563.061 105.017C562.659 105.067 562.226 105.03 561.762 104.906Z" fill="#314CFF"/>
<rect x="306.344" y="0.707107" width="171.834" height="119.066" rx="11.5" transform="rotate(45 306.344 0.707107)" fill="white" stroke="#E2E8F0"/>
<rect x="312" y="74.7071" width="59" height="22" rx="11" transform="rotate(45 312 74.7071)" fill="white"/>
<rect x="312" y="74.7071" width="59" height="22" rx="11" transform="rotate(45 312 74.7071)" stroke="#E2E8F0"/>
<path d="M313.999 86.2795L307.826 92.4529L306.906 91.5331L313.08 85.3598L313.999 86.2795ZM312.276 91.8646L309.757 94.3837L308.883 93.5094L313.258 89.1342L314.115 89.9919L313.457 90.6506C314.252 90.4518 314.941 90.6437 315.524 91.2265C315.825 91.5276 316.028 91.8632 316.133 92.2333C316.244 92.6035 316.24 92.986 316.121 93.381C316.002 93.776 315.752 94.1641 315.371 94.5452L312.645 97.2715L311.77 96.3973L314.389 93.7787C314.74 93.428 314.919 93.0799 314.928 92.7347C314.939 92.3866 314.794 92.0621 314.493 91.761C314.194 91.4627 313.85 91.3039 313.461 91.2845C313.077 91.2652 312.682 91.4586 312.276 91.8646ZM314.704 99.3306L317.413 93.2899L318.35 94.2262L316.821 97.4952C316.711 97.7272 316.597 97.9565 316.481 98.183C316.365 98.4095 316.251 98.6346 316.137 98.8583C316.361 98.7451 316.586 98.6304 316.813 98.5144C317.039 98.3984 317.267 98.2838 317.496 98.1705L320.753 96.6293L321.677 97.5532L315.632 100.259L314.704 99.3306ZM319.514 104.34C319.097 103.923 318.828 103.46 318.706 102.952C318.585 102.444 318.607 101.93 318.772 101.411C318.941 100.894 319.249 100.412 319.696 99.9646C320.149 99.5116 320.634 99.2008 321.151 99.0323C321.673 98.8638 322.188 98.8404 322.696 98.9619C323.207 99.0807 323.671 99.3486 324.088 99.7657C324.505 100.183 324.772 100.645 324.888 101.154C325.009 101.662 324.984 102.176 324.813 102.695C324.648 103.214 324.338 103.7 323.885 104.153C323.438 104.601 322.954 104.907 322.435 105.073C321.919 105.242 321.406 105.265 320.898 105.144C320.392 105.025 319.931 104.757 319.514 104.34ZM320.268 103.586C320.644 103.961 321.077 104.119 321.569 104.058C322.061 103.997 322.539 103.735 323.003 103.271C323.472 102.801 323.737 102.318 323.798 101.821C323.862 101.326 323.707 100.893 323.334 100.52C322.961 100.147 322.526 99.9908 322.029 100.052C321.537 100.112 321.055 100.379 320.583 100.851C320.116 101.318 319.852 101.797 319.792 102.289C319.734 102.778 319.893 103.21 320.268 103.586ZM322.481 107.107L326.856 102.732L327.73 103.606L323.355 107.982L322.481 107.107ZM328.045 102.413C327.89 102.259 327.81 102.076 327.805 101.866C327.805 101.656 327.879 101.477 328.028 101.328C328.18 101.176 328.36 101.101 328.567 101.104C328.78 101.107 328.963 101.185 329.118 101.34C329.273 101.495 329.351 101.678 329.354 101.891C329.36 102.101 329.287 102.282 329.135 102.434C328.985 102.583 328.805 102.656 328.592 102.653C328.382 102.648 328.2 102.568 328.045 102.413ZM326.118 110.944C325.701 110.527 325.432 110.064 325.31 109.556C325.192 109.051 325.217 108.54 325.385 108.023C325.556 107.504 325.864 107.022 326.309 106.577C326.759 106.127 327.244 105.816 327.763 105.645C328.285 105.476 328.799 105.452 329.304 105.57C329.813 105.686 330.275 105.953 330.692 106.37C331.04 106.718 331.282 107.098 331.418 107.509C331.558 107.921 331.594 108.332 331.525 108.744C331.456 109.156 331.285 109.534 331.011 109.879L330.141 109.009C330.343 108.719 330.434 108.407 330.415 108.073C330.396 107.739 330.238 107.424 329.943 107.128C329.564 106.75 329.129 106.594 328.637 106.66C328.146 106.726 327.665 106.994 327.196 107.464C326.732 107.928 326.468 108.404 326.404 108.893C326.341 109.382 326.498 109.816 326.877 110.194C327.178 110.495 327.486 110.651 327.8 110.662C328.118 110.671 328.434 110.575 328.749 110.376L329.632 111.259C329.295 111.53 328.919 111.701 328.505 111.773C328.093 111.842 327.679 111.809 327.262 111.673C326.848 111.535 326.466 111.292 326.118 110.944ZM330.647 115.473C330.213 115.039 329.938 114.568 329.822 114.06C329.709 113.554 329.74 113.046 329.914 112.535C330.093 112.024 330.402 111.549 330.842 111.11C331.286 110.665 331.768 110.357 332.288 110.186C332.807 110.015 333.318 109.984 333.821 110.095C334.326 110.202 334.778 110.455 335.175 110.853C335.59 111.267 335.852 111.723 335.963 112.22C336.076 112.72 336.044 113.227 335.867 113.741C335.693 114.252 335.381 114.732 334.931 115.183L334.695 115.419L331.476 112.199C331.097 112.611 330.891 113.043 330.858 113.496C330.828 113.952 331.005 114.372 331.389 114.756C331.676 115.043 331.977 115.214 332.292 115.27C332.607 115.325 332.898 115.279 333.166 115.133L334.007 115.974C333.673 116.203 333.307 116.334 332.909 116.367C332.514 116.403 332.119 116.345 331.724 116.193C331.335 116.042 330.976 115.801 330.647 115.473ZM332.147 111.545L334.504 113.902C334.816 113.518 334.968 113.121 334.96 112.709C334.954 112.295 334.786 111.922 334.454 111.59C334.123 111.259 333.75 111.09 333.336 111.085C332.927 111.079 332.531 111.233 332.147 111.545ZM335.018 119.852C334.684 119.518 334.437 119.163 334.276 118.787C334.116 118.411 334.059 118.034 334.106 117.656C334.156 117.28 334.329 116.925 334.624 116.591L335.486 117.453C335.044 117.994 335.115 118.556 335.697 119.139C335.974 119.416 336.248 119.577 336.522 119.624C336.798 119.674 337.023 119.612 337.197 119.438C337.346 119.288 337.407 119.112 337.38 118.907C337.355 118.7 337.269 118.482 337.123 118.253L336.559 117.366C335.905 116.347 335.903 115.511 336.555 114.859C336.942 114.473 337.41 114.311 337.96 114.375C338.512 114.441 339.038 114.724 339.538 115.224C340.033 115.718 340.31 116.253 340.371 116.827C340.437 117.402 340.255 117.916 339.824 118.369L338.987 117.532C339.197 117.316 339.292 117.061 339.273 116.765C339.256 116.467 339.118 116.188 338.859 115.928C338.61 115.68 338.355 115.54 338.092 115.51C337.83 115.479 337.614 115.549 337.446 115.717C337.297 115.866 337.232 116.042 337.251 116.243C337.273 116.448 337.36 116.67 337.512 116.91L338.092 117.822C338.424 118.341 338.592 118.8 338.598 119.197C338.603 119.595 338.447 119.953 338.13 120.27C337.851 120.549 337.533 120.712 337.177 120.759C336.826 120.806 336.463 120.752 336.087 120.598C335.714 120.44 335.358 120.192 335.018 119.852Z" fill="#314CFF"/>
<rect x="35.6124" y="60.3536" width="171.834" height="119.066" rx="11.5" transform="rotate(-15 35.6124 60.3536)" fill="white" stroke="#E2E8F0"/>
<rect x="93.6124" y="94.3536" width="78" height="22" rx="11" transform="rotate(-15 93.6124 94.3536)" fill="white"/>
<rect x="93.6124" y="94.3536" width="78" height="22" rx="11" transform="rotate(-15 93.6124 94.3536)" stroke="#E2E8F0"/>
<path d="M105.637 107.178L103.378 98.7448L105.149 98.2702L108.363 102.705C108.497 102.899 108.67 103.156 108.885 103.475C109.099 103.789 109.294 104.081 109.471 104.349C109.487 104.029 109.508 103.68 109.536 103.3C109.563 102.917 109.585 102.608 109.603 102.372L110.141 96.9326L111.918 96.4564L114.178 104.889L112.944 105.22L111.713 100.624C111.632 100.322 111.541 99.9705 111.442 99.5686C111.341 99.1628 111.243 98.7585 111.147 98.3555C111.115 98.8535 111.083 99.323 111.051 99.7642C111.024 100.204 110.997 100.557 110.971 100.823L110.425 105.895L109.395 106.171L106.37 102.056C106.221 101.849 106.029 101.575 105.792 101.234C105.558 100.888 105.304 100.517 105.032 100.121C105.147 100.503 105.258 100.882 105.367 101.257C105.476 101.632 105.568 101.963 105.645 102.25L106.877 106.846L105.637 107.178ZM116.408 106.828L116.138 105.82L116.783 105.647C116.972 105.597 117.11 105.501 117.197 105.36C117.29 105.222 117.349 105.018 117.373 104.749L117.455 103.969L113.555 98.6504L114.835 98.3077L116.907 101.265C117.046 101.466 117.183 101.67 117.319 101.876C117.454 102.078 117.588 102.281 117.719 102.485C117.731 102.243 117.745 102.001 117.761 101.758C117.779 101.51 117.798 101.264 117.818 101.02L118.117 97.4281L119.379 97.0899L118.545 104.842C118.444 105.811 117.985 106.405 117.166 106.624L116.408 106.828ZM124.654 102.082L122.394 93.6493L125.547 92.8046C126.415 92.5721 127.144 92.593 127.735 92.8673C128.329 93.1369 128.717 93.6093 128.898 94.2847C129.027 94.7677 129.006 95.194 128.834 95.5635C128.666 95.9321 128.379 96.2435 127.974 96.4976L127.977 96.5089C128.486 96.4454 128.952 96.5347 129.377 96.7767C129.806 97.0178 130.1 97.4383 130.261 98.0382C130.453 98.7551 130.357 99.3977 129.971 99.9661C129.588 100.53 128.899 100.945 127.903 101.212L124.654 102.082ZM125.615 100.69L127.54 100.175C128.113 100.021 128.525 99.7914 128.775 99.4859C129.027 99.1756 129.096 98.8054 128.981 98.3753C128.866 97.9489 128.623 97.6521 128.251 97.485C127.882 97.3169 127.419 97.3076 126.86 97.4572L124.891 97.985L125.615 100.69ZM124.613 96.9493L126.503 96.4427C126.983 96.3143 127.325 96.0992 127.532 95.7972C127.742 95.4943 127.793 95.1447 127.687 94.7485C127.581 94.3523 127.361 94.0756 127.028 93.9182C126.697 93.756 126.293 93.7392 125.813 93.8676L123.923 94.3741L124.613 96.9493ZM133.831 99.7263C133.235 99.8861 132.701 99.8676 132.227 99.6709C131.753 99.4704 131.436 99.0721 131.276 98.4759C131.155 98.0232 131.173 97.6462 131.331 97.3451C131.492 97.0392 131.737 96.7853 132.067 96.5837C132.401 96.3809 132.764 96.201 133.154 96.0438C133.516 95.8984 133.802 95.7813 134.012 95.6925C134.223 95.6036 134.366 95.5169 134.44 95.4323C134.518 95.3466 134.538 95.2302 134.498 95.0831L134.484 95.0321C134.407 94.7416 134.237 94.5322 133.976 94.4039C133.715 94.2719 133.393 94.2569 133.012 94.359C132.631 94.4612 132.344 94.637 132.153 94.8866C131.96 95.1324 131.889 95.3961 131.94 95.6776L130.768 95.9915C130.642 95.4147 130.757 94.8845 131.112 94.401C131.468 93.9174 132.02 93.5755 132.767 93.3754C133.502 93.1782 134.13 93.2041 134.65 93.4531C135.169 93.7021 135.511 94.1304 135.673 94.7378L136.771 98.8355L135.594 99.1509L135.367 98.3019L135.344 98.308C135.284 98.5829 135.145 98.8548 134.926 99.1238C134.709 99.388 134.345 99.5888 133.831 99.7263ZM133.817 98.699C134.345 98.5574 134.698 98.3175 134.874 97.9791C135.053 97.6359 135.093 97.2813 134.995 96.9153L134.807 96.2135C134.745 96.2989 134.582 96.4054 134.316 96.533C134.05 96.6569 133.765 96.7839 133.46 96.9141C133.145 97.0511 132.881 97.2209 132.668 97.4235C132.456 97.626 132.39 97.8783 132.471 98.1801C132.54 98.4367 132.694 98.6117 132.933 98.7053C133.175 98.7941 133.47 98.792 133.817 98.699ZM137.053 89.7216L139.313 98.1546L138.118 98.4745L135.859 90.0416L137.053 89.7216ZM142.513 97.4C141.917 97.5597 141.383 97.5413 140.909 97.3445C140.435 97.1441 140.118 96.7458 139.958 96.1496C139.837 95.6968 139.855 95.3199 140.013 95.0187C140.174 94.7128 140.419 94.459 140.749 94.2573C141.083 94.0546 141.446 93.8746 141.836 93.7174C142.198 93.572 142.484 93.455 142.694 93.3661C142.905 93.2773 143.048 93.1906 143.122 93.1059C143.2 93.0203 143.22 92.9039 143.18 92.7567L143.167 92.7058C143.089 92.4153 142.919 92.2059 142.658 92.0776C142.397 91.9456 142.075 91.9306 141.694 92.0327C141.313 92.1348 141.026 92.3107 140.835 92.5603C140.642 92.8061 140.571 93.0697 140.622 93.3512L139.45 93.6652C139.324 93.0883 139.439 92.5582 139.794 92.0746C140.15 91.5911 140.702 91.2492 141.449 91.049C142.184 90.8519 142.812 90.8778 143.332 91.1268C143.851 91.3758 144.193 91.804 144.355 92.4115L145.453 96.5091L144.276 96.8246L144.049 95.9756L144.026 95.9817C143.966 96.2565 143.827 96.5284 143.608 96.7974C143.391 97.0616 143.027 97.2625 142.513 97.4ZM142.499 96.3726C143.027 96.2311 143.38 95.9911 143.556 95.6527C143.735 95.3096 143.775 94.955 143.677 94.589L143.489 93.8872C143.427 93.9725 143.264 94.0791 142.998 94.2067C142.732 94.3306 142.447 94.4576 142.142 94.5878C141.827 94.7248 141.563 94.8946 141.351 95.0971C141.138 95.2997 141.072 95.5519 141.153 95.8538C141.222 96.1103 141.376 96.2854 141.615 96.379C141.857 96.4678 142.152 96.4656 142.499 96.3726ZM147.073 92.3871L147.995 95.8282L146.8 96.1482L145.199 90.1715L146.371 89.8576L146.612 90.7575C146.837 89.9692 147.348 89.4683 148.144 89.255C148.555 89.1448 148.948 89.1368 149.321 89.2309C149.696 89.3203 150.026 89.5152 150.308 89.8155C150.591 90.1159 150.802 90.5264 150.942 91.0471L151.939 94.7712L150.745 95.0912L149.787 91.5142C149.658 91.0351 149.447 90.7056 149.152 90.5257C148.856 90.3422 148.502 90.3055 148.091 90.4157C147.684 90.5249 147.374 90.7433 147.163 91.0709C146.954 91.3937 146.924 91.8324 147.073 92.3871ZM155.881 93.8606C155.311 94.0133 154.776 94.0152 154.275 93.8663C153.778 93.7165 153.348 93.4394 152.985 93.0353C152.621 92.6273 152.357 92.1196 152.194 91.5121C152.03 90.8971 152.003 90.3219 152.114 89.7866C152.229 89.2502 152.465 88.7929 152.82 88.4145C153.175 88.0324 153.637 87.765 154.207 87.6123C154.682 87.4849 155.132 87.4655 155.556 87.5541C155.983 87.6379 156.357 87.8125 156.679 88.0781C157.001 88.3437 157.243 88.6812 157.405 89.0907L156.217 89.4091C156.067 89.0895 155.842 88.8545 155.543 88.7041C155.244 88.5538 154.892 88.5327 154.488 88.6409C153.972 88.7794 153.619 89.0781 153.43 89.537C153.242 89.996 153.234 90.5461 153.406 91.1876C153.576 91.8215 153.856 92.2881 154.248 92.5876C154.64 92.8871 155.094 92.9676 155.611 92.829C156.022 92.7188 156.311 92.5302 156.478 92.263C156.644 91.992 156.72 91.6705 156.705 91.2984L157.91 90.9754C157.976 91.4025 157.937 91.8135 157.792 92.2082C157.646 92.5991 157.41 92.9414 157.084 93.2349C156.758 93.5247 156.356 93.7332 155.881 93.8606ZM162.067 92.2031C161.475 92.3618 160.929 92.3644 160.431 92.2107C159.937 92.056 159.512 91.7756 159.156 91.3694C158.804 90.9584 158.547 90.453 158.386 89.853C158.223 89.2456 158.198 88.6742 158.309 88.1388C158.42 87.6035 158.65 87.1458 158.997 86.7656C159.343 86.3818 159.787 86.117 160.331 85.9714C160.897 85.8198 161.423 85.8204 161.908 85.9733C162.398 86.1252 162.821 86.4061 163.178 86.8161C163.533 87.2223 163.793 87.7329 163.958 88.348L164.044 88.6706L159.647 89.8489C159.814 90.3824 160.086 90.7767 160.461 91.0319C160.841 91.2861 161.293 91.343 161.817 91.2024C162.21 91.0973 162.508 90.9222 162.714 90.6771C162.919 90.432 163.025 90.1569 163.032 89.8516L164.181 89.5438C164.213 89.9479 164.143 90.3304 163.973 90.6914C163.807 91.0515 163.559 91.3645 163.23 91.6306C162.904 91.892 162.516 92.0828 162.067 92.2031ZM159.416 88.9403L162.636 88.0774C162.459 87.6151 162.191 87.2847 161.83 87.0861C161.469 86.8837 161.062 86.8432 160.609 86.9645C160.156 87.0858 159.824 87.3245 159.612 87.6806C159.403 88.0318 159.337 88.4517 159.416 88.9403Z" fill="#314CFF"/>
<rect width="680" height="190" fill="url(#paint0_linear_6029_2526)"/>
</g>
<defs>
<filter id="filter0_f_6029_2526" x="-3" y="38" width="338.766" height="126.727" filterUnits="userSpaceOnUse" color-interpolation-filters="sRGB">
<feFlood flood-opacity="0" result="BackgroundImageFix"/>
<feBlend mode="normal" in="SourceGraphic" in2="BackgroundImageFix" result="shape"/>
<feGaussianBlur stdDeviation="4" result="effect1_foregroundBlur_6029_2526"/>
</filter>
<filter id="filter1_f_6029_2526" x="136.258" y="53.6289" width="269.652" height="107.316" filterUnits="userSpaceOnUse" color-interpolation-filters="sRGB">
<feFlood flood-opacity="0" result="BackgroundImageFix"/>
<feBlend mode="normal" in="SourceGraphic" in2="BackgroundImageFix" result="shape"/>
<feGaussianBlur stdDeviation="4" result="effect1_foregroundBlur_6029_2526"/>
</filter>
<filter id="filter2_f_6029_2526" x="164" y="78" width="233.18" height="92.7734" filterUnits="userSpaceOnUse" color-interpolation-filters="sRGB">
<feFlood flood-opacity="0" result="BackgroundImageFix"/>
<feBlend mode="normal" in="SourceGraphic" in2="BackgroundImageFix" result="shape"/>
<feGaussianBlur stdDeviation="4" result="effect1_foregroundBlur_6029_2526"/>
</filter>
<filter id="filter3_f_6029_2526" x="273.523" y="23" width="252.375" height="127.66" filterUnits="userSpaceOnUse" color-interpolation-filters="sRGB">
<feFlood flood-opacity="0" result="BackgroundImageFix"/>
<feBlend mode="normal" in="SourceGraphic" in2="BackgroundImageFix" result="shape"/>
<feGaussianBlur stdDeviation="4" result="effect1_foregroundBlur_6029_2526"/>
</filter>
<filter id="filter4_f_6029_2526" x="19" y="62" width="357.004" height="52.1523" filterUnits="userSpaceOnUse" color-interpolation-filters="sRGB">
<feFlood flood-opacity="0" result="BackgroundImageFix"/>
<feBlend mode="normal" in="SourceGraphic" in2="BackgroundImageFix" result="shape"/>
<feGaussianBlur stdDeviation="4" result="effect1_foregroundBlur_6029_2526"/>
</filter>
<filter id="filter5_f_6029_2526" x="247.605" y="36.0898" width="294.609" height="82.2969" filterUnits="userSpaceOnUse" color-interpolation-filters="sRGB">
<feFlood flood-opacity="0" result="BackgroundImageFix"/>
<feBlend mode="normal" in="SourceGraphic" in2="BackgroundImageFix" result="shape"/>
<feGaussianBlur stdDeviation="4" result="effect1_foregroundBlur_6029_2526"/>
</filter>
<filter id="filter6_f_6029_2526" x="345.516" y="33.0645" width="275.414" height="109.18" filterUnits="userSpaceOnUse" color-interpolation-filters="sRGB">
<feFlood flood-opacity="0" result="BackgroundImageFix"/>
<feBlend mode="normal" in="SourceGraphic" in2="BackgroundImageFix" result="shape"/>
<feGaussianBlur stdDeviation="4" result="effect1_foregroundBlur_6029_2526"/>
</filter>
<filter id="filter7_f_6029_2526" x="412" y="67" width="262.934" height="95.3066" filterUnits="userSpaceOnUse" color-interpolation-filters="sRGB">
<feFlood flood-opacity="0" result="BackgroundImageFix"/>
<feBlend mode="normal" in="SourceGraphic" in2="BackgroundImageFix" result="shape"/>
<feGaussianBlur stdDeviation="4" result="effect1_foregroundBlur_6029_2526"/>
</filter>
<filter id="filter8_f_6029_2526" x="468" y="43" width="214.938" height="64.5566" filterUnits="userSpaceOnUse" color-interpolation-filters="sRGB">
<feFlood flood-opacity="0" result="BackgroundImageFix"/>
<feBlend mode="normal" in="SourceGraphic" in2="BackgroundImageFix" result="shape"/>
<feGaussianBlur stdDeviation="4" result="effect1_foregroundBlur_6029_2526"/>
</filter>
<linearGradient id="paint0_linear_6029_2526" x1="340" y1="0" x2="340" y2="190" gradientUnits="userSpaceOnUse">
<stop offset="0.52597" stop-color="#F8FAFC" stop-opacity="0"/>
<stop offset="1" stop-color="#F8FAFC"/>
</linearGradient>
<clipPath id="clip0_6029_2526">
<rect width="680" height="190" rx="18" fill="white"/>
</clipPath>
</defs>
</svg>
