<svg width="680" height="190" viewBox="0 0 680 190" fill="none" xmlns="http://www.w3.org/2000/svg">
<g clip-path="url(#clip0_6029_2556)">
<g clip-path="url(#clip1_6029_2556)">
<rect x="43" y="35" width="120" height="120" rx="20" fill="white"/>
<g filter="url(#filter0_n_6029_2556)">
<rect x="43" y="35" width="120" height="120" fill="white"/>
</g>
<circle cx="103" cy="95" r="35.5" fill="white" stroke="#E2E8F0"/>
<g clip-path="url(#clip2_6029_2556)">
<rect x="72" y="64.5" width="62" height="62" rx="31" fill="white"/>
<path d="M103 126.5C120.179 126.5 134 112.679 134 95.5C134 78.3207 120.179 64.5 103 64.5C85.8207 64.5 72 78.3207 72 95.5C72 112.679 85.8207 126.5 103 126.5Z" fill="#4166FB"/>
<path d="M111.523 100.408C111.523 95.8871 108.811 94.3371 103.386 93.6914C99.5106 93.1746 98.7356 92.1414 98.7356 90.3328C98.7356 88.5243 100.027 87.3621 102.611 87.3621C104.936 87.3621 106.227 88.1371 106.873 90.0746C107.002 90.4621 107.39 90.7203 107.777 90.7203H109.844C110.361 90.7203 110.748 90.3328 110.748 89.8164V89.6871C110.231 86.8453 107.906 84.6496 104.936 84.3914V81.2914C104.936 80.7746 104.548 80.3871 103.902 80.2578H101.965C101.448 80.2578 101.061 80.6453 100.931 81.2914V84.2621C97.0563 84.7789 94.6023 87.3621 94.6023 90.5914C94.6023 94.8539 97.1856 96.5328 102.611 97.1789C106.227 97.8246 107.39 98.5996 107.39 100.666C107.39 102.733 105.581 104.154 103.127 104.154C99.7688 104.154 98.6063 102.733 98.2188 100.795C98.0898 100.279 97.7023 100.02 97.3148 100.02H95.1188C94.6023 100.02 94.2148 100.408 94.2148 100.925V101.054C94.7313 104.283 96.7981 106.608 101.061 107.254V110.354C101.061 110.87 101.448 111.258 102.094 111.387H104.031C104.548 111.387 104.936 111 105.065 110.354V107.254C108.94 106.608 111.523 103.895 111.523 100.408Z" fill="white"/>
<path d="M96.4131 113.97C86.3381 110.354 81.1713 99.116 84.9173 89.17C86.8548 83.745 91.1173 79.6117 96.4131 77.6742C96.9298 77.416 97.1881 77.0285 97.1881 76.3825V74.5742C97.1881 74.0575 96.9298 73.67 96.4131 73.541C96.2838 73.541 96.0256 73.541 95.8963 73.67C83.6256 77.545 76.9088 90.591 80.7838 102.862C83.1088 110.095 88.6631 115.649 95.8963 117.974C96.4131 118.232 96.9298 117.974 97.0588 117.457C97.1881 117.329 97.1881 117.199 97.1881 116.941V115.132C97.1881 114.745 96.8006 114.229 96.4131 113.97ZM110.105 73.67C109.588 73.4117 109.071 73.67 108.942 74.1867C108.813 74.316 108.813 74.445 108.813 74.7035V76.5117C108.813 77.0285 109.201 77.545 109.588 77.8035C119.663 81.42 124.83 92.6575 121.084 102.604C119.146 108.029 114.884 112.162 109.588 114.099C109.071 114.357 108.813 114.745 108.813 115.391V117.199C108.813 117.716 109.071 118.104 109.588 118.232C109.717 118.232 109.976 118.232 110.105 118.104C122.376 114.229 129.092 101.182 125.217 88.9117C122.892 81.5492 117.209 75.995 110.105 73.67Z" fill="white"/>
</g>
</g>
<rect x="43.5" y="35.5" width="119" height="119" rx="19.5" stroke="#E2E8F0"/>
<rect width="144" height="11" transform="translate(163 90)" fill="url(#paint0_linear_6029_2556)"/>
<rect x="345.963" y="28.4632" width="252.074" height="23.0737" rx="7.53684" fill="white"/>
<rect x="345.963" y="28.4632" width="252.074" height="23.0737" rx="7.53684" stroke="#E2E8F0" stroke-width="0.926316"/>
<rect x="345.963" y="140.463" width="252.074" height="23.0737" rx="7.53684" fill="white"/>
<rect x="345.963" y="140.463" width="252.074" height="23.0737" rx="7.53684" stroke="#E2E8F0" stroke-width="0.926316"/>
<rect x="307.5" y="46.5" width="329" height="99" rx="17.5" fill="white"/>
<rect x="307.5" y="46.5" width="329" height="99" rx="17.5" stroke="#E2E8F0"/>
<path d="M330.73 82.2109C329.16 82.2109 327.921 81.8154 327.013 81.0244C326.11 80.2275 325.659 79.1377 325.659 77.7549H327.61C327.616 78.6162 327.892 79.29 328.437 79.7764C328.987 80.2627 329.752 80.5059 330.73 80.5059C331.621 80.5059 332.333 80.3184 332.866 79.9434C333.405 79.5625 333.675 79.0527 333.675 78.4141C333.675 77.9102 333.481 77.5029 333.095 77.1924C332.714 76.876 332.069 76.6094 331.161 76.3926L329.729 76.0498C328.404 75.7334 327.438 75.2939 326.828 74.7314C326.225 74.1631 325.923 73.4248 325.923 72.5166C325.923 71.749 326.116 71.0781 326.503 70.5039C326.89 69.9297 327.432 69.4844 328.129 69.168C328.832 68.8516 329.652 68.6934 330.59 68.6934C332.002 68.6934 333.124 69.0625 333.956 69.8008C334.794 70.5391 335.233 71.5469 335.274 72.8242H333.385C333.338 72.0684 333.062 71.4766 332.559 71.0488C332.055 70.6152 331.39 70.3984 330.563 70.3984C329.772 70.3984 329.125 70.5889 328.621 70.9697C328.117 71.3447 327.865 71.8281 327.865 72.4199C327.865 72.8945 328.059 73.2812 328.445 73.5801C328.832 73.873 329.474 74.1279 330.37 74.3447L331.785 74.6787C333.098 74.9893 334.064 75.4375 334.686 76.0234C335.312 76.6094 335.626 77.3711 335.626 78.3086C335.626 79.0938 335.424 79.7793 335.02 80.3652C334.615 80.9512 334.047 81.4053 333.314 81.7275C332.582 82.0498 331.721 82.2109 330.73 82.2109ZM340.688 82.1846C340.056 82.1846 339.484 82.0469 338.975 81.7715C338.471 81.4902 338.069 81.0771 337.771 80.5322C337.478 79.9873 337.331 79.3105 337.331 78.502V72.7188H339.186V78.2734C339.186 79.0176 339.364 79.5801 339.722 79.9609C340.079 80.3359 340.58 80.5234 341.225 80.5234C341.852 80.5234 342.379 80.3301 342.807 79.9434C343.24 79.5508 343.457 78.9238 343.457 78.0625V72.7188H345.312V82H343.492V80.6025C342.859 81.6572 341.925 82.1846 340.688 82.1846ZM347.403 82V72.7188H349.179V74.2217H349.214C349.384 73.7119 349.65 73.3164 350.014 73.0352C350.383 72.748 350.863 72.6045 351.455 72.6045C351.596 72.6045 351.725 72.6104 351.842 72.6221C351.959 72.6338 352.056 72.6426 352.132 72.6484V74.3799C352.062 74.3623 351.936 74.3447 351.754 74.3271C351.572 74.3037 351.373 74.292 351.156 74.292C350.635 74.292 350.187 74.4736 349.812 74.8369C349.442 75.2002 349.258 75.7598 349.258 76.5156V82H347.403ZM356.122 82.1494C355.196 82.1494 354.429 81.915 353.819 81.4463C353.21 80.9717 352.905 80.2715 352.905 79.3457C352.905 78.6426 353.078 78.1035 353.424 77.7285C353.775 77.3477 354.229 77.0752 354.786 76.9111C355.349 76.7471 355.943 76.627 356.57 76.5508C357.15 76.4805 357.61 76.4219 357.95 76.375C358.29 76.3281 358.53 76.2578 358.671 76.1641C358.817 76.0703 358.891 75.9092 358.891 75.6807V75.6016C358.891 75.1504 358.727 74.7812 358.398 74.4941C358.07 74.2012 357.61 74.0547 357.019 74.0547C356.427 74.0547 355.943 74.1982 355.568 74.4854C355.193 74.7666 354.988 75.1211 354.953 75.5488H353.134C353.175 74.6641 353.547 73.9404 354.25 73.3779C354.953 72.8154 355.885 72.5342 357.045 72.5342C358.188 72.5342 359.087 72.8154 359.743 73.3779C360.399 73.9404 360.728 74.6934 360.728 75.6367V82H358.899V80.6816H358.864C358.671 81.0566 358.363 81.3965 357.941 81.7012C357.525 82 356.919 82.1494 356.122 82.1494ZM356.5 80.6553C357.32 80.6553 357.924 80.4443 358.311 80.0225C358.703 79.5947 358.899 79.0967 358.899 78.5283V77.4385C358.776 77.5381 358.498 77.6289 358.064 77.7109C357.631 77.7871 357.168 77.8604 356.676 77.9307C356.166 78.0068 355.718 78.1504 355.331 78.3613C354.944 78.5723 354.751 78.9121 354.751 79.3809C354.751 79.7793 354.906 80.0928 355.217 80.3213C355.533 80.5439 355.961 80.6553 356.5 80.6553ZM362.819 72.7188H364.683V83.125C364.683 83.8809 364.451 84.4932 363.988 84.9619C363.531 85.4365 362.872 85.6738 362.011 85.6738H361.237V84.1094H361.765C362.134 84.1094 362.4 84.0127 362.564 83.8193C362.734 83.626 362.819 83.3125 362.819 82.8789V72.7188ZM363.742 71.1191C363.414 71.1191 363.136 71.0107 362.907 70.7939C362.685 70.5713 362.573 70.3018 362.573 69.9854C362.573 69.6631 362.685 69.3936 362.907 69.1768C363.136 68.9541 363.414 68.8428 363.742 68.8428C364.07 68.8428 364.349 68.9541 364.577 69.1768C364.806 69.3936 364.92 69.6631 364.92 69.9854C364.92 70.3018 364.806 70.5713 364.577 70.7939C364.349 71.0107 364.07 71.1191 363.742 71.1191ZM375.748 82.2109C374.178 82.2109 372.938 81.8154 372.03 81.0244C371.128 80.2275 370.677 79.1377 370.677 77.7549H372.628C372.634 78.6162 372.909 79.29 373.454 79.7764C374.005 80.2627 374.77 80.5059 375.748 80.5059C376.639 80.5059 377.351 80.3184 377.884 79.9434C378.423 79.5625 378.692 79.0527 378.692 78.4141C378.692 77.9102 378.499 77.5029 378.112 77.1924C377.731 76.876 377.087 76.6094 376.179 76.3926L374.746 76.0498C373.422 75.7334 372.455 75.2939 371.846 74.7314C371.242 74.1631 370.94 73.4248 370.94 72.5166C370.94 71.749 371.134 71.0781 371.521 70.5039C371.907 69.9297 372.449 69.4844 373.146 69.168C373.85 68.8516 374.67 68.6934 375.607 68.6934C377.02 68.6934 378.142 69.0625 378.974 69.8008C379.812 70.5391 380.251 71.5469 380.292 72.8242H378.402C378.355 72.0684 378.08 71.4766 377.576 71.0488C377.072 70.6152 376.407 70.3984 375.581 70.3984C374.79 70.3984 374.143 70.5889 373.639 70.9697C373.135 71.3447 372.883 71.8281 372.883 72.4199C372.883 72.8945 373.076 73.2812 373.463 73.5801C373.85 73.873 374.491 74.1279 375.388 74.3447L376.803 74.6787C378.115 74.9893 379.082 75.4375 379.703 76.0234C380.33 76.6094 380.644 77.3711 380.644 78.3086C380.644 79.0938 380.441 79.7793 380.037 80.3652C379.633 80.9512 379.064 81.4053 378.332 81.7275C377.6 82.0498 376.738 82.2109 375.748 82.2109ZM382.349 82V72.7188H384.203V82H382.349ZM383.271 71.1191C382.943 71.1191 382.665 71.0107 382.437 70.7939C382.214 70.5713 382.103 70.3018 382.103 69.9854C382.103 69.6631 382.214 69.3936 382.437 69.1768C382.665 68.9541 382.943 68.8428 383.271 68.8428C383.6 68.8428 383.878 68.9541 384.106 69.1768C384.335 69.3936 384.449 69.6631 384.449 69.9854C384.449 70.3018 384.335 70.5713 384.106 70.7939C383.878 71.0107 383.6 71.1191 383.271 71.1191ZM388.158 76.6562V82H386.304V72.7188H388.123V74.1162C388.756 73.0615 389.69 72.5342 390.927 72.5342C391.565 72.5342 392.137 72.6748 392.641 72.9561C393.15 73.2314 393.552 73.6416 393.845 74.1865C394.138 74.7314 394.284 75.4082 394.284 76.2168V82H392.43V76.4453C392.43 75.7012 392.251 75.1416 391.894 74.7666C391.536 74.3857 391.038 74.1953 390.399 74.1953C389.767 74.1953 389.233 74.3916 388.8 74.7842C388.372 75.1709 388.158 75.7949 388.158 76.6562ZM400.428 85.7969C399.291 85.7969 398.362 85.5449 397.642 85.041C396.921 84.5371 396.499 83.8311 396.376 82.9229H398.23C398.348 83.374 398.603 83.7139 398.995 83.9424C399.388 84.1709 399.865 84.2852 400.428 84.2852C401.178 84.2852 401.764 84.083 402.186 83.6787C402.607 83.2744 402.818 82.6973 402.818 81.9473V80.541H402.81C402.487 81.0801 402.08 81.4785 401.588 81.7363C401.102 81.9941 400.554 82.123 399.944 82.123C399.136 82.123 398.43 81.9209 397.826 81.5166C397.223 81.1064 396.754 80.5439 396.42 79.8291C396.086 79.1084 395.919 78.2764 395.919 77.333C395.919 76.3896 396.086 75.5576 396.42 74.8369C396.76 74.1162 397.231 73.5537 397.835 73.1494C398.438 72.7393 399.139 72.5342 399.936 72.5342C400.539 72.5342 401.093 72.6631 401.597 72.9209C402.101 73.1787 402.508 73.583 402.818 74.1338H402.827V72.7188H404.655V81.877C404.655 82.8145 404.465 83.5703 404.084 84.1445C403.703 84.7188 403.193 85.1377 402.555 85.4014C401.916 85.665 401.207 85.7969 400.428 85.7969ZM400.322 80.5322C401.113 80.5322 401.743 80.2422 402.212 79.6621C402.687 79.0762 402.924 78.2969 402.924 77.3242C402.924 76.3516 402.687 75.5752 402.212 74.9951C401.743 74.4092 401.113 74.1162 400.322 74.1162C399.572 74.1162 398.963 74.3916 398.494 74.9424C398.031 75.4873 397.8 76.2812 397.8 77.3242C397.8 78.3672 398.031 79.1641 398.494 79.7148C398.963 80.2598 399.572 80.5322 400.322 80.5322ZM408.602 76.6562V82H406.747V68.9043H408.602V74.0547C409.24 73.041 410.163 72.5342 411.37 72.5342C412.009 72.5342 412.58 72.6748 413.084 72.9561C413.594 73.2314 413.995 73.6416 414.288 74.1865C414.581 74.7314 414.728 75.4082 414.728 76.2168V82H412.873V76.4453C412.873 75.7012 412.694 75.1416 412.337 74.7666C411.979 74.3857 411.481 74.1953 410.843 74.1953C410.21 74.1953 409.677 74.3916 409.243 74.7842C408.815 75.1709 408.602 75.7949 408.602 76.6562Z" fill="#0F172A"/>
<path d="M328.746 102.188L328.814 99.6797L326.661 101.033L326.114 100.09L328.322 98.9072L326.114 97.7246L326.661 96.7744L328.814 98.1348L328.746 95.626H329.84L329.771 98.1211L331.911 96.7744L332.458 97.7246L330.25 98.9072L332.458 100.09L331.911 101.033L329.771 99.6934L329.84 102.188H328.746ZM337.318 102.188L337.387 99.6797L335.233 101.033L334.687 100.09L336.895 98.9072L334.687 97.7246L335.233 96.7744L337.387 98.1348L337.318 95.626H338.412L338.344 98.1211L340.483 96.7744L341.03 97.7246L338.822 98.9072L341.03 100.09L340.483 101.033L338.344 99.6934L338.412 102.188H337.318ZM345.891 102.188L345.959 99.6797L343.806 101.033L343.259 100.09L345.467 98.9072L343.259 97.7246L343.806 96.7744L345.959 98.1348L345.891 95.626H346.984L346.916 98.1211L349.056 96.7744L349.603 97.7246L347.395 98.9072L349.603 100.09L349.056 101.033L346.916 99.6934L346.984 102.188H345.891ZM354.463 102.188L354.531 99.6797L352.378 101.033L351.831 100.09L354.039 98.9072L351.831 97.7246L352.378 96.7744L354.531 98.1348L354.463 95.626H355.557L355.488 98.1211L357.628 96.7744L358.175 97.7246L355.967 98.9072L358.175 100.09L357.628 101.033L355.488 99.6934L355.557 102.188H354.463ZM359.645 101.539V100.527L364.519 93.8145H366.022V100.445H367.581V101.539H366.022V104H364.847V101.539H359.645ZM364.847 100.445V95.1953H364.833L361.039 100.432V100.445H364.847ZM371.771 104.164C370.887 104.164 370.158 103.916 369.584 103.419C369.014 102.922 368.682 102.268 368.586 101.457H369.789C369.885 101.949 370.097 102.341 370.425 102.633C370.753 102.924 371.174 103.07 371.689 103.07C372.277 103.07 372.763 102.902 373.146 102.564C373.533 102.227 373.822 101.762 374.014 101.17C374.205 100.577 374.301 99.903 374.301 99.1465H374.287C374.055 99.5384 373.711 99.8438 373.255 100.062C372.804 100.281 372.305 100.391 371.758 100.391C371.147 100.391 370.6 100.247 370.117 99.96C369.634 99.6683 369.254 99.2695 368.976 98.7637C368.698 98.2578 368.559 97.6836 368.559 97.041C368.559 96.3711 368.702 95.7809 368.989 95.2705C369.281 94.7601 369.682 94.3636 370.192 94.0811C370.707 93.7939 371.298 93.6504 371.963 93.6504C373.093 93.6504 373.966 94.0697 374.581 94.9082C375.196 95.7467 375.504 96.9362 375.504 98.4766C375.504 99.6159 375.369 100.614 375.101 101.471C374.836 102.323 374.428 102.986 373.877 103.46C373.326 103.929 372.624 104.164 371.771 104.164ZM371.922 99.2969C372.337 99.2969 372.713 99.1966 373.05 98.9961C373.387 98.7956 373.656 98.5244 373.856 98.1826C374.062 97.8363 374.164 97.4512 374.164 97.0273C374.164 96.599 374.064 96.2139 373.863 95.8721C373.667 95.5257 373.403 95.2523 373.07 95.0518C372.738 94.8467 372.368 94.7441 371.963 94.7441C371.553 94.7441 371.179 94.8467 370.842 95.0518C370.509 95.2523 370.243 95.5257 370.042 95.8721C369.846 96.2184 369.748 96.6081 369.748 97.041C369.748 97.4694 369.844 97.8545 370.035 98.1963C370.227 98.5335 370.486 98.8024 370.814 99.0029C371.147 99.1989 371.516 99.2969 371.922 99.2969ZM379.947 104.164C379.063 104.164 378.334 103.916 377.76 103.419C377.19 102.922 376.857 102.268 376.762 101.457H377.965C378.061 101.949 378.272 102.341 378.601 102.633C378.929 102.924 379.35 103.07 379.865 103.07C380.453 103.07 380.938 102.902 381.321 102.564C381.709 102.227 381.998 101.762 382.189 101.17C382.381 100.577 382.477 99.903 382.477 99.1465H382.463C382.23 99.5384 381.886 99.8438 381.431 100.062C380.979 100.281 380.48 100.391 379.934 100.391C379.323 100.391 378.776 100.247 378.293 99.96C377.81 99.6683 377.429 99.2695 377.151 98.7637C376.873 98.2578 376.734 97.6836 376.734 97.041C376.734 96.3711 376.878 95.7809 377.165 95.2705C377.457 94.7601 377.858 94.3636 378.368 94.0811C378.883 93.7939 379.473 93.6504 380.139 93.6504C381.269 93.6504 382.142 94.0697 382.757 94.9082C383.372 95.7467 383.68 96.9362 383.68 98.4766C383.68 99.6159 383.545 100.614 383.276 101.471C383.012 102.323 382.604 102.986 382.053 103.46C381.501 103.929 380.799 104.164 379.947 104.164ZM380.098 99.2969C380.512 99.2969 380.888 99.1966 381.226 98.9961C381.563 98.7956 381.832 98.5244 382.032 98.1826C382.237 97.8363 382.34 97.4512 382.34 97.0273C382.34 96.599 382.24 96.2139 382.039 95.8721C381.843 95.5257 381.579 95.2523 381.246 95.0518C380.913 94.8467 380.544 94.7441 380.139 94.7441C379.729 94.7441 379.355 94.8467 379.018 95.0518C378.685 95.2523 378.418 95.5257 378.218 95.8721C378.022 96.2184 377.924 96.6081 377.924 97.041C377.924 97.4694 378.02 97.8545 378.211 98.1963C378.402 98.5335 378.662 98.8024 378.99 99.0029C379.323 99.1989 379.692 99.2969 380.098 99.2969ZM388.533 104.164C387.831 104.164 387.212 104.023 386.674 103.74C386.136 103.453 385.715 103.057 385.409 102.551C385.104 102.045 384.951 101.462 384.951 100.801H386.195C386.195 101.521 386.398 102.081 386.804 102.482C387.209 102.883 387.777 103.084 388.506 103.084C389.203 103.084 389.768 102.909 390.201 102.558C390.639 102.202 390.857 101.726 390.857 101.129C390.857 100.587 390.625 100.151 390.16 99.8232C389.695 99.4906 389.089 99.3242 388.342 99.3242H387.521V98.2305H388.342C388.998 98.2305 389.529 98.0801 389.935 97.7793C390.34 97.474 390.543 97.0729 390.543 96.5762C390.543 96.002 390.352 95.5508 389.969 95.2227C389.59 94.8945 389.085 94.7305 388.451 94.7305C387.804 94.7305 387.294 94.9128 386.92 95.2773C386.546 95.6374 386.359 96.1387 386.359 96.7812H385.17C385.17 96.166 385.309 95.6237 385.587 95.1543C385.869 94.6803 386.257 94.3112 386.749 94.0469C387.246 93.7826 387.815 93.6504 388.458 93.6504C389.082 93.6504 389.643 93.7734 390.14 94.0195C390.636 94.2656 391.028 94.6029 391.315 95.0312C391.603 95.4596 391.746 95.9518 391.746 96.5078C391.746 97.0228 391.582 97.4808 391.254 97.8818C390.93 98.2783 390.484 98.5632 389.914 98.7363V98.7568C390.566 98.8662 391.085 99.1396 391.473 99.5771C391.865 100.01 392.061 100.527 392.061 101.129C392.061 101.721 391.906 102.248 391.596 102.708C391.29 103.164 390.871 103.521 390.338 103.781C389.809 104.036 389.208 104.164 388.533 104.164Z" fill="#64748B"/>
<path d="M329.375 125.164C328.591 125.164 327.912 125.025 327.338 124.747C326.764 124.465 326.319 124.066 326.005 123.551C325.69 123.036 325.533 122.425 325.533 121.719H326.791C326.791 122.448 327.017 123.018 327.468 123.428C327.924 123.838 328.559 124.043 329.375 124.043C330.118 124.043 330.713 123.881 331.159 123.558C331.61 123.234 331.836 122.799 331.836 122.252C331.836 121.828 331.683 121.484 331.378 121.22C331.073 120.955 330.553 120.732 329.819 120.55L328.678 120.27C327.639 120.014 326.889 119.673 326.429 119.244C325.968 118.816 325.738 118.255 325.738 117.562C325.738 116.975 325.882 116.464 326.169 116.031C326.461 115.594 326.871 115.254 327.399 115.013C327.928 114.771 328.546 114.65 329.252 114.65C330.314 114.65 331.159 114.935 331.788 115.505C332.422 116.07 332.752 116.842 332.779 117.822H331.562C331.526 117.184 331.298 116.685 330.879 116.325C330.46 115.961 329.904 115.778 329.211 115.778C328.55 115.778 328.008 115.94 327.584 116.264C327.165 116.583 326.955 116.995 326.955 117.501C326.955 117.897 327.11 118.221 327.42 118.472C327.734 118.718 328.261 118.934 328.999 119.121L330.154 119.408C331.148 119.654 331.882 120.003 332.355 120.454C332.829 120.905 333.066 121.486 333.066 122.197C333.066 122.785 332.911 123.302 332.602 123.749C332.296 124.196 331.866 124.544 331.31 124.795C330.758 125.041 330.113 125.164 329.375 125.164ZM334.611 125V114.814H338.289C339.31 114.814 340.112 115.058 340.695 115.546C341.279 116.034 341.57 116.692 341.57 117.521C341.57 118.105 341.424 118.574 341.133 118.93C340.841 119.285 340.436 119.549 339.916 119.723V119.736C340.495 119.832 340.985 120.076 341.386 120.468C341.787 120.855 341.987 121.413 341.987 122.143C341.987 123.013 341.687 123.708 341.085 124.228C340.483 124.743 339.57 125 338.344 125H334.611ZM335.842 123.906H338.344C339.114 123.906 339.704 123.763 340.114 123.476C340.529 123.184 340.736 122.756 340.736 122.19C340.736 121.625 340.536 121.181 340.135 120.857C339.734 120.529 339.16 120.365 338.412 120.365H335.842V123.906ZM335.842 119.285H338.337C338.97 119.285 339.465 119.135 339.82 118.834C340.176 118.529 340.354 118.116 340.354 117.597C340.354 117.077 340.176 116.667 339.82 116.366C339.465 116.061 338.97 115.908 338.337 115.908H335.842V119.285ZM344.783 114.814V125H343.553V114.814H344.783ZM346.807 125V114.814H348.222L352.419 121.445C352.537 121.637 352.701 121.908 352.911 122.259C353.121 122.61 353.328 122.965 353.533 123.325C353.52 122.97 353.508 122.601 353.499 122.218C353.494 121.835 353.492 121.559 353.492 121.391V114.814H354.723V125H353.294L349.562 119.107C349.42 118.889 349.211 118.554 348.933 118.103C348.659 117.647 348.34 117.114 347.976 116.503C347.998 117.136 348.014 117.672 348.023 118.109C348.033 118.542 348.037 118.87 348.037 119.094V125H346.807ZM360.027 125.164C359.275 125.164 358.624 124.95 358.072 124.521C357.525 124.089 357.102 123.48 356.801 122.696C356.5 121.912 356.35 120.985 356.35 119.914C356.35 118.839 356.5 117.909 356.801 117.125C357.102 116.337 357.525 115.728 358.072 115.3C358.624 114.867 359.275 114.65 360.027 114.65C360.779 114.65 361.431 114.867 361.982 115.3C362.534 115.728 362.958 116.337 363.254 117.125C363.555 117.909 363.705 118.839 363.705 119.914C363.705 120.985 363.555 121.912 363.254 122.696C362.958 123.48 362.534 124.089 361.982 124.521C361.431 124.95 360.779 125.164 360.027 125.164ZM360.027 124.07C360.807 124.07 361.42 123.701 361.866 122.963C362.317 122.22 362.543 121.204 362.543 119.914C362.543 118.615 362.317 117.597 361.866 116.858C361.42 116.116 360.807 115.744 360.027 115.744C359.248 115.744 358.633 116.116 358.182 116.858C357.735 117.597 357.512 118.615 357.512 119.914C357.512 121.204 357.735 122.22 358.182 122.963C358.633 123.701 359.248 124.07 360.027 124.07ZM368.613 125.164C367.861 125.164 367.21 124.95 366.658 124.521C366.111 124.089 365.688 123.48 365.387 122.696C365.086 121.912 364.936 120.985 364.936 119.914C364.936 118.839 365.086 117.909 365.387 117.125C365.688 116.337 366.111 115.728 366.658 115.3C367.21 114.867 367.861 114.65 368.613 114.65C369.365 114.65 370.017 114.867 370.568 115.3C371.12 115.728 371.544 116.337 371.84 117.125C372.141 117.909 372.291 118.839 372.291 119.914C372.291 120.985 372.141 121.912 371.84 122.696C371.544 123.48 371.12 124.089 370.568 124.521C370.017 124.95 369.365 125.164 368.613 125.164ZM368.613 124.07C369.393 124.07 370.006 123.701 370.452 122.963C370.903 122.22 371.129 121.204 371.129 119.914C371.129 118.615 370.903 117.597 370.452 116.858C370.006 116.116 369.393 115.744 368.613 115.744C367.834 115.744 367.219 116.116 366.768 116.858C366.321 117.597 366.098 118.615 366.098 119.914C366.098 121.204 366.321 122.22 366.768 122.963C367.219 123.701 367.834 124.07 368.613 124.07ZM377.199 125.164C376.447 125.164 375.796 124.95 375.244 124.521C374.697 124.089 374.273 123.48 373.973 122.696C373.672 121.912 373.521 120.985 373.521 119.914C373.521 118.839 373.672 117.909 373.973 117.125C374.273 116.337 374.697 115.728 375.244 115.3C375.796 114.867 376.447 114.65 377.199 114.65C377.951 114.65 378.603 114.867 379.154 115.3C379.706 115.728 380.13 116.337 380.426 117.125C380.727 117.909 380.877 118.839 380.877 119.914C380.877 120.985 380.727 121.912 380.426 122.696C380.13 123.48 379.706 124.089 379.154 124.521C378.603 124.95 377.951 125.164 377.199 125.164ZM377.199 124.07C377.979 124.07 378.591 123.701 379.038 122.963C379.489 122.22 379.715 121.204 379.715 119.914C379.715 118.615 379.489 117.597 379.038 116.858C378.591 116.116 377.979 115.744 377.199 115.744C376.42 115.744 375.805 116.116 375.354 116.858C374.907 117.597 374.684 118.615 374.684 119.914C374.684 121.204 374.907 122.22 375.354 122.963C375.805 123.701 376.42 124.07 377.199 124.07ZM385.785 125.164C385.033 125.164 384.382 124.95 383.83 124.521C383.283 124.089 382.859 123.48 382.559 122.696C382.258 121.912 382.107 120.985 382.107 119.914C382.107 118.839 382.258 117.909 382.559 117.125C382.859 116.337 383.283 115.728 383.83 115.3C384.382 114.867 385.033 114.65 385.785 114.65C386.537 114.65 387.189 114.867 387.74 115.3C388.292 115.728 388.715 116.337 389.012 117.125C389.312 117.909 389.463 118.839 389.463 119.914C389.463 120.985 389.312 121.912 389.012 122.696C388.715 123.48 388.292 124.089 387.74 124.521C387.189 124.95 386.537 125.164 385.785 125.164ZM385.785 124.07C386.564 124.07 387.177 123.701 387.624 122.963C388.075 122.22 388.301 121.204 388.301 119.914C388.301 118.615 388.075 117.597 387.624 116.858C387.177 116.116 386.564 115.744 385.785 115.744C385.006 115.744 384.391 116.116 383.939 116.858C383.493 117.597 383.27 118.615 383.27 119.914C383.27 121.204 383.493 122.22 383.939 122.963C384.391 123.701 385.006 124.07 385.785 124.07ZM394.371 125.164C393.619 125.164 392.967 124.95 392.416 124.521C391.869 124.089 391.445 123.48 391.145 122.696C390.844 121.912 390.693 120.985 390.693 119.914C390.693 118.839 390.844 117.909 391.145 117.125C391.445 116.337 391.869 115.728 392.416 115.3C392.967 114.867 393.619 114.65 394.371 114.65C395.123 114.65 395.775 114.867 396.326 115.3C396.878 115.728 397.301 116.337 397.598 117.125C397.898 117.909 398.049 118.839 398.049 119.914C398.049 120.985 397.898 121.912 397.598 122.696C397.301 123.48 396.878 124.089 396.326 124.521C395.775 124.95 395.123 125.164 394.371 125.164ZM394.371 124.07C395.15 124.07 395.763 123.701 396.21 122.963C396.661 122.22 396.887 121.204 396.887 119.914C396.887 118.615 396.661 117.597 396.21 116.858C395.763 116.116 395.15 115.744 394.371 115.744C393.592 115.744 392.977 116.116 392.525 116.858C392.079 117.597 391.855 118.615 391.855 119.914C391.855 121.204 392.079 122.22 392.525 122.963C392.977 123.701 393.592 124.07 394.371 124.07ZM402.725 114.814V125H401.535V116.086H401.528L398.992 117.768V116.51L401.535 114.814H402.725ZM408.029 125.164C407.277 125.164 406.626 124.95 406.074 124.521C405.527 124.089 405.104 123.48 404.803 122.696C404.502 121.912 404.352 120.985 404.352 119.914C404.352 118.839 404.502 117.909 404.803 117.125C405.104 116.337 405.527 115.728 406.074 115.3C406.626 114.867 407.277 114.65 408.029 114.65C408.781 114.65 409.433 114.867 409.984 115.3C410.536 115.728 410.96 116.337 411.256 117.125C411.557 117.909 411.707 118.839 411.707 119.914C411.707 120.985 411.557 121.912 411.256 122.696C410.96 123.48 410.536 124.089 409.984 124.521C409.433 124.95 408.781 125.164 408.029 125.164ZM408.029 124.07C408.809 124.07 409.422 123.701 409.868 122.963C410.319 122.22 410.545 121.204 410.545 119.914C410.545 118.615 410.319 117.597 409.868 116.858C409.422 116.116 408.809 115.744 408.029 115.744C407.25 115.744 406.635 116.116 406.184 116.858C405.737 117.597 405.514 118.615 405.514 119.914C405.514 121.204 405.737 122.22 406.184 122.963C406.635 123.701 407.25 124.07 408.029 124.07Z" fill="#64748B"/>
<path d="M596.144 69.838C596.81 69.5083 597.619 69.7239 598.033 70.344C600.091 73.4404 602.664 76.1001 605.674 78.2474C607.827 79.7821 610.179 81.029 612.661 81.9544C614.351 82.5842 615.269 84.3625 614.807 86.0891L609.867 104.524C607.403 113.721 599.704 120.388 590.251 121.517L583.663 122.304C583.478 122.326 583.288 122.311 583.107 122.263C582.973 122.227 582.844 122.172 582.723 122.099L582.604 122.019L577.295 118.045C569.671 112.342 566.338 102.719 568.803 93.5206L573.743 75.086C574.206 73.3572 575.89 72.2787 577.668 72.578C580.282 73.0183 582.942 73.1143 585.572 72.8609C589.256 72.5076 592.813 71.4903 596.144 69.838ZM598.588 91.0377C599.297 90.6285 600.198 90.8699 600.607 91.5786C601.016 92.2872 600.775 93.188 600.066 93.5972L587.954 100.59L587.902 100.62C587.563 100.796 587.185 100.831 586.837 100.738C586.47 100.639 586.142 100.402 585.938 100.05L581.742 92.7818C581.333 92.0732 581.574 91.1732 582.282 90.7641C582.991 90.3549 583.892 90.5963 584.301 91.305L587.757 97.2911L598.588 91.0377ZM612.077 84.8864L611.65 84.7277C608.91 83.7085 606.329 82.3389 603.966 80.6569C601.114 78.6242 598.62 76.173 596.541 73.3565L596.306 73.0377L595.942 73.1948L595.938 73.1959L595.936 73.1973C592.727 74.5967 589.343 75.4706 585.856 75.8074C582.968 76.0849 580.048 75.9781 577.18 75.4944L576.732 75.4189L576.614 75.8575L571.663 94.286L571.663 94.287C569.515 102.306 572.422 110.706 579.07 115.678L583.748 119.179L583.908 119.299L584.107 119.275L589.909 118.582C598.155 117.598 604.871 111.779 607.019 103.761L612.077 84.8864Z" fill="url(#paint1_linear_6029_2556)" stroke="url(#paint2_linear_6029_2556)"/>
<g filter="url(#filter1_d_6029_2556)">
<rect x="198" y="84" width="74" height="23" rx="11.5" fill="white" shape-rendering="crispEdges"/>
<rect x="198.5" y="84.5" width="73" height="22" rx="11" stroke="#E2E8F0" shape-rendering="crispEdges"/>
<path d="M209.516 100.123C208.934 100.123 208.414 100.008 207.957 99.7773C207.504 99.543 207.141 99.2227 206.867 98.8164C206.598 98.4062 206.451 97.9395 206.428 97.416H207.699C207.738 97.8848 207.926 98.2715 208.262 98.5762C208.598 98.877 209.018 99.0273 209.521 99.0273C210.049 99.0273 210.475 98.8496 210.799 98.4941C211.127 98.1387 211.291 97.6836 211.291 97.1289C211.291 96.5781 211.133 96.125 210.816 95.7695C210.5 95.4102 210.088 95.2305 209.58 95.2305C209.131 95.2305 208.746 95.3223 208.426 95.5059C208.109 95.6855 207.889 95.9473 207.764 96.291H206.539L206.826 91.2695H212.047V92.3828H207.992L207.799 94.9551H207.811C208.322 94.4121 208.977 94.1406 209.773 94.1406C210.305 94.1406 210.777 94.2695 211.191 94.5273C211.609 94.7812 211.938 95.1328 212.176 95.582C212.418 96.0273 212.539 96.5352 212.539 97.1055C212.539 97.6953 212.412 98.2168 212.158 98.6699C211.908 99.123 211.557 99.4785 211.104 99.7363C210.65 99.9941 210.121 100.123 209.516 100.123ZM216.775 100.141C216.1 100.141 215.516 99.957 215.023 99.5898C214.535 99.2227 214.158 98.7031 213.893 98.0312C213.627 97.3555 213.494 96.5586 213.494 95.6406C213.494 94.7188 213.627 93.9199 213.893 93.2441C214.158 92.5684 214.535 92.0469 215.023 91.6797C215.516 91.3125 216.1 91.1289 216.775 91.1289C217.447 91.1289 218.027 91.3125 218.516 91.6797C219.008 92.0469 219.387 92.5684 219.652 93.2441C219.918 93.9199 220.051 94.7188 220.051 95.6406C220.051 96.5586 219.918 97.3555 219.652 98.0312C219.387 98.7031 219.008 99.2227 218.516 99.5898C218.027 99.957 217.447 100.141 216.775 100.141ZM216.775 99.0332C217.408 99.0332 217.906 98.7324 218.27 98.1309C218.637 97.5254 218.82 96.6953 218.82 95.6406C218.82 94.582 218.637 93.75 218.27 93.1445C217.906 92.5391 217.408 92.2363 216.775 92.2363C216.139 92.2363 215.637 92.5391 215.27 93.1445C214.906 93.75 214.725 94.582 214.725 95.6406C214.725 96.6953 214.906 97.5254 215.27 98.1309C215.637 98.7324 216.139 99.0332 216.775 99.0332ZM224.287 100.141C223.611 100.141 223.027 99.957 222.535 99.5898C222.047 99.2227 221.67 98.7031 221.404 98.0312C221.139 97.3555 221.006 96.5586 221.006 95.6406C221.006 94.7188 221.139 93.9199 221.404 93.2441C221.67 92.5684 222.047 92.0469 222.535 91.6797C223.027 91.3125 223.611 91.1289 224.287 91.1289C224.959 91.1289 225.539 91.3125 226.027 91.6797C226.52 92.0469 226.898 92.5684 227.164 93.2441C227.43 93.9199 227.562 94.7188 227.562 95.6406C227.562 96.5586 227.43 97.3555 227.164 98.0312C226.898 98.7031 226.52 99.2227 226.027 99.5898C225.539 99.957 224.959 100.141 224.287 100.141ZM224.287 99.0332C224.92 99.0332 225.418 98.7324 225.781 98.1309C226.148 97.5254 226.332 96.6953 226.332 95.6406C226.332 94.582 226.148 93.75 225.781 93.1445C225.418 92.5391 224.92 92.2363 224.287 92.2363C223.65 92.2363 223.148 92.5391 222.781 93.1445C222.418 93.75 222.236 94.582 222.236 95.6406C222.236 96.6953 222.418 97.5254 222.781 98.1309C223.148 98.7324 223.65 99.0332 224.287 99.0332ZM235.121 100.141C234.422 100.141 233.812 100.008 233.293 99.7422C232.777 99.4727 232.375 99.1016 232.086 98.6289C231.801 98.1562 231.658 97.6172 231.658 97.0117V91.2695H232.953V96.9062C232.953 97.5039 233.146 97.9961 233.533 98.3828C233.924 98.7695 234.453 98.9629 235.121 98.9629C235.793 98.9629 236.322 98.7695 236.709 98.3828C237.1 97.9961 237.295 97.5039 237.295 96.9062V91.2695H238.59V97.0117C238.59 97.6172 238.445 98.1562 238.156 98.6289C237.871 99.1016 237.469 99.4727 236.949 99.7422C236.43 100.008 235.82 100.141 235.121 100.141ZM243.172 100.141C242.125 100.141 241.299 99.877 240.693 99.3496C240.092 98.8184 239.791 98.0918 239.791 97.1699H241.092C241.096 97.7441 241.279 98.1934 241.643 98.5176C242.01 98.8418 242.52 99.0039 243.172 99.0039C243.766 99.0039 244.24 98.8789 244.596 98.6289C244.955 98.375 245.135 98.0352 245.135 97.6094C245.135 97.2734 245.006 97.002 244.748 96.7949C244.494 96.584 244.064 96.4062 243.459 96.2617L242.504 96.0332C241.621 95.8223 240.977 95.5293 240.57 95.1543C240.168 94.7754 239.967 94.2832 239.967 93.6777C239.967 93.166 240.096 92.7188 240.354 92.3359C240.611 91.9531 240.973 91.6562 241.438 91.4453C241.906 91.2344 242.453 91.1289 243.078 91.1289C244.02 91.1289 244.768 91.375 245.322 91.8672C245.881 92.3594 246.174 93.0312 246.201 93.8828H244.941C244.91 93.3789 244.727 92.9844 244.391 92.6992C244.055 92.4102 243.611 92.2656 243.061 92.2656C242.533 92.2656 242.102 92.3926 241.766 92.6465C241.43 92.8965 241.262 93.2188 241.262 93.6133C241.262 93.9297 241.391 94.1875 241.648 94.3867C241.906 94.582 242.334 94.752 242.932 94.8965L243.875 95.1191C244.75 95.3262 245.395 95.625 245.809 96.0156C246.227 96.4062 246.436 96.9141 246.436 97.5391C246.436 98.0625 246.301 98.5195 246.031 98.9102C245.762 99.3008 245.383 99.6035 244.895 99.8184C244.406 100.033 243.832 100.141 243.172 100.141ZM250.496 100H247.672V91.2695H250.584C251.439 91.2695 252.176 91.4453 252.793 91.7969C253.414 92.1484 253.891 92.6504 254.223 93.3027C254.555 93.9512 254.721 94.7246 254.721 95.623C254.721 96.5254 254.553 97.3047 254.217 97.9609C253.885 98.6133 253.402 99.1172 252.77 99.4727C252.141 99.8242 251.383 100 250.496 100ZM248.973 98.8691H250.414C251.434 98.8691 252.188 98.582 252.676 98.0078C253.168 97.4336 253.414 96.6387 253.414 95.623C253.414 94.6113 253.172 93.8223 252.688 93.2559C252.203 92.6855 251.475 92.4004 250.502 92.4004H248.973V98.8691ZM259.742 100.141C258.941 100.141 258.234 99.9512 257.621 99.5723C257.008 99.1934 256.529 98.666 256.186 97.9902C255.842 97.3145 255.67 96.5312 255.67 95.6406C255.67 94.7422 255.842 93.9551 256.186 93.2793C256.529 92.6035 257.006 92.0762 257.615 91.6973C258.229 91.3184 258.938 91.1289 259.742 91.1289C260.379 91.1289 260.955 91.2539 261.471 91.5039C261.99 91.7539 262.42 92.1074 262.76 92.5645C263.1 93.0176 263.32 93.5547 263.422 94.1758H262.098C261.969 93.582 261.693 93.125 261.271 92.8047C260.854 92.4805 260.348 92.3184 259.754 92.3184C259.18 92.3184 258.686 92.457 258.271 92.7344C257.857 93.0117 257.537 93.4004 257.311 93.9004C257.088 94.4004 256.977 94.9805 256.977 95.6406C256.977 96.3008 257.088 96.8789 257.311 97.375C257.533 97.8711 257.852 98.2578 258.266 98.5352C258.684 98.8125 259.18 98.9512 259.754 98.9512C260.344 98.9512 260.848 98.791 261.266 98.4707C261.688 98.1504 261.967 97.6953 262.104 97.1055H263.422C263.32 97.7227 263.1 98.2598 262.76 98.7168C262.42 99.1699 261.99 99.5215 261.471 99.7715C260.955 100.018 260.379 100.141 259.742 100.141Z" fill="#314CFF"/>
</g>
<path d="M203.281 69.4121V68.2695H210.143V69.4121H207.371V77H206.064V69.4121H203.281ZM210.084 77V70.8125H211.268V71.8145H211.291C211.404 71.4746 211.582 71.2109 211.824 71.0234C212.07 70.832 212.391 70.7363 212.785 70.7363C212.879 70.7363 212.965 70.7402 213.043 70.748C213.121 70.7559 213.186 70.7617 213.236 70.7656V71.9199C213.189 71.9082 213.105 71.8965 212.984 71.8848C212.863 71.8691 212.73 71.8613 212.586 71.8613C212.238 71.8613 211.939 71.9824 211.689 72.2246C211.443 72.4668 211.32 72.8398 211.32 73.3438V77H210.084ZM215.896 77.0996C215.279 77.0996 214.768 76.9434 214.361 76.6309C213.955 76.3145 213.752 75.8477 213.752 75.2305C213.752 74.7617 213.867 74.4023 214.098 74.1523C214.332 73.8984 214.635 73.7168 215.006 73.6074C215.381 73.498 215.777 73.418 216.195 73.3672C216.582 73.3203 216.889 73.2812 217.115 73.25C217.342 73.2188 217.502 73.1719 217.596 73.1094C217.693 73.0469 217.742 72.9395 217.742 72.7871V72.7344C217.742 72.4336 217.633 72.1875 217.414 71.9961C217.195 71.8008 216.889 71.7031 216.494 71.7031C216.1 71.7031 215.777 71.7988 215.527 71.9902C215.277 72.1777 215.141 72.4141 215.117 72.6992H213.904C213.932 72.1094 214.18 71.627 214.648 71.252C215.117 70.877 215.738 70.6895 216.512 70.6895C217.273 70.6895 217.873 70.877 218.311 71.252C218.748 71.627 218.967 72.1289 218.967 72.7578V77H217.748V76.1211H217.725C217.596 76.3711 217.391 76.5977 217.109 76.8008C216.832 77 216.428 77.0996 215.896 77.0996ZM216.148 76.1035C216.695 76.1035 217.098 75.9629 217.355 75.6816C217.617 75.3965 217.748 75.0645 217.748 74.6855V73.959C217.666 74.0254 217.48 74.0859 217.191 74.1406C216.902 74.1914 216.594 74.2402 216.266 74.2871C215.926 74.3379 215.627 74.4336 215.369 74.5742C215.111 74.7148 214.982 74.9414 214.982 75.2539C214.982 75.5195 215.086 75.7285 215.293 75.8809C215.504 76.0293 215.789 76.1035 216.148 76.1035ZM221.598 73.4375V77H220.361V70.8125H221.574V71.7441C221.996 71.041 222.619 70.6895 223.443 70.6895C223.869 70.6895 224.25 70.7832 224.586 70.9707C224.926 71.1543 225.193 71.4277 225.389 71.791C225.584 72.1543 225.682 72.6055 225.682 73.1445V77H224.445V73.2969C224.445 72.8008 224.326 72.4277 224.088 72.1777C223.85 71.9238 223.518 71.7969 223.092 71.7969C222.67 71.7969 222.314 71.9277 222.025 72.1895C221.74 72.4473 221.598 72.8633 221.598 73.4375ZM229.367 77.1465C228.895 77.1465 228.469 77.0703 228.09 76.918C227.711 76.7656 227.404 76.5391 227.17 76.2383C226.939 75.9375 226.811 75.5645 226.783 75.1191H228.002C228.072 75.8145 228.52 76.1621 229.344 76.1621C229.734 76.1621 230.043 76.082 230.27 75.9219C230.5 75.7617 230.615 75.5586 230.615 75.3125C230.615 75.1016 230.533 74.9336 230.369 74.8086C230.205 74.6797 229.99 74.5859 229.725 74.5273L228.699 74.2988C227.516 74.041 226.924 73.4512 226.924 72.5293C226.924 71.9824 227.141 71.5371 227.574 71.1934C228.012 70.8496 228.584 70.6777 229.291 70.6777C229.99 70.6777 230.564 70.8594 231.014 71.2227C231.467 71.582 231.701 72.0742 231.717 72.6992H230.533C230.529 72.3984 230.416 72.1504 230.193 71.9551C229.971 71.7559 229.676 71.6562 229.309 71.6562C228.957 71.6562 228.678 71.7383 228.471 71.9023C228.264 72.0664 228.16 72.2676 228.16 72.5059C228.16 72.7168 228.238 72.8867 228.395 73.0156C228.555 73.1445 228.773 73.2402 229.051 73.3027L230.105 73.5371C230.707 73.6699 231.15 73.875 231.436 74.1523C231.721 74.4297 231.863 74.793 231.863 75.2422C231.863 75.6367 231.754 75.9766 231.535 76.2617C231.32 76.543 231.025 76.7617 230.65 76.918C230.275 77.0703 229.848 77.1465 229.367 77.1465ZM232.959 79.4492V70.8125H234.172V71.7031H234.189C234.385 71.3633 234.652 71.1094 234.992 70.9414C235.332 70.7734 235.703 70.6895 236.105 70.6895C236.637 70.6895 237.104 70.8262 237.506 71.0996C237.908 71.3691 238.221 71.7461 238.443 72.2305C238.67 72.7109 238.783 73.2695 238.783 73.9062C238.783 74.543 238.672 75.1035 238.449 75.5879C238.227 76.0684 237.914 76.4453 237.512 76.7188C237.109 76.9883 236.639 77.123 236.1 77.123C235.697 77.123 235.334 77.0352 235.01 76.8594C234.686 76.6836 234.42 76.4199 234.213 76.0684H234.195V79.4492H232.959ZM235.848 76.0566C236.348 76.0566 236.752 75.873 237.061 75.5059C237.373 75.1387 237.529 74.6055 237.529 73.9062C237.529 73.207 237.373 72.6738 237.061 72.3066C236.752 71.9355 236.348 71.75 235.848 71.75C235.32 71.75 234.898 71.9473 234.582 72.3418C234.27 72.7324 234.113 73.2539 234.113 73.9062C234.113 74.5547 234.27 75.0762 234.582 75.4707C234.898 75.8613 235.32 76.0566 235.848 76.0566ZM241.83 77.0996C241.213 77.0996 240.701 76.9434 240.295 76.6309C239.889 76.3145 239.686 75.8477 239.686 75.2305C239.686 74.7617 239.801 74.4023 240.031 74.1523C240.266 73.8984 240.568 73.7168 240.939 73.6074C241.314 73.498 241.711 73.418 242.129 73.3672C242.516 73.3203 242.822 73.2812 243.049 73.25C243.275 73.2188 243.436 73.1719 243.529 73.1094C243.627 73.0469 243.676 72.9395 243.676 72.7871V72.7344C243.676 72.4336 243.566 72.1875 243.348 71.9961C243.129 71.8008 242.822 71.7031 242.428 71.7031C242.033 71.7031 241.711 71.7988 241.461 71.9902C241.211 72.1777 241.074 72.4141 241.051 72.6992H239.838C239.865 72.1094 240.113 71.627 240.582 71.252C241.051 70.877 241.672 70.6895 242.445 70.6895C243.207 70.6895 243.807 70.877 244.244 71.252C244.682 71.627 244.9 72.1289 244.9 72.7578V77H243.682V76.1211H243.658C243.529 76.3711 243.324 76.5977 243.043 76.8008C242.766 77 242.361 77.0996 241.83 77.0996ZM242.082 76.1035C242.629 76.1035 243.031 75.9629 243.289 75.6816C243.551 75.3965 243.682 75.0645 243.682 74.6855V73.959C243.6 74.0254 243.414 74.0859 243.125 74.1406C242.836 74.1914 242.527 74.2402 242.199 74.2871C241.859 74.3379 241.561 74.4336 241.303 74.5742C241.045 74.7148 240.916 74.9414 240.916 75.2539C240.916 75.5195 241.02 75.7285 241.227 75.8809C241.438 76.0293 241.723 76.1035 242.082 76.1035ZM246.295 77V70.8125H247.479V71.8145H247.502C247.615 71.4746 247.793 71.2109 248.035 71.0234C248.281 70.832 248.602 70.7363 248.996 70.7363C249.09 70.7363 249.176 70.7402 249.254 70.748C249.332 70.7559 249.396 70.7617 249.447 70.7656V71.9199C249.4 71.9082 249.316 71.8965 249.195 71.8848C249.074 71.8691 248.941 71.8613 248.797 71.8613C248.449 71.8613 248.15 71.9824 247.9 72.2246C247.654 72.4668 247.531 72.8398 247.531 73.3438V77H246.295ZM252.922 77.1406C252.309 77.1406 251.781 77.002 251.34 76.7246C250.902 76.4473 250.564 76.0664 250.326 75.582C250.092 75.0938 249.975 74.5391 249.975 73.918C249.975 73.2891 250.098 72.7305 250.344 72.2422C250.59 71.7539 250.93 71.3711 251.363 71.0938C251.797 70.8125 252.295 70.6719 252.857 70.6719C253.443 70.6719 253.951 70.8086 254.381 71.082C254.814 71.3555 255.15 71.7363 255.389 72.2246C255.627 72.709 255.746 73.2695 255.746 73.9062V74.2402H251.193C251.217 74.7988 251.377 75.25 251.674 75.5938C251.975 75.9375 252.396 76.1094 252.939 76.1094C253.346 76.1094 253.68 76.0176 253.941 75.834C254.203 75.6504 254.377 75.4121 254.463 75.1191H255.652C255.578 75.5176 255.412 75.8691 255.154 76.1738C254.9 76.4785 254.58 76.7168 254.193 76.8887C253.811 77.0566 253.387 77.1406 252.922 77.1406ZM251.205 73.3027H254.539C254.488 72.8105 254.314 72.4219 254.018 72.1367C253.721 71.8477 253.338 71.7031 252.869 71.7031C252.4 71.7031 252.018 71.8477 251.721 72.1367C251.428 72.4219 251.256 72.8105 251.205 73.3027ZM258.055 73.4375V77H256.818V70.8125H258.031V71.7441C258.453 71.041 259.076 70.6895 259.9 70.6895C260.326 70.6895 260.707 70.7832 261.043 70.9707C261.383 71.1543 261.65 71.4277 261.846 71.791C262.041 72.1543 262.139 72.6055 262.139 73.1445V77H260.902V73.2969C260.902 72.8008 260.783 72.4277 260.545 72.1777C260.307 71.9238 259.975 71.7969 259.549 71.7969C259.127 71.7969 258.771 71.9277 258.482 72.1895C258.197 72.4473 258.055 72.8633 258.055 73.4375ZM266.516 70.8125V71.832H265.262V75.3652C265.262 75.5957 265.309 75.7559 265.402 75.8457C265.496 75.9355 265.666 75.9805 265.912 75.9805H266.516V77H265.736C264.592 77 264.02 76.5078 264.02 75.5234V71.832H262.93V70.8125H264.02V69.125H265.262V70.8125H266.516Z" fill="#64748B" fill-opacity="0.24"/>
<path d="M198.797 123V114.27H204.48V115.412H200.098V118.025H204.146V119.15H200.098V123H198.797ZM206.859 114.27V123H205.559V114.27H206.859ZM211.875 123.141C211.176 123.141 210.566 123.008 210.047 122.742C209.531 122.473 209.129 122.102 208.84 121.629C208.555 121.156 208.412 120.617 208.412 120.012V114.27H209.707V119.906C209.707 120.504 209.9 120.996 210.287 121.383C210.678 121.77 211.207 121.963 211.875 121.963C212.547 121.963 213.076 121.77 213.463 121.383C213.854 120.996 214.049 120.504 214.049 119.906V114.27H215.344V120.012C215.344 120.617 215.199 121.156 214.91 121.629C214.625 122.102 214.223 122.473 213.703 122.742C213.184 123.008 212.574 123.141 211.875 123.141ZM220.646 118.934V120.023H216.773V118.934H220.646ZM222.018 123V116.812H223.201V117.814H223.225C223.338 117.475 223.516 117.211 223.758 117.023C224.004 116.832 224.324 116.736 224.719 116.736C224.812 116.736 224.898 116.74 224.977 116.748C225.055 116.756 225.119 116.762 225.17 116.766V117.92C225.123 117.908 225.039 117.896 224.918 117.885C224.797 117.869 224.664 117.861 224.52 117.861C224.172 117.861 223.873 117.982 223.623 118.225C223.377 118.467 223.254 118.84 223.254 119.344V123H222.018ZM228.645 123.141C228.031 123.141 227.504 123.002 227.062 122.725C226.625 122.447 226.287 122.066 226.049 121.582C225.814 121.094 225.697 120.539 225.697 119.918C225.697 119.289 225.82 118.73 226.066 118.242C226.312 117.754 226.652 117.371 227.086 117.094C227.52 116.812 228.018 116.672 228.58 116.672C229.166 116.672 229.674 116.809 230.104 117.082C230.537 117.355 230.873 117.736 231.111 118.225C231.35 118.709 231.469 119.27 231.469 119.906V120.24H226.916C226.939 120.799 227.1 121.25 227.396 121.594C227.697 121.938 228.119 122.109 228.662 122.109C229.068 122.109 229.402 122.018 229.664 121.834C229.926 121.65 230.1 121.412 230.186 121.119H231.375C231.301 121.518 231.135 121.869 230.877 122.174C230.623 122.479 230.303 122.717 229.916 122.889C229.533 123.057 229.109 123.141 228.645 123.141ZM226.928 119.303H230.262C230.211 118.811 230.037 118.422 229.74 118.137C229.443 117.848 229.061 117.703 228.592 117.703C228.123 117.703 227.74 117.848 227.443 118.137C227.15 118.422 226.979 118.811 226.928 119.303ZM235.242 125.531C234.484 125.531 233.865 125.363 233.385 125.027C232.904 124.691 232.623 124.221 232.541 123.615H233.777C233.855 123.916 234.025 124.143 234.287 124.295C234.549 124.447 234.867 124.523 235.242 124.523C235.742 124.523 236.133 124.389 236.414 124.119C236.695 123.85 236.836 123.465 236.836 122.965V122.027H236.83C236.615 122.387 236.344 122.652 236.016 122.824C235.691 122.996 235.326 123.082 234.92 123.082C234.381 123.082 233.91 122.947 233.508 122.678C233.105 122.404 232.793 122.029 232.57 121.553C232.348 121.072 232.236 120.518 232.236 119.889C232.236 119.26 232.348 118.705 232.57 118.225C232.797 117.744 233.111 117.369 233.514 117.1C233.916 116.826 234.383 116.689 234.914 116.689C235.316 116.689 235.686 116.775 236.021 116.947C236.357 117.119 236.629 117.389 236.836 117.756H236.842V116.812H238.061V122.918C238.061 123.543 237.934 124.047 237.68 124.43C237.426 124.812 237.086 125.092 236.66 125.268C236.234 125.443 235.762 125.531 235.242 125.531ZM235.172 122.021C235.699 122.021 236.119 121.828 236.432 121.441C236.748 121.051 236.906 120.531 236.906 119.883C236.906 119.234 236.748 118.717 236.432 118.33C236.119 117.939 235.699 117.744 235.172 117.744C234.672 117.744 234.266 117.928 233.953 118.295C233.645 118.658 233.49 119.188 233.49 119.883C233.49 120.578 233.645 121.109 233.953 121.477C234.266 121.84 234.672 122.021 235.172 122.021ZM239.455 123V116.812H240.691V123H239.455ZM240.07 115.746C239.852 115.746 239.666 115.674 239.514 115.529C239.365 115.381 239.291 115.201 239.291 114.99C239.291 114.775 239.365 114.596 239.514 114.451C239.666 114.303 239.852 114.229 240.07 114.229C240.289 114.229 240.475 114.303 240.627 114.451C240.779 114.596 240.855 114.775 240.855 114.99C240.855 115.201 240.779 115.381 240.627 115.529C240.475 115.674 240.289 115.746 240.07 115.746ZM244.383 123.146C243.91 123.146 243.484 123.07 243.105 122.918C242.727 122.766 242.42 122.539 242.186 122.238C241.955 121.938 241.826 121.564 241.799 121.119H243.018C243.088 121.814 243.535 122.162 244.359 122.162C244.75 122.162 245.059 122.082 245.285 121.922C245.516 121.762 245.631 121.559 245.631 121.312C245.631 121.102 245.549 120.934 245.385 120.809C245.221 120.68 245.006 120.586 244.74 120.527L243.715 120.299C242.531 120.041 241.939 119.451 241.939 118.529C241.939 117.982 242.156 117.537 242.59 117.193C243.027 116.85 243.6 116.678 244.307 116.678C245.006 116.678 245.58 116.859 246.029 117.223C246.482 117.582 246.717 118.074 246.732 118.699H245.549C245.545 118.398 245.432 118.15 245.209 117.955C244.986 117.756 244.691 117.656 244.324 117.656C243.973 117.656 243.693 117.738 243.486 117.902C243.279 118.066 243.176 118.268 243.176 118.506C243.176 118.717 243.254 118.887 243.41 119.016C243.57 119.145 243.789 119.24 244.066 119.303L245.121 119.537C245.723 119.67 246.166 119.875 246.451 120.152C246.736 120.43 246.879 120.793 246.879 121.242C246.879 121.637 246.77 121.977 246.551 122.262C246.336 122.543 246.041 122.762 245.666 122.918C245.291 123.07 244.863 123.146 244.383 123.146ZM251.074 116.812V117.832H249.82V121.365C249.82 121.596 249.867 121.756 249.961 121.846C250.055 121.936 250.225 121.98 250.471 121.98H251.074V123H250.295C249.15 123 248.578 122.508 248.578 121.523V117.832H247.488V116.812H248.578V115.125H249.82V116.812H251.074ZM254.59 123.141C253.977 123.141 253.449 123.002 253.008 122.725C252.57 122.447 252.232 122.066 251.994 121.582C251.76 121.094 251.643 120.539 251.643 119.918C251.643 119.289 251.766 118.73 252.012 118.242C252.258 117.754 252.598 117.371 253.031 117.094C253.465 116.812 253.963 116.672 254.525 116.672C255.111 116.672 255.619 116.809 256.049 117.082C256.482 117.355 256.818 117.736 257.057 118.225C257.295 118.709 257.414 119.27 257.414 119.906V120.24H252.861C252.885 120.799 253.045 121.25 253.342 121.594C253.643 121.938 254.064 122.109 254.607 122.109C255.014 122.109 255.348 122.018 255.609 121.834C255.871 121.65 256.045 121.412 256.131 121.119H257.32C257.246 121.518 257.08 121.869 256.822 122.174C256.568 122.479 256.248 122.717 255.861 122.889C255.479 123.057 255.055 123.141 254.59 123.141ZM252.873 119.303H256.207C256.156 118.811 255.982 118.422 255.686 118.137C255.389 117.848 255.006 117.703 254.537 117.703C254.068 117.703 253.686 117.848 253.389 118.137C253.096 118.422 252.924 118.811 252.873 119.303ZM258.486 123V116.812H259.67V117.814H259.693C259.807 117.475 259.984 117.211 260.227 117.023C260.473 116.832 260.793 116.736 261.188 116.736C261.281 116.736 261.367 116.74 261.445 116.748C261.523 116.756 261.588 116.762 261.639 116.766V117.92C261.592 117.908 261.508 117.896 261.387 117.885C261.266 117.869 261.133 117.861 260.988 117.861C260.641 117.861 260.342 117.982 260.092 118.225C259.846 118.467 259.723 118.84 259.723 119.344V123H258.486ZM265.113 123.141C264.5 123.141 263.973 123.002 263.531 122.725C263.094 122.447 262.756 122.066 262.518 121.582C262.283 121.094 262.166 120.539 262.166 119.918C262.166 119.289 262.289 118.73 262.535 118.242C262.781 117.754 263.121 117.371 263.555 117.094C263.988 116.812 264.486 116.672 265.049 116.672C265.635 116.672 266.143 116.809 266.572 117.082C267.006 117.355 267.342 117.736 267.58 118.225C267.818 118.709 267.938 119.27 267.938 119.906V120.24H263.385C263.408 120.799 263.568 121.25 263.865 121.594C264.166 121.938 264.588 122.109 265.131 122.109C265.537 122.109 265.871 122.018 266.133 121.834C266.395 121.65 266.568 121.412 266.654 121.119H267.844C267.77 121.518 267.604 121.869 267.346 122.174C267.092 122.479 266.771 122.717 266.385 122.889C266.002 123.057 265.578 123.141 265.113 123.141ZM263.396 119.303H266.73C266.68 118.811 266.506 118.422 266.209 118.137C265.912 117.848 265.529 117.703 265.061 117.703C264.592 117.703 264.209 117.848 263.912 118.137C263.619 118.422 263.447 118.811 263.396 119.303ZM271.389 123.123C270.85 123.123 270.379 122.988 269.977 122.719C269.574 122.445 269.262 122.068 269.039 121.588C268.816 121.104 268.705 120.543 268.705 119.906C268.705 119.27 268.816 118.711 269.039 118.23C269.266 117.746 269.58 117.369 269.982 117.1C270.385 116.826 270.852 116.689 271.383 116.689C271.785 116.689 272.152 116.773 272.484 116.941C272.816 117.109 273.082 117.365 273.281 117.709H273.293V114.27H274.529V123H273.316V122.057H273.305C273.098 122.416 272.826 122.684 272.49 122.859C272.158 123.035 271.791 123.123 271.389 123.123ZM271.641 122.057C272.168 122.057 272.588 121.861 272.9 121.471C273.217 121.076 273.375 120.555 273.375 119.906C273.375 119.254 273.217 118.732 272.9 118.342C272.588 117.947 272.168 117.75 271.641 117.75C271.141 117.75 270.734 117.936 270.422 118.307C270.113 118.674 269.959 119.207 269.959 119.906C269.959 120.605 270.113 121.139 270.422 121.506C270.734 121.873 271.141 122.057 271.641 122.057ZM275.537 124.705L276.023 121.711H277.289L276.422 124.705H275.537Z" fill="#64748B" fill-opacity="0.24"/>
<rect width="680" height="190" fill="url(#paint3_linear_6029_2556)"/>
</g>
<defs>
<filter id="filter0_n_6029_2556" x="43" y="35" width="120" height="120" filterUnits="userSpaceOnUse" color-interpolation-filters="sRGB">
<feFlood flood-opacity="0" result="BackgroundImageFix"/>
<feBlend mode="normal" in="SourceGraphic" in2="BackgroundImageFix" result="shape"/>
<feTurbulence type="fractalNoise" baseFrequency="2 2" stitchTiles="stitch" numOctaves="3" result="noise" seed="5621" />
<feColorMatrix in="noise" type="luminanceToAlpha" result="alphaNoise" />
<feComponentTransfer in="alphaNoise" result="coloredNoise1">
<feFuncA type="discrete" tableValues="0 0 0 0 0 0 0 0 0 0 0 0 0 0 0 1 1 1 1 1 1 1 1 1 1 1 1 1 1 1 1 1 1 1 1 0 0 0 0 0 0 0 0 0 0 0 0 0 0 0 0 0 0 0 0 0 0 0 0 0 0 0 0 0 0 0 0 0 0 0 0 0 0 0 0 0 0 0 0 0 0 0 0 0 0 0 0 0 0 0 0 0 0 0 0 0 0 0 0 0 "/>
</feComponentTransfer>
<feComposite operator="in" in2="shape" in="coloredNoise1" result="noise1Clipped" />
<feFlood flood-color="rgba(0, 0, 0, 0.08)" result="color1Flood" />
<feComposite operator="in" in2="noise1Clipped" in="color1Flood" result="color1" />
<feMerge result="effect1_noise_6029_2556">
<feMergeNode in="shape" />
<feMergeNode in="color1" />
</feMerge>
</filter>
<filter id="filter1_d_6029_2556" x="196" y="84" width="78" height="27" filterUnits="userSpaceOnUse" color-interpolation-filters="sRGB">
<feFlood flood-opacity="0" result="BackgroundImageFix"/>
<feColorMatrix in="SourceAlpha" type="matrix" values="0 0 0 0 0 0 0 0 0 0 0 0 0 0 0 0 0 0 127 0" result="hardAlpha"/>
<feOffset dy="2"/>
<feGaussianBlur stdDeviation="1"/>
<feComposite in2="hardAlpha" operator="out"/>
<feColorMatrix type="matrix" values="0 0 0 0 0 0 0 0 0 0 0 0 0 0 0 0 0 0 0.08 0"/>
<feBlend mode="normal" in2="BackgroundImageFix" result="effect1_dropShadow_6029_2556"/>
<feBlend mode="normal" in="SourceGraphic" in2="effect1_dropShadow_6029_2556" result="shape"/>
</filter>
<linearGradient id="paint0_linear_6029_2556" x1="72" y1="0" x2="72" y2="11" gradientUnits="userSpaceOnUse">
<stop stop-color="#DBE3FD"/>
<stop offset="0.504808" stop-color="white"/>
<stop offset="1" stop-color="#DBE3FD"/>
</linearGradient>
<linearGradient id="paint1_linear_6029_2556" x1="569.806" y1="87.8462" x2="611.955" y2="93.8872" gradientUnits="userSpaceOnUse">
<stop stop-color="#E8E8E8"/>
<stop offset="1" stop-color="#BABABA"/>
</linearGradient>
<linearGradient id="paint2_linear_6029_2556" x1="569.806" y1="87.8462" x2="611.955" y2="93.8872" gradientUnits="userSpaceOnUse">
<stop stop-color="#E8E8E8"/>
<stop offset="1" stop-color="#B7C5FE"/>
</linearGradient>
<linearGradient id="paint3_linear_6029_2556" x1="340" y1="0" x2="340" y2="190" gradientUnits="userSpaceOnUse">
<stop offset="0.324247" stop-color="#F0F7FD" stop-opacity="0"/>
<stop offset="1" stop-color="#F1F7FD"/>
</linearGradient>
<clipPath id="clip0_6029_2556">
<rect width="680" height="190" rx="18" fill="white"/>
</clipPath>
<clipPath id="clip1_6029_2556">
<rect x="43" y="35" width="120" height="120" rx="20" fill="white"/>
</clipPath>
<clipPath id="clip2_6029_2556">
<rect x="72" y="64.5" width="62" height="62" rx="31" fill="white"/>
</clipPath>
</defs>
</svg>
