<svg width="436" height="190" viewBox="0 0 436 190" fill="none" xmlns="http://www.w3.org/2000/svg">
<g clip-path="url(#clip0_6029_2607)">
<circle cx="218" cy="212" r="212" fill="#7E95F2" fill-opacity="0.04"/>
<circle cx="218" cy="212" r="172" fill="#AABBFE" fill-opacity="0.2"/>
<circle cx="218" cy="212" r="132" fill="#BECBFE" fill-opacity="0.3"/>
<circle cx="218" cy="212" r="92" fill="#B4C3FE" fill-opacity="0.4"/>
<circle cx="218" cy="212" r="52" fill="#B2C0F9" fill-opacity="0.5"/>
<g filter="url(#filter0_d_6029_2607)">
<path d="M323 79.5779L273.533 25H131C121.059 25 113 33.0267 113 42.9678V308.904C113 314.525 117.531 318.968 123.152 318.932C154.711 318.732 252.583 318.201 312.77 318.869C318.42 318.932 323 314.375 323 308.725V79.5779Z" fill="white"/>
</g>
<path d="M273.336 73.7933V25L322.626 79.7933H279.336C276.022 79.7933 273.336 77.107 273.336 73.7933Z" fill="#F8FAFC"/>
<rect x="131.043" y="74.125" width="77.6125" height="3.77885" rx="1.88942" fill="#F2F2F2"/>
<rect x="131.043" y="81.6836" width="91.3088" height="3.77885" rx="1.88942" fill="#F2F2F2"/>
<rect x="131.043" y="89.2402" width="101.581" height="3.77885" rx="1.88942" fill="#F2F2F2"/>
<rect x="131.043" y="96.7969" width="47.9371" height="3.77885" rx="1.88942" fill="#F2F2F2"/>
<rect x="131.043" y="104.355" width="82.1779" height="3.77885" rx="1.88942" fill="#F2F2F2"/>
<rect x="130.117" y="127.029" width="98.0098" height="3.77885" rx="1.88942" fill="#F2F2F2"/>
<rect x="130.117" y="134.588" width="46.2518" height="3.77885" rx="1.88942" fill="#F2F2F2"/>
<rect x="130.117" y="142.145" width="79.2888" height="3.77885" rx="1.88942" fill="#F2F2F2"/>
<rect x="130.117" y="162.928" width="73.2598" height="3.77885" rx="1.88942" fill="#F2F2F2"/>
<rect x="130.117" y="170.486" width="34.572" height="3.77885" rx="1.88942" fill="#F2F2F2"/>
<rect x="130.117" y="178.043" width="59.2663" height="3.77885" rx="1.88942" fill="#F2F2F2"/>
<rect width="436" height="190" fill="url(#paint0_linear_6029_2607)"/>
</g>
<defs>
<filter id="filter0_d_6029_2607" x="99.5" y="11.5" width="237" height="320.932" filterUnits="userSpaceOnUse" color-interpolation-filters="sRGB">
<feFlood flood-opacity="0" result="BackgroundImageFix"/>
<feColorMatrix in="SourceAlpha" type="matrix" values="0 0 0 0 0 0 0 0 0 0 0 0 0 0 0 0 0 0 127 0" result="hardAlpha"/>
<feOffset/>
<feGaussianBlur stdDeviation="6.75"/>
<feComposite in2="hardAlpha" operator="out"/>
<feColorMatrix type="matrix" values="0 0 0 0 0 0 0 0 0 0 0 0 0 0 0 0 0 0 0.08 0"/>
<feBlend mode="normal" in2="BackgroundImageFix" result="effect1_dropShadow_6029_2607"/>
<feBlend mode="normal" in="SourceGraphic" in2="effect1_dropShadow_6029_2607" result="shape"/>
</filter>
<linearGradient id="paint0_linear_6029_2607" x1="218" y1="0" x2="218" y2="190" gradientUnits="userSpaceOnUse">
<stop stop-color="#F8FAFC" stop-opacity="0"/>
<stop offset="1" stop-color="#F8FAFC"/>
</linearGradient>
<clipPath id="clip0_6029_2607">
<rect width="436" height="190" rx="18" fill="white"/>
</clipPath>
</defs>
</svg>
