<svg width="51" height="17" viewBox="0 0 51 17" fill="none" xmlns="http://www.w3.org/2000/svg">
<path d="M13.3817 9.99221C13.5179 9.54028 13.5921 9.0613 13.5921 8.56521C13.5921 8.51012 13.5901 8.45602 13.588 8.40087C11.6329 7.26051 10.1586 4.81734 9.54149 3.65794C9.20796 3.58979 8.8623 3.55469 8.50847 3.55469C8.15463 3.55469 7.83231 3.58879 7.509 3.65188C7.23347 4.16497 6.78919 4.93159 6.20558 5.72626C5.53251 6.64318 4.56758 7.73949 3.42889 8.40493C3.42685 8.45802 3.4248 8.51112 3.4248 8.56521C3.4248 9.0623 3.49903 9.54228 3.63626 9.99527C4.48117 9.60343 5.24783 9.0232 5.92188 8.36882C5.44096 9.49019 4.90514 10.5784 4.34696 11.4413C4.64793 11.8641 5.01396 12.239 5.42982 12.5516C6.03981 11.6718 6.65598 10.5144 7.27414 9.08435C7.05556 10.5555 6.73831 11.8432 6.28079 13.0707C6.73429 13.2892 7.22635 13.4425 7.74385 13.5196C8.07125 12.6959 8.32951 11.8772 8.53286 10.8119C8.73726 11.8732 8.9965 12.6899 9.32391 13.5106C9.83937 13.4284 10.3284 13.2702 10.7789 13.0477C10.3366 11.8641 10.0254 10.6235 9.80582 9.19554C10.4057 10.5704 11.0046 11.6878 11.5963 12.5436C12.0121 12.2299 12.3771 11.8532 12.6771 11.4293C12.1229 10.5694 11.5912 9.48919 11.1133 8.37582C11.7824 9.0262 12.5418 9.60243 13.3807 9.99221H13.3817Z" fill="#111827"/>
<path d="M8.48278 16.5C4.10526 16.5 0.543945 12.9112 0.543945 8.5C0.543945 4.08876 4.10526 0.5 8.48278 0.5C12.8602 0.5 16.4216 4.08876 16.4216 8.5C16.4216 12.9112 12.8602 16.5 8.48278 16.5ZM8.48278 2.07559C4.96744 2.07559 2.10749 4.95758 2.10749 8.5C2.10749 12.0424 4.96744 14.9244 8.48278 14.9244C11.9981 14.9244 14.8581 12.0424 14.8581 8.5C14.8581 4.95758 11.9981 2.07559 8.48278 2.07559Z" fill="#111827"/>
<path d="M49.9902 11.3057C49.9902 11.469 50.0094 11.5856 50.048 11.6556C50.0943 11.7256 50.1792 11.7606 50.3027 11.7606C50.3412 11.7606 50.3875 11.7606 50.4415 11.7606C50.4955 11.7606 50.5572 11.7527 50.6267 11.7372V12.6585C50.5803 12.674 50.5187 12.6896 50.4415 12.7051C50.3721 12.7284 50.2987 12.7478 50.2216 12.7634C50.1445 12.779 50.0673 12.7906 49.9902 12.7984C49.9131 12.8062 49.8475 12.8101 49.7934 12.8101C49.5234 12.8101 49.2997 12.7556 49.1222 12.6468C48.9448 12.5379 48.8291 12.3475 48.7751 12.0754C48.5128 12.3319 48.1888 12.5185 47.803 12.6351C47.425 12.7517 47.0585 12.8101 46.7036 12.8101C46.4336 12.8101 46.1752 12.7712 45.9283 12.6935C45.6814 12.6235 45.4615 12.5186 45.2686 12.3786C45.0835 12.2309 44.933 12.0481 44.8173 11.8305C44.7093 11.605 44.6553 11.3446 44.6553 11.0491C44.6553 10.676 44.7209 10.3728 44.852 10.1396C44.9909 9.90637 45.1683 9.72362 45.3844 9.59144C45.6081 9.45932 45.8549 9.36607 46.125 9.31162C46.4027 9.24947 46.6805 9.20278 46.9582 9.17173C47.1974 9.12505 47.425 9.09388 47.641 9.07836C47.857 9.05502 48.046 9.02003 48.208 8.9734C48.3778 8.92678 48.5089 8.85686 48.6015 8.76355C48.7018 8.66247 48.7519 8.51471 48.7519 8.32038C48.7519 8.14933 48.7095 8.00939 48.6246 7.90055C48.5475 7.79171 48.4472 7.71004 48.3237 7.65565C48.208 7.59344 48.0768 7.55458 47.9303 7.53905C47.7837 7.51571 47.6448 7.50407 47.5137 7.50407C47.1434 7.50407 46.8386 7.5818 46.5995 7.73727C46.3603 7.89279 46.2253 8.13375 46.1944 8.46032H44.8752C44.8983 8.0716 44.9909 7.74897 45.1529 7.49243C45.3149 7.23588 45.5194 7.02985 45.7663 6.87439C46.0208 6.71886 46.3063 6.60997 46.6226 6.54781C46.9389 6.48561 47.2629 6.45456 47.5947 6.45456C47.8878 6.45456 48.1771 6.48561 48.4626 6.54781C48.7481 6.60997 49.0027 6.7111 49.2264 6.85104C49.4579 6.99099 49.643 7.17362 49.7819 7.39911C49.9208 7.61679 49.9902 7.88497 49.9902 8.20372V11.3057ZM48.6709 9.62643C48.4704 9.75861 48.2235 9.84028 47.9303 9.87139C47.6371 9.89473 47.344 9.93354 47.0508 9.98799C46.9119 10.0113 46.7769 10.0463 46.6458 10.0929C46.5146 10.1318 46.3989 10.1901 46.2986 10.2679C46.1983 10.3378 46.1173 10.435 46.0556 10.5595C46.0016 10.6761 45.9746 10.8198 45.9746 10.9909C45.9746 11.1386 46.017 11.2629 46.1018 11.364C46.1867 11.4651 46.287 11.5468 46.4027 11.609C46.5261 11.6634 46.6573 11.7023 46.7962 11.7256C46.9428 11.7489 47.0739 11.7606 47.1896 11.7606C47.3362 11.7606 47.4944 11.7411 47.6641 11.7023C47.8339 11.6634 47.992 11.5973 48.1386 11.504C48.2929 11.4107 48.4202 11.2941 48.5205 11.1542C48.6208 11.0064 48.6709 10.8276 48.6709 10.6177V9.62643Z" fill="#111827"/>
<path d="M40.9131 6.61784H42.1513V7.78395H42.1745C42.2131 7.62073 42.2863 7.46132 42.3944 7.30586C42.5101 7.15039 42.6451 7.01045 42.7994 6.88603C42.9615 6.75385 43.1389 6.64895 43.3317 6.57116C43.5246 6.49343 43.7213 6.45456 43.9219 6.45456C44.0762 6.45456 44.1804 6.45844 44.2344 6.4662C44.2961 6.47402 44.3579 6.48178 44.4196 6.48954V7.77231C44.327 7.75679 44.2306 7.74509 44.1303 7.73732C44.0377 7.7218 43.9451 7.71404 43.8525 7.71404C43.6287 7.71404 43.4166 7.76067 43.216 7.85392C43.0232 7.93948 42.8534 8.07166 42.7069 8.25047C42.5603 8.42145 42.4445 8.63525 42.3597 8.89185C42.2748 9.14839 42.2323 9.4438 42.2323 9.77813V12.6468H40.9131V6.61784Z" fill="#111827"/>
<path d="M36.7968 12.8101C36.3184 12.8101 35.8903 12.7323 35.5123 12.5768C35.1419 12.4136 34.8256 12.192 34.5633 11.9121C34.3087 11.6323 34.112 11.2979 33.9731 10.9092C33.842 10.5205 33.7764 10.0929 33.7764 9.62643C33.7764 9.16774 33.842 8.74403 33.9731 8.35536C34.112 7.96664 34.3087 7.63237 34.5633 7.35248C34.8256 7.0726 35.1419 6.85486 35.5123 6.6994C35.8903 6.53611 36.3184 6.45456 36.7968 6.45456C37.2751 6.45456 37.6995 6.53611 38.0697 6.6994C38.4478 6.85486 38.7641 7.0726 39.0187 7.35248C39.281 7.63237 39.4777 7.96664 39.6089 8.35536C39.7478 8.74403 39.8172 9.16774 39.8172 9.62643C39.8172 10.0929 39.7478 10.5205 39.6089 10.9092C39.4777 11.2979 39.281 11.6323 39.0187 11.9121C38.7641 12.192 38.4478 12.4136 38.0697 12.5768C37.6995 12.7323 37.2751 12.8101 36.7968 12.8101ZM36.7968 11.7606C37.0899 11.7606 37.3446 11.6983 37.5606 11.5739C37.7766 11.4496 37.954 11.2863 38.0929 11.0841C38.2318 10.882 38.3321 10.6565 38.3938 10.4078C38.4632 10.1512 38.4979 9.89079 38.4979 9.62643C38.4979 9.36989 38.4632 9.11335 38.3938 8.85681C38.3321 8.6002 38.2318 8.37483 38.0929 8.1805C37.954 7.97834 37.7766 7.81506 37.5606 7.6907C37.3446 7.56628 37.0899 7.50407 36.7968 7.50407C36.5036 7.50407 36.249 7.56628 36.033 7.6907C35.817 7.81506 35.6395 7.97834 35.5007 8.1805C35.3618 8.37483 35.2576 8.6002 35.1882 8.85681C35.1265 9.11335 35.0957 9.36989 35.0957 9.62643C35.0957 9.89079 35.1265 10.1512 35.1882 10.4078C35.2576 10.6565 35.3618 10.882 35.5007 11.0841C35.6395 11.2863 35.817 11.4496 36.033 11.5739C36.249 11.6983 36.5036 11.7606 36.7968 11.7606Z" fill="#111827"/>
<path d="M31.292 4.32022H32.6113V12.6466H31.292V4.32022Z" fill="#111827"/>
<path d="M28.501 4.32022H29.8203V12.6466H28.501V4.32022Z" fill="#111827"/>
<path d="M23.1464 4.32013H24.6856L27.868 12.6465H26.3173L25.5419 10.4424H22.2438L21.4684 12.6465H19.9756L23.1464 4.32013ZM22.6372 9.33459H25.16L23.9218 5.75448H23.8871L22.6372 9.33459Z" fill="#111827"/>
</svg>
