<svg width="44" height="44" viewBox="0 0 44 44" fill="none" xmlns="http://www.w3.org/2000/svg">
<path d="M22.0006 43.6666C19.0034 43.6666 16.1868 43.0978 13.5506 41.9603C10.9145 40.8228 8.62148 39.2791 6.67148 37.3291C4.72148 35.3791 3.17773 33.086 2.04023 30.4499C0.902734 27.8138 0.333984 24.9971 0.333984 21.9999C0.333984 19.0027 0.902734 16.186 2.04023 13.5499C3.17773 10.9138 4.72148 8.62075 6.67148 6.67075C8.62148 4.72075 10.9145 3.177 13.5506 2.0395C16.1868 0.902002 19.0034 0.333252 22.0006 0.333252C24.9979 0.333252 27.8145 0.902002 30.4506 2.0395C33.0868 3.177 35.3798 4.72075 37.3298 6.67075C39.2798 8.62075 40.8236 10.9138 41.9611 13.5499C43.0986 16.186 43.6673 19.0027 43.6673 21.9999V25.1416C43.6673 27.2721 42.9361 29.0867 41.4736 30.5853C40.0111 32.0839 38.2145 32.8332 36.084 32.8332C34.8201 32.8332 33.6284 32.5624 32.509 32.0208C31.3895 31.4791 30.4506 30.7027 29.6923 29.6916C28.6451 30.7388 27.4625 31.5242 26.1444 32.0478C24.8263 32.5714 23.4451 32.8332 22.0006 32.8332C19.0034 32.8332 16.4486 31.777 14.3361 29.6645C12.2236 27.552 11.1673 24.9971 11.1673 21.9999C11.1673 19.0027 12.2236 16.4478 14.3361 14.3353C16.4486 12.2228 19.0034 11.1666 22.0006 11.1666C24.9979 11.1666 27.5527 12.2228 29.6652 14.3353C31.7777 16.4478 32.834 19.0027 32.834 21.9999V25.1416C32.834 26.0805 33.1409 26.8749 33.7548 27.5249C34.3687 28.1749 35.1451 28.4999 36.084 28.4999C37.0229 28.4999 37.7993 28.1749 38.4132 27.5249C39.027 26.8749 39.334 26.0805 39.334 25.1416V21.9999C39.334 17.161 37.6548 13.0624 34.2965 9.70409C30.9381 6.34575 26.8395 4.66658 22.0006 4.66658C17.1618 4.66658 13.0632 6.34575 9.70482 9.70409C6.34648 13.0624 4.66732 17.161 4.66732 21.9999C4.66732 26.8388 6.34648 30.9374 9.70482 34.2957C13.0632 37.6541 17.1618 39.3332 22.0006 39.3332H32.834V43.6666H22.0006ZM22.0006 28.4999C23.8062 28.4999 25.3409 27.868 26.6048 26.6041C27.8687 25.3402 28.5006 23.8055 28.5006 21.9999C28.5006 20.1944 27.8687 18.6596 26.6048 17.3958C25.3409 16.1319 23.8062 15.4999 22.0006 15.4999C20.1951 15.4999 18.6604 16.1319 17.3965 17.3958C16.1326 18.6596 15.5007 20.1944 15.5007 21.9999C15.5007 23.8055 16.1326 25.3402 17.3965 26.6041C18.6604 27.868 20.1951 28.4999 22.0006 28.4999Z" fill="#2872FF"/>
</svg>
