<svg width="61" height="10" viewBox="0 0 61 10" fill="none" xmlns="http://www.w3.org/2000/svg">
<path d="M9.28663 2.692C9.18397 3.27067 8.9413 3.756 8.55863 4.148C8.1853 4.53067 7.7373 4.792 7.21463 4.932C7.69063 5.044 8.0593 5.27267 8.32063 5.618C8.5913 5.96333 8.72663 6.374 8.72663 6.85C8.72663 6.99933 8.71263 7.15333 8.68463 7.312C8.54463 8.152 8.1433 8.81 7.48063 9.286C6.81797 9.762 5.9593 10 4.90463 10H0.0186332L1.76863 0.129999H6.50063C7.39663 0.129999 8.09197 0.312 8.58663 0.676C9.0813 1.03067 9.32863 1.53933 9.32863 2.202C9.32863 2.36067 9.31463 2.524 9.28663 2.692ZM6.38863 3.196C6.39797 3.14933 6.40263 3.07933 6.40263 2.986C6.40263 2.538 6.10863 2.314 5.52063 2.314H4.13463L3.82663 4.064H5.21263C5.89397 4.064 6.28597 3.77467 6.38863 3.196ZM5.95463 6.92C5.96397 6.87333 5.96863 6.808 5.96863 6.724C5.96863 6.49067 5.8893 6.31333 5.73063 6.192C5.5813 6.06133 5.3573 5.996 5.05863 5.996H3.47663L3.16863 7.802H4.76463C5.44597 7.802 5.84263 7.508 5.95463 6.92ZM17.2092 8.39H13.7092L12.8972 10H10.0132L15.3472 0.129999H18.5112L20.3592 10H17.4612L17.2092 8.39ZM16.8872 6.304L16.3972 3.098L14.7732 6.304H16.8872ZM31.6556 10H28.8976L26.2376 4.484L25.2576 10H22.4996L24.2496 0.129999H26.9936L29.6676 5.716L30.6476 0.129999H33.3916L31.6556 10ZM40.1206 0.129999C41.026 0.129999 41.81 0.293333 42.4726 0.62C43.1353 0.937333 43.6393 1.39 43.9846 1.978C44.33 2.566 44.5026 3.252 44.5026 4.036C44.5026 4.39067 44.47 4.73133 44.4046 5.058C44.2366 6.01 43.8726 6.85933 43.3126 7.606C42.762 8.35267 42.0573 8.94067 41.1986 9.37C40.3493 9.79 39.4066 10 38.3706 10H34.4646L36.2146 0.129999H40.1206ZM38.5946 7.592C39.3973 7.592 40.0646 7.37267 40.5966 6.934C41.1286 6.486 41.4693 5.86067 41.6186 5.058C41.656 4.87133 41.6746 4.67067 41.6746 4.456C41.6746 3.83067 41.4833 3.35 41.1006 3.014C40.718 2.678 40.1813 2.51 39.4906 2.51H38.5526L37.6426 7.592H38.5946ZM50.5136 0.129999L48.7776 10H46.0196L47.7696 0.129999H50.5136ZM60.7702 0.129999L60.3782 2.314H57.7602L56.4022 10H53.6442L55.0022 2.314H52.3982L52.7902 0.129999H60.7702Z" fill="#111827"/>
</svg>
