<svg width="87" height="17" viewBox="0 0 87 17" fill="none" xmlns="http://www.w3.org/2000/svg">
<g clip-path="url(#clip0_1234_1293)">
<path d="M18.3304 12.3154V10.9791C19.1519 10.6978 19.7462 9.81869 19.7462 8.78132C19.7462 7.74396 19.1519 6.86484 18.3304 6.58352V5.24726C19.0995 4.98352 19.6763 4.19231 19.7287 3.22528H18.8023V3.62968C18.8023 3.94616 18.61 4.22748 18.3304 4.35056V4.19231C18.3304 3.911 18.0856 3.68242 17.7885 3.68242H17.736C17.4389 3.68242 17.1942 3.911 17.1942 4.19231V4.38572C16.9145 4.24506 16.7222 3.98132 16.7222 3.66484V3.26045H15.7958C15.8657 4.2099 16.4251 5.01869 17.1942 5.28242V6.61869C16.3726 6.90001 15.7783 7.77913 15.7783 8.81649C15.7783 9.85385 16.3726 10.733 17.1942 11.0143V12.3506C16.4251 12.6143 15.8482 13.4055 15.7958 14.3725H16.7222V13.9681C16.7222 13.6517 16.9145 13.3703 17.1942 13.2473V13.4407C17.1942 13.722 17.4389 13.9506 17.736 13.9506H17.7885C18.0856 13.9506 18.3304 13.722 18.3304 13.4407V13.2473C18.61 13.3879 18.8023 13.6517 18.8023 13.9681V14.3725H19.7287C19.6763 13.3703 19.0995 12.5791 18.3304 12.3154ZM16.7222 9.36155V8.20111C16.7222 7.88462 16.9145 7.6033 17.1942 7.48023V7.67363C17.1942 7.95495 17.4389 8.18352 17.736 8.18352H17.7885C18.0856 8.18352 18.3304 7.95495 18.3304 7.67363V7.48023C18.61 7.62089 18.8023 7.88462 18.8023 8.20111V9.36155C18.8023 9.67803 18.61 9.95935 18.3304 10.0824V9.88902C18.3304 9.6077 18.0856 9.37913 17.7885 9.37913H17.736C17.4389 9.37913 17.1942 9.6077 17.1942 9.88902V10.0824C16.9145 9.95935 16.7222 9.67803 16.7222 9.36155Z" fill="#111827"/>
<path d="M24.0638 9.48462V8.06045C24.8854 7.77913 25.4797 6.90001 25.4797 5.86264C25.4797 4.82528 24.8854 3.94616 24.0638 3.66484V3.22528H22.9452V3.66484C22.1236 3.94616 21.5293 4.82528 21.5293 5.86264C21.5293 6.90001 22.1236 7.77913 22.9452 8.06045V9.48462C22.1236 9.76594 21.5293 10.6451 21.5293 11.6824C21.5293 12.7198 22.1236 13.5989 22.9452 13.8802V14.3198H24.0638V13.8802C24.8854 13.5989 25.4797 12.7198 25.4797 11.6824C25.4797 10.6451 24.8854 9.76594 24.0638 9.48462ZM22.4732 6.46045V5.30001C22.4732 4.98352 22.6655 4.7022 22.9452 4.57913V4.77253C22.9452 5.05385 23.1899 5.28242 23.487 5.28242H23.5395C23.8366 5.28242 24.0813 5.05385 24.0813 4.77253V4.57913C24.361 4.71979 24.5533 4.98352 24.5533 5.30001V6.46045C24.5533 6.77693 24.361 7.05825 24.0813 7.18132V7.0055C24.0813 6.72418 23.8366 6.49561 23.5395 6.49561H23.487C23.1899 6.49561 22.9452 6.72418 22.9452 7.0055V7.19891C22.6655 7.05825 22.4732 6.77693 22.4732 6.46045ZM24.5358 12.2626C24.5358 12.5791 24.3435 12.8604 24.0638 12.9835V12.7022C24.0638 12.4209 23.8191 12.1923 23.522 12.1923H23.4695C23.1724 12.1923 22.9277 12.4209 22.9277 12.7022V12.9835C22.648 12.8429 22.4557 12.5791 22.4557 12.2626V11.1022C22.4557 10.7857 22.648 10.5044 22.9277 10.3813V10.4868C22.9277 10.7681 23.1724 10.9967 23.4695 10.9967H23.522C23.8191 10.9967 24.0638 10.7681 24.0638 10.4868V10.3813C24.3435 10.522 24.5358 10.7857 24.5358 11.1022V12.2626Z" fill="#111827"/>
<path d="M11.8628 7.65604C11.8453 7.6033 11.8453 7.55055 11.8103 7.4978C11.8103 7.48022 13.5758 5.19451 11.9502 3.78791C10.3245 2.38132 8.43674 4.20989 8.41926 4.22747C8.12211 4.13956 7.80747 4.08681 7.51032 4.05165C6.89853 3.96374 6.02455 4.05165 6.02455 4.05165C5.72739 4.06923 5.43024 4.12198 5.13308 4.20989C5.1156 4.19231 3.2278 2.36374 1.60219 3.77033C-0.0234217 5.17692 1.72455 7.46264 1.74203 7.48022C1.72455 7.53297 1.70707 7.58571 1.68959 7.63846C1.51479 8.62308 0.326172 8.92198 0.326172 10.6275C0.326172 12.3681 1.56723 13.7396 4.11926 13.7396H5.16804C5.16804 13.7396 5.57007 14.2846 6.4091 14.3198C6.4091 14.3198 6.60137 14.3374 7.03837 14.3198C7.92983 14.3198 8.34934 13.7571 8.34934 13.7396H9.39812C11.9502 13.7396 13.1912 12.3681 13.1912 10.6275C13.2437 8.93956 12.0376 8.62308 11.8628 7.65604Z" fill="#111827"/>
<path d="M30.0596 13.1593V4.54395H33.6254C34.1673 4.54395 34.6392 4.63186 35.0063 4.7901C35.3734 4.94835 35.6705 5.1945 35.8453 5.52857C36.0376 5.84505 36.1425 6.24945 36.1425 6.70659C36.1425 7.16373 36.0201 7.56813 35.7579 7.90219C35.5132 8.23626 35.1462 8.44725 34.6917 8.57032V8.32417C35.0762 8.41208 35.4083 8.55274 35.688 8.76373C35.9677 8.97472 36.1949 9.22087 36.3523 9.53736C36.5096 9.85384 36.597 10.2055 36.597 10.6099C36.597 11.0143 36.5271 11.3835 36.4047 11.7C36.2823 12.0165 36.0901 12.2802 35.8453 12.4912C35.6006 12.7022 35.3035 12.8604 34.9539 12.9835C34.6043 13.089 34.2023 13.1418 33.7478 13.1418L30.0596 13.1593ZM31.388 11.8758H33.6953C34.0275 11.8758 34.3071 11.8231 34.5344 11.7352C34.7791 11.6297 34.9539 11.489 35.0762 11.2956C35.1986 11.1022 35.2685 10.856 35.2685 10.5923C35.2685 10.3461 35.1986 10.1176 35.0588 9.94175C34.9364 9.76593 34.7441 9.62527 34.4994 9.53736C34.2547 9.43186 33.9575 9.3967 33.6254 9.3967H31.388V11.8758ZM31.388 8.11318H33.5555C33.8002 8.11318 34.01 8.06043 34.2023 7.97252C34.3945 7.86703 34.5518 7.74395 34.6567 7.56813C34.7791 7.3923 34.8315 7.1989 34.8315 6.97032C34.8315 6.60109 34.7092 6.31977 34.4644 6.12637C34.2197 5.93296 33.8701 5.82747 33.4157 5.82747H31.388V8.11318ZM40.6872 13.2824C40.023 13.2824 39.4462 13.1418 38.9218 12.8604C38.4149 12.5791 38.0128 12.1923 37.7157 11.6824C37.436 11.1901 37.2962 10.6275 37.2962 9.97692C37.2962 9.46703 37.3836 9.00988 37.5409 8.58791C37.6982 8.16593 37.9254 7.81428 38.2226 7.4978C38.5197 7.18131 38.8693 6.95274 39.2539 6.77692C39.6559 6.60109 40.1104 6.51318 40.5823 6.51318C41.0018 6.51318 41.3864 6.60109 41.736 6.75934C42.1031 6.91758 42.4002 7.12857 42.6624 7.40988C42.9246 7.6912 43.1344 8.02527 43.2742 8.41208C43.414 8.78131 43.484 9.20329 43.484 9.66043L43.4665 10.2055H38.2226L37.9429 9.20329H42.3827L42.1905 9.41428V9.11538C42.173 8.85164 42.0681 8.60549 41.9283 8.3945C41.771 8.18351 41.5787 8.00769 41.334 7.88461C41.0892 7.76153 40.8445 7.70879 40.5649 7.70879C40.1279 7.70879 39.7608 7.7967 39.4462 7.97252C39.149 8.13076 38.9218 8.37692 38.7644 8.71098C38.6071 9.02747 38.5372 9.43186 38.5372 9.90659C38.5372 10.3637 38.6246 10.7505 38.8169 11.0846C39.0092 11.4187 39.2714 11.6648 39.6035 11.8407C39.9531 12.0165 40.3376 12.1044 40.7921 12.1044C41.1067 12.1044 41.4039 12.0516 41.6661 11.9461C41.9457 11.8407 42.2429 11.6472 42.5575 11.3659L43.1868 12.2626C42.9945 12.456 42.7498 12.6319 42.4701 12.7725C42.1905 12.9132 41.8933 13.0363 41.5787 13.1242C41.299 13.2472 40.9844 13.2824 40.6872 13.2824ZM44.4978 13.1593V6.68901H45.7738V8.71098L45.6514 8.21868C45.7388 7.90219 45.8962 7.62087 46.1059 7.37472C46.3331 7.12857 46.5779 6.91758 46.8575 6.77692C47.1372 6.63626 47.4344 6.54835 47.7315 6.54835C47.8714 6.54835 47.9937 6.56593 48.1161 6.58351C48.2384 6.60109 48.3433 6.63626 48.4307 6.67142L48.0986 8.04285C47.9937 8.00769 47.8888 7.97252 47.7665 7.93736C47.6441 7.90219 47.5392 7.88461 47.4169 7.88461C47.1896 7.88461 46.9799 7.93736 46.7876 8.02527C46.5953 8.11318 46.4205 8.21868 46.2632 8.37692C46.1234 8.51758 46.001 8.6934 45.9136 8.90439C45.8262 9.0978 45.7738 9.32637 45.7738 9.55494V13.1593H44.4978ZM51.2624 13.2824C50.738 13.2824 50.2486 13.1418 49.8116 12.8429C49.3746 12.544 49.025 12.1396 48.7628 11.6297C48.5006 11.1198 48.3783 10.5396 48.3783 9.90659C48.3783 9.25604 48.5006 8.67582 48.7628 8.18351C49.025 7.67362 49.3921 7.26923 49.8466 6.98791C50.301 6.70659 50.8079 6.54835 51.3848 6.54835C51.7169 6.54835 52.0315 6.60109 52.2937 6.68901C52.5734 6.7945 52.8181 6.93516 53.0104 7.11098C53.2201 7.28681 53.3949 7.48021 53.5173 7.70879C53.6571 7.93736 53.7445 8.18351 53.7795 8.44725L53.4998 8.34175V6.67142H54.7758V13.1593H53.4998V11.6121L53.797 11.5242C53.7445 11.7527 53.6397 11.9637 53.4823 12.1747C53.3425 12.3857 53.1502 12.5615 52.9055 12.7374C52.6783 12.8956 52.4161 13.0363 52.1364 13.1242C51.8567 13.2297 51.577 13.2824 51.2624 13.2824ZM51.5945 12.122C51.9791 12.122 52.3112 12.0341 52.6084 11.8407C52.9055 11.6472 53.1327 11.4011 53.2901 11.067C53.4649 10.733 53.5523 10.3461 53.5523 9.92417C53.5523 9.50219 53.4649 9.13296 53.2901 8.7989C53.1327 8.46483 52.9055 8.21868 52.6084 8.02527C52.3112 7.83186 51.9791 7.74395 51.5945 7.74395C51.2275 7.74395 50.8779 7.83186 50.5982 8.02527C50.3185 8.21868 50.0913 8.46483 49.9165 8.7989C49.7592 9.13296 49.6718 9.50219 49.6718 9.92417C49.6718 10.3461 49.7592 10.733 49.9165 11.067C50.0913 11.4011 50.3185 11.6472 50.5982 11.8407C50.8779 12.0165 51.21 12.122 51.5945 12.122ZM58.901 13.2824C58.3067 13.2824 57.7649 13.1418 57.2929 12.8429C56.8209 12.544 56.4539 12.1396 56.1742 11.6297C55.912 11.1198 55.7722 10.5571 55.7722 9.92417C55.7722 9.2912 55.912 8.72857 56.1742 8.21868C56.4539 7.70879 56.8209 7.30439 57.2929 7.00549C57.7649 6.70659 58.3067 6.56593 58.901 6.56593C59.4779 6.56593 59.9848 6.68901 60.4567 6.91758C60.9287 7.14615 61.2957 7.46263 61.5405 7.86703L60.8413 8.72857C60.7189 8.53516 60.5441 8.35934 60.3344 8.21868C60.1246 8.06043 59.9149 7.93736 59.6876 7.84945C59.4604 7.76153 59.2331 7.70879 59.0234 7.70879C58.6388 7.70879 58.2892 7.81428 57.9746 8.00769C57.6775 8.20109 57.4327 8.46483 57.2579 8.7989C57.0831 9.13296 56.9958 9.51977 56.9958 9.92417C56.9958 10.3286 57.0831 10.7154 57.2754 11.0494C57.4677 11.3835 57.7124 11.6472 58.0271 11.8407C58.3417 12.0341 58.6738 12.1396 59.0583 12.1396C59.2856 12.1396 59.4953 12.1044 59.6876 12.0341C59.8974 11.9637 60.1071 11.8582 60.2994 11.7C60.4917 11.5593 60.684 11.3659 60.8588 11.1549L61.5579 12.0165C61.2958 12.3857 60.9287 12.6846 60.4392 12.9308C59.9149 13.1593 59.4079 13.2824 58.901 13.2824ZM62.3445 13.1593V4.05164H63.6031V8.02527L63.3758 8.16593C63.4632 7.88461 63.6205 7.62087 63.8478 7.37472C64.0925 7.12857 64.3722 6.93516 64.6868 6.77692C65.0189 6.61868 65.351 6.54835 65.6831 6.54835C66.1726 6.54835 66.5746 6.65384 66.9067 6.84725C67.2388 7.04065 67.4836 7.32197 67.6409 7.72637C67.7982 8.11318 67.8856 8.62307 67.8856 9.22087V13.1593H66.6271V9.30879C66.6271 8.93955 66.5746 8.64065 66.4872 8.3945C66.3823 8.14835 66.2425 7.97252 66.0327 7.86703C65.823 7.74395 65.5783 7.70879 65.2811 7.72637C65.0364 7.72637 64.8092 7.76153 64.6169 7.84945C64.4071 7.91978 64.2323 8.02527 64.075 8.16593C63.9352 8.30659 63.8128 8.46483 63.7254 8.65824C63.638 8.83406 63.6031 9.02747 63.6031 9.25604V13.1593H62.9738C62.8689 13.1593 62.764 13.1593 62.6592 13.1593C62.5543 13.1593 62.4494 13.1593 62.3445 13.1593ZM71.7311 13.2824C71.2067 13.2824 70.7173 13.1418 70.2803 12.8429C69.8433 12.544 69.4937 12.1396 69.249 11.6297C68.9868 11.1198 68.8644 10.5396 68.8644 9.90659C68.8644 9.25604 68.9868 8.67582 69.249 8.18351C69.5112 7.67362 69.8783 7.26923 70.3327 6.98791C70.7872 6.70659 71.2941 6.54835 71.871 6.54835C72.2031 6.54835 72.5177 6.60109 72.7799 6.68901C73.0596 6.7945 73.3043 6.93516 73.4966 7.11098C73.7063 7.28681 73.8811 7.48021 74.0035 7.70879C74.1433 7.93736 74.2307 8.18351 74.2657 8.44725L73.986 8.34175V6.67142H75.262V13.1593H73.986V11.6121L74.2831 11.5242C74.2307 11.7527 74.1258 11.9637 73.9685 12.1747C73.8287 12.3857 73.6364 12.5615 73.3917 12.7374C73.1644 12.8956 72.9023 13.0363 72.6226 13.1242C72.3254 13.2297 72.0283 13.2824 71.7311 13.2824ZM72.0632 12.122C72.4478 12.122 72.7799 12.0341 73.077 11.8407C73.3742 11.6472 73.6014 11.4011 73.7588 11.067C73.9336 10.733 74.021 10.3461 74.021 9.92417C74.021 9.50219 73.9336 9.13296 73.7588 8.7989C73.6014 8.46483 73.3742 8.21868 73.077 8.02527C72.7799 7.83186 72.4478 7.74395 72.0632 7.74395C71.6962 7.74395 71.3466 7.83186 71.0669 8.02527C70.7872 8.21868 70.56 8.46483 70.3852 8.7989C70.2279 9.13296 70.1405 9.50219 70.1405 9.92417C70.1405 10.3461 70.2279 10.733 70.3852 11.067C70.56 11.4011 70.7872 11.6472 71.0669 11.8407C71.3466 12.0165 71.6787 12.122 72.0632 12.122ZM76.8352 13.1593V6.68901H78.0937V13.1593H76.8352ZM77.447 5.26483C77.1848 5.26483 76.975 5.1945 76.8177 5.05384C76.6779 4.91318 76.5905 4.71977 76.5905 4.45604C76.5905 4.20988 76.6604 4.01648 76.8177 3.87582C76.975 3.73516 77.1848 3.64725 77.447 3.64725C77.7092 3.64725 77.9189 3.71758 78.0762 3.85824C78.2161 3.9989 78.3035 4.1923 78.3035 4.45604C78.3035 4.70219 78.2336 4.8956 78.0762 5.03626C77.9189 5.1945 77.7092 5.26483 77.447 5.26483ZM79.6669 13.1593V6.68901H80.9254V8.02527L80.6982 8.16593C80.7856 7.88461 80.9429 7.62087 81.1701 7.37472C81.4149 7.12857 81.6945 6.93516 82.0092 6.77692C82.3413 6.61868 82.6734 6.54835 83.0055 6.54835C83.4949 6.54835 83.897 6.65384 84.2291 6.84725C84.5612 7.04065 84.8059 7.32197 84.9632 7.72637C85.1205 8.11318 85.2079 8.62307 85.2079 9.22087V13.1593H83.9494V9.30879C83.9494 8.93955 83.897 8.64065 83.8096 8.3945C83.7047 8.14835 83.5649 7.97252 83.3551 7.86703C83.1453 7.74395 82.9006 7.70879 82.6035 7.72637C82.3588 7.72637 82.1315 7.76153 81.9218 7.84945C81.712 7.91978 81.5372 8.02527 81.3799 8.16593C81.2401 8.30659 81.1177 8.46483 81.0303 8.65824C80.9429 8.83406 80.9079 9.02747 80.9079 9.25604V13.1593H80.2787C80.1738 13.1593 80.0689 13.1593 79.964 13.1593C79.8766 13.1593 79.7718 13.1593 79.6669 13.1593Z" fill="#111827"/>
</g>
<defs>
<clipPath id="clip0_1234_1293">
<rect width="86" height="16" fill="white" transform="translate(0.34375 0.5)"/>
</clipPath>
</defs>
</svg>
