<svg width="45" height="40" viewBox="0 0 45 40" fill="none" xmlns="http://www.w3.org/2000/svg">
<path d="M33.334 39.6667C30.3368 39.6667 27.7819 38.6105 25.6694 36.498C23.5569 34.3855 22.5006 31.8306 22.5006 28.8334C22.5006 25.8362 23.5569 23.2813 25.6694 21.1688C27.7819 19.0563 30.3368 18.0001 33.334 18.0001C36.3312 18.0001 38.8861 19.0563 40.9986 21.1688C43.1111 23.2813 44.1673 25.8362 44.1673 28.8334C44.1673 31.8306 43.1111 34.3855 40.9986 36.498C38.8861 38.6105 36.3312 39.6667 33.334 39.6667ZM33.7673 29.9167L38.6965 24.9876L37.1798 23.4709L32.2506 28.4001L33.7673 29.9167ZM0.833984 15.8334V5.00008C0.833984 3.80841 1.25829 2.78828 2.1069 1.93966C2.95551 1.09105 3.97565 0.666748 5.16732 0.666748H39.834C41.0257 0.666748 42.0458 1.09105 42.8944 1.93966C43.743 2.78828 44.1673 3.80841 44.1673 5.00008V18.2167C42.7229 16.7362 41.0708 15.6077 39.2111 14.8313C37.3513 14.0549 35.3923 13.6667 33.334 13.6667C31.9618 13.6667 30.6527 13.8383 29.4069 14.1813C28.1611 14.5244 26.9784 15.0029 25.859 15.6167L22.284 8.35842C22.1034 7.9973 21.8326 7.72647 21.4715 7.54591C21.1104 7.36536 20.7312 7.27508 20.334 7.27508C19.9368 7.27508 19.5576 7.36536 19.1965 7.54591C18.8354 7.72647 18.5645 7.9973 18.384 8.35842L11.6673 21.8459L9.22982 17.0251C9.04926 16.664 8.78746 16.3751 8.4444 16.1584C8.10135 15.9417 7.73121 15.8334 7.33398 15.8334H0.833984ZM5.16732 35.3334C3.97565 35.3334 2.95551 34.9091 2.1069 34.0605C1.25829 33.2119 0.833984 32.1917 0.833984 31.0001V20.1667H5.97982L9.71732 27.6417C9.89787 28.039 10.1597 28.3369 10.5027 28.5355C10.8458 28.7341 11.234 28.8334 11.6673 28.8334C12.0645 28.8334 12.4347 28.7341 12.7777 28.5355C13.1208 28.3369 13.3826 28.039 13.5632 27.6417L20.334 14.2084L22.3923 18.3251C21.0923 19.6973 20.0632 21.2772 19.3048 23.0647C18.5465 24.8522 18.1673 26.7751 18.1673 28.8334C18.1673 29.9529 18.2847 31.0633 18.5194 32.1647C18.7541 33.2661 19.1243 34.3223 19.6298 35.3334H5.16732Z" fill="#2872FF"/>
</svg>
