<svg width="13" height="18" viewBox="0 0 13 18" fill="none" xmlns="http://www.w3.org/2000/svg">
<path d="M3.88527 11.1921H0.843019C0.507019 11.1921 0.260852 11.0433 0.104519 10.7458C-0.0519811 10.4485 -0.0327312 10.162 0.162269 9.88634L6.71402 0.434591C6.84869 0.246091 7.02052 0.117173 7.22952 0.0478401C7.43835 -0.0213265 7.6556 -0.0154929 7.88127 0.0653405C8.10694 0.146007 8.27202 0.284091 8.37652 0.479591C8.48102 0.675091 8.51977 0.885674 8.49277 1.11134L7.74102 7.19209H11.4718C11.8281 7.19209 12.0794 7.35176 12.2255 7.67109C12.3717 7.99026 12.3288 8.28767 12.0968 8.56334L4.85252 17.2401C4.70768 17.4119 4.53077 17.5232 4.32177 17.5738C4.11277 17.6243 3.90894 17.6041 3.71027 17.5131C3.5116 17.4221 3.35743 17.283 3.24777 17.0958C3.1381 16.9087 3.09677 16.7023 3.12377 16.4766L3.88527 11.1921Z" fill="#0F172A"/>
</svg>
