<svg width="259" height="251" viewBox="0 0 259 251" fill="none" xmlns="http://www.w3.org/2000/svg">
<path d="M33.795 0C-31.1204 0 -191 160.528 -191 225.713C-191 290.898 -31.1204 451.429 33.795 451.429C98.7104 451.429 258.593 290.895 258.593 225.713C258.593 160.531 98.7132 0 33.795 0ZM-1.23524 354.783C-28.6099 347.294 -102.208 218.026 -94.7475 190.54C-87.2868 163.052 41.4534 89.1542 68.8267 96.6452C96.2028 104.135 169.8 233.401 162.341 260.889C154.88 288.375 26.138 362.274 -1.23524 354.783Z" fill="#836EF9"/>
<path d="M33.795 0C-31.1204 0 -191 160.528 -191 225.713C-191 290.898 -31.1204 451.429 33.795 451.429C98.7104 451.429 258.593 290.895 258.593 225.713C258.593 160.531 98.7132 0 33.795 0ZM-1.23524 354.783C-28.6099 347.294 -102.208 218.026 -94.7475 190.54C-87.2868 163.052 41.4534 89.1542 68.8267 96.6452C96.2028 104.135 169.8 233.401 162.341 260.889C154.88 288.375 26.138 362.274 -1.23524 354.783Z" fill="white" fill-opacity="0.8"/>
</svg>
