<svg width="24" height="24" viewBox="0 0 24 24" fill="none" xmlns="http://www.w3.org/2000/svg">
<mask id="mask0_6029_2431" style="mask-type:alpha" maskUnits="userSpaceOnUse" x="0" y="0" width="24" height="24">
<rect width="24" height="24" fill="#0F172A"/>
</mask>
<g mask="url(#mask0_6029_2431)">
<path d="M5.75028 16.2503V10.2503C5.75028 10.0378 5.8222 9.85961 5.96603 9.71578C6.10987 9.57211 6.28803 9.50028 6.50053 9.50028C6.7132 9.50028 6.89137 9.57211 7.03503 9.71578C7.17853 9.85961 7.25028 10.0378 7.25028 10.2503V16.2503C7.25028 16.4628 7.17836 16.6409 7.03453 16.7848C6.8907 16.9284 6.71253 17.0003 6.50003 17.0003C6.28736 17.0003 6.10928 16.9284 5.96578 16.7848C5.82211 16.6409 5.75028 16.4628 5.75028 16.2503ZM11.2503 16.2503V10.2503C11.2503 10.0378 11.3222 9.85961 11.466 9.71578C11.6099 9.57211 11.788 9.50028 12.0005 9.50028C12.2132 9.50028 12.3913 9.57211 12.5348 9.71578C12.6784 9.85961 12.7503 10.0378 12.7503 10.2503V16.2503C12.7503 16.4628 12.6784 16.6409 12.5345 16.7848C12.3907 16.9284 12.2125 17.0003 12 17.0003C11.7874 17.0003 11.6093 16.9284 11.4658 16.7848C11.3221 16.6409 11.2503 16.4628 11.2503 16.2503ZM3.51953 20.5003C3.30703 20.5003 3.12895 20.4284 2.98528 20.2845C2.84145 20.1407 2.76953 19.9625 2.76953 19.75C2.76953 19.5374 2.84145 19.3593 2.98528 19.2158C3.12895 19.0721 3.30703 19.0003 3.51953 19.0003H20.481C20.6935 19.0003 20.8716 19.0722 21.0153 19.216C21.1591 19.3599 21.231 19.538 21.231 19.7505C21.231 19.9632 21.1591 20.1413 21.0153 20.2848C20.8716 20.4284 20.6935 20.5003 20.481 20.5003H3.51953ZM16.7503 16.2503V10.2503C16.7503 10.0378 16.8222 9.85961 16.966 9.71578C17.1099 9.57211 17.288 9.50028 17.5005 9.50028C17.7132 9.50028 17.8913 9.57211 18.0348 9.71578C18.1784 9.85961 18.2503 10.0378 18.2503 10.2503V16.2503C18.2503 16.4628 18.1784 16.6409 18.0345 16.7848C17.8907 16.9284 17.7125 17.0003 17.5 17.0003C17.2874 17.0003 17.1092 16.9284 16.9655 16.7848C16.822 16.6409 16.7503 16.4628 16.7503 16.2503ZM20.5195 7.50028H3.41003C3.23203 7.50028 3.08078 7.43811 2.95628 7.31378C2.83178 7.18961 2.76953 7.0387 2.76953 6.86103V6.47053C2.76953 6.34036 2.80211 6.22811 2.86728 6.13378C2.93261 6.03961 3.01861 5.96303 3.12528 5.90403L11.206 1.95028C11.4557 1.82978 11.72 1.76953 11.999 1.76953C12.278 1.76953 12.5432 1.82978 12.7945 1.95028L20.8348 5.87903C20.9604 5.9432 21.0579 6.03295 21.127 6.14828C21.1964 6.26378 21.231 6.38778 21.231 6.52028V6.79128C21.231 6.99595 21.164 7.16528 21.03 7.29928C20.896 7.43328 20.7259 7.50028 20.5195 7.50028Z" fill="#0F172A"/>
</g>
</svg>
