<svg width="46" height="35" viewBox="0 0 46 35" fill="none" xmlns="http://www.w3.org/2000/svg">
<path d="M10.8333 21.6667H22.9125C23.6347 21.6667 24.1764 21.441 24.5375 20.9896C24.8986 20.5382 25.0792 20.0417 25.0792 19.5C25.0792 18.9583 24.8986 18.4618 24.5375 18.0104C24.1764 17.559 23.6347 17.3333 22.9125 17.3333H10.8333C10.2194 17.3333 9.70486 17.541 9.28958 17.9563C8.8743 18.3715 8.66667 18.8861 8.66667 19.5C8.66667 20.1139 8.8743 20.6285 9.28958 21.0438C9.70486 21.459 10.2194 21.6667 10.8333 21.6667ZM10.8333 13H19.5C20.1139 13 20.6285 12.7924 21.0437 12.3771C21.459 11.9618 21.6667 11.4472 21.6667 10.8333C21.6667 10.2194 21.459 9.70486 21.0437 9.28958C20.6285 8.87431 20.1139 8.66667 19.5 8.66667H10.8333C10.2194 8.66667 9.70486 8.87431 9.28958 9.28958C8.8743 9.70486 8.66667 10.2194 8.66667 10.8333C8.66667 11.4472 8.8743 11.9618 9.28958 12.3771C9.70486 12.7924 10.2194 13 10.8333 13ZM4.33333 30.3333C3.14167 30.3333 2.12153 29.909 1.27292 29.0604C0.424306 28.2118 0 27.1917 0 26V4.33333C0 3.14167 0.424306 2.12153 1.27292 1.27292C2.12153 0.424306 3.14167 0 4.33333 0H39C40.1917 0 41.2118 0.424306 42.0604 1.27292C42.909 2.12153 43.3333 3.14167 43.3333 4.33333V7.58333C43.3333 8.19722 43.1257 8.71181 42.7104 9.12708C42.2951 9.54236 41.7806 9.75 41.1667 9.75C40.5528 9.75 40.0382 9.54236 39.6229 9.12708C39.2076 8.71181 39 8.19722 39 7.58333V4.33333H4.33333V26H17.3333C17.9472 26 18.4618 26.2076 18.8771 26.6229C19.2924 27.0382 19.5 27.5528 19.5 28.1667C19.5 28.7806 19.2924 29.2951 18.8771 29.7104C18.4618 30.1257 17.9472 30.3333 17.3333 30.3333H4.33333ZM45.2833 15.8167C45.4639 15.9972 45.5542 16.1958 45.5542 16.4125C45.5542 16.6292 45.4639 16.8278 45.2833 17.0083L43.3333 18.9583L39.5417 15.1667L41.4917 13.2167C41.6722 13.0361 41.8708 12.9458 42.0875 12.9458C42.3042 12.9458 42.5028 13.0361 42.6833 13.2167L45.2833 15.8167ZM42.0333 20.2583L28.275 34.0167C28.0583 34.2333 27.8146 34.3958 27.5437 34.5042C27.2729 34.6125 26.9931 34.6667 26.7042 34.6667H24.9167C24.6278 34.6667 24.375 34.5583 24.1583 34.3417C23.9417 34.125 23.8333 33.8722 23.8333 33.5833V31.7958C23.8333 31.5069 23.8875 31.2271 23.9958 30.9563C24.1042 30.6854 24.2667 30.4417 24.4833 30.225L38.2417 16.4667L42.0333 20.2583Z" fill="#2D2D2D"/>
</svg>
