<svg width="344" height="254" viewBox="0 0 344 254" fill="none" xmlns="http://www.w3.org/2000/svg">
<g clip-path="url(#clip0_1136_515)">
<rect width="343.667" height="254" fill="#F1F1F1"/>
<g style="mix-blend-mode:overlay">
<path d="M406.946 104.263L403.171 103M406.946 104.263H395.758M406.946 104.263L410.847 105.569M406.946 104.263H414.869M403.171 103L404.544 103L405.904 103.003L407.235 103.011L408.525 103.026L409.758 103.051L410.923 103.088L412.004 103.139L413.008 103.205L413.869 103.295L414.654 103.4L414.869 103.437V104.263M403.171 103H392.162M392.162 103H381.154M392.162 103L395.758 104.263M381.154 103H370.146M381.154 103L384.57 104.263M370.146 103H359.138M370.146 103L373.382 104.263M359.138 103H348.13M359.138 103L362.194 104.263M348.13 103H337.122M348.13 103L351.006 104.263M337.122 103H326.114M337.122 103L339.819 104.263M326.114 103H315.106M326.114 103L328.631 104.263M315.106 103H304.097M315.106 103L317.443 104.263M304.097 103H293.089M304.097 103L306.255 104.263M293.089 103H282.081M293.089 103L295.067 104.263M282.081 103H271.073M282.081 103L283.879 104.263M271.073 103H260.065M271.073 103L271.473 103.312L272.078 103.785L272.691 104.263M260.065 103H249.057M260.065 103L260.42 103.312L261.503 104.263M249.057 103H238.049M249.057 103L250.315 104.263M238.049 103H227.041M238.049 103L238.449 103.469L238.855 103.944L238.991 104.103L239.128 104.263M227.041 103H216.032M227.041 103L227.374 103.469L227.486 103.626L227.599 103.785L227.94 104.263M216.032 103H205.024M216.032 103L216.752 104.263M205.024 103L205.091 103.156L205.157 103.312L205.495 104.103L205.564 104.263M205.024 103H194.016M194.016 103H183.008M194.016 103L194.376 104.263M183.008 103H172M183.008 103L183.075 103.469L183.188 104.263M172 103H160.992M172 103V104.263M160.992 103H149.984M160.992 103L160.925 103.469L160.812 104.263M149.984 103H138.976M149.984 103L149.624 104.263M138.976 103L138.909 103.156L138.843 103.312L138.505 104.103L138.436 104.263M138.976 103H127.968M127.968 103H116.959M127.968 103L127.34 104.103L127.248 104.263M116.959 103H105.951M116.959 103L116.626 103.469L116.514 103.626L116.288 103.944L116.174 104.103L116.06 104.263M105.951 103H94.9432M105.951 103L105.551 103.469L105.145 103.944L105.009 104.103L104.872 104.263M94.9432 103H83.9351M94.9432 103L93.6848 104.263M83.9351 103H72.9268M83.9351 103L83.5799 103.312L82.4969 104.263M72.9268 103H61.9188M72.9268 103L71.309 104.263M61.9188 103H50.9107M61.9188 103L60.121 104.263M50.9107 103H39.9024M50.9107 103L48.9331 104.263M39.9024 103H28.8944M39.9024 103L37.7452 104.263M28.8944 103H17.8863M28.8944 103L26.5573 104.263M17.8863 103H6.87829M17.8863 103L15.3693 104.263M6.87829 103H-4.13001M6.87829 103L4.18143 104.263M-4.13001 103H-15.1381M-4.13001 103L-7.00649 104.263M-15.1381 103H-26.1461M-15.1381 103L-18.1944 104.263M-26.1461 103H-37.1544M-26.1461 103L-29.3823 104.263M-37.1544 103H-48.1624M-37.1544 103L-40.57 104.263M-48.1624 103H-59.1705M-48.1624 103L-51.7579 104.263M-59.1705 103L-60.5442 103L-61.9038 103.003L-63.235 103.011L-64.5245 103.026L-65.7581 103.051L-66.9226 103.088L-68.0041 103.139L-69.008 103.205L-69.8694 103.295L-70.6537 103.4L-70.8692 103.437V104.263M-59.1705 103L-62.9459 104.263M-40.57 104.263H-29.3823M-40.57 104.263H-51.7579M-40.57 104.263L-44.0995 105.569M-29.3823 104.263L-32.7258 105.569M-29.3823 104.263H-18.1944M4.18143 104.263H15.3693M4.18143 104.263H-7.00649M4.18143 104.263L3.49356 104.586L1.39526 105.569M15.3693 104.263L12.7689 105.569M15.3693 104.263H26.5573M48.9331 104.263H60.121M48.9331 104.263H37.7452M48.9331 104.263L48.4286 104.586L48.1747 104.748L46.8897 105.569M60.121 104.263L59.8921 104.424L59.6624 104.586L58.2636 105.569M60.121 104.263H71.309M93.6848 104.263L93.5244 104.424L92.3844 105.569M93.6848 104.263H104.872M93.6848 104.263H82.4969M104.872 104.263L104.597 104.586L104.459 104.748L104.32 104.911L103.758 105.569M104.872 104.263H116.06M138.436 104.263H149.624M138.436 104.263H127.248M138.436 104.263L137.879 105.569M149.624 104.263L149.578 104.424L149.533 104.586L149.486 104.748L149.347 105.238L149.253 105.569M149.624 104.263H160.812M183.188 104.263H194.376M183.188 104.263H172M183.188 104.263L183.374 105.569M194.376 104.263L194.422 104.424L194.467 104.586L194.514 104.748L194.747 105.569M194.376 104.263H205.564M227.94 104.263H239.128M227.94 104.263H216.752M227.94 104.263L228.169 104.586L228.633 105.238L228.75 105.403L228.868 105.569M239.128 104.263L239.403 104.586L239.541 104.748L239.68 104.911L240.242 105.569M239.128 104.263H250.315M272.691 104.263H283.879M272.691 104.263H261.503M272.691 104.263L273.104 104.586L273.312 104.748L274.363 105.569M283.879 104.263L284.108 104.424L284.338 104.586L285.736 105.569M283.879 104.263H295.067M317.443 104.263H328.631M317.443 104.263H306.255M317.443 104.263L318.039 104.586L318.339 104.748L319.857 105.569M328.631 104.263L331.231 105.569M328.631 104.263H339.819M362.194 104.263H373.382M362.194 104.263H351.006M362.194 104.263L365.352 105.569M373.382 104.263L376.726 105.569M373.382 104.263H384.57M-70.9084 116.078H-70.8692M-59.6476 116.078L-55.3762 114.411M-59.6476 116.078L-64.0828 117.809M-59.6476 116.078H-46.7783M-59.6476 116.078H-70.8692M-55.3762 114.411H-68.0082M-55.3762 114.411L-51.2593 112.804M-55.3762 114.411H-42.7442M-68.0082 114.411L-63.6626 112.804M-68.0082 114.411H-70.8692M-68.0082 114.411L-70.8692 115.469M-55.4273 109.758H-43.4574M-55.4273 109.758L-51.5216 108.313M-55.4273 109.758H-67.3969M-55.4273 109.758L-59.4718 111.254M-43.4574 109.758L-39.7572 108.313M-43.4574 109.758L-47.2889 111.254M-43.4574 109.758H-31.4875M-51.5216 108.313H-39.7572M-51.5216 108.313L-47.7478 106.918M-51.5216 108.313H-63.2859M-39.7572 108.313H-27.9929M-39.7572 108.313L-36.1822 106.918M-70.9924 142.397H-70.8692M-60.6082 142.397L-55.1002 139.632M-60.6082 142.397L-66.39 145.299M-60.6082 142.397H-43.9932M-60.6082 142.397H-70.8692M-55.1002 139.632L-49.8468 136.996M-55.1002 139.632H-38.8788M-55.1002 139.632H-70.8692M-65.6931 136.996H-49.8468M-65.6931 136.996L-60.3191 134.478M-65.6931 136.996H-70.8692M-65.6931 136.996L-70.8692 139.42M-55.1829 132.072H-40.0375M-55.1829 132.072L-50.2688 129.77M-55.1829 132.072H-70.3283M-55.1829 132.072L-60.3191 134.478M-40.0375 132.072L-35.4508 129.77M-40.0375 132.072L-44.8313 134.478M-40.0375 132.072H-24.8918M-50.2688 129.77H-35.4508M-50.2688 129.77H-65.0866M-50.2688 129.77L-45.5627 127.566M-35.4508 129.77L-31.0586 127.566M-35.4508 129.77H-20.633M-36.7243 123.425H-22.8094M-36.7243 123.425L-32.569 121.479M-36.7243 123.425H-50.6392M-36.7243 123.425L-41.0519 125.453M-22.8094 123.425L-18.9311 121.479M-22.8094 123.425L-26.8484 125.453M-22.8094 123.425H-8.89429M-32.569 121.479H-18.9311M-32.569 121.479H-46.2068M-32.569 121.479L-28.5758 119.608M-18.9311 121.479L-15.2041 119.608M-18.9311 121.479H-5.293M-21.0398 116.078H-8.1705M-21.0398 116.078L-17.4802 114.411M-21.0398 116.078H-33.9091M-21.0398 116.078L-24.7357 117.809M-8.1705 116.078L-4.84825 114.411M-8.1705 116.078L-11.62 117.809M-8.1705 116.078H4.69879M-17.4802 114.411H-4.84825M-17.4802 114.411H-30.1122M-17.4802 114.411L-14.0495 112.804M-4.84825 114.411L-1.64617 112.804M-4.84825 114.411H7.78373M-7.54789 109.758H4.42202M-7.54789 109.758L-4.46447 108.313M-7.54789 109.758H-19.5175M-7.54789 109.758L-10.7409 111.254M4.42202 109.758L7.29977 108.313M4.42202 109.758L1.44181 111.254M4.42202 109.758H16.3919M-4.46447 108.313H7.29977M-4.46447 108.313L-1.48501 106.918M-4.46447 108.313H-16.2287M7.29977 108.313H19.0643M7.29977 108.313L10.0806 106.918M-62.3569 190.325L-54.6048 184.878M-62.3569 190.325L-70.6585 196.158M-62.3569 190.325H-38.9213M-62.3569 190.325H-70.8692M-54.6048 184.878L-47.3488 179.779M-54.6048 184.878H-31.9444M-54.6048 184.878H-70.8692M-54.7622 170.503H-34.1474M-54.7622 170.503L-48.1377 166.271M-54.7622 170.503L-61.7978 174.997M-54.7622 170.503H-70.8692M-34.1474 170.503L-28.1252 166.271M-34.1474 170.503L-40.5434 174.997M-34.1474 170.503H-13.5326M-48.1377 166.271H-28.1252M-48.1377 166.271H-68.1501M-48.1377 166.271L-41.8891 162.28M-28.1252 166.271L-22.4446 162.28M-28.1252 166.271H-8.11256M-30.3994 154.94H-11.9992M-30.3994 154.94L-25.1051 151.558M-30.3994 154.94H-48.7992M-30.3994 154.94L-35.9856 158.509M-11.9992 154.94L-7.18637 151.558M-11.9992 154.94L-17.078 158.509M-11.9992 154.94H6.40065M-25.1051 151.558H-7.18637M-25.1051 151.558H-43.0237M-25.1051 151.558L-20.0809 148.349M-7.18637 151.558L-2.6189 148.349M-7.18637 151.558H10.7321M-10.7636 142.397H5.8514M-10.7636 142.397L-6.43575 139.632M-10.7636 142.397H-27.3784M-10.7636 142.397L-15.3063 145.299M5.8514 142.397L9.78564 139.632M5.8514 142.397L1.72137 145.299M5.8514 142.397H22.4662M-6.43575 139.632H9.78564M-6.43575 139.632H-22.6571M-6.43575 139.632L-2.30824 136.996M9.78564 139.632L13.538 136.996M9.78564 139.632H26.007M5.39932 132.072H20.5447M5.39932 132.072L9.00288 129.77M5.39932 132.072H-9.74636M5.39932 132.072L1.63256 134.478M20.5447 132.072L23.8209 129.77M20.5447 132.072L17.1205 134.478M20.5447 132.072H35.6902M9.00288 129.77H23.8209M9.00288 129.77H-5.81491M9.00288 129.77L12.4539 127.566M23.8209 129.77L26.9583 127.566M23.8209 129.77H38.6387M18.9355 123.425H32.8504M18.9355 123.425L21.9827 121.479M18.9355 123.425H5.02059M18.9355 123.425L15.762 125.453M32.8504 123.425L33.203 123.178L35.6206 121.479M32.8504 123.425L29.9655 125.453M32.8504 123.425H46.7655M21.9827 121.479H35.6206M21.9827 121.479H8.34486M21.9827 121.479L24.9111 119.608M35.6206 121.479L38.2828 119.608M35.6206 121.479H49.2587M30.4374 116.078H43.3069M30.4374 116.078L33.0479 114.411M30.4374 116.078H17.5681M30.4374 116.078L27.7271 117.809M43.3069 116.078L45.6799 114.411M43.3069 116.078L42.3939 116.72L40.8428 117.809M43.3069 116.078H56.1762M33.0479 114.411H45.6799M33.0479 114.411H20.416M33.0479 114.411L35.5637 112.804M45.6799 114.411L47.967 112.804M45.6799 114.411H58.3119M40.3315 109.758H52.3014M40.3315 109.758L42.5927 108.313M40.3315 109.758H28.3618M40.3315 109.758L37.9901 111.254M52.3014 109.758L53.8499 108.67L54.104 108.491L54.3572 108.313M52.3014 109.758L50.1728 111.254M52.3014 109.758H64.2713M42.5927 108.313H54.3572M42.5927 108.313L44.7775 106.918M42.5927 108.313H30.8285M54.3572 108.313H66.1214M54.3572 108.313L56.3431 106.918M-53.8658 252.376H-21.5991M-53.8658 252.376L-43.7058 242.178M-53.8658 252.376L-65.0302 263.583M-53.8658 252.376L-70.8692 252.376M-21.5991 252.376L-12.8905 242.178M-21.5991 252.376L-31.1687 263.583M-21.5991 252.376H10.6673M-43.7058 242.178H-12.8905M-43.7058 242.178L-34.4203 232.857M-43.7058 242.178H-70.8692M-12.8905 242.178L-4.93173 232.857M-12.8905 242.178H17.9245M-18.0578 216.432H9.09345M-18.0578 216.432L-10.8122 209.159M-18.0578 216.432H-45.2088M-18.0578 216.432L-25.9015 224.305M9.09345 216.432L15.3038 209.159M9.09345 216.432L2.37028 224.305M9.09345 216.432H36.2445M-10.8122 209.159H15.3038M-10.8122 209.159H-36.9282M-10.8122 209.159L-4.09864 202.42M15.3038 209.159L21.0583 202.42M15.3038 209.159H41.4198M7.9502 190.325H31.3858M7.9502 190.325L13.3768 184.878M7.9502 190.325H-15.4857M7.9502 190.325L2.13905 196.158M31.3858 190.325L36.0373 184.878M31.3858 190.325L26.405 196.158M31.3858 190.325H54.8214M13.3768 184.878H36.0373M13.3768 184.878H-9.2839M13.3768 184.878L18.4558 179.779M36.0373 184.878L40.3907 179.779M36.0373 184.878H58.6977M27.6967 170.503H48.3115M27.6967 170.503L31.9125 166.271M27.6967 170.503H7.0822M27.6967 170.503L23.2196 174.997M48.3115 170.503L51.9249 166.271M48.3115 170.503L44.4739 174.997M48.3115 170.503H68.9263M31.9125 166.271H51.9249M31.9125 166.271H11.8999M31.9125 166.271L35.8888 162.28M51.9249 166.271L55.3332 162.28M51.9249 166.271H71.9374M43.2004 154.94H61.6005M43.2004 154.94L46.5694 151.558M43.2004 154.94H24.8005M43.2004 154.94L39.6454 158.509M61.6005 154.94L64.4881 151.558M61.6005 154.94L58.5533 158.509M61.6005 154.94H80.0004M46.5694 151.558H64.4881M46.5694 151.558H28.6508M46.5694 151.558L49.7667 148.349M64.4881 151.558L67.2285 148.349M64.4881 151.558H82.4068M55.696 142.397H72.3108M55.696 142.397L58.45 139.632M55.696 142.397H39.081M55.696 142.397L52.8051 145.299M72.3108 142.397L74.6714 139.632M72.3108 142.397L69.8328 145.299M72.3108 142.397H88.9256M58.45 139.632H74.6714M58.45 139.632H42.2284M58.45 139.632L61.0766 136.996M74.6714 139.632L76.9228 136.996M74.6714 139.632H90.8928M65.9813 132.072H81.127M65.9813 132.072L68.2746 129.77M65.9813 132.072H50.8358M65.9813 132.072L63.5845 134.478M81.127 132.072L83.0924 129.77M81.127 132.072L79.0724 134.478M81.127 132.072H96.2724M68.2746 129.77H83.0924M68.2746 129.77H53.4565M68.2746 129.77L70.4708 127.566M83.0924 129.77L84.9749 127.566M83.0924 129.77H97.9105M74.5953 123.425H88.5104M74.5953 123.425L76.5344 121.479M74.5953 123.425H60.6804M74.5953 123.425L72.5757 125.453M88.5104 123.425L88.2977 123.674L86.7792 125.453M88.5104 123.425L90.1723 121.479M88.5104 123.425H102.425M76.5344 121.479H90.1723M76.5344 121.479H62.8966M76.5344 121.479L78.398 119.608M90.1723 121.479L91.7697 119.608M90.1723 121.479H103.81M81.9148 116.078H94.784M81.9148 116.078L83.5759 114.411M81.9148 116.078H69.0455M81.9148 116.078L80.1901 117.809M94.784 116.078L96.2079 114.411M94.784 116.078L94.2363 116.72L93.8667 117.153L93.3058 117.809M94.784 116.078H107.653M83.5759 114.411H96.2079M83.5759 114.411H70.9439M83.5759 114.411L85.1768 112.804M96.2079 114.411L96.7285 113.801L97.0716 113.399L97.5803 112.804M96.2079 114.411H108.84M88.2111 109.758H100.181M88.2111 109.758L89.295 108.67L89.6499 108.313M88.2111 109.758H76.2412M88.2111 109.758L86.91 111.064L86.721 111.254M100.181 109.758L101.11 108.67L101.262 108.491L101.414 108.313M100.181 109.758L99.5478 110.499L98.9037 111.254M100.181 109.758H112.151M89.6499 108.313H101.414M89.6499 108.313L91.0403 106.918M89.6499 108.313H77.8857M101.414 108.313H113.179M101.414 108.313L102.606 106.918M75.2004 252.376H107.467M75.2004 252.376L79.5546 242.178M75.2004 252.376H42.934M75.2004 252.376L70.4157 263.583M107.467 252.376L110.37 242.178M107.467 252.376L104.277 263.583M107.467 252.376H139.734M79.5546 242.178H110.37M79.5546 242.178H48.7396M79.5546 242.178L83.5341 232.857M110.37 242.178L113.023 232.857M110.37 242.178H141.185M90.5467 216.432H117.698M90.5467 216.432L93.6519 209.159M90.5467 216.432H63.3955M90.5467 216.432L87.185 224.305M117.698 216.432L119.768 209.159M117.698 216.432L115.457 224.305M117.698 216.432H144.849M93.6519 209.159H119.768M93.6519 209.159H67.5359M93.6519 209.159L96.5292 202.42M119.768 209.159L121.686 202.42M119.768 209.159H145.884M101.693 190.325H125.129M101.693 190.325L104.019 184.878M101.693 190.325H78.2573M101.693 190.325L99.2025 196.158M125.129 190.325L126.679 184.878M125.129 190.325L123.468 196.158M125.129 190.325H148.564M104.019 184.878H126.679M104.019 184.878H81.3582M104.019 184.878L106.195 179.779M126.679 184.878L128.13 179.779M126.679 184.878H149.34M110.156 170.503H130.77M110.156 170.503L111.962 166.271M110.156 170.503H89.5411M110.156 170.503L108.237 174.997M130.77 170.503L131.975 166.271M130.77 170.503L129.491 174.997M130.77 170.503H151.385M111.962 166.271H131.975M111.962 166.271H91.9501M111.962 166.271L113.667 162.28M131.975 166.271L133.111 162.28M131.975 166.271H151.988M116.8 154.94H135.2M116.8 154.94L118.244 151.558M116.8 154.94H98.4003M116.8 154.94L115.277 158.509M135.2 154.94L136.163 151.558M135.2 154.94L134.185 158.509M135.2 154.94H153.6M118.244 151.558H136.163M118.244 151.558H100.326M118.244 151.558L119.614 148.349M136.163 151.558L137.076 148.349M136.163 151.558H154.081M122.155 142.397H138.77M122.155 142.397L123.336 139.632M122.155 142.397H105.541M122.155 142.397L120.917 145.299M138.77 142.397L139.557 139.632M138.77 142.397L137.944 145.299M138.77 142.397H155.385M123.336 139.632H139.557M123.336 139.632H107.114M123.336 139.632L123.764 138.629L124.461 136.996M139.557 139.632L140.308 136.996M139.557 139.632H155.779M126.563 132.072H141.709M126.563 132.072L127.546 129.77M126.563 132.072H111.418M126.563 132.072L125.797 133.867L125.536 134.478M141.709 132.072L141.958 131.197L142.364 129.77M141.709 132.072L141.024 134.478M141.709 132.072H156.855M127.546 129.77L127.666 129.49L128.487 127.566M127.546 129.77H142.364M127.546 129.77H112.728M142.364 129.77L142.603 128.933L142.681 128.656L142.76 128.382L142.992 127.566M142.364 129.77H157.182M130.255 123.425H144.17M130.255 123.425L130.675 122.442L130.779 122.2L130.881 121.958L130.984 121.718L131.086 121.479M130.255 123.425H116.34M130.255 123.425L129.39 125.453M144.17 123.425L144.588 121.958L144.656 121.718L144.724 121.479M144.17 123.425L143.593 125.453M144.17 123.425H158.085M131.086 121.479H144.724M131.086 121.479H117.448M131.086 121.479L131.589 120.301L131.688 120.069L131.885 119.608M144.724 121.479L145.059 120.301L145.126 120.069L145.191 119.838L145.257 119.608M144.724 121.479H158.362M133.392 116.078H146.261M133.392 116.078L134.104 114.411M133.392 116.078H120.523M133.392 116.078L133.21 116.505L132.933 117.153L132.653 117.809M146.261 116.078L146.201 116.291L145.831 117.589L145.769 117.809M146.261 116.078L146.736 114.411M146.261 116.078H159.131M134.104 114.411H146.736M134.104 114.411H121.472M134.104 114.411L134.79 112.804M146.736 114.411L146.91 113.801L146.967 113.6L147.024 113.399L147.193 112.804M146.736 114.411H159.368M136.091 109.758H148.06M136.091 109.758L136.555 108.67L136.707 108.313M136.091 109.758H124.121M136.091 109.758L135.853 110.313L135.774 110.499L135.694 110.687L135.452 111.254M148.06 109.758L148.113 109.575L148.216 109.21L148.319 108.849L148.471 108.313M148.06 109.758L147.849 110.499L147.796 110.687L147.689 111.064L147.635 111.254M148.06 109.758H160.03M136.707 108.313H148.471M136.707 108.313L137.229 107.09L137.303 106.918M136.707 108.313H124.943M148.471 108.313L148.522 108.136L148.572 107.96L148.622 107.784L148.672 107.61L148.82 107.09L148.869 106.918M148.471 108.313H160.236M204.266 252.376H236.533M204.266 252.376L202.815 242.178M204.266 252.376H172M204.266 252.376L205.862 263.583M236.533 252.376L233.63 242.178M236.533 252.376L239.723 263.583M236.533 252.376H268.8M202.815 242.178H233.63M202.815 242.178H172M202.815 242.178L201.489 232.857M233.63 242.178L230.977 232.857M233.63 242.178H264.445M199.151 216.432H226.302M199.151 216.432L198.116 209.159M199.151 216.432H172M199.151 216.432L200.272 224.305M226.302 216.432L224.232 209.159M226.302 216.432L228.543 224.305M226.302 216.432H253.453M198.116 209.159H224.232M198.116 209.159H172M198.116 209.159L197.157 202.42M224.232 209.159L222.314 202.42M224.232 209.159H250.348M195.436 190.325H218.871M195.436 190.325L194.66 184.878M195.436 190.325H172M195.436 190.325L196.266 196.158M218.871 190.325L217.321 184.878M218.871 190.325L220.532 196.158M218.871 190.325H242.307M194.66 184.878H217.321M194.66 184.878H172M194.66 184.878L193.935 179.779M217.321 184.878L215.87 179.779M217.321 184.878H239.981M192.615 170.503H213.23M192.615 170.503L192.012 166.271M192.615 170.503H172M192.615 170.503L193.254 174.997M213.23 170.503L212.025 166.271M213.23 170.503L214.509 174.997M213.23 170.503H233.844M192.012 166.271H212.025M192.012 166.271H172M192.012 166.271L191.444 162.28M212.025 166.271L210.889 162.28M212.025 166.271H232.038M190.4 154.94H208.8M190.4 154.94L189.919 151.558M190.4 154.94H172M190.4 154.94L190.908 158.509M208.8 154.94L207.837 151.558M208.8 154.94L209.815 158.509M208.8 154.94H227.2M189.919 151.558H207.837M189.919 151.558H172M189.919 151.558L189.462 148.349M207.837 151.558L206.924 148.349M207.837 151.558H225.756M188.615 142.397H205.23M188.615 142.397L188.221 139.632M188.615 142.397H172M188.615 142.397L189.028 145.299M205.23 142.397L204.443 139.632M205.23 142.397L206.056 145.299M205.23 142.397H221.845M188.221 139.632H204.443M188.221 139.632H172M188.221 139.632L187.846 136.996M204.443 139.632L203.692 136.996M204.443 139.632H220.664M187.145 132.072H202.291M187.145 132.072L186.818 129.77M187.145 132.072H172M187.145 132.072L187.488 134.478M202.291 132.072L201.716 130.053L201.636 129.77M202.291 132.072L202.976 134.478M202.291 132.072H217.437M186.818 129.77L186.778 129.49L186.504 127.566M186.818 129.77H201.636M186.818 129.77H172M201.636 129.77L201.397 128.933L201.319 128.656L201.24 128.382L201.008 127.566M201.636 129.77H216.454M185.915 123.425H199.83M185.915 123.425L185.638 121.479M185.915 123.425H172M185.915 123.425L186.022 124.176L186.058 124.429L186.094 124.683L186.167 125.195L186.204 125.453M199.83 123.425L199.412 121.958L199.276 121.479M199.83 123.425L200.407 125.453M199.83 123.425H213.745M185.638 121.479H199.276M185.638 121.479H172M185.638 121.479L185.372 119.608M199.276 121.479L198.941 120.301L198.874 120.069L198.809 119.838L198.743 119.608M199.276 121.479H212.914M184.869 116.078H197.739M184.869 116.078L184.632 114.411M184.869 116.078H172M184.869 116.078L185.116 117.809M197.739 116.078L197.799 116.291L198.169 117.589L198.231 117.809M197.739 116.078L197.264 114.411M197.739 116.078H210.608M184.632 114.411H197.264M184.632 114.411H172M184.632 114.411L184.403 112.804M197.264 114.411L197.09 113.801L197.033 113.6L196.976 113.399L196.807 112.804M197.264 114.411H209.896M183.97 109.758H195.94M183.97 109.758L183.764 108.313M183.97 109.758H172M183.97 109.758L184.183 111.254M195.94 109.758L195.887 109.575L195.784 109.21L195.732 109.029L195.63 108.67L195.579 108.491L195.528 108.313M195.94 109.758L196.151 110.499L196.204 110.687L196.311 111.064L196.365 111.254M195.94 109.758H207.909M183.764 108.313L183.739 108.136L183.714 107.96L183.689 107.784L183.566 106.918M183.764 108.313H195.528M183.764 108.313H172M195.528 108.313H207.293M195.528 108.313L195.428 107.96L195.378 107.784L195.328 107.61L195.18 107.09L195.131 106.918M333.333 252.376H365.599M333.333 252.376L326.075 242.178M333.333 252.376H301.066M333.333 252.376L341.307 263.583M365.599 252.376L356.89 242.178M365.599 252.376L375.169 263.583M365.599 252.376H397.866M326.075 242.178H356.89M326.075 242.178H295.26M326.075 242.178L319.443 232.857M356.89 242.178L348.932 232.857M356.89 242.178H387.706M307.756 216.432H334.907M307.756 216.432L302.58 209.159M307.756 216.432H280.605M307.756 216.432L313.358 224.305M334.907 216.432L328.696 209.159M334.907 216.432L341.63 224.305M334.907 216.432H362.058M302.58 209.159H328.696M302.58 209.159H276.464M302.58 209.159L297.785 202.42M328.696 209.159L322.942 202.42M328.696 209.159H354.812M289.179 190.325H312.614M289.179 190.325L285.302 184.878M289.179 190.325H265.743M289.179 190.325L293.329 196.158M312.614 190.325L307.963 184.878M312.614 190.325L317.595 196.158M312.614 190.325H336.05M285.302 184.878H307.963M285.302 184.878H262.642M285.302 184.878L281.674 179.779M307.963 184.878L303.609 179.779M307.963 184.878H330.623M275.074 170.503H295.688M275.074 170.503L272.063 166.271M275.074 170.503H254.459M275.074 170.503L278.272 174.997M295.688 170.503L292.075 166.271M295.688 170.503L299.526 174.997M295.688 170.503H316.303M272.063 166.271H292.075M272.063 166.271H252.05M272.063 166.271L269.222 162.28M292.075 166.271L288.667 162.28M292.075 166.271H312.087M264 154.94H282.399M264 154.94L261.593 151.558M264 154.94H245.6M264 154.94L266.539 158.509M282.399 154.94L279.512 151.558M282.399 154.94L285.447 158.509M282.399 154.94H300.8M261.593 151.558H279.512M261.593 151.558H243.674M261.593 151.558L259.309 148.349M279.512 151.558L276.771 148.349M279.512 151.558H297.431M255.074 142.397H271.689M255.074 142.397L253.107 139.632M255.074 142.397H238.459M255.074 142.397L257.139 145.299M271.689 142.397L269.329 139.632M271.689 142.397L274.167 145.299M271.689 142.397H288.304M253.107 139.632H269.329M253.107 139.632H236.886M253.107 139.632L251.231 136.996M269.329 139.632L267.077 136.996M269.329 139.632H285.55M247.728 132.072L247.937 132.367L248.149 132.664L249.44 134.478M247.728 132.072H262.873M247.728 132.072L246.09 129.77M247.728 132.072H232.582M262.873 132.072L260.908 129.77M262.873 132.072L264.928 134.478M262.873 132.072H278.019M246.09 129.77H260.908M246.09 129.77H231.272M246.09 129.77L244.521 127.566M260.908 129.77L259.025 127.566M260.908 129.77H275.725M241.575 123.425H255.49M241.575 123.425L240.19 121.479M241.575 123.425H227.66M241.575 123.425L243.017 125.453M255.49 123.425L254.443 122.2L253.828 121.479M255.49 123.425L257.221 125.453M255.49 123.425H269.405M240.19 121.479H253.828M240.19 121.479H226.552M240.19 121.479L239.022 119.838L238.859 119.608M253.828 121.479L252.23 119.608M253.828 121.479H267.466M236.347 116.078H249.216M236.347 116.078L236.046 115.655L235.16 114.411M236.347 116.078H223.477M236.347 116.078L236.65 116.505L237.266 117.37L237.578 117.809M249.216 116.078L247.792 114.411M249.216 116.078L249.764 116.72L250.133 117.153L250.694 117.809M249.216 116.078H262.085M235.16 114.411H247.792M235.16 114.411H222.528M235.16 114.411L234.298 113.2L234.016 112.804M247.792 114.411L247.271 113.801L246.928 113.399L246.42 112.804M247.792 114.411H260.424M231.849 109.758H243.819M231.849 109.758L231.203 108.849L230.821 108.313M231.849 109.758H219.879M231.849 109.758L232.914 111.254M243.819 109.758L242.89 108.67L242.738 108.491L242.586 108.313M243.819 109.758L244.452 110.499L245.096 111.254M243.819 109.758H255.789M230.821 108.313H242.586M230.821 108.313L230.321 107.61L230.074 107.262L229.951 107.09L229.828 106.918M230.821 108.313H219.057M242.586 108.313H254.35M242.586 108.313L241.394 106.918M407.044 209.159H380.928M407.044 209.159L398.413 202.42M407.044 209.159H414.869M407.044 209.159L414.869 215.268M382.921 190.325H406.357M382.921 190.325L375.944 184.878M382.921 190.325H359.486M382.921 190.325L390.393 196.158M406.357 190.325L398.605 184.878M406.357 190.325L414.658 196.158M406.357 190.325H414.869M375.944 184.878H398.605M375.944 184.878H353.284M375.944 184.878L369.414 179.779M398.605 184.878L391.349 179.779M398.605 184.878H414.869M357.533 170.503H378.147M357.533 170.503L352.113 166.271M357.533 170.503H336.918M357.533 170.503L363.289 174.997M378.147 170.503L372.125 166.271M378.147 170.503L384.543 174.997M378.147 170.503H398.762M352.113 166.271H372.125M352.113 166.271H332.1M352.113 166.271L347 162.28M372.125 166.271L366.445 162.28M372.125 166.271H392.138M337.599 154.94H355.999M337.599 154.94L333.268 151.558M337.599 154.94H319.199M337.599 154.94L342.17 158.509M355.999 154.94L351.186 151.558M355.999 154.94L361.078 158.509M355.999 154.94H374.399M333.268 151.558H351.186M333.268 151.558H315.349M333.268 151.558L329.157 148.349M351.186 151.558L346.619 148.349M351.186 151.558H369.105M321.534 142.397H338.149M321.534 142.397L317.993 139.632M321.534 142.397H304.919M321.534 142.397L325.251 145.299M338.149 142.397L334.214 139.632M338.149 142.397L342.279 145.299M338.149 142.397H354.763M317.993 139.632H334.214M317.993 139.632H301.772M317.993 139.632L314.616 136.996M334.214 139.632L330.462 136.996M334.214 139.632H350.436M308.31 132.072H323.455M308.31 132.072L305.361 129.77M308.31 132.072H293.164M308.31 132.072L311.391 134.478M323.455 132.072L320.179 129.77M323.455 132.072L326.879 134.478M323.455 132.072H338.601M305.361 129.77H320.179M305.361 129.77H290.543M305.361 129.77L302.538 127.566M320.179 129.77L317.042 127.566M320.179 129.77H334.997M297.234 123.425H311.149M297.234 123.425L294.741 121.479M297.234 123.425H283.32M297.234 123.425L299.831 125.453M311.149 123.425L308.379 121.479M311.149 123.425L314.035 125.453M311.149 123.425H325.065M294.741 121.479H308.379M294.741 121.479H281.103M294.741 121.479L292.345 119.608M308.379 121.479L305.717 119.608M308.379 121.479H322.017M287.824 116.078H300.693M287.824 116.078L285.688 114.411M287.824 116.078H274.955M287.824 116.078L288.371 116.505L288.646 116.72L290.042 117.809M300.693 116.078L298.32 114.411M300.693 116.078L303.157 117.809M300.693 116.078H313.562M285.688 114.411H298.32M285.688 114.411H273.056M285.688 114.411L283.63 112.804M298.32 114.411L296.033 112.804M298.32 114.411H310.952M279.729 109.758H291.699M279.729 109.758L277.879 108.313M279.729 109.758H267.759M279.729 109.758L281.645 111.254M291.699 109.758L290.15 108.67L289.896 108.491L289.643 108.313M291.699 109.758L293.827 111.254M291.699 109.758H303.668M277.879 108.313H289.643M277.879 108.313L276.311 107.09L276.091 106.918M277.879 108.313H266.114M289.643 108.313H301.407M289.643 108.313L287.657 106.918M411.199 154.94L404.942 151.558M411.199 154.94H392.799M411.199 154.94L414.869 156.924M411.199 154.94H414.869M404.942 151.558H387.024M404.942 151.558L399.005 148.349M404.942 151.558H414.869M387.993 142.397H404.608M387.993 142.397L382.879 139.632M387.993 142.397H371.378M387.993 142.397L393.362 145.299M404.608 142.397L399.1 139.632M404.608 142.397L410.39 145.299M404.608 142.397H414.869M382.879 139.632H399.1M382.879 139.632H366.657M382.879 139.632L378.001 136.996M399.1 139.632L393.847 136.996M399.1 139.632H414.869M368.892 132.072H384.037M368.892 132.072L364.633 129.77M368.892 132.072H353.746M368.892 132.072L373.343 134.478M384.037 132.072L379.451 129.77M384.037 132.072L388.831 134.478M384.037 132.072H399.183M364.633 129.77H379.451M364.633 129.77H349.815M364.633 129.77L360.554 127.566M379.451 129.77L375.059 127.566M379.451 129.77H394.269M352.894 123.425H366.809M352.894 123.425L349.293 121.479M352.894 123.425H338.979M352.894 123.425L356.645 125.453M366.809 123.425L362.931 121.479M366.809 123.425L370.848 125.453M366.809 123.425H380.724M349.293 121.479H362.931M349.293 121.479H335.655M349.293 121.479L345.832 119.608M362.931 121.479L359.204 119.608M362.931 121.479H376.569M339.301 116.078H352.17M339.301 116.078L336.216 114.411M339.301 116.078H326.432M339.301 116.078L342.504 117.809M352.17 116.078L348.848 114.411M352.17 116.078L355.62 117.809M352.17 116.078H365.04M336.216 114.411H348.848M336.216 114.411H323.584M336.216 114.411L333.243 112.804M348.848 114.411L345.646 112.804M348.848 114.411H361.48M327.608 109.758H339.578M327.608 109.758L324.936 108.313M327.608 109.758H315.638M327.608 109.758L330.375 111.254M339.578 109.758L336.7 108.313M339.578 109.758L342.558 111.254M339.578 109.758H351.548M324.936 108.313H336.7M324.936 108.313L322.354 106.918M324.936 108.313H313.172M336.7 108.313H348.464M336.7 108.313L333.919 106.918M408.554 123.425L403.845 121.479M408.554 123.425H394.639M408.554 123.425L413.459 125.453M408.554 123.425H414.869M403.845 121.479H390.207M403.845 121.479L399.319 119.608M403.845 121.479H414.869M390.778 116.078H403.648M390.778 116.078L386.744 114.411M390.778 116.078H377.909M390.778 116.078L394.967 117.809M403.648 116.078L399.376 114.411M403.648 116.078L408.083 117.809M403.648 116.078H414.869M386.744 114.411H399.376M386.744 114.411H374.112M386.744 114.411L382.856 112.804M399.376 114.411L395.259 112.804M399.376 114.411H412.008M375.487 109.758H387.457M375.487 109.758L371.993 108.313M375.487 109.758H363.518M375.487 109.758L379.106 111.254M387.457 109.758L383.757 108.313M387.457 109.758L391.289 111.254M387.457 109.758H399.427M371.993 108.313H383.757M371.993 108.313L368.617 106.918M371.993 108.313H360.229M383.757 108.313H395.522M383.757 108.313L380.182 106.918M391.289 111.254L395.259 112.804M391.289 111.254H403.472M391.289 111.254H379.106M399.427 109.758L395.522 108.313M399.427 109.758L403.472 111.254M399.427 109.758H411.397M395.522 108.313H407.286M395.522 108.313L391.748 106.918M380.182 106.918H368.617M380.182 106.918H391.748M380.182 106.918L376.726 105.569M403.472 111.254L407.663 112.804M403.472 111.254H414.869M411.397 109.758L407.286 108.313M411.397 109.758L414.869 110.978M411.397 109.758H414.869M407.286 108.313L403.313 106.918M407.286 108.313H414.869M391.748 106.918H403.313M391.748 106.918L388.099 105.569M403.313 106.918L399.473 105.569M403.313 106.918H414.869M395.259 112.804H407.663M395.259 112.804H382.856M412.008 114.411L407.663 112.804M412.008 114.411L414.869 115.469M412.008 114.411H414.869M407.663 112.804H414.869M382.856 112.804H370.453M382.856 112.804L379.106 111.254M379.106 111.254H366.924M408.083 117.809L412.691 119.608M408.083 117.809H394.967M408.083 117.809H414.869M414.908 116.078H414.869M412.691 119.608H399.319M412.691 119.608L414.869 120.459M412.691 119.608H414.869M399.319 119.608H385.948M399.319 119.608L394.967 117.809M394.967 117.809H381.851M342.558 111.254L345.646 112.804M342.558 111.254H354.741M342.558 111.254H330.375M351.548 109.758L348.464 108.313M351.548 109.758L354.741 111.254M351.548 109.758H363.518M348.464 108.313H360.229M348.464 108.313L345.485 106.918M333.919 106.918H345.485M333.919 106.918L331.231 105.569M333.919 106.918H322.354M354.741 111.254L358.049 112.804M354.741 111.254H366.924M363.518 109.758L360.229 108.313M363.518 109.758L366.924 111.254M360.229 108.313L357.051 106.918M345.485 106.918H357.051M345.485 106.918L342.605 105.569M366.924 111.254L370.453 112.804M368.617 106.918H357.051M368.617 106.918L365.352 105.569M357.051 106.918L353.978 105.569M345.646 112.804H358.049M345.646 112.804H333.243M361.48 114.411L358.049 112.804M361.48 114.411L365.04 116.078M361.48 114.411H374.112M358.049 112.804H370.453M333.243 112.804H320.84M333.243 112.804L330.375 111.254M370.453 112.804L374.112 114.411M330.375 111.254H318.193M365.04 116.078L368.736 117.809M365.04 116.078H377.909M374.112 114.411L377.909 116.078M377.909 116.078L381.851 117.809M355.62 117.809L359.204 119.608M355.62 117.809H368.736M355.62 117.809H342.504M368.736 117.809L372.576 119.608M368.736 117.809H381.851M381.851 117.809L385.948 119.608M359.204 119.608H372.576M359.204 119.608H345.832M376.569 121.479L372.576 119.608M376.569 121.479L380.724 123.425M376.569 121.479H390.207M372.576 119.608H385.948M345.832 119.608H332.461M345.832 119.608L342.504 117.809M385.948 119.608L390.207 121.479M342.504 117.809H329.389M380.724 123.425L385.052 125.453M380.724 123.425H394.639M390.207 121.479L394.639 123.425M394.639 123.425L399.255 125.453M370.848 125.453L375.059 127.566M370.848 125.453H385.052M370.848 125.453H356.645M385.052 125.453L389.563 127.566M385.052 125.453H399.255M399.255 125.453L404.067 127.566M399.255 125.453H413.459M413.459 125.453H414.869M413.459 125.453L414.869 126.036M375.059 127.566H389.563M375.059 127.566H360.554M394.269 129.77L389.563 127.566M394.269 129.77L399.183 132.072M394.269 129.77H409.087M389.563 127.566H404.067M360.554 127.566H346.05M360.554 127.566L356.645 125.453M404.067 127.566L409.087 129.77M404.067 127.566H414.869M356.645 125.453H342.442M399.183 132.072L404.319 134.478M399.183 132.072H414.328M409.087 129.77L414.328 132.072M409.087 129.77H414.869M414.945 127.566H414.869M414.328 132.072L414.869 132.31M414.328 132.072H414.869M388.831 134.478L393.847 136.996M388.831 134.478H404.319M388.831 134.478H373.343M404.319 134.478L409.693 136.996M404.319 134.478H414.869M415 132.367L414.869 132.31M393.847 136.996H409.693M393.847 136.996H378.001M409.693 136.996H414.869M409.693 136.996L414.869 139.42M378.001 136.996H362.154M378.001 136.996L373.343 134.478M373.343 134.478H357.855M410.39 145.299H393.362M410.39 145.299L414.869 147.547M410.39 145.299H414.869M414.992 142.397H414.869M393.362 145.299H376.334M393.362 145.299L399.005 148.349M414.919 147.572L414.869 147.547M293.827 111.254L296.033 112.804M293.827 111.254H306.01M293.827 111.254H281.645M303.668 109.758L301.407 108.313M303.668 109.758L306.01 111.254M303.668 109.758H315.638M301.407 108.313H313.172M301.407 108.313L299.222 106.918M287.657 106.918H299.222M287.657 106.918L286.929 106.407L285.736 105.569M287.657 106.918H276.091M306.01 111.254L308.436 112.804M306.01 111.254H318.193M315.638 109.758L313.172 108.313M315.638 109.758L318.193 111.254M313.172 108.313L310.788 106.918M299.222 106.918H310.788M299.222 106.918L297.11 105.569M318.193 111.254L320.84 112.804M322.354 106.918L319.857 105.569M322.354 106.918H310.788M310.788 106.918L310.496 106.747L309.915 106.407L308.484 105.569M296.033 112.804H308.436M296.033 112.804H283.63M310.952 114.411L308.436 112.804M310.952 114.411L313.562 116.078M310.952 114.411H323.584M308.436 112.804H320.84M283.63 112.804H271.226M283.63 112.804L281.645 111.254M320.84 112.804L323.584 114.411M281.645 111.254H269.462M313.562 116.078L316.273 117.809M313.562 116.078H326.432M323.584 114.411L323.934 114.616L326.432 116.078M326.432 116.078L329.389 117.809M303.157 117.809L303.472 118.031L305.717 119.608M303.157 117.809H316.273M303.157 117.809H290.042M316.273 117.809L319.089 119.608M316.273 117.809H329.389M329.389 117.809L332.461 119.608M305.717 119.608H319.089M305.717 119.608H292.345M322.017 121.479L319.089 119.608M322.017 121.479L325.065 123.425M322.017 121.479H335.655M319.089 119.608H332.461M292.345 119.608H278.974M292.345 119.608L290.042 117.809M332.461 119.608L335.655 121.479M290.042 117.809H276.926M325.065 123.425L328.238 125.453M325.065 123.425H338.979M335.655 121.479L338.979 123.425M338.979 123.425L342.442 125.453M314.035 125.453L317.042 127.566M314.035 125.453H328.238M314.035 125.453H299.831M328.238 125.453L331.546 127.566M328.238 125.453H342.442M342.442 125.453L346.05 127.566M317.042 127.566H331.546M317.042 127.566H302.538M334.997 129.77L331.546 127.566M334.997 129.77L338.601 132.072M334.997 129.77H349.815M331.546 127.566H346.05M302.538 127.566H288.034M302.538 127.566L299.831 125.453M346.05 127.566L349.815 129.77M299.831 125.453H285.628M338.601 132.072L342.367 134.478M338.601 132.072H353.746M349.815 129.77L353.746 132.072M353.746 132.072L357.855 134.478M326.879 134.478L330.462 136.996M326.879 134.478H342.367M326.879 134.478H311.391M342.367 134.478L346.308 136.996M342.367 134.478H357.855M357.855 134.478L362.154 136.996M330.462 136.996H346.308M330.462 136.996H314.616M350.436 139.632L346.308 136.996M350.436 139.632L354.763 142.397M350.436 139.632H366.657M346.308 136.996H362.154M314.616 136.996H298.77M314.616 136.996L311.391 134.478M362.154 136.996L366.657 139.632M311.391 134.478H295.904M354.763 142.397L359.306 145.299M354.763 142.397H371.378M366.657 139.632L371.378 142.397M371.378 142.397L376.334 145.299M342.279 145.299L346.619 148.349M342.279 145.299H359.306M342.279 145.299H325.251M359.306 145.299L364.081 148.349M359.306 145.299H376.334M376.334 145.299L381.543 148.349M346.619 148.349H364.081M346.619 148.349H329.157M369.105 151.558L364.081 148.349M369.105 151.558L374.399 154.94M369.105 151.558H387.024M364.081 148.349H381.543M329.157 148.349H311.695M329.157 148.349L325.251 145.299M381.543 148.349L387.024 151.558M381.543 148.349H399.005M325.251 145.299H308.223M374.399 154.94L379.986 158.509M374.399 154.94H392.799M387.024 151.558L392.799 154.94M399.005 148.349H414.869M392.799 154.94L398.893 158.509M361.078 158.509L366.445 162.28M361.078 158.509H379.986M361.078 158.509H342.17M379.986 158.509L385.889 162.28M379.986 158.509H398.893M398.893 158.509L405.334 162.28M398.893 158.509H414.869M366.445 162.28H385.889M366.445 162.28H347M392.138 166.271L385.889 162.28M392.138 166.271L398.762 170.503M392.138 166.271H412.15M385.889 162.28H405.334M347 162.28H327.556M347 162.28L342.17 158.509M405.334 162.28L412.15 166.271M405.334 162.28H414.869M342.17 158.509H323.262M398.762 170.503L405.798 174.997M398.762 170.503H414.869M412.15 166.271H414.869M412.15 166.271L414.869 167.863M384.543 174.997L391.349 179.779M384.543 174.997H405.798M384.543 174.997H363.289M405.798 174.997L413.284 179.779M405.798 174.997H414.869M391.349 179.779H413.284M391.349 179.779H369.414M413.284 179.779L414.869 180.792M413.284 179.779H414.869M369.414 179.779H347.479M369.414 179.779L363.289 174.997M363.289 174.997H342.035M414.658 196.158H390.393M414.658 196.158H414.869M414.658 196.158L414.869 196.306M390.393 196.158H366.127M390.393 196.158L398.413 202.42M245.096 111.254L245.587 111.828L245.752 112.022L246.42 112.804M245.096 111.254H257.279M245.096 111.254H232.914M255.789 109.758L254.705 108.67L254.35 108.313M255.789 109.758L257.09 111.064L257.279 111.254M255.789 109.758H267.759M254.35 108.313H266.114M254.35 108.313L252.96 106.918M241.394 106.918H252.96M241.394 106.918L240.957 106.407L240.242 105.569M241.394 106.918H229.828M257.279 111.254L257.66 111.636L258.823 112.804M257.279 111.254H269.462M267.759 109.758L266.114 108.313M267.759 109.758L269.462 111.254M266.114 108.313L264.917 107.262L264.525 106.918M252.96 106.918H264.525M252.96 106.918L251.616 105.569M269.462 111.254L271.226 112.804M276.091 106.918L275.872 106.747L274.363 105.569M276.091 106.918H264.525M264.525 106.918L263.943 106.407L262.989 105.569M246.42 112.804H258.823M246.42 112.804H234.016M260.424 114.411L258.823 112.804M260.424 114.411L262.085 116.078M260.424 114.411H273.056M258.823 112.804H271.226M234.016 112.804H221.613M234.016 112.804L232.914 111.254M271.226 112.804L273.056 114.411M232.914 111.254H220.731M262.085 116.078L263.155 117.153L263.373 117.37L263.81 117.809M262.085 116.078H274.955M273.056 114.411L274.955 116.078M274.955 116.078L276.926 117.809M250.694 117.809L252.23 119.608M250.694 117.809H263.81M250.694 117.809H237.578M263.81 117.809L265.602 119.608M263.81 117.809H276.926M276.926 117.809L278.974 119.608M252.23 119.608H265.602M252.23 119.608H238.859M267.466 121.479L266.292 120.301L266.061 120.069L265.602 119.608M267.466 121.479L269.405 123.425M267.466 121.479H281.103M265.602 119.608H278.974M238.859 119.608H225.487M238.859 119.608L237.578 117.809M278.974 119.608L281.103 121.479M237.578 117.809H224.463M269.405 123.425L271.424 125.453M269.405 123.425H283.32M281.103 121.479L283.32 123.425M283.32 123.425L285.628 125.453M257.221 125.453L258.114 126.498L258.339 126.763L259.025 127.566M257.221 125.453H271.424M257.221 125.453H243.017M271.424 125.453L273.529 127.566M271.424 125.453H285.628M285.628 125.453L288.034 127.566M259.025 127.566H273.529M259.025 127.566H244.521M275.725 129.77L273.529 127.566M275.725 129.77L278.019 132.072M275.725 129.77H290.543M273.529 127.566H288.034M244.521 127.566H230.017M244.521 127.566L244.139 127.029L243.017 125.453M288.034 127.566L290.543 129.77M243.017 125.453H228.814M278.019 132.072L280.416 134.478M278.019 132.072H293.164M290.543 129.77L293.164 132.072M293.164 132.072L295.904 134.478M264.928 134.478L267.077 136.996M264.928 134.478H280.416M264.928 134.478H249.44M280.416 134.478L282.923 136.996M280.416 134.478H295.904M295.904 134.478L298.77 136.996M267.077 136.996H282.923M267.077 136.996H251.231M285.55 139.632L282.923 136.996M285.55 139.632L288.304 142.397M285.55 139.632H301.772M282.923 136.996H298.77M251.231 136.996H235.385M251.231 136.996L249.44 134.478M298.77 136.996L301.772 139.632M249.44 134.478H233.952M288.304 142.397L291.195 145.299M288.304 142.397H304.919M301.772 139.632L304.919 142.397M304.919 142.397L308.223 145.299M274.167 145.299L276.771 148.349M274.167 145.299H291.195M274.167 145.299H257.139M291.195 145.299L294.233 148.349M291.195 145.299H308.223M308.223 145.299L311.695 148.349M276.771 148.349H294.233M276.771 148.349H259.309M297.431 151.558L294.233 148.349M297.431 151.558L300.8 154.94M297.431 151.558H315.349M294.233 148.349H311.695M259.309 148.349H241.848M259.309 148.349L257.139 145.299M311.695 148.349L315.349 151.558M257.139 145.299H240.111M300.8 154.94L304.355 158.509M300.8 154.94H319.199M315.349 151.558L319.199 154.94M319.199 154.94L323.262 158.509M285.447 158.509L288.667 162.28M285.447 158.509H304.355M285.447 158.509H266.539M304.355 158.509L308.111 162.28M304.355 158.509H323.262M323.262 158.509L327.556 162.28M288.667 162.28H308.111M288.667 162.28H269.222M312.087 166.271L308.111 162.28M312.087 166.271L316.303 170.503M312.087 166.271H332.1M308.111 162.28H327.556M269.222 162.28H249.778M269.222 162.28L266.539 158.509M327.556 162.28L332.1 166.271M266.539 158.509H247.631M316.303 170.503L320.78 174.997M316.303 170.503H336.918M332.1 166.271L336.918 170.503M336.918 170.503L342.035 174.997M299.526 174.997L303.609 179.779M299.526 174.997H320.78M299.526 174.997H278.272M320.78 174.997L325.544 179.779M320.78 174.997H342.035M342.035 174.997L347.479 179.779M303.609 179.779H325.544M303.609 179.779H281.674M330.623 184.878L325.544 179.779M330.623 184.878L336.05 190.325M330.623 184.878H353.284M325.544 179.779H347.479M281.674 179.779H259.74M281.674 179.779L278.272 174.997M347.479 179.779L353.284 184.878M278.272 174.997H257.017M336.05 190.325L341.861 196.158M336.05 190.325H359.486M353.284 184.878L359.486 190.325M359.486 190.325L366.127 196.158M317.595 196.158L322.942 202.42M317.595 196.158H341.861M317.595 196.158H293.329M341.861 196.158L348.099 202.42M341.861 196.158H366.127M366.127 196.158L373.256 202.42M322.942 202.42H348.099M322.942 202.42H297.785M354.812 209.159L348.099 202.42M354.812 209.159L362.058 216.432M354.812 209.159H380.928M348.099 202.42H373.256M297.785 202.42H272.628M297.785 202.42L293.329 196.158M373.256 202.42L380.928 209.159M373.256 202.42H398.413M293.329 196.158H269.063M362.058 216.432L369.901 224.305M362.058 216.432H389.209M380.928 209.159L389.209 216.432M398.413 202.42H414.869M389.209 216.432L398.173 224.305M389.209 216.432H414.869M341.63 224.305L348.932 232.857M341.63 224.305H369.901M341.63 224.305H313.358M369.901 224.305L378.42 232.857M369.901 224.305H398.173M398.173 224.305L407.909 232.857M398.173 224.305H414.869M348.932 232.857H378.42M348.932 232.857H319.443M387.706 242.178L378.42 232.857M387.706 242.178L397.866 252.376M387.706 242.178H414.869M378.42 232.857H407.909M319.443 232.857H289.954M319.443 232.857L313.358 224.305M407.909 232.857H414.869M407.909 232.857L414.869 238.97M313.358 224.305H285.086M397.866 252.376L409.03 263.583M397.866 252.376H414.869M375.169 263.583L385.733 275.956M375.169 263.583H409.03M375.169 263.583H341.307M409.03 263.583L414.869 269.445M409.03 263.583H414.869M385.733 275.956H350.111M385.733 275.956L414.869 275.956M350.111 275.956H314.489M350.111 275.956L341.307 263.583M341.307 263.583H307.446M196.365 111.254L196.42 111.444L196.474 111.636L196.529 111.828L196.584 112.022L196.751 112.607L196.807 112.804M196.365 111.254H208.548M196.365 111.254H184.183M207.909 109.758L207.445 108.67L207.293 108.313M207.909 109.758L208.306 110.687L208.548 111.254M207.909 109.758H219.879M207.293 108.313H219.057M207.293 108.313L206.844 107.262L206.697 106.918M195.131 106.918L195.083 106.747L194.89 106.069L194.747 105.569M195.131 106.918H206.697M195.131 106.918H183.566M208.548 111.254L208.629 111.444L208.711 111.636L208.793 111.828L208.876 112.022L209.21 112.804M208.548 111.254H220.731M219.879 109.758L219.26 108.67L219.057 108.313M219.879 109.758L220.731 111.254M219.057 108.313L218.656 107.61L218.36 107.09L218.263 106.918M206.697 106.918L206.624 106.747L206.479 106.407L206.335 106.069L206.263 105.902L206.121 105.569M206.697 106.918H218.263M220.731 111.254L221.39 112.411L221.613 112.804M229.828 106.918L229.105 105.902L228.868 105.569M229.828 106.918H218.263M218.263 106.918L217.589 105.735L217.494 105.569M196.807 112.804H209.21M196.807 112.804H184.403M209.896 114.411L209.21 112.804M209.896 114.411L210.608 116.078M209.896 114.411H222.528M209.21 112.804H221.613M184.403 112.804H172M184.403 112.804L184.183 111.254M221.613 112.804L222.528 114.411M184.183 111.254H172M210.608 116.078L210.79 116.505L211.067 117.153L211.347 117.809M210.608 116.078H223.477M222.528 114.411L222.645 114.616L223.477 116.078M223.477 116.078L223.598 116.291L223.72 116.505L223.842 116.72L224.463 117.809M198.231 117.809L198.743 119.608M198.231 117.809H211.347M198.231 117.809H185.116M211.347 117.809L212.115 119.608M211.347 117.809H224.463M224.463 117.809L225.227 119.152L225.357 119.38L225.487 119.608M198.743 119.608H212.115M198.743 119.608H185.372M212.914 121.479L213.016 121.718L213.119 121.958L213.221 122.2L213.745 123.425M212.914 121.479L212.511 120.534L212.411 120.301L212.312 120.069L212.115 119.608M212.914 121.479H226.552M212.115 119.608H225.487M185.372 119.608H172M185.372 119.608L185.116 117.809M225.487 119.608L226.552 121.479M185.116 117.809H172M213.745 123.425L214.5 125.195L214.61 125.453M213.745 123.425H227.66M226.552 121.479L226.825 121.958L227.66 123.425M227.66 123.425L228.087 124.176L228.814 125.453M200.407 125.453L200.705 126.498L200.78 126.763L201.008 127.566M200.407 125.453H214.61M200.407 125.453H186.204M214.61 125.453L215.513 127.566M214.61 125.453H228.814M228.814 125.453L230.017 127.566M201.008 127.566H215.513M201.008 127.566H186.504M216.454 129.77L215.513 127.566M216.454 129.77L217.437 132.072M216.454 129.77H231.272M215.513 127.566H230.017M186.504 127.566H172M186.504 127.566L186.428 127.029L186.277 125.973L186.204 125.453M230.017 127.566L231.272 129.77M186.204 125.453H172M217.437 132.072L218.203 133.867L218.464 134.478M217.437 132.072H232.582M231.272 129.77L232.582 132.072M232.582 132.072L233.259 133.262L233.952 134.478M202.976 134.478L203.692 136.996M202.976 134.478H218.464M202.976 134.478H187.488M218.464 134.478L219.539 136.996M218.464 134.478H233.952M233.952 134.478L235.385 136.996M203.692 136.996H219.539M203.692 136.996H187.846M220.664 139.632L220.378 138.962L219.539 136.996M220.664 139.632L221.845 142.397M220.664 139.632H236.886M219.539 136.996H235.385M187.846 136.996H172M187.846 136.996L187.488 134.478M235.385 136.996L236.886 139.632M187.488 134.478H172M221.845 142.397L223.083 145.299M221.845 142.397H238.459M236.886 139.632L238.459 142.397M238.459 142.397L240.111 145.299M206.056 145.299L206.924 148.349M206.056 145.299H223.083M206.056 145.299H189.028M223.083 145.299L224.386 148.349M223.083 145.299H240.111M240.111 145.299L241.848 148.349M206.924 148.349H224.386M206.924 148.349H189.462M225.756 151.558L224.386 148.349M225.756 151.558L227.2 154.94M225.756 151.558H243.674M224.386 148.349H241.848M189.462 148.349H172M189.462 148.349L189.081 145.672L189.028 145.299M241.848 148.349L243.674 151.558M189.028 145.299H172M227.2 154.94L228.723 158.509M227.2 154.94H245.6M243.674 151.558L245.109 154.078L245.6 154.94M245.6 154.94L247.631 158.509M209.815 158.509L210.889 162.28M209.815 158.509H228.723M209.815 158.509H190.908M228.723 158.509L230.333 162.28M228.723 158.509H247.631M247.631 158.509L249.778 162.28M210.889 162.28H230.333M210.889 162.28H191.444M232.038 166.271L230.333 162.28M232.038 166.271L233.844 170.503M232.038 166.271H252.05M230.333 162.28H249.778M191.444 162.28H172M191.444 162.28L190.908 158.509M249.778 162.28L252.05 166.271M190.908 158.509H172M233.844 170.503L235.763 174.997M233.844 170.503H254.459M252.05 166.271L254.459 170.503M254.459 170.503L257.017 174.997M214.509 174.997L215.87 179.779M214.509 174.997H235.763M214.509 174.997H193.254M235.763 174.997L237.805 179.779M235.763 174.997H257.017M257.017 174.997L259.74 179.779M215.87 179.779H237.805M215.87 179.779H193.935M239.981 184.878L237.805 179.779M239.981 184.878L242.307 190.325M239.981 184.878H262.642M237.805 179.779H259.74M193.935 179.779H172M193.935 179.779L193.254 174.997M259.74 179.779L262.642 184.878M193.254 174.997H172M242.307 190.325L244.798 196.158M242.307 190.325H265.743M262.642 184.878L265.743 190.325M265.743 190.325L269.063 196.158M220.532 196.158L222.314 202.42M220.532 196.158H244.798M220.532 196.158H196.266M244.798 196.158L247.471 202.42M244.798 196.158H269.063M269.063 196.158L272.628 202.42M222.314 202.42H247.471M222.314 202.42H197.157M250.348 209.159L247.471 202.42M250.348 209.159L253.453 216.432M250.348 209.159H276.464M247.471 202.42H272.628M197.157 202.42H172M197.157 202.42L196.266 196.158M272.628 202.42L276.464 209.159M196.266 196.158H172M253.453 216.432L256.815 224.305M253.453 216.432H280.605M276.464 209.159L280.605 216.432M280.605 216.432L285.086 224.305M228.543 224.305L230.977 232.857M228.543 224.305H256.815M228.543 224.305H200.272M256.815 224.305L260.466 232.857M256.815 224.305H285.086M285.086 224.305L289.954 232.857M230.977 232.857H260.466M230.977 232.857H201.489M264.445 242.178L260.466 232.857M264.445 242.178L268.8 252.376M264.445 242.178H295.26M260.466 232.857H289.954M201.489 232.857H172M201.489 232.857L200.272 224.305M289.954 232.857L295.26 242.178M200.272 224.305H172M268.8 252.376L273.584 263.583M268.8 252.376H301.066M295.26 242.178L301.066 252.376M301.066 252.376L307.446 263.583M239.723 263.583L243.244 275.956M239.723 263.583H273.584M239.723 263.583H205.862M273.584 263.583L278.867 275.956M273.584 263.583H307.446M307.446 263.583L314.489 275.956M278.867 275.956H243.244M278.867 275.956H314.489M243.244 275.956H207.622M207.622 275.956H172M207.622 275.956L205.862 263.583M205.862 263.583H172M147.635 111.254L147.58 111.444L147.526 111.636L147.471 111.828L147.416 112.022L147.305 112.411L147.249 112.607L147.193 112.804M147.635 111.254H159.817M147.635 111.254H135.452M160.03 109.758L160.236 108.313M160.03 109.758L159.817 111.254M160.03 109.758H172M160.236 108.313L160.261 108.136L160.286 107.96L160.311 107.784L160.434 106.918M160.236 108.313H172M148.869 106.918L148.917 106.747L149.11 106.069L149.253 105.569M148.869 106.918H160.434M148.869 106.918H137.303M159.817 111.254L159.79 111.444L159.763 111.636L159.735 111.828L159.597 112.804M159.817 111.254H172M172 109.758V108.313M172 109.758V111.254M172 108.313V106.918M160.434 106.918H172M160.434 106.918L160.507 106.407L160.531 106.238L160.626 105.569M172 111.254V112.804M183.566 106.918L183.493 106.407L183.469 106.238L183.445 106.069L183.421 105.902L183.397 105.735L183.374 105.569M183.566 106.918H172M172 106.918V105.569M147.193 112.804H159.597M147.193 112.804H134.79M159.368 114.411L159.339 114.616L159.31 114.822L159.131 116.078M159.368 114.411L159.597 112.804M159.368 114.411H172M159.597 112.804H172M134.79 112.804H122.387M134.79 112.804L134.958 112.411L135.041 112.216L135.124 112.022L135.207 111.828L135.289 111.636L135.371 111.444L135.452 111.254M172 112.804V114.411M135.452 111.254H123.269M159.131 116.078L158.884 117.809M159.131 116.078H172M172 114.411V116.078M172 116.078V117.809M145.769 117.809L145.257 119.608M145.769 117.809H158.884M145.769 117.809H132.653M158.884 117.809L158.628 119.608M158.884 117.809H172M172 117.809V119.608M145.257 119.608H158.628M145.257 119.608H131.885M158.362 121.479L158.628 119.608M158.362 121.479L158.085 123.425M158.362 121.479H172M158.628 119.608H172M131.885 119.608H118.513M131.885 119.608L132.653 117.809M172 119.608V121.479M132.653 117.809H119.537M158.085 123.425L157.978 124.176L157.87 124.938L157.796 125.453M158.085 123.425H172M172 121.479V123.425M172 123.425V125.453M143.593 125.453L143.295 126.498L143.22 126.763L142.992 127.566M143.593 125.453H157.796M143.593 125.453H129.39M157.796 125.453L157.723 125.973L157.572 127.029L157.496 127.566M157.796 125.453H172M172 125.453V127.566M142.992 127.566H157.496M142.992 127.566H128.487M157.182 129.77L157.222 129.49L157.496 127.566M157.182 129.77L156.855 132.072M157.182 129.77H172M157.496 127.566H172M128.487 127.566H113.983M128.487 127.566L129.39 125.453M172 127.566V129.77M129.39 125.453H115.186M156.855 132.072L156.512 134.478M156.855 132.072H172M172 129.77V132.072M172 132.072V134.478M141.024 134.478L140.308 136.996M141.024 134.478H156.512M141.024 134.478H125.536M156.512 134.478L156.154 136.996M156.512 134.478H172M172 134.478V136.996M140.308 136.996H156.154M140.308 136.996H124.461M155.779 139.632L156.154 136.996M155.779 139.632L155.385 142.397M155.779 139.632H172M156.154 136.996H172M124.461 136.996H108.615M124.461 136.996L125.536 134.478M172 136.996V139.632M125.536 134.478H110.048M155.385 142.397L154.972 145.299M155.385 142.397H172M172 139.632V142.397M172 142.397V145.299M137.944 145.299L137.076 148.349M137.944 145.299H154.972M137.944 145.299H120.917M154.972 145.299L154.538 148.349M154.972 145.299H172M172 145.299V148.349M137.076 148.349H154.538M137.076 148.349H119.614M154.081 151.558L154.538 148.349M154.081 151.558L153.6 154.94M154.081 151.558H172M154.538 148.349H172M119.614 148.349H102.152M119.614 148.349L120.917 145.299M172 148.349V151.558M120.917 145.299H103.889M153.6 154.94L153.092 158.509M153.6 154.94H172M172 151.558V154.94M172 154.94V158.509M134.185 158.509L133.111 162.28M134.185 158.509H153.092M134.185 158.509H115.277M153.092 158.509L152.556 162.28M153.092 158.509H172M172 158.509V162.28M133.111 162.28H152.556M133.111 162.28H113.667M151.988 166.271L152.556 162.28M151.988 166.271L151.385 170.503M151.988 166.271H172M152.556 162.28H172M113.667 162.28H94.2222M113.667 162.28L115.277 158.509M172 162.28V166.271M115.277 158.509H96.3688M151.385 170.503L150.746 174.997M151.385 170.503H172M172 166.271V170.503M172 170.503V174.997M129.491 174.997L128.13 179.779M129.491 174.997H150.746M129.491 174.997H108.237M150.746 174.997L150.065 179.779M150.746 174.997H172M172 174.997V179.779M128.13 179.779H150.065M128.13 179.779H106.195M149.34 184.878L150.065 179.779M149.34 184.878L148.564 190.325M149.34 184.878H172M150.065 179.779H172M106.195 179.779H84.2605M106.195 179.779L108.237 174.997M172 179.779V184.878M108.237 174.997H86.9826M148.564 190.325L147.734 196.158M148.564 190.325H172M172 184.878V190.325M172 190.325V196.158M123.468 196.158L121.686 202.42M123.468 196.158H147.734M123.468 196.158H99.2025M147.734 196.158L146.843 202.42M147.734 196.158H172M172 196.158V202.42M121.686 202.42H146.843M121.686 202.42H96.5292M145.884 209.159L146.843 202.42M145.884 209.159L144.849 216.432M145.884 209.159H172M146.843 202.42H172M96.5292 202.42H71.3722M96.5292 202.42L99.2025 196.158M172 202.42V209.159M99.2025 196.158H74.9366M144.849 216.432L143.728 224.305M144.849 216.432H172M172 209.159V216.432M172 216.432V224.305M115.457 224.305L113.023 232.857M115.457 224.305H143.728M115.457 224.305H87.185M143.728 224.305L142.511 232.857M143.728 224.305H172M172 224.305V232.857M113.023 232.857H142.511M113.023 232.857H83.5341M141.185 242.178L142.511 232.857M141.185 242.178L139.734 252.376M141.185 242.178H172M142.511 232.857H172M83.5341 232.857H54.0455M83.5341 232.857L87.185 224.305M172 232.857V242.178M87.185 224.305H58.9135M139.734 252.376L138.138 263.583M139.734 252.376H172M172 242.178V252.376M172 252.376V263.583M104.277 263.583L100.756 275.956M104.277 263.583H138.138M104.277 263.583H70.4157M138.138 263.583L136.378 275.956M138.138 263.583H172M172 263.583V275.956M136.378 275.956H100.756M136.378 275.956H172M100.756 275.956H65.1333M65.1333 275.956H29.5109M65.1333 275.956L70.4157 263.583M70.4157 263.583H36.5541M98.9037 111.254L98.248 112.022L97.5803 112.804M98.9037 111.254H111.086M98.9037 111.254H86.721M112.151 109.758L113.179 108.313M112.151 109.758L111.086 111.254M112.151 109.758H124.121M113.179 108.313H124.943M113.179 108.313L113.926 107.262L114.172 106.918M102.606 106.918H114.172M102.606 106.918L103.043 106.407L103.758 105.569M102.606 106.918H91.0403M111.086 111.254L109.984 112.804M111.086 111.254H123.269M124.121 109.758L124.943 108.313M124.121 109.758L123.269 111.254M124.943 108.313L125.344 107.61L125.64 107.09L125.737 106.918M114.172 106.918H125.737M114.172 106.918L114.895 105.902L115.132 105.569M123.269 111.254L122.61 112.411L122.387 112.804M137.303 106.918L137.376 106.747L137.521 106.407L137.737 105.902L137.879 105.569M137.303 106.918H125.737M125.737 106.918L125.835 106.747L126.028 106.407L126.505 105.569M97.5803 112.804H109.984M97.5803 112.804H85.1768M108.84 114.411L108.985 114.207L109.13 114.003L109.702 113.2L109.984 112.804M108.84 114.411L107.954 115.655L107.653 116.078M108.84 114.411H121.472M109.984 112.804H122.387M85.1768 112.804H72.7735M85.1768 112.804L86.34 111.636L86.721 111.254M122.387 112.804L121.472 114.411M86.721 111.254H74.5381M107.653 116.078L107.502 116.291L107.35 116.505L106.889 117.153L106.734 117.37L106.422 117.809M107.653 116.078H120.523M121.472 114.411L121.355 114.616L120.523 116.078M120.523 116.078L120.402 116.291L120.28 116.505L120.158 116.72L119.537 117.809M93.3058 117.809L91.7697 119.608M93.3058 117.809H106.422M93.3058 117.809H80.1901M106.422 117.809L105.141 119.608M106.422 117.809H119.537M119.537 117.809L118.513 119.608M91.7697 119.608H105.141M91.7697 119.608H78.398M103.81 121.479L105.141 119.608M103.81 121.479L102.425 123.425M103.81 121.479H117.448M105.141 119.608H118.513M78.398 119.608H65.0262M78.398 119.608L80.1901 117.809M118.513 119.608L117.448 121.479M80.1901 117.809H67.0742M102.425 123.425L100.983 125.453M102.425 123.425H116.34M117.448 121.479L117.175 121.958L116.34 123.425M116.34 123.425L115.913 124.176L115.479 124.938L115.186 125.453M86.7792 125.453L85.8864 126.498L84.9749 127.566M86.7792 125.453H100.983M86.7792 125.453H72.5757M100.983 125.453L99.479 127.566M100.983 125.453H115.186M115.186 125.453L113.983 127.566M84.9749 127.566H99.479M84.9749 127.566H70.4708M97.9105 129.77L99.479 127.566M97.9105 129.77L96.2724 132.072M97.9105 129.77H112.728M99.479 127.566H113.983M70.4708 127.566H55.9664M70.4708 127.566L72.5757 125.453M113.983 127.566L112.728 129.77M72.5757 125.453H58.3724M96.2724 132.072L95.8514 132.664L94.5604 134.478M96.2724 132.072H111.418M112.728 129.77L111.418 132.072M111.418 132.072L111.25 132.367L110.741 133.262L110.048 134.478M79.0724 134.478L76.9228 136.996M79.0724 134.478H94.5604M79.0724 134.478H63.5845M94.5604 134.478L92.769 136.996M94.5604 134.478H110.048M110.048 134.478L108.615 136.996M76.9228 136.996H92.769M76.9228 136.996H61.0766M90.8928 139.632L92.0758 137.97L92.769 136.996M90.8928 139.632L88.9256 142.397M90.8928 139.632H107.114M92.769 136.996H108.615M61.0766 136.996H45.2304M61.0766 136.996L63.5845 134.478M108.615 136.996L107.114 139.632M63.5845 134.478H48.0965M88.9256 142.397L86.8607 145.299M88.9256 142.397H105.541M107.114 139.632L105.541 142.397M105.541 142.397L103.889 145.299M69.8328 145.299L67.2285 148.349M69.8328 145.299H86.8607M69.8328 145.299H52.8051M86.8607 145.299L84.6906 148.349M86.8607 145.299H103.889M103.889 145.299L102.152 148.349M67.2285 148.349H84.6906M67.2285 148.349H49.7667M82.4068 151.558L84.6906 148.349M82.4068 151.558L80.0004 154.94M82.4068 151.558H100.326M84.6906 148.349H102.152M49.7667 148.349H32.3049M49.7667 148.349L52.8051 145.299M102.152 148.349L100.326 151.558M52.8051 145.299H35.7772M80.0004 154.94L77.4611 158.509M80.0004 154.94H98.4003M100.326 151.558L98.4003 154.94M98.4003 154.94L96.3688 158.509M58.5533 158.509L55.3332 162.28M58.5533 158.509H77.4611M58.5533 158.509H39.6454M77.4611 158.509L74.7777 162.28M77.4611 158.509H96.3688M96.3688 158.509L94.2222 162.28M55.3332 162.28H74.7777M55.3332 162.28H35.8888M71.9374 166.271L74.7777 162.28M71.9374 166.271L68.9263 170.503M71.9374 166.271H91.9501M74.7777 162.28H94.2222M35.8888 162.28H16.4443M35.8888 162.28L39.6454 158.509M94.2222 162.28L91.9501 166.271M39.6454 158.509H20.7378M68.9263 170.503L65.7283 174.997M68.9263 170.503H89.5411M91.9501 166.271L89.5411 170.503M89.5411 170.503L86.9826 174.997M44.4739 174.997L40.3907 179.779M44.4739 174.997H65.7283M44.4739 174.997H23.2196M65.7283 174.997L62.3256 179.779M65.7283 174.997H86.9826M86.9826 174.997L84.2605 179.779M40.3907 179.779H62.3256M40.3907 179.779H18.4558M58.6977 184.878L62.3256 179.779M58.6977 184.878L54.8214 190.325M58.6977 184.878H81.3582M62.3256 179.779H84.2605M18.4558 179.779H-3.47907M18.4558 179.779L23.2196 174.997M84.2605 179.779L81.3582 184.878M23.2196 174.997H1.96524M54.8214 190.325L50.6709 196.158M54.8214 190.325H78.2573M81.3582 184.878L78.2573 190.325M78.2573 190.325L74.9366 196.158M26.405 196.158L21.0583 202.42M26.405 196.158H50.6709M26.405 196.158H2.13905M50.6709 196.158L46.2153 202.42M50.6709 196.158H74.9366M74.9366 196.158L71.3722 202.42M21.0583 202.42H46.2153M21.0583 202.42H-4.09864M41.4198 209.159L46.2153 202.42M41.4198 209.159L36.2445 216.432M41.4198 209.159H67.5359M46.2153 202.42H71.3722M-4.09864 202.42H-29.2556M-4.09864 202.42L2.13905 196.158M71.3722 202.42L67.5359 209.159M2.13905 196.158H-22.1269M36.2445 216.432L30.6418 224.305M36.2445 216.432H63.3955M67.5359 209.159L63.3955 216.432M63.3955 216.432L58.9135 224.305M2.37028 224.305L-4.93173 232.857M2.37028 224.305H30.6418M2.37028 224.305H-25.9015M30.6418 224.305L24.5569 232.857M30.6418 224.305H58.9135M58.9135 224.305L54.0455 232.857M-4.93173 232.857H24.5569M-4.93173 232.857H-34.4203M17.9245 242.178L24.5569 232.857M17.9245 242.178L10.6673 252.376M17.9245 242.178H48.7396M24.5569 232.857H54.0455M-34.4203 232.857H-63.909M-34.4203 232.857L-25.9015 224.305M54.0455 232.857L48.7396 242.178M-25.9015 224.305H-54.173M10.6673 252.376L2.69284 263.583M10.6673 252.376H42.934M48.7396 242.178L42.934 252.376M42.934 252.376L36.5541 263.583M-31.1687 263.583L-41.7335 275.956M-31.1687 263.583H2.69284M-31.1687 263.583H-65.0302M2.69284 263.583L-6.11116 275.956M2.69284 263.583H36.5541M36.5541 263.583L29.5109 275.956M-6.11116 275.956H-41.7335M-6.11116 275.956H29.5109M-41.7335 275.956L-70.8692 275.956M-65.0302 263.583L-70.8692 269.445M-65.0302 263.583H-70.8692M50.1728 111.254L47.967 112.804M50.1728 111.254H62.3554M50.1728 111.254H37.9901M64.2713 109.758L66.1214 108.313M64.2713 109.758L62.3554 111.254M64.2713 109.758H76.2412M66.1214 108.313H77.8857M66.1214 108.313L67.909 106.918M56.3431 106.918H67.909M56.3431 106.918L57.071 106.407L58.2636 105.569M56.3431 106.918H44.7775M62.3554 111.254L60.3702 112.804M62.3554 111.254H74.5381M76.2412 109.758L77.8857 108.313M76.2412 109.758L74.5381 111.254M77.8857 108.313L79.0826 107.262L79.4747 106.918M67.909 106.918L68.1281 106.747L69.6372 105.569M67.909 106.918H79.4747M74.5381 111.254L72.7735 112.804M91.0403 106.918L92.3844 105.569M91.0403 106.918H79.4747M79.4747 106.918L80.0568 106.407L81.0108 105.569M47.967 112.804H60.3702M47.967 112.804H35.5637M58.3119 114.411L60.3702 112.804M58.3119 114.411L56.1762 116.078M58.3119 114.411H70.9439M60.3702 112.804H72.7735M35.5637 112.804H23.1604M35.5637 112.804L37.9901 111.254M72.7735 112.804L70.9439 114.411M37.9901 111.254H25.8074M56.1762 116.078L55.6295 116.505L53.9585 117.809M56.1762 116.078H69.0455M70.9439 114.411L69.0455 116.078M69.0455 116.078L67.0742 117.809M40.8428 117.809L40.5283 118.031L38.2828 119.608M40.8428 117.809H53.9585M40.8428 117.809H27.7271M53.9585 117.809L51.6545 119.608M53.9585 117.809H67.0742M67.0742 117.809L66.8227 118.031L65.0262 119.608M38.2828 119.608H51.6545M38.2828 119.608H24.9111M49.2587 121.479L51.6545 119.608M49.2587 121.479L46.7655 123.425M49.2587 121.479H62.8966M51.6545 119.608H65.0262M24.9111 119.608H11.5393M24.9111 119.608L27.7271 117.809M65.0262 119.608L62.8966 121.479M27.7271 117.809H14.6114M46.7655 123.425L44.1688 125.453M46.7655 123.425H60.6804M62.8966 121.479L60.6804 123.425M60.6804 123.425L58.3724 125.453M29.9655 125.453L26.9583 127.566M29.9655 125.453H44.1688M29.9655 125.453H15.762M44.1688 125.453L41.4624 127.566M44.1688 125.453H58.3724M58.3724 125.453L55.9664 127.566M26.9583 127.566H41.4624M26.9583 127.566H12.4539M38.6387 129.77L41.4624 127.566M38.6387 129.77L35.6902 132.072M38.6387 129.77H53.4565M41.4624 127.566H55.9664M12.4539 127.566H-2.05019M12.4539 127.566L15.762 125.453M55.9664 127.566L53.4565 129.77M15.762 125.453H1.55844M35.6902 132.072L32.6085 134.478M35.6902 132.072H50.8358M53.4565 129.77L50.8358 132.072M50.8358 132.072L48.0965 134.478M17.1205 134.478L13.538 136.996M17.1205 134.478H32.6085M17.1205 134.478H1.63256M32.6085 134.478L29.3842 136.996M32.6085 134.478H48.0965M48.0965 134.478L45.2304 136.996M13.538 136.996H29.3842M13.538 136.996H-2.30824M26.007 139.632L29.3842 136.996M26.007 139.632L22.4662 142.397M26.007 139.632H42.2284M29.3842 136.996H45.2304M-2.30824 136.996H-18.1544M-2.30824 136.996L1.63256 134.478M45.2304 136.996L42.2284 139.632M1.63256 134.478H-13.8554M22.4662 142.397L18.7493 145.299M22.4662 142.397H39.081M42.2284 139.632L39.081 142.397M39.081 142.397L35.7772 145.299M1.72137 145.299L-2.6189 148.349M1.72137 145.299H18.7493M1.72137 145.299H-15.3063M18.7493 145.299L14.8429 148.349M18.7493 145.299H35.7772M35.7772 145.299L32.3049 148.349M-2.6189 148.349H14.8429M-2.6189 148.349H-20.0809M10.7321 151.558L14.8429 148.349M10.7321 151.558L6.40065 154.94M10.7321 151.558H28.6508M14.8429 148.349H32.3049M-20.0809 148.349H-37.5427M-20.0809 148.349L-15.3063 145.299M32.3049 148.349L28.6508 151.558M-15.3063 145.299H-32.3342M6.40065 154.94L1.82989 158.509M6.40065 154.94H24.8005M28.6508 151.558L24.8005 154.94M24.8005 154.94L20.7378 158.509M-17.078 158.509L-22.4446 162.28M-17.078 158.509H1.82989M-17.078 158.509H-35.9856M1.82989 158.509L-3.00016 162.28M1.82989 158.509H20.7378M20.7378 158.509L16.4443 162.28M-22.4446 162.28H-3.00016M-22.4446 162.28H-41.8891M-8.11256 166.271L-3.00016 162.28M-8.11256 166.271L-13.5326 170.503M-8.11256 166.271H11.8999M-3.00016 162.28H16.4443M-41.8891 162.28H-61.3336M-41.8891 162.28L-35.9856 158.509M16.4443 162.28L11.8999 166.271M-35.9856 158.509H-54.8935M-13.5326 170.503L-19.2891 174.997M-13.5326 170.503H7.0822M11.8999 166.271L7.0822 170.503M7.0822 170.503L1.96524 174.997M-40.5434 174.997L-47.3488 179.779M-40.5434 174.997H-19.2891M-40.5434 174.997H-61.7978M-19.2891 174.997L-25.4139 179.779M-19.2891 174.997H1.96524M1.96524 174.997L-3.47907 179.779M-47.3488 179.779H-25.4139M-47.3488 179.779H-69.2837M-31.9444 184.878L-25.4139 179.779M-31.9444 184.878L-38.9213 190.325M-31.9444 184.878H-9.2839M-25.4139 179.779H-3.47907M-69.2837 179.779L-61.7978 174.997M-69.2837 179.779H-70.8692M-69.2837 179.779L-70.8692 180.792M-3.47907 179.779L-9.2839 184.878M-61.7978 174.997H-70.8692M-38.9213 190.325L-46.3925 196.158M-38.9213 190.325H-15.4857M-9.2839 184.878L-15.4857 190.325M-15.4857 190.325L-22.1269 196.158M-70.6585 196.158H-46.3925M-70.6585 196.158H-70.8692M-70.6585 196.158L-70.8692 196.306M-46.3925 196.158L-54.4128 202.42M-46.3925 196.158H-22.1269M-22.1269 196.158L-29.2556 202.42M-63.0443 209.159L-54.4128 202.42M-63.0443 209.159H-36.9282M-63.0443 209.159H-70.8692M-63.0443 209.159L-70.8692 215.268M-54.4128 202.42H-29.2556M-54.4128 202.42H-70.8692M-29.2556 202.42L-36.9282 209.159M-36.9282 209.159L-45.2088 216.432M-45.2088 216.432L-54.173 224.305M-45.2088 216.432H-70.8692M-54.173 224.305L-63.909 232.857M-54.173 224.305H-70.8692M-63.909 232.857H-70.8692M-63.909 232.857L-70.8692 238.97M1.44181 111.254L-1.64617 112.804M1.44181 111.254H13.6247M1.44181 111.254H-10.7409M16.3919 109.758L19.0643 108.313M16.3919 109.758L13.6247 111.254M16.3919 109.758H28.3618M19.0643 108.313H30.8285M19.0643 108.313L21.6463 106.918M10.0806 106.918H21.6463M10.0806 106.918L12.7689 105.569M10.0806 106.918H-1.48501M13.6247 111.254L10.7571 112.804M13.6247 111.254H25.8074M28.3618 109.758L30.8285 108.313M28.3618 109.758L25.8074 111.254M30.8285 108.313L33.2119 106.918M21.6463 106.918L21.9627 106.747L24.1425 105.569M21.6463 106.918H33.2119M25.8074 111.254L23.1604 112.804M44.7775 106.918L46.8897 105.569M44.7775 106.918H33.2119M33.2119 106.918L33.5041 106.747L35.5161 105.569M-1.64617 112.804H10.7571M-1.64617 112.804H-14.0495M7.78373 114.411L10.7571 112.804M7.78373 114.411L4.69879 116.078M7.78373 114.411H20.416M10.7571 112.804H23.1604M-14.0495 112.804H-26.4527M-14.0495 112.804L-10.7409 111.254M23.1604 112.804L20.416 114.411M-10.7409 111.254H-22.9235M4.69879 116.078L1.4957 117.809M4.69879 116.078H17.5681M20.416 114.411L20.0656 114.616L17.5681 116.078M17.5681 116.078L14.6114 117.809M-11.62 117.809L-15.2041 119.608M-11.62 117.809H1.4957M-11.62 117.809H-24.7357M1.4957 117.809L-1.83237 119.608M1.4957 117.809H14.6114M14.6114 117.809L11.5393 119.608M-15.2041 119.608H-1.83237M-15.2041 119.608H-28.5758M-5.293 121.479L-1.83237 119.608M-5.293 121.479L-8.89429 123.425M-5.293 121.479H8.34486M-1.83237 119.608H11.5393M-28.5758 119.608H-41.9475M-28.5758 119.608L-24.7357 117.809M11.5393 119.608L8.34486 121.479M-24.7357 117.809H-37.8514M-8.89429 123.425L-12.6449 125.453M-8.89429 123.425H5.02059M8.34486 121.479L5.02059 123.425M5.02059 123.425L1.55844 125.453M-26.8484 125.453L-31.0586 127.566M-26.8484 125.453H-12.6449M-26.8484 125.453H-41.0519M-12.6449 125.453L-16.5543 127.566M-12.6449 125.453H1.55844M1.55844 125.453L-2.05019 127.566M-31.0586 127.566H-16.5543M-31.0586 127.566H-45.5627M-20.633 129.77L-16.5543 127.566M-20.633 129.77L-24.8918 132.072M-20.633 129.77H-5.81491M-16.5543 127.566H-2.05019M-45.5627 127.566H-60.0668M-45.5627 127.566L-41.0519 125.453M-2.05019 127.566L-5.81491 129.77M-41.0519 125.453H-55.2552M-24.8918 132.072L-29.3434 134.478M-24.8918 132.072H-9.74636M-5.81491 129.77L-9.74636 132.072M-9.74636 132.072L-13.8554 134.478M-44.8313 134.478L-49.8468 136.996M-44.8313 134.478H-29.3434M-44.8313 134.478H-60.3191M-29.3434 134.478L-34.0006 136.996M-29.3434 134.478H-13.8554M-13.8554 134.478L-18.1544 136.996M-49.8468 136.996H-34.0006M-38.8788 139.632L-34.0006 136.996M-38.8788 139.632L-43.9932 142.397M-38.8788 139.632H-22.6571M-34.0006 136.996H-18.1544M-18.1544 136.996L-22.6571 139.632M-60.3191 134.478H-70.8692M-43.9932 142.397L-49.3621 145.299M-43.9932 142.397H-27.3784M-22.6571 139.632L-27.3784 142.397M-27.3784 142.397L-32.3342 145.299M-66.39 145.299H-49.3621M-66.39 145.299H-70.8692M-66.39 145.299L-70.8692 147.547M-49.3621 145.299L-55.0048 148.349M-49.3621 145.299H-32.3342M-32.3342 145.299L-37.5427 148.349M-60.9424 151.558L-55.0048 148.349M-60.9424 151.558L-67.1991 154.94M-60.9424 151.558H-43.0237M-60.9424 151.558H-70.8692M-55.0048 148.349H-37.5427M-55.0048 148.349H-70.8692M-37.5427 148.349L-43.0237 151.558M-70.9185 147.572L-70.8692 147.547M-67.1991 154.94H-48.7992M-67.1991 154.94H-70.8692M-67.1991 154.94L-70.8692 156.924M-43.0237 151.558L-48.7992 154.94M-48.7992 154.94L-54.8935 158.509M-54.8935 158.509L-61.3336 162.28M-54.8935 158.509H-70.8692M-68.1501 166.271L-61.3336 162.28M-68.1501 166.271H-70.8692M-68.1501 166.271L-70.8692 167.863M-61.3336 162.28H-70.8692M-47.2889 111.254L-51.2593 112.804M-47.2889 111.254H-35.1062M-47.2889 111.254H-59.4718M-31.4875 109.758L-27.9929 108.313M-31.4875 109.758L-35.1062 111.254M-31.4875 109.758H-19.5175M-27.9929 108.313H-16.2287M-27.9929 108.313L-24.6165 106.918M-36.1822 106.918H-24.6165M-36.1822 106.918L-32.7258 105.569M-36.1822 106.918H-47.7478M-35.1062 111.254L-38.856 112.804M-35.1062 111.254H-22.9235M-19.5175 109.758L-16.2287 108.313M-19.5175 109.758L-22.9235 111.254M-16.2287 108.313L-13.0509 106.918M-24.6165 106.918H-13.0509M-24.6165 106.918L-21.352 105.569M-22.9235 111.254L-26.4527 112.804M-1.48501 106.918L1.39526 105.569M-1.48501 106.918H-13.0509M-13.0509 106.918L-9.97835 105.569M-51.2593 112.804H-38.856M-51.2593 112.804H-63.6626M-42.7442 114.411L-38.856 112.804M-42.7442 114.411L-46.7783 116.078M-42.7442 114.411H-30.1122M-38.856 112.804H-26.4527M-63.6626 112.804L-59.4718 111.254M-63.6626 112.804H-70.8692M-26.4527 112.804L-30.1122 114.411M-59.4718 111.254H-70.8692M-46.7783 116.078L-50.9671 117.809M-46.7783 116.078H-33.9091M-30.1122 114.411L-33.9091 116.078M-33.9091 116.078L-37.8514 117.809M-64.0828 117.809L-68.691 119.608M-64.0828 117.809H-50.9671M-64.0828 117.809H-70.8692M-50.9671 117.809L-55.3192 119.608M-50.9671 117.809H-37.8514M-37.8514 117.809L-41.9475 119.608M-59.8447 121.479L-55.3192 119.608M-59.8447 121.479L-64.5541 123.425M-59.8447 121.479H-46.2068M-59.8447 121.479H-70.8692M-55.3192 119.608H-68.691M-55.3192 119.608H-41.9475M-68.691 119.608L-70.8692 120.459M-68.691 119.608H-70.8692M-41.9475 119.608L-46.2068 121.479M-64.5541 123.425L-69.4588 125.453M-64.5541 123.425H-50.6392M-64.5541 123.425H-70.8692M-46.2068 121.479L-50.6392 123.425M-50.6392 123.425L-55.2552 125.453M-69.4588 125.453H-55.2552M-69.4588 125.453L-70.8692 126.036M-69.4588 125.453H-70.8692M-55.2552 125.453L-60.0668 127.566M-65.0866 129.77L-60.0668 127.566M-65.0866 129.77L-70.3283 132.072M-65.0866 129.77H-70.8692M-60.0668 127.566H-70.8692M-70.9451 127.566H-70.8692M-70.3283 132.072H-70.8692M-70.3283 132.072L-70.8692 132.31M-71 132.367L-70.8692 132.31M-67.3969 109.758L-63.2859 108.313M-67.3969 109.758H-70.8692M-67.3969 109.758L-70.8692 110.978M-63.2859 108.313L-59.3134 106.918M-63.2859 108.313H-70.8692M-47.7478 106.918L-44.0995 105.569M-47.7478 106.918H-59.3134M-59.3134 106.918L-55.4731 105.569M-59.3134 106.918H-70.8692M331.231 105.569H342.605M331.231 105.569H319.857M339.819 104.263L340.506 104.586L342.605 105.569M339.819 104.263H351.006M342.605 105.569H353.978M351.006 104.263L351.74 104.586L352.11 104.748L353.978 105.569M353.978 105.569H365.352M365.352 105.569H376.726M319.857 105.569H308.484M376.726 105.569H388.099M388.099 105.569L384.57 104.263M388.099 105.569H399.473M384.57 104.263H395.758M285.736 105.569H297.11M285.736 105.569H274.363M295.067 104.263L295.571 104.586L295.825 104.748L297.11 105.569M295.067 104.263H306.255M297.11 105.569H308.484M306.255 104.263L308.484 105.569M274.363 105.569H262.989M240.242 105.569H251.616M240.242 105.569H228.868M250.315 104.263L250.476 104.424L250.636 104.586L250.798 104.748L251.616 105.569M250.315 104.263H261.503M251.616 105.569H262.989M261.503 104.263L262.989 105.569M228.868 105.569H217.494M194.747 105.569H206.121M194.747 105.569H183.374M205.564 104.263L206.121 105.569M205.564 104.263H216.752M206.121 105.569H217.494M216.752 104.263L216.843 104.424L216.935 104.586L217.027 104.748L217.494 105.569M183.374 105.569H172M149.253 105.569H160.626M149.253 105.569H137.879M160.812 104.263L160.626 105.569M160.812 104.263H172M160.626 105.569H172M172 104.263V105.569M137.879 105.569H126.505M103.758 105.569H115.132M103.758 105.569H92.3844M116.06 104.263L115.831 104.586L115.367 105.238L115.132 105.569M116.06 104.263H127.248M115.132 105.569H126.505M127.248 104.263L127.157 104.424L127.065 104.586L126.973 104.748L126.505 105.569M92.3844 105.569H81.0108M58.2636 105.569H69.6372M58.2636 105.569H46.8897M71.309 104.263L70.8961 104.586L70.6884 104.748L69.6372 105.569M71.309 104.263H82.4969M69.6372 105.569H81.0108M82.4969 104.263L82.3137 104.424L81.0108 105.569M46.8897 105.569H35.5161M12.7689 105.569H24.1425M12.7689 105.569H1.39526M26.5573 104.263L25.961 104.586L25.6609 104.748L24.1425 105.569M26.5573 104.263H37.7452M24.1425 105.569H35.5161M37.7452 104.263L37.4704 104.424L35.5161 105.569M1.39526 105.569H-9.97835M-32.7258 105.569H-21.352M-32.7258 105.569H-44.0995M-18.1944 104.263L-21.352 105.569M-18.1944 104.263H-7.00649M-21.352 105.569H-9.97835M-7.00649 104.263L-7.74016 104.586L-8.10952 104.748L-9.97835 105.569M-44.0995 105.569H-55.4731M-62.9459 104.263L-66.8467 105.569M-62.9459 104.263H-51.7579M-62.9459 104.263H-70.8692M-66.8467 105.569H-55.4731M-66.8467 105.569L-70.8692 106.915M-66.8467 105.569H-70.8692M-51.7579 104.263L-52.6753 104.586L-55.4731 105.569M395.758 104.263L396.675 104.586L399.473 105.569M399.473 105.569H410.847M410.847 105.569L414.869 106.915M410.847 105.569H414.869M414.869 167.863V166.271M414.869 167.863V170.503M414.869 166.271V162.28M414.869 170.503V171.291V174.997M414.869 174.997V179.779M414.869 136.996V134.478M414.869 136.996V139.42M414.869 104.263V105.569M414.869 105.569V106.915M414.869 106.915L414.879 106.918H414.869M414.869 106.915V106.918M414.869 106.918V108.313M414.869 108.313V109.758M414.869 109.758V110.978M414.869 110.978V111.254M414.869 111.254V112.804M414.869 112.804V114.411M414.869 114.411V115.469M414.869 115.469V116.078M414.869 116.078V117.809M414.869 117.809V119.608M414.869 119.608V120.459M414.869 120.459V121.479M414.869 121.479V123.425M414.869 123.425V125.453M414.869 125.453V126.036M414.869 126.036V127.566M414.869 127.566V129.77M414.869 129.77V132.072M414.869 132.072V132.31M414.869 132.31V134.478M414.869 139.632V142.397M414.869 139.632V139.42M414.869 142.397V145.299M414.869 145.299V147.547M414.869 147.547V148.349M414.869 148.349V151.558M414.869 151.558V154.94M414.869 154.94V156.924M414.869 156.924V158.509M414.869 158.509V162.28M414.869 179.779V180.792M414.869 180.792V184.878M414.869 184.878V190.325M414.869 190.325V196.158M414.869 196.158V196.306M414.869 196.306V202.42M414.869 202.42V209.159M414.869 209.159V215.268M414.869 215.268V216.432M414.869 216.432V224.305M414.869 224.305V232.857M414.869 232.857V238.97M414.869 238.97V242.178M414.869 242.178V252.376M414.869 252.376V263.583M414.869 263.583V269.445M414.869 269.445V275.956M414.869 275.956V276H-70.8692V275.956M-70.8692 139.632V142.397M-70.8692 139.632V139.42M-70.8692 139.42V136.996M-70.8692 136.996V134.478M-70.8692 134.478V132.31M-70.8692 132.31V132.072M-70.8692 132.072V129.77M-70.8692 129.77V127.566M-70.8692 127.566V126.036M-70.8692 126.036V125.453M-70.8692 125.453V123.425M-70.8692 123.425V121.479M-70.8692 121.479V120.459M-70.8692 120.459V119.608M-70.8692 119.608V117.809M-70.8692 117.809V116.078M-70.8692 116.078V115.469M-70.8692 115.469V114.411M-70.8692 114.411V112.804M-70.8692 112.804V111.254M-70.8692 111.254V110.978M-70.8692 110.978V109.758M-70.8692 109.758V108.313M-70.8692 108.313V106.918M-70.8692 106.918H-70.8791L-70.8692 106.915M-70.8692 106.918V106.915M-70.8692 106.915V105.569M-70.8692 105.569V104.263M-70.8692 275.956V269.445M-70.8692 269.445V263.583M-70.8692 263.583V252.376M-70.8692 252.376V242.178M-70.8692 242.178V238.97M-70.8692 238.97V232.857M-70.8692 232.857V224.305M-70.8692 224.305V216.432M-70.8692 216.432V215.268M-70.8692 215.268V209.159M-70.8692 209.159V202.42M-70.8692 202.42V196.306M-70.8692 196.306V196.158M-70.8692 196.158V190.325M-70.8692 190.325V184.878M-70.8692 184.878V180.792M-70.8692 180.792V179.779M-70.8692 179.779V174.997M-70.8692 174.997V170.503M-70.8692 170.503V167.863M-70.8692 167.863V166.271M-70.8692 166.271V162.28M-70.8692 162.28V158.509M-70.8692 158.509V156.924M-70.8692 156.924V154.94M-70.8692 154.94V151.558M-70.8692 151.558V148.349M-70.8692 148.349V147.547M-70.8692 147.547V145.299M-70.8692 145.299V142.397" stroke="url(#paint0_radial_1136_515)" stroke-width="1.2" stroke-miterlimit="10" stroke-linecap="round" stroke-linejoin="round"/>
</g>
<g filter="url(#filter0_ii_1136_515)">
<path d="M214.311 119.838C213.213 117.691 211.027 116.352 208.607 116.352H180.708L183.241 73.7496C183.409 70.905 181.711 68.3448 179.016 67.3799C176.321 66.4206 173.379 67.3186 171.687 69.6166L130.234 126.13C128.805 128.076 128.603 130.62 129.701 132.767C130.8 134.92 132.985 136.253 135.406 136.253H163.007L160.469 179.251C160.301 182.09 161.999 184.65 164.689 185.615C165.411 185.872 166.151 186 166.874 186C168.869 186 170.779 185.069 172.012 183.384L213.762 126.48C215.191 124.539 215.398 121.99 214.305 119.842L214.311 119.838Z" fill="#B7B7B7"/>
</g>
</g>
<defs>
<filter id="filter0_ii_1136_515" x="129" y="65" width="86" height="123" filterUnits="userSpaceOnUse" color-interpolation-filters="sRGB">
<feFlood flood-opacity="0" result="BackgroundImageFix"/>
<feBlend mode="normal" in="SourceGraphic" in2="BackgroundImageFix" result="shape"/>
<feColorMatrix in="SourceAlpha" type="matrix" values="0 0 0 0 0 0 0 0 0 0 0 0 0 0 0 0 0 0 127 0" result="hardAlpha"/>
<feOffset dy="-2"/>
<feGaussianBlur stdDeviation="2"/>
<feComposite in2="hardAlpha" operator="arithmetic" k2="-1" k3="1"/>
<feColorMatrix type="matrix" values="0 0 0 0 0 0 0 0 0 0 0 0 0 0 0 0 0 0 0.12 0"/>
<feBlend mode="normal" in2="shape" result="effect1_innerShadow_1136_515"/>
<feColorMatrix in="SourceAlpha" type="matrix" values="0 0 0 0 0 0 0 0 0 0 0 0 0 0 0 0 0 0 127 0" result="hardAlpha"/>
<feOffset dy="2"/>
<feGaussianBlur stdDeviation="2"/>
<feComposite in2="hardAlpha" operator="arithmetic" k2="-1" k3="1"/>
<feColorMatrix type="matrix" values="0 0 0 0 1 0 0 0 0 1 0 0 0 0 1 0 0 0 1 0"/>
<feBlend mode="normal" in2="effect1_innerShadow_1136_515" result="effect2_innerShadow_1136_515"/>
</filter>
<radialGradient id="paint0_radial_1136_515" cx="0" cy="0" r="1" gradientUnits="userSpaceOnUse" gradientTransform="translate(172 189.5) rotate(90) scale(91 254.62)">
<stop offset="0.665789" stop-color="#EBEBEB"/>
<stop offset="1" stop-color="#EBEBEB" stop-opacity="0"/>
</radialGradient>
<clipPath id="clip0_1136_515">
<rect width="343.667" height="254" fill="white"/>
</clipPath>
</defs>
</svg>
