<svg width="63" height="17" viewBox="0 0 63 17" fill="none" xmlns="http://www.w3.org/2000/svg">
<g clip-path="url(#clip0_1234_1254)">
<mask id="mask0_1234_1254" style="mask-type:luminance" maskUnits="userSpaceOnUse" x="0" y="0" width="63" height="17">
<path d="M62.3244 0.5H0.543945V16.5H62.3244V0.5Z" fill="white"/>
</mask>
<g mask="url(#mask0_1234_1254)">
<path d="M15.3211 4.53244L14.9782 3.92662C14.9514 3.8792 14.9142 3.83865 14.8694 3.80816C14.8246 3.77766 14.7734 3.75804 14.7199 3.75078C14.6664 3.74355 14.6119 3.74889 14.5608 3.7664C14.5096 3.7839 14.4632 3.81308 14.425 3.85171L13.6418 4.64393C13.5842 4.7023 13.5483 4.77907 13.5403 4.86118C13.5323 4.94332 13.5526 5.02569 13.5979 5.09436C13.884 5.53638 14.1131 6.01356 14.2797 6.51436C14.5908 7.45008 14.6774 8.44723 14.5324 9.42348C14.3874 10.3997 14.0149 11.3271 13.4456 12.129C12.8764 12.9308 12.1267 13.5842 11.2586 14.0352C10.3905 14.4861 9.42876 14.7217 8.45286 14.7224C7.44751 14.7253 6.45706 14.4765 5.5698 13.9983L6.89723 12.656C7.56208 12.9106 8.27812 12.9982 8.98381 12.9112C9.68951 12.8242 10.3638 12.5651 10.9487 12.1564C11.5336 11.7477 12.0118 11.2015 12.342 10.5646C12.6723 9.9278 12.8449 9.21936 12.8448 8.50022C12.8445 8.34652 12.8362 8.19299 12.8198 8.04019C12.7677 7.52729 12.6276 7.02752 12.4057 6.56332C12.3809 6.51292 12.3447 6.46915 12.2999 6.43564C12.2552 6.40214 12.2033 6.37984 12.1483 6.37056C12.0934 6.36124 12.0372 6.36528 11.9841 6.38224C11.931 6.39919 11.8827 6.42867 11.843 6.46819L11.0482 7.27222C11.0059 7.31491 10.975 7.36784 10.9585 7.42595C10.9421 7.48409 10.9406 7.5455 10.9541 7.60441L11.0209 7.89324C11.1384 8.39852 11.1074 8.92748 10.9319 9.41519C10.7564 9.90294 10.4439 10.3282 10.0328 10.6388C9.62172 10.9494 9.12996 11.1319 8.61782 11.1638C8.10572 11.1956 7.59552 11.0755 7.14991 10.8183L6.80037 10.6155C6.7335 10.5765 6.65575 10.5609 6.57916 10.5711C6.50261 10.5812 6.4315 10.6167 6.37684 10.6719L3.13419 13.9482C3.09882 13.984 3.07141 14.027 3.05378 14.0743C3.03616 14.1216 3.02873 14.1723 3.032 14.2227C3.03527 14.2732 3.04915 14.3224 3.07273 14.367C3.0963 14.4116 3.12902 14.4506 3.1687 14.4814L3.64625 14.8519C5.02331 15.9256 6.7143 16.5053 8.45286 16.4999C12.8131 16.4999 16.3608 12.9111 16.3608 8.50022C16.3611 7.10867 16.0028 5.74108 15.3211 4.53244Z" fill="#111827"/>
<path d="M13.2584 2.14806C11.8816 1.07449 10.1908 0.494712 8.45239 0.500036C4.09158 0.500036 0.543945 4.08886 0.543945 8.50032C0.543706 9.89184 0.902052 11.2594 1.58363 12.4681L1.92649 13.0739C1.95324 13.1219 1.99064 13.1629 2.03576 13.1938C2.08087 13.2246 2.13246 13.2444 2.18644 13.2516C2.24042 13.2588 2.29532 13.2532 2.3468 13.2353C2.39828 13.2173 2.44493 13.1876 2.48307 13.1482L3.26562 12.3566C3.32328 12.2982 3.35918 12.2215 3.3672 12.1393C3.37521 12.0572 3.35486 11.9748 3.30959 11.9062C3.02367 11.464 2.79455 10.9868 2.62778 10.4862C2.31662 9.55062 2.22989 8.5536 2.37475 7.57744C2.51962 6.60128 2.89192 5.67398 3.46092 4.8721C4.02993 4.07018 4.7793 3.4167 5.64721 2.96558C6.51511 2.51445 7.47662 2.27862 8.45239 2.27757C9.45755 2.27476 10.4478 2.5235 11.3349 3.00164L10.0058 4.34448C9.34095 4.08973 8.62492 4.00205 7.91922 4.08899C7.2135 4.17597 6.53919 4.43494 5.95424 4.84371C5.36932 5.25245 4.89122 5.79878 4.56104 6.43571C4.23089 7.07264 4.05852 7.78112 4.05874 8.50032C4.05874 8.57408 4.07823 8.91078 4.08433 8.96877C4.13808 9.47846 4.27815 9.97501 4.49844 10.4366C4.52289 10.4878 4.55905 10.5324 4.60396 10.5665C4.64888 10.6007 4.70123 10.6235 4.75662 10.633C4.81204 10.6426 4.86889 10.6385 4.92244 10.6213C4.976 10.6041 5.02468 10.5742 5.06447 10.534L5.85927 9.73056C5.90179 9.68752 5.93269 9.63421 5.94908 9.57565C5.96543 9.51712 5.9667 9.4553 5.95278 9.39613L5.88711 9.10954C5.84096 8.90982 5.81742 8.70541 5.81698 8.50032C5.81698 8.03366 5.93813 7.5752 6.16829 7.17082C6.39848 6.76643 6.72962 6.43027 7.12857 6.196C7.52752 5.96176 7.98028 5.8376 8.44157 5.83597C8.90284 5.83437 9.35645 5.95533 9.75702 6.18678L10.1071 6.38947C10.1739 6.42835 10.2516 6.4439 10.328 6.43373C10.4045 6.42355 10.4755 6.38822 10.5301 6.33315L13.7705 3.05513C13.8059 3.01932 13.8333 2.97628 13.8509 2.9289C13.8686 2.88151 13.876 2.83086 13.8727 2.78034C13.8695 2.72982 13.8556 2.68058 13.832 2.63592C13.8084 2.59126 13.7757 2.5522 13.736 2.52136L13.2584 2.14806Z" fill="#111827"/>
<path d="M26.5791 10.7064C26.52 10.6579 26.4457 10.6322 26.3695 10.6339C26.2934 10.6357 26.2203 10.6648 26.1634 10.716C25.6552 11.1152 25.0658 11.4846 24.2042 11.4846C22.6274 11.4846 21.3445 10.1406 21.3445 8.48805C21.3445 6.83551 22.6219 5.48027 24.1925 5.48027C24.8766 5.48027 25.6112 5.77023 26.1534 6.25109C26.1836 6.28715 26.2215 6.31599 26.2641 6.33547C26.3068 6.35493 26.3532 6.36459 26.3999 6.3637C26.44 6.36024 26.4789 6.34802 26.5139 6.32789C26.5488 6.30779 26.5791 6.28024 26.6025 6.24715L27.1157 5.71282C27.1482 5.68059 27.1738 5.642 27.1911 5.59941C27.2083 5.55682 27.2167 5.51109 27.2159 5.46507C27.2141 5.41832 27.2027 5.3725 27.1825 5.33042C27.1623 5.28837 27.1337 5.25099 27.0984 5.22072C26.2079 4.43247 25.3057 4.07999 24.1809 4.07999C21.7798 4.07999 19.8262 6.06866 19.8262 8.51282C19.8271 9.6812 20.286 10.8015 21.1024 11.628C21.9188 12.4545 23.0259 12.9197 24.1809 12.9215C25.3107 12.9215 26.3254 12.5093 27.1157 11.7278C27.1497 11.6928 27.1764 11.6512 27.1941 11.6056C27.2119 11.5599 27.2205 11.5111 27.2192 11.462C27.2188 11.4225 27.2104 11.3835 27.1945 11.3474C27.1786 11.3112 27.1556 11.2788 27.1268 11.252L26.5791 10.7064Z" fill="#111827"/>
<path d="M30.3118 4.19937H29.5326C29.4452 4.20184 29.3622 4.23838 29.3008 4.30132C29.2394 4.36427 29.2044 4.44878 29.2031 4.53723V12.4665C29.2051 12.5545 29.2404 12.6383 29.3017 12.7007C29.3631 12.763 29.4457 12.7991 29.5326 12.8015H30.3118C30.3988 12.7991 30.4815 12.763 30.543 12.7007C30.6044 12.6383 30.6398 12.5545 30.6419 12.4665V4.53441C30.6399 4.44638 30.6045 4.36248 30.5431 4.30011C30.4817 4.23774 30.3989 4.20168 30.3118 4.19937Z" fill="#111827"/>
<path d="M39.5049 6.87047C39.5049 5.39867 38.306 4.19937 36.8332 4.19937H33.6314C33.5434 4.20056 33.4596 4.23668 33.3979 4.29992C33.3362 4.36315 33.3018 4.4484 33.3018 4.53723V12.4665C33.3024 12.5549 33.3375 12.6394 33.3989 12.702C33.4606 12.7647 33.5441 12.8004 33.6314 12.8015H34.3966C34.4836 12.799 34.5661 12.7628 34.6275 12.7005C34.6885 12.6382 34.724 12.5544 34.7262 12.4665V9.51844H36.3325L37.8686 12.6343C37.8964 12.6855 37.9372 12.7282 37.9872 12.758C38.0368 12.7877 38.0935 12.8033 38.1514 12.8032H39.0697C39.1275 12.8053 39.1851 12.7917 39.2364 12.7639C39.2873 12.7361 39.3303 12.6951 39.3607 12.645C39.3904 12.592 39.4059 12.5322 39.4059 12.4713C39.4059 12.4105 39.3904 12.3506 39.3607 12.2976L37.8025 9.35742C38.8565 8.88164 39.5049 7.93911 39.5049 6.87047ZM38.0688 6.89467C38.0688 7.64183 37.4599 8.273 36.7393 8.273H34.7496V5.57604H36.7386C37.4596 5.57604 38.0688 6.18017 38.0688 6.89467Z" fill="#111827"/>
<path d="M47.8699 10.7064C47.8107 10.6579 47.7364 10.6322 47.6601 10.6339C47.5839 10.6357 47.5108 10.6648 47.4539 10.716C46.9459 11.1152 46.3566 11.4846 45.4949 11.4846C43.918 11.4846 42.635 10.1406 42.635 8.48805C42.635 6.83551 43.9152 5.48027 45.4832 5.48027C46.1668 5.48027 46.9019 5.77023 47.4441 6.25109C47.4741 6.28719 47.5121 6.31605 47.5548 6.33554C47.5972 6.35499 47.6437 6.36463 47.6905 6.3637C47.7307 6.36024 47.7696 6.34802 47.8044 6.32789C47.8395 6.30779 47.8696 6.28024 47.8933 6.24715L48.4064 5.71282C48.4386 5.68056 48.4642 5.64194 48.4813 5.59935C48.4984 5.55675 48.507 5.51106 48.506 5.46507C48.5041 5.41839 48.493 5.37256 48.4728 5.33048C48.4529 5.28843 48.4241 5.25106 48.389 5.22072C47.4985 4.43247 46.5963 4.07999 45.4715 4.07999C43.0699 4.07941 41.1191 6.06808 41.1191 8.51227C41.1198 9.68075 41.5791 10.8011 42.3955 11.6277C43.212 12.4542 44.3191 12.9192 45.4743 12.9209C46.6036 12.9209 47.6181 12.5087 48.4092 11.7272C48.4431 11.6921 48.4696 11.6504 48.4877 11.6047C48.5054 11.559 48.5139 11.5101 48.5126 11.4609C48.512 11.4215 48.5035 11.3826 48.4877 11.3466C48.4718 11.3106 48.4487 11.2783 48.4203 11.2515L47.8699 10.7064Z" fill="#111827"/>
<path d="M55.0157 11.4721H51.9322V4.53424C51.9309 4.44579 51.8961 4.36127 51.8344 4.29833C51.7731 4.23539 51.6902 4.19888 51.6026 4.19641H50.8234C50.7358 4.1976 50.652 4.23369 50.5903 4.29692C50.5286 4.36016 50.4938 4.4454 50.4941 4.53424V12.4664C50.4948 12.5547 50.5296 12.6393 50.5913 12.7019C50.6529 12.7645 50.7361 12.8002 50.8234 12.8014H55.0135C55.1008 12.8003 55.1843 12.7647 55.246 12.7021C55.3077 12.6394 55.3428 12.5548 55.3434 12.4664V11.8071C55.3428 11.719 55.308 11.6347 55.2469 11.5722C55.1856 11.5096 55.1027 11.4737 55.0157 11.4721Z" fill="#111827"/>
<path d="M61.9949 5.53983C62.0825 5.53865 62.1663 5.50252 62.228 5.43929C62.2897 5.37606 62.3241 5.29081 62.3241 5.20201V4.53424C62.3241 4.4454 62.2897 4.36016 62.228 4.29692C62.1663 4.23369 62.0825 4.1976 61.9949 4.19641H57.2866C57.1987 4.1976 57.1152 4.23369 57.0535 4.29692C56.9918 4.36016 56.957 4.4454 56.957 4.53424V12.4664C56.958 12.5547 56.9928 12.6393 57.0545 12.7019C57.1158 12.7645 57.1993 12.8002 57.2866 12.8014H61.9949C62.0822 12.8002 62.1653 12.7645 62.227 12.7019C62.2887 12.6393 62.3235 12.5547 62.3241 12.4664V11.8071C62.3235 11.7187 62.2887 11.6342 62.227 11.5716C62.1653 11.509 62.0822 11.4732 61.9949 11.4721H58.3815V9.11065H61.4176C61.5055 9.10959 61.5893 9.07356 61.6513 9.0103C61.713 8.94707 61.7478 8.86172 61.7475 8.77283V8.10505C61.7456 8.01702 61.7102 7.93311 61.6488 7.87075C61.5874 7.80838 61.5045 7.77231 61.4176 7.77004H58.3815V5.53983H61.9949Z" fill="#111827"/>
</g>
</g>
<defs>
<clipPath id="clip0_1234_1254">
<rect width="62" height="16" fill="white" transform="translate(0.543945 0.5)"/>
</clipPath>
</defs>
</svg>
