<svg width="20" height="15" viewBox="0 0 20 15" fill="none" xmlns="http://www.w3.org/2000/svg">
<path d="M5 15C3.618 15 2.43917 14.5206 1.4635 13.5617C0.487833 12.6029 0 11.4311 0 10.0463C0 8.80392 0.399667 7.71125 1.199 6.76825C1.99833 5.82525 2.98967 5.26658 4.173 5.09225C4.4935 3.59742 5.24517 2.375 6.428 1.425C7.61067 0.475 8.968 0 10.5 0C11.973 0 13.2758 0.431417 14.4085 1.29425C15.5413 2.15708 16.3106 3.26267 16.7163 4.611C16.7669 4.80367 16.7381 4.9775 16.6298 5.1325C16.5213 5.2875 16.3658 5.3805 16.1635 5.4115C15.0018 5.65383 14.0512 6.23108 13.3115 7.14325C12.5718 8.05542 12.202 9.10383 12.202 10.2885V14.096C12.202 14.3522 12.1153 14.5668 11.942 14.74C11.7688 14.9133 11.5542 15 11.298 15H5ZM15.298 15C15.042 15 14.8273 14.9133 14.654 14.74C14.4808 14.5668 14.3943 14.3522 14.3943 14.096V11.2402C14.3943 10.9826 14.4868 10.7692 14.672 10.6C14.8573 10.4308 15.0821 10.3463 15.3462 10.3463V9.34625C15.3462 8.83592 15.5281 8.399 15.8917 8.0355C16.2554 7.67217 16.6926 7.4905 17.2033 7.4905C17.7139 7.4905 18.149 7.67217 18.5085 8.0355C18.8682 8.399 19.048 8.83592 19.048 9.34625V10.3463C19.3122 10.3463 19.5368 10.4308 19.722 10.6C19.9073 10.7692 20 10.9826 20 11.2402V14.096C20 14.3522 19.9133 14.5668 19.74 14.74C19.5668 14.9133 19.3522 15 19.096 15H15.298ZM16.2307 10.3463H18.1635V9.34625C18.1635 9.06292 18.0741 8.83017 17.8953 8.648C17.7164 8.466 17.4853 8.375 17.202 8.375C16.9187 8.375 16.6859 8.466 16.5038 8.648C16.3218 8.83017 16.2307 9.06292 16.2307 9.34625V10.3463Z" fill="#0F172A"/>
</svg>
