<svg width="39" height="44" viewBox="0 0 39 44" fill="none" xmlns="http://www.w3.org/2000/svg">
<path d="M6.5 43.3333C4.69444 43.3333 3.15972 42.7014 1.89583 41.4375C0.631944 40.1736 0 38.6389 0 36.8333V34.6667C0 33.475 0.424306 32.4549 1.27292 31.6063C2.12153 30.7576 3.14167 30.3333 4.33333 30.3333H6.5V4.33333C6.5 3.14167 6.92431 2.12153 7.77292 1.27292C8.62153 0.424306 9.64167 0 10.8333 0H34.6667C35.8583 0 36.8785 0.424306 37.7271 1.27292C38.5757 2.12153 39 3.14167 39 4.33333V36.8333C39 38.6389 38.3681 40.1736 37.1042 41.4375C35.8403 42.7014 34.3056 43.3333 32.5 43.3333H6.5ZM32.5 39C33.1139 39 33.6285 38.7924 34.0438 38.3771C34.459 37.9618 34.6667 37.4472 34.6667 36.8333V4.33333H10.8333V30.3333H26C27.1917 30.3333 28.2118 30.7576 29.0604 31.6063C29.909 32.4549 30.3333 33.475 30.3333 34.6667V36.8333C30.3333 37.4472 30.541 37.9618 30.9563 38.3771C31.3715 38.7924 31.8861 39 32.5 39ZM15.1667 15.1667C14.5528 15.1667 14.0382 14.959 13.6229 14.5438C13.2076 14.1285 13 13.6139 13 13C13 12.3861 13.2076 11.8715 13.6229 11.4563C14.0382 11.041 14.5528 10.8333 15.1667 10.8333H30.3333C30.9472 10.8333 31.4618 11.041 31.8771 11.4563C32.2924 11.8715 32.5 12.3861 32.5 13C32.5 13.6139 32.2924 14.1285 31.8771 14.5438C31.4618 14.959 30.9472 15.1667 30.3333 15.1667H15.1667ZM15.1667 21.6667C14.5528 21.6667 14.0382 21.459 13.6229 21.0438C13.2076 20.6285 13 20.1139 13 19.5C13 18.8861 13.2076 18.3715 13.6229 17.9563C14.0382 17.541 14.5528 17.3333 15.1667 17.3333H30.3333C30.9472 17.3333 31.4618 17.541 31.8771 17.9563C32.2924 18.3715 32.5 18.8861 32.5 19.5C32.5 20.1139 32.2924 20.6285 31.8771 21.0438C31.4618 21.459 30.9472 21.6667 30.3333 21.6667H15.1667ZM6.5 39H26V34.6667H4.33333V36.8333C4.33333 37.4472 4.54097 37.9618 4.95625 38.3771C5.37153 38.7924 5.88611 39 6.5 39ZM6.5 39H4.33333H26H6.5Z" fill="#2D2D2D"/>
</svg>
