<svg width="310" height="210" viewBox="0 0 310 210" fill="none" xmlns="http://www.w3.org/2000/svg">
<g filter="url(#filter0_d_911_689)">
<g clip-path="url(#clip0_911_689)">
<rect x="14" y="14" width="282" height="239" rx="13.5" fill="white"/>
<rect x="31.625" y="35" width="250" height="52" rx="12" fill="#F5F5F5"/>
<path d="M54.5682 58.6477H52.7955C52.7273 58.2689 52.6004 57.9356 52.4148 57.6477C52.2292 57.3598 52.0019 57.1155 51.733 56.9148C51.464 56.714 51.1629 56.5625 50.8295 56.4602C50.5 56.358 50.1496 56.3068 49.7784 56.3068C49.108 56.3068 48.5076 56.4754 47.9773 56.8125C47.4508 57.1496 47.0341 57.6439 46.7273 58.2955C46.4242 58.947 46.2727 59.7424 46.2727 60.6818C46.2727 61.6288 46.4242 62.428 46.7273 63.0795C47.0341 63.7311 47.4527 64.2235 47.983 64.5568C48.5133 64.8902 49.1098 65.0568 49.7727 65.0568C50.1402 65.0568 50.4886 65.0076 50.8182 64.9091C51.1515 64.8068 51.4527 64.6572 51.7216 64.4602C51.9905 64.2633 52.2178 64.0227 52.4034 63.7386C52.5928 63.4508 52.7235 63.1212 52.7955 62.75L54.5682 62.7557C54.4735 63.3277 54.2898 63.8542 54.017 64.3352C53.7481 64.8125 53.4015 65.2254 52.9773 65.5739C52.5568 65.9186 52.0758 66.1856 51.5341 66.375C50.9924 66.5644 50.4015 66.6591 49.7614 66.6591C48.7538 66.6591 47.8561 66.4205 47.0682 65.9432C46.2803 65.4621 45.6591 64.7746 45.2045 63.8807C44.7538 62.9867 44.5284 61.9205 44.5284 60.6818C44.5284 59.4394 44.7557 58.3731 45.2102 57.483C45.6648 56.589 46.286 55.9034 47.0739 55.4261C47.8617 54.9451 48.7576 54.7045 49.7614 54.7045C50.3788 54.7045 50.9545 54.7936 51.4886 54.9716C52.0265 55.1458 52.5095 55.4034 52.9375 55.7443C53.3655 56.0814 53.7197 56.4943 54 56.983C54.2803 57.4678 54.4697 58.0227 54.5682 58.6477ZM56.2127 66.5V57.7727H57.8547V59.1591H57.9456C58.1047 58.6894 58.385 58.3201 58.7865 58.0511C59.1918 57.7784 59.6502 57.642 60.1615 57.642C60.2676 57.642 60.3926 57.6458 60.5365 57.6534C60.6843 57.661 60.7998 57.6705 60.8831 57.6818V59.3068C60.8149 59.2879 60.6937 59.267 60.5195 59.2443C60.3452 59.2178 60.171 59.2045 59.9968 59.2045C59.5952 59.2045 59.2373 59.2898 58.9229 59.4602C58.6123 59.6269 58.3661 59.8598 58.1843 60.1591C58.0024 60.4545 57.9115 60.7917 57.9115 61.1705V66.5H56.2127ZM65.3969 66.6761C64.5788 66.6761 63.8647 66.4886 63.2549 66.1136C62.645 65.7386 62.1716 65.214 61.8344 64.5398C61.4973 63.8655 61.3288 63.0777 61.3288 62.1761C61.3288 61.2708 61.4973 60.4792 61.8344 59.8011C62.1716 59.1231 62.645 58.5966 63.2549 58.2216C63.8647 57.8466 64.5788 57.6591 65.3969 57.6591C66.2151 57.6591 66.9291 57.8466 67.539 58.2216C68.1488 58.5966 68.6223 59.1231 68.9594 59.8011C69.2966 60.4792 69.4651 61.2708 69.4651 62.1761C69.4651 63.0777 69.2966 63.8655 68.9594 64.5398C68.6223 65.214 68.1488 65.7386 67.539 66.1136C66.9291 66.4886 66.2151 66.6761 65.3969 66.6761ZM65.4026 65.25C65.9329 65.25 66.3723 65.1098 66.7208 64.8295C67.0693 64.5492 67.3269 64.1761 67.4935 63.7102C67.664 63.2443 67.7492 62.7311 67.7492 62.1705C67.7492 61.6136 67.664 61.1023 67.4935 60.6364C67.3269 60.1667 67.0693 59.7898 66.7208 59.5057C66.3723 59.2216 65.9329 59.0795 65.4026 59.0795C64.8685 59.0795 64.4253 59.2216 64.0731 59.5057C63.7246 59.7898 63.4651 60.1667 63.2947 60.6364C63.128 61.1023 63.0447 61.6136 63.0447 62.1705C63.0447 62.7311 63.128 63.2443 63.2947 63.7102C63.4651 64.1761 63.7246 64.5492 64.0731 64.8295C64.4253 65.1098 64.8685 65.25 65.4026 65.25ZM77.5812 59.9034L76.0414 60.1761C75.977 59.9792 75.8748 59.7917 75.7346 59.6136C75.5982 59.4356 75.4126 59.2898 75.1778 59.1761C74.9429 59.0625 74.6494 59.0057 74.2971 59.0057C73.816 59.0057 73.4145 59.1136 73.0926 59.3295C72.7706 59.5417 72.6096 59.8163 72.6096 60.1534C72.6096 60.4451 72.7176 60.6799 72.9335 60.858C73.1494 61.036 73.4979 61.1818 73.9789 61.2955L75.3653 61.6136C76.1683 61.7992 76.7668 62.0852 77.1607 62.4716C77.5547 62.858 77.7516 63.3598 77.7516 63.9773C77.7516 64.5 77.6001 64.9659 77.2971 65.375C76.9979 65.7803 76.5793 66.0985 76.0414 66.3295C75.5073 66.5606 74.888 66.6761 74.1835 66.6761C73.2062 66.6761 72.4088 66.4678 71.7914 66.0511C71.174 65.6307 70.7952 65.0341 70.6551 64.2614L72.2971 64.0114C72.3994 64.4394 72.6096 64.7633 72.9278 64.983C73.246 65.1989 73.6607 65.3068 74.1721 65.3068C74.7289 65.3068 75.174 65.1913 75.5073 64.9602C75.8407 64.7254 76.0073 64.4394 76.0073 64.1023C76.0073 63.8295 75.9051 63.6004 75.7005 63.4148C75.4998 63.2292 75.191 63.089 74.7744 62.9943L73.2971 62.6705C72.4827 62.4848 71.8804 62.1894 71.4903 61.7841C71.1039 61.3788 70.9107 60.8655 70.9107 60.2443C70.9107 59.7292 71.0547 59.2784 71.3426 58.892C71.6304 58.5057 72.0282 58.2045 72.5357 57.9886C73.0433 57.7689 73.6248 57.6591 74.2801 57.6591C75.2232 57.6591 75.9657 57.8636 76.5073 58.2727C77.049 58.678 77.407 59.2216 77.5812 59.9034ZM85.8393 59.9034L84.2995 60.1761C84.2352 59.9792 84.1329 59.7917 83.9927 59.6136C83.8564 59.4356 83.6708 59.2898 83.4359 59.1761C83.2011 59.0625 82.9075 59.0057 82.5552 59.0057C82.0742 59.0057 81.6727 59.1136 81.3507 59.3295C81.0287 59.5417 80.8677 59.8163 80.8677 60.1534C80.8677 60.4451 80.9757 60.6799 81.1916 60.858C81.4075 61.036 81.756 61.1818 82.237 61.2955L83.6234 61.6136C84.4264 61.7992 85.0249 62.0852 85.4189 62.4716C85.8128 62.858 86.0098 63.3598 86.0098 63.9773C86.0098 64.5 85.8583 64.9659 85.5552 65.375C85.256 65.7803 84.8374 66.0985 84.2995 66.3295C83.7655 66.5606 83.1461 66.6761 82.4416 66.6761C81.4643 66.6761 80.667 66.4678 80.0495 66.0511C79.4321 65.6307 79.0533 65.0341 78.9132 64.2614L80.5552 64.0114C80.6575 64.4394 80.8677 64.7633 81.1859 64.983C81.5041 65.1989 81.9189 65.3068 82.4302 65.3068C82.987 65.3068 83.4321 65.1913 83.7655 64.9602C84.0988 64.7254 84.2655 64.4394 84.2655 64.1023C84.2655 63.8295 84.1632 63.6004 83.9586 63.4148C83.7579 63.2292 83.4492 63.089 83.0325 62.9943L81.5552 62.6705C80.7408 62.4848 80.1386 62.1894 79.7484 61.7841C79.362 61.3788 79.1689 60.8655 79.1689 60.2443C79.1689 59.7292 79.3128 59.2784 79.6007 58.892C79.8886 58.5057 80.2863 58.2045 80.7939 57.9886C81.3014 57.7689 81.8829 57.6591 82.5382 57.6591C83.4814 57.6591 84.2238 57.8636 84.7655 58.2727C85.3071 58.678 85.6651 59.2216 85.8393 59.9034ZM97.3588 58.6477H95.5861C95.5179 58.2689 95.391 57.9356 95.2054 57.6477C95.0198 57.3598 94.7925 57.1155 94.5236 56.9148C94.2546 56.714 93.9535 56.5625 93.6202 56.4602C93.2906 56.358 92.9402 56.3068 92.569 56.3068C91.8986 56.3068 91.2982 56.4754 90.7679 56.8125C90.2414 57.1496 89.8247 57.6439 89.5179 58.2955C89.2149 58.947 89.0634 59.7424 89.0634 60.6818C89.0634 61.6288 89.2149 62.428 89.5179 63.0795C89.8247 63.7311 90.2433 64.2235 90.7736 64.5568C91.3039 64.8902 91.9005 65.0568 92.5634 65.0568C92.9308 65.0568 93.2793 65.0076 93.6088 64.9091C93.9421 64.8068 94.2433 64.6572 94.5122 64.4602C94.7812 64.2633 95.0084 64.0227 95.194 63.7386C95.3834 63.4508 95.5141 63.1212 95.5861 62.75L97.3588 62.7557C97.2641 63.3277 97.0804 63.8542 96.8077 64.3352C96.5387 64.8125 96.1921 65.2254 95.7679 65.5739C95.3474 65.9186 94.8664 66.1856 94.3247 66.375C93.7831 66.5644 93.1921 66.6591 92.552 66.6591C91.5444 66.6591 90.6467 66.4205 89.8588 65.9432C89.0709 65.4621 88.4497 64.7746 87.9952 63.8807C87.5444 62.9867 87.319 61.9205 87.319 60.6818C87.319 59.4394 87.5463 58.3731 88.0009 57.483C88.4554 56.589 89.0766 55.9034 89.8645 55.4261C90.6524 54.9451 91.5482 54.7045 92.552 54.7045C93.1694 54.7045 93.7452 54.7936 94.2793 54.9716C94.8171 55.1458 95.3001 55.4034 95.7281 55.7443C96.1562 56.0814 96.5103 56.4943 96.7906 56.983C97.0709 57.4678 97.2603 58.0227 97.3588 58.6477ZM100.702 61.3182V66.5H99.0033V54.8636H100.679V59.1932H100.787C100.992 58.7235 101.304 58.3504 101.725 58.0739C102.145 57.7973 102.695 57.6591 103.373 57.6591C103.971 57.6591 104.494 57.7822 104.941 58.0284C105.392 58.2746 105.74 58.642 105.986 59.1307C106.236 59.6155 106.361 60.2216 106.361 60.9489V66.5H104.662V61.1534C104.662 60.5133 104.498 60.017 104.168 59.6648C103.839 59.3087 103.38 59.1307 102.793 59.1307C102.392 59.1307 102.032 59.2159 101.714 59.3864C101.399 59.5568 101.151 59.8068 100.969 60.1364C100.791 60.4621 100.702 60.8561 100.702 61.3182ZM110.848 66.6932C110.295 66.6932 109.795 66.5909 109.348 66.3864C108.901 66.178 108.547 65.8769 108.286 65.483C108.028 65.089 107.899 64.6061 107.899 64.0341C107.899 63.5417 107.994 63.1364 108.183 62.8182C108.373 62.5 108.628 62.2481 108.95 62.0625C109.272 61.8769 109.632 61.7367 110.03 61.642C110.428 61.5473 110.833 61.4754 111.246 61.4261C111.769 61.3655 112.193 61.3163 112.519 61.2784C112.844 61.2367 113.081 61.1705 113.229 61.0795C113.376 60.9886 113.45 60.8409 113.45 60.6364V60.5966C113.45 60.1004 113.31 59.7159 113.03 59.4432C112.753 59.1705 112.34 59.0341 111.791 59.0341C111.219 59.0341 110.769 59.161 110.439 59.4148C110.113 59.6648 109.888 59.9432 109.763 60.25L108.166 59.8864C108.356 59.3561 108.632 58.928 108.996 58.6023C109.363 58.2727 109.786 58.0341 110.263 57.8864C110.74 57.7348 111.242 57.6591 111.769 57.6591C112.117 57.6591 112.486 57.7008 112.876 57.7841C113.27 57.8636 113.638 58.0114 113.979 58.2273C114.323 58.4432 114.606 58.7519 114.825 59.1534C115.045 59.5511 115.155 60.0682 115.155 60.7045V66.5H113.496V65.3068H113.428C113.318 65.5265 113.153 65.7424 112.933 65.9545C112.714 66.1667 112.431 66.3428 112.087 66.483C111.742 66.6231 111.329 66.6932 110.848 66.6932ZM111.217 65.3295C111.687 65.3295 112.089 65.2367 112.422 65.0511C112.759 64.8655 113.015 64.6231 113.189 64.3239C113.367 64.0208 113.456 63.697 113.456 63.3523V62.2273C113.395 62.2879 113.278 62.3447 113.104 62.3977C112.933 62.447 112.738 62.4905 112.519 62.5284C112.299 62.5625 112.085 62.5947 111.876 62.625C111.668 62.6515 111.494 62.6742 111.354 62.6932C111.024 62.7348 110.723 62.8049 110.45 62.9034C110.181 63.0019 109.965 63.1439 109.803 63.3295C109.644 63.5114 109.564 63.7538 109.564 64.0568C109.564 64.4773 109.719 64.7955 110.03 65.0114C110.34 65.2235 110.736 65.3295 111.217 65.3295ZM117.098 66.5V57.7727H118.797V66.5H117.098ZM117.956 56.4261C117.66 56.4261 117.406 56.3277 117.194 56.1307C116.986 55.9299 116.882 55.6913 116.882 55.4148C116.882 55.1345 116.986 54.8958 117.194 54.6989C117.406 54.4981 117.66 54.3977 117.956 54.3977C118.251 54.3977 118.503 54.4981 118.711 54.6989C118.923 54.8958 119.029 55.1345 119.029 55.4148C119.029 55.6913 118.923 55.9299 118.711 56.1307C118.503 56.3277 118.251 56.4261 117.956 56.4261ZM122.461 61.3182V66.5H120.762V57.7727H122.393V59.1932H122.501C122.701 58.7311 123.016 58.3598 123.444 58.0795C123.876 57.7992 124.419 57.6591 125.075 57.6591C125.669 57.6591 126.19 57.7841 126.637 58.0341C127.084 58.2803 127.431 58.6477 127.677 59.1364C127.923 59.625 128.046 60.2292 128.046 60.9489V66.5H126.347V61.1534C126.347 60.5208 126.183 60.0265 125.853 59.6705C125.523 59.3106 125.071 59.1307 124.495 59.1307C124.101 59.1307 123.751 59.2159 123.444 59.3864C123.141 59.5568 122.9 59.8068 122.722 60.1364C122.548 60.4621 122.461 60.8561 122.461 61.3182Z" fill="#666666"/>
<rect x="238.792" y="51.75" width="30.8333" height="18.5" rx="9.25" fill="#4166FB"/>
<circle cx="260.375" cy="61.0001" r="7.19444" fill="white"/>
<rect x="32.125" y="95.5" width="249" height="56" rx="11.5" stroke="#D8D8D8"/>
<path d="M46.9387 117.91V129.089C46.9387 129.803 47.3422 130.463 47.9957 130.819L58.2359 136.41C58.8894 136.765 59.6939 136.765 60.3474 136.41L70.5877 130.819C71.2411 130.463 71.6446 129.803 71.6446 129.089V117.91C71.6446 117.197 71.2411 116.537 70.5877 116.181L60.3474 110.59C59.6939 110.235 58.8894 110.235 58.2359 110.59L47.9932 116.181C47.3397 116.537 46.9387 117.197 46.9387 117.91Z" fill="#213147"/>
<path d="M61.4667 125.314L60.1422 129.363C60.1063 129.475 60.1063 129.598 60.1422 129.71L62.4208 136.677L65.0564 134.98L61.8932 125.314C61.8214 125.092 61.5385 125.092 61.4667 125.314Z" fill="#12AAFF"/>
<path d="M64.0518 118.731C63.9593 118.501 63.5951 118.501 63.5026 118.731L61.7971 122.907C61.7509 123.023 61.7509 123.15 61.7971 123.266L66.6041 135.029L69.9977 133.28L64.0518 118.731Z" fill="#12AAFF"/>
<path d="M59.2891 110.513C59.3643 110.513 59.4395 110.533 59.5069 110.567L71.1118 116.856C71.2465 116.929 71.3295 117.065 71.3295 117.209V129.784C71.3295 129.93 71.2465 130.064 71.1118 130.137L59.5069 136.426C59.4421 136.463 59.3643 136.479 59.2891 136.479C59.214 136.479 59.1388 136.46 59.0714 136.426L47.4665 130.142C47.3317 130.069 47.2488 129.933 47.2488 129.789V117.211C47.2488 117.065 47.3317 116.931 47.4665 116.858L59.0714 110.569C59.1388 110.533 59.214 110.513 59.2891 110.513ZM59.2891 108.677C58.877 108.677 58.4623 108.776 58.0916 108.978L46.4893 115.265C45.748 115.666 45.2917 116.408 45.2917 117.211V129.787C45.2917 130.589 45.748 131.331 46.4893 131.733L58.0942 138.022C58.4649 138.222 58.877 138.324 59.2917 138.324C59.7039 138.324 60.1186 138.224 60.4893 138.022L72.0942 131.733C72.8354 131.331 73.2917 130.589 73.2917 129.787V117.211C73.2917 116.408 72.8354 115.666 72.0942 115.265L60.4867 108.978C60.116 108.776 59.7013 108.677 59.2891 108.677Z" fill="#9DCCED"/>
<path d="M51.8799 134.395L52.9735 131.735L55.174 133.36L53.1168 135.029L51.8799 134.395Z" fill="#213147"/>
<path d="M58.2081 116.912H55.302C55.0844 116.912 54.8898 117.04 54.8155 117.234L48.5859 133.388L51.5919 135.03L58.4514 117.241C58.5154 117.081 58.3899 116.912 58.2081 116.912Z" fill="white"/>
<path d="M63.1716 116.912H60.5037C60.3039 116.912 60.1252 117.036 60.0571 117.224L53.5271 135.086L56.2867 136.677L63.3949 117.231C63.4514 117.076 63.3362 116.912 63.1716 116.912Z" fill="white"/>
<path d="M88.2061 129.5L92.5308 117.522H94.5396L98.8643 129.5H96.9053L95.8262 126.263H91.2441L90.1567 129.5H88.2061ZM93.4604 119.622L91.7422 124.769H95.3281L93.6016 119.622H93.4604ZM100.4 129.5V120.485H102.202V121.847H102.334C102.658 120.892 103.496 120.328 104.7 120.328C104.991 120.328 105.306 120.369 105.489 120.411V122.071C105.165 122.004 104.858 121.963 104.517 121.963C103.139 121.963 102.202 122.81 102.202 124.113V129.5H100.4ZM111.656 129.649C110.395 129.649 109.407 129.068 108.884 128.081H108.751V129.5H106.95V116.949H108.751V121.913H108.884C109.365 120.942 110.42 120.328 111.656 120.328C113.947 120.328 115.392 122.129 115.392 124.984V125.001C115.392 127.832 113.931 129.649 111.656 129.649ZM111.15 128.114C112.653 128.114 113.557 126.935 113.557 125.001V124.984C113.557 123.05 112.653 121.872 111.15 121.872C109.648 121.872 108.718 123.059 108.718 124.984V125.001C108.718 126.927 109.648 128.114 111.15 128.114ZM118.14 118.875C117.517 118.875 117.011 118.369 117.011 117.754C117.011 117.132 117.517 116.625 118.14 116.625C118.754 116.625 119.269 117.132 119.269 117.754C119.269 118.369 118.754 118.875 118.14 118.875ZM117.235 129.5V120.485H119.028V129.5H117.235ZM124.714 129.558C122.73 129.558 121.917 128.861 121.917 127.126V121.905H120.506V120.485H121.917V118.211H123.751V120.485H125.685V121.905H123.751V126.694C123.751 127.666 124.117 128.064 125.005 128.064C125.279 128.064 125.436 128.056 125.685 128.031V129.467C125.395 129.517 125.063 129.558 124.714 129.558ZM127.446 129.5V120.485H129.247V121.847H129.38C129.703 120.892 130.542 120.328 131.745 120.328C132.036 120.328 132.351 120.369 132.534 120.411V122.071C132.21 122.004 131.903 121.963 131.563 121.963C130.185 121.963 129.247 122.81 129.247 124.113V129.5H127.446ZM136.917 129.674C134.883 129.674 133.829 128.454 133.829 126.321V120.485H135.63V125.897C135.63 127.392 136.178 128.13 137.498 128.13C138.942 128.13 139.714 127.226 139.714 125.773V120.485H141.507V129.5H139.714V128.139H139.573C139.142 129.11 138.229 129.674 136.917 129.674ZM143.766 129.5V120.485H145.567V121.872H145.7C146.098 120.884 146.978 120.311 148.157 120.311C149.385 120.311 150.257 120.95 150.655 121.921H150.796C151.253 120.95 152.29 120.311 153.544 120.311C155.362 120.311 156.424 121.407 156.424 123.283V129.5H154.631V123.714C154.631 122.469 154.067 121.855 152.888 121.855C151.743 121.855 150.987 122.71 150.987 123.797V129.5H149.194V123.532C149.194 122.502 148.522 121.855 147.459 121.855C146.372 121.855 145.567 122.785 145.567 123.963V129.5H143.766Z" fill="#1A1A1A"/>
<circle cx="164.625" cy="123.5" r="2" fill="#D4D4D4"/>
<path d="M171.097 128L174.733 118.136H175.95L179.587 128H178.295L177.304 125.177H173.38L172.389 128H171.097ZM175.287 119.729L173.742 124.131H176.941L175.396 119.729H175.287ZM181.036 128V118.136H184.803C186.703 118.136 187.948 119.298 187.948 121.068V121.082C187.948 122.449 187.202 123.516 185.965 123.905L188.248 128H186.806L184.694 124.097H182.267V128H181.036ZM182.267 123.003H184.694C185.958 123.003 186.676 122.326 186.676 121.123V121.109C186.676 119.934 185.91 119.229 184.639 119.229H182.267V123.003ZM189.903 128V118.136H193.676C195.488 118.136 196.595 119.086 196.595 120.59V120.604C196.595 121.622 195.843 122.552 194.893 122.723V122.832C196.24 123.003 197.094 123.926 197.094 125.225V125.238C197.094 126.968 195.85 128 193.752 128H189.903ZM193.417 119.223H191.133V122.388H193.102C194.592 122.388 195.351 121.854 195.351 120.815V120.802C195.351 119.804 194.64 119.223 193.417 119.223ZM193.451 123.447H191.133V126.913H193.567C195.05 126.913 195.83 126.312 195.83 125.177V125.163C195.83 124.028 195.023 123.447 193.451 123.447Z" fill="#666666"/>
<rect x="32.125" y="160.5" width="249" height="56" rx="11.5" stroke="#D8D8D8"/>
<rect x="43.625" y="172.5" width="32" height="32" rx="16" fill="#1A1A1A"/>
<path d="M69.6459 193.692L66.3235 197.254C66.2516 197.332 66.1646 197.394 66.0678 197.436C65.971 197.478 65.8666 197.5 65.761 197.5H50.011C49.9359 197.5 49.8624 197.478 49.7996 197.437C49.7368 197.396 49.6873 197.337 49.6572 197.268C49.6272 197.199 49.6179 197.123 49.6304 197.049C49.643 196.975 49.6769 196.906 49.7279 196.851L53.0466 193.289C53.1185 193.211 53.2055 193.15 53.3023 193.107C53.3991 193.065 53.5035 193.043 53.6091 193.043H69.3591C69.4349 193.042 69.5095 193.062 69.5734 193.103C69.6374 193.144 69.6879 193.203 69.7185 193.272C69.7492 193.341 69.7587 193.418 69.7458 193.493C69.7328 193.568 69.6981 193.637 69.6459 193.692ZM66.3235 186.516C66.2513 186.439 66.1642 186.378 66.0675 186.336C65.9708 186.293 65.8665 186.271 65.761 186.271H50.011C49.9359 186.271 49.8624 186.293 49.7996 186.334C49.7368 186.375 49.6873 186.434 49.6572 186.502C49.6272 186.571 49.6179 186.647 49.6304 186.721C49.643 186.796 49.6769 186.864 49.7279 186.919L53.0466 190.484C53.1188 190.561 53.2059 190.622 53.3026 190.665C53.3993 190.707 53.5036 190.729 53.6091 190.729H69.3591C69.434 190.729 69.5072 190.707 69.5698 190.665C69.6324 190.624 69.6815 190.566 69.7114 190.497C69.7412 190.428 69.7503 190.352 69.7377 190.278C69.7251 190.204 69.6913 190.136 69.6403 190.081L66.3235 186.516ZM50.011 183.957H65.761C65.8666 183.957 65.971 183.935 66.0678 183.893C66.1646 183.85 66.2516 183.789 66.3235 183.711L69.6459 180.149C69.6849 180.108 69.7143 180.058 69.7319 180.005C69.7496 179.951 69.7552 179.894 69.7483 179.837C69.7414 179.781 69.7221 179.727 69.6918 179.679C69.6616 179.631 69.6212 179.591 69.5734 179.56C69.5094 179.519 69.4349 179.499 69.3591 179.5H53.6091C53.5035 179.5 53.3991 179.522 53.3023 179.564C53.2055 179.607 53.1185 179.668 53.0466 179.746L49.7279 183.308C49.6769 183.363 49.643 183.432 49.6304 183.506C49.6179 183.58 49.6272 183.656 49.6572 183.725C49.6873 183.794 49.7368 183.853 49.7996 183.894C49.8624 183.935 49.9359 183.957 50.011 183.957Z" fill="url(#paint0_linear_911_689)"/>
<path d="M93.1782 194.791C90.4722 194.791 88.7373 193.421 88.5713 191.404L88.563 191.296H90.3892L90.3975 191.387C90.4971 192.475 91.6509 193.172 93.2529 193.172C94.7803 193.172 95.8677 192.408 95.8677 191.296V191.288C95.8677 190.366 95.2202 189.769 93.6348 189.428L92.3232 189.146C89.8911 188.631 88.8452 187.502 88.8452 185.734V185.726C88.8535 183.659 90.6465 182.231 93.1865 182.231C95.7266 182.231 97.3867 183.667 97.5195 185.527L97.5278 185.643H95.7266L95.71 185.535C95.5522 184.556 94.6143 183.842 93.1616 183.85C91.7588 183.85 90.7212 184.506 90.7212 185.635V185.643C90.7212 186.531 91.3521 187.112 92.9043 187.444L94.2075 187.735C96.7227 188.274 97.752 189.287 97.752 191.063V191.072C97.752 193.363 95.9673 194.791 93.1782 194.791ZM103.472 194.674C100.824 194.674 99.2049 192.906 99.2049 190.001V189.984C99.2049 187.087 100.832 185.311 103.472 185.311C106.103 185.311 107.73 187.079 107.73 189.984V190.001C107.73 192.906 106.111 194.674 103.472 194.674ZM103.472 193.172C105.015 193.172 105.895 191.993 105.895 190.001V189.984C105.895 187.984 105.015 186.813 103.472 186.813C101.919 186.813 101.048 187.984 101.048 189.984V190.001C101.048 192.001 101.919 193.172 103.472 193.172ZM109.623 194.5V181.949H111.424V194.5H109.623ZM116.239 194.649C114.521 194.649 113.251 193.604 113.251 191.968V191.952C113.251 190.341 114.462 189.403 116.612 189.271L119.053 189.129V188.333C119.053 187.345 118.43 186.797 117.21 186.797C116.214 186.797 115.558 187.162 115.342 187.801L115.334 187.834H113.599L113.607 187.776C113.823 186.299 115.243 185.311 117.293 185.311C119.559 185.311 120.837 186.44 120.837 188.333V194.5H119.053V193.222H118.912C118.38 194.135 117.434 194.649 116.239 194.649ZM115.043 191.894C115.043 192.724 115.749 193.213 116.72 193.213C118.065 193.213 119.053 192.333 119.053 191.171V190.399L116.853 190.541C115.608 190.615 115.043 191.063 115.043 191.877V191.894ZM123.037 194.5V185.485H124.839V186.855H124.972C125.411 185.892 126.275 185.311 127.586 185.311C129.603 185.311 130.716 186.515 130.716 188.665V194.5H128.923V189.088C128.923 187.594 128.3 186.855 126.98 186.855C125.661 186.855 124.839 187.76 124.839 189.212V194.5H123.037ZM135.364 194.649C133.646 194.649 132.376 193.604 132.376 191.968V191.952C132.376 190.341 133.588 189.403 135.738 189.271L138.178 189.129V188.333C138.178 187.345 137.556 186.797 136.336 186.797C135.34 186.797 134.684 187.162 134.468 187.801L134.46 187.834H132.725L132.733 187.776C132.949 186.299 134.368 185.311 136.419 185.311C138.685 185.311 139.963 186.44 139.963 188.333V194.5H138.178V193.222H138.037C137.506 194.135 136.56 194.649 135.364 194.649ZM134.169 191.894C134.169 192.724 134.875 193.213 135.846 193.213C137.191 193.213 138.178 192.333 138.178 191.171V190.399L135.979 190.541C134.734 190.615 134.169 191.063 134.169 191.877V191.894Z" fill="#1A1A1A"/>
<circle cx="147.625" cy="188.5" r="2" fill="#D4D4D4"/>
<path d="M158.116 193.232C155.956 193.232 154.562 192.098 154.418 190.491L154.411 190.416H155.642L155.648 190.491C155.737 191.476 156.763 192.098 158.185 192.098C159.524 192.098 160.502 191.407 160.502 190.402V190.396C160.502 189.575 159.935 189.015 158.581 188.714L157.487 188.475C155.512 188.037 154.657 187.128 154.657 185.699V185.692C154.664 184.059 156.093 182.903 158.13 182.903C160.099 182.903 161.473 184.065 161.575 185.535L161.582 185.631H160.352L160.338 185.542C160.201 184.674 159.381 184.031 158.096 184.038C156.865 184.045 155.915 184.626 155.915 185.658V185.665C155.915 186.451 156.455 186.984 157.795 187.278L158.889 187.524C160.946 187.982 161.76 188.81 161.76 190.231V190.238C161.76 192.084 160.317 193.232 158.116 193.232ZM167.673 193.232C164.843 193.232 163.148 191.223 163.148 188.071V188.058C163.148 184.893 164.884 182.903 167.673 182.903C170.476 182.903 172.199 184.899 172.199 188.058V188.071C172.199 191.216 170.49 193.232 167.673 193.232ZM167.673 192.098C169.697 192.098 170.941 190.512 170.941 188.071V188.058C170.941 185.597 169.69 184.038 167.673 184.038C165.663 184.038 164.406 185.597 164.406 188.058V188.071C164.406 190.512 165.622 192.098 167.673 192.098ZM174.051 193V183.136H175.282V191.893H180.04V193H174.051Z" fill="#666666"/>
</g>
<rect x="14.375" y="14.375" width="281.25" height="238.25" rx="13.125" stroke="#D4D4D4" stroke-width="0.75"/>
</g>
<defs>
<filter id="filter0_d_911_689" x="0.5" y="0.5" width="309" height="266" filterUnits="userSpaceOnUse" color-interpolation-filters="sRGB">
<feFlood flood-opacity="0" result="BackgroundImageFix"/>
<feColorMatrix in="SourceAlpha" type="matrix" values="0 0 0 0 0 0 0 0 0 0 0 0 0 0 0 0 0 0 127 0" result="hardAlpha"/>
<feOffset/>
<feGaussianBlur stdDeviation="6.75"/>
<feComposite in2="hardAlpha" operator="out"/>
<feColorMatrix type="matrix" values="0 0 0 0 0 0 0 0 0 0 0 0 0 0 0 0 0 0 0.08 0"/>
<feBlend mode="normal" in2="BackgroundImageFix" result="effect1_dropShadow_911_689"/>
<feBlend mode="normal" in="SourceGraphic" in2="effect1_dropShadow_911_689" result="shape"/>
</filter>
<linearGradient id="paint0_linear_911_689" x1="51.3235" y1="197.929" x2="67.8384" y2="179.311" gradientUnits="userSpaceOnUse">
<stop offset="0.08" stop-color="#9945FF"/>
<stop offset="0.3" stop-color="#8752F3"/>
<stop offset="0.5" stop-color="#5497D5"/>
<stop offset="0.6" stop-color="#43B4CA"/>
<stop offset="0.72" stop-color="#28E0B9"/>
<stop offset="0.97" stop-color="#19FB9B"/>
</linearGradient>
<clipPath id="clip0_911_689">
<rect x="14" y="14" width="282" height="239" rx="13.5" fill="white"/>
</clipPath>
</defs>
</svg>
