<svg width="24" height="24" viewBox="0 0 24 24" fill="none" xmlns="http://www.w3.org/2000/svg">
<mask id="mask0_6029_2786" style="mask-type:alpha" maskUnits="userSpaceOnUse" x="0" y="0" width="24" height="24">
<rect width="24" height="24" fill="#D9D9D9"/>
</mask>
<g mask="url(#mask0_6029_2786)">
<path d="M14.2462 17.202C14.3911 17.0673 14.4702 16.9038 14.4837 16.7115C14.4971 16.5192 14.4313 16.3506 14.2865 16.2057L11.3193 13.05L11.3442 12.975H11.5942C12.5328 12.975 13.3042 12.7128 13.9087 12.1885C14.5131 11.6642 14.8692 11.0097 14.977 10.225H15.4693C15.6108 10.225 15.7276 10.1759 15.8197 10.0777C15.9117 9.97958 15.9578 9.86033 15.9578 9.72C15.9578 9.57983 15.9117 9.46358 15.8197 9.37125C15.7276 9.27892 15.6108 9.23275 15.4693 9.23275H14.952C14.902 8.93142 14.8032 8.65225 14.6557 8.39525C14.5082 8.13808 14.3237 7.90117 14.102 7.6845H15.4693C15.6108 7.6845 15.7276 7.63542 15.8197 7.53725C15.9117 7.43908 15.9578 7.31992 15.9578 7.17975C15.9578 7.03942 15.9117 6.92308 15.8197 6.83075C15.7276 6.73842 15.6108 6.69225 15.4693 6.69225H8.623C8.46283 6.69225 8.326 6.74917 8.2125 6.863C8.099 6.97667 8.04225 7.11383 8.04225 7.2745C8.04225 7.43517 8.099 7.56933 8.2125 7.677C8.326 7.78467 8.46283 7.8385 8.623 7.8385H11.5865C12.1288 7.8385 12.5743 7.96608 12.923 8.22125C13.2718 8.47625 13.4962 8.81342 13.5962 9.23275H8.53075C8.38925 9.23275 8.27242 9.28183 8.18025 9.38C8.08825 9.47817 8.04225 9.59742 8.04225 9.73775C8.04225 9.87792 8.08825 9.99417 8.18025 10.0865C8.27242 10.1788 8.38925 10.225 8.53075 10.225H13.6212C13.5341 10.6802 13.3119 11.051 12.9548 11.3375C12.5977 11.624 12.1263 11.7673 11.5402 11.7673H10.3405C10.142 11.7673 9.97025 11.8141 9.82525 11.9078C9.68025 12.0013 9.5725 12.1301 9.502 12.2942C9.4315 12.4584 9.40967 12.6251 9.4365 12.7942C9.4635 12.9634 9.54558 13.1249 9.68275 13.2788L13.2598 17.177C13.3942 17.3218 13.5561 17.3958 13.7452 17.399C13.9342 17.4022 14.1012 17.3365 14.2462 17.202ZM12.0017 21.5C10.6877 21.5 9.45267 21.2507 8.2965 20.752C7.14033 20.2533 6.13467 19.5766 5.2795 18.7218C4.42433 17.8669 3.74725 16.8617 3.24825 15.706C2.74942 14.5503 2.5 13.3156 2.5 12.0017C2.5 10.6877 2.74933 9.45267 3.248 8.2965C3.74667 7.14033 4.42342 6.13467 5.27825 5.2795C6.13308 4.42433 7.13833 3.74725 8.294 3.24825C9.44967 2.74942 10.6844 2.5 11.9983 2.5C13.3123 2.5 14.5473 2.74933 15.7035 3.248C16.8597 3.74667 17.8653 4.42342 18.7205 5.27825C19.5757 6.13308 20.2528 7.13833 20.7518 8.294C21.2506 9.44967 21.5 10.6844 21.5 11.9983C21.5 13.3123 21.2507 14.5473 20.752 15.7035C20.2533 16.8597 19.5766 17.8653 18.7218 18.7205C17.8669 19.5757 16.8617 20.2528 15.706 20.7518C14.5503 21.2506 13.3156 21.5 12.0017 21.5Z" fill="#0F172A"/>
</g>
</svg>
