<svg width="48" height="48" viewBox="0 0 48 48" fill="none" xmlns="http://www.w3.org/2000/svg">
<path d="M24.1583 32.825C25.35 32.825 26.3701 32.5451 27.2188 31.9854C28.0674 31.4257 28.4917 30.55 28.4917 29.3583C28.4917 28.3111 28.0493 27.4625 27.1646 26.8125C26.2799 26.1625 24.7 25.4222 22.425 24.5917C20.2944 23.8333 18.7326 22.9306 17.7396 21.8833C16.7465 20.8361 16.25 19.4639 16.25 17.7667C16.25 16.2861 16.7646 14.941 17.7938 13.7313C18.8229 12.5215 20.2222 11.7361 21.9917 11.375V10.5625C21.9917 10.0569 22.1813 9.61458 22.5604 9.23542C22.9396 8.85625 23.3819 8.66667 23.8875 8.66667C24.3931 8.66667 24.8354 8.85625 25.2146 9.23542C25.5938 9.61458 25.7833 10.0569 25.7833 10.5625V11.375C26.8306 11.4472 27.7965 11.7993 28.6813 12.4313C29.566 13.0632 30.2792 13.8306 30.8208 14.7333C31.0736 15.1306 31.0917 15.5549 30.875 16.0063C30.6583 16.4576 30.2972 16.7736 29.7917 16.9542C29.3222 17.1347 28.8528 17.1528 28.3833 17.0083C27.9139 16.8639 27.5347 16.5931 27.2458 16.1958C26.8847 15.7625 26.4333 15.4104 25.8917 15.1396C25.35 14.8688 24.7 14.7333 23.9417 14.7333C22.6778 14.7333 21.7118 15.0042 21.0438 15.5458C20.3757 16.0875 20.0417 16.8278 20.0417 17.7667C20.0417 18.7056 20.4569 19.4458 21.2875 19.9875C22.1181 20.5292 23.6167 21.1611 25.7833 21.8833C28.3833 22.8222 30.1167 23.9236 30.9833 25.1875C31.85 26.4514 32.2833 27.8417 32.2833 29.3583C32.2833 30.4056 32.1028 31.3264 31.7417 32.1208C31.3806 32.9153 30.9021 33.5924 30.3063 34.1521C29.7104 34.7118 29.0153 35.1632 28.2208 35.5063C27.4264 35.8493 26.5778 36.1111 25.675 36.2917V37.1042C25.675 37.6097 25.4854 38.0521 25.1063 38.4313C24.7271 38.8104 24.2847 39 23.7792 39C23.2736 39 22.8313 38.8104 22.4521 38.4313C22.0729 38.0521 21.8833 37.6097 21.8833 37.1042V36.1833C20.5111 35.8944 19.3375 35.3528 18.3625 34.5583C17.3875 33.7639 16.6111 32.7528 16.0333 31.525C15.8167 31.0194 15.8257 30.5319 16.0604 30.0625C16.2951 29.5931 16.6653 29.2681 17.1708 29.0875C17.6403 28.9069 18.1097 28.916 18.5792 29.1146C19.0486 29.3132 19.4097 29.6292 19.6625 30.0625C20.1681 31.0014 20.809 31.6965 21.5854 32.1479C22.3618 32.5993 23.2194 32.825 24.1583 32.825ZM23.8333 47.6667C19.7889 47.6667 16.0694 46.7458 12.675 44.9042C9.28056 43.0625 6.5 40.6069 4.33333 37.5375V41.1667C4.33333 41.7806 4.12569 42.2951 3.71042 42.7104C3.29514 43.1257 2.78056 43.3333 2.16667 43.3333C1.55278 43.3333 1.03819 43.1257 0.622917 42.7104C0.207639 42.2951 0 41.7806 0 41.1667V32.5C0 31.8861 0.207639 31.3715 0.622917 30.9563C1.03819 30.541 1.55278 30.3333 2.16667 30.3333H10.8333C11.4472 30.3333 11.9618 30.541 12.3771 30.9563C12.7924 31.3715 13 31.8861 13 32.5C13 33.1139 12.7924 33.6285 12.3771 34.0438C11.9618 34.459 11.4472 34.6667 10.8333 34.6667H7.6375C9.37083 37.2667 11.6549 39.3611 14.4896 40.95C17.3243 42.5389 20.4389 43.3333 23.8333 43.3333C28.925 43.3333 33.3035 41.6361 36.9688 38.2417C40.634 34.8472 42.7194 30.6764 43.225 25.7292C43.2972 25.1514 43.55 24.691 43.9833 24.3479C44.4167 24.0049 44.9222 23.8333 45.5 23.8333C46.1139 23.8333 46.6375 24.0229 47.0708 24.4021C47.5042 24.7812 47.6847 25.2417 47.6125 25.7833C47.3597 28.8528 46.5653 31.7146 45.2292 34.3688C43.8931 37.0229 42.1597 39.334 40.0292 41.3021C37.8986 43.2701 35.4521 44.8229 32.6896 45.9604C29.9271 47.0979 26.975 47.6667 23.8333 47.6667ZM23.8333 4.33333C18.7417 4.33333 14.3632 6.03056 10.6979 9.425C7.03264 12.8194 4.94722 16.9903 4.44167 21.9375C4.36944 22.5153 4.11667 22.9757 3.68333 23.3188C3.25 23.6618 2.74444 23.8333 2.16667 23.8333C1.55278 23.8333 1.02917 23.6438 0.595833 23.2646C0.1625 22.8854 -0.0180556 22.425 0.0541667 21.8833C0.306944 18.8139 1.10139 15.9521 2.4375 13.2979C3.77361 10.6438 5.50695 8.33264 7.6375 6.36458C9.76806 4.39653 12.2146 2.84375 14.9771 1.70625C17.7396 0.56875 20.6917 0 23.8333 0C27.8778 0 31.5972 0.920833 34.9917 2.7625C38.3861 4.60417 41.1667 7.05972 43.3333 10.1292V6.5C43.3333 5.88611 43.541 5.37153 43.9563 4.95625C44.3715 4.54097 44.8861 4.33333 45.5 4.33333C46.1139 4.33333 46.6285 4.54097 47.0438 4.95625C47.459 5.37153 47.6667 5.88611 47.6667 6.5V15.1667C47.6667 15.7806 47.459 16.2951 47.0438 16.7104C46.6285 17.1257 46.1139 17.3333 45.5 17.3333H36.8333C36.2194 17.3333 35.7049 17.1257 35.2896 16.7104C34.8743 16.2951 34.6667 15.7806 34.6667 15.1667C34.6667 14.5528 34.8743 14.0382 35.2896 13.6229C35.7049 13.2076 36.2194 13 36.8333 13H40.0292C38.2958 10.4 36.0118 8.30556 33.1771 6.71667C30.3424 5.12778 27.2278 4.33333 23.8333 4.33333Z" fill="#2D2D2D"/>
</svg>
