<svg width="173" height="36" viewBox="0 0 173 36" fill="none" xmlns="http://www.w3.org/2000/svg">
<g filter="url(#filter0_d_1244_3410)">
<rect x="4.5" y="2" width="164" height="28" rx="14" fill="#FBFBFB" shape-rendering="crispEdges"/>
<rect x="4.5" y="2" width="164" height="28" rx="14" fill="url(#paint0_radial_1244_3410)" shape-rendering="crispEdges"/>
<rect x="5" y="2.5" width="163" height="27" rx="13.5" stroke="white" stroke-opacity="0.06" shape-rendering="crispEdges"/>
<rect x="5" y="2.5" width="163" height="27" rx="13.5" stroke="url(#paint1_radial_1244_3410)" shape-rendering="crispEdges"/>
<mask id="mask0_1244_3410" style="mask-type:alpha" maskUnits="userSpaceOnUse" x="16" y="6" width="21" height="20">
<rect x="16.5" y="6" width="20" height="20" fill="#D9D9D9"/>
</mask>
<g mask="url(#mask0_1244_3410)">
<path d="M21.4993 21.5833C20.7782 21.5833 20.1674 21.333 19.6668 20.8325C19.1663 20.3319 18.916 19.7211 18.916 19V13C18.916 12.2789 19.1663 11.668 19.6668 11.1675C20.1674 10.6669 20.7782 10.4167 21.4993 10.4167H31.4993C32.2205 10.4167 32.8313 10.6669 33.3319 11.1675C33.8324 11.668 34.0827 12.2789 34.0827 13V19C34.0827 19.7211 33.8324 20.3319 33.3319 20.8325C32.8313 21.333 32.2205 21.5833 31.4993 21.5833H21.4993ZM21.4993 13.2083H31.4993C31.7739 13.2083 32.0375 13.2572 32.2902 13.355C32.5428 13.4528 32.7792 13.5802 32.9993 13.7373V13C32.9993 12.5833 32.8535 12.2292 32.5618 11.9375C32.2702 11.6458 31.916 11.5 31.4993 11.5H21.4993C21.0827 11.5 20.7285 11.6458 20.4368 11.9375C20.1452 12.2292 19.9993 12.5833 19.9993 13V13.7373C20.2195 13.5663 20.4559 13.4354 20.7085 13.3446C20.9612 13.2537 21.2248 13.2083 21.4993 13.2083ZM20.1387 15.2837L29.1852 17.4952C29.2856 17.523 29.3874 17.5243 29.4906 17.4992C29.5937 17.474 29.6858 17.4294 29.7671 17.3654L32.6837 14.9279C32.5469 14.7324 32.3754 14.5774 32.1691 14.4631C31.963 14.3488 31.7398 14.2917 31.4993 14.2917H21.4993C21.1895 14.2917 20.9003 14.3894 20.6316 14.585C20.3629 14.7804 20.1986 15.0133 20.1387 15.2837Z" fill="#4B5563"/>
</g>
<path d="M42.25 21.5H38.6562V9.85938H42.4062C43.5365 9.85938 44.5052 10.0911 45.3125 10.5547C46.125 11.0182 46.7474 11.6849 47.1797 12.5547C47.612 13.4193 47.8281 14.4531 47.8281 15.6562C47.8281 16.8698 47.6094 17.9141 47.1719 18.7891C46.7344 19.6589 46.099 20.3281 45.2656 20.7969C44.4375 21.2656 43.4323 21.5 42.25 21.5ZM40.0625 20.25H42.1562C43.6042 20.25 44.6771 19.8411 45.375 19.0234C46.0729 18.2005 46.4219 17.0781 46.4219 15.6562C46.4219 14.25 46.0781 13.1406 45.3906 12.3281C44.7083 11.5156 43.6823 11.1094 42.3125 11.1094H40.0625V20.25ZM48.2188 21.5L52.5156 9.85938H54.1094L58.3594 21.5H56.8594L55.7188 18.2344H50.8594L49.6875 21.5H48.2188ZM51.3047 16.9844H55.2891L54.4141 14.4844C54.2682 14.0729 54.1094 13.6146 53.9375 13.1094C53.7708 12.599 53.5625 11.9557 53.3125 11.1797C53.0625 11.9557 52.8516 12.599 52.6797 13.1094C52.513 13.6146 52.3542 14.0729 52.2031 14.4844L51.3047 16.9844ZM63.5156 21.6875C62.6198 21.6875 61.8438 21.5286 61.1875 21.2109C60.5312 20.888 60.0234 20.4323 59.6641 19.8438C59.3047 19.2552 59.125 18.5573 59.125 17.75H60.5625C60.5625 18.5833 60.8203 19.2344 61.3359 19.7031C61.8568 20.1719 62.5833 20.4062 63.5156 20.4062C64.3646 20.4062 65.0443 20.2214 65.5547 19.8516C66.0703 19.4818 66.3281 18.9844 66.3281 18.3594C66.3281 17.875 66.1536 17.4818 65.8047 17.1797C65.4557 16.8776 64.862 16.6224 64.0234 16.4141L62.7188 16.0938C61.5312 15.8021 60.6745 15.4115 60.1484 14.9219C59.6224 14.4323 59.3594 13.7917 59.3594 13C59.3594 12.3281 59.5234 11.7448 59.8516 11.25C60.1849 10.75 60.6536 10.362 61.2578 10.0859C61.862 9.8099 62.5677 9.67188 63.375 9.67188C64.5885 9.67188 65.5547 9.9974 66.2734 10.6484C66.9974 11.2943 67.375 12.1771 67.4062 13.2969H66.0156C65.974 12.5677 65.7135 11.9974 65.2344 11.5859C64.7552 11.1693 64.1198 10.9609 63.3281 10.9609C62.5729 10.9609 61.9531 11.1458 61.4688 11.5156C60.9896 11.8802 60.75 12.3516 60.75 12.9297C60.75 13.3828 60.9271 13.7526 61.2812 14.0391C61.6406 14.3203 62.2422 14.5677 63.0859 14.7812L64.4062 15.1094C65.5417 15.3906 66.3802 15.7891 66.9219 16.3047C67.4635 16.8203 67.7344 17.4844 67.7344 18.2969C67.7344 18.9688 67.5573 19.5599 67.2031 20.0703C66.8542 20.5807 66.362 20.9792 65.7266 21.2656C65.0964 21.5469 64.3594 21.6875 63.5156 21.6875ZM69.5 21.5V9.85938H70.9062V14.9141H77.1094V9.85938H78.5156V21.5H77.1094V16.1641H70.9062V21.5H69.5ZM79.8672 21.5L84.0391 15.5391L80.1172 9.85938H81.7422L83.4609 12.375C83.9297 13.0677 84.3932 13.7604 84.8516 14.4531C85.0807 14.1094 85.3125 13.7656 85.5469 13.4219C85.7812 13.0729 86.0182 12.724 86.2578 12.375L88.0078 9.85938H89.5938L85.6719 15.4922L89.8047 21.5H88.1875L86.1172 18.5C85.8984 18.1823 85.6823 17.8672 85.4688 17.5547C85.2604 17.2422 85.0521 16.9271 84.8438 16.6094C84.6302 16.9271 84.4141 17.2422 84.1953 17.5547C83.9818 17.8672 83.7656 18.1823 83.5469 18.5L81.4609 21.5H79.8672ZM97.3281 21.5L94.1562 9.85938H95.5781L97.4609 17.125C97.7161 18.1146 97.9479 19.1068 98.1562 20.1016C98.2552 19.6068 98.3646 19.112 98.4844 18.6172C98.6042 18.1172 98.7292 17.6198 98.8594 17.125L100.781 9.85938H102.406L104.312 17.125C104.443 17.6146 104.565 18.1042 104.68 18.5938C104.799 19.0781 104.914 19.5651 105.023 20.0547C105.128 19.5651 105.237 19.0781 105.352 18.5938C105.471 18.1042 105.594 17.6146 105.719 17.125L107.594 9.85938H109.031L105.844 21.5H104.203L102.164 14C102.055 13.599 101.953 13.1953 101.859 12.7891C101.766 12.3828 101.674 11.9792 101.586 11.5781C101.503 11.9792 101.414 12.3828 101.32 12.7891C101.227 13.1953 101.125 13.599 101.016 14L98.9844 21.5H97.3281ZM108.406 21.5L112.703 9.85938H114.297L118.547 21.5H117.047L115.906 18.2344H111.047L109.875 21.5H108.406ZM111.492 16.9844H115.477L114.602 14.4844C114.456 14.0729 114.297 13.6146 114.125 13.1094C113.958 12.599 113.75 11.9557 113.5 11.1797C113.25 11.9557 113.039 12.599 112.867 13.1094C112.701 13.6146 112.542 14.0729 112.391 14.4844L111.492 16.9844ZM119.859 21.5V9.85938H121.266V20.25H126.875V21.5H119.859ZM128.422 21.5V9.85938H129.828V20.25H135.438V21.5H128.422ZM136.984 21.5V9.85938H144.555V11.1094H138.391V14.9141H144.102V16.1641H138.391V20.25H144.555V21.5H136.984ZM145.5 11.1094V9.85938H154.484V11.1094H150.703V21.5H149.297V11.1094H145.5Z" fill="#4B5563"/>
</g>
<defs>
<filter id="filter0_d_1244_3410" x="0.5" y="0" width="172" height="36" filterUnits="userSpaceOnUse" color-interpolation-filters="sRGB">
<feFlood flood-opacity="0" result="BackgroundImageFix"/>
<feColorMatrix in="SourceAlpha" type="matrix" values="0 0 0 0 0 0 0 0 0 0 0 0 0 0 0 0 0 0 127 0" result="hardAlpha"/>
<feOffset dy="2"/>
<feGaussianBlur stdDeviation="2"/>
<feComposite in2="hardAlpha" operator="out"/>
<feColorMatrix type="matrix" values="0 0 0 0 0.889423 0 0 0 0 0.889423 0 0 0 0 0.889423 0 0 0 1 0"/>
<feBlend mode="normal" in2="BackgroundImageFix" result="effect1_dropShadow_1244_3410"/>
<feBlend mode="normal" in="SourceGraphic" in2="effect1_dropShadow_1244_3410" result="shape"/>
</filter>
<radialGradient id="paint0_radial_1244_3410" cx="0" cy="0" r="1" gradientUnits="userSpaceOnUse" gradientTransform="translate(176.733 30) rotate(-159.921) scale(99.3994 33.8305)">
<stop stop-color="#4166FB"/>
<stop offset="1" stop-color="white" stop-opacity="0"/>
</radialGradient>
<radialGradient id="paint1_radial_1244_3410" cx="0" cy="0" r="1" gradientUnits="userSpaceOnUse" gradientTransform="translate(165.014 29.125) rotate(-160.849) scale(32.2482 37.3413)">
<stop stop-color="#4166FB"/>
<stop offset="1" stop-color="#999999" stop-opacity="0"/>
</radialGradient>
</defs>
</svg>
