<svg width="185" height="36" viewBox="0 0 185 36" fill="none" xmlns="http://www.w3.org/2000/svg">
<g filter="url(#filter0_d_1244_3401)">
<rect x="4.5" y="2" width="176" height="28" rx="14" fill="#FBFBFB" shape-rendering="crispEdges"/>
<rect x="4.5" y="2" width="176" height="28" rx="14" fill="url(#paint0_radial_1244_3401)" shape-rendering="crispEdges"/>
<rect x="5" y="2.5" width="175" height="27" rx="13.5" stroke="white" stroke-opacity="0.06" shape-rendering="crispEdges"/>
<rect x="5" y="2.5" width="175" height="27" rx="13.5" stroke="url(#paint1_radial_1244_3401)" shape-rendering="crispEdges"/>
<mask id="mask0_1244_3401" style="mask-type:alpha" maskUnits="userSpaceOnUse" x="16" y="6" width="21" height="20">
<rect x="16.5" y="6" width="20" height="20" fill="#D9D9D9"/>
</mask>
<g mask="url(#mask0_1244_3401)">
<path d="M33.2831 15.4358V21.4444C33.2831 21.8216 33.1536 22.1404 32.8946 22.4008C32.6357 22.6614 32.3187 22.7917 31.9435 22.7917H21.0396C20.6646 22.7917 20.3476 22.6597 20.0885 22.3958C19.8295 22.132 19.7 21.8173 19.7 21.4519V15.399C19.2255 15.0956 18.932 14.7033 18.8194 14.2219C18.7066 13.7406 18.7101 13.2383 18.8298 12.7148L19.756 10.1281C19.8255 9.8055 19.9758 9.57154 20.2071 9.42626C20.4385 9.28098 20.7297 9.20834 21.0808 9.20834H31.8862C32.2375 9.20834 32.5266 9.27272 32.7535 9.40147C32.9806 9.53022 33.1331 9.76716 33.211 10.1123L34.1533 12.7148C34.273 13.2383 34.273 13.746 34.1533 14.2379C34.0337 14.73 33.7437 15.1293 33.2831 15.4358ZM28.325 14.7083C28.6968 14.7083 29.0008 14.6004 29.2369 14.3846C29.473 14.1688 29.5771 13.922 29.5494 13.6442L29.0012 10.2917H27.1164V13.4921C27.1164 13.8339 27.2351 14.1221 27.4723 14.3567C27.7095 14.5911 27.9937 14.7083 28.325 14.7083ZM24.6479 14.7083C24.9967 14.7083 25.2869 14.5911 25.5187 14.3567C25.7507 14.1221 25.8667 13.8339 25.8667 13.4921V10.2917H23.9819L23.4339 13.6763C23.4167 13.9167 23.5235 14.1488 23.7544 14.3727C23.9852 14.5965 24.283 14.7083 24.6479 14.7083ZM20.9917 14.7083C21.3004 14.7083 21.5659 14.6146 21.7881 14.4271C22.0103 14.2396 22.1407 14.0038 22.1792 13.7196L22.7319 10.2917H21.0877C20.9969 10.2917 20.9248 10.3117 20.8714 10.3517C20.818 10.3918 20.7779 10.452 20.7512 10.5321L19.8456 13.1186C19.7078 13.5181 19.7562 13.883 19.9908 14.2131C20.2253 14.5433 20.5589 14.7083 20.9917 14.7083ZM31.9917 14.7083C32.3869 14.7083 32.7146 14.5486 32.9748 14.2292C33.2349 13.9097 33.2961 13.5395 33.1583 13.1186L32.2319 10.5161C32.2052 10.4359 32.1652 10.3785 32.1119 10.3438C32.0584 10.309 31.9862 10.2917 31.8954 10.2917H30.2512L30.8039 13.7196C30.8424 14.0038 30.9762 14.2396 31.2054 14.4271C31.4346 14.6146 31.6967 14.7083 31.9917 14.7083ZM22.961 20.9519H24.9673C25.0903 20.9519 25.1951 20.9072 25.2817 20.8179C25.3682 20.7286 25.4114 20.6226 25.4114 20.5C25.4114 20.3774 25.3668 20.2714 25.2775 20.1821C25.1882 20.0928 25.0822 20.0481 24.9596 20.0481H23.4114V19.4519H24.9669C25.0902 19.4519 25.1951 19.4072 25.2817 19.3179C25.3682 19.2286 25.4114 19.1226 25.4114 19V17.5C25.4114 17.3774 25.3667 17.2714 25.2771 17.1821C25.1873 17.0928 25.081 17.0481 24.9579 17.0481H22.9519C22.8288 17.0481 22.724 17.0928 22.6375 17.1821C22.5508 17.2714 22.5075 17.3774 22.5075 17.5C22.5075 17.6226 22.5522 17.7286 22.6417 17.8179C22.731 17.9072 22.8369 17.9519 22.9596 17.9519H24.5075V18.5481H22.9521C22.8289 18.5481 22.724 18.5928 22.6375 18.6821C22.5508 18.7714 22.5075 18.8774 22.5075 19V20.5C22.5075 20.6226 22.5523 20.7286 22.6421 20.8179C22.7317 20.9072 22.838 20.9519 22.961 20.9519ZM29.5717 19.9519V20.5C29.5717 20.6226 29.6163 20.7286 29.7056 20.8179C29.7949 20.9072 29.9009 20.9519 30.0235 20.9519C30.1462 20.9519 30.2522 20.9072 30.3417 20.8179C30.431 20.7286 30.4756 20.6226 30.4756 20.5V17.5C30.4756 17.3774 30.431 17.2714 30.3417 17.1821C30.2522 17.0928 30.1462 17.0481 30.0235 17.0481C29.9009 17.0481 29.7949 17.0928 29.7056 17.1821C29.6163 17.2714 29.5717 17.3774 29.5717 17.5V19.0481H28.4756V17.5C28.4756 17.3774 28.431 17.2714 28.3417 17.1821C28.2522 17.0928 28.1462 17.0481 28.0235 17.0481C27.9009 17.0481 27.7949 17.0929 27.7056 17.1825C27.6163 17.2721 27.5717 17.3784 27.5717 17.5015V19.5077C27.5717 19.6308 27.6163 19.7356 27.7056 19.8221C27.7949 19.9086 27.9009 19.9519 28.0235 19.9519H29.5717Z" fill="#4B5563"/>
</g>
<path d="M42.25 21.5H38.6562V9.85938H42.4062C43.5365 9.85938 44.5052 10.0911 45.3125 10.5547C46.125 11.0182 46.7474 11.6849 47.1797 12.5547C47.612 13.4193 47.8281 14.4531 47.8281 15.6562C47.8281 16.8698 47.6094 17.9141 47.1719 18.7891C46.7344 19.6589 46.099 20.3281 45.2656 20.7969C44.4375 21.2656 43.4323 21.5 42.25 21.5ZM40.0625 20.25H42.1562C43.6042 20.25 44.6771 19.8411 45.375 19.0234C46.0729 18.2005 46.4219 17.0781 46.4219 15.6562C46.4219 14.25 46.0781 13.1406 45.3906 12.3281C44.7083 11.5156 43.6823 11.1094 42.3125 11.1094H40.0625V20.25ZM48.2188 21.5L52.5156 9.85938H54.1094L58.3594 21.5H56.8594L55.7188 18.2344H50.8594L49.6875 21.5H48.2188ZM51.3047 16.9844H55.2891L54.4141 14.4844C54.2682 14.0729 54.1094 13.6146 53.9375 13.1094C53.7708 12.599 53.5625 11.9557 53.3125 11.1797C53.0625 11.9557 52.8516 12.599 52.6797 13.1094C52.513 13.6146 52.3542 14.0729 52.2031 14.4844L51.3047 16.9844ZM63.5156 21.6875C62.6198 21.6875 61.8438 21.5286 61.1875 21.2109C60.5312 20.888 60.0234 20.4323 59.6641 19.8438C59.3047 19.2552 59.125 18.5573 59.125 17.75H60.5625C60.5625 18.5833 60.8203 19.2344 61.3359 19.7031C61.8568 20.1719 62.5833 20.4062 63.5156 20.4062C64.3646 20.4062 65.0443 20.2214 65.5547 19.8516C66.0703 19.4818 66.3281 18.9844 66.3281 18.3594C66.3281 17.875 66.1536 17.4818 65.8047 17.1797C65.4557 16.8776 64.862 16.6224 64.0234 16.4141L62.7188 16.0938C61.5312 15.8021 60.6745 15.4115 60.1484 14.9219C59.6224 14.4323 59.3594 13.7917 59.3594 13C59.3594 12.3281 59.5234 11.7448 59.8516 11.25C60.1849 10.75 60.6536 10.362 61.2578 10.0859C61.862 9.8099 62.5677 9.67188 63.375 9.67188C64.5885 9.67188 65.5547 9.9974 66.2734 10.6484C66.9974 11.2943 67.375 12.1771 67.4062 13.2969H66.0156C65.974 12.5677 65.7135 11.9974 65.2344 11.5859C64.7552 11.1693 64.1198 10.9609 63.3281 10.9609C62.5729 10.9609 61.9531 11.1458 61.4688 11.5156C60.9896 11.8802 60.75 12.3516 60.75 12.9297C60.75 13.3828 60.9271 13.7526 61.2812 14.0391C61.6406 14.3203 62.2422 14.5677 63.0859 14.7812L64.4062 15.1094C65.5417 15.3906 66.3802 15.7891 66.9219 16.3047C67.4635 16.8203 67.7344 17.4844 67.7344 18.2969C67.7344 18.9688 67.5573 19.5599 67.2031 20.0703C66.8542 20.5807 66.362 20.9792 65.7266 21.2656C65.0964 21.5469 64.3594 21.6875 63.5156 21.6875ZM69.5 21.5V9.85938H70.9062V14.9141H77.1094V9.85938H78.5156V21.5H77.1094V16.1641H70.9062V21.5H69.5ZM79.8672 21.5L84.0391 15.5391L80.1172 9.85938H81.7422L83.4609 12.375C83.9297 13.0677 84.3932 13.7604 84.8516 14.4531C85.0807 14.1094 85.3125 13.7656 85.5469 13.4219C85.7812 13.0729 86.0182 12.724 86.2578 12.375L88.0078 9.85938H89.5938L85.6719 15.4922L89.8047 21.5H88.1875L86.1172 18.5C85.8984 18.1823 85.6823 17.8672 85.4688 17.5547C85.2604 17.2422 85.0521 16.9271 84.8438 16.6094C84.6302 16.9271 84.4141 17.2422 84.1953 17.5547C83.9818 17.8672 83.7656 18.1823 83.5469 18.5L81.4609 21.5H79.8672ZM100.023 21.6875C98.9922 21.6875 98.0755 21.4323 97.2734 20.9219C96.4766 20.4062 95.849 19.6979 95.3906 18.7969C94.9323 17.8906 94.7031 16.8542 94.7031 15.6875C94.7031 14.5104 94.9297 13.4714 95.3828 12.5703C95.8411 11.6641 96.4714 10.9557 97.2734 10.4453C98.0755 9.92969 98.9922 9.67188 100.023 9.67188C100.846 9.67188 101.599 9.84115 102.281 10.1797C102.964 10.513 103.531 10.9766 103.984 11.5703C104.438 12.1641 104.732 12.849 104.867 13.625H103.445C103.326 13.1042 103.104 12.6458 102.781 12.25C102.458 11.8542 102.06 11.5443 101.586 11.3203C101.117 11.0964 100.596 10.9844 100.023 10.9844C99.2474 10.9844 98.5651 11.1849 97.9766 11.5859C97.388 11.9818 96.9297 12.5339 96.6016 13.2422C96.2734 13.9453 96.1094 14.7604 96.1094 15.6875C96.1094 16.6094 96.2734 17.4219 96.6016 18.125C96.9297 18.8281 97.388 19.3802 97.9766 19.7812C98.5651 20.1771 99.2474 20.375 100.023 20.375C100.669 20.375 101.258 20.2318 101.789 19.9453C102.32 19.6536 102.745 19.25 103.062 18.7344C103.38 18.2135 103.542 17.612 103.547 16.9297H100.5V15.6797H104.938V16.9375C104.938 17.8438 104.719 18.6562 104.281 19.375C103.849 20.0885 103.263 20.6536 102.523 21.0703C101.784 21.4818 100.951 21.6875 100.023 21.6875ZM105.484 21.5L109.781 9.85938H111.375L115.625 21.5H114.125L112.984 18.2344H108.125L106.953 21.5H105.484ZM108.57 16.9844H112.555L111.68 14.4844C111.534 14.0729 111.375 13.6146 111.203 13.1094C111.036 12.599 110.828 11.9557 110.578 11.1797C110.328 11.9557 110.117 12.599 109.945 13.1094C109.779 13.6146 109.62 14.0729 109.469 14.4844L108.57 16.9844ZM114.609 11.1094V9.85938H123.594V11.1094H119.812V21.5H118.406V11.1094H114.609ZM125.141 21.5V9.85938H132.711V11.1094H126.547V14.9141H132.258V16.1641H126.547V20.25H132.711V21.5H125.141ZM136.594 21.5L133.422 9.85938H134.844L136.727 17.125C136.982 18.1146 137.214 19.1068 137.422 20.1016C137.521 19.6068 137.63 19.112 137.75 18.6172C137.87 18.1172 137.995 17.6198 138.125 17.125L140.047 9.85938H141.672L143.578 17.125C143.708 17.6146 143.831 18.1042 143.945 18.5938C144.065 19.0781 144.18 19.5651 144.289 20.0547C144.393 19.5651 144.503 19.0781 144.617 18.5938C144.737 18.1042 144.859 17.6146 144.984 17.125L146.859 9.85938H148.297L145.109 21.5H143.469L141.43 14C141.32 13.599 141.219 13.1953 141.125 12.7891C141.031 12.3828 140.94 11.9792 140.852 11.5781C140.768 11.9792 140.68 12.3828 140.586 12.7891C140.492 13.1953 140.391 13.599 140.281 14L138.25 21.5H136.594ZM147.672 21.5L151.969 9.85938H153.562L157.812 21.5H156.312L155.172 18.2344H150.312L149.141 21.5H147.672ZM150.758 16.9844H154.742L153.867 14.4844C153.721 14.0729 153.562 13.6146 153.391 13.1094C153.224 12.599 153.016 11.9557 152.766 11.1797C152.516 11.9557 152.305 12.599 152.133 13.1094C151.966 13.6146 151.807 14.0729 151.656 14.4844L150.758 16.9844ZM160.688 21.5V16.7031L156.406 9.85938H158.031L160.367 13.625C160.549 13.9115 160.724 14.2005 160.891 14.4922C161.062 14.7786 161.232 15.0651 161.398 15.3516C161.565 15.0651 161.734 14.7786 161.906 14.4922C162.078 14.2005 162.253 13.9115 162.43 13.625L164.758 9.85938H166.375L162.094 16.7031V21.5H160.688Z" fill="#4B5563"/>
</g>
<defs>
<filter id="filter0_d_1244_3401" x="0.5" y="0" width="184" height="36" filterUnits="userSpaceOnUse" color-interpolation-filters="sRGB">
<feFlood flood-opacity="0" result="BackgroundImageFix"/>
<feColorMatrix in="SourceAlpha" type="matrix" values="0 0 0 0 0 0 0 0 0 0 0 0 0 0 0 0 0 0 127 0" result="hardAlpha"/>
<feOffset dy="2"/>
<feGaussianBlur stdDeviation="2"/>
<feComposite in2="hardAlpha" operator="out"/>
<feColorMatrix type="matrix" values="0 0 0 0 0.889423 0 0 0 0 0.889423 0 0 0 0 0.889423 0 0 0 1 0"/>
<feBlend mode="normal" in2="BackgroundImageFix" result="effect1_dropShadow_1244_3401"/>
<feBlend mode="normal" in="SourceGraphic" in2="effect1_dropShadow_1244_3401" result="shape"/>
</filter>
<radialGradient id="paint0_radial_1244_3401" cx="0" cy="0" r="1" gradientUnits="userSpaceOnUse" gradientTransform="translate(189.335 30) rotate(-161.191) scale(105.841 34.0962)">
<stop stop-color="#4166FB"/>
<stop offset="1" stop-color="white" stop-opacity="0"/>
</radialGradient>
<radialGradient id="paint1_radial_1244_3401" cx="0" cy="0" r="1" gradientUnits="userSpaceOnUse" gradientTransform="translate(176.759 29.125) rotate(-162.068) scale(34.3616 37.6088)">
<stop stop-color="#4166FB"/>
<stop offset="1" stop-color="#999999" stop-opacity="0"/>
</radialGradient>
</defs>
</svg>
