<svg width="94" height="25" viewBox="0 0 94 25" fill="none" xmlns="http://www.w3.org/2000/svg">
<path d="M9.34185 24.5C7.96484 24.5 6.63155 24.1398 5.34197 23.4195C4.05239 22.6774 3.00324 21.6296 2.19452 20.2763C1.3858 18.9011 0.981445 17.3186 0.981445 15.5287C0.981445 13.7606 1.3858 12.1999 2.19452 10.8465C3.00324 9.47135 4.05239 8.4236 5.34197 7.70327C6.63155 6.96112 7.96484 6.59004 9.34185 6.59004C10.1943 6.59004 10.9593 6.68827 11.6369 6.88472C12.3363 7.05935 12.9592 7.3322 13.5057 7.70327C14.0521 8.05252 14.5439 8.5 14.981 9.0457L14.2925 9.76603V2.5C14.2925 1.39543 15.188 0.5 16.2925 0.5H17.8333C18.9379 0.5 19.8333 1.39543 19.8333 2.5V22.0744C19.8333 23.1789 18.9379 24.0744 17.8333 24.0744H16.686C15.5814 24.0744 14.686 23.1789 14.686 22.0744V21.0621L15.2433 21.7497C14.6095 22.6446 13.8117 23.3322 12.8499 23.8124C11.8882 24.2708 10.7189 24.5 9.34185 24.5ZM10.5221 19.5887C11.2871 19.5887 11.9757 19.4141 12.5877 19.0648C13.2215 18.7156 13.7024 18.2353 14.0302 17.6241C14.38 16.9911 14.5548 16.2926 14.5548 15.5287C14.5548 14.7865 14.38 14.1098 14.0302 13.4986C13.7024 12.8874 13.2215 12.4072 12.5877 12.058C11.9757 11.6869 11.2871 11.5014 10.5221 11.5014C9.75714 11.5014 9.05771 11.6869 8.42385 12.058C7.81184 12.4072 7.33098 12.8874 6.98127 13.4986C6.65341 14.1098 6.48948 14.7865 6.48948 15.5287C6.48948 16.2926 6.65341 16.9911 6.98127 17.6241C7.33098 18.2353 7.81184 18.7156 8.42385 19.0648C9.05771 19.4141 9.75714 19.5887 10.5221 19.5887Z" fill="#A29E9C"/>
<path d="M29.4347 24.5C28.0577 24.5 26.7244 24.1398 25.4349 23.4195C24.1453 22.6774 23.0961 21.6296 22.2874 20.2763C21.4787 18.9011 21.0743 17.3295 21.0743 15.5614C21.0743 13.7715 21.4787 12.1999 22.2874 10.8465C23.0961 9.47135 24.1453 8.4236 25.4349 7.70327C26.7244 6.96112 28.0577 6.59004 29.4347 6.59004C30.3527 6.59004 31.1833 6.69918 31.9265 6.91746C32.6696 7.13574 33.3144 7.45225 33.8608 7.86698C34.4291 8.25989 34.9209 8.75102 35.3362 9.34038L34.7788 10.0607V9.01569C34.7788 7.91112 35.6743 7.01569 36.7788 7.01569H37.9262C39.0308 7.01569 39.9262 7.91112 39.9262 9.01569V22.0744C39.9262 23.1789 39.0308 24.0744 37.9262 24.0744H36.7788C35.6743 24.0744 34.7788 23.1789 34.7788 22.0744V21.0621L35.3362 21.7497C34.7023 22.6446 33.9046 23.3322 32.9428 23.8124C31.9811 24.2708 30.8118 24.5 29.4347 24.5ZM30.615 19.5887C31.38 19.5887 32.0685 19.4141 32.6805 19.0648C33.3144 18.7156 33.7953 18.2353 34.1231 17.6241C34.4728 17.013 34.6477 16.3254 34.6477 15.5614C34.6477 14.7974 34.4728 14.1098 34.1231 13.4986C33.7953 12.8874 33.3144 12.4072 32.6805 12.058C32.0685 11.6869 31.38 11.5014 30.615 11.5014C29.85 11.5014 29.1506 11.6869 28.5167 12.058C27.9047 12.4072 27.4239 12.8874 27.0742 13.4986C26.7463 14.1098 26.5824 14.7974 26.5824 15.5614C26.5824 16.3254 26.7463 17.013 27.0742 17.6241C27.4239 18.2353 27.9047 18.7156 28.5167 19.0648C29.1506 19.4141 29.85 19.5887 30.615 19.5887Z" fill="#A29E9C"/>
<path d="M49.2364 24.5C47.6845 24.5 46.3185 24.249 45.1382 23.7469C43.9579 23.2231 43.0399 22.5136 42.3841 21.6187C42.1587 21.311 41.9668 20.989 41.8085 20.6529C41.3122 19.5988 42.2643 18.5737 43.4294 18.5737H44.9557C45.8372 18.5737 46.5677 19.3496 47.2692 19.8834C47.7501 20.2326 48.3949 20.4072 49.2036 20.4072C49.8812 20.4072 50.4058 20.2981 50.7773 20.0798C51.1708 19.8397 51.3675 19.4905 51.3675 19.0321C51.3675 18.7265 51.2363 18.4754 50.9741 18.279C50.7118 18.0607 50.373 17.897 49.9577 17.7879C49.5643 17.6569 48.996 17.5041 48.2528 17.3295C46.9414 17.0675 45.8485 16.7729 44.9742 16.4454C44.0999 16.118 43.3349 15.5723 42.6792 14.8083C42.0454 14.0443 41.7284 13.0075 41.7284 11.6978C41.7284 10.7374 42.0344 9.87517 42.6464 9.11119C43.2584 8.32538 44.1109 7.71419 45.2037 7.27763C46.2966 6.81924 47.5425 6.59004 48.9413 6.59004C50.209 6.59004 51.3893 6.84106 52.4822 7.34311C53.5751 7.82333 54.4603 8.5 55.1379 9.37312C55.3831 9.67163 55.5881 9.98625 55.7527 10.317C56.2587 11.3333 55.3079 12.3199 54.1725 12.3199H52.4925C51.689 12.3199 51.0512 11.6013 50.4167 11.1085C50.0233 10.8029 49.4987 10.6501 48.843 10.6501C48.2747 10.6501 47.8266 10.7483 47.4987 10.9447C47.1709 11.1194 47.007 11.3922 47.007 11.7633C47.007 12.0907 47.1381 12.3527 47.4004 12.5491C47.6627 12.7456 48.0124 12.9093 48.4495 13.0402C48.9085 13.1712 49.4768 13.3022 50.1544 13.4332C51.4658 13.7169 52.5587 14.0225 53.433 14.3499C54.3073 14.6774 55.0614 15.2121 55.6952 15.9543C56.3291 16.6746 56.646 17.6678 56.646 18.9338C56.646 20.0907 56.34 21.0948 55.728 21.9461C55.116 22.7756 54.2526 23.4086 53.1379 23.8452C52.0232 24.2817 50.7227 24.5 49.2364 24.5Z" fill="#A29E9C"/>
<path d="M60.3117 24.0744C59.2071 24.0744 58.3117 23.1789 58.3117 22.0744V2.5C58.3117 1.39543 59.2071 0.5 60.3117 0.5H61.8853C62.9899 0.5 63.8853 1.39543 63.8853 2.5V9.73329L63.1312 9.17667C63.6121 8.60914 64.1367 8.13984 64.7049 7.76876C65.2732 7.37585 65.8852 7.08117 66.541 6.88472C67.1967 6.68827 67.8961 6.59004 68.6393 6.59004C69.9288 6.59004 71.0873 6.89563 72.1146 7.50682C73.1419 8.11801 73.9396 8.9693 74.5079 10.0607C75.0981 11.1521 75.3932 12.3745 75.3932 13.7278V22.0744C75.3932 23.1789 74.4977 24.0744 73.3932 24.0744H71.8523C70.7478 24.0744 69.8523 23.1789 69.8523 22.0744V15.0048C69.8523 14.3063 69.7321 13.6951 69.4917 13.1712C69.2731 12.6473 68.9343 12.2435 68.4753 11.9598C68.0382 11.676 67.5245 11.5341 66.9344 11.5341C66.3442 11.5341 65.8087 11.6869 65.3279 11.9925C64.8689 12.2763 64.5082 12.6801 64.2459 13.204C64.0055 13.7278 63.8853 14.3281 63.8853 15.0048V22.0744C63.8853 23.1789 62.9899 24.0744 61.8853 24.0744H60.3117Z" fill="#A29E9C"/>
<path d="M79.604 24.0744C77.9936 24.0744 77.0436 22.2682 77.956 20.9412L82.5556 14.2517L82.49 16.2817L78.3554 10.1315C77.4622 8.80295 78.4143 7.01569 80.0152 7.01569H81.1346C81.8336 7.01569 82.4819 7.38064 82.8445 7.97826L86.2932 13.6623H84.5883L88.037 7.97826C88.3996 7.38064 89.0478 7.01569 89.7469 7.01569H90.7787C92.384 7.01569 93.3351 8.8117 92.433 10.1396L88.2603 16.2817L88.3259 14.2517L92.8662 20.9525C93.766 22.2805 92.8146 24.0744 91.2104 24.0744H89.9953C89.3038 24.0744 88.6614 23.7171 88.2965 23.1297L84.49 17.002H86.2932L82.4228 23.141C82.0565 23.722 81.4177 24.0744 80.7309 24.0744H79.604Z" fill="#A29E9C"/>
</svg>
