<svg width="132" height="33" viewBox="0 0 132 33" fill="none" xmlns="http://www.w3.org/2000/svg">
<path d="M20.9903 4.76876C22.9421 4.76876 24.448 8.01108 25.3756 10.1788C25.9827 11.5976 27.2479 13.9294 28.7323 15.33C30.6132 10.9864 31.9573 0.500015 33.8145 0.5C36.2079 0.500015 40.5411 7.72584 40.5411 16.4427C40.5411 25.1907 36.211 32.5 33.8148 32.5C31.9612 32.5 30.6182 22.043 28.7446 17.6588C27.2521 19.0574 25.9789 21.4027 25.3692 22.8275C24.4418 24.9952 22.9356 28.2376 20.9839 28.2376C19.0322 28.2376 17.5262 24.9952 16.5987 22.8275C15.9154 21.2306 14.3983 18.4769 12.6733 17.1963C11.6832 18.0942 10.8347 19.6533 10.4325 20.5932C9.83232 21.9958 8.85784 24.0938 7.59497 24.0938C6.33209 24.0938 5.35761 21.9958 4.75745 20.5932C4.17742 19.2376 2.64509 16.5896 1.1208 16.4992C1.06792 16.5023 1.01503 16.5023 0.962158 16.4992C1.015 16.496 1.0679 16.496 1.1208 16.4992C2.64347 16.409 4.1519 13.7656 4.73192 12.41C5.33207 11.0074 6.30656 8.90941 7.56944 8.90941C8.8323 8.90941 9.80679 11.0074 10.4069 12.41C10.8113 13.355 11.6669 14.926 12.664 15.8214C14.3955 14.546 15.9197 11.7806 16.6051 10.1788C17.5325 8.01108 19.0386 4.76876 20.9903 4.76876Z" fill="#1B1B1B"/>
<path d="M57.3472 25.4509H50.6462V7.23679H57.3472C63.2678 7.23679 66.6049 10.8536 66.6049 16.3438C66.6049 22.0422 63.1063 25.4509 57.3472 25.4509ZM54.0102 9.86482V22.8228H57.0781C59.2849 22.8228 60.8727 22.1983 61.7877 21.0274C62.6758 19.8565 63.0256 18.3474 63.0256 16.3438C63.0256 14.3143 62.7565 12.9872 61.8415 11.6862C60.9265 10.3852 59.2042 9.86482 57.0781 9.86482H54.0102ZM79.4163 14.2882C80.4927 15.5892 81.031 17.5668 80.9502 19.8045H70.9391C70.9929 22.2244 72.1232 23.4473 74.3569 23.4473C76.3214 23.4473 77.3441 22.6407 77.6401 21.0535L80.735 21.2876C80.0352 24.28 77.8285 25.7631 74.3838 25.7631C72.2847 25.7631 70.67 25.1126 69.5128 23.9677C68.2748 22.7448 67.7097 21.0274 67.7097 18.9198C67.7097 16.9163 68.3018 15.1989 69.5128 13.95C70.6969 12.753 72.3116 12.1286 74.3569 12.1286C76.4829 12.1286 78.286 12.9092 79.4163 14.2882ZM74.3569 14.4444C73.092 14.4444 72.177 14.8607 71.6388 15.5892C71.2082 16.1617 71.0198 16.8642 70.966 17.4887H77.6939C77.6401 16.7601 77.3979 16.0056 76.9404 15.4591C76.3483 14.7566 75.541 14.4444 74.3569 14.4444ZM88.6911 25.7631C84.3852 25.7631 81.8824 23.2131 81.8824 18.9458C81.8824 14.9387 84.3852 12.1286 88.6911 12.1286C92.2703 12.1286 94.181 14.0801 94.7194 16.7341L91.7321 17.2545C91.3822 15.7974 90.7363 14.4704 88.6911 14.4704C87.4531 14.4704 86.6458 14.8347 86.1344 15.4852C85.5424 16.2658 85.354 17.4627 85.354 18.9458C85.354 21.756 86.0268 23.4213 88.6911 23.4213C90.3865 23.4213 91.3015 22.6147 91.7321 21.0014L94.8 21.3137C94.3425 23.9417 92.055 25.7631 88.6911 25.7631ZM107.184 14.2882C108.26 15.5892 108.798 17.5668 108.718 19.8045H98.7065C98.7603 22.2244 99.8906 23.4473 102.124 23.4473C104.089 23.4473 105.111 22.6407 105.407 21.0535L108.502 21.2876C107.803 24.28 105.596 25.7631 102.151 25.7631C100.052 25.7631 98.4373 25.1126 97.2801 23.9677C96.0422 22.7448 95.4771 21.0274 95.4771 18.9198C95.4771 16.9163 96.0691 15.1989 97.2801 13.95C98.4643 12.753 100.079 12.1286 102.124 12.1286C104.25 12.1286 106.053 12.9092 107.184 14.2882ZM102.124 14.4444C100.859 14.4444 99.9444 14.8607 99.4062 15.5892C98.9756 16.1617 98.7872 16.8642 98.7334 17.4887H105.461C105.407 16.7601 105.165 16.0056 104.708 15.4591C104.116 14.7566 103.308 14.4444 102.124 14.4444ZM121.383 13.4556C122.433 14.4964 122.514 16.0316 122.514 17.5928V25.4509H119.284V17.827C119.284 16.63 119.23 15.7974 118.531 15.1729C117.939 14.6005 117.293 14.5484 116.512 14.5484C115.328 14.5484 113.579 15.1729 113.579 18.3214V25.4509H110.376V12.4408H113.552V14.4183C114.225 12.8311 115.678 12.1286 117.616 12.1286C119.365 12.1286 120.468 12.5449 121.383 13.4556ZM129.658 25.581C127.102 25.581 125.595 24.6182 125.595 22.1723V14.9127H123.657V12.4408H125.595V8.82401H128.743V12.4408H131.488V14.9127H128.743V21.9121C128.743 22.6927 129.174 22.8749 130.143 22.8749C130.466 22.8749 130.923 22.8228 131.381 22.7448L131.435 25.4248C130.923 25.5289 130.25 25.581 129.658 25.581Z" fill="#1B1B1B"/>
</svg>
