<svg width="66" height="17" viewBox="0 0 66 17" fill="none" xmlns="http://www.w3.org/2000/svg">
<path d="M10.2084 2.63438C11.1843 2.63438 11.9372 4.25554 12.401 5.33939C12.7045 6.0488 13.3371 7.21471 14.0794 7.91501C15.0198 5.74321 15.6918 0.500008 16.6204 0.5C17.8171 0.500008 19.9837 4.11292 19.9837 8.47136C19.9837 12.8454 17.8187 16.5 16.6206 16.5C15.6938 16.5 15.0223 11.2715 14.0855 9.0794C13.3393 9.7787 12.7027 10.9514 12.3978 11.6638C11.9341 12.7476 11.181 14.3688 10.2052 14.3688C9.22933 14.3688 8.47635 12.7476 8.01258 11.6638C7.67093 10.8653 6.91239 9.48843 6.04988 8.84816C5.55482 9.29708 5.13057 10.0766 4.92948 10.5466C4.6294 11.2479 4.14216 12.2969 3.51073 12.2969C2.87929 12.2969 2.39205 11.2479 2.09198 10.5466C1.80196 9.86882 1.0358 8.54479 0.273657 8.49962C0.247219 8.50115 0.220772 8.50115 0.194336 8.49962C0.220758 8.49801 0.247205 8.49801 0.273657 8.49962C1.03499 8.45452 1.7892 7.13278 2.07921 6.455C2.37929 5.7537 2.86653 4.70471 3.49797 4.70471C4.1294 4.70471 4.61664 5.7537 4.91671 6.455C5.1189 6.9275 5.5467 7.71302 6.04525 8.16072C6.91098 7.52298 7.67306 6.1403 8.01576 5.33939C8.47949 4.25554 9.23254 2.63438 10.2084 2.63438Z" fill="#111827"/>
<path d="M28.3866 12.9752H25.0361V3.86816H28.3866C31.3469 3.86816 33.0154 5.67656 33.0154 8.42168C33.0154 11.2709 31.2662 12.9752 28.3866 12.9752ZM26.7181 5.18218V11.6612H28.2521C29.3554 11.6612 30.1493 11.3489 30.6068 10.7635C31.0509 10.178 31.2258 9.42346 31.2258 8.42168C31.2258 7.4069 31.0912 6.74339 30.6337 6.09288C30.1762 5.44238 29.3151 5.18218 28.2521 5.18218H26.7181ZM39.4211 7.39389C39.9593 8.04439 40.2285 9.03316 40.1881 10.152H35.1825C35.2094 11.362 35.7746 11.9734 36.8914 11.9734C37.8737 11.9734 38.385 11.5701 38.533 10.7765L40.0804 10.8936C39.7306 12.3897 38.6272 13.1313 36.9049 13.1313C35.8553 13.1313 35.048 12.8061 34.4694 12.2336C33.8504 11.6222 33.5678 10.7635 33.5678 9.70968C33.5678 8.7079 33.8639 7.84924 34.4694 7.22476C35.0614 6.6263 35.8688 6.31405 36.8914 6.31405C37.9544 6.31405 38.856 6.70436 39.4211 7.39389ZM36.8914 7.47195C36.259 7.47195 35.8015 7.68011 35.5324 8.04439C35.3171 8.33061 35.2229 8.68188 35.196 8.99413H38.5599C38.533 8.62984 38.4119 8.25255 38.1832 7.97934C37.8871 7.62807 37.4835 7.47195 36.8914 7.47195ZM44.0585 13.1313C41.9056 13.1313 40.6542 11.8563 40.6542 9.72269C40.6542 7.71914 41.9056 6.31405 44.0585 6.31405C45.8481 6.31405 46.8035 7.28981 47.0726 8.61683L45.579 8.87704C45.4041 8.14847 45.0811 7.48496 44.0585 7.48496C43.4395 7.48496 43.0358 7.6671 42.7802 7.99235C42.4842 8.38265 42.39 8.98112 42.39 9.72269C42.39 11.1278 42.7264 11.9604 44.0585 11.9604C44.9062 11.9604 45.3637 11.5571 45.579 10.7505L47.1129 10.9066C46.8842 12.2206 45.7405 13.1313 44.0585 13.1313ZM53.3047 7.39389C53.843 8.04439 54.1121 9.03316 54.0717 10.152H49.0662C49.0931 11.362 49.6582 11.9734 50.775 11.9734C51.7573 11.9734 52.2686 11.5701 52.4167 10.7765L53.9641 10.8936C53.6142 12.3897 52.5108 13.1313 50.7885 13.1313C49.739 13.1313 48.9316 12.8061 48.353 12.2336C47.734 11.6222 47.4515 10.7635 47.4515 9.70968C47.4515 8.7079 47.7475 7.84924 48.353 7.22476C48.9451 6.6263 49.7524 6.31405 50.775 6.31405C51.8381 6.31405 52.7396 6.70436 53.3047 7.39389ZM50.775 7.47195C50.1426 7.47195 49.6851 7.68011 49.416 8.04439C49.2007 8.33061 49.1065 8.68188 49.0796 8.99413H52.4436C52.4167 8.62984 52.2956 8.25255 52.0668 7.97934C51.7708 7.62807 51.3671 7.47195 50.775 7.47195ZM60.4046 6.97757C60.9294 7.49797 60.9697 8.26556 60.9697 9.04617V12.9752H59.355V9.16326C59.355 8.56479 59.3281 8.14847 58.9783 7.83623C58.6822 7.55001 58.3593 7.52399 57.9691 7.52399C57.377 7.52399 56.5024 7.83623 56.5024 9.41045V12.9752H54.9012V6.47018H56.4889V7.45894C56.8253 6.66533 57.5519 6.31405 58.5208 6.31405C59.3954 6.31405 59.9471 6.52222 60.4046 6.97757ZM64.5421 13.0403C63.2638 13.0403 62.5104 12.5589 62.5104 11.3359V7.70613H61.5416V6.47018H62.5104V4.66178H64.0846V6.47018H65.4571V7.70613H64.0846V11.2058C64.0846 11.5961 64.2999 11.6872 64.7843 11.6872C64.9457 11.6872 65.1745 11.6612 65.4032 11.6222L65.4301 12.9622C65.1745 13.0142 64.8381 13.0403 64.5421 13.0403Z" fill="#111827"/>
</svg>
