<svg width="41" height="40" viewBox="0 0 41 40" fill="none" xmlns="http://www.w3.org/2000/svg">
<path d="M36.1676 39.5H3.66758C2.7648 39.5 2.12383 39.1118 1.74466 38.3354C1.36549 37.5591 1.42869 36.8097 1.93424 36.0875L12.1176 21.7875C12.5148 21.2097 13.0204 20.7674 13.6342 20.4604C14.2481 20.1535 14.9162 20 15.6384 20H24.3592L36.7092 5.59169C37.3592 4.83336 38.1537 4.62572 39.0926 4.96877C40.0315 5.31183 40.5009 5.98891 40.5009 7.00002V35.1667C40.5009 36.3584 40.0766 37.3785 39.228 38.2271C38.3794 39.0757 37.3592 39.5 36.1676 39.5ZM11.2509 15.6667L4.53425 25.1459C4.17313 25.6514 3.70369 25.9493 3.12591 26.0396C2.54813 26.1299 2.00647 25.9945 1.50091 25.6334C0.995356 25.2722 0.697439 24.8028 0.607161 24.225C0.516884 23.6472 0.6523 23.1056 1.01341 22.6L7.78425 13.175C8.18147 12.5972 8.68702 12.1459 9.30091 11.8209C9.9148 11.4959 10.5829 11.3334 11.3051 11.3334H20.0259L28.8009 1.09586C29.1981 0.626411 29.6856 0.373633 30.2634 0.337522C30.8412 0.301411 31.3648 0.481966 31.8342 0.879188C32.3037 1.27641 32.5565 1.76391 32.5926 2.34169C32.6287 2.91947 32.4481 3.44308 32.0509 3.91252L23.2759 14.15C22.8787 14.6556 22.3912 15.0347 21.8134 15.2875C21.2356 15.5403 20.6398 15.6667 20.0259 15.6667H11.2509Z" fill="#2872FF"/>
</svg>
