<svg width="344" height="254" viewBox="0 0 344 254" fill="none" xmlns="http://www.w3.org/2000/svg">
<g clip-path="url(#clip0_1136_557)">
<rect width="343.667" height="254" transform="translate(0.333008)" fill="#F1F1F1"/>
<path d="M169.54 213.739L170.868 333.384H168.211L169.54 213.739Z" fill="#FDFDFD"/>
<path d="M172.894 213.781L178.397 333.307L175.742 333.399L172.894 213.781Z" fill="#FDFDFD"/>
<path d="M176.247 213.704L185.918 332.964L183.268 333.15L176.247 213.704Z" fill="#FDFDFD"/>
<path d="M179.598 213.513L193.425 332.363L190.783 332.641L179.598 213.513Z" fill="#FDFDFD"/>
<path d="M182.935 213.202L200.902 331.497L198.271 331.867L182.935 213.202Z" fill="#FDFDFD"/>
<path d="M186.27 212.778L208.355 330.374L205.738 330.835L186.27 212.778Z" fill="#FDFDFD"/>
<path d="M189.579 212.234L215.754 328.987L213.156 329.54L189.579 212.234Z" fill="#FDFDFD"/>
<path d="M192.862 211.577L223.096 327.346L220.518 327.988L192.862 211.577Z" fill="#FDFDFD"/>
<path d="M196.133 210.806L230.388 325.449L227.834 326.182L196.133 210.806Z" fill="#FDFDFD"/>
<path d="M199.364 209.922L237.6 323.3L235.073 324.121L199.364 209.922Z" fill="#FDFDFD"/>
<path d="M202.57 208.925L244.739 320.899L242.243 321.808L202.57 208.925Z" fill="#FDFDFD"/>
<path d="M205.739 207.82L251.79 318.255L249.327 319.25L205.739 207.82Z" fill="#FDFDFD"/>
<path d="M208.857 206.602L258.735 315.362L256.308 316.443L208.857 206.602Z" fill="#FDFDFD"/>
<path d="M211.939 205.278L265.582 312.231L263.194 313.396L211.939 205.278Z" fill="#FDFDFD"/>
<path d="M214.971 203.846L272.313 308.862L269.967 310.109L214.971 203.846Z" fill="#FDFDFD"/>
<path d="M217.952 202.307L278.925 305.258L276.624 306.586L217.952 202.307Z" fill="#FDFDFD"/>
<path d="M220.885 200.667L285.413 301.427L283.16 302.835L220.885 200.667Z" fill="#FDFDFD"/>
<path d="M223.755 198.926L291.761 297.373L289.558 298.859L223.755 198.926Z" fill="#FDFDFD"/>
<path d="M226.552 197.085L297.952 293.099L295.803 294.66L226.552 197.085Z" fill="#FDFDFD"/>
<path d="M229.289 195.149L303.996 288.612L301.902 290.248L229.289 195.149Z" fill="#FDFDFD"/>
<path d="M231.951 193.118L309.875 283.917L307.84 285.625L231.951 193.118Z" fill="#FDFDFD"/>
<path d="M234.553 190.999L315.598 279.023L313.624 280.801L234.553 190.999Z" fill="#FDFDFD"/>
<path d="M237.081 188.784L321.148 273.927L319.237 275.772L237.081 188.784Z" fill="#FDFDFD"/>
<path d="M239.524 186.488L326.511 268.644L324.666 270.555L239.524 186.488Z" fill="#FDFDFD"/>
<path d="M241.881 184.102L331.683 263.173L329.905 265.147L241.881 184.102Z" fill="#FDFDFD"/>
<path d="M244.154 181.635L336.661 257.523L334.953 259.558L244.154 181.635Z" fill="#FDFDFD"/>
<path d="M246.341 179.09L341.44 251.704L339.804 253.797L246.341 179.09Z" fill="#FDFDFD"/>
<path d="M248.444 176.476L346.019 245.726L344.457 247.876L248.444 176.476Z" fill="#FDFDFD"/>
<path d="M250.449 173.784L350.381 239.588L348.895 241.79L250.449 173.784Z" fill="#FDFDFD"/>
<path d="M252.817 171.3L354.985 233.575L353.577 235.828L252.817 171.3Z" fill="#FDFDFD"/>
<path d="M254.168 168.209L358.448 226.881L357.119 229.182L254.168 168.209Z" fill="#FDFDFD"/>
<path d="M255.883 165.325L362.147 220.322L360.899 222.668L255.883 165.325Z" fill="#FDFDFD"/>
<path d="M257.502 162.383L365.62 213.638L364.455 216.025L257.502 162.383Z" fill="#FDFDFD"/>
<path d="M259.011 159.388L368.852 206.839L367.771 209.266L259.011 159.388Z" fill="#FDFDFD"/>
<path d="M260.412 156.341L371.842 199.929L370.846 202.393L260.412 156.341Z" fill="#FDFDFD"/>
<path d="M261.703 153.249L374.587 192.921L373.678 195.418L261.703 153.249Z" fill="#FDFDFD"/>
<path d="M262.887 150.11L377.086 185.818L376.265 188.345L262.887 150.11Z" fill="#FDFDFD"/>
<path d="M263.963 146.93L379.339 178.632L378.606 181.185L263.963 146.93Z" fill="#FDFDFD"/>
<path d="M264.93 143.717L381.342 171.372L380.699 173.95L264.93 143.717Z" fill="#FDFDFD"/>
<path d="M265.776 140.469L383.082 164.045L382.53 166.644L265.776 140.469Z" fill="#FDFDFD"/>
<path d="M266.514 137.199L384.572 156.667L384.111 159.284L266.514 137.199Z" fill="#FDFDFD"/>
<path d="M267.132 133.907L385.797 149.243L385.428 151.874L267.132 133.907Z" fill="#FDFDFD"/>
<path d="M267.643 130.593L386.771 141.779L386.493 144.421L267.643 130.593Z" fill="#FDFDFD"/>
<path d="M268.033 127.263L387.478 134.284L387.293 136.934L268.033 127.263Z" fill="#FDFDFD"/>
<path d="M268.315 123.923L387.933 126.771L387.84 129.426L268.315 123.923Z" fill="#FDFDFD"/>
<path d="M268.477 120.573L388.121 119.244L388.121 121.901L268.477 120.573Z" fill="#FDFDFD"/>
<path d="M268.52 117.218L388.045 111.715L388.138 114.37L268.52 117.218Z" fill="#FDFDFD"/>
<path d="M268.442 113.866L387.702 104.195L387.888 106.845L268.442 113.866Z" fill="#FDFDFD"/>
<path d="M268.245 110.521L387.095 96.6935L387.373 99.3358L268.245 110.521Z" fill="#FDFDFD"/>
<path d="M267.94 107.184L386.235 89.2174L386.605 91.8484L267.94 107.184Z" fill="#FDFDFD"/>
<path d="M267.516 103.855L385.112 81.7709L385.573 84.3873L267.516 103.855Z" fill="#FDFDFD"/>
<path d="M266.972 100.546L383.726 74.3709L384.278 76.9697L266.972 100.546Z" fill="#FDFDFD"/>
<path d="M266.32 97.2563L382.089 67.0228L382.732 69.6006L266.32 97.2563Z" fill="#FDFDFD"/>
<path d="M265.55 93.9926L380.193 59.7372L380.926 62.291L265.55 93.9926Z" fill="#FDFDFD"/>
<path d="M264.672 90.7548L378.05 52.5193L378.871 55.046L264.672 90.7548Z" fill="#FDFDFD"/>
<path d="M263.675 87.5486L375.649 45.3795L376.558 47.8761L263.675 87.5486Z" fill="#FDFDFD"/>
<path d="M262.57 84.38L373.005 38.3288L374 40.7921L262.57 84.38Z" fill="#FDFDFD"/>
<path d="M261.358 81.2554L370.118 31.3781L371.199 33.8052L261.358 81.2554Z" fill="#FDFDFD"/>
<path d="M260.039 78.1743L366.993 24.5317L368.158 26.9196L260.039 78.1743Z" fill="#FDFDFD"/>
<path d="M258.601 75.1427L363.617 17.8001L364.865 20.146L258.601 75.1427Z" fill="#FDFDFD"/>
<path d="M257.069 72.1609L360.02 11.1882L361.348 13.4891L257.069 72.1609Z" fill="#FDFDFD"/>
<path d="M255.428 69.2343L356.189 4.70588L357.597 6.95897L255.428 69.2343Z" fill="#FDFDFD"/>
<path d="M253.694 66.3694L352.141 -1.63618L353.627 0.566406L253.694 66.3694Z" fill="#FDFDFD"/>
<path d="M251.853 63.5662L347.867 -7.83378L349.429 -5.68438L251.853 63.5662Z" fill="#FDFDFD"/>
<path d="M249.917 60.8301L343.38 -13.8772L345.016 -11.7836L249.917 60.8301Z" fill="#FDFDFD"/>
<path d="M247.886 58.1614L338.685 -19.7622L340.393 -17.727L247.886 58.1614Z" fill="#FDFDFD"/>
<path d="M245.76 55.5661L333.784 -25.4788L335.562 -23.5045L245.76 55.5661Z" fill="#FDFDFD"/>
<path d="M243.552 53.0443L328.694 -31.0233L330.539 -29.1122L243.552 53.0443Z" fill="#FDFDFD"/>
<path d="M241.249 50.6015L323.406 -36.3864L325.317 -34.5408L241.249 50.6015Z" fill="#FDFDFD"/>
<path d="M238.864 48.238L317.935 -41.564L319.909 -39.7863L238.864 48.238Z" fill="#FDFDFD"/>
<path d="M236.396 45.9596L312.285 -46.5473L314.32 -44.8395L236.396 45.9596Z" fill="#FDFDFD"/>
<path d="M233.858 43.7722L306.471 -51.3268L308.565 -49.6911L233.858 43.7722Z" fill="#FDFDFD"/>
<path d="M231.238 41.6758L300.488 -55.8995L302.638 -54.3378L231.238 41.6758Z" fill="#FDFDFD"/>
<path d="M228.546 39.6706L294.349 -60.262L296.551 -58.7764L228.546 39.6706Z" fill="#FDFDFD"/>
<path d="M225.785 37.7621L288.061 -64.4061L290.314 -62.9982L225.785 37.7621Z" fill="#FDFDFD"/>
<path d="M222.965 35.9506L281.636 -68.3288L283.937 -67.0004L222.965 35.9506Z" fill="#FDFDFD"/>
<path d="M220.075 34.2357L275.072 -72.0278L277.418 -70.7805L220.075 34.2357Z" fill="#FDFDFD"/>
<path d="M217.126 32.6237L268.381 -75.4944L270.769 -74.3297L217.126 32.6237Z" fill="#FDFDFD"/>
<path d="M214.132 31.1144L261.582 -78.7266L264.009 -77.646L214.132 31.1144Z" fill="#FDFDFD"/>
<path d="M211.091 29.7137L254.679 -81.7164L257.143 -80.7211L211.091 29.7137Z" fill="#FDFDFD"/>
<path d="M208.004 28.4156L247.676 -84.4678L250.173 -83.5592L208.004 28.4156Z" fill="#FDFDFD"/>
<path d="M204.871 27.2318L240.58 -86.9674L243.107 -86.1464L204.871 27.2318Z" fill="#FDFDFD"/>
<path d="M201.692 26.1565L233.393 -89.2193L235.947 -88.487L201.692 26.1565Z" fill="#FDFDFD"/>
<path d="M198.478 25.1897L226.134 -91.2222L228.712 -90.5795L198.478 25.1897Z" fill="#FDFDFD"/>
<path d="M195.231 24.3371L218.807 -92.9691L221.406 -92.4167L195.231 24.3371Z" fill="#FDFDFD"/>
<path d="M191.961 23.5986L211.429 -94.4589L214.045 -93.9975L191.961 23.5986Z" fill="#FDFDFD"/>
<path d="M188.669 22.9745L204.004 -95.6905L206.635 -95.3208L188.669 22.9745Z" fill="#FDFDFD"/>
<path d="M185.355 22.4644L196.541 -96.6635L199.183 -96.3858L185.355 22.4644Z" fill="#FDFDFD"/>
<path d="M182.031 22.0744L189.052 -97.3713L191.703 -97.186L182.031 22.0744Z" fill="#FDFDFD"/>
<path d="M178.685 21.7983L181.533 -97.8197L184.188 -97.727L178.685 21.7983Z" fill="#FDFDFD"/>
<path d="M175.34 21.6421L174.012 -98.0024L176.669 -98.0024L175.34 21.6421Z" fill="#FDFDFD"/>
<path d="M171.986 21.5997L166.482 -97.9256L169.138 -98.0183L171.986 21.5997Z" fill="#FDFDFD"/>
<path d="M168.633 21.6773L158.962 -97.5831L161.612 -97.7684L168.633 21.6773Z" fill="#FDFDFD"/>
<path d="M165.282 21.8683L151.455 -96.9819L154.097 -97.2596L165.282 21.8683Z" fill="#FDFDFD"/>
<path d="M161.946 22.1791L143.979 -96.1162L146.61 -96.486L161.946 22.1791Z" fill="#FDFDFD"/>
<path d="M158.622 22.6035L136.538 -94.9927L139.154 -95.454L158.622 22.6035Z" fill="#FDFDFD"/>
<path d="M155.313 23.1414L129.138 -93.6124L131.737 -94.1648L155.313 23.1414Z" fill="#FDFDFD"/>
<path d="M152.018 23.7988L121.784 -91.9704L124.362 -92.6131L152.018 23.7988Z" fill="#FDFDFD"/>
<path d="M148.748 24.5695L114.493 -90.074L117.047 -90.8063L148.748 24.5695Z" fill="#FDFDFD"/>
<path d="M145.516 25.4535L107.28 -87.9247L109.807 -88.7457L145.516 25.4535Z" fill="#FDFDFD"/>
<path d="M142.311 26.4509L100.141 -85.5239L102.638 -86.4326L142.311 26.4509Z" fill="#FDFDFD"/>
<path d="M139.141 27.5553L93.09 -82.8796L95.5533 -83.8748L139.141 27.5553Z" fill="#FDFDFD"/>
<path d="M136.023 28.7731L86.1452 -79.9874L88.5723 -81.068L136.023 28.7731Z" fill="#FDFDFD"/>
<path d="M132.942 30.098L79.299 -76.8555L81.6869 -78.0202L132.942 30.098Z" fill="#FDFDFD"/>
<path d="M129.91 31.5297L72.5677 -73.4866L74.9135 -74.7338L129.91 31.5297Z" fill="#FDFDFD"/>
<path d="M126.928 33.0624L65.9557 -69.8887L68.2566 -71.2171L126.928 33.0624Z" fill="#FDFDFD"/>
<path d="M123.996 34.7022L59.4676 -66.0582L61.7207 -67.4661L123.996 34.7022Z" fill="#FDFDFD"/>
<path d="M121.125 36.4427L53.1192 -62.0043L55.3217 -63.49L121.125 36.4427Z" fill="#FDFDFD"/>
<path d="M118.327 38.2842L46.9274 -57.7295L49.0768 -59.2911L118.327 38.2842Z" fill="#FDFDFD"/>
<path d="M115.592 40.2202L40.8847 -53.2431L42.9783 -54.8788L115.592 40.2202Z" fill="#FDFDFD"/>
<path d="M112.929 42.2514L35.0058 -48.5478L37.041 -50.2556L112.929 42.2514Z" fill="#FDFDFD"/>
<path d="M110.328 44.3709L29.2828 -43.6535L31.2572 -45.4313L110.328 44.3709Z" fill="#FDFDFD"/>
<path d="M107.812 46.5851L23.744 -38.5573L25.6551 -40.4028L107.812 46.5851Z" fill="#FDFDFD"/>
<path d="M105.369 48.8817L18.3812 -33.2748L20.2267 -35.186L105.369 48.8817Z" fill="#FDFDFD"/>
<path d="M103.012 51.2671L13.2096 -27.8036L14.9873 -29.778L103.012 51.2671Z" fill="#FDFDFD"/>
<path d="M100.739 53.7287L8.2317 -22.1597L9.93946 -24.1949L100.739 53.7287Z" fill="#FDFDFD"/>
<path d="M98.5517 56.2732L3.45268 -16.3406L5.08837 -18.4342L98.5517 56.2732Z" fill="#FDFDFD"/>
<path d="M96.449 58.8879L-1.12632 -10.3627L0.435307 -12.5121L96.449 58.8879Z" fill="#FDFDFD"/>
<path d="M94.444 61.5729L-5.48866 -4.23019L-4.003 -6.43278L94.444 61.5729Z" fill="#FDFDFD"/>
<path d="M92.5358 64.3284L-9.6325 2.05297L-8.22461 -0.200124L92.5358 64.3284Z" fill="#FDFDFD"/>
<path d="M90.7243 67.148L-13.5552 8.4761L-12.2268 6.17524L90.7243 67.148Z" fill="#FDFDFD"/>
<path d="M89.0094 70.0321L-17.2542 15.0353L-16.0069 12.6894L89.0094 70.0321Z" fill="#FDFDFD"/>
<path d="M87.4028 72.9744L-20.7154 21.7196L-19.5507 19.3317L87.4028 72.9744Z" fill="#FDFDFD"/>
<path d="M85.8937 75.9689L-23.9474 28.5186L-22.8668 26.0915L85.8937 75.9689Z" fill="#FDFDFD"/>
<path d="M84.4928 79.0157L-26.9374 35.4277L-25.9421 32.9644L84.4928 79.0157Z" fill="#FDFDFD"/>
<path d="M83.201 82.1089L-29.6825 42.4363L-28.7738 39.9397L83.201 82.1089Z" fill="#FDFDFD"/>
<path d="M82.0172 85.2479L-32.182 49.539L-31.361 47.0123L82.0172 85.2479Z" fill="#FDFDFD"/>
<path d="M80.9424 88.4213L-34.4335 56.7197L-33.7012 54.1658L80.9424 88.4213Z" fill="#FDFDFD"/>
<path d="M79.9746 91.6287L-36.4374 63.973L-35.7946 61.3951L79.9746 91.6287Z" fill="#FDFDFD"/>
<path d="M79.1283 94.8705L-38.1779 71.2943L-37.6255 68.6956L79.1283 94.8705Z" fill="#FDFDFD"/>
<path d="M78.3899 98.1402L-39.6677 78.6724L-39.2063 76.0559L78.3899 98.1402Z" fill="#FDFDFD"/>
<path d="M77.7719 101.432L-40.8932 86.0962L-40.5235 83.4653L77.7719 101.432Z" fill="#FDFDFD"/>
<path d="M77.2615 104.746L-41.8665 93.5608L-41.5888 90.9185L77.2615 104.746Z" fill="#FDFDFD"/>
<path d="M76.8715 108.076L-42.5743 101.055L-42.389 98.4049L76.8715 108.076Z" fill="#FDFDFD"/>
<path d="M76.59 111.416L-43.028 108.568L-42.9353 105.913L76.59 111.416Z" fill="#FDFDFD"/>
<path d="M76.4277 114.767L-43.2169 116.095L-43.2169 113.438L76.4277 114.767Z" fill="#FDFDFD"/>
<path d="M76.3856 118.121L-43.1398 123.624L-43.2325 120.969L76.3856 118.121Z" fill="#FDFDFD"/>
<path d="M76.4625 121.474L-42.798 131.145L-42.9833 128.495L76.4625 121.474Z" fill="#FDFDFD"/>
<path d="M76.6594 124.818L-42.191 138.646L-42.4687 136.004L76.6594 124.818Z" fill="#FDFDFD"/>
<path d="M76.9645 128.155L-41.3309 146.122L-41.7006 143.491L76.9645 128.155Z" fill="#FDFDFD"/>
<path d="M77.3894 131.478L-40.2068 153.563L-40.6682 150.946L77.3894 131.478Z" fill="#FDFDFD"/>
<path d="M77.9332 134.788L-38.8207 160.963L-39.3731 158.364L77.9332 134.788Z" fill="#FDFDFD"/>
<path d="M78.584 138.077L-37.1853 168.311L-37.828 165.733L78.584 138.077Z" fill="#FDFDFD"/>
<path d="M79.3544 141.341L-35.2892 175.596L-36.0215 173.042L79.3544 141.341Z" fill="#FDFDFD"/>
<path d="M80.2328 144.573L-33.1455 182.808L-33.9665 180.281L80.2328 144.573Z" fill="#FDFDFD"/>
<path d="M81.2307 147.773L-30.7441 189.942L-31.6528 187.445L81.2307 147.773Z" fill="#FDFDFD"/>
<path d="M82.3344 150.935L-28.1006 196.987L-29.0958 194.523L82.3344 150.935Z" fill="#FDFDFD"/>
<path d="M83.5467 154.06L-25.2137 203.937L-26.2944 201.51L83.5467 154.06Z" fill="#FDFDFD"/>
<path d="M84.8658 157.141L-22.0878 210.784L-23.2524 208.396L84.8658 157.141Z" fill="#FDFDFD"/>
<path d="M86.3031 160.173L-18.7132 217.515L-19.9604 215.17L86.3031 160.173Z" fill="#FDFDFD"/>
<path d="M87.8363 163.155L-15.1148 224.127L-16.4432 221.826L87.8363 163.155Z" fill="#FDFDFD"/>
<path d="M89.4759 166.081L-11.2845 230.61L-12.6924 228.357L89.4759 166.081Z" fill="#FDFDFD"/>
<path d="M91.2103 168.946L-7.23678 236.952L-8.72245 234.749L91.2103 168.946Z" fill="#FDFDFD"/>
<path d="M93.052 171.749L-2.96174 243.149L-4.52337 241L93.052 171.749Z" fill="#FDFDFD"/>
<path d="M94.9873 174.485L1.52391 249.193L-0.111777 247.099L94.9873 174.485Z" fill="#FDFDFD"/>
<path d="M97.0192 177.154L6.21994 255.077L4.51218 253.042L97.0192 177.154Z" fill="#FDFDFD"/>
<path d="M99.1445 179.749L11.1201 260.794L9.34237 258.82L99.1445 179.749Z" fill="#FDFDFD"/>
<path d="M101.353 182.271L16.2103 266.339L14.3647 264.428L101.353 182.271Z" fill="#FDFDFD"/>
<path d="M103.655 184.714L21.4986 271.702L19.5874 269.856L103.655 184.714Z" fill="#FDFDFD"/>
<path d="M106.04 187.072L26.9696 276.874L24.9952 275.096L106.04 187.072Z" fill="#FDFDFD"/>
<path d="M108.496 189.344L32.6078 281.851L30.5726 280.143L108.496 189.344Z" fill="#FDFDFD"/>
<path d="M111.035 191.531L38.4211 286.63L36.3275 284.995L111.035 191.531Z" fill="#FDFDFD"/>
<path d="M113.643 193.628L44.3926 291.203L42.2432 289.641L113.643 193.628Z" fill="#FDFDFD"/>
<path d="M116.334 195.633L50.531 295.566L48.3284 294.08L116.334 195.633Z" fill="#FDFDFD"/>
<path d="M119.096 197.541L56.8203 299.71L54.5672 298.302L119.096 197.541Z" fill="#FDFDFD"/>
<path d="M121.915 199.353L63.2434 303.632L60.9425 302.304L121.915 199.353Z" fill="#FDFDFD"/>
<path d="M124.794 201.068L69.7969 307.331L67.4511 306.084L124.794 201.068Z" fill="#FDFDFD"/>
<path d="M127.73 202.68L76.4754 310.798L74.0875 309.633L127.73 202.68Z" fill="#FDFDFD"/>
<path d="M130.725 204.189L83.2742 314.03L80.8471 312.95L130.725 204.189Z" fill="#FDFDFD"/>
<path d="M133.765 205.59L90.177 317.02L87.7136 316.025L133.765 205.59Z" fill="#FDFDFD"/>
<path d="M136.853 206.882L97.1799 319.766L94.6833 318.857L136.853 206.882Z" fill="#FDFDFD"/>
<path d="M139.985 208.066L104.276 322.265L101.75 321.444L139.985 208.066Z" fill="#FDFDFD"/>
<path d="M143.165 209.141L111.463 324.517L108.909 323.784L143.165 209.141Z" fill="#FDFDFD"/>
<path d="M146.378 210.108L118.722 326.52L116.144 325.877L146.378 210.108Z" fill="#FDFDFD"/>
<path d="M149.614 210.96L126.037 328.267L123.439 327.714L149.614 210.96Z" fill="#FDFDFD"/>
<path d="M152.884 211.699L133.416 329.756L130.799 329.295L152.884 211.699Z" fill="#FDFDFD"/>
<path d="M156.175 212.323L140.839 330.988L138.208 330.618L156.175 212.323Z" fill="#FDFDFD"/>
<path d="M159.489 212.833L148.304 331.961L145.662 331.683L159.489 212.833Z" fill="#FDFDFD"/>
<path d="M162.826 213.223L155.805 332.669L153.155 332.484L162.826 213.223Z" fill="#FDFDFD"/>
<path d="M166.16 213.499L163.312 333.117L160.657 333.024L166.16 213.499Z" fill="#FDFDFD"/>
<g filter="url(#filter0_di_1136_557)">
<rect x="32.5342" y="87.9116" width="92.25" height="92.25" rx="20.25" transform="rotate(-15 32.5342 87.9116)" fill="white"/>
<rect x="29.0896" y="85.9229" width="97.875" height="97.875" rx="23.0625" transform="rotate(-15 29.0896 85.9229)" stroke="#CECECE" stroke-width="5.625"/>
<g filter="url(#filter1_d_1136_557)">
<g clip-path="url(#clip1_1136_557)">
<rect x="68.999" y="109.001" width="32" height="32" rx="16" transform="rotate(-15 68.999 109.001)" fill="white"/>
<path d="M92.736 135.77C101.301 133.475 106.345 124.739 104.05 116.174C101.755 107.609 93.0184 102.565 84.4538 104.86C75.8892 107.155 70.8453 115.892 73.1401 124.456C75.435 133.021 84.1715 138.065 92.736 135.77Z" fill="#B7B7B7"/>
<path d="M93.5003 121.623C92.8964 119.37 91.337 118.959 88.5462 119.362C86.5453 119.622 86.0209 119.21 85.7793 118.309C85.5377 117.407 86.0265 116.655 87.3143 116.31C88.4734 116 89.221 116.213 89.8017 117.093C89.9179 117.269 90.1456 117.346 90.3388 117.294L91.369 117.018C91.6266 116.949 91.7681 116.704 91.6991 116.447L91.6818 116.382C91.0446 115.034 89.5921 114.25 88.0766 114.519L87.6625 112.973C87.5935 112.715 87.3485 112.574 87.0093 112.596L86.0434 112.855C85.7858 112.924 85.6443 113.169 85.6662 113.508L86.063 114.989C84.2002 115.764 83.3219 117.38 83.7533 118.99C84.3227 121.115 85.8348 121.607 88.6257 121.204C90.5151 121.043 91.1982 121.274 91.4742 122.304C91.7503 123.335 91.0385 124.285 89.8151 124.613C88.1407 125.061 87.3713 124.508 86.9193 123.594C86.786 123.354 86.5583 123.276 86.3651 123.328L85.2703 123.622C85.0128 123.691 84.8714 123.936 84.9404 124.193L84.9577 124.258C85.6465 125.798 86.9875 126.681 89.1988 126.434L89.6129 127.98C89.6819 128.237 89.9269 128.378 90.2661 128.357L91.232 128.098C91.4896 128.029 91.631 127.784 91.6092 127.445L91.1951 125.899C93.0407 125.059 93.9662 123.362 93.5003 121.623Z" fill="white"/>
<path d="M87.7781 130.404C82.2722 129.947 78.1952 125.034 78.7341 119.575C78.9754 116.612 80.5483 113.982 82.9296 112.309C83.1527 112.111 83.2297 111.883 83.1434 111.561L82.9019 110.66C82.8328 110.402 82.6523 110.243 82.3775 110.248C82.313 110.265 82.1843 110.3 82.1371 110.381C76.5372 113.953 74.9314 121.354 78.5024 126.954C80.6277 130.249 84.1387 132.276 88.0554 132.469C88.3475 132.529 88.5707 132.331 88.5659 132.056C88.6131 131.975 88.5959 131.91 88.5614 131.781L88.3198 130.88C88.268 130.687 88.0058 130.481 87.7781 130.404ZM89.2206 108.483C88.9285 108.424 88.7054 108.622 88.7101 108.896C88.6629 108.978 88.6801 109.042 88.7147 109.171L88.9562 110.073C89.0253 110.33 89.2874 110.536 89.5152 110.613C95.0211 111.07 99.0981 115.982 98.5592 121.441C98.3179 124.405 96.745 127.035 94.3637 128.708C94.1406 128.906 94.0636 129.134 94.1499 129.456L94.3914 130.357C94.4605 130.615 94.641 130.774 94.9158 130.769C94.9803 130.752 95.109 130.717 95.1562 130.635C100.756 127.064 102.362 119.663 98.7909 114.063C96.6483 110.703 93.0728 108.694 89.2206 108.483Z" fill="white"/>
</g>
</g>
</g>
<g filter="url(#filter2_di_1136_557)">
<rect x="221.786" y="64.0361" width="92.25" height="92.25" rx="20.25" transform="rotate(15 221.786 64.0361)" fill="white"/>
<rect x="219.797" y="60.5915" width="97.875" height="97.875" rx="23.0625" transform="rotate(15 219.797 60.5915)" stroke="#CECECE" stroke-width="5.625"/>
<g filter="url(#filter3_d_1136_557)">
<path d="M262.999 118.136C262.561 117.701 261.895 117.523 261.223 117.66L256.425 118.992L253.196 119.792L248.471 121.144C247.874 121.301 247.208 121.123 246.695 120.668L244.028 117.891C243.59 117.456 243.378 116.765 243.557 116.099L244.548 112.399C244.707 111.807 245.161 111.294 245.853 111.083L249.531 110.085C250.128 109.928 250.794 110.106 251.307 110.561L253.973 113.338C254.412 113.773 254.624 114.464 254.445 115.13L253.791 117.572L257.039 116.698L257.713 114.181C257.872 113.589 257.735 112.918 257.242 112.389L252.253 107.325C251.815 106.89 251.149 106.711 250.477 106.849L243.457 108.775C242.785 108.912 242.331 109.425 242.172 110.017L240.308 116.974C240.15 117.566 240.287 118.237 240.78 118.766L245.842 123.85C246.281 124.285 246.947 124.464 247.618 124.326L252.323 123.049L255.572 122.174L260.277 120.897C260.874 120.739 261.54 120.918 262.053 121.372L264.739 124.075C265.178 124.51 265.39 125.201 265.211 125.867L264.22 129.568C264.061 130.16 263.606 130.672 262.915 130.884L259.311 131.901C258.714 132.058 258.048 131.88 257.535 131.425L254.848 128.722C254.41 128.288 254.198 127.596 254.377 126.93L255.011 124.562L251.763 125.437L251.108 127.879C250.95 128.471 251.087 129.142 251.58 129.671L256.643 134.756C257.081 135.19 257.747 135.369 258.419 135.231L265.345 133.359C265.943 133.202 266.471 132.709 266.65 132.043L268.534 125.013C268.692 124.421 268.555 123.749 268.062 123.221L262.999 118.136Z" fill="#B7B7B7"/>
</g>
</g>
<g filter="url(#filter4_di_1136_557)">
<rect x="136.034" y="58.4111" width="92.25" height="92.25" rx="20.25" fill="white"/>
<rect x="133.222" y="55.5986" width="97.875" height="97.875" rx="23.0625" stroke="#CECECE" stroke-width="5.625"/>
<g filter="url(#filter5_d_1136_557)">
<path d="M182.826 88.2866L182.596 89.0484V111.152L182.826 111.376L193.345 105.311L182.826 88.2866Z" fill="#B7B7B7"/>
<path d="M182.823 88.2866L172.304 105.311L182.823 111.376V100.647V88.2866Z" fill="#B7B7B7"/>
<path d="M182.826 113.318L182.696 113.472V121.346L182.826 121.715L193.352 107.257L182.826 113.318Z" fill="#B7B7B7"/>
<path d="M182.823 121.715V113.318L172.304 107.257L182.823 121.715Z" fill="#B7B7B7"/>
<path d="M182.821 111.376L193.34 105.311L182.821 100.647V111.376Z" fill="#B7B7B7"/>
<path d="M172.304 105.311L182.823 111.376V100.647L172.304 105.311Z" fill="#B7B7B7"/>
</g>
</g>
</g>
<defs>
<filter id="filter0_di_1136_557" x="16.4541" y="49.9553" width="145.144" height="145.143" filterUnits="userSpaceOnUse" color-interpolation-filters="sRGB">
<feFlood flood-opacity="0" result="BackgroundImageFix"/>
<feColorMatrix in="SourceAlpha" type="matrix" values="0 0 0 0 0 0 0 0 0 0 0 0 0 0 0 0 0 0 127 0" result="hardAlpha"/>
<feOffset dy="2"/>
<feGaussianBlur stdDeviation="7.5"/>
<feComposite in2="hardAlpha" operator="out"/>
<feColorMatrix type="matrix" values="0 0 0 0 0 0 0 0 0 0 0 0 0 0 0 0 0 0 0.24 0"/>
<feBlend mode="normal" in2="BackgroundImageFix" result="effect1_dropShadow_1136_557"/>
<feBlend mode="normal" in="SourceGraphic" in2="effect1_dropShadow_1136_557" result="shape"/>
<feColorMatrix in="SourceAlpha" type="matrix" values="0 0 0 0 0 0 0 0 0 0 0 0 0 0 0 0 0 0 127 0" result="hardAlpha"/>
<feOffset/>
<feGaussianBlur stdDeviation="13.5"/>
<feComposite in2="hardAlpha" operator="arithmetic" k2="-1" k3="1"/>
<feColorMatrix type="matrix" values="0 0 0 0 0 0 0 0 0 0 0 0 0 0 0 0 0 0 0.12 0"/>
<feBlend mode="normal" in2="shape" result="effect2_innerShadow_1136_557"/>
</filter>
<filter id="filter1_d_1136_557" x="60.999" y="96.7192" width="55.1914" height="55.1919" filterUnits="userSpaceOnUse" color-interpolation-filters="sRGB">
<feFlood flood-opacity="0" result="BackgroundImageFix"/>
<feColorMatrix in="SourceAlpha" type="matrix" values="0 0 0 0 0 0 0 0 0 0 0 0 0 0 0 0 0 0 127 0" result="hardAlpha"/>
<feOffset dy="4"/>
<feGaussianBlur stdDeviation="4"/>
<feComposite in2="hardAlpha" operator="out"/>
<feColorMatrix type="matrix" values="0 0 0 0 0 0 0 0 0 0 0 0 0 0 0 0 0 0 0.18 0"/>
<feBlend mode="normal" in2="BackgroundImageFix" result="effect1_dropShadow_1136_557"/>
<feBlend mode="normal" in="SourceGraphic" in2="effect1_dropShadow_1136_557" result="shape"/>
</filter>
<filter id="filter2_di_1136_557" x="181.83" y="49.9558" width="145.143" height="145.143" filterUnits="userSpaceOnUse" color-interpolation-filters="sRGB">
<feFlood flood-opacity="0" result="BackgroundImageFix"/>
<feColorMatrix in="SourceAlpha" type="matrix" values="0 0 0 0 0 0 0 0 0 0 0 0 0 0 0 0 0 0 127 0" result="hardAlpha"/>
<feOffset dy="2"/>
<feGaussianBlur stdDeviation="7.5"/>
<feComposite in2="hardAlpha" operator="out"/>
<feColorMatrix type="matrix" values="0 0 0 0 0 0 0 0 0 0 0 0 0 0 0 0 0 0 0.24 0"/>
<feBlend mode="normal" in2="BackgroundImageFix" result="effect1_dropShadow_1136_557"/>
<feBlend mode="normal" in="SourceGraphic" in2="effect1_dropShadow_1136_557" result="shape"/>
<feColorMatrix in="SourceAlpha" type="matrix" values="0 0 0 0 0 0 0 0 0 0 0 0 0 0 0 0 0 0 127 0" result="hardAlpha"/>
<feOffset/>
<feGaussianBlur stdDeviation="13.5"/>
<feComposite in2="hardAlpha" operator="arithmetic" k2="-1" k3="1"/>
<feColorMatrix type="matrix" values="0 0 0 0 0 0 0 0 0 0 0 0 0 0 0 0 0 0 0.12 0"/>
<feBlend mode="normal" in2="shape" result="effect2_innerShadow_1136_557"/>
</filter>
<filter id="filter3_d_1136_557" x="232.245" y="102.803" width="44.3516" height="44.4736" filterUnits="userSpaceOnUse" color-interpolation-filters="sRGB">
<feFlood flood-opacity="0" result="BackgroundImageFix"/>
<feColorMatrix in="SourceAlpha" type="matrix" values="0 0 0 0 0 0 0 0 0 0 0 0 0 0 0 0 0 0 127 0" result="hardAlpha"/>
<feOffset dy="4"/>
<feGaussianBlur stdDeviation="4"/>
<feComposite in2="hardAlpha" operator="out"/>
<feColorMatrix type="matrix" values="0 0 0 0 0 0 0 0 0 0 0 0 0 0 0 0 0 0 0.18 0"/>
<feBlend mode="normal" in2="BackgroundImageFix" result="effect1_dropShadow_1136_557"/>
<feBlend mode="normal" in="SourceGraphic" in2="effect1_dropShadow_1136_557" result="shape"/>
</filter>
<filter id="filter4_di_1136_557" x="115.409" y="39.7861" width="133.5" height="133.5" filterUnits="userSpaceOnUse" color-interpolation-filters="sRGB">
<feFlood flood-opacity="0" result="BackgroundImageFix"/>
<feColorMatrix in="SourceAlpha" type="matrix" values="0 0 0 0 0 0 0 0 0 0 0 0 0 0 0 0 0 0 127 0" result="hardAlpha"/>
<feOffset dy="2"/>
<feGaussianBlur stdDeviation="7.5"/>
<feComposite in2="hardAlpha" operator="out"/>
<feColorMatrix type="matrix" values="0 0 0 0 0 0 0 0 0 0 0 0 0 0 0 0 0 0 0.24 0"/>
<feBlend mode="normal" in2="BackgroundImageFix" result="effect1_dropShadow_1136_557"/>
<feBlend mode="normal" in="SourceGraphic" in2="effect1_dropShadow_1136_557" result="shape"/>
<feColorMatrix in="SourceAlpha" type="matrix" values="0 0 0 0 0 0 0 0 0 0 0 0 0 0 0 0 0 0 127 0" result="hardAlpha"/>
<feOffset/>
<feGaussianBlur stdDeviation="13.5"/>
<feComposite in2="hardAlpha" operator="arithmetic" k2="-1" k3="1"/>
<feColorMatrix type="matrix" values="0 0 0 0 0 0 0 0 0 0 0 0 0 0 0 0 0 0 0.12 0"/>
<feBlend mode="normal" in2="shape" result="effect2_innerShadow_1136_557"/>
</filter>
<filter id="filter5_d_1136_557" x="164.304" y="84.2866" width="37.0479" height="49.4285" filterUnits="userSpaceOnUse" color-interpolation-filters="sRGB">
<feFlood flood-opacity="0" result="BackgroundImageFix"/>
<feColorMatrix in="SourceAlpha" type="matrix" values="0 0 0 0 0 0 0 0 0 0 0 0 0 0 0 0 0 0 127 0" result="hardAlpha"/>
<feOffset dy="4"/>
<feGaussianBlur stdDeviation="4"/>
<feComposite in2="hardAlpha" operator="out"/>
<feColorMatrix type="matrix" values="0 0 0 0 0 0 0 0 0 0 0 0 0 0 0 0 0 0 0.18 0"/>
<feBlend mode="normal" in2="BackgroundImageFix" result="effect1_dropShadow_1136_557"/>
<feBlend mode="normal" in="SourceGraphic" in2="effect1_dropShadow_1136_557" result="shape"/>
</filter>
<clipPath id="clip0_1136_557">
<rect width="343.667" height="254" fill="white" transform="translate(0.333008)"/>
</clipPath>
<clipPath id="clip1_1136_557">
<rect x="68.999" y="109.001" width="32" height="32" rx="16" transform="rotate(-15 68.999 109.001)" fill="white"/>
</clipPath>
</defs>
</svg>
