<svg width="533" height="300" viewBox="0 0 533 300" fill="none" xmlns="http://www.w3.org/2000/svg">
<g clip-path="url(#clip0_1336_1625)">
<rect width="599" height="388" rx="32" fill="white"/>
<rect x="24" y="24" width="502" height="393" rx="18" fill="white"/>
<mask id="mask0_1336_1625" style="mask-type:alpha" maskUnits="userSpaceOnUse" x="48" y="48" width="24" height="24">
<rect x="48" y="48" width="24" height="24" fill="#D9D9D9"/>
</mask>
<g mask="url(#mask0_1336_1625)">
<path d="M54 67.5C53.0347 67.5 52.21 67.158 51.526 66.474C50.842 65.79 50.5 64.9653 50.5 64V56C50.5 55.0347 50.842 54.21 51.526 53.526C52.21 52.842 53.0347 52.5 54 52.5H66C66.9653 52.5 67.79 52.842 68.474 53.526C69.158 54.21 69.5 55.0347 69.5 56V64C69.5 64.9653 69.158 65.79 68.474 66.474C67.79 67.158 66.9653 67.5 66 67.5H54ZM54 56.25H66C66.3795 56.25 66.7375 56.3045 67.074 56.4135C67.4105 56.5225 67.7192 56.6879 68 56.9098V56C68 55.45 67.8042 54.9792 67.4125 54.5875C67.0208 54.1958 66.55 54 66 54H54C53.45 54 52.9792 54.1958 52.5875 54.5875C52.1958 54.9792 52 55.45 52 56V56.9098C52.2808 56.6879 52.5895 56.5225 52.926 56.4135C53.2625 56.3045 53.6205 56.25 54 56.25ZM52.0923 59.2405L63.323 61.9692C63.4602 62.0026 63.599 62.0042 63.7395 61.974C63.8798 61.9438 64.0071 61.882 64.1212 61.7885L67.7213 58.7635C67.5571 58.4622 67.3221 58.2179 67.0163 58.0307C66.7106 57.8436 66.3718 57.75 66 57.75H54C53.5282 57.75 53.1186 57.8882 52.7713 58.1645C52.4238 58.4407 52.1974 58.7993 52.0923 59.2405Z" fill="#1A1A1A"/>
</g>
<path d="M83.2422 65.5L80.1016 53.8594H82.2812L83.8203 60.1328C83.9401 60.6432 84.0521 61.1536 84.1562 61.6641C84.2656 62.1693 84.3698 62.6771 84.4688 63.1875C84.5729 62.6771 84.6823 62.1693 84.7969 61.6641C84.9115 61.1536 85.0312 60.6432 85.1562 60.1328L86.7578 53.8594H88.9375L90.5234 60.1328C90.6484 60.638 90.7682 61.1432 90.8828 61.6484C90.9974 62.1484 91.1068 62.6484 91.2109 63.1484C91.4089 62.1641 91.6276 61.1589 91.8672 60.1328L93.4062 53.8594H95.5938L92.4453 65.5H90.1094L88.3281 58.7656C88.2448 58.4479 88.1641 58.1146 88.0859 57.7656C88.0078 57.4115 87.9271 57.0417 87.8438 56.6562C87.7604 57.0417 87.6797 57.4115 87.6016 57.7656C87.5234 58.1146 87.4427 58.4479 87.3594 58.7656L85.5859 65.5H83.2422ZM98.2031 65.6328C97.3802 65.6328 96.6979 65.4271 96.1562 65.0156C95.6198 64.599 95.3516 63.9792 95.3516 63.1562C95.3516 62.5312 95.5026 62.0495 95.8047 61.7109C96.112 61.3672 96.5104 61.1172 97 60.9609C97.4948 60.8047 98.026 60.6979 98.5938 60.6406C99.3594 60.5521 99.8932 60.474 100.195 60.4062C100.497 60.3385 100.648 60.1641 100.648 59.8828V59.8203C100.648 59.4661 100.513 59.1771 100.242 58.9531C99.9766 58.7292 99.6094 58.6172 99.1406 58.6172C98.6615 58.6172 98.2708 58.7292 97.9688 58.9531C97.6719 59.1771 97.5104 59.4635 97.4844 59.8125H95.5859C95.6328 58.9948 95.974 58.3359 96.6094 57.8359C97.2448 57.3359 98.1016 57.0859 99.1797 57.0859C100.253 57.0859 101.091 57.3359 101.695 57.8359C102.299 58.3359 102.602 59.0156 102.602 59.875V65.5H100.664V64.3359H100.633C100.435 64.7005 100.148 65.0078 99.7734 65.2578C99.3984 65.5078 98.875 65.6328 98.2031 65.6328ZM98.6875 64.1719C99.3333 64.1719 99.8229 64.0052 100.156 63.6719C100.49 63.3333 100.656 62.9245 100.656 62.4453V61.5547C100.536 61.6328 100.305 61.7057 99.9609 61.7734C99.6172 61.8359 99.2422 61.8984 98.8359 61.9609C98.4141 62.0234 98.0469 62.1432 97.7344 62.3203C97.4271 62.4922 97.2734 62.7656 97.2734 63.1406C97.2734 63.4635 97.401 63.7161 97.6562 63.8984C97.9115 64.0807 98.2552 64.1719 98.6875 64.1719ZM106.312 53.8594V65.5H104.344V53.8594H106.312ZM110.031 53.8594V65.5H108.062V53.8594H110.031ZM115.422 65.6875C114.599 65.6875 113.885 65.5026 113.281 65.1328C112.677 64.763 112.211 64.2552 111.883 63.6094C111.56 62.9583 111.398 62.2161 111.398 61.3828C111.398 60.5443 111.565 59.8021 111.898 59.1562C112.237 58.5052 112.703 57.9948 113.297 57.625C113.891 57.25 114.573 57.0625 115.344 57.0625C116.135 57.0625 116.828 57.2448 117.422 57.6094C118.016 57.974 118.477 58.4792 118.805 59.125C119.133 59.7656 119.297 60.5078 119.297 61.3516V61.8906H113.328C113.354 62.5625 113.552 63.1042 113.922 63.5156C114.292 63.9271 114.807 64.1328 115.469 64.1328C115.964 64.1328 116.372 64.026 116.695 63.8125C117.018 63.5938 117.237 63.3073 117.352 62.9531H119.195C119.091 63.4896 118.862 63.9635 118.508 64.375C118.159 64.7865 117.719 65.1094 117.188 65.3438C116.656 65.5729 116.068 65.6875 115.422 65.6875ZM113.344 60.5312H117.406C117.344 59.9427 117.13 59.4792 116.766 59.1406C116.406 58.7969 115.943 58.625 115.375 58.625C114.802 58.625 114.336 58.7969 113.977 59.1406C113.622 59.4792 113.411 59.9427 113.344 60.5312ZM124.992 57.25V58.8359H123.312V63.1328C123.312 63.4297 123.372 63.6354 123.492 63.75C123.612 63.8594 123.831 63.9141 124.148 63.9141H124.992V65.5H123.805C122.966 65.5 122.344 65.3307 121.938 64.9922C121.536 64.6536 121.336 64.1302 121.336 63.4219V58.8359H119.898V57.25H121.336V55H123.312V57.25H124.992Z" fill="#1A1A1A"/>
<path d="M490 60.6L493.9 56.7C494.084 56.5167 494.317 56.425 494.6 56.425C494.884 56.425 495.117 56.5167 495.3 56.7C495.484 56.8834 495.575 57.1167 495.575 57.4C495.575 57.6834 495.484 57.9167 495.3 58.1L490.7 62.7C490.6 62.8 490.492 62.8709 490.375 62.9125C490.259 62.9542 490.134 62.975 490 62.975C489.867 62.975 489.742 62.9542 489.625 62.9125C489.509 62.8709 489.4 62.8 489.3 62.7L484.7 58.1C484.517 57.9167 484.425 57.6834 484.425 57.4C484.425 57.1167 484.517 56.8834 484.7 56.7C484.884 56.5167 485.117 56.425 485.4 56.425C485.684 56.425 485.917 56.5167 486.1 56.7L490 60.6Z" fill="#666666"/>
<path d="M48.8672 116V107.27H50.0801L53.6777 112.953C53.7793 113.117 53.9199 113.35 54.0996 113.65C54.2793 113.951 54.457 114.256 54.6328 114.564C54.6211 114.26 54.6113 113.943 54.6035 113.615C54.5996 113.287 54.5977 113.051 54.5977 112.906V107.27H55.6523V116H54.4277L51.2285 110.949C51.1074 110.762 50.9277 110.475 50.6895 110.088C50.4551 109.697 50.1816 109.24 49.8691 108.717C49.8887 109.26 49.9023 109.719 49.9102 110.094C49.918 110.465 49.9219 110.746 49.9219 110.938V116H48.8672ZM59.8125 116.141C59.207 116.141 58.6895 116.002 58.2598 115.725C57.834 115.447 57.5078 115.066 57.2812 114.582C57.0547 114.094 56.9414 113.539 56.9414 112.918C56.9414 112.289 57.0605 111.73 57.2988 111.242C57.5371 110.754 57.8672 110.371 58.2891 110.094C58.7109 109.812 59.1953 109.672 59.7422 109.672C60.3164 109.672 60.8145 109.809 61.2363 110.082C61.6582 110.355 61.9824 110.736 62.209 111.225C62.4395 111.713 62.5547 112.277 62.5547 112.918V113.193H57.9258C57.9492 113.799 58.123 114.291 58.4473 114.67C58.7715 115.049 59.2266 115.238 59.8125 115.238C60.2539 115.238 60.6133 115.137 60.8906 114.934C61.1719 114.73 61.3594 114.469 61.4531 114.148H62.4492C62.3711 114.543 62.209 114.891 61.9629 115.191C61.7168 115.488 61.4082 115.721 61.0371 115.889C60.6699 116.057 60.2617 116.141 59.8125 116.141ZM57.9375 112.338H61.5586C61.5039 111.795 61.3145 111.363 60.9902 111.043C60.666 110.723 60.25 110.562 59.7422 110.562C59.2344 110.562 58.8203 110.723 58.5 111.043C58.1797 111.363 57.9922 111.795 57.9375 112.338ZM66.3926 109.812V110.668H65.1387V114.5C65.1387 114.738 65.1875 114.906 65.2852 115.004C65.3867 115.098 65.5645 115.145 65.8184 115.145H66.3926V116H65.7246C64.6699 116 64.1426 115.535 64.1426 114.605V110.668H63.041V109.812H64.1426V108.125H65.1387V109.812H66.3926ZM69.8672 116.141C69.2969 116.141 68.7949 116.004 68.3613 115.73C67.9316 115.453 67.5957 115.072 67.3535 114.588C67.1152 114.104 66.9961 113.547 66.9961 112.918C66.9961 112.285 67.1152 111.725 67.3535 111.236C67.5957 110.748 67.9316 110.365 68.3613 110.088C68.7949 109.811 69.2969 109.672 69.8672 109.672C70.4414 109.672 70.9434 109.811 71.373 110.088C71.8027 110.365 72.1367 110.748 72.375 111.236C72.6172 111.725 72.7383 112.285 72.7383 112.918C72.7383 113.547 72.6172 114.104 72.375 114.588C72.1367 115.072 71.8027 115.453 71.373 115.73C70.9434 116.004 70.4414 116.141 69.8672 116.141ZM69.8672 115.238C70.4531 115.238 70.9102 115.027 71.2383 114.605C71.5664 114.18 71.7305 113.617 71.7305 112.918C71.7305 112.211 71.5645 111.645 71.2324 111.219C70.9043 110.789 70.4492 110.574 69.8672 110.574C69.2852 110.574 68.8281 110.787 68.4961 111.213C68.168 111.639 68.0039 112.207 68.0039 112.918C68.0039 113.621 68.168 114.184 68.4961 114.605C68.8242 115.027 69.2812 115.238 69.8672 115.238ZM75.0352 116L73.1133 109.812H74.1562L74.9355 112.531C75.0449 112.906 75.1484 113.289 75.2461 113.68C75.3477 114.07 75.4492 114.457 75.5508 114.84C75.6523 114.457 75.7539 114.07 75.8555 113.68C75.957 113.289 76.0625 112.906 76.1719 112.531L76.957 109.812H77.9414L78.7148 112.531C78.8203 112.902 78.9219 113.281 79.0195 113.668C79.1211 114.055 79.2227 114.436 79.3242 114.811C79.4258 114.436 79.5273 114.055 79.6289 113.668C79.7305 113.281 79.8359 112.902 79.9453 112.531L80.7422 109.812H81.7852L79.8633 116H78.8203L78.0059 113.188C77.9082 112.848 77.8145 112.502 77.7246 112.15C77.6348 111.795 77.543 111.443 77.4492 111.096C77.3594 111.443 77.2676 111.795 77.1738 112.15C77.0801 112.502 76.9844 112.848 76.8867 113.188L76.0547 116H75.0352ZM82.6992 116V109.812H83.6484V110.785H83.6719C83.7852 110.465 83.9648 110.207 84.2109 110.012C84.457 109.816 84.7734 109.719 85.1602 109.719C85.25 109.719 85.332 109.723 85.4062 109.73C85.4844 109.738 85.543 109.746 85.582 109.754V110.75C85.543 110.738 85.4668 110.725 85.3535 110.709C85.2441 110.689 85.1172 110.68 84.9727 110.68C84.6289 110.68 84.3301 110.801 84.0762 111.043C83.8223 111.285 83.6953 111.668 83.6953 112.191V116H82.6992ZM86.4492 116V107.27H87.4453V112.596H87.457L90.334 109.812H91.623L88.8984 112.461L91.8223 116H90.5566L88.1367 113.088L87.4453 113.715V116H86.4492Z" fill="#666666"/>
<g filter="url(#filter0_d_1336_1625)">
<rect x="48.5" y="127.5" width="295" height="41" rx="11.5" stroke="#D4D4D4" shape-rendering="crispEdges"/>
<rect x="60" y="138" width="20" height="20" rx="10" fill="#1A1A1A"/>
<path d="M74.1751 150.163L72.7907 151.648C72.7608 151.68 72.7245 151.706 72.6842 151.723C72.6438 151.741 72.6003 151.75 72.5563 151.75H65.9939C65.9626 151.75 65.9319 151.741 65.9058 151.724C65.8796 151.707 65.859 151.682 65.8464 151.653C65.8339 151.625 65.83 151.593 65.8353 151.562C65.8405 151.531 65.8546 151.503 65.8759 151.48L67.2587 149.995C67.2886 149.963 67.3249 149.937 67.3652 149.92C67.4055 149.902 67.4491 149.893 67.4931 149.893H74.0555C74.0871 149.892 74.1182 149.901 74.1448 149.918C74.1715 149.935 74.1925 149.959 74.2053 149.988C74.2181 150.017 74.222 150.049 74.2167 150.08C74.2113 150.112 74.1968 150.14 74.1751 150.163ZM72.7907 147.173C72.7606 147.141 72.7244 147.116 72.6841 147.098C72.6438 147.081 72.6003 147.071 72.5563 147.071H65.9939C65.9626 147.071 65.9319 147.08 65.9058 147.097C65.8796 147.115 65.859 147.139 65.8464 147.168C65.8339 147.196 65.83 147.228 65.8353 147.259C65.8405 147.29 65.8546 147.318 65.8759 147.341L67.2587 148.827C67.2887 148.859 67.325 148.884 67.3653 148.902C67.4056 148.919 67.4491 148.929 67.4931 148.929H74.0555C74.0868 148.929 74.1173 148.919 74.1433 148.902C74.1694 148.885 74.1899 148.861 74.2023 148.832C74.2147 148.803 74.2186 148.772 74.2133 148.741C74.208 148.71 74.1939 148.682 74.1727 148.659L72.7907 147.173ZM65.9939 146.107H72.5563C72.6003 146.107 72.6438 146.098 72.6842 146.08C72.7245 146.063 72.7608 146.037 72.7907 146.005L74.1751 144.52C74.1913 144.503 74.2035 144.483 74.2109 144.46C74.2183 144.438 74.2206 144.414 74.2177 144.391C74.2148 144.367 74.2068 144.345 74.1942 144.325C74.1816 144.305 74.1647 144.288 74.1448 144.275C74.1182 144.258 74.0871 144.249 74.0555 144.25H67.4931C67.4491 144.25 67.4055 144.259 67.3652 144.277C67.3249 144.294 67.2886 144.32 67.2587 144.352L65.8759 145.837C65.8546 145.86 65.8405 145.888 65.8353 145.919C65.83 145.95 65.8339 145.982 65.8464 146.01C65.859 146.039 65.8796 146.064 65.9058 146.081C65.9319 146.098 65.9626 146.107 65.9939 146.107Z" fill="url(#paint0_linear_1336_1625)"/>
<path d="M93 153.688C92.1042 153.688 91.3281 153.529 90.6719 153.211C90.0156 152.888 89.5078 152.432 89.1484 151.844C88.7891 151.255 88.6094 150.557 88.6094 149.75H90.0469C90.0469 150.583 90.3047 151.234 90.8203 151.703C91.3411 152.172 92.0677 152.406 93 152.406C93.849 152.406 94.5286 152.221 95.0391 151.852C95.5547 151.482 95.8125 150.984 95.8125 150.359C95.8125 149.875 95.638 149.482 95.2891 149.18C94.9401 148.878 94.3464 148.622 93.5078 148.414L92.2031 148.094C91.0156 147.802 90.1589 147.411 89.6328 146.922C89.1068 146.432 88.8438 145.792 88.8438 145C88.8438 144.328 89.0078 143.745 89.3359 143.25C89.6693 142.75 90.138 142.362 90.7422 142.086C91.3464 141.81 92.0521 141.672 92.8594 141.672C94.0729 141.672 95.0391 141.997 95.7578 142.648C96.4818 143.294 96.8594 144.177 96.8906 145.297H95.5C95.4583 144.568 95.1979 143.997 94.7188 143.586C94.2396 143.169 93.6042 142.961 92.8125 142.961C92.0573 142.961 91.4375 143.146 90.9531 143.516C90.474 143.88 90.2344 144.352 90.2344 144.93C90.2344 145.383 90.4115 145.753 90.7656 146.039C91.125 146.32 91.7266 146.568 92.5703 146.781L93.8906 147.109C95.026 147.391 95.8646 147.789 96.4062 148.305C96.9479 148.82 97.2188 149.484 97.2188 150.297C97.2188 150.969 97.0417 151.56 96.6875 152.07C96.3385 152.581 95.8464 152.979 95.2109 153.266C94.5807 153.547 93.8438 153.688 93 153.688ZM102.219 153.688C101.458 153.688 100.789 153.505 100.211 153.141C99.638 152.771 99.1901 152.263 98.8672 151.617C98.5495 150.971 98.3906 150.229 98.3906 149.391C98.3906 148.547 98.5495 147.799 98.8672 147.148C99.1901 146.497 99.638 145.987 100.211 145.617C100.789 145.247 101.458 145.062 102.219 145.062C102.984 145.062 103.654 145.247 104.227 145.617C104.799 145.987 105.245 146.497 105.562 147.148C105.885 147.799 106.047 148.547 106.047 149.391C106.047 150.229 105.885 150.971 105.562 151.617C105.245 152.263 104.799 152.771 104.227 153.141C103.654 153.505 102.984 153.688 102.219 153.688ZM102.219 152.484C103 152.484 103.609 152.203 104.047 151.641C104.484 151.073 104.703 150.323 104.703 149.391C104.703 148.448 104.482 147.693 104.039 147.125C103.602 146.552 102.995 146.266 102.219 146.266C101.443 146.266 100.833 146.549 100.391 147.117C99.9531 147.685 99.7344 148.443 99.7344 149.391C99.7344 150.328 99.9531 151.078 100.391 151.641C100.828 152.203 101.438 152.484 102.219 152.484ZM108.922 141.859V153.5H107.594V141.859H108.922ZM113.406 153.625C112.589 153.625 111.904 153.414 111.352 152.992C110.805 152.57 110.531 151.948 110.531 151.125C110.531 150.651 110.622 150.266 110.805 149.969C110.992 149.672 111.24 149.44 111.547 149.273C111.859 149.102 112.211 148.971 112.602 148.883C112.997 148.794 113.401 148.724 113.812 148.672C114.339 148.599 114.753 148.544 115.055 148.508C115.357 148.471 115.57 148.411 115.695 148.328C115.826 148.245 115.891 148.099 115.891 147.891V147.812C115.891 147.365 115.729 146.995 115.406 146.703C115.089 146.411 114.641 146.266 114.062 146.266C113.49 146.266 113.018 146.406 112.648 146.688C112.284 146.964 112.086 147.307 112.055 147.719H110.703C110.729 147.214 110.885 146.766 111.172 146.375C111.458 145.979 111.849 145.667 112.344 145.438C112.839 145.208 113.411 145.094 114.062 145.094C115.026 145.094 115.789 145.344 116.352 145.844C116.919 146.339 117.203 146.995 117.203 147.812V153.5H115.891V152.328H115.859C115.76 152.526 115.615 152.727 115.422 152.93C115.229 153.128 114.969 153.294 114.641 153.43C114.318 153.56 113.906 153.625 113.406 153.625ZM113.594 152.438C114.135 152.438 114.576 152.341 114.914 152.148C115.253 151.951 115.5 151.695 115.656 151.383C115.812 151.07 115.891 150.734 115.891 150.375V149.344C115.792 149.438 115.529 149.523 115.102 149.602C114.674 149.674 114.224 149.745 113.75 149.812C113.432 149.854 113.13 149.927 112.844 150.031C112.562 150.13 112.333 150.273 112.156 150.461C111.979 150.643 111.891 150.891 111.891 151.203C111.891 151.589 112.042 151.891 112.344 152.109C112.651 152.328 113.068 152.438 113.594 152.438ZM120.5 148.672V153.5H119.172V145.25H120.469V146.461C120.755 145.992 121.104 145.648 121.516 145.43C121.932 145.206 122.401 145.094 122.922 145.094C123.479 145.094 123.987 145.216 124.445 145.461C124.904 145.701 125.268 146.062 125.539 146.547C125.815 147.031 125.953 147.641 125.953 148.375V153.5H124.625V148.469C124.625 147.755 124.453 147.219 124.109 146.859C123.771 146.495 123.292 146.312 122.672 146.312C122.073 146.312 121.56 146.497 121.133 146.867C120.711 147.237 120.5 147.839 120.5 148.672ZM130.438 153.625C129.62 153.625 128.935 153.414 128.383 152.992C127.836 152.57 127.562 151.948 127.562 151.125C127.562 150.651 127.654 150.266 127.836 149.969C128.023 149.672 128.271 149.44 128.578 149.273C128.891 149.102 129.242 148.971 129.633 148.883C130.029 148.794 130.432 148.724 130.844 148.672C131.37 148.599 131.784 148.544 132.086 148.508C132.388 148.471 132.602 148.411 132.727 148.328C132.857 148.245 132.922 148.099 132.922 147.891V147.812C132.922 147.365 132.76 146.995 132.438 146.703C132.12 146.411 131.672 146.266 131.094 146.266C130.521 146.266 130.049 146.406 129.68 146.688C129.315 146.964 129.117 147.307 129.086 147.719H127.734C127.76 147.214 127.917 146.766 128.203 146.375C128.49 145.979 128.88 145.667 129.375 145.438C129.87 145.208 130.443 145.094 131.094 145.094C132.057 145.094 132.82 145.344 133.383 145.844C133.951 146.339 134.234 146.995 134.234 147.812V153.5H132.922V152.328H132.891C132.792 152.526 132.646 152.727 132.453 152.93C132.26 153.128 132 153.294 131.672 153.43C131.349 153.56 130.938 153.625 130.438 153.625ZM130.625 152.438C131.167 152.438 131.607 152.341 131.945 152.148C132.284 151.951 132.531 151.695 132.688 151.383C132.844 151.07 132.922 150.734 132.922 150.375V149.344C132.823 149.438 132.56 149.523 132.133 149.602C131.706 149.674 131.255 149.745 130.781 149.812C130.464 149.854 130.161 149.927 129.875 150.031C129.594 150.13 129.365 150.273 129.188 150.461C129.01 150.643 128.922 150.891 128.922 151.203C128.922 151.589 129.073 151.891 129.375 152.109C129.682 152.328 130.099 152.438 130.625 152.438Z" fill="#1A1A1A"/>
<mask id="mask1_1336_1625" style="mask-type:alpha" maskUnits="userSpaceOnUse" x="308" y="136" width="24" height="24">
<rect x="308" y="136" width="24" height="24" fill="#D9D9D9"/>
</mask>
<g mask="url(#mask1_1336_1625)">
<path d="M320 150.661C319.879 150.661 319.767 150.642 319.663 150.604C319.56 150.565 319.461 150.499 319.367 150.406L314.873 145.911C314.735 145.773 314.661 145.601 314.653 145.397C314.645 145.193 314.718 145.013 314.873 144.858C315.018 144.713 315.194 144.64 315.4 144.64C315.606 144.64 315.782 144.713 315.927 144.858L320 148.915L324.073 144.858C324.211 144.719 324.383 144.646 324.587 144.637C324.792 144.629 324.972 144.703 325.127 144.858C325.272 145.003 325.344 145.178 325.344 145.384C325.344 145.591 325.272 145.767 325.127 145.911L320.633 150.406C320.539 150.499 320.44 150.565 320.336 150.604C320.233 150.642 320.12 150.661 320 150.661Z" fill="#1A1A1A"/>
</g>
</g>
<path d="M356.293 108.207V107.27H363.031V108.207H360.195V116H359.141V108.207H356.293ZM365.211 116.141C364.641 116.141 364.139 116.004 363.705 115.73C363.275 115.453 362.939 115.072 362.697 114.588C362.459 114.104 362.34 113.547 362.34 112.918C362.34 112.285 362.459 111.725 362.697 111.236C362.939 110.748 363.275 110.365 363.705 110.088C364.139 109.811 364.641 109.672 365.211 109.672C365.785 109.672 366.287 109.811 366.717 110.088C367.146 110.365 367.48 110.748 367.719 111.236C367.961 111.725 368.082 112.285 368.082 112.918C368.082 113.547 367.961 114.104 367.719 114.588C367.48 115.072 367.146 115.453 366.717 115.73C366.287 116.004 365.785 116.141 365.211 116.141ZM365.211 115.238C365.797 115.238 366.254 115.027 366.582 114.605C366.91 114.18 367.074 113.617 367.074 112.918C367.074 112.211 366.908 111.645 366.576 111.219C366.248 110.789 365.793 110.574 365.211 110.574C364.629 110.574 364.172 110.787 363.84 111.213C363.512 111.639 363.348 112.207 363.348 112.918C363.348 113.621 363.512 114.184 363.84 114.605C364.168 115.027 364.625 115.238 365.211 115.238ZM369.242 116V107.27H370.238V112.596H370.25L373.127 109.812H374.416L371.691 112.461L374.615 116H373.35L370.93 113.088L370.238 113.715V116H369.242ZM377.621 116.141C377.016 116.141 376.498 116.002 376.068 115.725C375.643 115.447 375.316 115.066 375.09 114.582C374.863 114.094 374.75 113.539 374.75 112.918C374.75 112.289 374.869 111.73 375.107 111.242C375.346 110.754 375.676 110.371 376.098 110.094C376.52 109.812 377.004 109.672 377.551 109.672C378.125 109.672 378.623 109.809 379.045 110.082C379.467 110.355 379.791 110.736 380.018 111.225C380.248 111.713 380.363 112.277 380.363 112.918V113.193H375.734C375.758 113.799 375.932 114.291 376.256 114.67C376.58 115.049 377.035 115.238 377.621 115.238C378.062 115.238 378.422 115.137 378.699 114.934C378.98 114.73 379.168 114.469 379.262 114.148H380.258C380.18 114.543 380.018 114.891 379.771 115.191C379.525 115.488 379.217 115.721 378.846 115.889C378.479 116.057 378.07 116.141 377.621 116.141ZM375.746 112.338H379.367C379.312 111.795 379.123 111.363 378.799 111.043C378.475 110.723 378.059 110.562 377.551 110.562C377.043 110.562 376.629 110.723 376.309 111.043C375.988 111.363 375.801 111.795 375.746 112.338ZM382.496 112.379V116H381.5V109.812H382.473V110.721C382.688 110.369 382.949 110.111 383.258 109.947C383.57 109.779 383.922 109.695 384.312 109.695C384.73 109.695 385.111 109.787 385.455 109.971C385.799 110.15 386.072 110.422 386.275 110.785C386.482 111.148 386.586 111.605 386.586 112.156V116H385.59V112.227C385.59 111.691 385.461 111.289 385.203 111.02C384.949 110.746 384.59 110.609 384.125 110.609C383.676 110.609 383.291 110.748 382.971 111.025C382.654 111.303 382.496 111.754 382.496 112.379Z" fill="#666666"/>
<g filter="url(#filter1_d_1336_1625)">
<rect x="356.5" y="127.5" width="145" height="41" rx="11.5" stroke="#D4D4D4" shape-rendering="crispEdges"/>
<path d="M378 158C383.523 158 388 153.523 388 148C388 142.477 383.523 138 378 138C372.477 138 368 142.477 368 148C368 153.523 372.477 158 378 158Z" fill="#26A69A"/>
<path d="M382.5 142.5H373.5V145H382.5V142.5Z" fill="white"/>
<path d="M378 146.5C375.772 146.5 372 146.869 372 148.25C372 149.632 375.772 150 378 150C380.229 150 384 149.632 384 148.25C384 146.869 380.229 146.5 378 146.5ZM378 149C375.239 149 373 148.553 373 148C373 147.448 375.239 147 378 147C380.761 147 383 147.448 383 148C383 148.553 380.761 149 378 149Z" fill="white"/>
<path d="M378 148C378.548 148 379.046 147.982 379.5 147.951V142.5H376.5V147.951C376.954 147.982 377.452 148 378 148Z" fill="white"/>
<path d="M378.861 148.984C378.806 148.986 378.75 148.988 378.693 148.989C378.466 148.996 378.236 149 378 149C377.764 149 377.534 148.996 377.307 148.99C377.25 148.988 377.194 148.987 377.139 148.985C376.921 148.977 376.707 148.968 376.5 148.955V154H379.5V148.954C379.293 148.967 379.079 148.977 378.861 148.984Z" fill="white"/>
<path d="M401.625 153.688C400.714 153.688 399.917 153.508 399.234 153.148C398.557 152.789 398.031 152.299 397.656 151.68C397.281 151.055 397.094 150.344 397.094 149.547V141.859H398.5V149.438C398.5 150.005 398.625 150.51 398.875 150.953C399.125 151.396 399.484 151.745 399.953 152C400.422 152.25 400.979 152.375 401.625 152.375C402.276 152.375 402.833 152.25 403.297 152C403.766 151.745 404.125 151.396 404.375 150.953C404.625 150.51 404.75 150.005 404.75 149.438V141.859H406.156V149.547C406.156 150.344 405.969 151.055 405.594 151.68C405.219 152.299 404.693 152.789 404.016 153.148C403.339 153.508 402.542 153.688 401.625 153.688ZM412.25 153.688C411.354 153.688 410.578 153.529 409.922 153.211C409.266 152.888 408.758 152.432 408.398 151.844C408.039 151.255 407.859 150.557 407.859 149.75H409.297C409.297 150.583 409.555 151.234 410.07 151.703C410.591 152.172 411.318 152.406 412.25 152.406C413.099 152.406 413.779 152.221 414.289 151.852C414.805 151.482 415.062 150.984 415.062 150.359C415.062 149.875 414.888 149.482 414.539 149.18C414.19 148.878 413.596 148.622 412.758 148.414L411.453 148.094C410.266 147.802 409.409 147.411 408.883 146.922C408.357 146.432 408.094 145.792 408.094 145C408.094 144.328 408.258 143.745 408.586 143.25C408.919 142.75 409.388 142.362 409.992 142.086C410.596 141.81 411.302 141.672 412.109 141.672C413.323 141.672 414.289 141.997 415.008 142.648C415.732 143.294 416.109 144.177 416.141 145.297H414.75C414.708 144.568 414.448 143.997 413.969 143.586C413.49 143.169 412.854 142.961 412.062 142.961C411.307 142.961 410.688 143.146 410.203 143.516C409.724 143.88 409.484 144.352 409.484 144.93C409.484 145.383 409.661 145.753 410.016 146.039C410.375 146.32 410.977 146.568 411.82 146.781L413.141 147.109C414.276 147.391 415.115 147.789 415.656 148.305C416.198 148.82 416.469 149.484 416.469 150.297C416.469 150.969 416.292 151.56 415.938 152.07C415.589 152.581 415.096 152.979 414.461 153.266C413.831 153.547 413.094 153.688 412.25 153.688ZM421.828 153.5H418.234V141.859H421.984C423.115 141.859 424.083 142.091 424.891 142.555C425.703 143.018 426.326 143.685 426.758 144.555C427.19 145.419 427.406 146.453 427.406 147.656C427.406 148.87 427.188 149.914 426.75 150.789C426.312 151.659 425.677 152.328 424.844 152.797C424.016 153.266 423.01 153.5 421.828 153.5ZM419.641 152.25H421.734C423.182 152.25 424.255 151.841 424.953 151.023C425.651 150.201 426 149.078 426 147.656C426 146.25 425.656 145.141 424.969 144.328C424.286 143.516 423.26 143.109 421.891 143.109H419.641V152.25ZM427.797 143.109V141.859H436.781V143.109H433V153.5H431.594V143.109H427.797Z" fill="#1A1A1A"/>
<mask id="mask2_1336_1625" style="mask-type:alpha" maskUnits="userSpaceOnUse" x="466" y="136" width="24" height="24">
<rect x="466" y="136" width="24" height="24" fill="#D9D9D9"/>
</mask>
<g mask="url(#mask2_1336_1625)">
<path d="M478 150.661C477.879 150.661 477.767 150.642 477.663 150.604C477.56 150.565 477.461 150.499 477.367 150.406L472.873 145.911C472.735 145.773 472.661 145.601 472.653 145.397C472.645 145.193 472.718 145.013 472.873 144.858C473.018 144.713 473.194 144.64 473.4 144.64C473.606 144.64 473.782 144.713 473.927 144.858L478 148.915L482.073 144.858C482.211 144.719 482.383 144.646 482.587 144.637C482.792 144.629 482.972 144.703 483.127 144.858C483.272 145.003 483.344 145.178 483.344 145.384C483.344 145.591 483.272 145.767 483.127 145.911L478.633 150.406C478.539 150.499 478.44 150.565 478.336 150.604C478.233 150.642 478.12 150.661 478 150.661Z" fill="#1A1A1A"/>
</g>
</g>
<rect x="48" y="187" width="454" height="148" rx="12" fill="#F7F8FA"/>
<path d="M66.1367 219L69.8965 208.814H71.291L75.0098 219H73.6973L72.6992 216.143H68.4473L67.4219 219H66.1367ZM68.8369 215.049H72.3232L71.5576 212.861C71.43 212.501 71.291 212.1 71.1406 211.658C70.9948 211.212 70.8125 210.649 70.5938 209.97C70.375 210.649 70.1904 211.212 70.04 211.658C69.8942 212.1 69.7552 212.501 69.623 212.861L68.8369 215.049ZM76.0078 219V211.781H77.1426V212.95C77.3704 212.526 77.6735 212.203 78.0518 211.979C78.43 211.756 78.8402 211.645 79.2822 211.645C79.7744 211.645 80.2051 211.77 80.5742 212.021C80.9434 212.271 81.2031 212.579 81.3535 212.943C81.5495 212.574 81.8434 212.267 82.2354 212.021C82.6273 211.77 83.0921 211.645 83.6299 211.645C84.0719 211.645 84.473 211.74 84.833 211.932C85.1976 212.123 85.487 212.412 85.7012 212.8C85.9199 213.187 86.0293 213.677 86.0293 214.27V219H84.8672V214.27C84.8672 213.709 84.71 213.31 84.3955 213.073C84.0811 212.832 83.7165 212.711 83.3018 212.711C82.7731 212.711 82.3561 212.873 82.0508 213.196C81.75 213.515 81.5996 213.919 81.5996 214.406V219H80.4375V214.146C80.4375 213.714 80.2917 213.367 80 213.107C79.7129 212.843 79.3506 212.711 78.9131 212.711C78.6123 212.711 78.3275 212.782 78.0586 212.923C77.7943 213.064 77.5801 213.276 77.416 213.559C77.252 213.837 77.1699 214.183 77.1699 214.598V219H76.0078ZM90.7324 219.164C90.0671 219.164 89.4814 219.005 88.9756 218.686C88.4743 218.362 88.0824 217.918 87.7998 217.353C87.5218 216.787 87.3828 216.138 87.3828 215.404C87.3828 214.666 87.5218 214.012 87.7998 213.442C88.0824 212.873 88.4743 212.426 88.9756 212.103C89.4814 211.779 90.0671 211.617 90.7324 211.617C91.4023 211.617 91.988 211.779 92.4893 212.103C92.9906 212.426 93.3802 212.873 93.6582 213.442C93.9408 214.012 94.082 214.666 94.082 215.404C94.082 216.138 93.9408 216.787 93.6582 217.353C93.3802 217.918 92.9906 218.362 92.4893 218.686C91.988 219.005 91.4023 219.164 90.7324 219.164ZM90.7324 218.111C91.416 218.111 91.9492 217.865 92.332 217.373C92.7148 216.876 92.9062 216.22 92.9062 215.404C92.9062 214.579 92.7126 213.919 92.3252 213.422C91.9424 212.921 91.4115 212.67 90.7324 212.67C90.0534 212.67 89.5202 212.918 89.1328 213.415C88.75 213.912 88.5586 214.575 88.5586 215.404C88.5586 216.225 88.75 216.881 89.1328 217.373C89.5156 217.865 90.0488 218.111 90.7324 218.111ZM98.0879 219.137C97.6048 219.137 97.1605 219.032 96.7549 218.822C96.3538 218.608 96.0326 218.289 95.791 217.865C95.554 217.437 95.4355 216.904 95.4355 216.266V211.781H96.5977V216.184C96.5977 216.808 96.748 217.28 97.0488 217.599C97.3496 217.913 97.7689 218.07 98.3066 218.07C98.8353 218.07 99.2842 217.909 99.6533 217.585C100.022 217.261 100.207 216.735 100.207 216.006V211.781H101.369V219H100.234V217.94C99.9837 218.351 99.6761 218.654 99.3115 218.85C98.9515 219.041 98.5436 219.137 98.0879 219.137ZM104.254 214.775V219H103.092V211.781H104.227V212.841C104.477 212.431 104.783 212.13 105.143 211.938C105.507 211.743 105.917 211.645 106.373 211.645C106.861 211.645 107.305 211.752 107.706 211.966C108.107 212.175 108.426 212.492 108.663 212.916C108.905 213.34 109.025 213.873 109.025 214.516V219H107.863V214.598C107.863 213.973 107.713 213.504 107.412 213.189C107.116 212.87 106.697 212.711 106.154 212.711C105.63 212.711 105.181 212.873 104.808 213.196C104.438 213.52 104.254 214.046 104.254 214.775ZM113.899 211.781V212.779H112.437V217.25C112.437 217.528 112.493 217.724 112.607 217.838C112.726 217.947 112.933 218.002 113.229 218.002H113.899V219H113.12C111.89 219 111.274 218.458 111.274 217.373V212.779H109.989V211.781H111.274V209.812H112.437V211.781H113.899ZM121.761 211.781V212.779H120.298V217.25C120.298 217.528 120.355 217.724 120.469 217.838C120.587 217.947 120.795 218.002 121.091 218.002H121.761V219H120.981C119.751 219 119.136 218.458 119.136 217.373V212.779H117.851V211.781H119.136V209.812H120.298V211.781H121.761ZM125.814 219.164C125.149 219.164 124.563 219.005 124.058 218.686C123.556 218.362 123.164 217.918 122.882 217.353C122.604 216.787 122.465 216.138 122.465 215.404C122.465 214.666 122.604 214.012 122.882 213.442C123.164 212.873 123.556 212.426 124.058 212.103C124.563 211.779 125.149 211.617 125.814 211.617C126.484 211.617 127.07 211.779 127.571 212.103C128.073 212.426 128.462 212.873 128.74 213.442C129.023 214.012 129.164 214.666 129.164 215.404C129.164 216.138 129.023 216.787 128.74 217.353C128.462 217.918 128.073 218.362 127.571 218.686C127.07 219.005 126.484 219.164 125.814 219.164ZM125.814 218.111C126.498 218.111 127.031 217.865 127.414 217.373C127.797 216.876 127.988 216.22 127.988 215.404C127.988 214.579 127.795 213.919 127.407 213.422C127.024 212.921 126.493 212.67 125.814 212.67C125.135 212.67 124.602 212.918 124.215 213.415C123.832 213.912 123.641 214.575 123.641 215.404C123.641 216.225 123.832 216.881 124.215 217.373C124.598 217.865 125.131 218.111 125.814 218.111ZM134.168 219V208.814H137.818C138.88 208.814 139.721 209.092 140.341 209.648C140.965 210.2 141.277 210.952 141.277 211.904C141.277 212.538 141.132 213.087 140.84 213.552C140.553 214.012 140.145 214.37 139.616 214.625C139.092 214.876 138.475 215.001 137.764 215.001H135.398V219H134.168ZM135.398 213.907H137.777C138.484 213.907 139.04 213.729 139.445 213.374C139.855 213.014 140.061 212.524 140.061 211.904C140.061 211.285 139.855 210.797 139.445 210.441C139.04 210.086 138.484 209.908 137.777 209.908H135.398V213.907ZM144.449 219.109C143.734 219.109 143.134 218.925 142.651 218.556C142.173 218.187 141.934 217.642 141.934 216.922C141.934 216.507 142.013 216.17 142.173 215.91C142.337 215.65 142.553 215.448 142.822 215.302C143.096 215.151 143.403 215.037 143.745 214.96C144.091 214.882 144.445 214.821 144.805 214.775C145.265 214.712 145.627 214.664 145.892 214.632C146.156 214.6 146.343 214.548 146.452 214.475C146.566 214.402 146.623 214.274 146.623 214.092V214.023C146.623 213.632 146.482 213.308 146.199 213.053C145.921 212.798 145.529 212.67 145.023 212.67C144.522 212.67 144.11 212.793 143.786 213.039C143.467 213.281 143.294 213.581 143.267 213.941H142.084C142.107 213.499 142.243 213.107 142.494 212.766C142.745 212.419 143.087 212.146 143.52 211.945C143.952 211.745 144.454 211.645 145.023 211.645C145.867 211.645 146.534 211.863 147.026 212.301C147.523 212.734 147.771 213.308 147.771 214.023V219H146.623V217.975H146.596C146.509 218.148 146.382 218.323 146.213 218.501C146.044 218.674 145.816 218.82 145.529 218.938C145.247 219.052 144.887 219.109 144.449 219.109ZM144.613 218.07C145.087 218.07 145.472 217.986 145.769 217.817C146.065 217.644 146.281 217.421 146.418 217.147C146.555 216.874 146.623 216.58 146.623 216.266V215.363C146.536 215.445 146.306 215.521 145.933 215.589C145.559 215.653 145.165 215.714 144.75 215.773C144.472 215.81 144.208 215.874 143.957 215.965C143.711 216.051 143.51 216.177 143.355 216.341C143.201 216.5 143.123 216.717 143.123 216.99C143.123 217.327 143.255 217.592 143.52 217.783C143.788 217.975 144.153 218.07 144.613 218.07ZM149.207 221.857V220.832H149.918C150.346 220.832 150.672 220.543 150.896 219.964L151.292 218.938L148.496 211.781H149.754L151.312 215.938C151.413 216.206 151.511 216.478 151.606 216.751C151.707 217.02 151.802 217.289 151.894 217.558C151.989 217.289 152.085 217.02 152.181 216.751C152.281 216.478 152.381 216.206 152.481 215.938L154.013 211.781H155.25L151.921 220.34C151.734 220.823 151.467 221.197 151.121 221.461C150.775 221.725 150.374 221.857 149.918 221.857H149.207Z" fill="#666666"/>
<path d="M351.061 208.814V219H349.871V210.086H349.864L347.328 211.768V210.51L349.871 208.814H351.061ZM356.229 219.164C355.103 219.164 354.23 218.745 353.61 217.906C352.995 217.063 352.688 215.874 352.688 214.338C352.688 213.194 352.817 212.196 353.077 211.344C353.341 210.492 353.747 209.831 354.294 209.361C354.841 208.887 355.54 208.65 356.393 208.65C357.277 208.65 357.999 208.899 358.56 209.396C359.125 209.892 359.455 210.546 359.551 211.357H358.348C358.252 210.865 358.042 210.473 357.719 210.182C357.4 209.89 356.983 209.744 356.468 209.744C355.88 209.744 355.392 209.913 355.005 210.25C354.622 210.587 354.335 211.052 354.144 211.645C353.957 212.232 353.863 212.907 353.863 213.668H353.877C354.109 213.276 354.456 212.962 354.916 212.725C355.381 212.488 355.887 212.369 356.434 212.369C357.049 212.369 357.596 212.517 358.074 212.813C358.557 213.105 358.938 213.506 359.216 214.017C359.494 214.522 359.633 215.099 359.633 215.746C359.633 216.416 359.487 217.008 359.195 217.523C358.908 218.038 358.509 218.442 357.999 218.733C357.489 219.021 356.898 219.164 356.229 219.164ZM356.229 218.07C356.639 218.07 357.01 217.968 357.343 217.763C357.68 217.553 357.947 217.273 358.143 216.922C358.343 216.566 358.443 216.174 358.443 215.746C358.443 215.318 358.348 214.933 358.156 214.591C357.965 214.244 357.705 213.971 357.377 213.771C357.049 213.565 356.68 213.463 356.27 213.463C355.859 213.463 355.483 213.565 355.142 213.771C354.804 213.976 354.533 214.254 354.328 214.604C354.128 214.951 354.027 215.336 354.027 215.76C354.027 216.184 354.125 216.571 354.321 216.922C354.522 217.273 354.788 217.553 355.121 217.763C355.454 217.968 355.823 218.07 356.229 218.07ZM364.486 219.164C363.785 219.164 363.165 219.023 362.627 218.74C362.089 218.453 361.668 218.057 361.362 217.551C361.057 217.045 360.904 216.462 360.904 215.801H362.148C362.148 216.521 362.351 217.081 362.757 217.482C363.162 217.883 363.73 218.084 364.459 218.084C365.156 218.084 365.721 217.909 366.154 217.558C366.592 217.202 366.811 216.726 366.811 216.129C366.811 215.587 366.578 215.151 366.113 214.823C365.648 214.491 365.042 214.324 364.295 214.324H363.475V213.23H364.295C364.951 213.23 365.482 213.08 365.888 212.779C366.293 212.474 366.496 212.073 366.496 211.576C366.496 211.002 366.305 210.551 365.922 210.223C365.544 209.895 365.038 209.73 364.404 209.73C363.757 209.73 363.247 209.913 362.873 210.277C362.499 210.637 362.312 211.139 362.312 211.781H361.123C361.123 211.166 361.262 210.624 361.54 210.154C361.823 209.68 362.21 209.311 362.702 209.047C363.199 208.783 363.769 208.65 364.411 208.65C365.035 208.65 365.596 208.773 366.093 209.02C366.59 209.266 366.981 209.603 367.269 210.031C367.556 210.46 367.699 210.952 367.699 211.508C367.699 212.023 367.535 212.481 367.207 212.882C366.883 213.278 366.437 213.563 365.867 213.736V213.757C366.519 213.866 367.038 214.14 367.426 214.577C367.818 215.01 368.014 215.527 368.014 216.129C368.014 216.721 367.859 217.248 367.549 217.708C367.243 218.164 366.824 218.521 366.291 218.781C365.762 219.036 365.161 219.164 364.486 219.164ZM377.051 219.164C376.253 219.164 375.556 219.007 374.959 218.692C374.367 218.378 373.906 217.95 373.578 217.407C373.25 216.86 373.086 216.238 373.086 215.541V208.814H374.316V215.445C374.316 215.942 374.426 216.384 374.645 216.771C374.863 217.159 375.178 217.464 375.588 217.688C375.998 217.906 376.486 218.016 377.051 218.016C377.62 218.016 378.108 217.906 378.514 217.688C378.924 217.464 379.238 217.159 379.457 216.771C379.676 216.384 379.785 215.942 379.785 215.445V208.814H381.016V215.541C381.016 216.238 380.852 216.86 380.523 217.407C380.195 217.95 379.735 218.378 379.143 218.692C378.55 219.007 377.853 219.164 377.051 219.164ZM386.348 219.164C385.564 219.164 384.885 219.025 384.311 218.747C383.736 218.465 383.292 218.066 382.978 217.551C382.663 217.036 382.506 216.425 382.506 215.719H383.764C383.764 216.448 383.989 217.018 384.44 217.428C384.896 217.838 385.532 218.043 386.348 218.043C387.09 218.043 387.685 217.881 388.132 217.558C388.583 217.234 388.809 216.799 388.809 216.252C388.809 215.828 388.656 215.484 388.351 215.22C388.045 214.955 387.526 214.732 386.792 214.55L385.65 214.27C384.611 214.014 383.862 213.673 383.401 213.244C382.941 212.816 382.711 212.255 382.711 211.562C382.711 210.975 382.854 210.464 383.142 210.031C383.433 209.594 383.843 209.254 384.372 209.013C384.901 208.771 385.518 208.65 386.225 208.65C387.286 208.65 388.132 208.935 388.761 209.505C389.394 210.07 389.725 210.842 389.752 211.822H388.535C388.499 211.184 388.271 210.685 387.852 210.325C387.432 209.961 386.876 209.778 386.184 209.778C385.523 209.778 384.98 209.94 384.557 210.264C384.137 210.583 383.928 210.995 383.928 211.501C383.928 211.897 384.083 212.221 384.393 212.472C384.707 212.718 385.233 212.934 385.972 213.121L387.127 213.408C388.12 213.654 388.854 214.003 389.328 214.454C389.802 214.905 390.039 215.486 390.039 216.197C390.039 216.785 389.884 217.302 389.574 217.749C389.269 218.196 388.838 218.544 388.282 218.795C387.731 219.041 387.086 219.164 386.348 219.164ZM394.729 219H391.584V208.814H394.865C395.854 208.814 396.702 209.017 397.408 209.423C398.119 209.828 398.664 210.412 399.042 211.173C399.42 211.929 399.609 212.834 399.609 213.887C399.609 214.949 399.418 215.862 399.035 216.628C398.652 217.389 398.096 217.975 397.367 218.385C396.643 218.795 395.763 219 394.729 219ZM392.814 217.906H394.646C395.913 217.906 396.852 217.549 397.463 216.833C398.074 216.113 398.379 215.131 398.379 213.887C398.379 212.656 398.078 211.686 397.477 210.975C396.88 210.264 395.982 209.908 394.783 209.908H392.814V217.906ZM399.951 209.908V208.814H407.812V209.908H404.504V219H403.273V209.908H399.951ZM412.666 214.208C412.666 213.433 412.737 212.636 412.878 211.815C413.019 210.991 413.213 210.207 413.459 209.464C413.71 208.721 413.997 208.083 414.32 207.55H415.455C415.122 208.215 414.835 208.931 414.594 209.696C414.352 210.457 414.165 211.225 414.033 212C413.906 212.77 413.842 213.506 413.842 214.208C413.842 215.156 413.972 216.12 414.231 217.1C414.496 218.079 414.904 219.134 415.455 220.265H414.32C413.783 219.344 413.372 218.369 413.09 217.339C412.807 216.309 412.666 215.265 412.666 214.208ZM419.898 208.814V219H418.709V210.086H418.702L416.166 211.768V210.51L418.709 208.814H419.898ZM425.066 219.164C423.941 219.164 423.068 218.745 422.448 217.906C421.833 217.063 421.525 215.874 421.525 214.338C421.525 213.194 421.655 212.196 421.915 211.344C422.179 210.492 422.585 209.831 423.132 209.361C423.679 208.887 424.378 208.65 425.23 208.65C426.115 208.65 426.837 208.899 427.397 209.396C427.963 209.892 428.293 210.546 428.389 211.357H427.186C427.09 210.865 426.88 210.473 426.557 210.182C426.238 209.89 425.821 209.744 425.306 209.744C424.718 209.744 424.23 209.913 423.843 210.25C423.46 210.587 423.173 211.052 422.981 211.645C422.795 212.232 422.701 212.907 422.701 213.668H422.715C422.947 213.276 423.294 212.962 423.754 212.725C424.219 212.488 424.725 212.369 425.271 212.369C425.887 212.369 426.434 212.517 426.912 212.813C427.395 213.105 427.776 213.506 428.054 214.017C428.332 214.522 428.471 215.099 428.471 215.746C428.471 216.416 428.325 217.008 428.033 217.523C427.746 218.038 427.347 218.442 426.837 218.733C426.326 219.021 425.736 219.164 425.066 219.164ZM425.066 218.07C425.477 218.07 425.848 217.968 426.181 217.763C426.518 217.553 426.785 217.273 426.98 216.922C427.181 216.566 427.281 216.174 427.281 215.746C427.281 215.318 427.186 214.933 426.994 214.591C426.803 214.244 426.543 213.971 426.215 213.771C425.887 213.565 425.518 213.463 425.107 213.463C424.697 213.463 424.321 213.565 423.979 213.771C423.642 213.976 423.371 214.254 423.166 214.604C422.965 214.951 422.865 215.336 422.865 215.76C422.865 216.184 422.963 216.571 423.159 216.922C423.36 217.273 423.626 217.553 423.959 217.763C424.292 217.968 424.661 218.07 425.066 218.07ZM433.324 219.164C432.622 219.164 432.003 219.023 431.465 218.74C430.927 218.453 430.506 218.057 430.2 217.551C429.895 217.045 429.742 216.462 429.742 215.801H430.986C430.986 216.521 431.189 217.081 431.595 217.482C432 217.883 432.568 218.084 433.297 218.084C433.994 218.084 434.559 217.909 434.992 217.558C435.43 217.202 435.648 216.726 435.648 216.129C435.648 215.587 435.416 215.151 434.951 214.823C434.486 214.491 433.88 214.324 433.133 214.324H432.312V213.23H433.133C433.789 213.23 434.32 213.08 434.726 212.779C435.131 212.474 435.334 212.073 435.334 211.576C435.334 211.002 435.143 210.551 434.76 210.223C434.382 209.895 433.876 209.73 433.242 209.73C432.595 209.73 432.085 209.913 431.711 210.277C431.337 210.637 431.15 211.139 431.15 211.781H429.961C429.961 211.166 430.1 210.624 430.378 210.154C430.66 209.68 431.048 209.311 431.54 209.047C432.037 208.783 432.606 208.65 433.249 208.65C433.873 208.65 434.434 208.773 434.931 209.02C435.427 209.266 435.819 209.603 436.106 210.031C436.394 210.46 436.537 210.952 436.537 211.508C436.537 212.023 436.373 212.481 436.045 212.882C435.721 213.278 435.275 213.563 434.705 213.736V213.757C435.357 213.866 435.876 214.14 436.264 214.577C436.656 215.01 436.852 215.527 436.852 216.129C436.852 216.721 436.697 217.248 436.387 217.708C436.081 218.164 435.662 218.521 435.129 218.781C434.6 219.036 433.999 219.164 433.324 219.164ZM445.889 219.164C445.091 219.164 444.394 219.007 443.797 218.692C443.204 218.378 442.744 217.95 442.416 217.407C442.088 216.86 441.924 216.238 441.924 215.541V208.814H443.154V215.445C443.154 215.942 443.264 216.384 443.482 216.771C443.701 217.159 444.016 217.464 444.426 217.688C444.836 217.906 445.324 218.016 445.889 218.016C446.458 218.016 446.946 217.906 447.352 217.688C447.762 217.464 448.076 217.159 448.295 216.771C448.514 216.384 448.623 215.942 448.623 215.445V208.814H449.854V215.541C449.854 216.238 449.689 216.86 449.361 217.407C449.033 217.95 448.573 218.378 447.98 218.692C447.388 219.007 446.691 219.164 445.889 219.164ZM455.186 219.164C454.402 219.164 453.723 219.025 453.148 218.747C452.574 218.465 452.13 218.066 451.815 217.551C451.501 217.036 451.344 216.425 451.344 215.719H452.602C452.602 216.448 452.827 217.018 453.278 217.428C453.734 217.838 454.37 218.043 455.186 218.043C455.928 218.043 456.523 217.881 456.97 217.558C457.421 217.234 457.646 216.799 457.646 216.252C457.646 215.828 457.494 215.484 457.188 215.22C456.883 214.955 456.364 214.732 455.63 214.55L454.488 214.27C453.449 214.014 452.7 213.673 452.239 213.244C451.779 212.816 451.549 212.255 451.549 211.562C451.549 210.975 451.692 210.464 451.979 210.031C452.271 209.594 452.681 209.254 453.21 209.013C453.739 208.771 454.356 208.65 455.062 208.65C456.124 208.65 456.97 208.935 457.599 209.505C458.232 210.07 458.562 210.842 458.59 211.822H457.373C457.337 211.184 457.109 210.685 456.689 210.325C456.27 209.961 455.714 209.778 455.021 209.778C454.361 209.778 453.818 209.94 453.395 210.264C452.975 210.583 452.766 210.995 452.766 211.501C452.766 211.897 452.921 212.221 453.23 212.472C453.545 212.718 454.071 212.934 454.81 213.121L455.965 213.408C456.958 213.654 457.692 214.003 458.166 214.454C458.64 214.905 458.877 215.486 458.877 216.197C458.877 216.785 458.722 217.302 458.412 217.749C458.107 218.196 457.676 218.544 457.12 218.795C456.569 219.041 455.924 219.164 455.186 219.164ZM463.566 219H460.422V208.814H463.703C464.692 208.814 465.54 209.017 466.246 209.423C466.957 209.828 467.502 210.412 467.88 211.173C468.258 211.929 468.447 212.834 468.447 213.887C468.447 214.949 468.256 215.862 467.873 216.628C467.49 217.389 466.934 217.975 466.205 218.385C465.48 218.795 464.601 219 463.566 219ZM461.652 217.906H463.484C464.751 217.906 465.69 217.549 466.301 216.833C466.911 216.113 467.217 215.131 467.217 213.887C467.217 212.656 466.916 211.686 466.314 210.975C465.717 210.264 464.82 209.908 463.621 209.908H461.652V217.906ZM474.388 219.164C473.449 219.164 472.626 218.941 471.92 218.494C471.214 218.043 470.662 217.423 470.266 216.635C469.874 215.842 469.678 214.935 469.678 213.914C469.678 212.884 469.874 211.975 470.266 211.187C470.658 210.394 471.207 209.774 471.913 209.327C472.624 208.876 473.449 208.65 474.388 208.65C475.099 208.65 475.748 208.792 476.336 209.074C476.924 209.352 477.414 209.751 477.806 210.271C478.202 210.785 478.462 211.398 478.585 212.109H477.327C477.163 211.367 476.817 210.797 476.288 210.4C475.764 209.999 475.131 209.799 474.388 209.799C473.672 209.799 473.055 209.974 472.535 210.325C472.016 210.672 471.615 211.155 471.332 211.774C471.049 212.39 470.908 213.103 470.908 213.914C470.908 214.721 471.049 215.432 471.332 216.047C471.615 216.662 472.016 217.145 472.535 217.496C473.055 217.842 473.672 218.016 474.388 218.016C475.121 218.016 475.753 217.817 476.281 217.421C476.81 217.024 477.161 216.457 477.334 215.719H478.585C478.462 216.425 478.204 217.036 477.812 217.551C477.421 218.066 476.928 218.465 476.336 218.747C475.748 219.025 475.099 219.164 474.388 219.164ZM479.562 220.265C480.118 219.134 480.526 218.079 480.786 217.1C481.046 216.12 481.176 215.156 481.176 214.208C481.176 213.506 481.11 212.77 480.978 212C480.85 211.225 480.665 210.457 480.424 209.696C480.182 208.931 479.895 208.215 479.562 207.55H480.697C481.021 208.083 481.306 208.721 481.552 209.464C481.802 210.207 481.998 210.991 482.14 211.815C482.281 212.636 482.352 213.433 482.352 214.208C482.352 215.265 482.21 216.309 481.928 217.339C481.65 218.369 481.24 219.344 480.697 220.265H479.562Z" fill="#666666"/>
<path d="M71.3252 244.164C70.3864 244.164 69.5638 243.941 68.8574 243.494C68.151 243.043 67.5996 242.423 67.2031 241.635C66.8112 240.842 66.6152 239.935 66.6152 238.914C66.6152 237.884 66.8112 236.975 67.2031 236.187C67.5951 235.394 68.1442 234.774 68.8506 234.327C69.5615 233.876 70.3864 233.65 71.3252 233.65C72.0361 233.65 72.6855 233.792 73.2734 234.074C73.8613 234.352 74.3512 234.751 74.7432 235.271C75.1396 235.785 75.3994 236.398 75.5225 237.109H74.2646C74.1006 236.367 73.7542 235.797 73.2256 235.4C72.7015 234.999 72.068 234.799 71.3252 234.799C70.6097 234.799 69.9922 234.974 69.4727 235.325C68.9531 235.672 68.5521 236.155 68.2695 236.774C67.987 237.39 67.8457 238.103 67.8457 238.914C67.8457 239.721 67.987 240.432 68.2695 241.047C68.5521 241.662 68.9531 242.145 69.4727 242.496C69.9922 242.842 70.6097 243.016 71.3252 243.016C72.0589 243.016 72.6901 242.817 73.2188 242.421C73.7474 242.024 74.0983 241.457 74.2715 240.719H75.5225C75.3994 241.425 75.1419 242.036 74.75 242.551C74.3581 243.066 73.8659 243.465 73.2734 243.747C72.6855 244.025 72.0361 244.164 71.3252 244.164ZM79.959 244.164C79.2936 244.164 78.708 244.005 78.2021 243.686C77.7008 243.362 77.3089 242.918 77.0264 242.353C76.7484 241.787 76.6094 241.138 76.6094 240.404C76.6094 239.666 76.7484 239.012 77.0264 238.442C77.3089 237.873 77.7008 237.426 78.2021 237.103C78.708 236.779 79.2936 236.617 79.959 236.617C80.6289 236.617 81.2145 236.779 81.7158 237.103C82.2171 237.426 82.6068 237.873 82.8848 238.442C83.1673 239.012 83.3086 239.666 83.3086 240.404C83.3086 241.138 83.1673 241.787 82.8848 242.353C82.6068 242.918 82.2171 243.362 81.7158 243.686C81.2145 244.005 80.6289 244.164 79.959 244.164ZM79.959 243.111C80.6426 243.111 81.1758 242.865 81.5586 242.373C81.9414 241.876 82.1328 241.22 82.1328 240.404C82.1328 239.579 81.9391 238.919 81.5518 238.422C81.1689 237.921 80.638 237.67 79.959 237.67C79.2799 237.67 78.7467 237.918 78.3594 238.415C77.9766 238.912 77.7852 239.575 77.7852 240.404C77.7852 241.225 77.9766 241.881 78.3594 242.373C78.7422 242.865 79.2754 243.111 79.959 243.111ZM85.8242 239.775V244H84.6621V236.781H85.7969V237.841C86.0475 237.431 86.3529 237.13 86.7129 236.938C87.0775 236.743 87.4876 236.645 87.9434 236.645C88.431 236.645 88.8753 236.752 89.2764 236.966C89.6774 237.175 89.9964 237.492 90.2334 237.916C90.4749 238.34 90.5957 238.873 90.5957 239.516V244H89.4336V239.598C89.4336 238.973 89.2832 238.504 88.9824 238.189C88.6862 237.87 88.2669 237.711 87.7246 237.711C87.2005 237.711 86.7516 237.873 86.3779 238.196C86.0088 238.52 85.8242 239.046 85.8242 239.775ZM94.1094 244L91.3203 236.781H92.5781L94.1367 240.938C94.2415 241.215 94.3418 241.493 94.4375 241.771C94.5332 242.045 94.6266 242.321 94.7178 242.599C94.8135 242.321 94.9092 242.045 95.0049 241.771C95.1006 241.493 95.1986 241.215 95.2988 240.938L96.8369 236.781H98.0742L95.2852 244H94.1094ZM101.848 244.164C101.141 244.164 100.537 244.002 100.036 243.679C99.5394 243.355 99.1589 242.911 98.8945 242.346C98.6302 241.776 98.498 241.129 98.498 240.404C98.498 239.671 98.637 239.019 98.915 238.449C99.193 237.88 99.5781 237.433 100.07 237.109C100.562 236.781 101.128 236.617 101.766 236.617C102.436 236.617 103.017 236.777 103.509 237.096C104.001 237.415 104.379 237.859 104.644 238.429C104.912 238.998 105.047 239.657 105.047 240.404V240.726H99.6465C99.6738 241.432 99.8766 242.006 100.255 242.448C100.633 242.89 101.164 243.111 101.848 243.111C102.363 243.111 102.782 242.993 103.105 242.756C103.434 242.519 103.652 242.214 103.762 241.84H104.924C104.833 242.3 104.644 242.706 104.356 243.057C104.069 243.403 103.709 243.674 103.276 243.87C102.848 244.066 102.372 244.164 101.848 244.164ZM99.6602 239.728H103.885C103.821 239.094 103.6 238.59 103.222 238.217C102.843 237.843 102.358 237.656 101.766 237.656C101.173 237.656 100.69 237.843 100.316 238.217C99.9427 238.59 99.724 239.094 99.6602 239.728ZM106.373 244V236.781H107.48V237.916H107.508C107.64 237.542 107.85 237.242 108.137 237.014C108.424 236.786 108.793 236.672 109.244 236.672C109.349 236.672 109.445 236.676 109.531 236.686C109.622 236.695 109.691 236.704 109.736 236.713V237.875C109.691 237.861 109.602 237.845 109.47 237.827C109.342 237.804 109.194 237.793 109.025 237.793C108.624 237.793 108.276 237.934 107.979 238.217C107.683 238.499 107.535 238.946 107.535 239.557V244H106.373ZM113.4 244.164C112.885 244.164 112.418 244.08 111.999 243.911C111.58 243.743 111.24 243.487 110.98 243.146C110.721 242.799 110.575 242.364 110.543 241.84H111.691C111.773 242.724 112.334 243.166 113.373 243.166C113.874 243.166 114.269 243.061 114.556 242.852C114.847 242.642 114.993 242.378 114.993 242.059C114.993 241.785 114.893 241.566 114.692 241.402C114.492 241.238 114.23 241.12 113.906 241.047L112.744 240.773C111.386 240.454 110.707 239.771 110.707 238.723C110.707 238.312 110.816 237.95 111.035 237.636C111.258 237.317 111.566 237.068 111.958 236.891C112.354 236.708 112.81 236.617 113.325 236.617C113.826 236.617 114.275 236.713 114.672 236.904C115.073 237.091 115.39 237.358 115.622 237.704C115.859 238.05 115.984 238.463 115.998 238.941H114.863C114.859 238.559 114.717 238.242 114.439 237.991C114.161 237.741 113.79 237.615 113.325 237.615C112.883 237.615 112.53 237.722 112.266 237.937C112.001 238.151 111.869 238.413 111.869 238.723C111.869 238.996 111.969 239.217 112.17 239.386C112.37 239.55 112.644 239.673 112.99 239.755L114.152 240.028C114.845 240.192 115.353 240.438 115.677 240.767C116 241.09 116.162 241.512 116.162 242.031C116.162 242.478 116.041 242.861 115.8 243.18C115.558 243.499 115.228 243.743 114.809 243.911C114.394 244.08 113.924 244.164 113.4 244.164ZM117.529 244V236.781H118.691V244H117.529ZM118.11 235.373C117.892 235.373 117.705 235.296 117.55 235.141C117.395 234.986 117.317 234.799 117.317 234.58C117.317 234.361 117.395 234.174 117.55 234.02C117.705 233.865 117.892 233.787 118.11 233.787C118.329 233.787 118.516 233.865 118.671 234.02C118.826 234.174 118.903 234.361 118.903 234.58C118.903 234.799 118.826 234.986 118.671 235.141C118.516 235.296 118.329 235.373 118.11 235.373ZM123.395 244.164C122.729 244.164 122.144 244.005 121.638 243.686C121.136 243.362 120.744 242.918 120.462 242.353C120.184 241.787 120.045 241.138 120.045 240.404C120.045 239.666 120.184 239.012 120.462 238.442C120.744 237.873 121.136 237.426 121.638 237.103C122.144 236.779 122.729 236.617 123.395 236.617C124.064 236.617 124.65 236.779 125.151 237.103C125.653 237.426 126.042 237.873 126.32 238.442C126.603 239.012 126.744 239.666 126.744 240.404C126.744 241.138 126.603 241.787 126.32 242.353C126.042 242.918 125.653 243.362 125.151 243.686C124.65 244.005 124.064 244.164 123.395 244.164ZM123.395 243.111C124.078 243.111 124.611 242.865 124.994 242.373C125.377 241.876 125.568 241.22 125.568 240.404C125.568 239.579 125.375 238.919 124.987 238.422C124.604 237.921 124.074 237.67 123.395 237.67C122.715 237.67 122.182 237.918 121.795 238.415C121.412 238.912 121.221 239.575 121.221 240.404C121.221 241.225 121.412 241.881 121.795 242.373C122.178 242.865 122.711 243.111 123.395 243.111ZM129.26 239.775V244H128.098V236.781H129.232V237.841C129.483 237.431 129.788 237.13 130.148 236.938C130.513 236.743 130.923 236.645 131.379 236.645C131.867 236.645 132.311 236.752 132.712 236.966C133.113 237.175 133.432 237.492 133.669 237.916C133.91 238.34 134.031 238.873 134.031 239.516V244H132.869V239.598C132.869 238.973 132.719 238.504 132.418 238.189C132.122 237.87 131.702 237.711 131.16 237.711C130.636 237.711 130.187 237.873 129.813 238.196C129.444 238.52 129.26 239.046 129.26 239.775ZM139.404 244V233.814H143.185C144.246 233.814 145.087 234.092 145.707 234.648C146.331 235.2 146.644 235.952 146.644 236.904C146.644 237.629 146.448 238.242 146.056 238.743C145.668 239.244 145.142 239.598 144.477 239.803L146.767 244H145.331L143.185 240.001C143.153 240.001 143.121 240.001 143.089 240.001H140.635V244H139.404ZM140.635 238.907H143.157C143.864 238.907 144.417 238.729 144.818 238.374C145.224 238.014 145.427 237.524 145.427 236.904C145.427 236.285 145.222 235.797 144.812 235.441C144.406 235.086 143.85 234.908 143.144 234.908H140.635V238.907ZM150.178 244.109C149.462 244.109 148.863 243.925 148.38 243.556C147.901 243.187 147.662 242.642 147.662 241.922C147.662 241.507 147.742 241.17 147.901 240.91C148.065 240.65 148.282 240.448 148.551 240.302C148.824 240.151 149.132 240.037 149.474 239.96C149.82 239.882 150.173 239.821 150.533 239.775C150.993 239.712 151.356 239.664 151.62 239.632C151.884 239.6 152.071 239.548 152.181 239.475C152.295 239.402 152.352 239.274 152.352 239.092V239.023C152.352 238.632 152.21 238.308 151.928 238.053C151.65 237.798 151.258 237.67 150.752 237.67C150.251 237.67 149.838 237.793 149.515 238.039C149.196 238.281 149.022 238.581 148.995 238.941H147.812C147.835 238.499 147.972 238.107 148.223 237.766C148.473 237.419 148.815 237.146 149.248 236.945C149.681 236.745 150.182 236.645 150.752 236.645C151.595 236.645 152.263 236.863 152.755 237.301C153.252 237.734 153.5 238.308 153.5 239.023V244H152.352V242.975H152.324C152.238 243.148 152.11 243.323 151.941 243.501C151.773 243.674 151.545 243.82 151.258 243.938C150.975 244.052 150.615 244.109 150.178 244.109ZM150.342 243.07C150.816 243.07 151.201 242.986 151.497 242.817C151.793 242.644 152.01 242.421 152.146 242.147C152.283 241.874 152.352 241.58 152.352 241.266V240.363C152.265 240.445 152.035 240.521 151.661 240.589C151.287 240.653 150.893 240.714 150.479 240.773C150.201 240.81 149.936 240.874 149.686 240.965C149.439 241.051 149.239 241.177 149.084 241.341C148.929 241.5 148.852 241.717 148.852 241.99C148.852 242.327 148.984 242.592 149.248 242.783C149.517 242.975 149.882 243.07 150.342 243.07ZM158.374 236.781V237.779H156.911V242.25C156.911 242.528 156.968 242.724 157.082 242.838C157.201 242.947 157.408 243.002 157.704 243.002H158.374V244H157.595C156.364 244 155.749 243.458 155.749 242.373V237.779H154.464V236.781H155.749V234.812H156.911V236.781H158.374ZM162.428 244.164C161.721 244.164 161.118 244.002 160.616 243.679C160.119 243.355 159.739 242.911 159.475 242.346C159.21 241.776 159.078 241.129 159.078 240.404C159.078 239.671 159.217 239.019 159.495 238.449C159.773 237.88 160.158 237.433 160.65 237.109C161.143 236.781 161.708 236.617 162.346 236.617C163.016 236.617 163.597 236.777 164.089 237.096C164.581 237.415 164.959 237.859 165.224 238.429C165.493 238.998 165.627 239.657 165.627 240.404V240.726H160.227C160.254 241.432 160.457 242.006 160.835 242.448C161.213 242.89 161.744 243.111 162.428 243.111C162.943 243.111 163.362 242.993 163.686 242.756C164.014 242.519 164.232 242.214 164.342 241.84H165.504C165.413 242.3 165.224 242.706 164.937 243.057C164.649 243.403 164.289 243.674 163.856 243.87C163.428 244.066 162.952 244.164 162.428 244.164ZM160.24 239.728H164.465C164.401 239.094 164.18 238.59 163.802 238.217C163.424 237.843 162.938 237.656 162.346 237.656C161.753 237.656 161.27 237.843 160.896 238.217C160.523 238.59 160.304 239.094 160.24 239.728Z" fill="#666666"/>
<path d="M380.061 233.814V244H378.871V235.086H378.864L376.328 236.768V235.51L378.871 233.814H380.061ZM389.494 244.164C388.697 244.164 387.999 244.007 387.402 243.692C386.81 243.378 386.35 242.95 386.021 242.407C385.693 241.86 385.529 241.238 385.529 240.541V233.814H386.76V240.445C386.76 240.942 386.869 241.384 387.088 241.771C387.307 242.159 387.621 242.464 388.031 242.688C388.441 242.906 388.929 243.016 389.494 243.016C390.064 243.016 390.551 242.906 390.957 242.688C391.367 242.464 391.682 242.159 391.9 241.771C392.119 241.384 392.229 240.942 392.229 240.445V233.814H393.459V240.541C393.459 241.238 393.295 241.86 392.967 242.407C392.639 242.95 392.178 243.378 391.586 243.692C390.993 244.007 390.296 244.164 389.494 244.164ZM398.791 244.164C398.007 244.164 397.328 244.025 396.754 243.747C396.18 243.465 395.735 243.066 395.421 242.551C395.106 242.036 394.949 241.425 394.949 240.719H396.207C396.207 241.448 396.433 242.018 396.884 242.428C397.34 242.838 397.975 243.043 398.791 243.043C399.534 243.043 400.129 242.881 400.575 242.558C401.026 242.234 401.252 241.799 401.252 241.252C401.252 240.828 401.099 240.484 400.794 240.22C400.489 239.955 399.969 239.732 399.235 239.55L398.094 239.27C397.055 239.014 396.305 238.673 395.845 238.244C395.384 237.816 395.154 237.255 395.154 236.562C395.154 235.975 395.298 235.464 395.585 235.031C395.877 234.594 396.287 234.254 396.815 234.013C397.344 233.771 397.962 233.65 398.668 233.65C399.73 233.65 400.575 233.935 401.204 234.505C401.838 235.07 402.168 235.842 402.195 236.822H400.979C400.942 236.184 400.714 235.685 400.295 235.325C399.876 234.961 399.32 234.778 398.627 234.778C397.966 234.778 397.424 234.94 397 235.264C396.581 235.583 396.371 235.995 396.371 236.501C396.371 236.897 396.526 237.221 396.836 237.472C397.15 237.718 397.677 237.934 398.415 238.121L399.57 238.408C400.564 238.654 401.298 239.003 401.771 239.454C402.245 239.905 402.482 240.486 402.482 241.197C402.482 241.785 402.327 242.302 402.018 242.749C401.712 243.196 401.282 243.544 400.726 243.795C400.174 244.041 399.529 244.164 398.791 244.164ZM407.172 244H404.027V233.814H407.309C408.298 233.814 409.145 234.017 409.852 234.423C410.562 234.828 411.107 235.412 411.485 236.173C411.864 236.929 412.053 237.834 412.053 238.887C412.053 239.949 411.861 240.862 411.479 241.628C411.096 242.389 410.54 242.975 409.811 243.385C409.086 243.795 408.206 244 407.172 244ZM405.258 242.906H407.09C408.357 242.906 409.296 242.549 409.906 241.833C410.517 241.113 410.822 240.131 410.822 238.887C410.822 237.656 410.521 236.686 409.92 235.975C409.323 235.264 408.425 234.908 407.227 234.908H405.258V242.906ZM417.993 244.164C417.054 244.164 416.232 243.941 415.525 243.494C414.819 243.043 414.268 242.423 413.871 241.635C413.479 240.842 413.283 239.935 413.283 238.914C413.283 237.884 413.479 236.975 413.871 236.187C414.263 235.394 414.812 234.774 415.519 234.327C416.229 233.876 417.054 233.65 417.993 233.65C418.704 233.65 419.354 233.792 419.941 234.074C420.529 234.352 421.019 234.751 421.411 235.271C421.808 235.785 422.067 236.398 422.19 237.109H420.933C420.769 236.367 420.422 235.797 419.894 235.4C419.369 234.999 418.736 234.799 417.993 234.799C417.278 234.799 416.66 234.974 416.141 235.325C415.621 235.672 415.22 236.155 414.938 236.774C414.655 237.39 414.514 238.103 414.514 238.914C414.514 239.721 414.655 240.432 414.938 241.047C415.22 241.662 415.621 242.145 416.141 242.496C416.66 242.842 417.278 243.016 417.993 243.016C418.727 243.016 419.358 242.817 419.887 242.421C420.415 242.024 420.766 241.457 420.939 240.719H422.19C422.067 241.425 421.81 242.036 421.418 242.551C421.026 243.066 420.534 243.465 419.941 243.747C419.354 244.025 418.704 244.164 417.993 244.164ZM427.611 240.917V239.837H433.736V240.917H427.611ZM427.611 237.978V236.897H433.736V237.978H427.611ZM442.637 233.814V244H441.447V235.086H441.44L438.904 236.768V235.51L441.447 233.814H442.637ZM452.07 244.164C451.273 244.164 450.576 244.007 449.979 243.692C449.386 243.378 448.926 242.95 448.598 242.407C448.27 241.86 448.105 241.238 448.105 240.541V233.814H449.336V240.445C449.336 240.942 449.445 241.384 449.664 241.771C449.883 242.159 450.197 242.464 450.607 242.688C451.018 242.906 451.505 243.016 452.07 243.016C452.64 243.016 453.128 242.906 453.533 242.688C453.943 242.464 454.258 242.159 454.477 241.771C454.695 241.384 454.805 240.942 454.805 240.445V233.814H456.035V240.541C456.035 241.238 455.871 241.86 455.543 242.407C455.215 242.95 454.755 243.378 454.162 243.692C453.57 244.007 452.872 244.164 452.07 244.164ZM461.367 244.164C460.583 244.164 459.904 244.025 459.33 243.747C458.756 243.465 458.312 243.066 457.997 242.551C457.683 242.036 457.525 241.425 457.525 240.719H458.783C458.783 241.448 459.009 242.018 459.46 242.428C459.916 242.838 460.551 243.043 461.367 243.043C462.11 243.043 462.705 242.881 463.151 242.558C463.603 242.234 463.828 241.799 463.828 241.252C463.828 240.828 463.675 240.484 463.37 240.22C463.065 239.955 462.545 239.732 461.812 239.55L460.67 239.27C459.631 239.014 458.881 238.673 458.421 238.244C457.961 237.816 457.73 237.255 457.73 236.562C457.73 235.975 457.874 235.464 458.161 235.031C458.453 234.594 458.863 234.254 459.392 234.013C459.92 233.771 460.538 233.65 461.244 233.65C462.306 233.65 463.151 233.935 463.78 234.505C464.414 235.07 464.744 235.842 464.771 236.822H463.555C463.518 236.184 463.29 235.685 462.871 235.325C462.452 234.961 461.896 234.778 461.203 234.778C460.542 234.778 460 234.94 459.576 235.264C459.157 235.583 458.947 235.995 458.947 236.501C458.947 236.897 459.102 237.221 459.412 237.472C459.727 237.718 460.253 237.934 460.991 238.121L462.146 238.408C463.14 238.654 463.874 239.003 464.348 239.454C464.822 239.905 465.059 240.486 465.059 241.197C465.059 241.785 464.904 242.302 464.594 242.749C464.288 243.196 463.858 243.544 463.302 243.795C462.75 244.041 462.105 244.164 461.367 244.164ZM469.748 244H466.604V233.814H469.885C470.874 233.814 471.721 234.017 472.428 234.423C473.139 234.828 473.683 235.412 474.062 236.173C474.44 236.929 474.629 237.834 474.629 238.887C474.629 239.949 474.438 240.862 474.055 241.628C473.672 242.389 473.116 242.975 472.387 243.385C471.662 243.795 470.783 244 469.748 244ZM467.834 242.906H469.666C470.933 242.906 471.872 242.549 472.482 241.833C473.093 241.113 473.398 240.131 473.398 238.887C473.398 237.656 473.098 236.686 472.496 235.975C471.899 235.264 471.001 234.908 469.803 234.908H467.834V242.906ZM474.971 234.908V233.814H482.832V234.908H479.523V244H478.293V234.908H474.971Z" fill="#666666"/>
<path d="M66 259H484" stroke="#F0F0F0" stroke-linecap="round"/>
<path d="M67.0117 285V274.814H68.4268L72.624 281.445C72.7425 281.637 72.9066 281.908 73.1162 282.259C73.3258 282.61 73.5332 282.965 73.7383 283.325C73.7246 282.97 73.7132 282.601 73.7041 282.218C73.6995 281.835 73.6973 281.559 73.6973 281.391V274.814H74.9277V285H73.499L69.7666 279.107C69.6253 278.889 69.4157 278.554 69.1377 278.103C68.8643 277.647 68.5452 277.114 68.1807 276.503C68.2035 277.136 68.2194 277.672 68.2285 278.109C68.2376 278.542 68.2422 278.87 68.2422 279.094V285H67.0117ZM79.7812 285.164C79.0749 285.164 78.471 285.002 77.9697 284.679C77.473 284.355 77.0924 283.911 76.8281 283.346C76.5638 282.776 76.4316 282.129 76.4316 281.404C76.4316 280.671 76.5706 280.019 76.8486 279.449C77.1266 278.88 77.5117 278.433 78.0039 278.109C78.4961 277.781 79.0612 277.617 79.6992 277.617C80.3691 277.617 80.9502 277.777 81.4424 278.096C81.9346 278.415 82.3128 278.859 82.5771 279.429C82.846 279.998 82.9805 280.657 82.9805 281.404V281.726H77.5801C77.6074 282.432 77.8102 283.006 78.1885 283.448C78.5667 283.89 79.0977 284.111 79.7812 284.111C80.2962 284.111 80.7155 283.993 81.0391 283.756C81.3672 283.519 81.5859 283.214 81.6953 282.84H82.8574C82.7663 283.3 82.5771 283.706 82.29 284.057C82.0029 284.403 81.6429 284.674 81.21 284.87C80.7816 285.066 80.3053 285.164 79.7812 285.164ZM77.5938 280.728H81.8184C81.7546 280.094 81.5335 279.59 81.1553 279.217C80.777 278.843 80.2917 278.656 79.6992 278.656C79.1068 278.656 78.6237 278.843 78.25 279.217C77.8763 279.59 77.6576 280.094 77.5938 280.728ZM87.458 277.781V278.779H85.9951V283.25C85.9951 283.528 86.0521 283.724 86.166 283.838C86.2845 283.947 86.4919 284.002 86.7881 284.002H87.458V285H86.6787C85.4482 285 84.833 284.458 84.833 283.373V278.779H83.5479V277.781H84.833V275.812H85.9951V277.781H87.458ZM90.5957 285L88.3535 277.781H89.5703L90.4795 280.953C90.6071 281.391 90.7279 281.837 90.8418 282.293C90.9603 282.749 91.0788 283.2 91.1973 283.646C91.3158 283.2 91.4342 282.749 91.5527 282.293C91.6712 281.837 91.7943 281.391 91.9219 280.953L92.8379 277.781H93.9863L94.8887 280.953C95.0117 281.386 95.1302 281.828 95.2441 282.279C95.3626 282.73 95.4811 283.175 95.5996 283.612C95.7181 283.175 95.8366 282.73 95.9551 282.279C96.0736 281.828 96.1966 281.386 96.3242 280.953L97.2539 277.781H98.4707L96.2285 285H95.0117L94.0615 281.719C93.9476 281.322 93.8382 280.919 93.7334 280.509C93.6286 280.094 93.5215 279.684 93.4121 279.278C93.3073 279.684 93.2002 280.094 93.0908 280.509C92.9814 280.919 92.8698 281.322 92.7559 281.719L91.7852 285H90.5957ZM102.258 285.164C101.592 285.164 101.007 285.005 100.501 284.686C99.9997 284.362 99.6077 283.918 99.3252 283.353C99.0472 282.787 98.9082 282.138 98.9082 281.404C98.9082 280.666 99.0472 280.012 99.3252 279.442C99.6077 278.873 99.9997 278.426 100.501 278.103C101.007 277.779 101.592 277.617 102.258 277.617C102.928 277.617 103.513 277.779 104.015 278.103C104.516 278.426 104.906 278.873 105.184 279.442C105.466 280.012 105.607 280.666 105.607 281.404C105.607 282.138 105.466 282.787 105.184 283.353C104.906 283.918 104.516 284.362 104.015 284.686C103.513 285.005 102.928 285.164 102.258 285.164ZM102.258 284.111C102.941 284.111 103.475 283.865 103.857 283.373C104.24 282.876 104.432 282.22 104.432 281.404C104.432 280.579 104.238 279.919 103.851 279.422C103.468 278.921 102.937 278.67 102.258 278.67C101.579 278.67 101.046 278.918 100.658 279.415C100.275 279.912 100.084 280.575 100.084 281.404C100.084 282.225 100.275 282.881 100.658 283.373C101.041 283.865 101.574 284.111 102.258 284.111ZM106.961 285V277.781H108.068V278.916H108.096C108.228 278.542 108.438 278.242 108.725 278.014C109.012 277.786 109.381 277.672 109.832 277.672C109.937 277.672 110.033 277.676 110.119 277.686C110.21 277.695 110.279 277.704 110.324 277.713V278.875C110.279 278.861 110.19 278.845 110.058 278.827C109.93 278.804 109.782 278.793 109.613 278.793C109.212 278.793 108.864 278.934 108.567 279.217C108.271 279.499 108.123 279.946 108.123 280.557V285H106.961ZM111.336 285V274.814H112.498V281.028H112.512L115.868 277.781H117.372L114.193 280.871L117.604 285H116.128L113.305 281.603L112.498 282.334V285H111.336ZM122.096 285V274.814H128.501V275.908H123.326V279.237H128.091V280.331H123.326V285H122.096ZM132.555 285.164C131.848 285.164 131.244 285.002 130.743 284.679C130.246 284.355 129.866 283.911 129.602 283.346C129.337 282.776 129.205 282.129 129.205 281.404C129.205 280.671 129.344 280.019 129.622 279.449C129.9 278.88 130.285 278.433 130.777 278.109C131.27 277.781 131.835 277.617 132.473 277.617C133.143 277.617 133.724 277.777 134.216 278.096C134.708 278.415 135.086 278.859 135.351 279.429C135.619 279.998 135.754 280.657 135.754 281.404V281.726H130.354C130.381 282.432 130.584 283.006 130.962 283.448C131.34 283.89 131.871 284.111 132.555 284.111C133.07 284.111 133.489 283.993 133.812 283.756C134.141 283.519 134.359 283.214 134.469 282.84H135.631C135.54 283.3 135.351 283.706 135.063 284.057C134.776 284.403 134.416 284.674 133.983 284.87C133.555 285.066 133.079 285.164 132.555 285.164ZM130.367 280.728H134.592C134.528 280.094 134.307 279.59 133.929 279.217C133.55 278.843 133.065 278.656 132.473 278.656C131.88 278.656 131.397 278.843 131.023 279.217C130.65 279.59 130.431 280.094 130.367 280.728ZM140.061 285.164C139.354 285.164 138.75 285.002 138.249 284.679C137.752 284.355 137.372 283.911 137.107 283.346C136.843 282.776 136.711 282.129 136.711 281.404C136.711 280.671 136.85 280.019 137.128 279.449C137.406 278.88 137.791 278.433 138.283 278.109C138.775 277.781 139.34 277.617 139.979 277.617C140.648 277.617 141.229 277.777 141.722 278.096C142.214 278.415 142.592 278.859 142.856 279.429C143.125 279.998 143.26 280.657 143.26 281.404V281.726H137.859C137.887 282.432 138.09 283.006 138.468 283.448C138.846 283.89 139.377 284.111 140.061 284.111C140.576 284.111 140.995 283.993 141.318 283.756C141.646 283.519 141.865 283.214 141.975 282.84H143.137C143.046 283.3 142.856 283.706 142.569 284.057C142.282 284.403 141.922 284.674 141.489 284.87C141.061 285.066 140.585 285.164 140.061 285.164ZM137.873 280.728H142.098C142.034 280.094 141.813 279.59 141.435 279.217C141.056 278.843 140.571 278.656 139.979 278.656C139.386 278.656 138.903 278.843 138.529 279.217C138.156 279.59 137.937 280.094 137.873 280.728Z" fill="#666666"/>
<path d="M405.293 285.164C404.541 285.164 403.889 284.95 403.338 284.521C402.791 284.089 402.367 283.48 402.066 282.696C401.766 281.912 401.615 280.985 401.615 279.914C401.615 278.839 401.766 277.909 402.066 277.125C402.367 276.337 402.791 275.728 403.338 275.3C403.889 274.867 404.541 274.65 405.293 274.65C406.045 274.65 406.697 274.867 407.248 275.3C407.799 275.728 408.223 276.337 408.52 277.125C408.82 277.909 408.971 278.839 408.971 279.914C408.971 280.985 408.82 281.912 408.52 282.696C408.223 283.48 407.799 284.089 407.248 284.521C406.697 284.95 406.045 285.164 405.293 285.164ZM405.293 284.07C406.072 284.07 406.685 283.701 407.132 282.963C407.583 282.22 407.809 281.204 407.809 279.914C407.809 278.615 407.583 277.597 407.132 276.858C406.685 276.116 406.072 275.744 405.293 275.744C404.514 275.744 403.898 276.116 403.447 276.858C403.001 277.597 402.777 278.615 402.777 279.914C402.777 281.204 403.001 282.22 403.447 282.963C403.898 283.701 404.514 284.07 405.293 284.07ZM410.769 285.116C410.532 285.116 410.329 285.034 410.16 284.87C409.996 284.701 409.914 284.499 409.914 284.262C409.914 284.02 409.996 283.817 410.16 283.653C410.329 283.489 410.532 283.407 410.769 283.407C411.01 283.407 411.213 283.489 411.377 283.653C411.541 283.817 411.623 284.02 411.623 284.262C411.623 284.499 411.541 284.701 411.377 284.87C411.213 285.034 411.01 285.116 410.769 285.116ZM416.244 285.164C415.492 285.164 414.84 284.95 414.289 284.521C413.742 284.089 413.318 283.48 413.018 282.696C412.717 281.912 412.566 280.985 412.566 279.914C412.566 278.839 412.717 277.909 413.018 277.125C413.318 276.337 413.742 275.728 414.289 275.3C414.84 274.867 415.492 274.65 416.244 274.65C416.996 274.65 417.648 274.867 418.199 275.3C418.751 275.728 419.174 276.337 419.471 277.125C419.771 277.909 419.922 278.839 419.922 279.914C419.922 280.985 419.771 281.912 419.471 282.696C419.174 283.48 418.751 284.089 418.199 284.521C417.648 284.95 416.996 285.164 416.244 285.164ZM416.244 284.07C417.023 284.07 417.636 283.701 418.083 282.963C418.534 282.22 418.76 281.204 418.76 279.914C418.76 278.615 418.534 277.597 418.083 276.858C417.636 276.116 417.023 275.744 416.244 275.744C415.465 275.744 414.85 276.116 414.398 276.858C413.952 277.597 413.729 278.615 413.729 279.914C413.729 281.204 413.952 282.22 414.398 282.963C414.85 283.701 415.465 284.07 416.244 284.07ZM424.83 285.164C424.078 285.164 423.426 284.95 422.875 284.521C422.328 284.089 421.904 283.48 421.604 282.696C421.303 281.912 421.152 280.985 421.152 279.914C421.152 278.839 421.303 277.909 421.604 277.125C421.904 276.337 422.328 275.728 422.875 275.3C423.426 274.867 424.078 274.65 424.83 274.65C425.582 274.65 426.234 274.867 426.785 275.3C427.337 275.728 427.76 276.337 428.057 277.125C428.357 277.909 428.508 278.839 428.508 279.914C428.508 280.985 428.357 281.912 428.057 282.696C427.76 283.48 427.337 284.089 426.785 284.521C426.234 284.95 425.582 285.164 424.83 285.164ZM424.83 284.07C425.609 284.07 426.222 283.701 426.669 282.963C427.12 282.22 427.346 281.204 427.346 279.914C427.346 278.615 427.12 277.597 426.669 276.858C426.222 276.116 425.609 275.744 424.83 275.744C424.051 275.744 423.436 276.116 422.984 276.858C422.538 277.597 422.314 278.615 422.314 279.914C422.314 281.204 422.538 282.22 422.984 282.963C423.436 283.701 424.051 284.07 424.83 284.07ZM433.177 285.137C432.525 285.137 431.939 285.002 431.42 284.733C430.9 284.46 430.486 284.091 430.176 283.626C429.866 283.161 429.697 282.635 429.67 282.047H430.9C430.955 282.626 431.192 283.104 431.611 283.482C432.035 283.856 432.557 284.043 433.177 284.043C433.619 284.043 434.004 283.94 434.332 283.735C434.665 283.53 434.924 283.25 435.111 282.895C435.298 282.535 435.392 282.124 435.392 281.664C435.392 281.204 435.303 280.796 435.125 280.44C434.947 280.085 434.699 279.807 434.38 279.606C434.061 279.401 433.689 279.299 433.266 279.299C432.705 279.299 432.224 279.413 431.823 279.641C431.422 279.864 431.142 280.192 430.982 280.625H429.8L430.142 274.814H436.021V275.908H431.256L431.01 279.21H431.023C431.657 278.531 432.454 278.191 433.416 278.191C434.04 278.191 434.59 278.34 435.063 278.636C435.542 278.932 435.913 279.34 436.178 279.859C436.447 280.379 436.581 280.976 436.581 281.65C436.581 282.334 436.438 282.938 436.15 283.462C435.868 283.986 435.471 284.396 434.961 284.692C434.451 284.989 433.856 285.137 433.177 285.137ZM441.359 285.164C440.234 285.164 439.361 284.745 438.741 283.906C438.126 283.063 437.818 281.874 437.818 280.338C437.818 279.194 437.948 278.196 438.208 277.344C438.472 276.492 438.878 275.831 439.425 275.361C439.972 274.887 440.671 274.65 441.523 274.65C442.408 274.65 443.13 274.899 443.69 275.396C444.256 275.892 444.586 276.546 444.682 277.357H443.479C443.383 276.865 443.173 276.473 442.85 276.182C442.531 275.89 442.114 275.744 441.599 275.744C441.011 275.744 440.523 275.913 440.136 276.25C439.753 276.587 439.466 277.052 439.274 277.645C439.088 278.232 438.994 278.907 438.994 279.668H439.008C439.24 279.276 439.587 278.962 440.047 278.725C440.512 278.488 441.018 278.369 441.564 278.369C442.18 278.369 442.727 278.517 443.205 278.813C443.688 279.105 444.069 279.506 444.347 280.017C444.625 280.522 444.764 281.099 444.764 281.746C444.764 282.416 444.618 283.008 444.326 283.523C444.039 284.038 443.64 284.442 443.13 284.733C442.619 285.021 442.029 285.164 441.359 285.164ZM441.359 284.07C441.77 284.07 442.141 283.968 442.474 283.763C442.811 283.553 443.077 283.273 443.273 282.922C443.474 282.566 443.574 282.174 443.574 281.746C443.574 281.318 443.479 280.933 443.287 280.591C443.096 280.244 442.836 279.971 442.508 279.771C442.18 279.565 441.811 279.463 441.4 279.463C440.99 279.463 440.614 279.565 440.272 279.771C439.935 279.976 439.664 280.254 439.459 280.604C439.258 280.951 439.158 281.336 439.158 281.76C439.158 282.184 439.256 282.571 439.452 282.922C439.653 283.273 439.919 283.553 440.252 283.763C440.585 283.968 440.954 284.07 441.359 284.07ZM449.207 285.164C448.323 285.164 447.594 284.916 447.02 284.419C446.45 283.922 446.117 283.268 446.021 282.457H447.225C447.32 282.949 447.532 283.341 447.86 283.633C448.188 283.924 448.61 284.07 449.125 284.07C449.713 284.07 450.198 283.902 450.581 283.564C450.968 283.227 451.258 282.762 451.449 282.17C451.641 281.577 451.736 280.903 451.736 280.146H451.723C451.49 280.538 451.146 280.844 450.69 281.062C450.239 281.281 449.74 281.391 449.193 281.391C448.583 281.391 448.036 281.247 447.553 280.96C447.07 280.668 446.689 280.27 446.411 279.764C446.133 279.258 445.994 278.684 445.994 278.041C445.994 277.371 446.138 276.781 446.425 276.271C446.716 275.76 447.118 275.364 447.628 275.081C448.143 274.794 448.733 274.65 449.398 274.65C450.529 274.65 451.401 275.07 452.017 275.908C452.632 276.747 452.939 277.936 452.939 279.477C452.939 280.616 452.805 281.614 452.536 282.471C452.272 283.323 451.864 283.986 451.312 284.46C450.761 284.929 450.059 285.164 449.207 285.164ZM449.357 280.297C449.772 280.297 450.148 280.197 450.485 279.996C450.823 279.796 451.091 279.524 451.292 279.183C451.497 278.836 451.6 278.451 451.6 278.027C451.6 277.599 451.499 277.214 451.299 276.872C451.103 276.526 450.839 276.252 450.506 276.052C450.173 275.847 449.804 275.744 449.398 275.744C448.988 275.744 448.615 275.847 448.277 276.052C447.945 276.252 447.678 276.526 447.478 276.872C447.282 277.218 447.184 277.608 447.184 278.041C447.184 278.469 447.279 278.854 447.471 279.196C447.662 279.534 447.922 279.802 448.25 280.003C448.583 280.199 448.952 280.297 449.357 280.297ZM461.43 285.164C460.646 285.164 459.967 285.025 459.393 284.747C458.818 284.465 458.374 284.066 458.06 283.551C457.745 283.036 457.588 282.425 457.588 281.719H458.846C458.846 282.448 459.071 283.018 459.522 283.428C459.978 283.838 460.614 284.043 461.43 284.043C462.173 284.043 462.767 283.881 463.214 283.558C463.665 283.234 463.891 282.799 463.891 282.252C463.891 281.828 463.738 281.484 463.433 281.22C463.127 280.955 462.608 280.732 461.874 280.55L460.732 280.27C459.693 280.014 458.944 279.673 458.483 279.244C458.023 278.816 457.793 278.255 457.793 277.562C457.793 276.975 457.937 276.464 458.224 276.031C458.515 275.594 458.925 275.254 459.454 275.013C459.983 274.771 460.6 274.65 461.307 274.65C462.368 274.65 463.214 274.935 463.843 275.505C464.476 276.07 464.807 276.842 464.834 277.822H463.617C463.581 277.184 463.353 276.685 462.934 276.325C462.514 275.961 461.958 275.778 461.266 275.778C460.605 275.778 460.062 275.94 459.639 276.264C459.219 276.583 459.01 276.995 459.01 277.501C459.01 277.897 459.165 278.221 459.475 278.472C459.789 278.718 460.315 278.934 461.054 279.121L462.209 279.408C463.202 279.654 463.936 280.003 464.41 280.454C464.884 280.905 465.121 281.486 465.121 282.197C465.121 282.785 464.966 283.302 464.656 283.749C464.351 284.196 463.92 284.544 463.364 284.795C462.813 285.041 462.168 285.164 461.43 285.164ZM470.897 285.164C470 285.164 469.202 284.938 468.505 284.487C467.808 284.036 467.261 283.416 466.864 282.628C466.468 281.835 466.27 280.93 466.27 279.914C466.27 278.889 466.468 277.982 466.864 277.193C467.261 276.4 467.808 275.778 468.505 275.327C469.202 274.876 470 274.65 470.897 274.65C471.8 274.65 472.597 274.876 473.29 275.327C473.987 275.778 474.534 276.4 474.931 277.193C475.327 277.982 475.525 278.889 475.525 279.914C475.525 280.93 475.327 281.835 474.931 282.628C474.534 283.416 473.987 284.036 473.29 284.487C472.597 284.938 471.8 285.164 470.897 285.164ZM470.897 284.016C471.513 284.016 472.078 283.858 472.593 283.544C473.108 283.225 473.52 282.76 473.83 282.149C474.14 281.539 474.295 280.794 474.295 279.914C474.295 279.03 474.14 278.283 473.83 277.672C473.52 277.057 473.108 276.592 472.593 276.277C472.078 275.958 471.513 275.799 470.897 275.799C470.282 275.799 469.717 275.958 469.202 276.277C468.687 276.592 468.275 277.057 467.965 277.672C467.655 278.283 467.5 279.03 467.5 279.914C467.5 280.794 467.655 281.539 467.965 282.149C468.275 282.76 468.687 283.225 469.202 283.544C469.717 283.858 470.282 284.016 470.897 284.016ZM477.152 285V274.814H478.383V283.906H483.291V285H477.152Z" fill="#666666"/>
</g>
<defs>
<filter id="filter0_d_1336_1625" x="46" y="125.5" width="300" height="46" filterUnits="userSpaceOnUse" color-interpolation-filters="sRGB">
<feFlood flood-opacity="0" result="BackgroundImageFix"/>
<feColorMatrix in="SourceAlpha" type="matrix" values="0 0 0 0 0 0 0 0 0 0 0 0 0 0 0 0 0 0 127 0" result="hardAlpha"/>
<feOffset dy="0.5"/>
<feGaussianBlur stdDeviation="1"/>
<feComposite in2="hardAlpha" operator="out"/>
<feColorMatrix type="matrix" values="0 0 0 0 0 0 0 0 0 0 0 0 0 0 0 0 0 0 0.1 0"/>
<feBlend mode="normal" in2="BackgroundImageFix" result="effect1_dropShadow_1336_1625"/>
<feBlend mode="normal" in="SourceGraphic" in2="effect1_dropShadow_1336_1625" result="shape"/>
</filter>
<filter id="filter1_d_1336_1625" x="354" y="125.5" width="150" height="46" filterUnits="userSpaceOnUse" color-interpolation-filters="sRGB">
<feFlood flood-opacity="0" result="BackgroundImageFix"/>
<feColorMatrix in="SourceAlpha" type="matrix" values="0 0 0 0 0 0 0 0 0 0 0 0 0 0 0 0 0 0 127 0" result="hardAlpha"/>
<feOffset dy="0.5"/>
<feGaussianBlur stdDeviation="1"/>
<feComposite in2="hardAlpha" operator="out"/>
<feColorMatrix type="matrix" values="0 0 0 0 0 0 0 0 0 0 0 0 0 0 0 0 0 0 0.1 0"/>
<feBlend mode="normal" in2="BackgroundImageFix" result="effect1_dropShadow_1336_1625"/>
<feBlend mode="normal" in="SourceGraphic" in2="effect1_dropShadow_1336_1625" result="shape"/>
</filter>
<linearGradient id="paint0_linear_1336_1625" x1="66.5407" y1="151.929" x2="73.4219" y2="144.171" gradientUnits="userSpaceOnUse">
<stop offset="0.08" stop-color="#9945FF"/>
<stop offset="0.3" stop-color="#8752F3"/>
<stop offset="0.5" stop-color="#5497D5"/>
<stop offset="0.6" stop-color="#43B4CA"/>
<stop offset="0.72" stop-color="#28E0B9"/>
<stop offset="0.97" stop-color="#19FB9B"/>
</linearGradient>
<clipPath id="clip0_1336_1625">
<rect width="599" height="388" rx="32" fill="white"/>
</clipPath>
</defs>
</svg>
