<svg width="19" height="15" viewBox="0 0 19 15" fill="none" xmlns="http://www.w3.org/2000/svg">
<path d="M17.5 3.75V1.80775C17.5 1.73075 17.4679 1.66025 17.4038 1.59625C17.3398 1.53208 17.2693 1.5 17.1923 1.5H15.25C15.0375 1.5 14.8593 1.42808 14.7155 1.28425C14.5718 1.14042 14.5 0.96225 14.5 0.74975C14.5 0.537083 14.5718 0.359 14.7155 0.2155C14.8593 0.0718332 15.0375 0 15.25 0H17.1923C17.6974 0 18.125 0.175 18.475 0.525C18.825 0.875 19 1.30258 19 1.80775V3.75C19 3.9625 18.9281 4.14067 18.7843 4.2845C18.6404 4.42817 18.4622 4.5 18.2498 4.5C18.0371 4.5 17.859 4.42817 17.7155 4.2845C17.5718 4.14067 17.5 3.9625 17.5 3.75ZM0 3.75V1.80775C0 1.30258 0.175 0.875 0.525 0.525C0.875 0.175 1.30258 0 1.80775 0H3.75C3.9625 0 4.14067 0.0719168 4.2845 0.21575C4.42817 0.359583 4.5 0.53775 4.5 0.75025C4.5 0.962917 4.42817 1.141 4.2845 1.2845C4.14067 1.42817 3.9625 1.5 3.75 1.5H1.80775C1.73075 1.5 1.66025 1.53208 1.59625 1.59625C1.53208 1.66025 1.5 1.73075 1.5 1.80775V3.75C1.5 3.9625 1.42808 4.14067 1.28425 4.2845C1.14042 4.42817 0.96225 4.5 0.74975 4.5C0.537083 4.5 0.359 4.42817 0.2155 4.2845C0.0718334 4.14067 0 3.9625 0 3.75ZM17.1923 15H15.25C15.0375 15 14.8593 14.9281 14.7155 14.7843C14.5718 14.6404 14.5 14.4622 14.5 14.2498C14.5 14.0371 14.5718 13.859 14.7155 13.7155C14.8593 13.5718 15.0375 13.5 15.25 13.5H17.1923C17.2693 13.5 17.3398 13.4679 17.4038 13.4038C17.4679 13.3398 17.5 13.2692 17.5 13.1923V11.25C17.5 11.0375 17.5719 10.8593 17.7157 10.7155C17.8596 10.5718 18.0378 10.5 18.2502 10.5C18.4629 10.5 18.641 10.5718 18.7845 10.7155C18.9282 10.8593 19 11.0375 19 11.25V13.1923C19 13.6974 18.825 14.125 18.475 14.475C18.125 14.825 17.6974 15 17.1923 15ZM1.80775 15C1.30258 15 0.875 14.825 0.525 14.475C0.175 14.125 0 13.6974 0 13.1923V11.25C0 11.0375 0.0719166 10.8593 0.21575 10.7155C0.359583 10.5718 0.53775 10.5 0.75025 10.5C0.962917 10.5 1.141 10.5718 1.2845 10.7155C1.42817 10.8593 1.5 11.0375 1.5 11.25V13.1923C1.5 13.2692 1.53208 13.3398 1.59625 13.4038C1.66025 13.4679 1.73075 13.5 1.80775 13.5H3.75C3.9625 13.5 4.14067 13.5719 4.2845 13.7158C4.42817 13.8596 4.5 14.0378 4.5 14.2503C4.5 14.4629 4.42817 14.641 4.2845 14.7845C4.14067 14.9282 3.9625 15 3.75 15H1.80775ZM3.923 9.26925V5.73075C3.923 5.23358 4.1 4.808 4.454 4.454C4.808 4.1 5.23358 3.923 5.73075 3.923H13.2693C13.7664 3.923 14.192 4.1 14.546 4.454C14.9 4.808 15.077 5.23358 15.077 5.73075V9.26925C15.077 9.76642 14.9 10.192 14.546 10.546C14.192 10.9 13.7664 11.077 13.2693 11.077H5.73075C5.23358 11.077 4.808 10.9 4.454 10.546C4.1 10.192 3.923 9.76642 3.923 9.26925Z" fill="#0F172A"/>
</svg>
