<svg width="200" height="122" viewBox="0 0 200 122" fill="none" xmlns="http://www.w3.org/2000/svg">
<rect width="200.004" height="40.5805" rx="8.69582" fill="#302D31"/>
<g clip-path="url(#clip0_7_554)">
<rect x="5.79724" y="8.69604" width="23.1884" height="23.1884" rx="11.5942" fill="white"/>
<g clip-path="url(#clip1_7_554)">
<path d="M17.3912 31.8839C23.8164 31.8839 28.9854 26.7149 28.9854 20.2897C28.9854 13.8645 23.8164 8.6955 17.3912 8.6955C10.966 8.6955 5.797 13.8645 5.797 20.2897C5.797 26.7149 10.966 31.8839 17.3912 31.8839Z" fill="#2775CA"/>
<path d="M20.5806 22.1251C20.5806 20.4343 19.5661 19.8546 17.5371 19.6131C16.0878 19.4199 15.798 19.0334 15.798 18.357C15.798 17.6806 16.2811 17.2459 17.2472 17.2459C18.1168 17.2459 18.5999 17.5358 18.8414 18.2604C18.8898 18.4054 19.0347 18.5019 19.1796 18.5019H19.9525C20.1458 18.5019 20.2907 18.357 20.2907 18.1639V18.1155C20.0974 17.0527 19.2279 16.2314 18.1168 16.1349V14.9754C18.1168 14.7822 17.9719 14.6372 17.7304 14.5889H17.0057C16.8125 14.5889 16.6675 14.7338 16.6192 14.9754V16.0865C15.1699 16.2798 14.2521 17.2459 14.2521 18.4537C14.2521 20.0479 15.2183 20.6759 17.2472 20.9175C18.5999 21.159 19.0347 21.4488 19.0347 22.2218C19.0347 22.9948 18.3583 23.5262 17.4405 23.5262C16.1844 23.5262 15.7496 22.9947 15.6047 22.2701C15.5565 22.0769 15.4115 21.9802 15.2666 21.9802H14.4453C14.2521 21.9802 14.1072 22.1251 14.1072 22.3184V22.3668C14.3003 23.5744 15.0733 24.444 16.6675 24.6856V25.845C16.6675 26.0382 16.8125 26.1831 17.054 26.2315H17.7786C17.9719 26.2315 18.1168 26.0865 18.1651 25.845V24.6856C19.6144 24.444 20.5806 23.4295 20.5806 22.1251Z" fill="white"/>
<path d="M14.9283 27.1971C11.1602 25.8445 9.2278 21.6416 10.6288 17.9217C11.3535 15.8927 12.9477 14.3469 14.9283 13.6222C15.1216 13.5257 15.2182 13.3807 15.2182 13.1391V12.4628C15.2182 12.2695 15.1216 12.1246 14.9283 12.0764C14.88 12.0764 14.7834 12.0764 14.735 12.1246C10.1457 13.5739 7.6336 18.4532 9.08287 23.0425C9.95244 25.7478 12.0298 27.8251 14.735 28.6947C14.9283 28.7913 15.1216 28.6947 15.1698 28.5014C15.2182 28.4532 15.2182 28.4049 15.2182 28.3083V27.6319C15.2182 27.4869 15.0733 27.2938 14.9283 27.1971ZM20.0491 12.1246C19.8559 12.028 19.6626 12.1246 19.6144 12.3179C19.566 12.3662 19.566 12.4145 19.566 12.5112V13.1875C19.566 13.3807 19.7109 13.5739 19.8559 13.6706C23.624 15.0232 25.5564 19.2261 24.1553 22.946C23.4307 24.9749 21.8365 26.5208 19.8559 27.2454C19.6626 27.342 19.566 27.4869 19.566 27.7286V28.4049C19.566 28.5981 19.6626 28.7431 19.8559 28.7913C19.9042 28.7913 20.0008 28.7913 20.0491 28.7431C24.6385 27.2938 27.1506 22.4145 25.7013 17.8251C24.8317 15.0715 22.7061 12.9942 20.0491 12.1246Z" fill="white"/>
</g>
</g>
<path d="M37.6042 16.438C37.6042 17.6438 36.9626 18.44 35.4244 18.44C33.8862 18.44 33.2447 17.6438 33.2447 16.438V12.7974H34.1645V16.438C34.1645 17.2728 34.5819 17.6516 35.4244 17.6516C36.2747 17.6516 36.6921 17.2728 36.6921 16.438V12.7974H37.6042V16.438ZM40.6327 15.0312C41.8153 15.3327 42.7119 15.5878 42.7119 16.8245C42.7119 17.7057 42.0472 18.44 40.6559 18.44C39.3032 18.44 38.2751 17.7366 38.221 16.4844H39.1409C39.1872 17.1878 39.6665 17.6516 40.6559 17.6516C41.4752 17.6516 41.7921 17.2883 41.7921 16.8631C41.7921 16.2061 41.3206 16.0824 40.2307 15.8119C39.365 15.5955 38.4297 15.2631 38.4297 14.2119C38.4297 13.2302 39.1872 12.6814 40.3931 12.6814C41.6066 12.6814 42.4878 13.3152 42.5651 14.4515H41.6453C41.5602 13.8099 41.1583 13.4698 40.3931 13.4698C39.736 13.4698 39.3418 13.7172 39.3418 14.1269C39.3418 14.7298 39.8597 14.838 40.6327 15.0312ZM43.4294 18.324V12.7974H45.5782C47.1009 12.7974 48.0362 13.7867 48.0362 15.5646C48.0362 17.3424 47.1318 18.324 45.6014 18.324H43.4294ZM44.3492 13.578V17.5433H45.5318C46.7686 17.5433 47.1164 16.6235 47.1164 15.5646C47.1164 14.5056 46.7686 13.578 45.5318 13.578H44.3492ZM52.623 14.6988C52.5225 14.1423 52.1592 13.4698 51.1389 13.4698C49.9486 13.4698 49.4771 14.467 49.4771 15.5568C49.4771 16.6544 49.9486 17.6516 51.1389 17.6516C52.167 17.6516 52.5612 16.9791 52.623 16.3066H53.5428C53.4192 17.5511 52.5689 18.44 51.1621 18.44C49.5698 18.44 48.565 17.2264 48.565 15.5568C48.565 13.895 49.5698 12.6814 51.1621 12.6814C52.5612 12.6814 53.4114 13.5703 53.5428 14.6988H52.623Z" fill="#EEEEEE"/>
<path d="M36.4158 26.8419C36.4158 27.7463 35.9346 28.3434 34.7809 28.3434C33.6273 28.3434 33.1461 27.7463 33.1461 26.8419V24.1114H33.836V26.8419C33.836 27.468 34.149 27.7521 34.7809 27.7521C35.4186 27.7521 35.7317 27.468 35.7317 26.8419V24.1114H36.4158V26.8419ZM38.6871 25.7868C39.5741 26.0129 40.2466 26.2042 40.2466 27.1318C40.2466 27.7927 39.748 28.3434 38.7045 28.3434C37.69 28.3434 36.919 27.8159 36.8784 26.8767H37.5683C37.603 27.4042 37.9625 27.7521 38.7045 27.7521C39.319 27.7521 39.5567 27.4796 39.5567 27.1608C39.5567 26.668 39.2031 26.5752 38.3857 26.3723C37.7364 26.21 37.0349 25.9607 37.0349 25.1723C37.0349 24.4361 37.603 24.0245 38.5074 24.0245C39.4176 24.0245 40.0785 24.4998 40.1364 25.352H39.4466C39.3828 24.8709 39.0813 24.6158 38.5074 24.6158C38.0146 24.6158 37.719 24.8013 37.719 25.1086C37.719 25.5607 38.1074 25.6419 38.6871 25.7868ZM40.7846 28.2564V24.1114H42.3963C43.5383 24.1114 44.2398 24.8535 44.2398 26.1868C44.2398 27.5202 43.5615 28.2564 42.4136 28.2564H40.7846ZM41.4745 24.6969V27.6709H42.3615C43.289 27.6709 43.5499 26.9811 43.5499 26.1868C43.5499 25.3926 43.289 24.6969 42.3615 24.6969H41.4745ZM47.6799 25.5375C47.6045 25.1201 47.332 24.6158 46.5668 24.6158C45.674 24.6158 45.3204 25.3636 45.3204 26.181C45.3204 27.0042 45.674 27.7521 46.5668 27.7521C47.3378 27.7521 47.6335 27.2477 47.6799 26.7434H48.3697C48.277 27.6767 47.6393 28.3434 46.5842 28.3434C45.39 28.3434 44.6363 27.4332 44.6363 26.181C44.6363 24.9346 45.39 24.0245 46.5842 24.0245C47.6335 24.0245 48.2712 24.6912 48.3697 25.5375H47.6799Z" fill="#A19F9F"/>
<path d="M162.111 21.7163C162.111 22.6294 161.424 23.3772 160.085 23.4207V24.0816H159.563V23.4033C158.328 23.2816 157.398 22.5859 157.346 21.3076H158.355C158.398 22.0207 158.833 22.4294 159.563 22.5337V20.638L159.485 20.6119C158.581 20.3598 157.581 19.9858 157.581 18.8902C157.581 17.8988 158.346 17.238 159.563 17.2032V16.6988H160.085V17.2293C161.128 17.3684 161.902 18.0467 161.963 19.1597H160.955C160.885 18.5771 160.563 18.2293 160.085 18.1075V19.8032C161.215 20.1424 162.111 20.4641 162.111 21.7163ZM158.581 18.7945C158.581 19.2728 158.981 19.4641 159.563 19.6467V18.0641C158.963 18.0902 158.581 18.3684 158.581 18.7945ZM160.085 22.5598C160.781 22.525 161.102 22.2033 161.102 21.7337C161.102 21.2293 160.772 21.0119 160.085 20.7946V22.5598ZM163.709 20.0989C164.005 19.6119 164.561 19.3163 165.257 19.3163C166.439 19.3163 167.248 20.1337 167.248 21.3163C167.248 22.4989 166.422 23.4207 165.074 23.4207C163.318 23.4207 162.7 22.1076 162.7 20.3076C162.7 18.2554 163.561 17.151 165.074 17.151C166.205 17.151 166.961 17.8988 167.083 18.8032H166.074C166.013 18.3423 165.7 17.9771 165.066 17.9771C163.979 17.9771 163.726 18.9858 163.709 20.0815V20.0989ZM165.039 22.5946C165.813 22.5946 166.266 22.0989 166.266 21.3685C166.266 20.6032 165.779 20.1424 165.092 20.1424C164.292 20.1424 163.761 20.6467 163.761 21.3859C163.761 22.0989 164.239 22.5946 165.039 22.5946ZM171.594 23.2903H170.585V21.925H167.742V20.9859L170.585 17.2814H171.594V21.0728H172.437V21.925H171.594V23.2903ZM170.585 18.5336L168.637 21.0728H170.585V18.5336ZM176.446 20.4728C176.15 20.9598 175.594 21.2554 174.898 21.2554C173.716 21.2554 172.907 20.438 172.907 19.2554C172.907 18.0728 173.733 17.151 175.081 17.151C176.837 17.151 177.455 18.4641 177.455 20.2641C177.455 22.3163 176.594 23.4207 175.081 23.4207C173.95 23.4207 173.194 22.6728 173.072 21.7685H174.081C174.142 22.2294 174.455 22.5946 175.089 22.5946C176.176 22.5946 176.429 21.5859 176.446 20.4902V20.4728ZM175.116 17.9771C174.342 17.9771 173.889 18.4728 173.889 19.2032C173.889 19.9684 174.376 20.4293 175.063 20.4293C175.863 20.4293 176.394 19.925 176.394 19.1858C176.394 18.4728 175.916 17.9771 175.116 17.9771ZM177.804 17.2814H182.048V18.0467C180.682 19.1858 179.761 21.3772 179.761 23.2903H178.7C178.7 21.3076 179.882 19.0989 180.952 18.151V18.1336H177.804V17.2814ZM182.534 23.3598C182.213 23.3598 181.969 23.1424 181.969 22.7946C181.969 22.4555 182.213 22.2294 182.534 22.2294C182.847 22.2294 183.091 22.4555 183.091 22.7946C183.091 23.1424 182.847 23.3598 182.534 23.3598ZM186.195 19.238C187.351 19.238 188.143 20.0728 188.143 21.2467C188.143 22.5859 187.177 23.4207 185.925 23.4207C184.456 23.4207 183.656 22.5511 183.621 21.5163H184.621C184.682 22.0554 185.038 22.5598 185.873 22.5598C186.612 22.5598 187.134 22.1076 187.134 21.238C187.134 20.4206 186.656 20.038 185.925 20.038C185.456 20.038 185.03 20.2032 184.743 20.5598H183.725L184.377 17.2814H187.838V18.1336H185.134L184.812 19.7424V19.7597C185.125 19.438 185.569 19.238 186.195 19.238ZM188.65 21.5946C188.65 20.7685 189.189 20.3424 189.763 20.0902V20.0728C189.337 19.8467 188.937 19.4728 188.937 18.7945C188.937 17.7597 189.798 17.151 190.972 17.151C192.146 17.151 193.007 17.7597 193.007 18.7945C193.007 19.4728 192.598 19.8467 192.181 20.0728V20.0902C192.746 20.3424 193.302 20.7685 193.302 21.5946C193.302 22.812 192.285 23.4207 190.972 23.4207C189.659 23.4207 188.65 22.812 188.65 21.5946ZM190.972 19.7163C191.641 19.7163 192.059 19.4206 192.059 18.838C192.059 18.2641 191.641 17.951 190.972 17.951C190.302 17.951 189.885 18.2641 189.885 18.838C189.885 19.4206 190.302 19.7163 190.972 19.7163ZM190.972 22.5946C191.789 22.5946 192.294 22.1946 192.294 21.5337C192.294 20.8815 191.789 20.4815 190.972 20.4815C190.163 20.4815 189.65 20.8815 189.65 21.5337C189.65 22.1946 190.163 22.5946 190.972 22.5946Z" fill="#FFFDFF"/>
<rect x="7.73035" y="45.4118" width="184.545" height="36.7157" rx="8.69582" fill="#302D31"/>
<rect x="14.0107" y="52.1754" width="23.1884" height="23.1884" rx="11.5942" fill="#50AF95"/>
<path fill-rule="evenodd" clip-rule="evenodd" d="M27.1735 64.465C27.0994 64.4706 26.7165 64.4936 25.8623 64.4936C25.1829 64.4936 24.7006 64.4731 24.5314 64.465C21.9059 64.3489 19.9462 63.8895 19.9462 63.3394C19.9462 62.7894 21.9059 62.3305 24.5314 62.2126V64.0075C24.703 64.0199 25.1947 64.049 25.8741 64.049C26.6893 64.049 27.0976 64.0149 27.1711 64.0081V62.2138C29.791 62.3312 31.7464 62.7906 31.7464 63.3394C31.7464 63.8882 29.7916 64.3477 27.1711 64.4644L27.1735 64.465ZM27.1735 62.0282V60.4221H30.8298V57.9728H20.8751V60.4221H24.5307V62.0276C21.5594 62.1648 19.3248 62.7564 19.3248 63.4655C19.3248 64.1745 21.5594 64.7655 24.5307 64.9033V70.0501H27.1729V64.9015C30.1375 64.7643 32.3683 64.1732 32.3683 63.4648C32.3683 62.7564 30.1393 62.1654 27.1729 62.0276L27.1735 62.0282Z" fill="white"/>
<path d="M45.8176 59.9174C45.8176 61.1232 45.1761 61.9194 43.6379 61.9194C42.0997 61.9194 41.4581 61.1232 41.4581 59.9174V56.2768H42.3779V59.9174C42.3779 60.7522 42.7953 61.131 43.6379 61.131C44.4881 61.131 44.9055 60.7522 44.9055 59.9174V56.2768H45.8176V59.9174ZM48.8461 58.5106C50.0288 58.8121 50.9254 59.0672 50.9254 60.3039C50.9254 61.1851 50.2606 61.9194 48.8693 61.9194C47.5166 61.9194 46.4886 61.216 46.4345 59.9638H47.3543C47.4007 60.6672 47.8799 61.131 48.8693 61.131C49.6886 61.131 50.0056 60.7677 50.0056 60.3425C50.0056 59.6855 49.5341 59.5618 48.4442 59.2913C47.5785 59.0749 46.6432 58.7425 46.6432 57.6913C46.6432 56.7096 47.4007 56.1608 48.6065 56.1608C49.8201 56.1608 50.7012 56.7946 50.7785 57.9309H49.8587C49.7737 57.2893 49.3717 56.9492 48.6065 56.9492C47.9495 56.9492 47.5553 57.1966 47.5553 57.6063C47.5553 58.2092 48.0732 58.3174 48.8461 58.5106ZM51.6428 61.8034V56.2768H53.7916C55.3144 56.2768 56.2496 57.2661 56.2496 59.044C56.2496 60.8218 55.3453 61.8034 53.8148 61.8034H51.6428ZM52.5626 57.0574V61.0227H53.7453C54.982 61.0227 55.3298 60.1029 55.3298 59.044C55.3298 57.985 54.982 57.0574 53.7453 57.0574H52.5626ZM58.1308 61.8034V57.0574H56.3607V56.2768H60.813V57.0574H59.0506V61.8034H58.1308Z" fill="#FFFDFF"/>
<path d="M44.6292 70.3213C44.6292 71.2257 44.148 71.8228 42.9944 71.8228C41.8407 71.8228 41.3596 71.2257 41.3596 70.3213V67.5908H42.0494V70.3213C42.0494 70.9474 42.3625 71.2315 42.9944 71.2315C43.6321 71.2315 43.9451 70.9474 43.9451 70.3213V67.5908H44.6292V70.3213ZM46.9006 69.2662C47.7875 69.4923 48.46 69.6836 48.46 70.6112C48.46 71.2721 47.9615 71.8228 46.918 71.8228C45.9034 71.8228 45.1324 71.2953 45.0918 70.3561H45.7817C45.8165 70.8836 46.1759 71.2315 46.918 71.2315C47.5325 71.2315 47.7701 70.959 47.7701 70.6402C47.7701 70.1474 47.4165 70.0546 46.5991 69.8517C45.9498 69.6894 45.2484 69.4401 45.2484 68.6517C45.2484 67.9155 45.8165 67.5039 46.7209 67.5039C47.631 67.5039 48.2919 67.9792 48.3499 68.8314H47.66C47.5962 68.3503 47.2948 68.0952 46.7209 68.0952C46.2281 68.0952 45.9324 68.2807 45.9324 68.588C45.9324 69.0401 46.3208 69.1213 46.9006 69.2662ZM48.9981 71.7358V67.5908H50.6097C51.7517 67.5908 52.4532 68.3329 52.4532 69.6662C52.4532 70.9996 51.7749 71.7358 50.6271 71.7358H48.9981ZM49.6879 68.1764V71.1503H50.5749C51.5025 71.1503 51.7633 70.4605 51.7633 69.6662C51.7633 68.872 51.5025 68.1764 50.5749 68.1764H49.6879ZM53.8641 71.7358V68.1764H52.5365V67.5908H55.8757V68.1764H54.5539V71.7358H53.8641Z" fill="#A19F9F"/>
<path d="M152.899 65.1957C152.899 66.1088 152.212 66.8566 150.873 66.9001V67.561H150.351V66.8827C149.116 66.761 148.186 66.0653 148.134 64.787H149.143C149.186 65.5001 149.621 65.9088 150.351 66.0131V64.1174L150.273 64.0913C149.369 63.8392 148.369 63.4652 148.369 62.3696C148.369 61.3782 149.134 60.7174 150.351 60.6826V60.1782H150.873V60.7087C151.917 60.8478 152.69 61.5261 152.751 62.6391H151.743C151.673 62.0565 151.351 61.7087 150.873 61.5869V63.2826C152.003 63.6218 152.899 63.9435 152.899 65.1957ZM149.369 62.2739C149.369 62.7522 149.769 62.9435 150.351 63.1261V61.5435C149.751 61.5696 149.369 61.8478 149.369 62.2739ZM150.873 66.0392C151.569 66.0044 151.89 65.6827 151.89 65.2131C151.89 64.7087 151.56 64.4913 150.873 64.274V66.0392ZM154.445 62.5783H153.462C153.462 61.4565 154.227 60.6304 155.732 60.6304C156.793 60.6304 157.732 61.2304 157.732 62.2913C157.732 62.9348 157.401 63.3348 156.827 63.5783V63.5957C157.645 63.8305 157.932 64.3696 157.932 65.0827C157.932 66.2653 157.054 66.9001 155.749 66.9001C154.167 66.9001 153.306 66.0914 153.306 64.7087H154.28C154.28 65.5175 154.654 66.0392 155.68 66.0392C156.584 66.0392 156.932 65.6914 156.932 65.0566C156.932 64.2305 156.332 64.0479 155.714 64.0479H155.175V63.2478H155.68C156.306 63.2478 156.723 62.987 156.723 62.3696C156.723 61.8739 156.41 61.4913 155.697 61.4913C154.749 61.4913 154.445 61.987 154.445 62.5783ZM162.246 66.7697H161.237V65.4044H158.394V64.4653L161.237 60.7608H162.246V64.5522H163.09V65.4044H162.246V66.7697ZM161.237 62.013L159.289 64.5522H161.237V62.013ZM166.011 66.9001C164.316 66.9001 163.594 65.474 163.594 63.7696C163.594 62.0652 164.316 60.6304 166.011 60.6304C167.707 60.6304 168.429 62.0652 168.429 63.7696C168.429 65.474 167.707 66.9001 166.011 66.9001ZM166.011 66.0392C167.072 66.0392 167.42 65.0218 167.42 63.7696C167.42 62.5174 167.072 61.4913 166.011 61.4913C164.95 61.4913 164.594 62.5174 164.594 63.7696C164.594 65.0218 164.95 66.0392 166.011 66.0392ZM171.497 66.9001C169.801 66.9001 169.08 65.474 169.08 63.7696C169.08 62.0652 169.801 60.6304 171.497 60.6304C173.193 60.6304 173.914 62.0652 173.914 63.7696C173.914 65.474 173.193 66.9001 171.497 66.9001ZM171.497 66.0392C172.558 66.0392 172.906 65.0218 172.906 63.7696C172.906 62.5174 172.558 61.4913 171.497 61.4913C170.436 61.4913 170.08 62.5174 170.08 63.7696C170.08 65.0218 170.436 66.0392 171.497 66.0392ZM174.953 66.8392C174.631 66.8392 174.388 66.6218 174.388 66.274C174.388 65.9349 174.631 65.7088 174.953 65.7088C175.266 65.7088 175.509 65.9349 175.509 66.274C175.509 66.6218 175.266 66.8392 174.953 66.8392ZM178.418 66.9001C176.722 66.9001 176.001 65.474 176.001 63.7696C176.001 62.0652 176.722 60.6304 178.418 60.6304C180.114 60.6304 180.835 62.0652 180.835 63.7696C180.835 65.474 180.114 66.9001 178.418 66.9001ZM178.418 66.0392C179.479 66.0392 179.827 65.0218 179.827 63.7696C179.827 62.5174 179.479 61.4913 178.418 61.4913C177.357 61.4913 177.001 62.5174 177.001 63.7696C177.001 65.0218 177.357 66.0392 178.418 66.0392ZM181.118 60.7608H185.361V61.5261C183.996 62.6652 183.074 64.8566 183.074 66.7697H182.013C182.013 64.787 183.196 62.5783 184.266 61.6304V61.613H181.118V60.7608Z" fill="#FFFDFF"/>
<rect x="13.043" y="86.9585" width="173.916" height="34.7833" rx="8.69582" fill="#302D31"/>
<rect x="18.8402" y="92.7559" width="23.1884" height="23.1884" rx="11.5942" fill="#7B3FE4"/>
<path d="M33.823 107.059L37.0664 105.191C37.238 105.093 37.3447 104.908 37.3447 104.711V100.975C37.3447 100.778 37.238 100.594 37.0664 100.495L33.823 98.6273C33.6515 98.5285 33.4381 98.5287 33.2665 98.6273L30.0232 100.495C29.8516 100.594 29.7449 100.778 29.7449 100.975V107.65L27.4706 108.959L25.1963 107.65V105.031L27.4706 103.722L28.9709 104.585V102.828L27.7489 102.125C27.6645 102.076 27.5683 102.051 27.4706 102.051C27.3729 102.051 27.2767 102.076 27.1923 102.125L23.9487 103.992C23.7771 104.091 23.6704 104.275 23.6704 104.473V108.208C23.6704 108.406 23.7771 108.59 23.9487 108.689L27.1921 110.557C27.3636 110.655 27.5767 110.655 27.7486 110.557L30.992 108.689C31.1635 108.59 31.2702 108.406 31.2702 108.209V101.534L31.3112 101.51L33.5445 100.225L35.8188 101.534V104.153L33.5445 105.463L32.0465 104.6V106.357L33.2663 107.06C33.4378 107.158 33.6512 107.158 33.8227 107.06L33.823 107.059Z" fill="white"/>
<path d="M46.3649 102.384V96.8572H48.7147C49.7737 96.8572 50.5389 97.3519 50.5389 98.5114C50.5389 99.6708 49.7737 100.173 48.7147 100.173H47.2848V102.384H46.3649ZM47.2848 97.6379V99.3848H48.6761C49.2945 99.3848 49.6191 99.122 49.6191 98.5114C49.6191 97.9085 49.2945 97.6379 48.6761 97.6379H47.2848ZM52.7151 102.5C51.4784 102.5 50.7286 101.642 50.7286 100.413C50.7286 99.1838 51.4784 98.3259 52.7151 98.3259C53.9519 98.3259 54.7016 99.1838 54.7016 100.413C54.7016 101.642 53.9519 102.5 52.7151 102.5ZM52.7151 101.835C53.4881 101.835 53.89 101.224 53.89 100.413C53.89 99.5935 53.4881 98.9906 52.7151 98.9906C51.9422 98.9906 51.5402 99.5935 51.5402 100.413C51.5402 101.224 51.9422 101.835 52.7151 101.835ZM55.278 96.8572H56.0974V102.384H55.278V96.8572ZM60.3716 98.4341L58.7947 102.631C58.5706 103.242 58.3155 103.729 57.558 103.729C57.3261 103.729 57.1328 103.69 56.9783 103.652V103.033H57.0478C57.3879 103.08 57.643 103.056 57.8208 102.84C57.9676 102.662 58.0759 102.353 57.929 101.982L56.499 98.4341H57.3725L58.4778 101.456H58.4933L59.5058 98.4341H60.3716ZM63.4111 98.4341H64.2227V102.113C64.2227 103.25 63.5348 103.752 62.414 103.752C61.2777 103.752 60.6516 103.157 60.5666 102.492H61.3859C61.4632 102.84 61.7415 103.103 62.3831 103.103C63.0633 103.103 63.4111 102.794 63.4111 102.082V101.603H63.3956C63.1869 101.897 62.8237 102.191 62.1976 102.191C61.2082 102.191 60.4661 101.503 60.4661 100.258C60.4661 99.0061 61.2082 98.3259 62.1976 98.3259C62.8237 98.3259 63.1869 98.6196 63.3956 98.8979H63.4111V98.4341ZM62.3521 101.526C63.0092 101.526 63.4034 101.093 63.4034 100.258C63.4034 99.4235 63.0092 98.9906 62.3521 98.9906C61.641 98.9906 61.2777 99.524 61.2777 100.258C61.2777 100.985 61.641 101.526 62.3521 101.526ZM66.7703 102.5C65.5336 102.5 64.7838 101.642 64.7838 100.413C64.7838 99.1838 65.5336 98.3259 66.7703 98.3259C68.0071 98.3259 68.7569 99.1838 68.7569 100.413C68.7569 101.642 68.0071 102.5 66.7703 102.5ZM66.7703 101.835C67.5433 101.835 67.9453 101.224 67.9453 100.413C67.9453 99.5935 67.5433 98.9906 66.7703 98.9906C65.9974 98.9906 65.5954 99.5935 65.5954 100.413C65.5954 101.224 65.9974 101.835 66.7703 101.835ZM71.4434 98.3259C72.1778 98.3259 72.7575 98.751 72.7575 99.6554V102.384H71.9381V99.8872C71.9381 99.3539 71.714 99.0138 71.1575 99.0138C70.5314 99.0138 70.1294 99.3925 70.1294 99.98V102.384H69.3178V98.4341H70.1294V98.9442H70.1449C70.3536 98.635 70.7632 98.3259 71.4434 98.3259Z" fill="#FFFDFF"/>
<path d="M46.2471 112.316V108.171H47.1398L48.2993 111.36H48.3109L49.4645 108.171H50.3573V112.316H49.6848V109.174H49.6732L48.5775 112.316H48.0268L46.9311 109.174H46.9195V112.316H46.2471ZM53.4595 111.337H51.7667L51.4305 112.316H50.729L52.2537 108.171H52.9784L54.4972 112.316H53.7958L53.4595 111.337ZM51.958 110.763H53.274L52.6247 108.803H52.6131L51.958 110.763ZM55.461 112.316V108.757H54.1334V108.171H57.4726V108.757H56.1508V112.316H55.461ZM57.955 108.171H58.6449V112.316H57.955V108.171ZM62.2741 109.597C62.1987 109.18 61.9262 108.676 61.161 108.676C60.2682 108.676 59.9146 109.424 59.9146 110.241C59.9146 111.064 60.2682 111.812 61.161 111.812C61.932 111.812 62.2277 111.308 62.2741 110.803H62.9639C62.8712 111.737 62.2335 112.403 61.1784 112.403C59.9842 112.403 59.2305 111.493 59.2305 110.241C59.2305 108.995 59.9842 108.084 61.1784 108.084C62.2277 108.084 62.8654 108.751 62.9639 109.597H62.2741Z" fill="#A19F9F"/>
<path d="M149.067 105.776C149.067 106.689 148.38 107.437 147.041 107.481V108.141H146.519V107.463C145.284 107.341 144.354 106.646 144.301 105.367H145.31C145.354 106.081 145.788 106.489 146.519 106.594V104.698L146.441 104.672C145.536 104.42 144.536 104.046 144.536 102.95C144.536 101.959 145.301 101.298 146.519 101.263V100.759H147.041V101.289C148.084 101.428 148.858 102.107 148.919 103.22H147.91C147.841 102.637 147.519 102.289 147.041 102.167V103.863C148.171 104.202 149.067 104.524 149.067 105.776ZM145.536 102.854C145.536 103.333 145.936 103.524 146.519 103.707V102.124C145.919 102.15 145.536 102.428 145.536 102.854ZM147.041 106.62C147.736 106.585 148.058 106.263 148.058 105.794C148.058 105.289 147.728 105.072 147.041 104.854V106.62ZM153.386 107.35H152.378V105.985H149.534V105.046L152.378 101.341H153.386V105.133H154.23V105.985H153.386V107.35ZM152.378 102.593L150.43 105.133H152.378V102.593ZM157.151 107.481C155.456 107.481 154.734 106.054 154.734 104.35C154.734 102.646 155.456 101.211 157.151 101.211C158.847 101.211 159.569 102.646 159.569 104.35C159.569 106.054 158.847 107.481 157.151 107.481ZM157.151 106.62C158.212 106.62 158.56 105.602 158.56 104.35C158.56 103.098 158.212 102.072 157.151 102.072C156.091 102.072 155.734 103.098 155.734 104.35C155.734 105.602 156.091 106.62 157.151 106.62ZM162.612 103.298C163.768 103.298 164.56 104.133 164.56 105.307C164.56 106.646 163.594 107.481 162.342 107.481C160.873 107.481 160.073 106.611 160.038 105.576H161.038C161.099 106.115 161.455 106.62 162.29 106.62C163.029 106.62 163.551 106.167 163.551 105.298C163.551 104.48 163.073 104.098 162.342 104.098C161.873 104.098 161.447 104.263 161.16 104.62H160.142L160.794 101.341H164.255V102.193H161.551L161.229 103.802V103.82C161.542 103.498 161.986 103.298 162.612 103.298ZM166.102 103.159H165.119C165.119 102.037 165.884 101.211 167.389 101.211C168.45 101.211 169.389 101.811 169.389 102.872C169.389 103.515 169.058 103.915 168.484 104.159V104.176C169.302 104.411 169.589 104.95 169.589 105.663C169.589 106.846 168.711 107.481 167.406 107.481C165.824 107.481 164.963 106.672 164.963 105.289H165.937C165.937 106.098 166.31 106.62 167.337 106.62C168.241 106.62 168.589 106.272 168.589 105.637C168.589 104.811 167.989 104.628 167.371 104.628H166.832V103.828H167.337C167.963 103.828 168.38 103.567 168.38 102.95C168.38 102.454 168.067 102.072 167.354 102.072C166.406 102.072 166.102 102.567 166.102 103.159ZM170.755 107.42C170.433 107.42 170.19 107.202 170.19 106.854C170.19 106.515 170.433 106.289 170.755 106.289C171.068 106.289 171.312 106.515 171.312 106.854C171.312 107.202 171.068 107.42 170.755 107.42ZM172.761 104.159C173.056 103.672 173.613 103.376 174.309 103.376C175.491 103.376 176.3 104.194 176.3 105.376C176.3 106.559 175.474 107.481 174.126 107.481C172.369 107.481 171.752 106.167 171.752 104.367C171.752 102.315 172.613 101.211 174.126 101.211C175.256 101.211 176.013 101.959 176.135 102.863H175.126C175.065 102.402 174.752 102.037 174.117 102.037C173.03 102.037 172.778 103.046 172.761 104.141V104.159ZM174.091 106.654C174.865 106.654 175.317 106.159 175.317 105.428C175.317 104.663 174.83 104.202 174.143 104.202C173.343 104.202 172.813 104.707 172.813 105.446C172.813 106.159 173.291 106.654 174.091 106.654ZM176.665 101.341H180.909V102.107C179.544 103.246 178.622 105.437 178.622 107.35H177.561C177.561 105.367 178.744 103.159 179.813 102.211V102.193H176.665V101.341Z" fill="#FFFDFF"/>
<defs>
<clipPath id="clip0_7_554">
<rect x="5.79724" y="8.69604" width="23.1884" height="23.1884" rx="11.5942" fill="white"/>
</clipPath>
<clipPath id="clip1_7_554">
<rect width="23.1884" height="23.1884" fill="white" transform="translate(5.79712 8.69577)"/>
</clipPath>
</defs>
</svg>
