<svg width="219" height="122" viewBox="0 0 219 122" fill="none" xmlns="http://www.w3.org/2000/svg">
<rect width="219" height="43.8" rx="10.95" fill="#302D31"/>
<rect x="7.30017" y="7.30023" width="29.2" height="29.2" rx="14.6" fill="#0B4AE1"/>
<path d="M21.9002 27.3761C21.2412 27.3761 20.6303 27.2138 20.0676 26.8894C19.5049 26.565 19.0613 26.1188 18.7369 25.5511H17.6419C17.4695 25.5511 17.3251 25.4928 17.2085 25.3762C17.0919 25.2596 17.0336 25.1151 17.0336 24.9427C17.0336 24.7704 17.0919 24.6259 17.2085 24.5093C17.3251 24.3927 17.4695 24.3344 17.6419 24.3344H18.3111C18.2807 24.1316 18.2629 23.9288 18.2578 23.7261C18.2528 23.5233 18.2502 23.3205 18.2502 23.1177H17.6419C17.4695 23.1177 17.3251 23.0594 17.2085 22.9428C17.0919 22.8262 17.0336 22.6818 17.0336 22.5094C17.0336 22.337 17.0919 22.1926 17.2085 22.076C17.3251 21.9594 17.4695 21.9011 17.6419 21.9011H18.2502C18.2502 21.6983 18.2528 21.4955 18.2578 21.2927C18.2629 21.09 18.2807 20.8872 18.3111 20.6844H17.6419C17.4695 20.6844 17.3251 20.6261 17.2085 20.5095C17.0919 20.3929 17.0336 20.2484 17.0336 20.0761C17.0336 19.9037 17.0919 19.7592 17.2085 19.6426C17.3251 19.526 17.4695 19.4677 17.6419 19.4677H18.7369C18.8788 19.2345 19.0385 19.0166 19.216 18.8138C19.3934 18.611 19.5987 18.4336 19.8319 18.2815L19.2692 17.7036C19.1577 17.592 19.1019 17.4526 19.1019 17.2853C19.1019 17.118 19.1627 16.9736 19.2844 16.8519C19.3959 16.7404 19.5379 16.6846 19.7102 16.6846C19.8826 16.6846 20.0245 16.7404 20.1361 16.8519L21.0182 17.734C21.302 17.6427 21.591 17.5971 21.885 17.5971C22.1791 17.5971 22.468 17.6427 22.7519 17.734L23.6644 16.8367C23.7759 16.7252 23.9153 16.6694 24.0826 16.6694C24.2499 16.6694 24.3944 16.7302 24.5161 16.8519C24.6276 16.9634 24.6834 17.1054 24.6834 17.2777C24.6834 17.4501 24.6276 17.592 24.5161 17.7036L23.9382 18.2815C24.1713 18.4336 24.3817 18.6085 24.5693 18.8062C24.7569 19.0039 24.9216 19.2244 25.0636 19.4677H26.1586C26.3309 19.4677 26.4754 19.526 26.592 19.6426C26.7086 19.7592 26.7669 19.9037 26.7669 20.0761C26.7669 20.2484 26.7086 20.3929 26.592 20.5095C26.4754 20.6261 26.3309 20.6844 26.1586 20.6844H25.4894C25.5198 20.8872 25.5376 21.09 25.5426 21.2927C25.5477 21.4955 25.5502 21.6983 25.5502 21.9011H26.1586C26.3309 21.9011 26.4754 21.9594 26.592 22.076C26.7086 22.1926 26.7669 22.337 26.7669 22.5094C26.7669 22.6818 26.7086 22.8262 26.592 22.9428C26.4754 23.0594 26.3309 23.1177 26.1586 23.1177H25.5502C25.5502 23.3205 25.5477 23.5233 25.5426 23.7261C25.5376 23.9288 25.5198 24.1316 25.4894 24.3344H26.1586C26.3309 24.3344 26.4754 24.3927 26.592 24.5093C26.7086 24.6259 26.7669 24.7704 26.7669 24.9427C26.7669 25.1151 26.7086 25.2596 26.592 25.3762C26.4754 25.4928 26.3309 25.5511 26.1586 25.5511H25.0636C24.7391 26.1188 24.2955 26.565 23.7328 26.8894C23.1701 27.2138 22.5593 27.3761 21.9002 27.3761ZM21.9002 26.1594C22.5694 26.1594 23.1423 25.9211 23.6188 25.4446C24.0953 24.9681 24.3336 24.3952 24.3336 23.7261V21.2927C24.3336 20.6236 24.0953 20.0507 23.6188 19.5742C23.1423 19.0977 22.5694 18.8594 21.9002 18.8594C21.2311 18.8594 20.6582 19.0977 20.1817 19.5742C19.7052 20.0507 19.4669 20.6236 19.4669 21.2927V23.7261C19.4669 24.3952 19.7052 24.9681 20.1817 25.4446C20.6582 25.9211 21.2311 26.1594 21.9002 26.1594ZM21.2919 24.3344H22.5086C22.6809 24.3344 22.8254 24.2761 22.942 24.1595C23.0586 24.0429 23.1169 23.8984 23.1169 23.7261C23.1169 23.5537 23.0586 23.4092 22.942 23.2926C22.8254 23.176 22.6809 23.1177 22.5086 23.1177H21.2919C21.1195 23.1177 20.9751 23.176 20.8585 23.2926C20.7419 23.4092 20.6836 23.5537 20.6836 23.7261C20.6836 23.8984 20.7419 24.0429 20.8585 24.1595C20.9751 24.2761 21.1195 24.3344 21.2919 24.3344ZM21.2919 21.9011H22.5086C22.6809 21.9011 22.8254 21.8428 22.942 21.7262C23.0586 21.6096 23.1169 21.4651 23.1169 21.2927C23.1169 21.1204 23.0586 20.9759 22.942 20.8593C22.8254 20.7427 22.6809 20.6844 22.5086 20.6844H21.2919C21.1195 20.6844 20.9751 20.7427 20.8585 20.8593C20.7419 20.9759 20.6836 21.1204 20.6836 21.2927C20.6836 21.4651 20.7419 21.6096 20.8585 21.7262C20.9751 21.8428 21.1195 21.9011 21.2919 21.9011Z" fill="white"/>
<path d="M43.7903 25.9V19.9237H41.5614V18.9407H47.1678V19.9237H44.9486V25.9H43.7903ZM48.9483 25.2089C49.7951 25.2089 50.1357 24.6833 50.2233 24.3816H51.2453C50.9923 25.3257 50.2525 26.046 48.9775 26.046C47.4299 26.046 46.4857 24.9753 46.4857 23.418C46.4857 21.8023 47.4299 20.79 48.9288 20.79C50.5348 20.79 51.3232 21.9093 51.3232 23.6808H47.5077C47.5077 24.5179 48.0431 25.2089 48.9483 25.2089ZM48.9288 21.5979C48.1015 21.5979 47.5077 22.1527 47.5077 22.9216H50.3012C50.3012 22.1527 49.7561 21.5979 48.9288 21.5979ZM54.175 22.8924C55.0899 23.1065 56.0827 23.3109 56.0827 24.4984C56.0827 25.4523 55.2651 26.046 54.0582 26.046C52.4522 26.046 51.7611 25.2965 51.7125 24.2453H52.7053C52.7539 24.7807 52.9875 25.2381 54.0387 25.2381C54.7493 25.2381 55.051 24.8877 55.051 24.5763C55.051 23.9533 54.4573 23.9047 53.7273 23.7295C52.9389 23.5445 51.8682 23.3888 51.8682 22.2597C51.8682 21.4421 52.5885 20.79 53.8343 20.79C55.1873 20.79 55.8297 21.52 55.8978 22.3863H54.905C54.8369 21.9969 54.6422 21.5979 53.8441 21.5979C53.2309 21.5979 52.8999 21.8315 52.8999 22.1819C52.8999 22.688 53.4547 22.7269 54.175 22.8924ZM59.0279 21.7633H58.0935V24.4595C58.0935 25.024 58.366 25.0921 59.0279 25.0532V25.8903C58.8235 25.9389 58.5996 25.9681 58.3271 25.9681C57.5095 25.9681 57.0618 25.5983 57.0618 24.5471V21.7633H56.3415V20.9263H57.0618V19.3592H58.0935V20.9263H59.0279V21.7633ZM59.8778 25.9V18.9407H61.1723L64.3064 24.1675H64.3259V18.9407H65.4842V25.9H64.1994L61.0555 20.6927H61.036V25.9H59.8778ZM68.8617 25.2089C69.7085 25.2089 70.0492 24.6833 70.1368 24.3816H71.1588C70.9057 25.3257 70.166 26.046 68.8909 26.046C67.3433 26.046 66.3992 24.9753 66.3992 23.418C66.3992 21.8023 67.3433 20.79 68.8422 20.79C70.4482 20.79 71.2366 21.9093 71.2366 23.6808H67.4212C67.4212 24.5179 67.9565 25.2089 68.8617 25.2089ZM68.8422 21.5979C68.0149 21.5979 67.4212 22.1527 67.4212 22.9216H70.2146C70.2146 22.1527 69.6696 21.5979 68.8422 21.5979ZM74.2172 21.7633H73.2828V24.4595C73.2828 25.024 73.5554 25.0921 74.2172 25.0532V25.8903C74.0128 25.9389 73.789 25.9681 73.5164 25.9681C72.6988 25.9681 72.2511 25.5983 72.2511 24.5471V21.7633H71.5308V20.9263H72.2511V19.3592H73.2828V20.9263H74.2172V21.7633Z" fill="#EEEEEE"/>
<rect y="48.8" width="219" height="43.8" rx="10.95" fill="#302D31"/>
<rect x="7.30005" y="56.1" width="29.2" height="29.2" rx="14.6" fill="#0B4AE1"/>
<path d="M21.8998 76.4187C21.7984 76.4187 21.697 76.406 21.5956 76.3807C21.4942 76.3553 21.3979 76.3173 21.3067 76.2666L17.0483 73.9093C16.8557 73.7978 16.7036 73.6482 16.5921 73.4607C16.4806 73.2731 16.4248 73.0678 16.4248 72.8447V68.191C16.4248 67.9679 16.4806 67.7626 16.5921 67.575C16.7036 67.3875 16.8557 67.2379 17.0483 67.1264L21.3067 64.7691C21.3979 64.7184 21.4942 64.6804 21.5956 64.655C21.697 64.6297 21.7984 64.617 21.8998 64.617C22.0012 64.617 22.1026 64.6297 22.204 64.655C22.3054 64.6804 22.4017 64.7184 22.4929 64.7691L26.7513 67.1264C26.9439 67.2379 27.096 67.3875 27.2075 67.575C27.319 67.7626 27.3748 67.9679 27.3748 68.191V72.8447C27.3748 73.0678 27.319 73.2731 27.2075 73.4607C27.096 73.6482 26.9439 73.7978 26.7513 73.9093L22.4929 76.2666C22.4017 76.3173 22.3054 76.3553 22.204 76.3807C22.1026 76.406 22.0012 76.4187 21.8998 76.4187ZM20.1356 68.8449C20.3587 68.6117 20.6198 68.4267 20.9189 68.2898C21.218 68.1529 21.5449 68.0845 21.8998 68.0845C22.2547 68.0845 22.5816 68.1529 22.8807 68.2898C23.1798 68.4267 23.4409 68.6117 23.664 68.8449L25.489 67.826L21.8998 65.8337L18.3106 67.826L20.1356 68.8449ZM21.2915 74.8674V72.8751C20.7642 72.7332 20.3283 72.4468 19.9836 72.0159C19.6388 71.585 19.4665 71.0856 19.4665 70.5178C19.4665 70.4063 19.4715 70.2999 19.4817 70.1985C19.4918 70.0971 19.5121 70.0008 19.5425 69.9095L17.6415 68.8449V72.8447L21.2915 74.8674ZM21.8998 71.7345C22.2344 71.7345 22.5208 71.6154 22.7591 71.3771C22.9973 71.1388 23.1165 70.8524 23.1165 70.5178C23.1165 70.1833 22.9973 69.8968 22.7591 69.6586C22.5208 69.4203 22.2344 69.3012 21.8998 69.3012C21.5652 69.3012 21.2788 69.4203 21.0405 69.6586C20.8023 69.8968 20.6831 70.1833 20.6831 70.5178C20.6831 70.8524 20.8023 71.1388 21.0405 71.3771C21.2788 71.6154 21.5652 71.7345 21.8998 71.7345ZM22.5081 74.8674L26.1581 72.8447V68.8449L24.2571 69.9095C24.2875 70.0109 24.3078 70.1097 24.3179 70.2061C24.3281 70.3024 24.3331 70.4063 24.3331 70.5178C24.3331 71.0856 24.1608 71.585 23.8161 72.0159C23.4713 72.4468 23.0354 72.7332 22.5081 72.8751V74.8674Z" fill="white"/>
<path d="M41.9604 74.7V67.7406H43.4594L45.406 73.094H45.4255L47.3624 67.7406H48.8614V74.7H47.7323V69.4245H47.7128L45.8732 74.7H44.9486L43.109 69.4245H43.0895V74.7H41.9604ZM52.9689 71.0305C52.9689 70.6704 52.7548 70.3978 52.0734 70.3978C51.2558 70.3978 50.9541 70.6509 50.9054 71.2933H49.9126C49.9613 70.3394 50.5745 69.59 52.0734 69.59C53.1733 69.59 53.9909 70.0085 53.9909 71.3322V73.6974C53.9909 74.0478 54.0688 74.2328 54.4678 74.1938V74.6805C54.2342 74.7681 54.0688 74.7876 53.8741 74.7876C53.329 74.7876 53.076 74.5929 52.9786 74.1062H52.9592C52.6477 74.5442 52.0832 74.846 51.3142 74.846C50.302 74.846 49.679 74.262 49.679 73.4249C49.679 72.3348 50.4869 71.9941 51.7328 71.7508C52.5017 71.6048 52.9689 71.5074 52.9689 71.0305ZM51.5381 74.0381C52.3849 74.0381 52.9689 73.6196 52.9689 72.8117V72.0622C52.8034 72.179 52.4044 72.2958 51.9274 72.3932C51.0806 72.5781 50.7108 72.8214 50.7108 73.3276C50.7108 73.785 50.9833 74.0381 51.5381 74.0381ZM55.6399 68.8892C55.3576 68.8892 55.0656 68.6945 55.0656 68.3441C55.0656 67.9937 55.3576 67.8088 55.6399 67.8088C55.9416 67.8088 56.2239 67.9937 56.2239 68.3441C56.2239 68.6945 55.9416 68.8892 55.6399 68.8892ZM55.1337 69.7262H56.1557V74.7H55.1337V69.7262ZM59.8714 69.59C60.7961 69.59 61.5261 70.1253 61.5261 71.2641V74.7H60.4944V71.5561C60.4944 70.8845 60.2121 70.4562 59.5113 70.4562C58.7229 70.4562 58.2168 70.9332 58.2168 71.6729V74.7H57.1948V69.7262H58.2168V70.3686H58.2362C58.499 69.9793 59.0149 69.59 59.8714 69.59ZM62.5677 74.7V67.7406H63.8623L66.9964 72.9674H67.0159V67.7406H68.1741V74.7H66.8893L63.7455 69.4926H63.726V74.7H62.5677ZM71.5517 74.0089C72.3985 74.0089 72.7391 73.4833 72.8267 73.1816H73.8487C73.5957 74.1257 72.8559 74.846 71.5809 74.846C70.0333 74.846 69.0891 73.7753 69.0891 72.218C69.0891 70.6022 70.0333 69.59 71.5322 69.59C73.1382 69.59 73.9266 70.7093 73.9266 72.4808H70.1111C70.1111 73.3178 70.6465 74.0089 71.5517 74.0089ZM71.5322 70.3978C70.7049 70.3978 70.1111 70.9526 70.1111 71.7216H72.9046C72.9046 70.9526 72.3595 70.3978 71.5322 70.3978ZM76.9072 70.5633H75.9728V73.2594C75.9728 73.824 76.2453 73.8921 76.9072 73.8532V74.6902C76.7028 74.7389 76.4789 74.7681 76.2064 74.7681C75.3888 74.7681 74.9411 74.3982 74.9411 73.347V70.5633H74.2208V69.7262H74.9411V68.1592H75.9728V69.7262H76.9072V70.5633Z" fill="#EEEEEE"/>
<rect y="97.6" width="219" height="23.725" rx="11.8625" fill="#0B4AE1"/>
<path d="M95.4409 108.898C95.3144 108.197 94.8569 107.35 93.5721 107.35C92.0732 107.35 91.4795 108.606 91.4795 109.978C91.4795 111.36 92.0732 112.616 93.5721 112.616C94.8667 112.616 95.3631 111.769 95.4409 110.922H96.5992C96.4435 112.489 95.3728 113.608 93.6013 113.608C91.5963 113.608 90.3309 112.08 90.3309 109.978C90.3309 107.885 91.5963 106.357 93.6013 106.357C95.3631 106.357 96.4337 107.476 96.5992 108.898H95.4409ZM99.6166 113.608C98.0593 113.608 97.1151 112.528 97.1151 110.98C97.1151 109.433 98.0593 108.352 99.6166 108.352C101.174 108.352 102.118 109.433 102.118 110.98C102.118 112.528 101.174 113.608 99.6166 113.608ZM99.6166 112.771C100.59 112.771 101.096 112.002 101.096 110.98C101.096 109.949 100.59 109.19 99.6166 109.19C98.6433 109.19 98.1371 109.949 98.1371 110.98C98.1371 112.002 98.6433 112.771 99.6166 112.771ZM105.501 108.352C106.426 108.352 107.156 108.888 107.156 110.027V113.462H106.124V110.319C106.124 109.647 105.842 109.219 105.141 109.219C104.353 109.219 103.846 109.696 103.846 110.435V113.462H102.824V108.489H103.846V109.131H103.866C104.129 108.742 104.645 108.352 105.501 108.352ZM110.37 109.326H109.436V112.022C109.436 112.586 109.708 112.655 110.37 112.616V113.453C110.166 113.501 109.942 113.531 109.669 113.531C108.852 113.531 108.404 113.161 108.404 112.11V109.326H107.684V108.489H108.404V106.922H109.436V108.489H110.37V109.326ZM111.687 107.652C111.405 107.652 111.113 107.457 111.113 107.107C111.113 106.756 111.405 106.571 111.687 106.571C111.989 106.571 112.271 106.756 112.271 107.107C112.271 107.457 111.989 107.652 111.687 107.652ZM111.181 108.489H112.203V113.462H111.181V108.489ZM115.919 108.352C116.843 108.352 117.573 108.888 117.573 110.027V113.462H116.542V110.319C116.542 109.647 116.259 109.219 115.559 109.219C114.77 109.219 114.264 109.696 114.264 110.435V113.462H113.242V108.489H114.264V109.131H114.284C114.546 108.742 115.062 108.352 115.919 108.352ZM121.778 108.489H122.8V113.462H121.778V112.82H121.759C121.496 113.209 120.98 113.599 120.124 113.599C119.199 113.599 118.469 113.063 118.469 111.925V108.489H119.501V111.633C119.501 112.304 119.783 112.732 120.484 112.732C121.272 112.732 121.778 112.256 121.778 111.516V108.489ZM125.974 112.771C126.82 112.771 127.161 112.246 127.249 111.944H128.271C128.018 112.888 127.278 113.608 126.003 113.608C124.455 113.608 123.511 112.538 123.511 110.98C123.511 109.365 124.455 108.352 125.954 108.352C127.56 108.352 128.349 109.472 128.349 111.243H124.533C124.533 112.08 125.068 112.771 125.974 112.771ZM125.954 109.16C125.127 109.16 124.533 109.715 124.533 110.484H127.327C127.327 109.715 126.782 109.16 125.954 109.16Z" fill="white"/>
</svg>
