<svg width="299" height="273" viewBox="0 0 299 273" fill="none" xmlns="http://www.w3.org/2000/svg">
<g clip-path="url(#clip0_461_9041)">
<path d="M69.3661 83L63.444 89.6225L56.9297 96.9073M-70 344.953L-49.9458 285.322C-43.8514 267.2 -29.1126 253.317 -10.6592 248.316L-6.12513 247.087C16.7597 240.885 32.6492 220.116 32.6492 196.406V168.673M32.6492 168.673H41.9272C50.2129 168.673 56.9297 161.956 56.9297 153.67V96.9073M32.6492 168.673V144.195V128.281C32.6492 125.563 33.6511 122.939 35.4634 120.913L56.9297 96.9073M41.5323 133.14V154.657" stroke="#302D31" stroke-width="5.52727" stroke-linecap="round"/>
<path d="M227.234 81.8707C228.761 81.8707 229.998 80.6333 229.998 79.107C229.998 77.5807 228.761 76.3434 227.234 76.3434V81.8707ZM217.535 76.3434C216.009 76.3434 214.771 77.5807 214.771 79.107C214.771 80.6333 216.009 81.8707 217.535 81.8707V76.3434ZM243.4 98.0886L244.806 95.709L244.806 95.709L243.4 98.0886ZM251.649 104.485L249.695 106.439L249.695 106.439L251.649 104.485ZM258.333 97.7563L260.233 95.7494L258.274 93.8944L256.372 95.8087L258.333 97.7563ZM259.444 102.614C260.553 103.664 262.302 103.616 263.351 102.508C264.401 101.399 264.353 99.6501 263.244 98.6008L259.444 102.614ZM257.32 92.9917C256.212 91.9423 254.463 91.9902 253.413 93.0985C252.364 94.2069 252.412 95.9561 253.52 97.0054L257.32 92.9917ZM317.589 19.3485C318.334 18.0162 317.858 16.3324 316.525 15.5877C315.193 14.8429 313.509 15.3192 312.764 16.6515L317.589 19.3485ZM225.148 109.872C225.148 108.346 223.911 107.108 222.385 107.108C220.858 107.108 219.621 108.346 219.621 109.872H225.148ZM236.348 151.619C237.427 152.698 239.177 152.698 240.256 151.619C241.335 150.54 241.335 148.79 240.256 147.711L236.348 151.619ZM233.862 93.9754L233.097 96.631L233.862 93.9754ZM313.965 20.1674L311.553 18.8189L313.965 20.1674ZM261.006 133.748C261.006 155.077 243.714 172.369 222.385 172.369V177.896C246.767 177.896 266.533 158.13 266.533 133.748H261.006ZM222.385 172.369C201.055 172.369 183.764 155.077 183.764 133.748H178.236C178.236 158.13 198.002 177.896 222.385 177.896V172.369ZM183.764 133.748C183.764 112.418 201.055 95.1267 222.385 95.1267V89.5994C198.002 89.5994 178.236 109.365 178.236 133.748H183.764ZM225.148 92.363V79.107H219.621V92.363H225.148ZM222.385 81.8707H227.234V76.3434H222.385V81.8707ZM222.385 76.3434H217.535V81.8707H222.385V76.3434ZM241.995 100.468C244.81 102.131 247.396 104.141 249.695 106.439L253.603 102.531C250.978 99.9059 248.023 97.6094 244.806 95.709L241.995 100.468ZM249.695 106.439C256.686 113.431 261.006 123.082 261.006 133.748H266.533C266.533 121.558 261.589 110.517 253.603 102.531L249.695 106.439ZM253.61 106.433L260.294 99.7039L256.372 95.8087L249.688 102.538L253.61 106.433ZM256.433 99.7632L259.444 102.614L263.244 98.6008L260.233 95.7494L256.433 99.7632ZM263.244 98.6008L257.32 92.9917L253.52 97.0054L259.444 102.614L263.244 98.6008ZM316.377 21.5159L317.589 19.3485L312.764 16.6515L311.553 18.8189L316.377 21.5159ZM219.621 109.872V133.421H225.148V109.872H219.621ZM220.662 135.933L236.348 151.619L240.256 147.711L224.57 132.025L220.662 135.933ZM222.385 95.1267C226.106 95.1267 229.699 95.6521 233.097 96.631L234.627 91.3197C230.737 90.199 226.628 89.5994 222.385 89.5994V95.1267ZM233.097 96.631C236.246 97.5381 239.231 98.8355 241.995 100.468L244.806 95.709C241.645 93.8425 238.231 92.3579 234.627 91.3197L233.097 96.631ZM241.274 66.9243L231.282 92.986L236.443 94.9647L246.435 68.9029L241.274 66.9243ZM219.621 133.421C219.621 134.363 219.995 135.267 220.662 135.933L224.57 132.025C224.94 132.395 225.148 132.897 225.148 133.421H219.621ZM273.565 48.7631C291.51 47.46 307.598 37.2213 316.377 21.5159L311.553 18.8189C303.681 32.9013 289.256 42.0819 273.165 43.2503L273.565 48.7631ZM273.165 43.2503C258.843 44.2902 246.414 53.5167 241.274 66.9243L246.435 68.9029C250.808 57.4969 261.381 49.6478 273.565 48.7631L273.165 43.2503Z" fill="#302D31"/>
<path d="M51.1079 194.044V183.508H51.9239V194.044H51.1079ZM51.6239 193.144C51.0079 193.144 50.4679 193.036 50.0039 192.82C49.5399 192.596 49.1799 192.284 48.9239 191.884C48.6679 191.484 48.5399 191.016 48.5399 190.48H49.7999C49.8079 190.784 49.8799 191.064 50.0159 191.32C50.1599 191.568 50.3639 191.768 50.6279 191.92C50.8999 192.064 51.2319 192.136 51.6239 192.136C51.9599 192.136 52.2479 192.08 52.4879 191.968C52.7359 191.856 52.9239 191.704 53.0519 191.512C53.1799 191.312 53.2439 191.084 53.2439 190.828C53.2439 190.532 53.1759 190.288 53.0399 190.096C52.9039 189.904 52.7199 189.748 52.4879 189.628C52.2639 189.5 51.9999 189.388 51.6959 189.292C51.3999 189.196 51.0879 189.092 50.7599 188.98C50.0959 188.764 49.5999 188.484 49.2719 188.14C48.9519 187.796 48.7919 187.348 48.7919 186.796C48.7919 186.324 48.9039 185.916 49.1279 185.572C49.3519 185.22 49.6639 184.948 50.0639 184.756C50.4719 184.556 50.9519 184.456 51.5039 184.456C52.0479 184.456 52.5239 184.556 52.9319 184.756C53.3399 184.956 53.6599 185.232 53.8919 185.584C54.1239 185.936 54.2399 186.348 54.2399 186.82H52.9679C52.9679 186.604 52.9119 186.392 52.7999 186.184C52.6879 185.976 52.5199 185.808 52.2959 185.68C52.0719 185.544 51.7959 185.476 51.4679 185.476C51.1959 185.468 50.9519 185.512 50.7359 185.608C50.5199 185.704 50.3519 185.844 50.2319 186.028C50.1119 186.212 50.0519 186.432 50.0519 186.688C50.0519 186.944 50.1039 187.152 50.2079 187.312C50.3199 187.464 50.4799 187.596 50.6879 187.708C50.8959 187.82 51.1359 187.924 51.4079 188.02C51.6879 188.108 51.9959 188.208 52.3319 188.32C52.7479 188.456 53.1159 188.624 53.4359 188.824C53.7639 189.016 54.0199 189.268 54.2039 189.58C54.3959 189.884 54.4919 190.276 54.4919 190.756C54.4919 191.172 54.3839 191.56 54.1679 191.92C53.9519 192.28 53.6319 192.576 53.2079 192.808C52.7839 193.032 52.2559 193.144 51.6239 193.144ZM58.7148 193.144C57.9708 193.144 57.3308 192.964 56.7948 192.604C56.2588 192.236 55.8468 191.728 55.5588 191.08C55.2708 190.424 55.1268 189.664 55.1268 188.8C55.1268 187.936 55.2708 187.18 55.5588 186.532C55.8468 185.876 56.2588 185.368 56.7948 185.008C57.3308 184.64 57.9708 184.456 58.7148 184.456C59.4588 184.456 60.0948 184.64 60.6228 185.008C61.1588 185.368 61.5668 185.876 61.8468 186.532C62.1348 187.18 62.2788 187.936 62.2788 188.8C62.2788 189.664 62.1348 190.424 61.8468 191.08C61.5668 191.728 61.1588 192.236 60.6228 192.604C60.0948 192.964 59.4588 193.144 58.7148 193.144ZM58.7148 192.076C59.1628 192.076 59.5628 191.944 59.9148 191.68C60.2748 191.416 60.5548 191.04 60.7548 190.552C60.9548 190.064 61.0548 189.48 61.0548 188.8C61.0548 188.12 60.9548 187.536 60.7548 187.048C60.5548 186.56 60.2748 186.188 59.9148 185.932C59.5628 185.668 59.1628 185.536 58.7148 185.536C58.2588 185.536 57.8508 185.668 57.4908 185.932C57.1308 186.188 56.8508 186.56 56.6508 187.048C56.4508 187.536 56.3508 188.12 56.3508 188.8C56.3508 189.48 56.4508 190.064 56.6508 190.552C56.8508 191.04 57.1308 191.416 57.4908 191.68C57.8508 191.944 58.2588 192.076 58.7148 192.076ZM63.1835 193.06C62.9515 193.06 62.7595 192.988 62.6075 192.844C62.4635 192.692 62.3915 192.512 62.3915 192.304C62.3915 192.088 62.4635 191.908 62.6075 191.764C62.7595 191.612 62.9515 191.536 63.1835 191.536C63.4155 191.536 63.6035 191.612 63.7475 191.764C63.8915 191.908 63.9635 192.088 63.9635 192.304C63.9635 192.512 63.8915 192.692 63.7475 192.844C63.6035 192.988 63.4155 193.06 63.1835 193.06ZM67.6572 193.144C66.9132 193.144 66.2732 192.964 65.7372 192.604C65.2012 192.236 64.7892 191.728 64.5012 191.08C64.2132 190.424 64.0692 189.664 64.0692 188.8C64.0692 187.936 64.2132 187.18 64.5012 186.532C64.7892 185.876 65.2012 185.368 65.7372 185.008C66.2732 184.64 66.9132 184.456 67.6572 184.456C68.4012 184.456 69.0372 184.64 69.5652 185.008C70.1012 185.368 70.5092 185.876 70.7892 186.532C71.0772 187.18 71.2212 187.936 71.2212 188.8C71.2212 189.664 71.0772 190.424 70.7892 191.08C70.5092 191.728 70.1012 192.236 69.5652 192.604C69.0372 192.964 68.4012 193.144 67.6572 193.144ZM67.6572 192.076C68.1052 192.076 68.5052 191.944 68.8572 191.68C69.2172 191.416 69.4972 191.04 69.6972 190.552C69.8972 190.064 69.9972 189.48 69.9972 188.8C69.9972 188.12 69.8972 187.536 69.6972 187.048C69.4972 186.56 69.2172 186.188 68.8572 185.932C68.5052 185.668 68.1052 185.536 67.6572 185.536C67.2012 185.536 66.7932 185.668 66.4332 185.932C66.0732 186.188 65.7932 186.56 65.5932 187.048C65.3932 187.536 65.2932 188.12 65.2932 188.8C65.2932 189.48 65.3932 190.064 65.5932 190.552C65.7932 191.04 66.0732 191.416 66.4332 191.68C66.7932 191.944 67.2012 192.076 67.6572 192.076ZM75.4623 193.144C74.7183 193.144 74.0783 192.964 73.5423 192.604C73.0063 192.236 72.5943 191.728 72.3063 191.08C72.0183 190.424 71.8743 189.664 71.8743 188.8C71.8743 187.936 72.0183 187.18 72.3063 186.532C72.5943 185.876 73.0063 185.368 73.5423 185.008C74.0783 184.64 74.7183 184.456 75.4623 184.456C76.2063 184.456 76.8423 184.64 77.3703 185.008C77.9063 185.368 78.3143 185.876 78.5943 186.532C78.8823 187.18 79.0263 187.936 79.0263 188.8C79.0263 189.664 78.8823 190.424 78.5943 191.08C78.3143 191.728 77.9063 192.236 77.3703 192.604C76.8423 192.964 76.2063 193.144 75.4623 193.144ZM75.4623 192.076C75.9103 192.076 76.3103 191.944 76.6623 191.68C77.0223 191.416 77.3023 191.04 77.5023 190.552C77.7023 190.064 77.8023 189.48 77.8023 188.8C77.8023 188.12 77.7023 187.536 77.5023 187.048C77.3023 186.56 77.0223 186.188 76.6623 185.932C76.3103 185.668 75.9103 185.536 75.4623 185.536C75.0063 185.536 74.5983 185.668 74.2383 185.932C73.8783 186.188 73.5983 186.56 73.3983 187.048C73.1983 187.536 73.0983 188.12 73.0983 188.8C73.0983 189.48 73.1983 190.064 73.3983 190.552C73.5983 191.04 73.8783 191.416 74.2383 191.68C74.5983 191.944 75.0063 192.076 75.4623 192.076Z" fill="#FFFDFF"/>
<path d="M48.3599 213L51.4559 204.6H52.5239L55.6079 213H54.5399L51.9839 205.86L49.4159 213H48.3599ZM49.7759 210.84L50.0639 210.024H53.8679L54.1559 210.84H49.7759ZM56.3286 213V204.36H57.3366V213H56.3286ZM58.5205 213V206.952H59.4325L59.4925 207.816C59.6845 207.504 59.9405 207.26 60.2605 207.084C60.5885 206.9 60.9445 206.808 61.3285 206.808C61.6405 206.808 61.9205 206.852 62.1685 206.94C62.4245 207.02 62.6485 207.148 62.8405 207.324C63.0325 207.492 63.1885 207.708 63.3085 207.972C63.5165 207.604 63.8005 207.32 64.1605 207.12C64.5285 206.912 64.9205 206.808 65.3365 206.808C65.8005 206.808 66.2045 206.904 66.5485 207.096C66.9005 207.28 67.1685 207.564 67.3525 207.948C67.5445 208.324 67.6405 208.804 67.6405 209.388V213H66.6445V209.496C66.6445 208.888 66.5205 208.432 66.2725 208.128C66.0245 207.824 65.6765 207.672 65.2285 207.672C64.9165 207.672 64.6365 207.756 64.3885 207.924C64.1405 208.084 63.9445 208.32 63.8005 208.632C63.6565 208.944 63.5845 209.328 63.5845 209.784V213H62.5765V209.496C62.5765 208.888 62.4525 208.432 62.2045 208.128C61.9565 207.824 61.6045 207.672 61.1485 207.672C60.8445 207.672 60.5685 207.756 60.3205 207.924C60.0805 208.084 59.8885 208.32 59.7445 208.632C59.6005 208.944 59.5285 209.328 59.5285 209.784V213H58.5205ZM71.428 213.144C70.868 213.144 70.364 213.016 69.916 212.76C69.468 212.496 69.116 212.128 68.86 211.656C68.604 211.176 68.476 210.62 68.476 209.988C68.476 209.34 68.604 208.78 68.86 208.308C69.124 207.828 69.48 207.46 69.928 207.204C70.384 206.94 70.892 206.808 71.452 206.808C72.028 206.808 72.536 206.94 72.976 207.204C73.424 207.46 73.776 207.828 74.032 208.308C74.296 208.78 74.428 209.336 74.428 209.976C74.428 210.616 74.296 211.176 74.032 211.656C73.768 212.128 73.412 212.496 72.964 212.76C72.516 213.016 72.004 213.144 71.428 213.144ZM71.44 212.28C71.784 212.28 72.104 212.196 72.4 212.028C72.696 211.852 72.936 211.592 73.12 211.248C73.304 210.904 73.396 210.48 73.396 209.976C73.396 209.464 73.304 209.04 73.12 208.704C72.944 208.36 72.708 208.104 72.412 207.936C72.124 207.76 71.804 207.672 71.452 207.672C71.116 207.672 70.796 207.76 70.492 207.936C70.196 208.104 69.956 208.36 69.772 208.704C69.596 209.04 69.508 209.464 69.508 209.976C69.508 210.48 69.596 210.904 69.772 211.248C69.956 211.592 70.192 211.852 70.48 212.028C70.776 212.196 71.096 212.28 71.44 212.28ZM77.6413 213.144C77.1373 213.144 76.6973 213.06 76.3213 212.892C75.9533 212.724 75.6573 212.492 75.4333 212.196C75.2173 211.892 75.0853 211.536 75.0373 211.128H76.0693C76.1093 211.336 76.1933 211.528 76.3213 211.704C76.4493 211.88 76.6213 212.024 76.8373 212.136C77.0613 212.24 77.3333 212.292 77.6533 212.292C77.9333 212.292 78.1653 212.252 78.3493 212.172C78.5333 212.084 78.6693 211.968 78.7573 211.824C78.8533 211.68 78.9013 211.524 78.9013 211.356C78.9013 211.108 78.8413 210.92 78.7213 210.792C78.6093 210.664 78.4413 210.564 78.2173 210.492C77.9933 210.412 77.7213 210.344 77.4013 210.288C77.1373 210.24 76.8773 210.176 76.6213 210.096C76.3653 210.016 76.1373 209.912 75.9373 209.784C75.7373 209.648 75.5773 209.484 75.4573 209.292C75.3453 209.1 75.2893 208.864 75.2893 208.584C75.2893 208.24 75.3773 207.936 75.5533 207.672C75.7293 207.4 75.9813 207.188 76.3093 207.036C76.6453 206.884 77.0333 206.808 77.4733 206.808C78.1213 206.808 78.6453 206.964 79.0453 207.276C79.4453 207.588 79.6813 208.04 79.7533 208.632H78.7573C78.7173 208.328 78.5853 208.092 78.3613 207.924C78.1453 207.748 77.8453 207.66 77.4613 207.66C77.0853 207.66 76.7973 207.736 76.5973 207.888C76.4053 208.04 76.3093 208.24 76.3093 208.488C76.3093 208.648 76.3613 208.792 76.4653 208.92C76.5773 209.04 76.7373 209.144 76.9453 209.232C77.1613 209.32 77.4253 209.392 77.7373 209.448C78.1373 209.52 78.5013 209.616 78.8293 209.736C79.1573 209.856 79.4213 210.036 79.6213 210.276C79.8293 210.508 79.9333 210.84 79.9333 211.272C79.9333 211.648 79.8373 211.976 79.6453 212.256C79.4613 212.536 79.1973 212.756 78.8533 212.916C78.5093 213.068 78.1053 213.144 77.6413 213.144ZM83.0112 213C82.6512 213 82.3392 212.944 82.0752 212.832C81.8112 212.72 81.6072 212.532 81.4632 212.268C81.3272 211.996 81.2592 211.632 81.2592 211.176V207.804H80.2032V206.952H81.2592L81.3912 205.488H82.2672V206.952H84.0192V207.804H82.2672V211.176C82.2672 211.552 82.3432 211.808 82.4952 211.944C82.6472 212.072 82.9152 212.136 83.2992 212.136H83.9472V213H83.0112ZM87.1539 213V212.172L90.5019 207.792H87.2139V206.952H91.6539V207.78L88.2939 212.16H91.7139V213H87.1539ZM95.23 213.144C94.662 213.144 94.158 213.012 93.718 212.748C93.286 212.484 92.946 212.116 92.698 211.644C92.45 211.164 92.326 210.608 92.326 209.976C92.326 209.336 92.446 208.78 92.686 208.308C92.934 207.836 93.278 207.468 93.718 207.204C94.166 206.94 94.678 206.808 95.254 206.808C95.846 206.808 96.346 206.94 96.754 207.204C97.17 207.468 97.486 207.816 97.702 208.248C97.926 208.672 98.038 209.14 98.038 209.652C98.038 209.732 98.038 209.816 98.038 209.904C98.038 209.992 98.034 210.092 98.026 210.204H93.082V209.424H97.054C97.03 208.872 96.846 208.44 96.502 208.128C96.166 207.816 95.742 207.66 95.23 207.66C94.886 207.66 94.566 207.74 94.27 207.9C93.982 208.052 93.75 208.28 93.574 208.584C93.398 208.88 93.31 209.252 93.31 209.7V210.036C93.31 210.532 93.398 210.948 93.574 211.284C93.758 211.62 93.994 211.872 94.282 212.04C94.578 212.208 94.894 212.292 95.23 212.292C95.654 212.292 96.002 212.2 96.274 212.016C96.554 211.824 96.754 211.568 96.874 211.248H97.87C97.774 211.608 97.606 211.932 97.366 212.22C97.126 212.508 96.826 212.736 96.466 212.904C96.114 213.064 95.702 213.144 95.23 213.144ZM98.9183 213V206.952H99.8303L99.9023 208.104C100.038 207.832 100.21 207.6 100.418 207.408C100.634 207.216 100.89 207.068 101.186 206.964C101.49 206.86 101.834 206.808 102.218 206.808V207.864H101.846C101.59 207.864 101.346 207.9 101.114 207.972C100.882 208.036 100.674 208.144 100.49 208.296C100.314 208.448 100.174 208.656 100.07 208.92C99.9743 209.176 99.9263 209.496 99.9263 209.88V213H98.9183ZM105.357 213.144C104.797 213.144 104.293 213.016 103.845 212.76C103.397 212.496 103.045 212.128 102.789 211.656C102.533 211.176 102.405 210.62 102.405 209.988C102.405 209.34 102.533 208.78 102.789 208.308C103.053 207.828 103.409 207.46 103.857 207.204C104.313 206.94 104.821 206.808 105.381 206.808C105.957 206.808 106.465 206.94 106.905 207.204C107.353 207.46 107.705 207.828 107.961 208.308C108.225 208.78 108.357 209.336 108.357 209.976C108.357 210.616 108.225 211.176 107.961 211.656C107.697 212.128 107.341 212.496 106.893 212.76C106.445 213.016 105.933 213.144 105.357 213.144ZM105.369 212.28C105.713 212.28 106.033 212.196 106.329 212.028C106.625 211.852 106.865 211.592 107.049 211.248C107.233 210.904 107.325 210.48 107.325 209.976C107.325 209.464 107.233 209.04 107.049 208.704C106.873 208.36 106.637 208.104 106.341 207.936C106.053 207.76 105.733 207.672 105.381 207.672C105.045 207.672 104.725 207.76 104.421 207.936C104.125 208.104 103.885 208.36 103.701 208.704C103.525 209.04 103.437 209.464 103.437 209.976C103.437 210.48 103.525 210.904 103.701 211.248C103.885 211.592 104.121 211.852 104.409 212.028C104.705 212.196 105.025 212.28 105.369 212.28ZM114.386 215.784C113.842 215.784 113.358 215.712 112.934 215.568C112.518 215.432 112.194 215.22 111.962 214.932C111.73 214.644 111.614 214.288 111.614 213.864C111.614 213.68 111.65 213.484 111.722 213.276C111.802 213.068 111.934 212.864 112.118 212.664C112.31 212.464 112.578 212.284 112.922 212.124L113.618 212.532C113.194 212.708 112.918 212.908 112.79 213.132C112.662 213.364 112.598 213.576 112.598 213.768C112.598 214.032 112.674 214.252 112.826 214.428C112.978 214.604 113.19 214.736 113.462 214.824C113.734 214.912 114.042 214.956 114.386 214.956C114.73 214.956 115.026 214.908 115.274 214.812C115.522 214.716 115.714 214.58 115.85 214.404C115.986 214.228 116.054 214.02 116.054 213.78C116.054 213.5 115.95 213.264 115.742 213.072C115.534 212.888 115.138 212.78 114.554 212.748C114.082 212.716 113.686 212.672 113.366 212.616C113.046 212.56 112.782 212.496 112.574 212.424C112.366 212.344 112.19 212.256 112.046 212.16C111.91 212.064 111.786 211.964 111.674 211.86V211.584L112.838 210.432L113.714 210.744L112.514 211.824L112.67 211.404C112.758 211.468 112.842 211.528 112.922 211.584C113.002 211.64 113.11 211.688 113.246 211.728C113.382 211.768 113.57 211.804 113.81 211.836C114.058 211.868 114.382 211.9 114.782 211.932C115.334 211.972 115.774 212.068 116.102 212.22C116.438 212.372 116.678 212.576 116.822 212.832C116.974 213.088 117.05 213.392 117.05 213.744C117.05 214.088 116.954 214.412 116.762 214.716C116.578 215.028 116.29 215.284 115.898 215.484C115.506 215.684 115.002 215.784 114.386 215.784ZM114.374 211.104C113.87 211.104 113.438 211.008 113.078 210.816C112.726 210.624 112.458 210.368 112.274 210.048C112.09 209.72 111.998 209.356 111.998 208.956C111.998 208.556 112.09 208.196 112.274 207.876C112.466 207.556 112.738 207.3 113.09 207.108C113.442 206.908 113.87 206.808 114.374 206.808C114.878 206.808 115.306 206.908 115.658 207.108C116.01 207.3 116.278 207.556 116.462 207.876C116.646 208.196 116.738 208.556 116.738 208.956C116.738 209.356 116.646 209.72 116.462 210.048C116.278 210.368 116.01 210.624 115.658 210.816C115.306 211.008 114.878 211.104 114.374 211.104ZM114.374 210.276C114.806 210.276 115.146 210.164 115.394 209.94C115.642 209.716 115.766 209.388 115.766 208.956C115.766 208.532 115.642 208.208 115.394 207.984C115.146 207.76 114.806 207.648 114.374 207.648C113.95 207.648 113.606 207.76 113.342 207.984C113.086 208.208 112.958 208.532 112.958 208.956C112.958 209.388 113.086 209.716 113.342 209.94C113.598 210.164 113.942 210.276 114.374 210.276ZM115.358 207.804L115.058 206.952H117.53V207.708L115.358 207.804ZM120.177 213.144C119.689 213.144 119.281 213.06 118.953 212.892C118.625 212.716 118.381 212.488 118.221 212.208C118.061 211.92 117.981 211.608 117.981 211.272C117.981 210.864 118.085 210.52 118.293 210.24C118.509 209.952 118.809 209.736 119.193 209.592C119.585 209.44 120.045 209.364 120.573 209.364H122.169C122.169 208.988 122.109 208.676 121.989 208.428C121.877 208.172 121.709 207.98 121.485 207.852C121.269 207.724 120.997 207.66 120.669 207.66C120.285 207.66 119.953 207.756 119.673 207.948C119.393 208.14 119.221 208.424 119.157 208.8H118.125C118.173 208.368 118.317 208.008 118.557 207.72C118.805 207.424 119.117 207.2 119.493 207.048C119.869 206.888 120.261 206.808 120.669 206.808C121.229 206.808 121.693 206.912 122.061 207.12C122.437 207.32 122.717 207.604 122.901 207.972C123.085 208.332 123.177 208.76 123.177 209.256V213H122.277L122.217 211.932C122.137 212.1 122.033 212.26 121.905 212.412C121.785 212.556 121.641 212.684 121.473 212.796C121.305 212.9 121.113 212.984 120.897 213.048C120.689 213.112 120.449 213.144 120.177 213.144ZM120.333 212.292C120.613 212.292 120.865 212.236 121.089 212.124C121.321 212.004 121.517 211.844 121.677 211.644C121.837 211.436 121.957 211.208 122.037 210.96C122.125 210.712 122.169 210.452 122.169 210.18V210.144H120.657C120.265 210.144 119.949 210.192 119.709 210.288C119.469 210.376 119.297 210.504 119.193 210.672C119.089 210.832 119.037 211.016 119.037 211.224C119.037 211.44 119.085 211.628 119.181 211.788C119.285 211.948 119.433 212.072 119.625 212.16C119.825 212.248 120.061 212.292 120.333 212.292ZM126.537 213.144C126.033 213.144 125.593 213.06 125.217 212.892C124.849 212.724 124.553 212.492 124.329 212.196C124.113 211.892 123.981 211.536 123.933 211.128H124.965C125.005 211.336 125.089 211.528 125.217 211.704C125.345 211.88 125.517 212.024 125.733 212.136C125.957 212.24 126.229 212.292 126.549 212.292C126.829 212.292 127.061 212.252 127.245 212.172C127.429 212.084 127.565 211.968 127.653 211.824C127.749 211.68 127.797 211.524 127.797 211.356C127.797 211.108 127.737 210.92 127.617 210.792C127.505 210.664 127.337 210.564 127.113 210.492C126.889 210.412 126.617 210.344 126.297 210.288C126.033 210.24 125.773 210.176 125.517 210.096C125.261 210.016 125.033 209.912 124.833 209.784C124.633 209.648 124.473 209.484 124.353 209.292C124.241 209.1 124.185 208.864 124.185 208.584C124.185 208.24 124.273 207.936 124.449 207.672C124.625 207.4 124.877 207.188 125.205 207.036C125.541 206.884 125.929 206.808 126.369 206.808C127.017 206.808 127.541 206.964 127.941 207.276C128.341 207.588 128.577 208.04 128.649 208.632H127.653C127.613 208.328 127.481 208.092 127.257 207.924C127.041 207.748 126.741 207.66 126.357 207.66C125.981 207.66 125.693 207.736 125.493 207.888C125.301 208.04 125.205 208.24 125.205 208.488C125.205 208.648 125.257 208.792 125.361 208.92C125.473 209.04 125.633 209.144 125.841 209.232C126.057 209.32 126.321 209.392 126.633 209.448C127.033 209.52 127.397 209.616 127.725 209.736C128.053 209.856 128.317 210.036 128.517 210.276C128.725 210.508 128.829 210.84 128.829 211.272C128.829 211.648 128.733 211.976 128.541 212.256C128.357 212.536 128.093 212.756 127.749 212.916C127.405 213.068 127.001 213.144 126.537 213.144ZM132.844 213V206.016C132.844 205.632 132.908 205.32 133.036 205.08C133.164 204.832 133.352 204.652 133.6 204.54C133.856 204.42 134.168 204.36 134.536 204.36H135.22V205.224H134.692C134.396 205.224 134.18 205.284 134.044 205.404C133.916 205.524 133.852 205.736 133.852 206.04V213H132.844ZM131.92 207.804V206.952H135.376V207.804H131.92ZM138.523 213.144C137.955 213.144 137.451 213.012 137.011 212.748C136.579 212.484 136.239 212.116 135.991 211.644C135.743 211.164 135.619 210.608 135.619 209.976C135.619 209.336 135.739 208.78 135.979 208.308C136.227 207.836 136.571 207.468 137.011 207.204C137.459 206.94 137.971 206.808 138.547 206.808C139.139 206.808 139.639 206.94 140.047 207.204C140.463 207.468 140.779 207.816 140.995 208.248C141.219 208.672 141.331 209.14 141.331 209.652C141.331 209.732 141.331 209.816 141.331 209.904C141.331 209.992 141.327 210.092 141.319 210.204H136.375V209.424H140.347C140.323 208.872 140.139 208.44 139.795 208.128C139.459 207.816 139.035 207.66 138.523 207.66C138.179 207.66 137.859 207.74 137.563 207.9C137.275 208.052 137.043 208.28 136.867 208.584C136.691 208.88 136.603 209.252 136.603 209.7V210.036C136.603 210.532 136.691 210.948 136.867 211.284C137.051 211.62 137.287 211.872 137.575 212.04C137.871 212.208 138.187 212.292 138.523 212.292C138.947 212.292 139.295 212.2 139.567 212.016C139.847 211.824 140.047 211.568 140.167 211.248H141.163C141.067 211.608 140.899 211.932 140.659 212.22C140.419 212.508 140.119 212.736 139.759 212.904C139.407 213.064 138.995 213.144 138.523 213.144ZM144.864 213.144C144.296 213.144 143.792 213.012 143.352 212.748C142.92 212.484 142.58 212.116 142.332 211.644C142.084 211.164 141.96 210.608 141.96 209.976C141.96 209.336 142.08 208.78 142.32 208.308C142.568 207.836 142.912 207.468 143.352 207.204C143.8 206.94 144.312 206.808 144.888 206.808C145.48 206.808 145.98 206.94 146.388 207.204C146.804 207.468 147.12 207.816 147.336 208.248C147.56 208.672 147.672 209.14 147.672 209.652C147.672 209.732 147.672 209.816 147.672 209.904C147.672 209.992 147.668 210.092 147.66 210.204H142.716V209.424H146.688C146.664 208.872 146.48 208.44 146.136 208.128C145.8 207.816 145.376 207.66 144.864 207.66C144.52 207.66 144.2 207.74 143.904 207.9C143.616 208.052 143.384 208.28 143.208 208.584C143.032 208.88 142.944 209.252 142.944 209.7V210.036C142.944 210.532 143.032 210.948 143.208 211.284C143.392 211.62 143.628 211.872 143.916 212.04C144.212 212.208 144.528 212.292 144.864 212.292C145.288 212.292 145.636 212.2 145.908 212.016C146.188 211.824 146.388 211.568 146.508 211.248H147.504C147.408 211.608 147.24 211.932 147 212.22C146.76 212.508 146.46 212.736 146.1 212.904C145.748 213.064 145.336 213.144 144.864 213.144Z" fill="#A19F9F"/>
<path d="M183.876 198V189.6H189.096V190.584H185.076V193.308H188.436V194.268H185.076V198H183.876ZM191.399 198.144C190.903 198.144 190.491 198.06 190.163 197.892C189.835 197.724 189.591 197.5 189.431 197.22C189.271 196.932 189.191 196.624 189.191 196.296C189.191 195.896 189.295 195.556 189.503 195.276C189.711 194.988 190.007 194.768 190.391 194.616C190.775 194.464 191.235 194.388 191.771 194.388H193.343C193.343 194.036 193.291 193.744 193.187 193.512C193.083 193.28 192.927 193.108 192.719 192.996C192.519 192.876 192.263 192.816 191.951 192.816C191.591 192.816 191.283 192.904 191.027 193.08C190.771 193.248 190.611 193.5 190.547 193.836H189.347C189.395 193.412 189.539 193.052 189.779 192.756C190.027 192.452 190.343 192.22 190.727 192.06C191.111 191.892 191.519 191.808 191.951 191.808C192.519 191.808 192.995 191.908 193.379 192.108C193.763 192.308 194.051 192.592 194.243 192.96C194.443 193.32 194.543 193.752 194.543 194.256V198H193.499L193.403 196.98C193.315 197.14 193.211 197.292 193.091 197.436C192.971 197.58 192.827 197.704 192.659 197.808C192.499 197.912 192.311 197.992 192.095 198.048C191.887 198.112 191.655 198.144 191.399 198.144ZM191.627 197.172C191.883 197.172 192.115 197.12 192.323 197.016C192.531 196.912 192.707 196.772 192.851 196.596C193.003 196.412 193.115 196.208 193.187 195.984C193.267 195.752 193.311 195.516 193.319 195.276V195.24H191.891C191.547 195.24 191.267 195.284 191.051 195.372C190.843 195.452 190.691 195.564 190.595 195.708C190.499 195.852 190.451 196.02 190.451 196.212C190.451 196.412 190.495 196.584 190.583 196.728C190.679 196.864 190.815 196.972 190.991 197.052C191.167 197.132 191.379 197.172 191.627 197.172ZM197.934 198.144C197.422 198.144 196.974 198.06 196.59 197.892C196.206 197.724 195.902 197.488 195.678 197.184C195.454 196.88 195.318 196.524 195.27 196.116H196.494C196.534 196.308 196.61 196.484 196.722 196.644C196.842 196.804 197.002 196.932 197.202 197.028C197.41 197.124 197.654 197.172 197.934 197.172C198.198 197.172 198.414 197.136 198.582 197.064C198.758 196.984 198.886 196.88 198.966 196.752C199.046 196.616 199.086 196.472 199.086 196.32C199.086 196.096 199.03 195.928 198.918 195.816C198.814 195.696 198.654 195.604 198.438 195.54C198.23 195.468 197.978 195.404 197.682 195.348C197.402 195.3 197.13 195.236 196.866 195.156C196.61 195.068 196.378 194.96 196.17 194.832C195.97 194.704 195.81 194.544 195.69 194.352C195.57 194.152 195.51 193.908 195.51 193.62C195.51 193.276 195.602 192.968 195.786 192.696C195.97 192.416 196.23 192.2 196.566 192.048C196.91 191.888 197.314 191.808 197.778 191.808C198.45 191.808 198.99 191.968 199.398 192.288C199.806 192.608 200.046 193.06 200.118 193.644H198.954C198.922 193.372 198.802 193.164 198.594 193.02C198.386 192.868 198.11 192.792 197.766 192.792C197.422 192.792 197.158 192.86 196.974 192.996C196.79 193.132 196.698 193.312 196.698 193.536C196.698 193.68 196.75 193.808 196.854 193.92C196.958 194.032 197.11 194.128 197.31 194.208C197.518 194.28 197.77 194.348 198.066 194.412C198.49 194.492 198.87 194.592 199.206 194.712C199.542 194.832 199.81 195.008 200.01 195.24C200.21 195.472 200.31 195.804 200.31 196.236C200.318 196.612 200.222 196.944 200.022 197.232C199.83 197.52 199.554 197.744 199.194 197.904C198.842 198.064 198.422 198.144 197.934 198.144ZM203.493 198C203.109 198 202.777 197.94 202.497 197.82C202.217 197.7 202.001 197.5 201.849 197.22C201.697 196.94 201.621 196.56 201.621 196.08V192.972H200.577V191.952H201.621L201.765 190.44H202.821V191.952H204.537V192.972H202.821V196.092C202.821 196.436 202.893 196.672 203.037 196.8C203.181 196.92 203.429 196.98 203.781 196.98H204.477V198H203.493ZM209.987 198V190.584H207.503V189.6H213.683V190.584H211.187V198H209.987ZM213.713 198V191.952H214.793L214.901 193.092C215.037 192.82 215.213 192.592 215.429 192.408C215.645 192.216 215.897 192.068 216.185 191.964C216.481 191.86 216.817 191.808 217.193 191.808V193.08H216.761C216.513 193.08 216.277 193.112 216.053 193.176C215.829 193.232 215.629 193.332 215.453 193.476C215.285 193.62 215.153 193.816 215.057 194.064C214.961 194.312 214.913 194.62 214.913 194.988V198H213.713ZM219.819 198.144C219.323 198.144 218.911 198.06 218.583 197.892C218.255 197.724 218.011 197.5 217.851 197.22C217.691 196.932 217.611 196.624 217.611 196.296C217.611 195.896 217.715 195.556 217.923 195.276C218.131 194.988 218.427 194.768 218.811 194.616C219.195 194.464 219.655 194.388 220.191 194.388H221.763C221.763 194.036 221.711 193.744 221.607 193.512C221.503 193.28 221.347 193.108 221.139 192.996C220.939 192.876 220.683 192.816 220.371 192.816C220.011 192.816 219.703 192.904 219.447 193.08C219.191 193.248 219.031 193.5 218.967 193.836H217.767C217.815 193.412 217.959 193.052 218.199 192.756C218.447 192.452 218.763 192.22 219.147 192.06C219.531 191.892 219.939 191.808 220.371 191.808C220.939 191.808 221.415 191.908 221.799 192.108C222.183 192.308 222.471 192.592 222.663 192.96C222.863 193.32 222.963 193.752 222.963 194.256V198H221.919L221.823 196.98C221.735 197.14 221.631 197.292 221.511 197.436C221.391 197.58 221.247 197.704 221.079 197.808C220.919 197.912 220.731 197.992 220.515 198.048C220.307 198.112 220.075 198.144 219.819 198.144ZM220.047 197.172C220.303 197.172 220.535 197.12 220.743 197.016C220.951 196.912 221.127 196.772 221.271 196.596C221.423 196.412 221.535 196.208 221.607 195.984C221.687 195.752 221.731 195.516 221.739 195.276V195.24H220.311C219.967 195.24 219.687 195.284 219.471 195.372C219.263 195.452 219.111 195.564 219.015 195.708C218.919 195.852 218.871 196.02 218.871 196.212C218.871 196.412 218.915 196.584 219.003 196.728C219.099 196.864 219.235 196.972 219.411 197.052C219.587 197.132 219.799 197.172 220.047 197.172ZM224.015 198V191.952H225.095L225.167 192.984C225.359 192.624 225.631 192.34 225.983 192.132C226.335 191.916 226.739 191.808 227.195 191.808C227.675 191.808 228.087 191.904 228.431 192.096C228.775 192.288 229.043 192.58 229.235 192.972C229.427 193.356 229.523 193.84 229.523 194.424V198H228.323V194.544C228.323 193.984 228.199 193.56 227.951 193.272C227.703 192.984 227.343 192.84 226.871 192.84C226.559 192.84 226.279 192.916 226.031 193.068C225.783 193.212 225.583 193.428 225.431 193.716C225.287 194.004 225.215 194.356 225.215 194.772V198H224.015ZM232.918 198.144C232.406 198.144 231.958 198.06 231.574 197.892C231.19 197.724 230.886 197.488 230.662 197.184C230.438 196.88 230.302 196.524 230.254 196.116H231.478C231.518 196.308 231.594 196.484 231.706 196.644C231.826 196.804 231.986 196.932 232.186 197.028C232.394 197.124 232.638 197.172 232.918 197.172C233.182 197.172 233.398 197.136 233.566 197.064C233.742 196.984 233.87 196.88 233.95 196.752C234.03 196.616 234.07 196.472 234.07 196.32C234.07 196.096 234.014 195.928 233.902 195.816C233.798 195.696 233.638 195.604 233.422 195.54C233.214 195.468 232.962 195.404 232.666 195.348C232.386 195.3 232.114 195.236 231.85 195.156C231.594 195.068 231.362 194.96 231.154 194.832C230.954 194.704 230.794 194.544 230.674 194.352C230.554 194.152 230.494 193.908 230.494 193.62C230.494 193.276 230.586 192.968 230.77 192.696C230.954 192.416 231.214 192.2 231.55 192.048C231.894 191.888 232.298 191.808 232.762 191.808C233.434 191.808 233.974 191.968 234.382 192.288C234.79 192.608 235.03 193.06 235.102 193.644H233.938C233.906 193.372 233.786 193.164 233.578 193.02C233.37 192.868 233.094 192.792 232.75 192.792C232.406 192.792 232.142 192.86 231.958 192.996C231.774 193.132 231.682 193.312 231.682 193.536C231.682 193.68 231.734 193.808 231.838 193.92C231.942 194.032 232.094 194.128 232.294 194.208C232.502 194.28 232.754 194.348 233.05 194.412C233.474 194.492 233.854 194.592 234.19 194.712C234.526 194.832 234.794 195.008 234.994 195.24C235.194 195.472 235.294 195.804 235.294 196.236C235.302 196.612 235.206 196.944 235.006 197.232C234.814 197.52 234.538 197.744 234.178 197.904C233.826 198.064 233.406 198.144 232.918 198.144ZM238.231 198.144C237.735 198.144 237.323 198.06 236.995 197.892C236.667 197.724 236.423 197.5 236.263 197.22C236.103 196.932 236.023 196.624 236.023 196.296C236.023 195.896 236.127 195.556 236.335 195.276C236.543 194.988 236.839 194.768 237.223 194.616C237.607 194.464 238.067 194.388 238.603 194.388H240.175C240.175 194.036 240.123 193.744 240.019 193.512C239.915 193.28 239.759 193.108 239.551 192.996C239.351 192.876 239.095 192.816 238.783 192.816C238.423 192.816 238.115 192.904 237.859 193.08C237.603 193.248 237.443 193.5 237.379 193.836H236.179C236.227 193.412 236.371 193.052 236.611 192.756C236.859 192.452 237.175 192.22 237.559 192.06C237.943 191.892 238.351 191.808 238.783 191.808C239.351 191.808 239.827 191.908 240.211 192.108C240.595 192.308 240.883 192.592 241.075 192.96C241.275 193.32 241.375 193.752 241.375 194.256V198H240.331L240.235 196.98C240.147 197.14 240.043 197.292 239.923 197.436C239.803 197.58 239.659 197.704 239.491 197.808C239.331 197.912 239.143 197.992 238.927 198.048C238.719 198.112 238.487 198.144 238.231 198.144ZM238.459 197.172C238.715 197.172 238.947 197.12 239.155 197.016C239.363 196.912 239.539 196.772 239.683 196.596C239.835 196.412 239.947 196.208 240.019 195.984C240.099 195.752 240.143 195.516 240.151 195.276V195.24H238.723C238.379 195.24 238.099 195.284 237.883 195.372C237.675 195.452 237.523 195.564 237.427 195.708C237.331 195.852 237.283 196.02 237.283 196.212C237.283 196.412 237.327 196.584 237.415 196.728C237.511 196.864 237.647 196.972 237.823 197.052C237.999 197.132 238.211 197.172 238.459 197.172ZM245.223 198.144C244.639 198.144 244.119 198.012 243.663 197.748C243.207 197.476 242.847 197.104 242.583 196.632C242.327 196.16 242.199 195.612 242.199 194.988C242.199 194.356 242.327 193.804 242.583 193.332C242.847 192.852 243.207 192.48 243.663 192.216C244.119 191.944 244.639 191.808 245.223 191.808C245.959 191.808 246.575 192 247.071 192.384C247.567 192.768 247.883 193.288 248.019 193.944H246.771C246.691 193.592 246.507 193.32 246.219 193.128C245.939 192.936 245.603 192.84 245.211 192.84C244.891 192.84 244.595 192.924 244.323 193.092C244.051 193.252 243.831 193.492 243.663 193.812C243.503 194.124 243.423 194.512 243.423 194.976C243.423 195.32 243.471 195.628 243.567 195.9C243.663 196.164 243.791 196.388 243.951 196.572C244.119 196.756 244.311 196.896 244.527 196.992C244.743 197.08 244.971 197.124 245.211 197.124C245.475 197.124 245.711 197.084 245.919 197.004C246.135 196.916 246.315 196.788 246.459 196.62C246.611 196.452 246.715 196.252 246.771 196.02H248.019C247.883 196.66 247.567 197.176 247.071 197.568C246.575 197.952 245.959 198.144 245.223 198.144ZM251.31 198C250.926 198 250.594 197.94 250.314 197.82C250.034 197.7 249.818 197.5 249.666 197.22C249.514 196.94 249.438 196.56 249.438 196.08V192.972H248.394V191.952H249.438L249.582 190.44H250.638V191.952H252.354V192.972H250.638V196.092C250.638 196.436 250.71 196.672 250.854 196.8C250.998 196.92 251.246 196.98 251.598 196.98H252.294V198H251.31ZM253.281 198V191.952H254.481V198H253.281ZM253.893 190.812C253.661 190.812 253.469 190.74 253.317 190.596C253.173 190.452 253.101 190.268 253.101 190.044C253.101 189.828 253.173 189.652 253.317 189.516C253.469 189.372 253.661 189.3 253.893 189.3C254.117 189.3 254.305 189.372 254.457 189.516C254.609 189.652 254.685 189.828 254.685 190.044C254.685 190.268 254.609 190.452 254.457 190.596C254.305 190.74 254.117 190.812 253.893 190.812ZM258.477 198.144C257.909 198.144 257.397 198.012 256.941 197.748C256.493 197.484 256.137 197.116 255.873 196.644C255.617 196.164 255.489 195.612 255.489 194.988C255.489 194.348 255.621 193.792 255.885 193.32C256.149 192.84 256.509 192.468 256.965 192.204C257.421 191.94 257.933 191.808 258.501 191.808C259.077 191.808 259.589 191.94 260.037 192.204C260.485 192.468 260.837 192.836 261.093 193.308C261.357 193.78 261.489 194.336 261.489 194.976C261.489 195.616 261.357 196.172 261.093 196.644C260.837 197.116 260.481 197.484 260.025 197.748C259.569 198.012 259.053 198.144 258.477 198.144ZM258.477 197.112C258.805 197.112 259.101 197.032 259.365 196.872C259.637 196.712 259.853 196.476 260.013 196.164C260.181 195.844 260.265 195.448 260.265 194.976C260.265 194.504 260.185 194.112 260.025 193.8C259.865 193.48 259.649 193.24 259.377 193.08C259.113 192.92 258.821 192.84 258.501 192.84C258.181 192.84 257.885 192.92 257.613 193.08C257.341 193.24 257.121 193.48 256.953 193.8C256.793 194.112 256.713 194.504 256.713 194.976C256.713 195.448 256.793 195.844 256.953 196.164C257.121 196.476 257.337 196.712 257.601 196.872C257.873 197.032 258.165 197.112 258.477 197.112ZM262.421 198V191.952H263.501L263.573 192.984C263.765 192.624 264.037 192.34 264.389 192.132C264.741 191.916 265.145 191.808 265.601 191.808C266.081 191.808 266.493 191.904 266.837 192.096C267.181 192.288 267.449 192.58 267.641 192.972C267.833 193.356 267.929 193.84 267.929 194.424V198H266.729V194.544C266.729 193.984 266.605 193.56 266.357 193.272C266.109 192.984 265.749 192.84 265.277 192.84C264.965 192.84 264.685 192.916 264.437 193.068C264.189 193.212 263.989 193.428 263.837 193.716C263.693 194.004 263.621 194.356 263.621 194.772V198H262.421Z" fill="#FFFDFF"/>
<path d="M188.272 218.144C187.768 218.144 187.332 218.048 186.964 217.856C186.604 217.664 186.324 217.388 186.124 217.028C185.932 216.668 185.836 216.24 185.836 215.744H186.856C186.856 216.024 186.9 216.28 186.988 216.512C187.084 216.736 187.232 216.916 187.432 217.052C187.64 217.18 187.916 217.244 188.26 217.244C188.596 217.244 188.86 217.18 189.052 217.052C189.252 216.924 189.392 216.752 189.472 216.536C189.56 216.312 189.604 216.06 189.604 215.78V209.6H190.612V215.78C190.612 216.532 190.404 217.116 189.988 217.532C189.58 217.94 189.008 218.144 188.272 218.144ZM194.068 218.144C193.604 218.144 193.196 218.052 192.844 217.868C192.5 217.684 192.232 217.4 192.04 217.016C191.856 216.632 191.764 216.152 191.764 215.576V211.952H192.772V215.468C192.772 216.068 192.904 216.52 193.168 216.824C193.432 217.128 193.804 217.28 194.284 217.28C194.62 217.28 194.924 217.2 195.196 217.04C195.468 216.872 195.68 216.636 195.832 216.332C195.992 216.02 196.072 215.64 196.072 215.192V211.952H197.08V218H196.168L196.108 216.944C195.924 217.32 195.652 217.616 195.292 217.832C194.932 218.04 194.524 218.144 194.068 218.144ZM200.551 218.144C200.047 218.144 199.607 218.06 199.231 217.892C198.863 217.724 198.567 217.492 198.343 217.196C198.127 216.892 197.995 216.536 197.947 216.128H198.979C199.019 216.336 199.103 216.528 199.231 216.704C199.359 216.88 199.531 217.024 199.747 217.136C199.971 217.24 200.243 217.292 200.563 217.292C200.843 217.292 201.075 217.252 201.259 217.172C201.443 217.084 201.579 216.968 201.667 216.824C201.763 216.68 201.811 216.524 201.811 216.356C201.811 216.108 201.751 215.92 201.631 215.792C201.519 215.664 201.351 215.564 201.127 215.492C200.903 215.412 200.631 215.344 200.311 215.288C200.047 215.24 199.787 215.176 199.531 215.096C199.275 215.016 199.047 214.912 198.847 214.784C198.647 214.648 198.487 214.484 198.367 214.292C198.255 214.1 198.199 213.864 198.199 213.584C198.199 213.24 198.287 212.936 198.463 212.672C198.639 212.4 198.891 212.188 199.219 212.036C199.555 211.884 199.943 211.808 200.383 211.808C201.031 211.808 201.555 211.964 201.955 212.276C202.355 212.588 202.591 213.04 202.663 213.632H201.667C201.627 213.328 201.495 213.092 201.271 212.924C201.055 212.748 200.755 212.66 200.371 212.66C199.995 212.66 199.707 212.736 199.507 212.888C199.315 213.04 199.219 213.24 199.219 213.488C199.219 213.648 199.271 213.792 199.375 213.92C199.487 214.04 199.647 214.144 199.855 214.232C200.071 214.32 200.335 214.392 200.647 214.448C201.047 214.52 201.411 214.616 201.739 214.736C202.067 214.856 202.331 215.036 202.531 215.276C202.739 215.508 202.843 215.84 202.843 216.272C202.843 216.648 202.747 216.976 202.555 217.256C202.371 217.536 202.107 217.756 201.763 217.916C201.419 218.068 201.015 218.144 200.551 218.144ZM205.921 218C205.561 218 205.249 217.944 204.985 217.832C204.721 217.72 204.517 217.532 204.373 217.268C204.237 216.996 204.169 216.632 204.169 216.176V212.804H203.113V211.952H204.169L204.301 210.488H205.177V211.952H206.929V212.804H205.177V216.176C205.177 216.552 205.253 216.808 205.405 216.944C205.557 217.072 205.825 217.136 206.209 217.136H206.857V218H205.921ZM210.567 218V211.952H211.575V218H210.567ZM211.071 210.668C210.871 210.668 210.703 210.604 210.567 210.476C210.439 210.34 210.375 210.172 210.375 209.972C210.375 209.772 210.439 209.612 210.567 209.492C210.703 209.364 210.871 209.3 211.071 209.3C211.263 209.3 211.427 209.364 211.563 209.492C211.699 209.612 211.767 209.772 211.767 209.972C211.767 210.172 211.699 210.34 211.563 210.476C211.427 210.604 211.263 210.668 211.071 210.668ZM212.874 218V211.952H213.786L213.834 213.008C214.026 212.632 214.298 212.34 214.65 212.132C215.01 211.916 215.418 211.808 215.874 211.808C216.346 211.808 216.754 211.904 217.098 212.096C217.442 212.28 217.71 212.564 217.902 212.948C218.094 213.324 218.19 213.804 218.19 214.388V218H217.182V214.496C217.182 213.888 217.046 213.432 216.774 213.128C216.51 212.824 216.134 212.672 215.646 212.672C215.31 212.672 215.01 212.756 214.746 212.924C214.482 213.084 214.27 213.32 214.11 213.632C213.958 213.936 213.882 214.316 213.882 214.772V218H212.874ZM224.272 218.144C223.768 218.144 223.328 218.06 222.952 217.892C222.584 217.724 222.288 217.492 222.064 217.196C221.848 216.892 221.716 216.536 221.668 216.128H222.7C222.74 216.336 222.824 216.528 222.952 216.704C223.08 216.88 223.252 217.024 223.468 217.136C223.692 217.24 223.964 217.292 224.284 217.292C224.564 217.292 224.796 217.252 224.98 217.172C225.164 217.084 225.3 216.968 225.388 216.824C225.484 216.68 225.532 216.524 225.532 216.356C225.532 216.108 225.472 215.92 225.352 215.792C225.24 215.664 225.072 215.564 224.848 215.492C224.624 215.412 224.352 215.344 224.032 215.288C223.768 215.24 223.508 215.176 223.252 215.096C222.996 215.016 222.768 214.912 222.568 214.784C222.368 214.648 222.208 214.484 222.088 214.292C221.976 214.1 221.92 213.864 221.92 213.584C221.92 213.24 222.008 212.936 222.184 212.672C222.36 212.4 222.612 212.188 222.94 212.036C223.276 211.884 223.664 211.808 224.104 211.808C224.752 211.808 225.276 211.964 225.676 212.276C226.076 212.588 226.312 213.04 226.384 213.632H225.388C225.348 213.328 225.216 213.092 224.992 212.924C224.776 212.748 224.476 212.66 224.092 212.66C223.716 212.66 223.428 212.736 223.228 212.888C223.036 213.04 222.94 213.24 222.94 213.488C222.94 213.648 222.992 213.792 223.096 213.92C223.208 214.04 223.368 214.144 223.576 214.232C223.792 214.32 224.056 214.392 224.368 214.448C224.768 214.52 225.132 214.616 225.46 214.736C225.788 214.856 226.052 215.036 226.252 215.276C226.46 215.508 226.564 215.84 226.564 216.272C226.564 216.648 226.468 216.976 226.276 217.256C226.092 217.536 225.828 217.756 225.484 217.916C225.14 218.068 224.736 218.144 224.272 218.144ZM230.188 218.144C229.62 218.144 229.116 218.012 228.676 217.748C228.244 217.484 227.904 217.116 227.656 216.644C227.408 216.164 227.284 215.608 227.284 214.976C227.284 214.336 227.404 213.78 227.644 213.308C227.892 212.836 228.236 212.468 228.676 212.204C229.124 211.94 229.636 211.808 230.212 211.808C230.804 211.808 231.304 211.94 231.712 212.204C232.128 212.468 232.444 212.816 232.66 213.248C232.884 213.672 232.996 214.14 232.996 214.652C232.996 214.732 232.996 214.816 232.996 214.904C232.996 214.992 232.992 215.092 232.984 215.204H228.04V214.424H232.012C231.988 213.872 231.804 213.44 231.46 213.128C231.124 212.816 230.7 212.66 230.188 212.66C229.844 212.66 229.524 212.74 229.228 212.9C228.94 213.052 228.708 213.28 228.532 213.584C228.356 213.88 228.268 214.252 228.268 214.7V215.036C228.268 215.532 228.356 215.948 228.532 216.284C228.716 216.62 228.952 216.872 229.24 217.04C229.536 217.208 229.852 217.292 230.188 217.292C230.612 217.292 230.96 217.2 231.232 217.016C231.512 216.824 231.712 216.568 231.832 216.248H232.828C232.732 216.608 232.564 216.932 232.324 217.22C232.084 217.508 231.784 217.736 231.424 217.904C231.072 218.064 230.66 218.144 230.188 218.144ZM236.6 218.144C236.032 218.144 235.52 218.012 235.064 217.748C234.616 217.484 234.264 217.116 234.008 216.644C233.752 216.164 233.624 215.612 233.624 214.988C233.624 214.348 233.752 213.792 234.008 213.32C234.264 212.848 234.616 212.48 235.064 212.216C235.52 211.944 236.032 211.808 236.6 211.808C237.32 211.808 237.92 211.996 238.4 212.372C238.88 212.74 239.184 213.236 239.312 213.86H238.28C238.2 213.484 238.004 213.192 237.692 212.984C237.38 212.776 237.012 212.672 236.588 212.672C236.244 212.672 235.924 212.76 235.628 212.936C235.332 213.104 235.096 213.36 234.92 213.704C234.744 214.048 234.656 214.472 234.656 214.976C234.656 215.352 234.708 215.688 234.812 215.984C234.916 216.272 235.056 216.512 235.232 216.704C235.408 216.896 235.612 217.044 235.844 217.148C236.084 217.244 236.332 217.292 236.588 217.292C236.876 217.292 237.136 217.248 237.368 217.16C237.6 217.064 237.796 216.924 237.956 216.74C238.116 216.556 238.224 216.34 238.28 216.092H239.312C239.184 216.7 238.876 217.196 238.388 217.58C237.908 217.956 237.312 218.144 236.6 218.144ZM242.963 218.144C242.403 218.144 241.899 218.016 241.451 217.76C241.003 217.496 240.651 217.128 240.395 216.656C240.139 216.176 240.011 215.62 240.011 214.988C240.011 214.34 240.139 213.78 240.395 213.308C240.659 212.828 241.015 212.46 241.463 212.204C241.919 211.94 242.427 211.808 242.987 211.808C243.563 211.808 244.071 211.94 244.511 212.204C244.959 212.46 245.311 212.828 245.567 213.308C245.831 213.78 245.963 214.336 245.963 214.976C245.963 215.616 245.831 216.176 245.567 216.656C245.303 217.128 244.947 217.496 244.499 217.76C244.051 218.016 243.539 218.144 242.963 218.144ZM242.975 217.28C243.319 217.28 243.639 217.196 243.935 217.028C244.231 216.852 244.471 216.592 244.655 216.248C244.839 215.904 244.931 215.48 244.931 214.976C244.931 214.464 244.839 214.04 244.655 213.704C244.479 213.36 244.243 213.104 243.947 212.936C243.659 212.76 243.339 212.672 242.987 212.672C242.651 212.672 242.331 212.76 242.027 212.936C241.731 213.104 241.491 213.36 241.307 213.704C241.131 214.04 241.043 214.464 241.043 214.976C241.043 215.48 241.131 215.904 241.307 216.248C241.491 216.592 241.727 216.852 242.015 217.028C242.311 217.196 242.631 217.28 242.975 217.28ZM246.896 218V211.952H247.808L247.856 213.008C248.048 212.632 248.32 212.34 248.672 212.132C249.032 211.916 249.44 211.808 249.896 211.808C250.368 211.808 250.776 211.904 251.12 212.096C251.464 212.28 251.732 212.564 251.924 212.948C252.116 213.324 252.212 213.804 252.212 214.388V218H251.204V214.496C251.204 213.888 251.068 213.432 250.796 213.128C250.532 212.824 250.156 212.672 249.668 212.672C249.332 212.672 249.032 212.756 248.768 212.924C248.504 213.084 248.292 213.32 248.132 213.632C247.98 213.936 247.904 214.316 247.904 214.772V218H246.896ZM255.971 218.144C255.387 218.144 254.875 218.008 254.435 217.736C253.995 217.456 253.655 217.076 253.415 216.596C253.175 216.116 253.055 215.572 253.055 214.964C253.055 214.356 253.175 213.816 253.415 213.344C253.655 212.864 253.995 212.488 254.435 212.216C254.883 211.944 255.399 211.808 255.983 211.808C256.479 211.808 256.911 211.908 257.279 212.108C257.655 212.308 257.943 212.588 258.143 212.948V209.36H259.151V218H258.239L258.155 217.004C258.027 217.204 257.863 217.392 257.663 217.568C257.463 217.736 257.223 217.876 256.943 217.988C256.663 218.092 256.339 218.144 255.971 218.144ZM256.091 217.268C256.491 217.268 256.843 217.172 257.147 216.98C257.451 216.788 257.687 216.524 257.855 216.188C258.023 215.844 258.107 215.44 258.107 214.976C258.107 214.52 258.023 214.12 257.855 213.776C257.687 213.432 257.451 213.164 257.147 212.972C256.843 212.78 256.491 212.684 256.091 212.684C255.699 212.684 255.351 212.78 255.047 212.972C254.743 213.164 254.507 213.432 254.339 213.776C254.171 214.12 254.087 214.52 254.087 214.976C254.087 215.44 254.171 215.844 254.339 216.188C254.507 216.524 254.743 216.788 255.047 216.98C255.351 217.172 255.699 217.268 256.091 217.268ZM262.63 218.144C262.126 218.144 261.686 218.06 261.31 217.892C260.942 217.724 260.646 217.492 260.422 217.196C260.206 216.892 260.074 216.536 260.026 216.128H261.058C261.098 216.336 261.182 216.528 261.31 216.704C261.438 216.88 261.61 217.024 261.826 217.136C262.05 217.24 262.322 217.292 262.642 217.292C262.922 217.292 263.154 217.252 263.338 217.172C263.522 217.084 263.658 216.968 263.746 216.824C263.842 216.68 263.89 216.524 263.89 216.356C263.89 216.108 263.83 215.92 263.71 215.792C263.598 215.664 263.43 215.564 263.206 215.492C262.982 215.412 262.71 215.344 262.39 215.288C262.126 215.24 261.866 215.176 261.61 215.096C261.354 215.016 261.126 214.912 260.926 214.784C260.726 214.648 260.566 214.484 260.446 214.292C260.334 214.1 260.278 213.864 260.278 213.584C260.278 213.24 260.366 212.936 260.542 212.672C260.718 212.4 260.97 212.188 261.298 212.036C261.634 211.884 262.022 211.808 262.462 211.808C263.11 211.808 263.634 211.964 264.034 212.276C264.434 212.588 264.67 213.04 264.742 213.632H263.746C263.706 213.328 263.574 213.092 263.35 212.924C263.134 212.748 262.834 212.66 262.45 212.66C262.074 212.66 261.786 212.736 261.586 212.888C261.394 213.04 261.298 213.24 261.298 213.488C261.298 213.648 261.35 213.792 261.454 213.92C261.566 214.04 261.726 214.144 261.934 214.232C262.15 214.32 262.414 214.392 262.726 214.448C263.126 214.52 263.49 214.616 263.818 214.736C264.146 214.856 264.41 215.036 264.61 215.276C264.818 215.508 264.922 215.84 264.922 216.272C264.922 216.648 264.826 216.976 264.634 217.256C264.45 217.536 264.186 217.756 263.842 217.916C263.498 218.068 263.094 218.144 262.63 218.144Z" fill="#A19F9F"/>
</g>
<defs>
<clipPath id="clip0_461_9041">
<rect width="299" height="273" fill="white"/>
</clipPath>
</defs>
</svg>
