<svg width="309" height="247" viewBox="0 0 309 247" fill="none" xmlns="http://www.w3.org/2000/svg">
<g filter="url(#filter0_d_911_733)">
<rect x="14" y="14" width="281.25" height="609" rx="13.5" fill="white"/>
<rect x="14.375" y="14.375" width="280.5" height="608.25" rx="13.125" stroke="#D4D4D4" stroke-width="0.75"/>
<g clip-path="url(#clip0_911_733)">
<path d="M41 59C47.65 59 53 53.65 53 47C53 40.35 47.65 35 41 35C34.35 35 29 40.35 29 47C29 53.65 34.35 59 41 59Z" fill="#2775CA"/>
<path d="M44.3001 48.8996C44.3001 47.1496 43.2501 46.5496 41.1501 46.2997C39.6501 46.0996 39.3501 45.6997 39.3501 44.9996C39.3501 44.2995 39.8501 43.8496 40.8501 43.8496C41.7501 43.8496 42.2501 44.1496 42.5001 44.8996C42.5501 45.0496 42.7001 45.1496 42.8501 45.1496H43.65C43.8501 45.1496 44.0001 44.9996 44.0001 44.7997V44.7496C43.8 43.6496 42.9 42.7996 41.7501 42.6997V41.4997C41.7501 41.2996 41.6001 41.1496 41.3501 41.0996H40.6001C40.4001 41.0996 40.2501 41.2496 40.2 41.4997V42.6496C38.7 42.8497 37.7501 43.8496 37.7501 45.0997C37.7501 46.7497 38.7501 47.3996 40.8501 47.6497C42.2501 47.8996 42.7001 48.1996 42.7001 48.9997C42.7001 49.7997 42 50.3497 41.0501 50.3497C39.75 50.3497 39.3 49.7996 39.15 49.0496C39.1001 48.8497 38.9501 48.7496 38.8001 48.7496H37.95C37.7501 48.7496 37.6001 48.8996 37.6001 49.0996V49.1497C37.8 50.3996 38.6001 51.2996 40.2501 51.5497V52.7497C40.2501 52.9496 40.4001 53.0996 40.65 53.1496H41.4C41.6001 53.1496 41.7501 52.9996 41.8001 52.7497V51.5497C43.3001 51.2996 44.3001 50.2496 44.3001 48.8996Z" fill="white"/>
<path d="M38.4495 54.1499C34.5495 52.75 32.5495 48.4 33.9996 44.5499C34.7496 42.4499 36.3996 40.85 38.4495 40.1C38.6496 40 38.7495 39.85 38.7495 39.5999V38.9C38.7495 38.6999 38.6496 38.5499 38.4495 38.5C38.3995 38.5 38.2995 38.5 38.2495 38.5499C33.4995 40.0499 30.8995 45.1 32.3995 49.85C33.2995 52.6499 35.4495 54.8 38.2495 55.7C38.4495 55.7999 38.6496 55.7 38.6995 55.4999C38.7495 55.45 38.7495 55.4 38.7495 55.3V54.5999C38.7495 54.4499 38.5995 54.25 38.4495 54.1499ZM43.7496 38.5499C43.5495 38.45 43.3495 38.5499 43.2996 38.75C43.2495 38.8 43.2495 38.8499 43.2495 38.95V39.65C43.2495 39.85 43.3995 40.0499 43.5495 40.15C47.4495 41.5499 49.4496 45.8999 47.9995 49.75C47.2495 51.85 45.5995 53.45 43.5495 54.2C43.3495 54.2999 43.2495 54.4499 43.2495 54.7V55.4C43.2495 55.6 43.3495 55.75 43.5495 55.7999C43.5996 55.7999 43.6995 55.7999 43.7496 55.75C48.4995 54.25 51.0996 49.1999 49.5996 44.45C48.6996 41.6 46.4995 39.4499 43.7496 38.5499Z" fill="white"/>
</g>
<path d="M64.8168 54.179C63.9389 54.179 63.1548 54.0277 62.4645 53.7251C61.7784 53.4226 61.2351 53.0028 60.8345 52.4659C60.4382 51.9247 60.2251 51.2983 60.1953 50.5866H62.2024C62.228 50.9744 62.358 51.3111 62.5923 51.5966C62.831 51.8778 63.142 52.0952 63.5256 52.2486C63.9091 52.402 64.3352 52.4787 64.804 52.4787C65.3196 52.4787 65.7756 52.3892 66.1719 52.2102C66.5724 52.0312 66.8857 51.782 67.1115 51.4624C67.3374 51.1385 67.4503 50.7656 67.4503 50.3438C67.4503 49.9048 67.3374 49.5192 67.1115 49.1868C66.8899 48.8501 66.5639 48.5859 66.1335 48.3942C65.7074 48.2024 65.1918 48.1065 64.5866 48.1065H63.4808V46.4957H64.5866C65.0724 46.4957 65.4986 46.4084 65.8651 46.2337C66.2358 46.0589 66.5256 45.8161 66.7344 45.505C66.9432 45.1896 67.0476 44.821 67.0476 44.3991C67.0476 43.9943 66.956 43.6428 66.7727 43.3445C66.5938 43.0419 66.3381 42.8054 66.0057 42.6349C65.6776 42.4645 65.2898 42.3793 64.8423 42.3793C64.4162 42.3793 64.0178 42.4581 63.647 42.6158C63.2805 42.7692 62.9822 42.9908 62.7521 43.2805C62.522 43.5661 62.3984 43.9091 62.3814 44.3097H60.4702C60.4915 43.6023 60.7003 42.9801 61.0966 42.4432C61.4972 41.9062 62.0256 41.4865 62.6818 41.1839C63.3381 40.8814 64.0668 40.7301 64.8679 40.7301C65.7074 40.7301 66.4318 40.8942 67.0412 41.2223C67.6548 41.5462 68.1278 41.9787 68.4602 42.5199C68.7969 43.0611 68.9631 43.6534 68.9588 44.2969C68.9631 45.0298 68.7585 45.652 68.3452 46.1634C67.9361 46.6747 67.3906 47.0178 66.7088 47.1925V47.2947C67.5781 47.4268 68.2514 47.772 68.7287 48.3303C69.2102 48.8885 69.4489 49.581 69.4446 50.4077C69.4489 51.1278 69.2486 51.7734 68.8438 52.3445C68.4432 52.9155 67.8956 53.3651 67.201 53.6932C66.5064 54.017 65.7116 54.179 64.8168 54.179ZM75.8538 40.7301C76.4376 40.7344 77.0129 40.8409 77.5796 41.0497C78.1464 41.2585 78.6578 41.5994 79.1137 42.0724C79.5739 42.5455 79.9404 43.1847 80.2132 43.9901C80.4901 44.7912 80.6308 45.7884 80.635 46.9815C80.635 48.1278 80.52 49.1484 80.2899 50.0433C80.0597 50.9339 79.7295 51.6861 79.2991 52.2997C78.873 52.9134 78.3552 53.38 77.7458 53.6996C77.1364 54.0192 76.4504 54.179 75.6876 54.179C74.9078 54.179 74.2153 54.0256 73.6102 53.7188C73.0051 53.4119 72.5129 52.9879 72.1336 52.4467C71.7543 51.9013 71.5178 51.2749 71.4241 50.5675H73.3737C73.5015 51.13 73.7614 51.5859 74.1535 51.9354C74.5498 52.2805 75.0612 52.4531 75.6876 52.4531C76.6464 52.4531 77.3943 52.0355 77.9312 51.2003C78.4681 50.3608 78.7387 49.1889 78.743 47.6847H78.6407C78.4191 48.0511 78.1421 48.3665 77.8097 48.6307C77.4816 48.8949 77.113 49.0994 76.7039 49.2443C76.2948 49.3892 75.858 49.4616 75.3936 49.4616C74.6393 49.4616 73.9532 49.2763 73.3353 48.9055C72.7174 48.5348 72.2252 48.0256 71.8588 47.3778C71.4923 46.7301 71.309 45.9908 71.309 45.1598C71.309 44.3331 71.4965 43.5831 71.8715 42.9098C72.2508 42.2365 72.7792 41.7038 73.4568 41.3118C74.1386 40.9155 74.9376 40.7216 75.8538 40.7301ZM75.8602 42.392C75.3616 42.392 74.912 42.5156 74.5114 42.7628C74.1151 43.0057 73.8019 43.3359 73.5718 43.7536C73.3417 44.1669 73.2266 44.6271 73.2266 45.1342C73.2266 45.6413 73.3374 46.1016 73.559 46.5149C73.7849 46.924 74.0917 47.25 74.4795 47.4929C74.8715 47.7315 75.319 47.8509 75.8218 47.8509C76.1968 47.8509 76.5463 47.7784 76.8701 47.6335C77.194 47.4886 77.4774 47.2884 77.7203 47.0327C77.9632 46.7727 78.1528 46.4787 78.2891 46.1506C78.4255 45.8224 78.4937 45.4773 78.4937 45.1151C78.4937 44.6335 78.3786 44.1861 78.1485 43.7727C77.9227 43.3594 77.6116 43.027 77.2153 42.7756C76.819 42.5199 76.3673 42.392 75.8602 42.392ZM86.9371 40.7301C87.5209 40.7344 88.0962 40.8409 88.663 41.0497C89.2298 41.2585 89.7411 41.5994 90.1971 42.0724C90.6573 42.5455 91.0238 43.1847 91.2965 43.9901C91.5735 44.7912 91.7141 45.7884 91.7184 46.9815C91.7184 48.1278 91.6033 49.1484 91.3732 50.0433C91.1431 50.9339 90.8128 51.6861 90.3825 52.2997C89.9563 52.9134 89.4386 53.38 88.8292 53.6996C88.2198 54.0192 87.5337 54.179 86.7709 54.179C85.9911 54.179 85.2986 54.0256 84.6935 53.7188C84.0884 53.4119 83.5962 52.9879 83.217 52.4467C82.8377 51.9013 82.6012 51.2749 82.5075 50.5675H84.457C84.5849 51.13 84.8448 51.5859 85.2369 51.9354C85.6332 52.2805 86.1445 52.4531 86.7709 52.4531C87.7298 52.4531 88.4776 52.0355 89.0146 51.2003C89.5515 50.3608 89.8221 49.1889 89.8263 47.6847H89.7241C89.5025 48.0511 89.2255 48.3665 88.8931 48.6307C88.565 48.8949 88.1964 49.0994 87.7873 49.2443C87.3782 49.3892 86.9414 49.4616 86.4769 49.4616C85.7226 49.4616 85.0366 49.2763 84.4187 48.9055C83.8008 48.5348 83.3086 48.0256 82.9421 47.3778C82.5756 46.7301 82.3924 45.9908 82.3924 45.1598C82.3924 44.3331 82.5799 43.5831 82.9549 42.9098C83.3342 42.2365 83.8626 41.7038 84.5401 41.3118C85.2219 40.9155 86.0209 40.7216 86.9371 40.7301ZM86.9435 42.392C86.445 42.392 85.9954 42.5156 85.5948 42.7628C85.1985 43.0057 84.8853 43.3359 84.6552 43.7536C84.4251 44.1669 84.31 44.6271 84.31 45.1342C84.31 45.6413 84.4208 46.1016 84.6424 46.5149C84.8682 46.924 85.1751 47.25 85.5628 47.4929C85.9549 47.7315 86.4023 47.8509 86.9052 47.8509C87.2802 47.8509 87.6296 47.7784 87.9535 47.6335C88.2773 47.4886 88.5607 47.2884 88.8036 47.0327C89.0465 46.7727 89.2361 46.4787 89.3725 46.1506C89.5089 45.8224 89.5771 45.4773 89.5771 45.1151C89.5771 44.6335 89.462 44.1861 89.2319 43.7727C89.006 43.3594 88.695 43.027 88.2986 42.7756C87.9023 42.5199 87.4506 42.392 86.9435 42.392ZM94.4777 54.1214C94.1283 54.1214 93.8278 53.9979 93.5764 53.7507C93.325 53.4993 93.1993 53.1967 93.1993 52.843C93.1993 52.4936 93.325 52.1953 93.5764 51.9482C93.8278 51.6967 94.1283 51.571 94.4777 51.571C94.8271 51.571 95.1276 51.6967 95.379 51.9482C95.6304 52.1953 95.7561 52.4936 95.7561 52.843C95.7561 53.0774 95.6965 53.2926 95.5771 53.4886C95.4621 53.6804 95.3087 53.8338 95.1169 53.9489C94.9251 54.0639 94.7121 54.1214 94.4777 54.1214ZM102.125 40.7301C102.709 40.7344 103.284 40.8409 103.851 41.0497C104.418 41.2585 104.929 41.5994 105.385 42.0724C105.846 42.5455 106.212 43.1847 106.485 43.9901C106.762 44.7912 106.902 45.7884 106.907 46.9815C106.907 48.1278 106.792 49.1484 106.561 50.0433C106.331 50.9339 106.001 51.6861 105.571 52.2997C105.145 52.9134 104.627 53.38 104.017 53.6996C103.408 54.0192 102.722 54.179 101.959 54.179C101.179 54.179 100.487 54.0256 99.8817 53.7188C99.2766 53.4119 98.7844 52.9879 98.4052 52.4467C98.0259 51.9013 97.7894 51.2749 97.6957 50.5675H99.6452C99.7731 51.13 100.033 51.5859 100.425 51.9354C100.821 52.2805 101.333 52.4531 101.959 52.4531C102.918 52.4531 103.666 52.0355 104.203 51.2003C104.74 50.3608 105.01 49.1889 105.015 47.6847H104.912C104.691 48.0511 104.414 48.3665 104.081 48.6307C103.753 48.8949 103.385 49.0994 102.975 49.2443C102.566 49.3892 102.13 49.4616 101.665 49.4616C100.911 49.4616 100.225 49.2763 99.6069 48.9055C98.989 48.5348 98.4968 48.0256 98.1303 47.3778C97.7638 46.7301 97.5806 45.9908 97.5806 45.1598C97.5806 44.3331 97.7681 43.5831 98.1431 42.9098C98.5224 42.2365 99.0508 41.7038 99.7283 41.3118C100.41 40.9155 101.209 40.7216 102.125 40.7301ZM102.132 42.392C101.633 42.392 101.184 42.5156 100.783 42.7628C100.387 43.0057 100.073 43.3359 99.8434 43.7536C99.6133 44.1669 99.4982 44.6271 99.4982 45.1342C99.4982 45.6413 99.609 46.1016 99.8306 46.5149C100.056 46.924 100.363 47.25 100.751 47.4929C101.143 47.7315 101.591 47.8509 102.093 47.8509C102.468 47.8509 102.818 47.7784 103.142 47.6335C103.466 47.4886 103.749 47.2884 103.992 47.0327C104.235 46.7727 104.424 46.4787 104.561 46.1506C104.697 45.8224 104.765 45.4773 104.765 45.1151C104.765 44.6335 104.65 44.1861 104.42 43.7727C104.194 43.3594 103.883 43.027 103.487 42.7756C103.091 42.5199 102.639 42.392 102.132 42.392ZM113.209 40.7301C113.793 40.7344 114.368 40.8409 114.935 41.0497C115.501 41.2585 116.013 41.5994 116.469 42.0724C116.929 42.5455 117.295 43.1847 117.568 43.9901C117.845 44.7912 117.986 45.7884 117.99 46.9815C117.99 48.1278 117.875 49.1484 117.645 50.0433C117.415 50.9339 117.084 51.6861 116.654 52.2997C116.228 52.9134 115.71 53.38 115.101 53.6996C114.491 54.0192 113.805 54.179 113.043 54.179C112.263 54.179 111.57 54.0256 110.965 53.7188C110.36 53.4119 109.868 52.9879 109.489 52.4467C109.109 51.9013 108.873 51.2749 108.779 50.5675H110.729C110.856 51.13 111.116 51.5859 111.508 51.9354C111.905 52.2805 112.416 52.4531 113.043 52.4531C114.001 52.4531 114.749 52.0355 115.286 51.2003C115.823 50.3608 116.094 49.1889 116.098 47.6847H115.996C115.774 48.0511 115.497 48.3665 115.165 48.6307C114.837 48.8949 114.468 49.0994 114.059 49.2443C113.65 49.3892 113.213 49.4616 112.748 49.4616C111.994 49.4616 111.308 49.2763 110.69 48.9055C110.072 48.5348 109.58 48.0256 109.214 47.3778C108.847 46.7301 108.664 45.9908 108.664 45.1598C108.664 44.3331 108.851 43.5831 109.226 42.9098C109.606 42.2365 110.134 41.7038 110.812 41.3118C111.494 40.9155 112.293 40.7216 113.209 40.7301ZM113.215 42.392C112.717 42.392 112.267 42.5156 111.866 42.7628C111.47 43.0057 111.157 43.3359 110.927 43.7536C110.697 44.1669 110.582 44.6271 110.582 45.1342C110.582 45.6413 110.692 46.1016 110.914 46.5149C111.14 46.924 111.447 47.25 111.834 47.4929C112.226 47.7315 112.674 47.8509 113.177 47.8509C113.552 47.8509 113.901 47.7784 114.225 47.6335C114.549 47.4886 114.832 47.2884 115.075 47.0327C115.318 46.7727 115.508 46.4787 115.644 46.1506C115.78 45.8224 115.849 45.4773 115.849 45.1151C115.849 44.6335 115.734 44.1861 115.503 43.7727C115.278 43.3594 114.967 43.027 114.57 42.7756C114.174 42.5199 113.722 42.392 113.215 42.392ZM132.94 40.9091H134.922V49.5192C134.922 50.4354 134.706 51.2472 134.276 51.9545C133.846 52.6577 133.24 53.2116 132.461 53.6165C131.681 54.017 130.767 54.2173 129.718 54.2173C128.674 54.2173 127.762 54.017 126.983 53.6165C126.203 53.2116 125.598 52.6577 125.167 51.9545C124.737 51.2472 124.522 50.4354 124.522 49.5192V40.9091H126.497V49.3594C126.497 49.9517 126.627 50.478 126.887 50.9382C127.151 51.3984 127.524 51.7607 128.005 52.0249C128.487 52.2848 129.058 52.4148 129.718 52.4148C130.383 52.4148 130.956 52.2848 131.438 52.0249C131.924 51.7607 132.294 51.3984 132.55 50.9382C132.81 50.478 132.94 49.9517 132.94 49.3594V40.9091ZM144.573 44.348C144.505 43.7429 144.224 43.2741 143.729 42.9418C143.235 42.6051 142.613 42.4368 141.863 42.4368C141.326 42.4368 140.861 42.522 140.469 42.6925C140.077 42.8587 139.773 43.0888 139.555 43.3828C139.342 43.6726 139.236 44.0028 139.236 44.3736C139.236 44.6847 139.308 44.9531 139.453 45.179C139.602 45.4048 139.796 45.5945 140.035 45.7479C140.278 45.897 140.538 46.0227 140.815 46.125C141.092 46.223 141.358 46.304 141.614 46.3679L142.892 46.7003C143.31 46.8026 143.738 46.9411 144.177 47.1158C144.616 47.2905 145.023 47.5206 145.398 47.8061C145.773 48.0916 146.075 48.4453 146.305 48.8672C146.54 49.2891 146.657 49.794 146.657 50.3821C146.657 51.1236 146.465 51.782 146.082 52.3572C145.702 52.9325 145.151 53.3864 144.426 53.7188C143.706 54.0511 142.834 54.2173 141.812 54.2173C140.832 54.2173 139.984 54.0618 139.268 53.7507C138.552 53.4396 137.991 52.9986 137.587 52.4276C137.182 51.8523 136.958 51.1705 136.915 50.3821H138.897C138.935 50.8551 139.089 51.2493 139.357 51.5646C139.63 51.8757 139.977 52.108 140.399 52.2614C140.825 52.4105 141.292 52.4851 141.799 52.4851C142.357 52.4851 142.854 52.3977 143.288 52.223C143.727 52.044 144.072 51.7969 144.324 51.4815C144.575 51.1619 144.701 50.7891 144.701 50.3629C144.701 49.9751 144.59 49.6577 144.369 49.4105C144.151 49.1634 143.855 48.9588 143.48 48.7969C143.109 48.6349 142.69 48.4922 142.221 48.3686L140.674 47.9467C139.626 47.6612 138.795 47.2415 138.181 46.6875C137.572 46.1335 137.267 45.4006 137.267 44.4886C137.267 43.7344 137.472 43.076 137.881 42.5135C138.29 41.951 138.844 41.5142 139.543 41.2031C140.241 40.8878 141.03 40.7301 141.908 40.7301C142.794 40.7301 143.576 40.8857 144.254 41.1967C144.935 41.5078 145.472 41.9361 145.864 42.4815C146.256 43.0227 146.461 43.6449 146.478 44.348H144.573ZM152.895 54H148.657V40.9091H153.029C154.312 40.9091 155.414 41.1712 156.334 41.6953C157.254 42.2152 157.96 42.9631 158.45 43.9389C158.944 44.9105 159.191 46.076 159.191 47.4354C159.191 48.799 158.942 49.9709 158.443 50.951C157.949 51.9311 157.233 52.6854 156.296 53.2138C155.358 53.7379 154.225 54 152.895 54ZM150.632 52.2741H152.786C153.784 52.2741 154.612 52.0866 155.273 51.7116C155.933 51.3324 156.428 50.7848 156.756 50.0689C157.084 49.3487 157.248 48.4709 157.248 47.4354C157.248 46.4084 157.084 45.5369 156.756 44.821C156.432 44.1051 155.948 43.5618 155.305 43.1911C154.661 42.8203 153.862 42.6349 152.908 42.6349H150.632V52.2741ZM172.16 45.1662H170.166C170.089 44.7401 169.947 44.3651 169.738 44.0412C169.529 43.7173 169.273 43.4425 168.971 43.2166C168.668 42.9908 168.329 42.8203 167.954 42.7053C167.584 42.5902 167.189 42.5327 166.772 42.5327C166.018 42.5327 165.342 42.7223 164.746 43.1016C164.153 43.4808 163.684 44.0369 163.339 44.7699C162.998 45.5028 162.828 46.3977 162.828 47.4545C162.828 48.5199 162.998 49.419 163.339 50.152C163.684 50.8849 164.155 51.4389 164.752 51.8139C165.349 52.1889 166.02 52.3764 166.765 52.3764C167.179 52.3764 167.571 52.321 167.942 52.2102C168.317 52.0952 168.655 51.9268 168.958 51.7053C169.26 51.4837 169.516 51.2131 169.725 50.8935C169.938 50.5696 170.085 50.1989 170.166 49.7812L172.16 49.7876C172.054 50.4311 171.847 51.0234 171.54 51.5646C171.238 52.1016 170.848 52.5661 170.371 52.9581C169.898 53.3459 169.356 53.6463 168.747 53.8594C168.138 54.0724 167.473 54.179 166.753 54.179C165.619 54.179 164.609 53.9105 163.723 53.3736C162.836 52.8324 162.138 52.0589 161.626 51.0533C161.119 50.0476 160.866 48.848 160.866 47.4545C160.866 46.0568 161.121 44.8572 161.633 43.8558C162.144 42.8501 162.843 42.0788 163.729 41.5419C164.616 41.0007 165.623 40.7301 166.753 40.7301C167.447 40.7301 168.095 40.8303 168.696 41.0305C169.301 41.2266 169.844 41.5163 170.326 41.8999C170.807 42.2791 171.206 42.7436 171.521 43.2933C171.836 43.8388 172.05 44.4631 172.16 45.1662Z" fill="#1A1A1A"/>
<path d="M29.7926 76V69.4545H30.5852V72.3693H34.0753V69.4545H34.8679V76H34.0753V73.0724H30.5852V76H29.7926ZM37.7971 76.1151C37.486 76.1151 37.2037 76.0565 36.9501 75.9393C36.6966 75.82 36.4952 75.6484 36.3461 75.4247C36.1969 75.1989 36.1223 74.9261 36.1223 74.6065C36.1223 74.3253 36.1777 74.0973 36.2885 73.9226C36.3993 73.7457 36.5474 73.6072 36.7328 73.5071C36.9181 73.407 37.1227 73.3324 37.3464 73.2834C37.5723 73.2322 37.7992 73.1918 38.0272 73.1619C38.3255 73.1236 38.5673 73.0948 38.7527 73.0756C38.9402 73.0543 39.0765 73.0192 39.1618 72.9702C39.2491 72.9212 39.2928 72.8359 39.2928 72.7145V72.6889C39.2928 72.3736 39.2065 72.1286 39.0339 71.9538C38.8635 71.7791 38.6046 71.6918 38.2573 71.6918C37.8972 71.6918 37.6149 71.7706 37.4103 71.9283C37.2058 72.0859 37.062 72.2543 36.9789 72.4332L36.263 72.1776C36.3908 71.8793 36.5613 71.647 36.7743 71.4808C36.9895 71.3125 37.2239 71.1953 37.4775 71.1293C37.7331 71.0611 37.9846 71.027 38.2317 71.027C38.3894 71.027 38.5705 71.0462 38.775 71.0845C38.9817 71.1207 39.1809 71.1964 39.3727 71.3114C39.5666 71.4265 39.7275 71.6001 39.8553 71.8324C39.9831 72.0646 40.0471 72.3757 40.0471 72.7656V76H39.2928V75.3352H39.2544C39.2033 75.4418 39.1181 75.5558 38.9988 75.6772C38.8794 75.7987 38.7207 75.902 38.5225 75.9872C38.3244 76.0724 38.0826 76.1151 37.7971 76.1151ZM37.9121 75.4375C38.2104 75.4375 38.4618 75.3789 38.6664 75.2617C38.873 75.1445 39.0286 74.9933 39.133 74.8079C39.2395 74.6225 39.2928 74.4276 39.2928 74.223V73.5327C39.2608 73.571 39.1905 73.6062 39.0819 73.6381C38.9753 73.668 38.8517 73.6946 38.7111 73.718C38.5726 73.7393 38.4373 73.7585 38.3052 73.7756C38.1752 73.7905 38.0698 73.8033 37.9888 73.8139C37.7928 73.8395 37.6096 73.881 37.4391 73.9386C37.2708 73.994 37.1344 74.0781 37.03 74.1911C36.9277 74.3018 36.8766 74.4531 36.8766 74.6449C36.8766 74.907 36.9735 75.1051 37.1674 75.2393C37.3635 75.3714 37.6117 75.4375 37.9121 75.4375ZM45.2622 71.0909L43.4468 76H42.6798L40.8644 71.0909H41.6826L43.0377 75.0028H43.0889L44.444 71.0909H45.2622ZM48.1402 76.1023C47.6672 76.1023 47.2591 75.9979 46.9161 75.7891C46.5752 75.5781 46.3121 75.2841 46.1267 74.907C45.9434 74.5277 45.8518 74.0866 45.8518 73.5838C45.8518 73.081 45.9434 72.6378 46.1267 72.2543C46.3121 71.8686 46.5699 71.5682 46.9001 71.353C47.2325 71.1357 47.6203 71.027 48.0635 71.027C48.3192 71.027 48.5716 71.0696 48.8209 71.1548C49.0702 71.2401 49.2971 71.3786 49.5017 71.5703C49.7062 71.7599 49.8692 72.0114 49.9907 72.3246C50.1121 72.6378 50.1729 73.0234 50.1729 73.4815V73.8011H46.3888V73.1491H49.4058C49.4058 72.8722 49.3504 72.625 49.2396 72.4077C49.1309 72.1903 48.9754 72.0188 48.773 71.8931C48.5727 71.7674 48.3362 71.7045 48.0635 71.7045C47.7631 71.7045 47.5031 71.7791 47.2836 71.9283C47.0663 72.0753 46.8991 72.267 46.7819 72.5036C46.6647 72.7401 46.6061 72.9936 46.6061 73.2642V73.6989C46.6061 74.0696 46.67 74.3839 46.7979 74.6417C46.9278 74.8974 47.1079 75.0923 47.338 75.2266C47.5681 75.3587 47.8355 75.4247 48.1402 75.4247C48.3383 75.4247 48.5173 75.397 48.6771 75.3416C48.839 75.2841 48.9786 75.1989 49.0958 75.0859C49.213 74.9709 49.3035 74.8281 49.3675 74.6577L50.0961 74.8622C50.0194 75.1094 49.8905 75.3267 49.7094 75.5142C49.5283 75.6996 49.3046 75.8445 49.0383 75.9489C48.7719 76.0511 48.4726 76.1023 48.1402 76.1023ZM54.3373 77.8409C54.2094 77.8409 54.0954 77.8303 53.9953 77.8089C53.8952 77.7898 53.8259 77.7706 53.7876 77.7514L53.9793 77.0866C54.1626 77.1335 54.3245 77.1506 54.4651 77.1378C54.6057 77.125 54.7304 77.0621 54.839 76.9492C54.9498 76.8384 55.051 76.6584 55.1427 76.4091L55.2833 76.0256L53.468 71.0909H54.2861L55.6412 75.0028H55.6924L57.0475 71.0909H57.8657L55.7819 76.7159C55.6881 76.9695 55.572 77.1793 55.4335 77.3455C55.295 77.5138 55.1341 77.6385 54.9509 77.7195C54.7698 77.8004 54.5653 77.8409 54.3373 77.8409ZM60.6798 76.1023C60.2366 76.1023 59.8477 75.9968 59.5132 75.7859C59.1808 75.5749 58.9209 75.2798 58.7334 74.9006C58.548 74.5213 58.4553 74.0781 58.4553 73.571C58.4553 73.0597 58.548 72.6133 58.7334 72.2319C58.9209 71.8505 59.1808 71.5543 59.5132 71.3434C59.8477 71.1325 60.2366 71.027 60.6798 71.027C61.123 71.027 61.5107 71.1325 61.8431 71.3434C62.1776 71.5543 62.4376 71.8505 62.623 72.2319C62.8105 72.6133 62.9042 73.0597 62.9042 73.571C62.9042 74.0781 62.8105 74.5213 62.623 74.9006C62.4376 75.2798 62.1776 75.5749 61.8431 75.7859C61.5107 75.9968 61.123 76.1023 60.6798 76.1023ZM60.6798 75.4247C61.0164 75.4247 61.2934 75.3384 61.5107 75.1658C61.7281 74.9933 61.8889 74.7663 61.9933 74.4851C62.0977 74.2038 62.1499 73.8991 62.1499 73.571C62.1499 73.2429 62.0977 72.9371 61.9933 72.6538C61.8889 72.3704 61.7281 72.1413 61.5107 71.9666C61.2934 71.7919 61.0164 71.7045 60.6798 71.7045C60.3431 71.7045 60.0661 71.7919 59.8488 71.9666C59.6315 72.1413 59.4706 72.3704 59.3662 72.6538C59.2618 72.9371 59.2096 73.2429 59.2096 73.571C59.2096 73.8991 59.2618 74.2038 59.3662 74.4851C59.4706 74.7663 59.6315 74.9933 59.8488 75.1658C60.0661 75.3384 60.3431 75.4247 60.6798 75.4247ZM67.1493 73.9929V71.0909H67.9036V76H67.1493V75.169H67.0982C66.9831 75.4183 66.8042 75.6303 66.5613 75.805C66.3184 75.9776 66.0115 76.0639 65.6408 76.0639C65.334 76.0639 65.0613 75.9968 64.8226 75.8626C64.584 75.7262 64.3965 75.5217 64.2601 75.2489C64.1238 74.9741 64.0556 74.6278 64.0556 74.2102V71.0909H64.8098V74.1591C64.8098 74.517 64.91 74.8026 65.1103 75.0156C65.3127 75.2287 65.5705 75.3352 65.8837 75.3352C66.0712 75.3352 66.2619 75.2873 66.4558 75.1914C66.6518 75.0955 66.8159 74.9485 66.948 74.7504C67.0822 74.5522 67.1493 74.2997 67.1493 73.9929ZM73.2609 76.1151C72.9498 76.1151 72.6675 76.0565 72.414 75.9393C72.1604 75.82 71.9591 75.6484 71.8099 75.4247C71.6608 75.1989 71.5862 74.9261 71.5862 74.6065C71.5862 74.3253 71.6416 74.0973 71.7524 73.9226C71.8632 73.7457 72.0113 73.6072 72.1966 73.5071C72.382 73.407 72.5866 73.3324 72.8103 73.2834C73.0361 73.2322 73.2631 73.1918 73.491 73.1619C73.7893 73.1236 74.0312 73.0948 74.2165 73.0756C74.404 73.0543 74.5404 73.0192 74.6256 72.9702C74.713 72.9212 74.7567 72.8359 74.7567 72.7145V72.6889C74.7567 72.3736 74.6704 72.1286 74.4978 71.9538C74.3273 71.7791 74.0684 71.6918 73.7211 71.6918C73.3611 71.6918 73.0787 71.7706 72.8742 71.9283C72.6697 72.0859 72.5258 72.2543 72.4427 72.4332L71.7268 72.1776C71.8547 71.8793 72.0251 71.647 72.2382 71.4808C72.4534 71.3125 72.6878 71.1953 72.9413 71.1293C73.197 71.0611 73.4484 71.027 73.6956 71.027C73.8532 71.027 74.0344 71.0462 74.2389 71.0845C74.4456 71.1207 74.6448 71.1964 74.8366 71.3114C75.0305 71.4265 75.1913 71.6001 75.3192 71.8324C75.447 72.0646 75.5109 72.3757 75.5109 72.7656V76H74.7567V75.3352H74.7183C74.6672 75.4418 74.5819 75.5558 74.4626 75.6772C74.3433 75.7987 74.1846 75.902 73.9864 75.9872C73.7883 76.0724 73.5464 76.1151 73.2609 76.1151ZM73.376 75.4375C73.6743 75.4375 73.9257 75.3789 74.1302 75.2617C74.3369 75.1445 74.4925 74.9933 74.5969 74.8079C74.7034 74.6225 74.7567 74.4276 74.7567 74.223V73.5327C74.7247 73.571 74.6544 73.6062 74.5457 73.6381C74.4392 73.668 74.3156 73.6946 74.175 73.718C74.0365 73.7393 73.9012 73.7585 73.7691 73.7756C73.6391 73.7905 73.5336 73.8033 73.4527 73.8139C73.2567 73.8395 73.0734 73.881 72.903 73.9386C72.7346 73.994 72.5983 74.0781 72.4939 74.1911C72.3916 74.3018 72.3405 74.4531 72.3405 74.6449C72.3405 74.907 72.4374 75.1051 72.6313 75.2393C72.8273 75.3714 73.0756 75.4375 73.376 75.4375ZM77.6419 69.4545V76H76.8876V69.4545H77.6419ZM79.0233 76V71.0909H79.752V71.8324H79.8032C79.8927 71.5895 80.0546 71.3924 80.289 71.2411C80.5233 71.0898 80.7876 71.0142 81.0816 71.0142C81.137 71.0142 81.2062 71.0153 81.2893 71.0174C81.3724 71.0195 81.4353 71.0227 81.4779 71.027V71.794C81.4523 71.7876 81.3937 71.7781 81.3021 71.7653C81.2126 71.7504 81.1178 71.7429 81.0177 71.7429C80.779 71.7429 80.566 71.793 80.3785 71.8931C80.1931 71.9911 80.0461 72.1275 79.9374 72.3022C79.8309 72.4748 79.7776 72.6719 79.7776 72.8935V76H79.0233ZM84.2808 76.1023C83.8078 76.1023 83.3998 75.9979 83.0567 75.7891C82.7158 75.5781 82.4527 75.2841 82.2673 74.907C82.0841 74.5277 81.9925 74.0866 81.9925 73.5838C81.9925 73.081 82.0841 72.6378 82.2673 72.2543C82.4527 71.8686 82.7105 71.5682 83.0407 71.353C83.3731 71.1357 83.7609 71.027 84.2041 71.027C84.4598 71.027 84.7123 71.0696 84.9616 71.1548C85.2108 71.2401 85.4378 71.3786 85.6423 71.5703C85.8469 71.7599 86.0099 72.0114 86.1313 72.3246C86.2528 72.6378 86.3135 73.0234 86.3135 73.4815V73.8011H82.5294V73.1491H85.5464C85.5464 72.8722 85.491 72.625 85.3802 72.4077C85.2716 72.1903 85.116 72.0188 84.9136 71.8931C84.7133 71.7674 84.4768 71.7045 84.2041 71.7045C83.9037 71.7045 83.6437 71.7791 83.4243 71.9283C83.2069 72.0753 83.0397 72.267 82.9225 72.5036C82.8053 72.7401 82.7467 72.9936 82.7467 73.2642V73.6989C82.7467 74.0696 82.8106 74.3839 82.9385 74.6417C83.0684 74.8974 83.2485 75.0923 83.4786 75.2266C83.7087 75.3587 83.9761 75.4247 84.2808 75.4247C84.479 75.4247 84.6579 75.397 84.8177 75.3416C84.9797 75.2841 85.1192 75.1989 85.2364 75.0859C85.3536 74.9709 85.4442 74.8281 85.5081 74.6577L86.2368 74.8622C86.1601 75.1094 86.0312 75.3267 85.8501 75.5142C85.6689 75.6996 85.4452 75.8445 85.1789 75.9489C84.9126 76.0511 84.6132 76.1023 84.2808 76.1023ZM89.3145 76.1023C88.9055 76.1023 88.5443 75.9989 88.2311 75.7923C87.9179 75.5835 87.6729 75.2894 87.496 74.9102C87.3192 74.5288 87.2307 74.0781 87.2307 73.5582C87.2307 73.0426 87.3192 72.5952 87.496 72.2159C87.6729 71.8366 87.9189 71.5437 88.2343 71.337C88.5496 71.1303 88.914 71.027 89.3273 71.027C89.6469 71.027 89.8994 71.0803 90.0848 71.1868C90.2723 71.2912 90.415 71.4105 90.5131 71.5447C90.6132 71.6768 90.691 71.7855 90.7464 71.8707H90.8103V69.4545H91.5645V76H90.8358V75.2457H90.7464C90.691 75.3352 90.6121 75.4482 90.5099 75.5845C90.4076 75.7187 90.2616 75.8391 90.072 75.9457C89.8824 76.0501 89.6299 76.1023 89.3145 76.1023ZM89.4168 75.4247C89.7194 75.4247 89.9751 75.3459 90.1839 75.1882C90.3927 75.0284 90.5514 74.8079 90.6601 74.5266C90.7687 74.2433 90.8231 73.9162 90.8231 73.5455C90.8231 73.179 90.7698 72.8583 90.6633 72.5835C90.5567 72.3065 90.3991 72.0913 90.1903 71.9379C89.9814 71.7823 89.7236 71.7045 89.4168 71.7045C89.0972 71.7045 88.8309 71.7866 88.6178 71.9506C88.4069 72.1126 88.2481 72.3331 88.1416 72.6122C88.0372 72.8892 87.985 73.2003 87.985 73.5455C87.985 73.8949 88.0383 74.2124 88.1448 74.4979C88.2535 74.7812 88.4133 75.0071 88.6242 75.1754C88.8373 75.3416 89.1015 75.4247 89.4168 75.4247ZM93.5365 77.8409C93.4086 77.8409 93.2947 77.8303 93.1945 77.8089C93.0944 77.7898 93.0251 77.7706 92.9868 77.7514L93.1785 77.0866C93.3618 77.1335 93.5237 77.1506 93.6643 77.1378C93.805 77.125 93.9296 77.0621 94.0383 76.9492C94.1491 76.8384 94.2503 76.6584 94.3419 76.4091L94.4825 76.0256L92.6672 71.0909H93.4854L94.8405 75.0028H94.8916L96.2467 71.0909H97.0649L94.9811 76.7159C94.8873 76.9695 94.7712 77.1793 94.6327 77.3455C94.4942 77.5138 94.3334 77.6385 94.1501 77.7195C93.969 77.8004 93.7645 77.8409 93.5365 77.8409ZM100.592 77.8409V71.0909H101.32V71.8707H101.41C101.465 71.7855 101.542 71.6768 101.64 71.5447C101.74 71.4105 101.883 71.2912 102.068 71.1868C102.256 71.0803 102.509 71.027 102.829 71.027C103.242 71.027 103.607 71.1303 103.922 71.337C104.237 71.5437 104.483 71.8366 104.66 72.2159C104.837 72.5952 104.926 73.0426 104.926 73.5582C104.926 74.0781 104.837 74.5288 104.66 74.9102C104.483 75.2894 104.238 75.5835 103.925 75.7923C103.612 75.9989 103.251 76.1023 102.842 76.1023C102.526 76.1023 102.274 76.0501 102.084 75.9457C101.895 75.8391 101.749 75.7187 101.646 75.5845C101.544 75.4482 101.465 75.3352 101.41 75.2457H101.346V77.8409H100.592ZM101.333 73.5455C101.333 73.9162 101.388 74.2433 101.496 74.5266C101.605 74.8079 101.764 75.0284 101.972 75.1882C102.181 75.3459 102.437 75.4247 102.739 75.4247C103.055 75.4247 103.318 75.3416 103.529 75.1754C103.742 75.0071 103.902 74.7812 104.008 74.4979C104.117 74.2124 104.171 73.8949 104.171 73.5455C104.171 73.2003 104.118 72.8892 104.011 72.6122C103.907 72.3331 103.748 72.1126 103.535 71.9506C103.324 71.7866 103.059 71.7045 102.739 71.7045C102.433 71.7045 102.175 71.7823 101.966 71.9379C101.757 72.0913 101.6 72.3065 101.493 72.5835C101.386 72.8583 101.333 73.179 101.333 73.5455ZM107.521 76.1151C107.21 76.1151 106.927 76.0565 106.674 75.9393C106.42 75.82 106.219 75.6484 106.07 75.4247C105.921 75.1989 105.846 74.9261 105.846 74.6065C105.846 74.3253 105.901 74.0973 106.012 73.9226C106.123 73.7457 106.271 73.6072 106.456 73.5071C106.642 73.407 106.846 73.3324 107.07 73.2834C107.296 73.2322 107.523 73.1918 107.751 73.1619C108.049 73.1236 108.291 73.0948 108.476 73.0756C108.664 73.0543 108.8 73.0192 108.885 72.9702C108.973 72.9212 109.016 72.8359 109.016 72.7145V72.6889C109.016 72.3736 108.93 72.1286 108.758 71.9538C108.587 71.7791 108.328 71.6918 107.981 71.6918C107.621 71.6918 107.339 71.7706 107.134 71.9283C106.929 72.0859 106.786 72.2543 106.703 72.4332L105.987 72.1776C106.114 71.8793 106.285 71.647 106.498 71.4808C106.713 71.3125 106.948 71.1953 107.201 71.1293C107.457 71.0611 107.708 71.027 107.955 71.027C108.113 71.027 108.294 71.0462 108.499 71.0845C108.705 71.1207 108.905 71.1964 109.096 71.3114C109.29 71.4265 109.451 71.6001 109.579 71.8324C109.707 72.0646 109.771 72.3757 109.771 72.7656V76H109.016V75.3352H108.978C108.927 75.4418 108.842 75.5558 108.722 75.6772C108.603 75.7987 108.444 75.902 108.246 75.9872C108.048 76.0724 107.806 76.1151 107.521 76.1151ZM107.636 75.4375C107.934 75.4375 108.185 75.3789 108.39 75.2617C108.597 75.1445 108.752 74.9933 108.857 74.8079C108.963 74.6225 109.016 74.4276 109.016 74.223V73.5327C108.984 73.571 108.914 73.6062 108.805 73.6381C108.699 73.668 108.575 73.6946 108.435 73.718C108.296 73.7393 108.161 73.7585 108.029 73.7756C107.899 73.7905 107.793 73.8033 107.712 73.8139C107.516 73.8395 107.333 73.881 107.163 73.9386C106.994 73.994 106.858 74.0781 106.754 74.1911C106.651 74.3018 106.6 74.4531 106.6 74.6449C106.6 74.907 106.697 75.1051 106.891 75.2393C107.087 75.3714 107.335 75.4375 107.636 75.4375ZM111.147 76V71.0909H111.902V76H111.147ZM111.531 70.2727C111.384 70.2727 111.257 70.2227 111.151 70.1225C111.046 70.0224 110.994 69.902 110.994 69.7614C110.994 69.6207 111.046 69.5004 111.151 69.4002C111.257 69.3001 111.384 69.25 111.531 69.25C111.678 69.25 111.804 69.3001 111.908 69.4002C112.015 69.5004 112.068 69.6207 112.068 69.7614C112.068 69.902 112.015 70.0224 111.908 70.1225C111.804 70.2227 111.678 70.2727 111.531 70.2727ZM115.137 76.1023C114.728 76.1023 114.367 75.9989 114.053 75.7923C113.74 75.5835 113.495 75.2894 113.318 74.9102C113.141 74.5288 113.053 74.0781 113.053 73.5582C113.053 73.0426 113.141 72.5952 113.318 72.2159C113.495 71.8366 113.741 71.5437 114.057 71.337C114.372 71.1303 114.736 71.027 115.15 71.027C115.469 71.027 115.722 71.0803 115.907 71.1868C116.095 71.2912 116.237 71.4105 116.335 71.5447C116.435 71.6768 116.513 71.7855 116.569 71.8707H116.633V69.4545H117.387V76H116.658V75.2457H116.569C116.513 75.3352 116.434 75.4482 116.332 75.5845C116.23 75.7187 116.084 75.8391 115.894 75.9457C115.705 76.0501 115.452 76.1023 115.137 76.1023ZM115.239 75.4247C115.542 75.4247 115.797 75.3459 116.006 75.1882C116.215 75.0284 116.374 74.8079 116.482 74.5266C116.591 74.2433 116.645 73.9162 116.645 73.5455C116.645 73.179 116.592 72.8583 116.486 72.5835C116.379 72.3065 116.221 72.0913 116.013 71.9379C115.804 71.7823 115.546 71.7045 115.239 71.7045C114.919 71.7045 114.653 71.7866 114.44 71.9506C114.229 72.1126 114.07 72.3331 113.964 72.6122C113.859 72.8892 113.807 73.2003 113.807 73.5455C113.807 73.8949 113.861 74.2124 113.967 74.4979C114.076 74.7812 114.236 75.0071 114.446 75.1754C114.66 75.3416 114.924 75.4247 115.239 75.4247ZM119.857 74.1591V74.1207C119.862 73.7138 119.904 73.3899 119.985 73.1491C120.066 72.9084 120.181 72.7134 120.33 72.5643C120.479 72.4151 120.658 72.2777 120.867 72.152C120.993 72.0753 121.106 71.9847 121.206 71.8803C121.306 71.7738 121.385 71.6513 121.443 71.5128C121.502 71.3743 121.532 71.2209 121.532 71.0526C121.532 70.8437 121.483 70.6626 121.385 70.5092C121.287 70.3558 121.156 70.2376 120.992 70.1545C120.828 70.0714 120.646 70.0298 120.445 70.0298C120.271 70.0298 120.102 70.0661 119.94 70.1385C119.778 70.2109 119.643 70.3249 119.535 70.4805C119.426 70.636 119.363 70.8395 119.346 71.0909H118.541C118.558 70.7287 118.651 70.4187 118.822 70.1609C118.994 69.9031 119.221 69.706 119.503 69.5696C119.786 69.4332 120.1 69.3651 120.445 69.3651C120.82 69.3651 121.146 69.4396 121.423 69.5888C121.703 69.7379 121.918 69.9425 122.069 70.2024C122.222 70.4624 122.299 70.7585 122.299 71.0909C122.299 71.3253 122.263 71.5373 122.19 71.7269C122.12 71.9165 122.018 72.0859 121.884 72.2351C121.752 72.3842 121.592 72.5163 121.404 72.6314C121.217 72.7486 121.066 72.8722 120.954 73.0021C120.841 73.13 120.759 73.2823 120.707 73.4592C120.656 73.636 120.629 73.8565 120.624 74.1207V74.1591H119.857ZM120.266 76.0511C120.109 76.0511 119.973 75.9947 119.861 75.8817C119.748 75.7688 119.691 75.6335 119.691 75.4759C119.691 75.3182 119.748 75.1829 119.861 75.07C119.973 74.957 120.109 74.9006 120.266 74.9006C120.424 74.9006 120.559 74.957 120.672 75.07C120.785 75.1829 120.842 75.3182 120.842 75.4759C120.842 75.5803 120.815 75.6761 120.762 75.7635C120.711 75.8509 120.641 75.9212 120.554 75.9744C120.469 76.0256 120.373 76.0511 120.266 76.0511Z" fill="#666666"/>
<path d="M35.0597 88H34.267C34.2202 87.772 34.1381 87.5717 34.021 87.3991C33.9059 87.2266 33.7653 87.0817 33.5991 86.9645C33.435 86.8452 33.2528 86.7557 33.0526 86.696C32.8523 86.6364 32.6435 86.6065 32.4261 86.6065C32.0298 86.6065 31.6708 86.7067 31.3491 86.907C31.0295 87.1072 30.7749 87.4023 30.5852 87.7923C30.3977 88.1822 30.304 88.6605 30.304 89.2273C30.304 89.794 30.3977 90.2724 30.5852 90.6623C30.7749 91.0522 31.0295 91.3473 31.3491 91.5476C31.6708 91.7479 32.0298 91.848 32.4261 91.848C32.6435 91.848 32.8523 91.8182 33.0526 91.7585C33.2528 91.6989 33.435 91.6104 33.5991 91.4933C33.7653 91.3739 33.9059 91.228 34.021 91.0554C34.1381 90.8807 34.2202 90.6804 34.267 90.4545H35.0597C35 90.7891 34.8913 91.0884 34.7337 91.3526C34.576 91.6168 34.38 91.8416 34.1456 92.027C33.9112 92.2102 33.6481 92.3498 33.3562 92.4457C33.0664 92.5415 32.7564 92.5895 32.4261 92.5895C31.8679 92.5895 31.3714 92.4531 30.9368 92.1804C30.5021 91.9077 30.1602 91.5199 29.9109 91.017C29.6616 90.5142 29.5369 89.9176 29.5369 89.2273C29.5369 88.5369 29.6616 87.9403 29.9109 87.4375C30.1602 86.9347 30.5021 86.5469 30.9368 86.2741C31.3714 86.0014 31.8679 85.8651 32.4261 85.8651C32.7564 85.8651 33.0664 85.913 33.3562 86.0089C33.6481 86.1048 33.9112 86.2454 34.1456 86.4308C34.38 86.614 34.576 86.8377 34.7337 87.1019C34.8913 87.364 35 87.6634 35.0597 88ZM36.9925 85.9545V92.5H36.2382V85.9545H36.9925ZM38.3739 92.5V87.5909H39.1282V92.5H38.3739ZM38.7575 86.7727C38.6104 86.7727 38.4837 86.7227 38.3771 86.6225C38.2727 86.5224 38.2205 86.402 38.2205 86.2614C38.2205 86.1207 38.2727 86.0004 38.3771 85.9002C38.4837 85.8001 38.6104 85.75 38.7575 85.75C38.9045 85.75 39.0302 85.8001 39.1346 85.9002C39.2411 86.0004 39.2944 86.1207 39.2944 86.2614C39.2944 86.402 39.2411 86.5224 39.1346 86.6225C39.0302 86.7227 38.9045 86.7727 38.7575 86.7727ZM42.504 92.6023C42.0438 92.6023 41.6475 92.4936 41.3151 92.2763C40.9827 92.0589 40.727 91.7596 40.548 91.3782C40.3691 90.9968 40.2796 90.5611 40.2796 90.071C40.2796 89.5724 40.3712 89.1325 40.5544 88.7511C40.7398 88.3675 40.9976 88.0682 41.3279 87.853C41.6602 87.6357 42.048 87.527 42.4912 87.527C42.8364 87.527 43.1475 87.5909 43.4244 87.7188C43.7014 87.8466 43.9284 88.0256 44.1052 88.2557C44.282 88.4858 44.3918 88.7543 44.4344 89.0611H43.6801C43.6226 88.8374 43.4948 88.6392 43.2966 88.4666C43.1006 88.2919 42.8364 88.2045 42.504 88.2045C42.21 88.2045 41.9521 88.2812 41.7306 88.4347C41.5111 88.5859 41.3396 88.8001 41.216 89.0771C41.0945 89.3519 41.0338 89.6747 41.0338 90.0455C41.0338 90.4247 41.0935 90.755 41.2128 91.0362C41.3343 91.3175 41.5047 91.5359 41.7242 91.6914C41.9458 91.8469 42.2057 91.9247 42.504 91.9247C42.7 91.9247 42.8779 91.8906 43.0377 91.8224C43.1975 91.7543 43.3328 91.6562 43.4436 91.5284C43.5544 91.4006 43.6333 91.2472 43.6801 91.0682H44.4344C44.3918 91.358 44.2863 91.619 44.118 91.8512C43.9518 92.0813 43.7313 92.2646 43.4564 92.4009C43.1837 92.5352 42.8662 92.6023 42.504 92.6023ZM46.2401 90.7102L46.2274 89.777H46.3808L48.5285 87.5909H49.4617L47.1734 89.9048H47.1095L46.2401 90.7102ZM45.537 92.5V85.9545H46.2913V92.5H45.537ZM48.6563 92.5L46.7387 90.071L47.2757 89.5469L49.6151 92.5H48.6563ZM53.718 89.5469V92.5H52.9638V85.9545H53.718V88.358H53.782C53.897 88.1044 54.0696 87.9031 54.2997 87.7539C54.532 87.6026 54.8409 87.527 55.2266 87.527C55.5611 87.527 55.854 87.5941 56.1055 87.7283C56.3569 87.8604 56.5518 88.0639 56.6903 88.3388C56.831 88.6115 56.9013 88.9588 56.9013 89.3807V92.5H56.147V89.4318C56.147 89.0419 56.0458 88.7404 55.8434 88.5273C55.6431 88.3121 55.3651 88.2045 55.0092 88.2045C54.7621 88.2045 54.5405 88.2567 54.3445 88.3612C54.1506 88.4656 53.9972 88.6179 53.8842 88.8182C53.7734 89.0185 53.718 89.2614 53.718 89.5469ZM60.3394 92.6023C59.8664 92.6023 59.4584 92.4979 59.1153 92.2891C58.7744 92.0781 58.5113 91.7841 58.3259 91.407C58.1427 91.0277 58.051 90.5866 58.051 90.0838C58.051 89.581 58.1427 89.1378 58.3259 88.7543C58.5113 88.3686 58.7691 88.0682 59.0993 87.853C59.4317 87.6357 59.8195 87.527 60.2627 87.527C60.5184 87.527 60.7709 87.5696 61.0202 87.6548C61.2694 87.7401 61.4964 87.8786 61.7009 88.0703C61.9055 88.2599 62.0684 88.5114 62.1899 88.8246C62.3113 89.1378 62.3721 89.5234 62.3721 89.9815V90.3011H58.588V89.6491H61.605C61.605 89.3722 61.5496 89.125 61.4388 88.9077C61.3302 88.6903 61.1746 88.5188 60.9722 88.3931C60.7719 88.2674 60.5354 88.2045 60.2627 88.2045C59.9623 88.2045 59.7023 88.2791 59.4829 88.4283C59.2655 88.5753 59.0983 88.767 58.9811 89.0036C58.8639 89.2401 58.8053 89.4936 58.8053 89.7642V90.1989C58.8053 90.5696 58.8692 90.8839 58.9971 91.1417C59.127 91.3974 59.3071 91.5923 59.5372 91.7266C59.7673 91.8587 60.0347 91.9247 60.3394 91.9247C60.5376 91.9247 60.7165 91.897 60.8763 91.8416C61.0383 91.7841 61.1778 91.6989 61.295 91.5859C61.4122 91.4709 61.5028 91.3281 61.5667 91.1577L62.2954 91.3622C62.2187 91.6094 62.0898 91.8267 61.9086 92.0142C61.7275 92.1996 61.5038 92.3445 61.2375 92.4489C60.9711 92.5511 60.6718 92.6023 60.3394 92.6023ZM63.5194 92.5V87.5909H64.2481V88.3324H64.2993C64.3888 88.0895 64.5507 87.8924 64.7851 87.7411C65.0194 87.5898 65.2836 87.5142 65.5777 87.5142C65.6331 87.5142 65.7023 87.5153 65.7854 87.5174C65.8685 87.5195 65.9314 87.5227 65.974 87.527V88.294C65.9484 88.2876 65.8898 88.2781 65.7982 88.2653C65.7087 88.2504 65.6139 88.2429 65.5138 88.2429C65.2751 88.2429 65.0621 88.293 64.8746 88.3931C64.6892 88.4911 64.5422 88.6275 64.4335 88.8022C64.327 88.9748 64.2737 89.1719 64.2737 89.3935V92.5H63.5194ZM68.7769 92.6023C68.3039 92.6023 67.8959 92.4979 67.5528 92.2891C67.2119 92.0781 66.9488 91.7841 66.7634 91.407C66.5802 91.0277 66.4885 90.5866 66.4885 90.0838C66.4885 89.581 66.5802 89.1378 66.7634 88.7543C66.9488 88.3686 67.2066 88.0682 67.5368 87.853C67.8692 87.6357 68.257 87.527 68.7002 87.527C68.9559 87.527 69.2084 87.5696 69.4577 87.6548C69.7069 87.7401 69.9339 87.8786 70.1384 88.0703C70.343 88.2599 70.5059 88.5114 70.6274 88.8246C70.7488 89.1378 70.8096 89.5234 70.8096 89.9815V90.3011H67.0255V89.6491H70.0425C70.0425 89.3722 69.9871 89.125 69.8763 88.9077C69.7677 88.6903 69.6121 88.5188 69.4097 88.3931C69.2094 88.2674 68.9729 88.2045 68.7002 88.2045C68.3998 88.2045 68.1398 88.2791 67.9204 88.4283C67.703 88.5753 67.5358 88.767 67.4186 89.0036C67.3014 89.2401 67.2428 89.4936 67.2428 89.7642V90.1989C67.2428 90.5696 67.3067 90.8839 67.4346 91.1417C67.5645 91.3974 67.7446 91.5923 67.9747 91.7266C68.2048 91.8587 68.4722 91.9247 68.7769 91.9247C68.9751 91.9247 69.154 91.897 69.3138 91.8416C69.4758 91.7841 69.6153 91.6989 69.7325 91.5859C69.8497 91.4709 69.9403 91.3281 70.0042 91.1577L70.7329 91.3622C70.6562 91.6094 70.5273 91.8267 70.3461 92.0142C70.165 92.1996 69.9413 92.3445 69.675 92.4489C69.4086 92.5511 69.1093 92.6023 68.7769 92.6023Z" fill="#4166FB"/>
<path d="M76.6231 87.5909V88.2301H74.0791V87.5909H76.6231ZM74.8206 86.4148H75.5748V91.0938C75.5748 91.3068 75.6057 91.4666 75.6675 91.5732C75.7314 91.6776 75.8124 91.7479 75.9104 91.7841C76.0106 91.8182 76.116 91.8352 76.2268 91.8352C76.3099 91.8352 76.3781 91.831 76.4314 91.8224C76.4846 91.8118 76.5273 91.8033 76.5592 91.7969L76.7126 92.4744C76.6615 92.4936 76.5901 92.5128 76.4985 92.532C76.4069 92.5533 76.2907 92.5639 76.1501 92.5639C75.9371 92.5639 75.7282 92.5181 75.5237 92.4265C75.3213 92.3349 75.153 92.1953 75.0187 92.0078C74.8866 91.8203 74.8206 91.5838 74.8206 91.2983V86.4148ZM79.6993 92.6023C79.2561 92.6023 78.8673 92.4968 78.5328 92.2859C78.2004 92.0749 77.9404 91.7798 77.7529 91.4006C77.5676 91.0213 77.4749 90.5781 77.4749 90.071C77.4749 89.5597 77.5676 89.1133 77.7529 88.7319C77.9404 88.3505 78.2004 88.0543 78.5328 87.8434C78.8673 87.6325 79.2561 87.527 79.6993 87.527C80.1425 87.527 80.5303 87.6325 80.8627 87.8434C81.1972 88.0543 81.4571 88.3505 81.6425 88.7319C81.83 89.1133 81.9237 89.5597 81.9237 90.071C81.9237 90.5781 81.83 91.0213 81.6425 91.4006C81.4571 91.7798 81.1972 92.0749 80.8627 92.2859C80.5303 92.4968 80.1425 92.6023 79.6993 92.6023ZM79.6993 91.9247C80.036 91.9247 80.3129 91.8384 80.5303 91.6658C80.7476 91.4933 80.9085 91.2663 81.0129 90.9851C81.1173 90.7038 81.1695 90.3991 81.1695 90.071C81.1695 89.7429 81.1173 89.4371 81.0129 89.1538C80.9085 88.8704 80.7476 88.6413 80.5303 88.4666C80.3129 88.2919 80.036 88.2045 79.6993 88.2045C79.3627 88.2045 79.0857 88.2919 78.8683 88.4666C78.651 88.6413 78.4901 88.8704 78.3857 89.1538C78.2813 89.4371 78.2291 89.7429 78.2291 90.071C78.2291 90.3991 78.2813 90.7038 78.3857 90.9851C78.4901 91.2663 78.651 91.4933 78.8683 91.6658C79.0857 91.8384 79.3627 91.9247 79.6993 91.9247ZM89.0836 88.6903L88.4061 88.8821C88.3635 88.7692 88.3006 88.6594 88.2175 88.5529C88.1365 88.4442 88.0257 88.3548 87.8851 88.2844C87.7445 88.2141 87.5645 88.179 87.345 88.179C87.0446 88.179 86.7942 88.2482 86.5939 88.3867C86.3958 88.5231 86.2967 88.6967 86.2967 88.9077C86.2967 89.0952 86.3649 89.2433 86.5012 89.3519C86.6376 89.4606 86.8507 89.5511 87.1404 89.6236L87.8691 89.8026C88.3081 89.9091 88.6351 90.0721 88.8503 90.2915C89.0655 90.5089 89.1731 90.7891 89.1731 91.1321C89.1731 91.4134 89.0922 91.6648 88.9302 91.8864C88.7704 92.108 88.5467 92.2827 88.2591 92.4105C87.9714 92.5384 87.6369 92.6023 87.2555 92.6023C86.7548 92.6023 86.3404 92.4936 86.0123 92.2763C85.6841 92.0589 85.4764 91.7415 85.389 91.3239L86.1049 91.1449C86.1731 91.4091 86.302 91.6072 86.4917 91.7393C86.6834 91.8714 86.9338 91.9375 87.2427 91.9375C87.5943 91.9375 87.8734 91.8629 88.0801 91.7138C88.2889 91.5625 88.3933 91.3814 88.3933 91.1705C88.3933 91 88.3336 90.8572 88.2143 90.7422C88.095 90.625 87.9118 90.5376 87.6646 90.4801L86.8464 90.2884C86.3968 90.1818 86.0666 90.0167 85.8556 89.793C85.6468 89.5671 85.5424 89.2848 85.5424 88.946C85.5424 88.669 85.6202 88.424 85.7757 88.2109C85.9334 87.9979 86.1475 87.8306 86.4181 87.7092C86.6909 87.5877 86.9998 87.527 87.345 87.527C87.8308 87.527 88.2122 87.6335 88.4892 87.8466C88.7683 88.0597 88.9664 88.3409 89.0836 88.6903ZM93.4023 90.4929V87.5909H94.1565V92.5H93.4023V91.669H93.3511C93.2361 91.9183 93.0571 92.1303 92.8142 92.305C92.5713 92.4776 92.2645 92.5639 91.8937 92.5639C91.5869 92.5639 91.3142 92.4968 91.0756 92.3626C90.8369 92.2262 90.6494 92.0217 90.5131 91.7489C90.3767 91.4741 90.3085 91.1278 90.3085 90.7102V87.5909H91.0628V90.6591C91.0628 91.017 91.1629 91.3026 91.3632 91.5156C91.5656 91.7287 91.8234 91.8352 92.1366 91.8352C92.3241 91.8352 92.5148 91.7873 92.7087 91.6914C92.9047 91.5955 93.0688 91.4485 93.2009 91.2504C93.3351 91.0522 93.4023 90.7997 93.4023 90.4929ZM95.6403 92.5V85.9545H96.3945V88.3707H96.4585C96.5138 88.2855 96.5906 88.1768 96.6886 88.0447C96.7887 87.9105 96.9315 87.7912 97.1168 87.6868C97.3043 87.5803 97.5579 87.527 97.8775 87.527C98.2908 87.527 98.6552 87.6303 98.9705 87.837C99.2859 88.0437 99.532 88.3366 99.7088 88.7159C99.8857 89.0952 99.9741 89.5426 99.9741 90.0582C99.9741 90.5781 99.8857 91.0288 99.7088 91.4102C99.532 91.7894 99.2869 92.0835 98.9737 92.2923C98.6605 92.4989 98.2994 92.6023 97.8903 92.6023C97.5749 92.6023 97.3224 92.5501 97.1328 92.4457C96.9432 92.3391 96.7972 92.2187 96.695 92.0845C96.5927 91.9482 96.5138 91.8352 96.4585 91.7457H96.369V92.5H95.6403ZM96.3817 90.0455C96.3817 90.4162 96.4361 90.7433 96.5447 91.0266C96.6534 91.3079 96.8121 91.5284 97.021 91.6882C97.2298 91.8459 97.4854 91.9247 97.788 91.9247C98.1033 91.9247 98.3665 91.8416 98.5774 91.6754C98.7905 91.5071 98.9503 91.2812 99.0568 90.9979C99.1655 90.7124 99.2198 90.3949 99.2198 90.0455C99.2198 89.7003 99.1665 89.3892 99.06 89.1122C98.9556 88.8331 98.7969 88.6126 98.5838 88.4506C98.3729 88.2866 98.1076 88.2045 97.788 88.2045C97.4812 88.2045 97.2234 88.2823 97.0146 88.4379C96.8058 88.5913 96.6481 88.8065 96.5415 89.0835C96.435 89.3583 96.3817 89.679 96.3817 90.0455ZM101.128 92.5V87.5909H101.857V88.358H101.92C102.023 88.0959 102.188 87.8924 102.416 87.7475C102.644 87.6005 102.918 87.527 103.237 87.527C103.561 87.527 103.831 87.6005 104.046 87.7475C104.263 87.8924 104.433 88.0959 104.554 88.358H104.605C104.731 88.1044 104.919 87.9031 105.171 87.7539C105.422 87.6026 105.724 87.527 106.075 87.527C106.514 87.527 106.873 87.6644 107.152 87.9393C107.431 88.212 107.571 88.6371 107.571 89.2145V92.5H106.817V89.2145C106.817 88.8523 106.718 88.5934 106.52 88.4379C106.321 88.2823 106.088 88.2045 105.82 88.2045C105.474 88.2045 105.207 88.3089 105.017 88.5178C104.828 88.7244 104.733 88.9865 104.733 89.304V92.5H103.966V89.1378C103.966 88.8587 103.875 88.6339 103.694 88.4634C103.513 88.2908 103.28 88.2045 102.994 88.2045C102.798 88.2045 102.615 88.2567 102.445 88.3612C102.276 88.4656 102.14 88.6104 102.036 88.7958C101.933 88.979 101.882 89.1911 101.882 89.4318V92.5H101.128ZM108.95 92.5V87.5909H109.704V92.5H108.95ZM109.334 86.7727C109.187 86.7727 109.06 86.7227 108.953 86.6225C108.849 86.5224 108.797 86.402 108.797 86.2614C108.797 86.1207 108.849 86.0004 108.953 85.9002C109.06 85.8001 109.187 85.75 109.334 85.75C109.481 85.75 109.606 85.8001 109.711 85.9002C109.817 86.0004 109.871 86.1207 109.871 86.2614C109.871 86.402 109.817 86.5224 109.711 86.6225C109.606 86.7227 109.481 86.7727 109.334 86.7727ZM113.221 87.5909V88.2301H110.677V87.5909H113.221ZM111.418 86.4148H112.172V91.0938C112.172 91.3068 112.203 91.4666 112.265 91.5732C112.329 91.6776 112.41 91.7479 112.508 91.7841C112.608 91.8182 112.714 91.8352 112.824 91.8352C112.908 91.8352 112.976 91.831 113.029 91.8224C113.082 91.8118 113.125 91.8033 113.157 91.7969L113.31 92.4744C113.259 92.4936 113.188 92.5128 113.096 92.532C113.005 92.5533 112.888 92.5639 112.748 92.5639C112.535 92.5639 112.326 92.5181 112.121 92.4265C111.919 92.3349 111.751 92.1953 111.616 92.0078C111.484 91.8203 111.418 91.5838 111.418 91.2983V86.4148ZM117.372 94.3409C117.245 94.3409 117.131 94.3303 117.03 94.3089C116.93 94.2898 116.861 94.2706 116.823 94.2514L117.014 93.5866C117.198 93.6335 117.36 93.6506 117.5 93.6378C117.641 93.625 117.766 93.5621 117.874 93.4492C117.985 93.3384 118.086 93.1584 118.178 92.9091L118.318 92.5256L116.503 87.5909H117.321L118.676 91.5028H118.728L120.083 87.5909H120.901L118.817 93.2159C118.723 93.4695 118.607 93.6793 118.469 93.8455C118.33 94.0138 118.169 94.1385 117.986 94.2195C117.805 94.3004 117.6 94.3409 117.372 94.3409ZM123.715 92.6023C123.272 92.6023 122.883 92.4968 122.548 92.2859C122.216 92.0749 121.956 91.7798 121.769 91.4006C121.583 91.0213 121.491 90.5781 121.491 90.071C121.491 89.5597 121.583 89.1133 121.769 88.7319C121.956 88.3505 122.216 88.0543 122.548 87.8434C122.883 87.6325 123.272 87.527 123.715 87.527C124.158 87.527 124.546 87.6325 124.878 87.8434C125.213 88.0543 125.473 88.3505 125.658 88.7319C125.846 89.1133 125.939 89.5597 125.939 90.071C125.939 90.5781 125.846 91.0213 125.658 91.4006C125.473 91.7798 125.213 92.0749 124.878 92.2859C124.546 92.4968 124.158 92.6023 123.715 92.6023ZM123.715 91.9247C124.052 91.9247 124.329 91.8384 124.546 91.6658C124.763 91.4933 124.924 91.2663 125.028 90.9851C125.133 90.7038 125.185 90.3991 125.185 90.071C125.185 89.7429 125.133 89.4371 125.028 89.1538C124.924 88.8704 124.763 88.6413 124.546 88.4666C124.329 88.2919 124.052 88.2045 123.715 88.2045C123.378 88.2045 123.101 88.2919 122.884 88.4666C122.667 88.6413 122.506 88.8704 122.401 89.1538C122.297 89.4371 122.245 89.7429 122.245 90.071C122.245 90.3991 122.297 90.7038 122.401 90.9851C122.506 91.2663 122.667 91.4933 122.884 91.6658C123.101 91.8384 123.378 91.9247 123.715 91.9247ZM130.184 90.4929V87.5909H130.939V92.5H130.184V91.669H130.133C130.018 91.9183 129.839 92.1303 129.596 92.305C129.354 92.4776 129.047 92.5639 128.676 92.5639C128.369 92.5639 128.096 92.4968 127.858 92.3626C127.619 92.2262 127.432 92.0217 127.295 91.7489C127.159 91.4741 127.091 91.1278 127.091 90.7102V87.5909H127.845V90.6591C127.845 91.017 127.945 91.3026 128.145 91.5156C128.348 91.7287 128.606 91.8352 128.919 91.8352C129.106 91.8352 129.297 91.7873 129.491 91.6914C129.687 91.5955 129.851 91.4485 129.983 91.2504C130.117 91.0522 130.184 90.7997 130.184 90.4929ZM132.32 92.5V87.5909H133.049V88.3324H133.1C133.19 88.0895 133.351 87.8924 133.586 87.7411C133.82 87.5898 134.084 87.5142 134.378 87.5142C134.434 87.5142 134.503 87.5153 134.586 87.5174C134.669 87.5195 134.732 87.5227 134.775 87.527V88.294C134.749 88.2876 134.691 88.2781 134.599 88.2653C134.509 88.2504 134.415 88.2429 134.315 88.2429C134.076 88.2429 133.863 88.293 133.675 88.3931C133.49 88.4911 133.343 88.6275 133.234 88.8022C133.128 88.9748 133.074 89.1719 133.074 89.3935V92.5H132.32ZM140.335 87.5909V88.2301H137.791V87.5909H140.335ZM138.532 86.4148H139.287V91.0938C139.287 91.3068 139.318 91.4666 139.379 91.5732C139.443 91.6776 139.524 91.7479 139.622 91.7841C139.722 91.8182 139.828 91.8352 139.939 91.8352C140.022 91.8352 140.09 91.831 140.143 91.8224C140.197 91.8118 140.239 91.8033 140.271 91.7969L140.425 92.4744C140.373 92.4936 140.302 92.5128 140.21 92.532C140.119 92.5533 140.003 92.5639 139.862 92.5639C139.649 92.5639 139.44 92.5181 139.236 92.4265C139.033 92.3349 138.865 92.1953 138.731 92.0078C138.599 91.8203 138.532 91.5838 138.532 91.2983V86.4148ZM141.47 92.5V87.5909H142.198V88.3324H142.249C142.339 88.0895 142.501 87.8924 142.735 87.7411C142.97 87.5898 143.234 87.5142 143.528 87.5142C143.583 87.5142 143.653 87.5153 143.736 87.5174C143.819 87.5195 143.882 87.5227 143.924 87.527V88.294C143.899 88.2876 143.84 88.2781 143.748 88.2653C143.659 88.2504 143.564 88.2429 143.464 88.2429C143.225 88.2429 143.012 88.293 142.825 88.3931C142.639 88.4911 142.492 88.6275 142.384 88.8022C142.277 88.9748 142.224 89.1719 142.224 89.3935V92.5H141.47ZM146.263 92.6151C145.952 92.6151 145.669 92.5565 145.416 92.4393C145.162 92.32 144.961 92.1484 144.812 91.9247C144.663 91.6989 144.588 91.4261 144.588 91.1065C144.588 90.8253 144.644 90.5973 144.754 90.4226C144.865 90.2457 145.013 90.1072 145.199 90.0071C145.384 89.907 145.589 89.8324 145.812 89.7834C146.038 89.7322 146.265 89.6918 146.493 89.6619C146.791 89.6236 147.033 89.5948 147.218 89.5756C147.406 89.5543 147.542 89.5192 147.628 89.4702C147.715 89.4212 147.759 89.3359 147.759 89.2145V89.1889C147.759 88.8736 147.672 88.6286 147.5 88.4538C147.329 88.2791 147.07 88.1918 146.723 88.1918C146.363 88.1918 146.081 88.2706 145.876 88.4283C145.672 88.5859 145.528 88.7543 145.445 88.9332L144.729 88.6776C144.857 88.3793 145.027 88.147 145.24 87.9808C145.455 87.8125 145.69 87.6953 145.943 87.6293C146.199 87.5611 146.45 87.527 146.698 87.527C146.855 87.527 147.036 87.5462 147.241 87.5845C147.448 87.6207 147.647 87.6964 147.839 87.8114C148.032 87.9265 148.193 88.1001 148.321 88.3324C148.449 88.5646 148.513 88.8757 148.513 89.2656V92.5H147.759V91.8352H147.72C147.669 91.9418 147.584 92.0558 147.465 92.1772C147.345 92.2987 147.187 92.402 146.988 92.4872C146.79 92.5724 146.548 92.6151 146.263 92.6151ZM146.378 91.9375C146.676 91.9375 146.928 91.8789 147.132 91.7617C147.339 91.6445 147.494 91.4933 147.599 91.3079C147.705 91.1225 147.759 90.9276 147.759 90.723V90.0327C147.727 90.071 147.656 90.1062 147.548 90.1381C147.441 90.168 147.318 90.1946 147.177 90.218C147.038 90.2393 146.903 90.2585 146.771 90.2756C146.641 90.2905 146.536 90.3033 146.455 90.3139C146.259 90.3395 146.075 90.381 145.905 90.4386C145.737 90.494 145.6 90.5781 145.496 90.6911C145.394 90.8018 145.342 90.9531 145.342 91.1449C145.342 91.407 145.439 91.6051 145.633 91.7393C145.829 91.8714 146.078 91.9375 146.378 91.9375ZM150.644 89.5469V92.5H149.89V87.5909H150.618V88.358H150.682C150.797 88.1087 150.972 87.9084 151.206 87.7571C151.441 87.6037 151.743 87.527 152.114 87.527C152.446 87.527 152.737 87.5952 152.987 87.7315C153.236 87.8658 153.43 88.0703 153.568 88.3452C153.707 88.6179 153.776 88.9631 153.776 89.3807V92.5H153.022V89.4318C153.022 89.0462 152.922 88.7457 152.721 88.5305C152.521 88.3132 152.246 88.2045 151.897 88.2045C151.656 88.2045 151.441 88.2567 151.251 88.3612C151.064 88.4656 150.915 88.6179 150.807 88.8182C150.698 89.0185 150.644 89.2614 150.644 89.5469ZM158.631 88.6903L157.954 88.8821C157.911 88.7692 157.848 88.6594 157.765 88.5529C157.684 88.4442 157.574 88.3548 157.433 88.2844C157.292 88.2141 157.112 88.179 156.893 88.179C156.592 88.179 156.342 88.2482 156.142 88.3867C155.944 88.5231 155.845 88.6967 155.845 88.9077C155.845 89.0952 155.913 89.2433 156.049 89.3519C156.185 89.4606 156.399 89.5511 156.688 89.6236L157.417 89.8026C157.856 89.9091 158.183 90.0721 158.398 90.2915C158.613 90.5089 158.721 90.7891 158.721 91.1321C158.721 91.4134 158.64 91.6648 158.478 91.8864C158.318 92.108 158.095 92.2827 157.807 92.4105C157.519 92.5384 157.185 92.6023 156.803 92.6023C156.303 92.6023 155.888 92.4936 155.56 92.2763C155.232 92.0589 155.024 91.7415 154.937 91.3239L155.653 91.1449C155.721 91.4091 155.85 91.6072 156.04 91.7393C156.231 91.8714 156.482 91.9375 156.791 91.9375C157.142 91.9375 157.421 91.8629 157.628 91.7138C157.837 91.5625 157.941 91.3814 157.941 91.1705C157.941 91 157.881 90.8572 157.762 90.7422C157.643 90.625 157.46 90.5376 157.212 90.4801L156.394 90.2884C155.945 90.1818 155.614 90.0167 155.403 89.793C155.195 89.5671 155.09 89.2848 155.09 88.946C155.09 88.669 155.168 88.424 155.324 88.2109C155.481 87.9979 155.695 87.8306 155.966 87.7092C156.239 87.5877 156.548 87.527 156.893 87.527C157.379 87.527 157.76 87.6335 158.037 87.8466C158.316 88.0597 158.514 88.3409 158.631 88.6903ZM161.301 92.6151C160.99 92.6151 160.708 92.5565 160.454 92.4393C160.2 92.32 159.999 92.1484 159.85 91.9247C159.701 91.6989 159.626 91.4261 159.626 91.1065C159.626 90.8253 159.682 90.5973 159.792 90.4226C159.903 90.2457 160.051 90.1072 160.237 90.0071C160.422 89.907 160.627 89.8324 160.85 89.7834C161.076 89.7322 161.303 89.6918 161.531 89.6619C161.829 89.6236 162.071 89.5948 162.257 89.5756C162.444 89.5543 162.58 89.5192 162.666 89.4702C162.753 89.4212 162.797 89.3359 162.797 89.2145V89.1889C162.797 88.8736 162.71 88.6286 162.538 88.4538C162.367 88.2791 162.108 88.1918 161.761 88.1918C161.401 88.1918 161.119 88.2706 160.914 88.4283C160.71 88.5859 160.566 88.7543 160.483 88.9332L159.767 88.6776C159.895 88.3793 160.065 88.147 160.278 87.9808C160.493 87.8125 160.728 87.6953 160.981 87.6293C161.237 87.5611 161.488 87.527 161.736 87.527C161.893 87.527 162.074 87.5462 162.279 87.5845C162.486 87.6207 162.685 87.6964 162.877 87.8114C163.07 87.9265 163.231 88.1001 163.359 88.3324C163.487 88.5646 163.551 88.8757 163.551 89.2656V92.5H162.797V91.8352H162.758C162.707 91.9418 162.622 92.0558 162.503 92.1772C162.383 92.2987 162.225 92.402 162.026 92.4872C161.828 92.5724 161.586 92.6151 161.301 92.6151ZM161.416 91.9375C161.714 91.9375 161.966 91.8789 162.17 91.7617C162.377 91.6445 162.532 91.4933 162.637 91.3079C162.743 91.1225 162.797 90.9276 162.797 90.723V90.0327C162.765 90.071 162.694 90.1062 162.586 90.1381C162.479 90.168 162.356 90.1946 162.215 90.218C162.077 90.2393 161.941 90.2585 161.809 90.2756C161.679 90.2905 161.574 90.3033 161.493 90.3139C161.297 90.3395 161.113 90.381 160.943 90.4386C160.775 90.494 160.638 90.5781 160.534 90.6911C160.432 90.8018 160.381 90.9531 160.381 91.1449C160.381 91.407 160.477 91.6051 160.671 91.7393C160.867 91.8714 161.116 91.9375 161.416 91.9375ZM166.922 92.6023C166.462 92.6023 166.065 92.4936 165.733 92.2763C165.401 92.0589 165.145 91.7596 164.966 91.3782C164.787 90.9968 164.698 90.5611 164.698 90.071C164.698 89.5724 164.789 89.1325 164.972 88.7511C165.158 88.3675 165.416 88.0682 165.746 87.853C166.078 87.6357 166.466 87.527 166.909 87.527C167.254 87.527 167.565 87.5909 167.842 87.7188C168.119 87.8466 168.346 88.0256 168.523 88.2557C168.7 88.4858 168.81 88.7543 168.852 89.0611H168.098C168.041 88.8374 167.913 88.6392 167.715 88.4666C167.519 88.2919 167.254 88.2045 166.922 88.2045C166.628 88.2045 166.37 88.2812 166.149 88.4347C165.929 88.5859 165.758 88.8001 165.634 89.0771C165.513 89.3519 165.452 89.6747 165.452 90.0455C165.452 90.4247 165.511 90.755 165.631 91.0362C165.752 91.3175 165.923 91.5359 166.142 91.6914C166.364 91.8469 166.624 91.9247 166.922 91.9247C167.118 91.9247 167.296 91.8906 167.456 91.8224C167.616 91.7543 167.751 91.6562 167.862 91.5284C167.972 91.4006 168.051 91.2472 168.098 91.0682H168.852C168.81 91.358 168.704 91.619 168.536 91.8512C168.37 92.0813 168.149 92.2646 167.874 92.4009C167.602 92.5352 167.284 92.6023 166.922 92.6023ZM172.09 87.5909V88.2301H169.546V87.5909H172.09ZM170.287 86.4148H171.042V91.0938C171.042 91.3068 171.073 91.4666 171.134 91.5732C171.198 91.6776 171.279 91.7479 171.377 91.7841C171.477 91.8182 171.583 91.8352 171.694 91.8352C171.777 91.8352 171.845 91.831 171.898 91.8224C171.951 91.8118 171.994 91.8033 172.026 91.7969L172.179 92.4744C172.128 92.4936 172.057 92.5128 171.965 92.532C171.874 92.5533 171.758 92.5639 171.617 92.5639C171.404 92.5639 171.195 92.5181 170.991 92.4265C170.788 92.3349 170.62 92.1953 170.486 92.0078C170.353 91.8203 170.287 91.5838 170.287 91.2983V86.4148ZM173.225 92.5V87.5909H173.979V92.5H173.225ZM173.608 86.7727C173.461 86.7727 173.334 86.7227 173.228 86.6225C173.123 86.5224 173.071 86.402 173.071 86.2614C173.071 86.1207 173.123 86.0004 173.228 85.9002C173.334 85.8001 173.461 85.75 173.608 85.75C173.755 85.75 173.881 85.8001 173.985 85.9002C174.092 86.0004 174.145 86.1207 174.145 86.2614C174.145 86.402 174.092 86.5224 173.985 86.6225C173.881 86.7227 173.755 86.7727 173.608 86.7727ZM177.355 92.6023C176.911 92.6023 176.523 92.4968 176.188 92.2859C175.856 92.0749 175.596 91.7798 175.408 91.4006C175.223 91.0213 175.13 90.5781 175.13 90.071C175.13 89.5597 175.223 89.1133 175.408 88.7319C175.596 88.3505 175.856 88.0543 176.188 87.8434C176.523 87.6325 176.911 87.527 177.355 87.527C177.798 87.527 178.186 87.6325 178.518 87.8434C178.852 88.0543 179.112 88.3505 179.298 88.7319C179.485 89.1133 179.579 89.5597 179.579 90.071C179.579 90.5781 179.485 91.0213 179.298 91.4006C179.112 91.7798 178.852 92.0749 178.518 92.2859C178.186 92.4968 177.798 92.6023 177.355 92.6023ZM177.355 91.9247C177.691 91.9247 177.968 91.8384 178.186 91.6658C178.403 91.4933 178.564 91.2663 178.668 90.9851C178.773 90.7038 178.825 90.3991 178.825 90.071C178.825 89.7429 178.773 89.4371 178.668 89.1538C178.564 88.8704 178.403 88.6413 178.186 88.4666C177.968 88.2919 177.691 88.2045 177.355 88.2045C177.018 88.2045 176.741 88.2919 176.524 88.4666C176.306 88.6413 176.145 88.8704 176.041 89.1538C175.937 89.4371 175.884 89.7429 175.884 90.071C175.884 90.3991 175.937 90.7038 176.041 90.9851C176.145 91.2663 176.306 91.4933 176.524 91.6658C176.741 91.8384 177.018 91.9247 177.355 91.9247ZM181.485 89.5469V92.5H180.73V87.5909H181.459V88.358H181.523C181.638 88.1087 181.813 87.9084 182.047 87.7571C182.282 87.6037 182.584 87.527 182.955 87.527C183.287 87.527 183.578 87.5952 183.827 87.7315C184.077 87.8658 184.271 88.0703 184.409 88.3452C184.547 88.6179 184.617 88.9631 184.617 89.3807V92.5H183.862V89.4318C183.862 89.0462 183.762 88.7457 183.562 88.5305C183.362 88.3132 183.087 88.2045 182.737 88.2045C182.497 88.2045 182.282 88.2567 182.092 88.3612C181.904 88.4656 181.756 88.6179 181.648 88.8182C181.539 89.0185 181.485 89.2614 181.485 89.5469ZM189.281 89.5469V92.5H188.526V85.9545H189.281V88.358H189.344C189.46 88.1044 189.632 87.9031 189.862 87.7539C190.094 87.6026 190.403 87.527 190.789 87.527C191.124 87.527 191.417 87.5941 191.668 87.7283C191.919 87.8604 192.114 88.0639 192.253 88.3388C192.393 88.6115 192.464 88.9588 192.464 89.3807V92.5H191.71V89.4318C191.71 89.0419 191.608 88.7404 191.406 88.5273C191.206 88.3121 190.928 88.2045 190.572 88.2045C190.325 88.2045 190.103 88.2567 189.907 88.3612C189.713 88.4656 189.56 88.6179 189.447 88.8182C189.336 89.0185 189.281 89.2614 189.281 89.5469ZM195.288 92.6151C194.977 92.6151 194.695 92.5565 194.441 92.4393C194.188 92.32 193.986 92.1484 193.837 91.9247C193.688 91.6989 193.614 91.4261 193.614 91.1065C193.614 90.8253 193.669 90.5973 193.78 90.4226C193.891 90.2457 194.039 90.1072 194.224 90.0071C194.409 89.907 194.614 89.8324 194.838 89.7834C195.063 89.7322 195.29 89.6918 195.518 89.6619C195.817 89.6236 196.059 89.5948 196.244 89.5756C196.431 89.5543 196.568 89.5192 196.653 89.4702C196.74 89.4212 196.784 89.3359 196.784 89.2145V89.1889C196.784 88.8736 196.698 88.6286 196.525 88.4538C196.355 88.2791 196.096 88.1918 195.748 88.1918C195.388 88.1918 195.106 88.2706 194.902 88.4283C194.697 88.5859 194.553 88.7543 194.47 88.9332L193.754 88.6776C193.882 88.3793 194.052 88.147 194.266 87.9808C194.481 87.8125 194.715 87.6953 194.969 87.6293C195.224 87.5611 195.476 87.527 195.723 87.527C195.881 87.527 196.062 87.5462 196.266 87.5845C196.473 87.6207 196.672 87.6964 196.864 87.8114C197.058 87.9265 197.219 88.1001 197.347 88.3324C197.474 88.5646 197.538 88.8757 197.538 89.2656V92.5H196.784V91.8352H196.746C196.695 91.9418 196.609 92.0558 196.49 92.1772C196.371 92.2987 196.212 92.402 196.014 92.4872C195.816 92.5724 195.574 92.6151 195.288 92.6151ZM195.403 91.9375C195.702 91.9375 195.953 91.8789 196.158 91.7617C196.364 91.6445 196.52 91.4933 196.624 91.3079C196.731 91.1225 196.784 90.9276 196.784 90.723V90.0327C196.752 90.071 196.682 90.1062 196.573 90.1381C196.467 90.168 196.343 90.1946 196.202 90.218C196.064 90.2393 195.929 90.2585 195.796 90.2756C195.666 90.2905 195.561 90.3033 195.48 90.3139C195.284 90.3395 195.101 90.381 194.93 90.4386C194.762 90.494 194.626 90.5781 194.521 90.6911C194.419 90.8018 194.368 90.9531 194.368 91.1449C194.368 91.407 194.465 91.6051 194.659 91.7393C194.855 91.8714 195.103 91.9375 195.403 91.9375ZM202.392 88.6903L201.715 88.8821C201.672 88.7692 201.609 88.6594 201.526 88.5529C201.445 88.4442 201.334 88.3548 201.194 88.2844C201.053 88.2141 200.873 88.179 200.654 88.179C200.353 88.179 200.103 88.2482 199.903 88.3867C199.704 88.5231 199.605 88.6967 199.605 88.9077C199.605 89.0952 199.673 89.2433 199.81 89.3519C199.946 89.4606 200.159 89.5511 200.449 89.6236L201.178 89.8026C201.617 89.9091 201.944 90.0721 202.159 90.2915C202.374 90.5089 202.482 90.7891 202.482 91.1321C202.482 91.4134 202.401 91.6648 202.239 91.8864C202.079 92.108 201.855 92.2827 201.568 92.4105C201.28 92.5384 200.945 92.6023 200.564 92.6023C200.063 92.6023 199.649 92.4936 199.321 92.2763C198.993 92.0589 198.785 91.7415 198.698 91.3239L199.414 91.1449C199.482 91.4091 199.611 91.6072 199.8 91.7393C199.992 91.8714 200.242 91.9375 200.551 91.9375C200.903 91.9375 201.182 91.8629 201.389 91.7138C201.597 91.5625 201.702 91.3814 201.702 91.1705C201.702 91 201.642 90.8572 201.523 90.7422C201.404 90.625 201.22 90.5376 200.973 90.4801L200.155 90.2884C199.705 90.1818 199.375 90.0167 199.164 89.793C198.955 89.5671 198.851 89.2848 198.851 88.946C198.851 88.669 198.929 88.424 199.084 88.2109C199.242 87.9979 199.456 87.8306 199.727 87.7092C199.999 87.5877 200.308 87.527 200.654 87.527C201.139 87.527 201.521 87.6335 201.798 87.8466C202.077 88.0597 202.275 88.3409 202.392 88.6903ZM204.371 89.5469V92.5H203.617V85.9545H204.371V88.358H204.435C204.55 88.1044 204.723 87.9031 204.953 87.7539C205.185 87.6026 205.494 87.527 205.88 87.527C206.214 87.527 206.507 87.5941 206.759 87.7283C207.01 87.8604 207.205 88.0639 207.344 88.3388C207.484 88.6115 207.555 88.9588 207.555 89.3807V92.5H206.8V89.4318C206.8 89.0419 206.699 88.7404 206.497 88.5273C206.296 88.3121 206.018 88.2045 205.663 88.2045C205.415 88.2045 205.194 88.2567 204.998 88.3612C204.804 88.4656 204.65 88.6179 204.538 88.8182C204.427 89.0185 204.371 89.2614 204.371 89.5469ZM209.484 92.5511C209.327 92.5511 209.191 92.4947 209.078 92.3817C208.965 92.2688 208.909 92.1335 208.909 91.9759C208.909 91.8182 208.965 91.6829 209.078 91.57C209.191 91.457 209.327 91.4006 209.484 91.4006C209.642 91.4006 209.777 91.457 209.89 91.57C210.003 91.6829 210.059 91.8182 210.059 91.9759C210.059 92.0803 210.033 92.1761 209.98 92.2635C209.928 92.3509 209.859 92.4212 209.772 92.4744C209.687 92.5256 209.591 92.5511 209.484 92.5511Z" fill="#666666"/>
<path d="M29 93.805H73.7979V94.525H29V93.805Z" fill="#4166FB"/>
<rect x="21.5" y="112" width="266.25" height="396.75" rx="24" fill="#F5F7F9"/>
<rect x="33.5" y="124" width="242.25" height="48" rx="13.5" fill="white"/>
<mask id="mask0_911_733" style="mask-type:alpha" maskUnits="userSpaceOnUse" x="51" y="139" width="19" height="18">
<rect x="51.5" y="139" width="18" height="18" fill="#D9D9D9"/>
</mask>
<g mask="url(#mask0_911_733)">
<path d="M56 153.625C55.276 153.625 54.6575 153.369 54.1445 152.856C53.6315 152.343 53.375 151.724 53.375 151V145C53.375 144.276 53.6315 143.657 54.1445 143.144C54.6575 142.631 55.276 142.375 56 142.375H65C65.724 142.375 66.3425 142.631 66.8555 143.144C67.3685 143.657 67.625 144.276 67.625 145V151C67.625 151.724 67.3685 152.343 66.8555 152.856C66.3425 153.369 65.724 153.625 65 153.625H56ZM56 145.188H65C65.2846 145.188 65.5531 145.228 65.8055 145.31C66.0579 145.392 66.2894 145.516 66.5 145.682V145C66.5 144.588 66.3531 144.234 66.0594 143.941C65.7656 143.647 65.4125 143.5 65 143.5H56C55.5875 143.5 55.2344 143.647 54.9406 143.941C54.6469 144.234 54.5 144.588 54.5 145V145.682C54.7106 145.516 54.9421 145.392 55.1945 145.31C55.4469 145.228 55.7154 145.188 56 145.188ZM54.5692 147.43L62.9923 149.477C63.0951 149.502 63.1993 149.503 63.3046 149.481C63.4099 149.458 63.5053 149.412 63.5909 149.341L66.2909 147.073C66.1678 146.847 65.9916 146.663 65.7622 146.523C65.5329 146.383 65.2789 146.312 65 146.312H56C55.6461 146.312 55.3389 146.416 55.0784 146.623C54.8178 146.831 54.6481 147.1 54.5692 147.43Z" fill="#1A1A1A"/>
</g>
<path d="M78.1974 152.5L75.7344 143.773H77.4347L79.0071 150.186H79.0881L80.767 143.773H82.3139L83.9972 150.19H84.0739L85.6463 143.773H87.3466L84.8835 152.5H83.3239L81.5767 146.376H81.5085L79.7571 152.5H78.1974ZM89.3502 152.632C88.9354 152.632 88.5618 152.558 88.2295 152.411C87.8999 152.26 87.6386 152.038 87.4454 151.746C87.255 151.453 87.1599 151.092 87.1599 150.663C87.1599 150.294 87.228 149.989 87.3644 149.747C87.5008 149.506 87.6868 149.312 87.9226 149.168C88.1584 149.023 88.4241 148.913 88.7195 148.839C89.0178 148.763 89.3261 148.707 89.6442 148.673C90.0278 148.634 90.3388 148.598 90.5775 148.567C90.8161 148.533 90.9894 148.482 91.0974 148.413C91.2082 148.342 91.2636 148.233 91.2636 148.085V148.06C91.2636 147.739 91.1684 147.49 90.978 147.314C90.7877 147.138 90.5136 147.05 90.1556 147.05C89.7778 147.05 89.478 147.132 89.2564 147.297C89.0377 147.462 88.89 147.656 88.8133 147.881L87.3729 147.676C87.4866 147.278 87.6741 146.946 87.9354 146.679C88.1968 146.409 88.5164 146.207 88.8942 146.074C89.2721 145.938 89.6897 145.869 90.1471 145.869C90.4624 145.869 90.7763 145.906 91.0888 145.98C91.4013 146.054 91.6868 146.176 91.9454 146.347C92.2039 146.514 92.4113 146.743 92.5675 147.033C92.7266 147.322 92.8062 147.685 92.8062 148.119V152.5H91.3232V151.601H91.2721C91.1783 151.783 91.0462 151.953 90.8758 152.112C90.7082 152.268 90.4965 152.395 90.2408 152.491C89.988 152.585 89.6911 152.632 89.3502 152.632ZM89.7508 151.499C90.0604 151.499 90.3289 151.437 90.5562 151.315C90.7834 151.19 90.9582 151.026 91.0803 150.821C91.2053 150.616 91.2678 150.393 91.2678 150.152V149.381C91.2195 149.42 91.1371 149.457 91.0207 149.491C90.907 149.526 90.7792 149.555 90.6371 149.581C90.4951 149.607 90.3545 149.629 90.2153 149.649C90.0761 149.669 89.9553 149.686 89.853 149.7C89.6229 149.732 89.417 149.783 89.2351 149.854C89.0533 149.925 88.9099 150.024 88.8047 150.152C88.6996 150.277 88.6471 150.439 88.6471 150.638C88.6471 150.922 88.7508 151.136 88.9582 151.281C89.1655 151.426 89.4297 151.499 89.7508 151.499ZM95.6599 143.773V152.5H94.1173V143.773H95.6599ZM98.5488 143.773V152.5H97.0062V143.773H98.5488ZM102.793 152.628C102.137 152.628 101.57 152.491 101.093 152.219C100.618 151.943 100.253 151.554 99.9974 151.051C99.7417 150.545 99.6139 149.95 99.6139 149.266C99.6139 148.592 99.7417 148.001 99.9974 147.493C100.256 146.982 100.617 146.584 101.08 146.3C101.543 146.013 102.087 145.869 102.712 145.869C103.115 145.869 103.496 145.935 103.854 146.065C104.215 146.193 104.533 146.392 104.808 146.662C105.087 146.932 105.306 147.276 105.465 147.693C105.624 148.108 105.703 148.602 105.703 149.176V149.649H100.338V148.609H104.225C104.222 148.314 104.158 148.051 104.033 147.821C103.908 147.588 103.733 147.405 103.509 147.271C103.287 147.138 103.029 147.071 102.733 147.071C102.418 147.071 102.141 147.148 101.902 147.301C101.664 147.452 101.478 147.651 101.344 147.898C101.213 148.142 101.147 148.411 101.144 148.703V149.611C101.144 149.991 101.213 150.318 101.353 150.591C101.492 150.861 101.686 151.068 101.936 151.213C102.186 151.355 102.479 151.426 102.814 151.426C103.039 151.426 103.242 151.395 103.424 151.332C103.605 151.267 103.763 151.172 103.897 151.047C104.03 150.922 104.131 150.767 104.199 150.582L105.639 150.744C105.549 151.125 105.375 151.457 105.12 151.741C104.867 152.023 104.543 152.241 104.148 152.398C103.753 152.551 103.301 152.628 102.793 152.628ZM110.037 145.955V147.148H106.274V145.955H110.037ZM107.203 144.386H108.746V150.531C108.746 150.739 108.777 150.898 108.839 151.009C108.905 151.116 108.99 151.19 109.095 151.23C109.2 151.27 109.317 151.29 109.445 151.29C109.541 151.29 109.629 151.283 109.709 151.268C109.791 151.254 109.854 151.241 109.896 151.23L110.156 152.436C110.074 152.464 109.956 152.496 109.802 152.53C109.652 152.564 109.467 152.584 109.249 152.589C108.862 152.601 108.514 152.543 108.204 152.415C107.895 152.284 107.649 152.082 107.467 151.81C107.288 151.537 107.2 151.196 107.203 150.787V144.386Z" fill="#1A1A1A"/>
<path d="M248.749 148.45L251.674 145.525C251.812 145.387 251.987 145.318 252.199 145.318C252.412 145.318 252.587 145.387 252.724 145.525C252.862 145.662 252.931 145.837 252.931 146.05C252.931 146.262 252.862 146.437 252.724 146.575L249.274 150.025C249.199 150.1 249.118 150.153 249.031 150.184C248.943 150.215 248.849 150.231 248.749 150.231C248.649 150.231 248.556 150.215 248.468 150.184C248.381 150.153 248.299 150.1 248.224 150.025L244.774 146.575C244.637 146.437 244.568 146.262 244.568 146.05C244.568 145.837 244.637 145.662 244.774 145.525C244.912 145.387 245.087 145.318 245.299 145.318C245.512 145.318 245.687 145.387 245.824 145.525L248.749 148.45Z" fill="#666666"/>
<rect x="33.5" y="178" width="242.25" height="48" rx="13.5" fill="white"/>
<mask id="mask1_911_733" style="mask-type:alpha" maskUnits="userSpaceOnUse" x="51" y="193" width="19" height="18">
<rect x="51.5" y="193" width="18" height="18" fill="#D9D9D9"/>
</mask>
<g mask="url(#mask1_911_733)">
<path d="M61.2498 208.389V206.961H62.6776V208.389H61.2498ZM59.822 206.961V203.428H61.2498V206.961H59.822ZM65.4612 204.567V202H66.8892V204.567H65.4612ZM64.0334 202V200.572H65.4612V202H64.0334ZM55.5384 203.428V202H56.9662V203.428H55.5384ZM54.1104 202V200.572H55.5384V202H54.1104ZM60.4998 197.038V195.61H61.9276V197.038H60.4998ZM55.0045 199H57.4998V196.505H55.0045V199ZM54.1104 199.216V196.288C54.1104 196.096 54.1754 195.935 54.3054 195.805C54.4352 195.675 54.5962 195.61 54.7884 195.61H57.7162C57.9082 195.61 58.0692 195.675 58.1992 195.805C58.329 195.935 58.394 196.096 58.394 196.288V199.216C58.394 199.408 58.329 199.569 58.1992 199.699C58.0692 199.829 57.9082 199.894 57.7162 199.894H54.7884C54.5962 199.894 54.4352 199.829 54.3054 199.699C54.1754 199.569 54.1104 199.408 54.1104 199.216ZM55.0045 207.495H57.5575V205H55.0045V207.495ZM54.1104 207.711V204.783C54.1104 204.591 54.1754 204.43 54.3054 204.3C54.4352 204.171 54.5962 204.106 54.7884 204.106H57.7739C57.9659 204.106 58.1269 204.171 58.2569 204.3C58.3868 204.43 58.4517 204.591 58.4517 204.783V207.711C58.4517 207.903 58.3868 208.064 58.2569 208.194C58.1269 208.324 57.9659 208.389 57.7739 208.389H54.7884C54.5962 208.389 54.4352 208.324 54.3054 208.194C54.1754 208.064 54.1104 207.903 54.1104 207.711ZM63.4998 199H65.995V196.505H63.4998V199ZM62.6056 199.216V196.288C62.6056 196.096 62.6705 195.935 62.8004 195.805C62.9304 195.675 63.0914 195.61 63.2834 195.61H66.2112C66.4034 195.61 66.5644 195.675 66.6942 195.805C66.8242 195.935 66.8892 196.096 66.8892 196.288V199.216C66.8892 199.408 66.8242 199.569 66.6942 199.699C66.5644 199.829 66.4034 199.894 66.2112 199.894H63.2834C63.0914 199.894 62.9304 199.829 62.8004 199.699C62.6705 199.569 62.6056 199.408 62.6056 199.216ZM64.0334 208.389V205.995H62.6056V204.567H65.4612V206.961H66.8892V208.389H64.0334ZM61.2498 203.428V202H64.0334V203.428H61.2498ZM58.394 203.428V202H56.9662V200.572H61.2498V202H59.822V203.428H58.394ZM59.072 199.894V197.038H60.4998V198.466H61.9276V199.894H59.072ZM55.733 198.271V197.233H56.7714V198.271H55.733ZM55.7834 206.716V205.678H56.822V206.716H55.7834ZM64.2282 198.271V197.233H65.2666V198.271H64.2282Z" fill="#1A1A1A"/>
</g>
<path d="M76.3608 206.5V197.773H79.6335C80.304 197.773 80.8665 197.898 81.321 198.148C81.7784 198.398 82.1236 198.741 82.3565 199.179C82.5923 199.614 82.7102 200.108 82.7102 200.662C82.7102 201.222 82.5923 201.719 82.3565 202.153C82.1207 202.588 81.7727 202.93 81.3125 203.18C80.8523 203.428 80.2855 203.551 79.6122 203.551H77.4432V202.251H79.3991C79.7912 202.251 80.1122 202.183 80.3622 202.047C80.6122 201.911 80.7969 201.723 80.9162 201.484C81.0384 201.246 81.0994 200.972 81.0994 200.662C81.0994 200.352 81.0384 200.08 80.9162 199.844C80.7969 199.608 80.6108 199.425 80.358 199.294C80.108 199.161 79.7855 199.094 79.3906 199.094H77.9418V206.5H76.3608ZM85.5416 206.632C85.1268 206.632 84.7533 206.558 84.4209 206.411C84.0913 206.26 83.83 206.038 83.6368 205.746C83.4464 205.453 83.3513 205.092 83.3513 204.663C83.3513 204.294 83.4194 203.989 83.5558 203.747C83.6922 203.506 83.8783 203.312 84.114 203.168C84.3498 203.023 84.6155 202.913 84.9109 202.839C85.2092 202.763 85.5175 202.707 85.8356 202.673C86.2192 202.634 86.5302 202.598 86.7689 202.567C87.0075 202.533 87.1808 202.482 87.2888 202.413C87.3996 202.342 87.455 202.233 87.455 202.085V202.06C87.455 201.739 87.3598 201.49 87.1694 201.314C86.9791 201.138 86.705 201.05 86.347 201.05C85.9692 201.05 85.6694 201.132 85.4479 201.297C85.2291 201.462 85.0814 201.656 85.0047 201.881L83.5643 201.676C83.678 201.278 83.8655 200.946 84.1268 200.679C84.3882 200.409 84.7078 200.207 85.0856 200.074C85.4635 199.938 85.8811 199.869 86.3385 199.869C86.6538 199.869 86.9677 199.906 87.2802 199.98C87.5927 200.054 87.8783 200.176 88.1368 200.347C88.3953 200.514 88.6027 200.743 88.7589 201.033C88.918 201.322 88.9976 201.685 88.9976 202.119V206.5H87.5146V205.601H87.4635C87.3697 205.783 87.2376 205.953 87.0672 206.112C86.8996 206.268 86.6879 206.395 86.4322 206.491C86.1794 206.585 85.8825 206.632 85.5416 206.632ZM85.9422 205.499C86.2518 205.499 86.5203 205.437 86.7476 205.315C86.9748 205.19 87.1496 205.026 87.2717 204.821C87.3967 204.616 87.4592 204.393 87.4592 204.152V203.381C87.4109 203.42 87.3285 203.457 87.2121 203.491C87.0984 203.526 86.9706 203.555 86.8285 203.581C86.6865 203.607 86.5459 203.629 86.4067 203.649C86.2675 203.669 86.1467 203.686 86.0444 203.7C85.8143 203.732 85.6084 203.783 85.4265 203.854C85.2447 203.925 85.1013 204.024 84.9962 204.152C84.891 204.277 84.8385 204.439 84.8385 204.638C84.8385 204.922 84.9422 205.136 85.1496 205.281C85.3569 205.426 85.6212 205.499 85.9422 205.499ZM91.0331 208.955C90.8229 208.955 90.6283 208.938 90.4493 208.903C90.2732 208.872 90.1326 208.835 90.0275 208.793L90.3854 207.591C90.6098 207.656 90.8101 207.688 90.9863 207.685C91.1624 207.682 91.3172 207.626 91.4508 207.518C91.5871 207.413 91.7022 207.237 91.7959 206.99L91.928 206.636L89.5544 199.955H91.1908L92.6993 204.898H92.7675L94.2803 199.955H95.9209L93.3002 207.293C93.178 207.639 93.0161 207.936 92.8144 208.183C92.6127 208.433 92.3655 208.624 92.0729 208.754C91.7831 208.888 91.4365 208.955 91.0331 208.955ZM105.332 199.955L103.001 206.5H101.296L98.9651 199.955H100.61L102.114 204.817H102.182L103.691 199.955H105.332ZM106.159 206.5V199.955H107.702V206.5H106.159ZM106.935 199.026C106.69 199.026 106.48 198.945 106.304 198.783C106.128 198.618 106.04 198.42 106.04 198.19C106.04 197.957 106.128 197.76 106.304 197.598C106.48 197.433 106.69 197.351 106.935 197.351C107.182 197.351 107.392 197.433 107.565 197.598C107.741 197.76 107.829 197.957 107.829 198.19C107.829 198.42 107.741 198.618 107.565 198.783C107.392 198.945 107.182 199.026 106.935 199.026ZM110.931 206.632C110.517 206.632 110.143 206.558 109.811 206.411C109.481 206.26 109.22 206.038 109.027 205.746C108.836 205.453 108.741 205.092 108.741 204.663C108.741 204.294 108.809 203.989 108.946 203.747C109.082 203.506 109.268 203.312 109.504 203.168C109.74 203.023 110.005 202.913 110.301 202.839C110.599 202.763 110.907 202.707 111.225 202.673C111.609 202.634 111.92 202.598 112.159 202.567C112.397 202.533 112.571 202.482 112.679 202.413C112.789 202.342 112.845 202.233 112.845 202.085V202.06C112.845 201.739 112.75 201.49 112.559 201.314C112.369 201.138 112.095 201.05 111.737 201.05C111.359 201.05 111.059 201.132 110.838 201.297C110.619 201.462 110.471 201.656 110.395 201.881L108.954 201.676C109.068 201.278 109.255 200.946 109.517 200.679C109.778 200.409 110.098 200.207 110.475 200.074C110.853 199.938 111.271 199.869 111.728 199.869C112.044 199.869 112.358 199.906 112.67 199.98C112.983 200.054 113.268 200.176 113.527 200.347C113.785 200.514 113.993 200.743 114.149 201.033C114.308 201.322 114.387 201.685 114.387 202.119V206.5H112.904V205.601H112.853C112.76 205.783 112.627 205.953 112.457 206.112C112.289 206.268 112.078 206.395 111.822 206.491C111.569 206.585 111.272 206.632 110.931 206.632ZM111.332 205.499C111.642 205.499 111.91 205.437 112.137 205.315C112.365 205.19 112.539 205.026 112.662 204.821C112.787 204.616 112.849 204.393 112.849 204.152V203.381C112.801 203.42 112.718 203.457 112.602 203.491C112.488 203.526 112.36 203.555 112.218 203.581C112.076 203.607 111.936 203.629 111.797 203.649C111.657 203.669 111.537 203.686 111.434 203.7C111.204 203.732 110.998 203.783 110.816 203.854C110.635 203.925 110.491 204.024 110.386 204.152C110.281 204.277 110.228 204.439 110.228 204.638C110.228 204.922 110.332 205.136 110.539 205.281C110.747 205.426 111.011 205.499 111.332 205.499ZM125.973 200.717H124.38C124.334 200.456 124.25 200.224 124.128 200.023C124.006 199.818 123.854 199.645 123.672 199.503C123.491 199.361 123.283 199.254 123.05 199.183C122.82 199.109 122.571 199.072 122.304 199.072C121.83 199.072 121.41 199.192 121.043 199.43C120.677 199.666 120.39 200.013 120.182 200.47C119.975 200.925 119.871 201.48 119.871 202.136C119.871 202.804 119.975 203.366 120.182 203.824C120.393 204.278 120.679 204.622 121.043 204.855C121.41 205.085 121.829 205.2 122.3 205.2C122.562 205.2 122.806 205.166 123.033 205.098C123.263 205.027 123.469 204.923 123.651 204.787C123.836 204.651 123.991 204.483 124.116 204.284C124.243 204.085 124.331 203.858 124.38 203.602L125.973 203.611C125.914 204.026 125.785 204.415 125.586 204.778C125.39 205.142 125.133 205.463 124.814 205.741C124.496 206.017 124.124 206.233 123.698 206.389C123.272 206.543 122.799 206.619 122.279 206.619C121.512 206.619 120.827 206.442 120.225 206.087C119.623 205.732 119.148 205.219 118.802 204.548C118.455 203.878 118.282 203.074 118.282 202.136C118.282 201.196 118.456 200.392 118.806 199.724C119.155 199.054 119.631 198.541 120.233 198.186C120.836 197.831 121.518 197.653 122.279 197.653C122.765 197.653 123.216 197.722 123.634 197.858C124.052 197.994 124.424 198.195 124.75 198.459C125.077 198.72 125.346 199.041 125.556 199.422C125.769 199.8 125.908 200.232 125.973 200.717ZM127.113 206.5V199.955H128.609V201.045H128.677C128.796 200.668 129.001 200.376 129.291 200.172C129.583 199.964 129.917 199.861 130.292 199.861C130.377 199.861 130.472 199.865 130.578 199.874C130.686 199.879 130.775 199.889 130.846 199.903V201.322C130.781 201.3 130.677 201.28 130.535 201.263C130.396 201.243 130.261 201.233 130.13 201.233C129.849 201.233 129.596 201.294 129.372 201.416C129.15 201.536 128.975 201.702 128.847 201.915C128.72 202.128 128.656 202.374 128.656 202.652V206.5H127.113ZM132.789 208.955C132.579 208.955 132.384 208.938 132.205 208.903C132.029 208.872 131.888 208.835 131.783 208.793L132.141 207.591C132.366 207.656 132.566 207.688 132.742 207.685C132.918 207.682 133.073 207.626 133.207 207.518C133.343 207.413 133.458 207.237 133.552 206.99L133.684 206.636L131.31 199.955H132.947L134.455 204.898H134.523L136.036 199.955H137.677L135.056 207.293C134.934 207.639 134.772 207.936 134.57 208.183C134.368 208.433 134.121 208.624 133.829 208.754C133.539 208.888 133.192 208.955 132.789 208.955ZM138.504 208.955V199.955H140.021V201.037H140.111C140.19 200.878 140.302 200.709 140.447 200.53C140.592 200.348 140.788 200.193 141.035 200.065C141.283 199.935 141.598 199.869 141.981 199.869C142.487 199.869 142.943 199.999 143.349 200.257C143.758 200.513 144.082 200.892 144.321 201.395C144.562 201.895 144.683 202.509 144.683 203.236C144.683 203.955 144.565 204.565 144.329 205.068C144.094 205.571 143.773 205.955 143.366 206.219C142.96 206.483 142.5 206.615 141.986 206.615C141.611 206.615 141.3 206.553 141.052 206.428C140.805 206.303 140.606 206.152 140.456 205.976C140.308 205.797 140.193 205.628 140.111 205.469H140.047V208.955H138.504ZM140.017 203.227C140.017 203.651 140.077 204.021 140.196 204.339C140.318 204.658 140.493 204.906 140.72 205.085C140.95 205.261 141.229 205.349 141.555 205.349C141.896 205.349 142.182 205.259 142.412 205.077C142.642 204.892 142.815 204.641 142.932 204.322C143.051 204.001 143.111 203.636 143.111 203.227C143.111 202.821 143.052 202.46 142.936 202.145C142.82 201.83 142.646 201.582 142.416 201.403C142.186 201.224 141.899 201.135 141.555 201.135C141.226 201.135 140.946 201.222 140.716 201.395C140.486 201.568 140.311 201.811 140.192 202.124C140.075 202.436 140.017 202.804 140.017 203.227ZM149.033 199.955V201.148H145.27V199.955H149.033ZM146.199 198.386H147.741V204.531C147.741 204.739 147.773 204.898 147.835 205.009C147.901 205.116 147.986 205.19 148.091 205.23C148.196 205.27 148.312 205.29 148.44 205.29C148.537 205.29 148.625 205.283 148.705 205.268C148.787 205.254 148.849 205.241 148.892 205.23L149.152 206.436C149.07 206.464 148.952 206.496 148.798 206.53C148.648 206.564 148.463 206.584 148.244 206.589C147.858 206.601 147.51 206.543 147.2 206.415C146.891 206.284 146.645 206.082 146.463 205.81C146.284 205.537 146.196 205.196 146.199 204.787V198.386ZM152.868 206.628C152.228 206.628 151.674 206.487 151.206 206.206C150.737 205.925 150.373 205.531 150.115 205.026C149.859 204.52 149.731 203.929 149.731 203.253C149.731 202.577 149.859 201.984 150.115 201.476C150.373 200.967 150.737 200.572 151.206 200.291C151.674 200.01 152.228 199.869 152.868 199.869C153.507 199.869 154.061 200.01 154.53 200.291C154.998 200.572 155.36 200.967 155.616 201.476C155.875 201.984 156.004 202.577 156.004 203.253C156.004 203.929 155.875 204.52 155.616 205.026C155.36 205.531 154.998 205.925 154.53 206.206C154.061 206.487 153.507 206.628 152.868 206.628ZM152.876 205.392C153.223 205.392 153.512 205.297 153.745 205.107C153.978 204.913 154.152 204.655 154.265 204.331C154.382 204.007 154.44 203.646 154.44 203.249C154.44 202.848 154.382 202.486 154.265 202.162C154.152 201.835 153.978 201.575 153.745 201.382C153.512 201.189 153.223 201.092 152.876 201.092C152.521 201.092 152.226 201.189 151.99 201.382C151.757 201.575 151.582 201.835 151.466 202.162C151.352 202.486 151.295 202.848 151.295 203.249C151.295 203.646 151.352 204.007 151.466 204.331C151.582 204.655 151.757 204.913 151.99 205.107C152.226 205.297 152.521 205.392 152.876 205.392Z" fill="#1A1A1A"/>
<path d="M248.749 202.45L251.674 199.525C251.812 199.387 251.987 199.318 252.199 199.318C252.412 199.318 252.587 199.387 252.724 199.525C252.862 199.662 252.931 199.837 252.931 200.05C252.931 200.262 252.862 200.437 252.724 200.575L249.274 204.025C249.199 204.1 249.118 204.153 249.031 204.184C248.943 204.215 248.849 204.231 248.749 204.231C248.649 204.231 248.556 204.215 248.468 204.184C248.381 204.153 248.299 204.1 248.224 204.025L244.774 200.575C244.637 200.437 244.568 200.262 244.568 200.05C244.568 199.837 244.637 199.662 244.774 199.525C244.912 199.387 245.087 199.318 245.299 199.318C245.512 199.318 245.687 199.387 245.824 199.525L248.749 202.45Z" fill="#666666"/>
<rect x="33.5" y="232" width="242.25" height="48" rx="13.5" fill="white"/>
</g>
<defs>
<filter id="filter0_d_911_733" x="0.5" y="0.5" width="308.25" height="636" filterUnits="userSpaceOnUse" color-interpolation-filters="sRGB">
<feFlood flood-opacity="0" result="BackgroundImageFix"/>
<feColorMatrix in="SourceAlpha" type="matrix" values="0 0 0 0 0 0 0 0 0 0 0 0 0 0 0 0 0 0 127 0" result="hardAlpha"/>
<feOffset/>
<feGaussianBlur stdDeviation="6.75"/>
<feComposite in2="hardAlpha" operator="out"/>
<feColorMatrix type="matrix" values="0 0 0 0 0 0 0 0 0 0 0 0 0 0 0 0 0 0 0.08 0"/>
<feBlend mode="normal" in2="BackgroundImageFix" result="effect1_dropShadow_911_733"/>
<feBlend mode="normal" in="SourceGraphic" in2="effect1_dropShadow_911_733" result="shape"/>
</filter>
<clipPath id="clip0_911_733">
<rect width="24" height="24" fill="white" transform="translate(29 35)"/>
</clipPath>
</defs>
</svg>
