<svg width="247" height="39" viewBox="0 0 247 39" fill="none" xmlns="http://www.w3.org/2000/svg">
<g clip-path="url(#clip0_7_85)">
<path d="M30.2462 10.5564H31.6033L35.4712 6.68857L35.6612 5.04642C33.4454 3.09072 30.7677 1.73216 27.8809 1.09908C24.9941 0.466001 21.9935 0.5793 19.1627 1.42828C16.3319 2.27725 13.7642 3.83388 11.7023 5.95111C9.64029 8.06834 8.15211 10.6763 7.3783 13.5286C7.80919 13.3519 8.28652 13.3233 8.73544 13.4471L16.4712 12.1714C16.4712 12.1714 16.8647 11.52 17.0683 11.5607C18.7258 9.74033 21.0165 8.62236 23.4713 8.43566C25.9262 8.24896 28.3595 9.00765 30.2733 10.5564H30.2462Z" fill="#EA4335"/>
<path d="M40.9811 13.5286C40.092 10.2546 38.2667 7.31142 35.7289 5.06L30.3003 10.4886C31.4317 11.413 32.3384 12.5823 32.952 13.9082C33.5656 15.2341 33.8701 16.6821 33.8425 18.1429V19.1064C34.477 19.1064 35.1052 19.2314 35.6914 19.4742C36.2776 19.717 36.8102 20.0729 37.2588 20.5215C37.7075 20.9702 38.0633 21.5028 38.3062 22.0889C38.549 22.6751 38.6739 23.3034 38.6739 23.9379C38.6739 24.5723 38.549 25.2006 38.3062 25.7868C38.0633 26.3729 37.7075 26.9056 37.2588 27.3542C36.8102 27.8028 36.2776 28.1587 35.6914 28.4015C35.1052 28.6443 34.477 28.7693 33.8425 28.7693H24.1796L23.2161 29.7464V35.5414L24.1796 36.505H33.8425C36.5408 36.526 39.1742 35.6779 41.3532 34.0863C43.5322 32.4946 45.141 30.2438 45.9416 27.6669C46.7422 25.09 46.6921 22.3239 45.7988 19.7776C44.9054 17.2314 43.2162 15.0403 40.9811 13.5286Z" fill="#4285F4"/>
<path d="M14.5033 36.4507H24.1662V28.715H14.5033C13.8149 28.7148 13.1345 28.5667 12.5083 28.2807L11.1512 28.7014L7.25616 32.5693L6.91687 33.9264C9.1011 35.5758 11.7663 36.4626 14.5033 36.4507Z" fill="#34A853"/>
<path d="M14.5033 11.3571C11.8851 11.3728 9.33722 12.2058 7.21544 13.7397C5.09366 15.2737 3.50396 17.4321 2.66839 19.9134C1.83282 22.3947 1.79309 25.075 2.55477 27.58C3.31644 30.085 4.84148 32.2895 6.91687 33.8857L12.5219 28.2807C11.8096 27.9589 11.186 27.4691 10.7047 26.8533C10.2233 26.2375 9.89852 25.5142 9.75818 24.7453C9.61785 23.9764 9.66615 23.1849 9.89895 22.4388C10.1317 21.6926 10.5421 21.0141 11.0948 20.4615C11.6474 19.9088 12.3259 19.4984 13.0721 19.2656C13.8182 19.0328 14.6097 18.9845 15.3786 19.1249C16.1475 19.2652 16.8708 19.59 17.4866 20.0714C18.1024 20.5527 18.5922 21.1763 18.914 21.8886L24.519 16.2836C23.3426 14.7456 21.8263 13.5006 20.0888 12.646C18.3513 11.7913 16.4396 11.3502 14.5033 11.3571Z" fill="#FBBC05"/>
<path d="M72.2362 31.0493C70.5725 31.0705 68.9217 30.7557 67.3826 30.1237C65.8435 29.4917 64.4477 28.5556 63.279 27.3714C62.0735 26.2375 61.1168 24.8654 60.4697 23.3421C59.8225 21.8189 59.499 20.1778 59.5197 18.5229C59.4999 16.8681 59.8237 15.2272 60.4708 13.7041C61.1179 12.181 62.0742 10.8087 63.279 9.6743C64.442 8.47784 65.8352 7.52917 67.3745 6.88544C68.9139 6.2417 70.5677 5.91621 72.2362 5.92859C73.826 5.9074 75.4041 6.20243 76.8789 6.79654C78.3537 7.39065 79.6957 8.27198 80.8269 9.3893L78.4112 11.8457C76.7568 10.247 74.5365 9.3686 72.2362 9.40287C71.0429 9.38822 69.8596 9.62195 68.7614 10.0892C67.6633 10.5565 66.6744 11.2471 65.8576 12.1172C65.0087 12.9594 64.3389 13.9647 63.8888 15.0725C63.4387 16.1804 63.2174 17.3679 63.2383 18.5636C63.2283 19.7456 63.455 20.9176 63.9048 22.0108C64.3546 23.1039 65.0186 24.0959 65.8576 24.9286C67.5382 26.6034 69.8062 27.5562 72.1787 27.5841C74.5512 27.612 76.8409 26.7128 78.5604 25.0779C79.625 23.9121 80.2781 22.4295 80.4197 20.8572H72.2769V17.3829H83.799C83.9122 18.0826 83.9577 18.7916 83.9347 19.5C84.0064 20.9663 83.78 22.4319 83.2691 23.8081C82.7582 25.1844 81.9736 26.4428 80.9626 27.5072C79.8385 28.6775 78.4804 29.5978 76.9768 30.2081C75.4733 30.8185 73.8579 31.1051 72.2362 31.0493ZM99.0262 28.7422C97.4798 30.2244 95.4207 31.0519 93.2787 31.0519C91.1367 31.0519 89.0775 30.2244 87.5312 28.7422C86.7615 27.9959 86.1554 27.0978 85.7512 26.1049C85.347 25.112 85.1536 24.0459 85.1833 22.9743C85.1545 21.9028 85.3482 20.8369 85.7524 19.8442C86.1565 18.8514 86.7622 17.9532 87.5312 17.2064C89.0791 15.7273 91.1377 14.9019 93.2787 14.9019C95.4197 14.9019 97.4782 15.7273 99.0262 17.2064C99.7951 17.9532 100.401 18.8514 100.805 19.8442C101.209 20.8369 101.403 21.9028 101.374 22.9743C101.402 24.0469 101.206 25.1136 100.8 26.1066C100.393 27.0995 99.7847 27.9971 99.0126 28.7422H99.0262ZM90.069 26.4757C90.4803 26.915 90.9774 27.2651 91.5295 27.5045C92.0816 27.7439 92.6769 27.8674 93.2787 27.8674C93.8804 27.8674 94.4758 27.7439 95.0278 27.5045C95.5799 27.2651 96.077 26.915 96.4883 26.4757C96.9368 26.0122 97.2879 25.4636 97.521 24.8623C97.7541 24.2609 97.8644 23.619 97.8455 22.9743C97.8655 22.3275 97.7557 21.6832 97.5226 21.0795C97.2895 20.4758 96.9378 19.9249 96.4883 19.4593C96.0716 19.0246 95.5712 18.6786 95.0172 18.4423C94.4633 18.206 93.8673 18.0841 93.2651 18.0841C92.6629 18.0841 92.0669 18.206 91.5129 18.4423C90.959 18.6786 90.4586 19.0246 90.0419 19.4593C89.5924 19.9249 89.2407 20.4758 89.0076 21.0795C88.7745 21.6832 88.6647 22.3275 88.6847 22.9743C88.6676 23.6199 88.78 24.2624 89.0155 24.8638C89.2509 25.4652 89.6045 26.0133 90.0554 26.4757H90.069ZM116.696 28.7422C115.15 30.2244 113.091 31.0519 110.949 31.0519C108.807 31.0519 106.747 30.2244 105.201 28.7422C104.432 27.9959 103.825 27.0978 103.421 26.1049C103.017 25.112 102.824 24.0459 102.853 22.9743C102.824 21.9028 103.018 20.8369 103.422 19.8442C103.826 18.8514 104.432 17.9532 105.201 17.2064C106.747 15.7242 108.807 14.8967 110.949 14.8967C113.091 14.8967 115.15 15.7242 116.696 17.2064C117.465 17.9532 118.071 18.8514 118.475 19.8442C118.879 20.8369 119.073 21.9028 119.044 22.9743C119.074 24.0459 118.88 25.112 118.476 26.1049C118.072 27.0978 117.466 27.9959 116.696 28.7422ZM107.739 26.4757C108.15 26.915 108.647 27.2651 109.199 27.5045C109.752 27.7439 110.347 27.8674 110.949 27.8674C111.55 27.8674 112.146 27.7439 112.698 27.5045C113.25 27.2651 113.747 26.915 114.158 26.4757C114.607 26.0122 114.958 25.4636 115.191 24.8623C115.424 24.2609 115.534 23.619 115.515 22.9743C115.535 22.3275 115.426 21.6832 115.193 21.0795C114.959 20.4758 114.608 19.9249 114.158 19.4593C113.742 19.0246 113.241 18.6786 112.687 18.4423C112.133 18.206 111.537 18.0841 110.935 18.0841C110.333 18.0841 109.737 18.206 109.183 18.4423C108.629 18.6786 108.129 19.0246 107.712 19.4593C107.262 19.9249 106.911 20.4758 106.678 21.0795C106.445 21.6832 106.335 22.3275 106.355 22.9743C106.338 23.6199 106.45 24.2624 106.685 24.8638C106.921 25.4652 107.275 26.0133 107.725 26.4757H107.739ZM128.313 38.2964C126.687 38.3482 125.091 37.8404 123.794 36.8579C122.642 35.9919 121.735 34.8414 121.161 33.5193L124.255 32.23C124.592 33.0201 125.119 33.7148 125.789 34.2522C126.506 34.8303 127.406 35.1335 128.327 35.1072C128.911 35.1427 129.495 35.052 130.041 34.8412C130.587 34.6304 131.081 34.3045 131.489 33.8857C132.307 32.8995 132.71 31.6348 132.615 30.3572V29.19H132.493C131.976 29.8043 131.323 30.2896 130.586 30.6076C129.848 30.9256 129.047 31.0676 128.245 31.0222C127.226 31.0252 126.218 30.817 125.284 30.4105C124.349 30.0041 123.509 29.4083 122.817 28.6607C122.066 27.9192 121.472 27.0328 121.074 26.0554C120.675 25.078 120.478 24.0298 120.496 22.9743C120.477 21.9126 120.673 20.8581 121.072 19.8739C121.471 18.8898 122.064 17.9963 122.817 17.2472C123.508 16.4965 124.347 15.8977 125.281 15.4889C126.216 15.08 127.225 14.87 128.245 14.8722C129.109 14.8706 129.962 15.0607 130.743 15.4286C131.418 15.7236 132.021 16.1638 132.507 16.7179H132.629V15.4286H135.995V29.8822C136.083 31.0255 135.938 32.1749 135.567 33.26C135.196 34.3452 134.607 35.3431 133.837 36.1929C133.103 36.8946 132.237 37.4423 131.288 37.8036C130.339 38.1649 129.328 38.3325 128.313 38.2964ZM128.558 27.8736C129.137 27.8863 129.712 27.7713 130.242 27.5368C130.772 27.3022 131.244 26.9539 131.625 26.5164C132.462 25.5569 132.904 24.315 132.86 23.0422C132.91 21.7479 132.469 20.4825 131.625 19.5C131.245 19.0618 130.773 18.713 130.243 18.4784C129.713 18.2438 129.137 18.1292 128.558 18.1429C127.962 18.1306 127.371 18.2454 126.824 18.4794C126.276 18.7134 125.785 19.0613 125.382 19.5C124.484 20.4472 123.996 21.7103 124.025 23.015C124.011 23.655 124.124 24.2913 124.357 24.8876C124.59 25.4838 124.938 26.0281 125.382 26.4893C125.783 26.9323 126.273 27.2848 126.821 27.5235C127.368 27.7622 127.96 27.8815 128.558 27.8736ZM141.98 6.83787V30.5607H138.438V6.83787H141.98ZM151.697 31.0493C150.636 31.0766 149.581 30.8845 148.598 30.4852C147.615 30.0859 146.725 29.4878 145.983 28.7286C145.231 27.9749 144.64 27.0762 144.246 26.087C143.851 25.0978 143.662 24.0388 143.69 22.9743C143.65 21.9072 143.825 20.8429 144.205 19.845C144.585 18.847 145.162 17.9358 145.902 17.1657C146.599 16.4308 147.442 15.8496 148.377 15.4593C149.312 15.069 150.318 14.8783 151.33 14.8993C152.262 14.8895 153.185 15.0696 154.045 15.4286C154.819 15.741 155.524 16.2021 156.121 16.7857C156.634 17.2805 157.089 17.8313 157.478 18.4279C157.793 18.9315 158.061 19.463 158.279 20.0157L158.645 20.9386L147.788 25.4036C148.117 26.158 148.666 26.7953 149.364 27.2314C150.061 27.6674 150.875 27.8819 151.697 27.8464C152.497 27.8486 153.283 27.6435 153.98 27.251C154.677 26.8586 155.26 26.2922 155.673 25.6072L158.388 27.4393C157.695 28.4303 156.808 29.2706 155.782 29.9093C154.561 30.6806 153.141 31.077 151.697 31.0493ZM147.164 22.73L154.384 19.7307C154.162 19.2019 153.764 18.7658 153.258 18.4957C152.691 18.1756 152.049 18.0117 151.398 18.0207C150.294 18.0493 149.245 18.5127 148.48 19.31C148.023 19.748 147.667 20.2816 147.44 20.8728C147.212 21.464 147.118 22.0982 147.164 22.73Z" fill="#5F6368"/>
<path d="M177.198 31.0493C175.691 31.0753 174.195 30.7966 172.799 30.23C171.403 29.6634 170.136 28.8205 169.074 27.752C168.011 26.6835 167.176 25.4113 166.618 24.012C166.059 22.6126 165.79 21.1148 165.825 19.6086C165.79 18.1023 166.059 16.6046 166.618 15.2052C167.176 13.8058 168.011 12.5336 169.074 11.4651C170.136 10.3966 171.403 9.55373 172.799 8.98712C174.195 8.42051 175.691 8.14184 177.198 8.16785C178.722 8.12018 180.238 8.41766 181.632 9.03807C183.025 9.65849 184.261 10.5858 185.245 11.7507L183.291 13.6507C182.568 12.7413 181.641 12.0153 180.584 11.5319C179.528 11.0485 178.372 10.8212 177.211 10.8686C176.094 10.8434 174.983 11.0444 173.945 11.4595C172.907 11.8747 171.964 12.4954 171.172 13.2843C170.349 14.1122 169.705 15.1013 169.283 16.1897C168.86 17.278 168.667 18.442 168.715 19.6086C168.667 20.7751 168.86 21.9391 169.283 23.0274C169.705 24.1158 170.349 25.105 171.172 25.9328C171.964 26.7218 172.907 27.3425 173.945 27.7576C174.983 28.1727 176.094 28.3737 177.211 28.3486C178.508 28.3631 179.792 28.0851 180.966 27.5353C182.141 26.9855 183.177 26.178 183.997 25.1728L185.951 27.1271C184.928 28.3507 183.643 29.3292 182.192 29.9907C180.627 30.713 178.921 31.0748 177.198 31.0493Z" fill="#5F6368"/>
<path d="M191.203 30.5607H188.394V8.64285H191.203V30.5607Z" fill="#5F6368"/>
<path d="M195.79 17.3693C197.262 15.9074 199.253 15.0869 201.328 15.0869C203.402 15.0869 205.393 15.9074 206.865 17.3693C207.585 18.1293 208.147 19.0242 208.52 20.0024C208.892 20.9807 209.068 22.023 209.036 23.0693C209.068 24.1156 208.892 25.1579 208.52 26.1361C208.147 27.1144 207.585 28.0093 206.865 28.7693C205.393 30.2312 203.402 31.0517 201.328 31.0517C199.253 31.0517 197.262 30.2312 195.79 28.7693C195.071 28.0093 194.508 27.1144 194.135 26.1361C193.763 25.1579 193.587 24.1156 193.619 23.0693C193.587 22.023 193.763 20.9807 194.135 20.0024C194.508 19.0242 195.071 18.1293 195.79 17.3693ZM197.88 27.005C198.323 27.4728 198.856 27.8454 199.448 28.1C200.04 28.3547 200.677 28.486 201.321 28.486C201.965 28.486 202.602 28.3547 203.194 28.1C203.785 27.8454 204.319 27.4728 204.761 27.005C205.252 26.4781 205.633 25.8588 205.883 25.1831C206.132 24.5074 206.244 23.7888 206.213 23.0693C206.244 22.3497 206.132 21.6312 205.883 20.9555C205.633 20.2798 205.252 19.6605 204.761 19.1336C204.319 18.6658 203.785 18.2932 203.194 18.0385C202.602 17.7839 201.965 17.6526 201.321 17.6526C200.677 17.6526 200.04 17.7839 199.448 18.0385C198.856 18.2932 198.323 18.6658 197.88 19.1336C197.389 19.6605 197.008 20.2798 196.759 20.9555C196.51 21.6312 196.397 22.3497 196.428 23.0693C196.401 23.7875 196.516 24.5041 196.768 25.1774C197.019 25.8506 197.402 26.4673 197.894 26.9914L197.88 27.005Z" fill="#5F6368"/>
<path d="M224.603 30.5607H221.888V28.4843H221.807C221.324 29.2729 220.64 29.9192 219.825 30.3571C218.98 30.847 218.02 31.1046 217.043 31.1036C216.25 31.1578 215.455 31.0322 214.717 30.7361C213.979 30.44 213.318 29.9811 212.782 29.3936C211.754 28.0932 211.237 26.4615 211.33 24.8064V15.5779H214.139V24.2907C214.139 27.0864 215.374 28.4843 217.844 28.4843C218.393 28.5014 218.938 28.3872 219.433 28.1511C219.929 27.915 220.361 27.564 220.694 27.1271C221.422 26.2043 221.81 25.0589 221.793 23.8836V15.5779H224.603V30.5607Z" fill="#5F6368"/>
<path d="M234.143 31.0493C233.19 31.0524 232.248 30.8491 231.381 30.4531C230.514 30.0572 229.743 29.4781 229.122 28.7557C227.715 27.2017 226.961 25.1649 227.018 23.0693C226.961 20.9737 227.715 18.9369 229.122 17.3829C229.743 16.6605 230.514 16.0814 231.381 15.6855C232.248 15.2895 233.19 15.0861 234.143 15.0893C235.211 15.0724 236.266 15.3244 237.21 15.8221C238.041 16.2399 238.744 16.8726 239.246 17.6543H239.368L239.246 15.5779V8.64285H242.055V30.5607H239.341V28.4843H239.219C238.716 29.266 238.013 29.8987 237.183 30.3164C236.247 30.8097 235.202 31.0616 234.143 31.0493ZM234.605 28.4843C235.24 28.4935 235.869 28.3676 236.452 28.1149C237.035 27.8622 237.557 27.4885 237.984 27.0186C238.938 25.9319 239.426 24.513 239.341 23.0693C239.426 21.6256 238.938 20.2066 237.984 19.12C237.554 18.6475 237.03 18.27 236.446 18.0117C235.862 17.7534 235.23 17.62 234.591 17.62C233.952 17.62 233.321 17.7534 232.736 18.0117C232.152 18.27 231.628 18.6475 231.198 19.12C230.724 19.6544 230.36 20.2772 230.127 20.9526C229.895 21.628 229.797 22.3427 229.841 23.0557C229.797 23.7688 229.895 24.4835 230.127 25.1588C230.36 25.8342 230.724 26.457 231.198 26.9914C231.626 27.4698 232.151 27.8506 232.739 28.1082C233.327 28.3657 233.963 28.494 234.605 28.4843Z" fill="#5F6368"/>
</g>
<defs>
<clipPath id="clip0_7_85">
<rect width="245.643" height="38" fill="white" transform="translate(0.592529 0.5)"/>
</clipPath>
</defs>
</svg>
