<svg width="104" height="17" viewBox="0 0 104 17" fill="none" xmlns="http://www.w3.org/2000/svg">
<g clip-path="url(#clip0_1234_1321)">
<path d="M12.8914 4.73429H13.4605L15.0823 3.10572L15.162 2.41429C14.2329 1.59084 13.1101 1.01881 11.8996 0.752254C10.6892 0.485694 9.43102 0.533399 8.24403 0.890863C7.05705 1.24833 5.9804 1.90375 5.1158 2.79521C4.25121 3.68668 3.6272 4.78476 3.30273 5.98572C3.48341 5.91136 3.68356 5.8993 3.8718 5.95144L7.11544 5.41429C7.11544 5.41429 7.28047 5.14001 7.36583 5.15715C8.06084 4.39067 9.02133 3.91995 10.0507 3.84134C11.08 3.76273 12.1003 4.08218 12.9028 4.73429H12.8914Z" fill="#111827"/>
<path d="M17.3924 5.98573C17.0196 4.60723 16.2542 3.36798 15.1901 2.42001L12.9139 4.70573C13.3882 5.09496 13.7684 5.58729 14.0257 6.14558C14.283 6.70386 14.4107 7.31353 14.3991 7.92859V8.3343C14.6651 8.3343 14.9286 8.38692 15.1744 8.48915C15.4202 8.59138 15.6435 8.74123 15.8316 8.93013C16.0197 9.11903 16.1689 9.34329 16.2708 9.5901C16.3726 9.83691 16.425 10.1014 16.425 10.3686C16.425 10.6357 16.3726 10.9003 16.2708 11.1471C16.1689 11.3939 16.0197 11.6181 15.8316 11.807C15.6435 11.9959 15.4202 12.1458 15.1744 12.248C14.9286 12.3503 14.6651 12.4029 14.3991 12.4029H10.3474L9.94336 12.8143V15.2543L10.3474 15.66H14.3991C15.5305 15.6689 16.6347 15.3118 17.5484 14.6416C18.4621 13.9714 19.1366 13.0237 19.4724 11.9387C19.8081 10.8537 19.7871 9.68901 19.4125 8.61692C19.0379 7.54482 18.3296 6.62227 17.3924 5.98573Z" fill="#111827"/>
<path d="M6.28945 15.6371H10.3412V12.38H6.28945C6.00078 12.3799 5.7155 12.3176 5.45293 12.1971L4.88387 12.3743L3.25066 14.0029L3.1084 14.5743C4.02426 15.2687 5.14181 15.6421 6.28945 15.6371Z" fill="#111827"/>
<path d="M6.28978 5.07141C5.19196 5.078 4.1236 5.42873 3.23392 6.07462C2.34424 6.7205 1.67767 7.62929 1.32731 8.67405C0.976947 9.71881 0.960291 10.8474 1.27967 11.9021C1.59904 12.9568 2.2385 13.8851 3.10873 14.5571L5.45895 12.1971C5.16029 12.0616 4.89882 11.8554 4.69698 11.5961C4.49514 11.3368 4.35896 11.0323 4.30012 10.7085C4.24127 10.3848 4.26153 10.0515 4.35914 9.73736C4.45676 9.4232 4.62881 9.13752 4.86056 8.90481C5.0923 8.67211 5.3768 8.49933 5.68966 8.40131C6.00251 8.30329 6.33438 8.28295 6.65679 8.34204C6.97919 8.40113 7.28251 8.53788 7.54071 8.74056C7.79892 8.94324 8.0043 9.20579 8.13923 9.5057L10.4895 7.1457C9.99616 6.49813 9.36038 5.97393 8.63183 5.61408C7.90327 5.25424 7.1017 5.06851 6.28978 5.07141Z" fill="#111827"/>
<path d="M30.4975 13.3629C29.7999 13.3718 29.1077 13.2392 28.4624 12.9731C27.817 12.7071 27.2318 12.3129 26.7417 11.8143C26.2362 11.3369 25.8351 10.7591 25.5637 10.1177C25.2924 9.47638 25.1568 8.78538 25.1654 8.08858C25.1571 7.39184 25.2929 6.70094 25.5642 6.05962C25.8356 5.41831 26.2365 4.84053 26.7417 4.36287C27.2294 3.8591 27.8135 3.45966 28.459 3.18861C29.1045 2.91756 29.7979 2.78052 30.4975 2.78573C31.1642 2.77681 31.8259 2.90103 32.4443 3.15118C33.0627 3.40133 33.6254 3.77242 34.0997 4.24287L33.0868 5.27716C32.3931 4.60399 31.4621 4.23415 30.4975 4.24858C29.9972 4.24241 29.501 4.34083 29.0406 4.53758C28.5801 4.73433 28.1655 5.02511 27.8229 5.39144C27.467 5.74606 27.1862 6.16934 26.9974 6.63582C26.8087 7.10229 26.7159 7.6023 26.7247 8.10573C26.7205 8.60341 26.8155 9.09691 27.0041 9.55717C27.1927 10.0174 27.4711 10.4351 27.8229 10.7857C28.5276 11.4909 29.4786 11.8921 30.4734 11.9038C31.4682 11.9156 32.4283 11.537 33.1494 10.8486C33.5957 10.3577 33.8696 9.73348 33.929 9.07144H30.5146V7.60858H35.3459C35.3934 7.9032 35.4125 8.20172 35.4028 8.50001C35.4329 9.11739 35.3379 9.73447 35.1237 10.314C34.9095 10.8934 34.5805 11.4233 34.1566 11.8714C33.6853 12.3642 33.1158 12.7517 32.4853 13.0087C31.8549 13.2657 31.1776 13.3864 30.4975 13.3629ZM41.7308 12.3914C41.0824 13.0155 40.219 13.364 39.3208 13.364C38.4227 13.364 37.5592 13.0155 36.9108 12.3914C36.5881 12.0772 36.334 11.6991 36.1645 11.281C35.995 10.863 35.9139 10.4141 35.9264 9.96287C35.9143 9.51171 35.9955 9.06293 36.165 8.64491C36.3344 8.22689 36.5884 7.84872 36.9108 7.5343C37.5599 6.9115 38.4231 6.56395 39.3208 6.56395C40.2186 6.56395 41.0817 6.9115 41.7308 7.5343C42.0532 7.84872 42.3072 8.22689 42.4767 8.64491C42.6461 9.06293 42.7274 9.51171 42.7153 9.96287C42.727 10.4145 42.645 10.8636 42.4745 11.2817C42.3041 11.6998 42.0488 12.0777 41.7251 12.3914H41.7308ZM37.975 11.4372C38.1475 11.6221 38.3559 11.7695 38.5874 11.8703C38.8189 11.9711 39.0685 12.0231 39.3208 12.0231C39.5731 12.0231 39.8228 11.9711 40.0543 11.8703C40.2858 11.7695 40.4942 11.6221 40.6666 11.4372C40.8547 11.242 41.0019 11.011 41.0997 10.7578C41.1974 10.5046 41.2437 10.2343 41.2357 9.96287C41.2441 9.69052 41.1981 9.41924 41.1003 9.16504C41.0026 8.91085 40.8551 8.6789 40.6666 8.48287C40.4919 8.29982 40.2821 8.15416 40.0498 8.05466C39.8176 7.95515 39.5676 7.90385 39.3151 7.90385C39.0626 7.90385 38.8127 7.95515 38.5804 8.05466C38.3482 8.15416 38.1384 8.29982 37.9636 8.48287C37.7751 8.6789 37.6277 8.91085 37.5299 9.16504C37.4322 9.41924 37.3862 9.69052 37.3946 9.96287C37.3874 10.2347 37.4345 10.5052 37.5332 10.7585C37.632 11.0117 37.7802 11.2425 37.9693 11.4372H37.975ZM49.14 12.3914C48.4916 13.0155 47.6281 13.364 46.73 13.364C45.8318 13.364 44.9684 13.0155 44.32 12.3914C43.9973 12.0772 43.7431 11.6991 43.5737 11.281C43.4042 10.863 43.3231 10.4141 43.3355 9.96287C43.3234 9.51171 43.4047 9.06293 43.5742 8.64491C43.7436 8.22689 43.9976 7.84872 44.32 7.5343C44.9684 6.91019 45.8318 6.56176 46.73 6.56176C47.6281 6.56176 48.4916 6.91019 49.14 7.5343C49.4624 7.84872 49.7164 8.22689 49.8858 8.64491C50.0553 9.06293 50.1365 9.51171 50.1244 9.96287C50.1369 10.4141 50.0558 10.863 49.8863 11.281C49.7168 11.6991 49.4627 12.0772 49.14 12.3914ZM45.3842 11.4372C45.5566 11.6221 45.7651 11.7695 45.9965 11.8703C46.228 11.9711 46.4777 12.0231 46.73 12.0231C46.9823 12.0231 47.2319 11.9711 47.4634 11.8703C47.6949 11.7695 47.9034 11.6221 48.0758 11.4372C48.2639 11.242 48.4111 11.011 48.5088 10.7578C48.6066 10.5046 48.6528 10.2343 48.6449 9.96287C48.6533 9.69052 48.6072 9.41924 48.5095 9.16504C48.4118 8.91085 48.2643 8.6789 48.0758 8.48287C47.9011 8.29982 47.6913 8.15416 47.459 8.05466C47.2267 7.95515 46.9768 7.90385 46.7243 7.90385C46.4718 7.90385 46.2219 7.95515 45.9896 8.05466C45.7573 8.15416 45.5475 8.29982 45.3728 8.48287C45.1843 8.6789 45.0368 8.91085 44.9391 9.16504C44.8414 9.41924 44.7953 9.69052 44.8037 9.96287C44.7965 10.2347 44.8437 10.5052 44.9424 10.7585C45.0411 11.0117 45.1894 11.2425 45.3785 11.4372H45.3842ZM54.0111 16.4143C53.3291 16.4361 52.6602 16.2223 52.1161 15.8086C51.6331 15.4439 51.2527 14.9596 51.0122 14.4029L52.3096 13.86C52.4508 14.1927 52.6717 14.4852 52.9527 14.7114C53.2534 14.9549 53.6307 15.0825 54.0168 15.0714C54.2616 15.0864 54.5068 15.0482 54.7356 14.9595C54.9644 14.8707 55.1715 14.7335 55.3427 14.5572C55.6856 14.1419 55.8549 13.6094 55.815 13.0714V12.58H55.7638C55.547 12.8386 55.2731 13.043 54.964 13.1769C54.6548 13.3108 54.3188 13.3706 53.9827 13.3514C53.5554 13.3527 53.1325 13.265 52.7407 13.0939C52.349 12.9228 51.9968 12.6719 51.7064 12.3572C51.3914 12.0449 51.1427 11.6717 50.9754 11.2602C50.8082 10.8486 50.7258 10.4073 50.7333 9.96287C50.7255 9.51584 50.8076 9.07182 50.9748 8.65744C51.142 8.24307 51.3909 7.86688 51.7064 7.55144C51.996 7.23538 52.348 6.98326 52.7398 6.81111C53.1317 6.63895 53.5549 6.55052 53.9827 6.55144C54.3447 6.5508 54.7023 6.63082 55.0297 6.78573C55.313 6.90995 55.5656 7.09529 55.7695 7.32858H55.8207V6.78573H57.232V12.8714C57.2692 13.3529 57.2081 13.8368 57.0525 14.2937C56.8969 14.7506 56.6501 15.1708 56.3272 15.5286C56.0196 15.8241 55.6562 16.0547 55.2584 16.2068C54.8606 16.3589 54.4365 16.4295 54.0111 16.4143ZM54.1136 12.0257C54.3565 12.0311 54.5977 11.9827 54.82 11.8839C55.0423 11.7852 55.2402 11.6385 55.3996 11.4543C55.7507 11.0503 55.9358 10.5274 55.9175 9.99144C55.9386 9.44648 55.7536 8.91368 55.3996 8.50001C55.2404 8.31552 55.0426 8.16863 54.8202 8.06985C54.5979 7.97106 54.3566 7.92282 54.1136 7.92858C53.8639 7.92344 53.6161 7.97173 53.3865 8.07026C53.1569 8.16879 52.9508 8.31529 52.7819 8.50001C52.4055 8.89882 52.201 9.43067 52.2129 9.98001C52.2071 10.2495 52.2544 10.5174 52.3521 10.7685C52.4497 11.0195 52.5958 11.2487 52.7819 11.4429C52.95 11.6294 53.1556 11.7778 53.3852 11.8783C53.6148 11.9788 53.8631 12.0291 54.1136 12.0257ZM59.7416 3.16858V13.1572H58.2563V3.16858H59.7416ZM63.816 13.3629C63.3712 13.3744 62.9289 13.2935 62.5166 13.1253C62.1044 12.9572 61.7311 12.7054 61.4203 12.3857C61.1049 12.0684 60.857 11.69 60.6916 11.2735C60.5263 10.857 60.447 10.4111 60.4586 9.96287C60.4418 9.51356 60.5152 9.06544 60.6746 8.64525C60.8339 8.22506 61.0759 7.8414 61.3862 7.51716C61.6785 7.20771 62.0319 6.96298 62.4239 6.79865C62.8159 6.63432 63.2377 6.55401 63.6624 6.56287C64.0529 6.55873 64.4402 6.63456 64.8005 6.78573C65.1251 6.91729 65.4209 7.11142 65.6712 7.35716C65.8861 7.56548 66.077 7.79741 66.2402 8.04858C66.3723 8.26065 66.4847 8.48445 66.576 8.71715L66.7296 9.10573L62.1771 10.9857C62.3148 11.3034 62.5451 11.5717 62.8377 11.7553C63.1303 11.9389 63.4714 12.0292 63.816 12.0143C64.1514 12.0152 64.4813 11.9288 64.7735 11.7636C65.0657 11.5984 65.3103 11.3599 65.4834 11.0714L66.6215 11.8429C66.3311 12.2601 65.9594 12.6139 65.5289 12.8829C65.017 13.2076 64.4215 13.3745 63.816 13.3629ZM61.9154 9.86001L64.9428 8.59716C64.8495 8.37448 64.6827 8.19086 64.4705 8.07716C64.2328 7.94238 63.9638 7.87337 63.6908 7.87715C63.2277 7.8892 62.7881 8.08428 62.4674 8.42001C62.2755 8.60442 62.1265 8.82912 62.031 9.07804C61.9356 9.32697 61.8961 9.59398 61.9154 9.86001Z" fill="#111827"/>
<path d="M74.5093 13.3629C73.8776 13.3738 73.2503 13.2565 72.6649 13.0179C72.0795 12.7793 71.5482 12.4244 71.1028 11.9745C70.6574 11.5246 70.3072 10.989 70.0731 10.3998C69.839 9.81057 69.7259 9.17993 69.7405 8.54573C69.7259 7.91152 69.839 7.28088 70.0731 6.69167C70.3072 6.10245 70.6574 5.56681 71.1028 5.11691C71.5482 4.667 72.0795 4.31211 72.6649 4.07354C73.2503 3.83497 73.8776 3.71763 74.5093 3.72858C75.1486 3.70851 75.7841 3.83377 76.3685 4.09499C76.9528 4.35622 77.4708 4.74667 77.8838 5.23716L77.0643 6.03715C76.7612 5.65424 76.3723 5.34857 75.9293 5.14502C75.4863 4.94147 75.0017 4.84578 74.5149 4.86573C74.0464 4.85513 73.5805 4.93977 73.1453 5.11456C72.7101 5.28935 72.3147 5.55069 71.9826 5.88287C71.6374 6.23145 71.3677 6.64794 71.1905 7.10619C71.0132 7.56445 70.9322 8.05455 70.9526 8.54573C70.9322 9.0369 71.0132 9.52701 71.1905 9.98526C71.3677 10.4435 71.6374 10.86 71.9826 11.2086C72.3147 11.5408 72.7101 11.8021 73.1453 11.9769C73.5805 12.1517 74.0464 12.2363 74.5149 12.2257C75.0588 12.2318 75.597 12.1148 76.0896 11.8833C76.5822 11.6518 77.0165 11.3118 77.3602 10.8886L78.1797 11.7114C77.7506 12.2266 77.212 12.6386 76.6034 12.9172C75.9474 13.2213 75.2317 13.3736 74.5093 13.3629Z" fill="#111827"/>
<path d="M80.3821 13.1571H79.2041V3.92856H80.3821V13.1571Z" fill="#111827"/>
<path d="M82.3046 7.60285C82.9218 6.9873 83.7565 6.64185 84.6264 6.64185C85.4963 6.64185 86.3309 6.9873 86.9481 7.60285C87.25 7.92286 87.4858 8.29965 87.6421 8.71154C87.7983 9.12343 87.8719 9.56228 87.8586 10.0028C87.8719 10.4434 87.7983 10.8823 87.6421 11.2942C87.4858 11.706 87.25 12.0828 86.9481 12.4028C86.3309 13.0184 85.4963 13.3638 84.6264 13.3638C83.7565 13.3638 82.9218 13.0184 82.3046 12.4028C82.0028 12.0828 81.7669 11.706 81.6107 11.2942C81.4544 10.8823 81.3808 10.4434 81.3941 10.0028C81.3808 9.56228 81.4544 9.12343 81.6107 8.71154C81.7669 8.29965 82.0028 7.92286 82.3046 7.60285ZM83.181 11.66C83.3666 11.857 83.5902 12.0138 83.8382 12.1211C84.0863 12.2283 84.3535 12.2836 84.6235 12.2836C84.8936 12.2836 85.1608 12.2283 85.4088 12.1211C85.6568 12.0138 85.8805 11.857 86.0661 11.66C86.272 11.4381 86.4319 11.1774 86.5364 10.8929C86.6409 10.6084 86.688 10.3058 86.675 10.0028C86.688 9.69988 86.6409 9.39733 86.5364 9.11283C86.4319 8.82832 86.272 8.56755 86.0661 8.3457C85.8805 8.14874 85.6568 7.99186 85.4088 7.88464C85.1608 7.77742 84.8936 7.72212 84.6235 7.72212C84.3535 7.72212 84.0863 7.77742 83.8382 7.88464C83.5902 7.99186 83.3666 8.14874 83.181 8.3457C82.9751 8.56755 82.8152 8.82832 82.7107 9.11283C82.6061 9.39733 82.559 9.69988 82.5721 10.0028C82.5605 10.3053 82.6089 10.607 82.7144 10.8905C82.8199 11.1739 82.9804 11.4336 83.1867 11.6543L83.181 11.66Z" fill="#111827"/>
<path d="M94.3863 13.1571H93.2481V12.2829H93.214C93.0114 12.6149 92.7247 12.887 92.3832 13.0714C92.0287 13.2777 91.6263 13.3861 91.2166 13.3857C90.884 13.4086 90.5505 13.3557 90.2411 13.231C89.9317 13.1063 89.6544 12.9131 89.4297 12.6657C88.9987 12.1182 88.7821 11.4312 88.8208 10.7343V6.84857H89.9988V10.5171C89.9988 11.6943 90.5166 12.2829 91.5523 12.2829C91.7825 12.2901 92.0109 12.242 92.2188 12.1426C92.4267 12.0432 92.6079 11.8954 92.7474 11.7114C93.0527 11.3229 93.2155 10.8406 93.2083 10.3457V6.84857H94.3863V13.1571Z" fill="#111827"/>
<path d="M98.3863 13.3628C97.9867 13.3642 97.5916 13.2785 97.2281 13.1118C96.8646 12.9451 96.5414 12.7013 96.2808 12.3971C95.6908 11.7428 95.3748 10.8852 95.3987 10.0028C95.3748 9.12049 95.6908 8.26289 96.2808 7.60856C96.5414 7.3044 96.8646 7.06058 97.2281 6.89386C97.5916 6.72715 97.9867 6.64151 98.3863 6.64284C98.834 6.63575 99.2762 6.74186 99.6724 6.95142C100.02 7.12731 100.315 7.3937 100.526 7.72284H100.577L100.526 6.84856V3.92856H101.704V13.1571H100.566V12.2828H100.515C100.304 12.612 100.009 12.8784 99.661 13.0543C99.2683 13.262 98.8301 13.368 98.3863 13.3628ZM98.5798 12.2828C98.846 12.2867 99.1101 12.2337 99.3544 12.1273C99.5987 12.0209 99.8176 11.8636 99.9967 11.6657C100.397 11.2082 100.601 10.6107 100.566 10.0028C100.601 9.39497 100.397 8.79751 99.9967 8.33999C99.8165 8.14104 99.5968 7.9821 99.3518 7.87334C99.1068 7.76458 98.8419 7.7084 98.5741 7.7084C98.3062 7.7084 98.0413 7.76458 97.7963 7.87334C97.5514 7.9821 97.3317 8.14104 97.1514 8.33999C96.9527 8.56502 96.8001 8.82724 96.7024 9.1116C96.6048 9.39597 96.564 9.6969 96.5824 9.99713C96.564 10.2974 96.6048 10.5983 96.7024 10.8827C96.8001 11.167 96.9527 11.4292 97.1514 11.6543C97.3308 11.8557 97.5511 12.016 97.7976 12.1245C98.044 12.2329 98.3107 12.2869 98.5798 12.2828Z" fill="#111827"/>
</g>
<defs>
<clipPath id="clip0_1234_1321">
<rect width="103" height="16" fill="white" transform="translate(0.457031 0.5)"/>
</clipPath>
</defs>
</svg>
