<svg width="3033" height="2273" viewBox="0 0 3033 2273" fill="none" xmlns="http://www.w3.org/2000/svg">
<g filter="url(#filter0_f_6061_3839)">
<ellipse cx="1592.4" cy="1136.04" rx="966.704" ry="662.342" fill="#DEE4FE"/>
<ellipse cx="1396.54" cy="1029.55" rx="777.842" ry="526.853" fill="#9BAEFA"/>
<ellipse cx="1239.62" cy="1176.93" rx="765.92" ry="482.226" fill="#243B99" fill-opacity="0.8"/>
</g>
<mask id="mask0_6061_3839" style="mask-type:alpha" maskUnits="userSpaceOnUse" x="1093" y="519" width="1153" height="1038">
<path d="M1093.7 519.699L1093.7 1556.7M1115.01 519.699L1115.01 1556.7M1136.33 519.699L1136.33 1556.7M1157.64 519.699L1157.64 1556.7M1178.96 519.699L1178.96 1556.7M1200.27 519.699L1200.27 1556.7M1221.59 519.699L1221.59 1556.7M1242.9 519.699L1242.9 1556.7M1264.22 519.699L1264.22 1556.7M1285.53 519.699L1285.53 1556.7M1306.85 519.699L1306.85 1556.7M1328.16 519.699L1328.16 1556.7M1349.48 519.699L1349.48 1556.7M1370.79 519.699L1370.79 1556.7M1392.11 519.699L1392.11 1556.7M1413.42 519.699L1413.42 1556.7M1434.74 519.699L1434.74 1556.7M1456.05 519.699L1456.05 1556.7M1477.37 519.699L1477.37 1556.7M1498.68 519.699L1498.68 1556.7M1520 519.699L1520 1556.7M1541.31 519.699L1541.31 1556.7M1562.62 519.699L1562.62 1556.7M1583.94 519.699L1583.94 1556.7M1605.25 519.699L1605.25 1556.7M1626.57 519.699L1626.57 1556.7M1647.88 519.699L1647.88 1556.7M1669.2 519.699L1669.2 1556.7M1690.51 519.699L1690.51 1556.7M1711.83 519.699L1711.83 1556.7M1733.14 519.699L1733.14 1556.7M1754.46 519.699L1754.46 1556.7M1775.77 519.699L1775.77 1556.7M1797.09 519.699L1797.09 1556.7M1818.4 519.699L1818.4 1556.7M1839.72 519.699L1839.72 1556.7M1861.03 519.699L1861.03 1556.7M1882.35 519.699L1882.35 1556.7M1903.66 519.699L1903.66 1556.7M1924.98 519.699L1924.98 1556.7M1946.29 519.699L1946.29 1556.7M1967.61 519.699L1967.61 1556.7M1988.92 519.699L1988.92 1556.7M2010.24 519.699L2010.24 1556.7M2031.55 519.699L2031.55 1556.7M2052.87 519.699L2052.87 1556.7M2074.18 519.699L2074.18 1556.7M2095.5 519.699L2095.5 1556.7M2116.81 519.699L2116.81 1556.7M2138.13 519.699L2138.13 1556.7M2159.44 519.699L2159.44 1556.7M2180.75 519.699L2180.75 1556.7M2202.07 519.699L2202.07 1556.7M2223.38 519.699L2223.38 1556.7M2244.7 519.699L2244.7 1556.7" stroke="url(#paint0_radial_6061_3839)"/>
</mask>
<g mask="url(#mask0_6061_3839)">
<g filter="url(#filter1_f_6061_3839)">
<path d="M2076.7 1096.14C2076.7 1376.78 1928.74 1452.7 1599.97 1452.7C1271.2 1452.7 1034.7 1337.92 1034.7 1057.28C1034.7 776.63 1412.27 507.699 1741.04 507.699C1863.55 507.699 1892.71 650.17 1942.13 720.783C2025.34 839.673 2076.7 932.715 2076.7 1096.14Z" fill="url(#paint1_radial_6061_3839)" fill-opacity="0.41"/>
</g>
</g>
<defs>
<filter id="filter0_f_6061_3839" x="-0.000793457" y="-0.000793457" width="3032.81" height="2272.08" filterUnits="userSpaceOnUse" color-interpolation-filters="sRGB">
<feFlood flood-opacity="0" result="BackgroundImageFix"/>
<feBlend mode="normal" in="SourceGraphic" in2="BackgroundImageFix" result="shape"/>
<feGaussianBlur stdDeviation="236.85" result="effect1_foregroundBlur_6061_3839"/>
</filter>
<filter id="filter1_f_6061_3839" x="925.899" y="398.899" width="1259.6" height="1162.6" filterUnits="userSpaceOnUse" color-interpolation-filters="sRGB">
<feFlood flood-opacity="0" result="BackgroundImageFix"/>
<feBlend mode="normal" in="SourceGraphic" in2="BackgroundImageFix" result="shape"/>
<feGaussianBlur stdDeviation="54.4" result="effect1_foregroundBlur_6061_3839"/>
</filter>
<radialGradient id="paint0_radial_6061_3839" cx="0" cy="0" r="1" gradientUnits="userSpaceOnUse" gradientTransform="translate(1669.7 1058.98) rotate(-90) scale(357 640.594)">
<stop stop-color="white"/>
<stop offset="1" stop-color="white"/>
</radialGradient>
<radialGradient id="paint1_radial_6061_3839" cx="0" cy="0" r="1" gradientUnits="userSpaceOnUse" gradientTransform="translate(1636.99 836.079) rotate(-90) scale(525.664 615.795)">
<stop stop-color="white" stop-opacity="0.1"/>
<stop offset="0.577772" stop-color="white" stop-opacity="0.2"/>
<stop offset="1" stop-color="white"/>
</radialGradient>
</defs>
</svg>
