<svg width="315" height="234" viewBox="0 0 315 234" fill="none" xmlns="http://www.w3.org/2000/svg">
<g filter="url(#filter0_d_911_655)">
<path d="M297 90.9562L231.28 18H31.5C24.0442 18 18 24.0274 18 31.4833V397.537C18 405.032 24.0403 410.956 31.535 410.909C73.5044 410.641 203.422 409.933 283.358 410.824C290.892 410.908 297 404.833 297 397.299V90.9562Z" fill="white"/>
</g>
<path d="M43.9363 41.2811V52.6731H41.4243V41.2811H43.9363ZM53.3591 52.6731H51.0551V47.8571C51.0551 47.2811 50.9591 46.8331 50.7671 46.5291C50.5751 46.2251 50.1911 46.0651 49.6471 46.0651C48.4471 46.0651 47.8551 46.8011 47.8551 48.2411V52.6731H45.5991V44.4171H47.7591V45.5691C48.4311 44.6571 49.3431 44.1931 50.4951 44.1931C51.3751 44.1931 52.0791 44.4491 52.5911 44.9611C53.1031 45.4731 53.3591 46.2091 53.3591 47.1531V52.6731ZM59.8834 44.4171H62.1394L59.3394 52.6731H56.7954L53.9634 44.4171H56.3634L58.1234 50.0491L59.8834 44.4171ZM66.8039 44.1771C68.0679 44.1771 69.0919 44.5771 69.8599 45.3771C70.6279 46.1771 71.0279 47.2331 71.0279 48.5451C71.0279 49.8731 70.6279 50.9291 69.8599 51.7291C69.0919 52.5291 68.0519 52.9291 66.7719 52.9291C65.4759 52.9291 64.4359 52.5291 63.6679 51.7291C62.8839 50.9291 62.4999 49.8731 62.4999 48.5451C62.4999 47.2331 62.8839 46.1771 63.6839 45.3771C64.4679 44.5771 65.5079 44.1771 66.8039 44.1771ZM66.7399 45.9051C66.1319 45.9051 65.6519 46.1451 65.2999 46.6251C64.9479 47.0891 64.7719 47.7291 64.7719 48.5611C64.7719 49.3931 64.9479 50.0491 65.2999 50.5291C65.6519 50.9931 66.1319 51.2331 66.7719 51.2331C67.3959 51.2331 67.8759 50.9931 68.2279 50.5131C68.5799 50.0331 68.7559 49.3771 68.7559 48.5291C68.7559 47.7131 68.5639 47.0731 68.2119 46.6091C67.8599 46.1451 67.3639 45.9051 66.7399 45.9051ZM74.5372 41.2811V43.2011H72.2652V41.2811H74.5372ZM74.5372 44.4171V52.6731H72.2652V44.4171H74.5372ZM83.8782 49.4891C83.7342 50.5611 83.3182 51.3931 82.6142 52.0011C81.9102 52.5931 81.0142 52.8971 79.9262 52.8971C78.6462 52.8971 77.6382 52.4971 76.8702 51.7291C76.1022 50.9451 75.7182 49.9051 75.7182 48.6091C75.7182 47.2811 76.1022 46.2091 76.8702 45.3931C77.6382 44.5931 78.6782 44.1771 79.9582 44.1771C81.0462 44.1771 81.9422 44.4651 82.6462 45.0251C83.3342 45.5851 83.7342 46.3371 83.8302 47.2971H81.6062C81.4302 46.3531 80.8862 45.8731 79.9742 45.8731C79.3502 45.8731 78.8702 46.1131 78.5182 46.5931C78.1662 47.0731 78.0062 47.7291 78.0062 48.5771C78.0062 49.3931 78.1662 50.0331 78.5022 50.4811C78.8382 50.9291 79.3182 51.1531 79.9262 51.1531C80.9182 51.1531 81.4942 50.6091 81.6862 49.4891H83.8782ZM92.6337 50.1131C92.3777 51.0091 91.8977 51.6971 91.2097 52.1771C90.5217 52.6731 89.7057 52.9131 88.7457 52.9131C87.4817 52.9131 86.4577 52.5291 85.6897 51.7291C84.9217 50.9451 84.5377 49.9051 84.5377 48.5931C84.5377 47.3131 84.9217 46.2571 85.7057 45.4251C86.4737 44.5931 87.4657 44.1771 88.6817 44.1771C89.9297 44.1771 90.9217 44.6091 91.6577 45.4571C92.3937 46.3051 92.7617 47.4571 92.7617 48.8971V49.1211H86.8417C86.8417 49.8411 87.0177 50.3851 87.3537 50.7531C87.6897 51.1371 88.1697 51.3131 88.7777 51.3131C89.5777 51.3131 90.1377 50.9131 90.4577 50.1131H92.6337ZM90.4417 47.6811C90.3937 47.1371 90.2177 46.7051 89.9137 46.3531C89.6257 46.0011 89.2097 45.8251 88.6657 45.8251C88.1697 45.8251 87.7537 46.0011 87.4177 46.3211C87.0977 46.6571 86.8897 47.1051 86.8257 47.6811H90.4417Z" fill="#1A1A1A"/>
<path d="M231.279 83.0577V18L296.999 91.0577H239.279C234.861 91.0577 231.279 87.476 231.279 83.0577Z" fill="#D9D9D9"/>
<rect x="41.5586" y="83.5" width="103.483" height="5.03846" rx="2.51923" fill="#D9D9D9"/>
<rect x="41.5586" y="93.5771" width="121.745" height="5.03846" rx="2.51923" fill="#D9D9D9"/>
<rect x="41.5586" y="103.654" width="135.441" height="5.03846" rx="2.51923" fill="#D9D9D9"/>
<rect x="41.5586" y="113.73" width="63.9162" height="5.03846" rx="2.51923" fill="#D9D9D9"/>
<rect x="41.5586" y="123.808" width="109.571" height="5.03846" rx="2.51923" fill="#D9D9D9"/>
<rect x="40.3203" y="154.039" width="130.68" height="5.03846" rx="2.51923" fill="#D9D9D9"/>
<rect x="40.3203" y="164.116" width="61.6691" height="5.03846" rx="2.51923" fill="#D9D9D9"/>
<rect x="40.3203" y="174.193" width="105.718" height="5.03846" rx="2.51923" fill="#D9D9D9"/>
<rect x="40.3203" y="201.903" width="97.6797" height="5.03846" rx="2.51923" fill="#D9D9D9"/>
<rect x="40.3203" y="211.98" width="46.096" height="5.03846" rx="2.51923" fill="#D9D9D9"/>
<rect x="40.3203" y="222.058" width="79.0218" height="5.03846" rx="2.51923" fill="#D9D9D9"/>
<defs>
<filter id="filter0_d_911_655" x="0" y="0" width="315" height="428.909" filterUnits="userSpaceOnUse" color-interpolation-filters="sRGB">
<feFlood flood-opacity="0" result="BackgroundImageFix"/>
<feColorMatrix in="SourceAlpha" type="matrix" values="0 0 0 0 0 0 0 0 0 0 0 0 0 0 0 0 0 0 127 0" result="hardAlpha"/>
<feOffset/>
<feGaussianBlur stdDeviation="9"/>
<feComposite in2="hardAlpha" operator="out"/>
<feColorMatrix type="matrix" values="0 0 0 0 0 0 0 0 0 0 0 0 0 0 0 0 0 0 0.08 0"/>
<feBlend mode="normal" in2="BackgroundImageFix" result="effect1_dropShadow_911_655"/>
<feBlend mode="normal" in="SourceGraphic" in2="effect1_dropShadow_911_655" result="shape"/>
</filter>
</defs>
</svg>
