<svg width="1920" height="973" viewBox="0 0 1920 973" fill="none" xmlns="http://www.w3.org/2000/svg">
<g filter="url(#filter0_f_911_370)">
<path d="M-200 828.921C-60.7122 688.553 57.7185 551.863 228.902 442.066C338.219 371.95 458.347 330.278 589.146 311.657C647.342 303.373 843.77 305.048 897.967 305.227C983.607 305.509 1195.49 309.327 1280.25 302.397C1393.72 293.12 1505.46 272.158 1606.31 221.117C1711.41 167.92 1823.45 74.2796 1894.22 -12.9509C1960.52 -94.6776 2002.12 -185.407 2032.1 -282" stroke="#DBE2FE" stroke-width="40" stroke-linecap="round"/>
<path d="M-152 881.827C-12.7122 741.459 105.718 604.769 276.902 494.972C386.219 424.856 506.347 383.183 637.146 364.563C695.342 356.278 891.77 357.954 945.967 358.133C1031.61 358.415 1243.49 362.233 1328.25 355.303C1441.72 346.025 1553.46 325.064 1654.31 274.022C1759.41 220.825 1871.45 127.185 1942.22 39.9549C2008.52 -41.7718 2050.12 -132.501 2080.1 -229.094" stroke="#EEDBFD" stroke-width="40" stroke-linecap="round"/>
<path d="M-112 941C27.2878 800.633 145.718 663.942 316.902 554.145C426.219 484.03 546.347 442.357 677.146 423.736C735.342 415.452 931.77 417.127 985.967 417.306C1071.61 417.589 1283.49 421.406 1368.25 414.477C1481.72 405.199 1593.46 384.237 1694.31 333.196C1799.41 279.999 1911.45 186.359 1982.22 99.1283C2048.52 17.4016 2090.12 -73.3275 2120.1 -169.921" stroke="#FFE0CD" stroke-width="40" stroke-linecap="round"/>
</g>
<defs>
<filter id="filter0_f_911_370" x="-332" y="-414.005" width="2584.11" height="1487.01" filterUnits="userSpaceOnUse" color-interpolation-filters="sRGB">
<feFlood flood-opacity="0" result="BackgroundImageFix"/>
<feBlend mode="normal" in="SourceGraphic" in2="BackgroundImageFix" result="shape"/>
<feGaussianBlur stdDeviation="56" result="effect1_foregroundBlur_911_370"/>
</filter>
</defs>
</svg>
