<svg width="57" height="17" viewBox="0 0 57 17" fill="none" xmlns="http://www.w3.org/2000/svg">
<g clip-path="url(#clip0_1234_1247)">
<path d="M15.1576 16.2803H12.8408V5.06577H15.1576V16.2803Z" fill="#111827"/>
<path d="M23.5288 4.84521C24.8077 4.84521 25.8525 5.29129 26.662 6.18346C27.4705 7.07561 27.8758 8.20989 27.8758 9.58518V16.2787H25.559V9.93629C25.559 9.07312 25.2795 8.35934 24.7203 7.79632C24.1612 7.23318 23.4705 6.95164 22.647 6.95164C21.7199 6.95164 20.9627 7.23318 20.3745 7.79632C19.7863 8.35934 19.4916 9.07312 19.4916 9.93629V16.2787H17.1748V5.06536H19.4916V7.96195C19.8003 6.99679 20.3116 6.23558 21.0256 5.67943C21.7385 5.12329 22.5736 4.84521 23.5299 4.84521H23.5288Z" fill="#111827"/>
<path d="M35.0991 4.84521C36.908 4.84521 38.3792 5.48942 39.5114 6.77665C40.6436 8.06506 41.1071 9.62227 40.9009 11.4518H31.5686C31.7305 12.359 32.1498 13.0947 32.8266 13.6578C33.5033 14.2209 34.3187 14.5025 35.275 14.5025C36.0099 14.5025 36.6681 14.3228 37.2493 13.9648C37.8306 13.6069 38.2825 13.1202 38.6063 12.5049L40.548 13.3612C40.0484 14.3124 39.3343 15.0725 38.4083 15.6437C37.4823 16.2149 36.4153 16.5 35.2086 16.5C33.5173 16.5 32.0974 15.9438 30.9501 14.8326C29.8028 13.7215 29.2285 12.3381 29.2285 10.6848C29.2285 9.03134 29.7911 7.64562 30.9163 6.52521C32.0415 5.40599 33.4346 4.84638 35.0979 4.84638L35.0991 4.84521ZM35.0991 6.84272C34.2453 6.84272 33.5069 7.10228 32.8813 7.62251C32.2559 8.14156 31.84 8.81819 31.635 9.65238H38.5632C38.3722 8.81819 37.9633 8.14156 37.339 7.62251C36.7135 7.1034 35.9669 6.84272 35.0991 6.84272Z" fill="#111827"/>
<path d="M47.306 4.84521C48.6594 4.84521 49.7625 5.19628 50.6151 5.89841C51.4678 6.60059 51.8952 7.6109 51.8952 8.92711V16.2798H49.5784V13.2952C48.8865 15.4316 47.497 16.5 45.4085 16.5C44.437 16.5 43.6287 16.2114 42.981 15.6333C42.3334 15.0551 42.0107 14.2985 42.0107 13.3624C42.0107 12.2652 42.3998 11.4414 43.1802 10.8933C43.9594 10.3452 44.953 10.0046 46.1586 9.87253L48.3426 9.65238C49.1661 9.57943 49.5784 9.21333 49.5784 8.55513C49.5784 8.0141 49.3688 7.58192 48.9495 7.26097C48.5302 6.9389 47.9827 6.77783 47.306 6.77783C46.6292 6.77783 46.0293 6.95395 45.5517 7.305C45.0742 7.65605 44.769 8.16817 44.6363 8.84136L42.3415 8.29214C42.5477 7.23899 43.0986 6.40124 43.9967 5.77908C44.8936 5.15805 45.9966 4.84638 47.306 4.84638V4.84521ZM46.1586 14.6334C47.1149 14.6334 47.9233 14.3148 48.5849 13.6786C49.2465 13.0426 49.5773 12.2999 49.5773 11.4506V10.8366C49.4014 11.1297 48.9739 11.3116 48.2972 11.3845L46.1574 11.6476C45.5983 11.7217 45.1534 11.8851 44.8225 12.1412C44.4918 12.3972 44.3264 12.7448 44.3264 13.1839C44.3264 13.6231 44.4918 13.9742 44.8225 14.2371C45.1534 14.5001 45.5983 14.6322 46.1574 14.6322L46.1586 14.6334Z" fill="#111827"/>
<path d="M11.245 16.2803H0.543945V5.06577H2.99236V14.1078H11.245V16.2803Z" fill="#111827"/>
<path d="M54.0796 4.84489C55.2857 4.84489 56.2635 3.87225 56.2635 2.67244C56.2635 1.47264 55.2857 0.5 54.0796 0.5C52.8733 0.5 51.8955 1.47264 51.8955 2.67244C51.8955 3.87225 52.8733 4.84489 54.0796 4.84489Z" fill="#111827"/>
</g>
<defs>
<clipPath id="clip0_1234_1247">
<rect width="56" height="16" fill="white" transform="translate(0.543945 0.5)"/>
</clipPath>
</defs>
</svg>
