<svg width="43" height="41" viewBox="0 0 43 41" fill="none" xmlns="http://www.w3.org/2000/svg">
<path d="M31.0917 35.5458L38.7292 27.8542C39.1625 27.4208 39.6771 27.2042 40.2729 27.2042C40.8688 27.2042 41.3833 27.4208 41.8167 27.8542C42.25 28.2875 42.4667 28.8021 42.4667 29.3979C42.4667 29.9937 42.25 30.5083 41.8167 30.9417L32.6083 40.15C32.175 40.5833 31.6604 40.8 31.0646 40.8C30.4688 40.8 29.9542 40.5833 29.5208 40.15L24.9167 35.5458C24.5194 35.1125 24.3208 34.5979 24.3208 34.0021C24.3208 33.4062 24.5375 32.8917 24.9708 32.4583C25.4042 32.025 25.9097 31.8083 26.4875 31.8083C27.0653 31.8083 27.5708 32.025 28.0042 32.4583L31.0917 35.5458ZM10.8333 22.1667C11.4472 22.1667 11.9618 21.959 12.3771 21.5437C12.7924 21.1285 13 20.6139 13 20C13 19.3861 12.7924 18.8715 12.3771 18.4562C11.9618 18.041 11.4472 17.8333 10.8333 17.8333C10.2194 17.8333 9.70486 18.041 9.28958 18.4562C8.87431 18.8715 8.66667 19.3861 8.66667 20C8.66667 20.6139 8.87431 21.1285 9.28958 21.5437C9.70486 21.959 10.2194 22.1667 10.8333 22.1667ZM10.8333 13.5C11.4472 13.5 11.9618 13.2924 12.3771 12.8771C12.7924 12.4618 13 11.9472 13 11.3333C13 10.7194 12.7924 10.2049 12.3771 9.78958C11.9618 9.3743 11.4472 9.16667 10.8333 9.16667C10.2194 9.16667 9.70486 9.3743 9.28958 9.78958C8.87431 10.2049 8.66667 10.7194 8.66667 11.3333C8.66667 11.9472 8.87431 12.4618 9.28958 12.8771C9.70486 13.2924 10.2194 13.5 10.8333 13.5ZM28.1667 22.1667C28.7806 22.1667 29.2951 21.959 29.7104 21.5437C30.1257 21.1285 30.3333 20.6139 30.3333 20C30.3333 19.3861 30.1257 18.8715 29.7104 18.4562C29.2951 18.041 28.7806 17.8333 28.1667 17.8333H19.5C18.8861 17.8333 18.3715 18.041 17.9563 18.4562C17.541 18.8715 17.3333 19.3861 17.3333 20C17.3333 20.6139 17.541 21.1285 17.9563 21.5437C18.3715 21.959 18.8861 22.1667 19.5 22.1667H28.1667ZM28.1667 13.5C28.7806 13.5 29.2951 13.2924 29.7104 12.8771C30.1257 12.4618 30.3333 11.9472 30.3333 11.3333C30.3333 10.7194 30.1257 10.2049 29.7104 9.78958C29.2951 9.3743 28.7806 9.16667 28.1667 9.16667H19.5C18.8861 9.16667 18.3715 9.3743 17.9563 9.78958C17.541 10.2049 17.3333 10.7194 17.3333 11.3333C17.3333 11.9472 17.541 12.4618 17.9563 12.8771C18.3715 13.2924 18.8861 13.5 19.5 13.5H28.1667ZM4.33333 39.5C3.14167 39.5 2.12153 39.0757 1.27292 38.2271C0.424306 37.3785 0 36.3583 0 35.1667V4.83333C0 3.64167 0.424306 2.62153 1.27292 1.77292C2.12153 0.924306 3.14167 0.5 4.33333 0.5H34.6667C35.8583 0.5 36.8785 0.924306 37.7271 1.77292C38.5757 2.62153 39 3.64167 39 4.83333V19.7292C39 20.3069 38.8826 20.8576 38.6479 21.3812C38.4132 21.9049 38.0972 22.3653 37.7 22.7625L31.0917 29.425L29.5208 27.8542C28.6903 27.0236 27.6701 26.6083 26.4604 26.6083C25.2507 26.6083 24.2306 27.0236 23.4 27.8542L20.3667 30.9417C19.9333 31.375 19.6083 31.8535 19.3917 32.3771C19.175 32.9007 19.0667 33.4333 19.0667 33.975C19.0667 34.4806 19.1389 34.941 19.2833 35.3562C19.4278 35.7715 19.6444 36.1778 19.9333 36.575C20.3667 37.1889 20.4479 37.8299 20.1771 38.4979C19.9062 39.166 19.4278 39.5 18.7417 39.5H4.33333Z" fill="#2872FF"/>
</svg>
