<svg width="80" height="32" viewBox="0 0 80 32" fill="none" xmlns="http://www.w3.org/2000/svg">
<path d="M6.65263 27.3069C5.43626 27.3069 4.32281 26.994 3.31228 26.3682C2.30175 25.7235 1.49708 24.8322 0.898246 23.6944C0.299415 22.5377 0 21.2293 0 19.7691C0 18.309 0.299415 17.01 0.898246 15.8722C1.49708 14.7155 2.30175 13.8242 3.31228 13.1984C4.32281 12.5537 5.43626 12.2313 6.65263 12.2313C7.53216 12.2313 8.30877 12.3925 8.98246 12.7149C9.65311 13.0271 10.1394 13.3661 10.4414 13.7317C10.4598 13.754 10.4871 13.7673 10.516 13.7673V13.7673C10.5682 13.7673 10.6105 13.725 10.6105 13.6728V7.86133C10.6105 7.44711 10.9463 7.11133 11.3605 7.11133H14.0991C14.5133 7.11133 14.8491 7.44711 14.8491 7.86133V26.2724C14.8491 26.6867 14.5133 27.0224 14.0991 27.0224H11.8164C11.4582 27.0224 11.15 26.7691 11.0806 26.4177L10.9362 25.6861C10.9264 25.6362 10.8826 25.6002 10.8318 25.6002V25.6002C10.7985 25.6002 10.7672 25.6159 10.7466 25.642C10.3737 26.1164 9.84179 26.5101 9.15088 26.8233C8.45848 27.1457 7.62573 27.3069 6.65263 27.3069ZM7.4386 23.3531C8.35556 23.3531 9.11345 23.0307 9.71228 22.386C10.3111 21.7223 10.6105 20.85 10.6105 19.7691C10.6105 18.6882 10.3111 17.8254 9.71228 17.1807C9.11345 16.5359 8.35556 16.2136 7.4386 16.2136C6.52164 16.2136 5.76374 16.5359 5.16491 17.1807C4.56608 17.8254 4.26667 18.6882 4.26667 19.7691C4.26667 20.85 4.56608 21.7223 5.16491 22.386C5.76374 23.0307 6.52164 23.3531 7.4386 23.3531Z" fill="#1C1C1C"/>
<path d="M22.9026 27.3069C21.836 27.3069 20.9003 27.1078 20.0956 26.7096C19.3096 26.3113 18.7015 25.7804 18.2711 25.1167C17.8594 24.434 17.6535 23.6755 17.6535 22.8411C17.6535 21.3999 18.1588 20.2432 19.1693 19.3709C20.1798 18.4986 21.6395 18.0624 23.5482 18.0624H26.4361C26.5775 18.0624 26.6921 17.9478 26.6921 17.8064V17.8064C26.6921 17.1807 26.4863 16.6687 26.0746 16.2704C25.6816 15.8533 25.167 15.6447 24.5307 15.6447C23.9506 15.6447 23.4921 15.7774 23.1553 16.0429C22.9656 16.1817 22.8055 16.3356 22.6752 16.5045C22.4933 16.7402 22.2331 16.9247 21.9354 16.9247H19.1143C18.6654 16.9247 18.3129 16.5297 18.4454 16.1008C18.5999 15.6009 18.8412 15.117 19.1693 14.6491C19.6933 13.9285 20.4044 13.3501 21.3026 12.914C22.2196 12.4589 23.2956 12.2313 24.5307 12.2313C25.8219 12.2313 26.9447 12.4778 27.8991 12.9709C28.8722 13.4639 29.6208 14.1371 30.1447 14.9904C30.6687 15.8248 30.9307 16.7635 30.9307 17.8064V26.2724C30.9307 26.6867 30.5949 27.0224 30.1807 27.0224H27.8539C27.503 27.0224 27.1989 26.779 27.1221 26.4366L26.992 25.8564C26.9808 25.8064 26.9364 25.7709 26.8851 25.7709V25.7709C26.8518 25.7709 26.8205 25.7861 26.7991 25.8116C26.4789 26.1937 25.9754 26.5404 25.2886 26.8518C24.5962 27.1552 23.8009 27.3069 22.9026 27.3069ZM23.8289 23.9789C24.7272 23.9789 25.4289 23.7324 25.9342 23.2393C26.4395 22.7463 26.6921 22.0826 26.6921 21.2482V21.2482C26.6921 21.0597 26.5393 20.9069 26.3508 20.9069H24.1096C23.3798 20.9069 22.8278 21.0491 22.4535 21.3336C22.098 21.599 21.9202 21.9688 21.9202 22.4429C21.9202 22.917 22.0792 23.2962 22.3974 23.5807C22.7342 23.8461 23.2114 23.9789 23.8289 23.9789Z" fill="#1C1C1C"/>
<path d="M39.702 27.3069C38.1488 27.3069 36.8856 27.0414 35.9125 26.5104C34.9394 25.9605 34.2376 25.3158 33.8072 24.5762C33.5495 24.1133 33.3725 23.669 33.2761 23.2432C33.1846 22.8392 33.5255 22.4998 33.9397 22.4998H36.566C36.9802 22.4998 37.3083 22.8617 37.5457 23.2012C37.6379 23.333 37.7578 23.4595 37.9055 23.5807C38.3172 23.8841 38.916 24.0358 39.702 24.0358C40.4692 24.0358 41.0306 23.922 41.3862 23.6944C41.7604 23.4479 41.9476 23.154 41.9476 22.8127C41.9476 22.4524 41.8259 22.1679 41.5827 21.9593C41.3394 21.7507 40.909 21.599 40.2914 21.5042L38.1581 21.1629C34.8833 20.6509 33.2458 19.2097 33.2458 16.8393C33.2458 16.005 33.4891 15.237 33.9757 14.5353C34.4622 13.8337 35.1827 13.2743 36.1371 12.8571C37.0914 12.4399 38.233 12.2313 39.5616 12.2313C40.909 12.2313 42.0599 12.4778 43.0143 12.9709C43.9686 13.445 44.6891 14.0518 45.1757 14.7913C45.4913 15.2588 45.7046 15.7224 45.8155 16.1819C45.9126 16.5845 45.5697 16.9247 45.1555 16.9247H42.5572C42.143 16.9247 41.8105 16.5559 41.5422 16.2403C41.4492 16.1309 41.3317 16.0272 41.1897 15.9291C40.7967 15.6447 40.254 15.5024 39.5616 15.5024C38.8879 15.5024 38.364 15.6352 37.9897 15.9007C37.6341 16.1472 37.4564 16.4411 37.4564 16.7824C37.4564 17.3324 37.999 17.6927 39.0844 17.8633L41.33 18.2047C44.53 18.6787 46.13 20.1958 46.13 22.7558C46.13 23.5901 45.8868 24.3581 45.4002 25.0598C44.9324 25.7424 44.2119 26.2924 43.2388 26.7096C42.2844 27.1078 41.1055 27.3069 39.702 27.3069Z" fill="#1C1C1C"/>
<path d="M49.5362 27.0224C49.122 27.0224 48.7862 26.6867 48.7862 26.2724V7.86133C48.7862 7.44711 49.122 7.11133 49.5362 7.11133H52.2748C52.689 7.11133 53.0248 7.44711 53.0248 7.86133V13.7033C53.0248 13.7544 53.0662 13.7958 53.1172 13.7958V13.7958C53.1473 13.7958 53.1753 13.7811 53.1932 13.7569C53.4772 13.3741 53.945 13.0267 54.5967 12.7149C55.2704 12.3925 56.0283 12.2313 56.8704 12.2313C57.9558 12.2313 58.9195 12.4873 59.7616 12.9993C60.6224 13.4924 61.2868 14.2035 61.7546 15.1327C62.2412 16.0429 62.4844 17.1048 62.4844 18.3184V26.2724C62.4844 26.6867 62.1486 27.0224 61.7344 27.0224H58.9958C58.5816 27.0224 58.2458 26.6867 58.2458 26.2724V19.0296C58.2458 18.2331 58.0026 17.5884 57.516 17.0953C57.0482 16.5833 56.4213 16.3273 55.6353 16.3273C54.8493 16.3273 54.2131 16.5833 53.7265 17.0953C53.2587 17.5884 53.0248 18.2331 53.0248 19.0296V26.2724C53.0248 26.6867 52.689 27.0224 52.2748 27.0224H49.5362Z" fill="#1C1C1C"/>
<path d="M63.1367 14.0373C62.8484 13.5292 63.2221 12.8949 63.8031 12.906L67.1616 12.9705C67.4224 12.9755 67.6608 13.1176 67.7905 13.3453L75.0006 26.0001C75.2882 26.5048 74.9211 27.1371 74.3431 27.1325L70.9778 27.1058C70.7137 27.1037 70.4711 26.9606 70.34 26.7297L63.1367 14.0373Z" fill="#1C1C1C"/>
<path d="M78.62 0L72.5072 0C72.368 0 72.2402 0.0771384 72.1754 0.200345L66.934 10.1589C66.808 10.3983 66.9692 10.6883 67.2391 10.7076L71.9558 11.0454C72.2285 11.0649 72.3893 11.3603 72.2577 11.5999L61.0527 32L79.525 8.42853C79.7178 8.18241 79.5425 7.82222 79.2298 7.82222H75.0644C74.7695 7.82222 74.59 7.49753 74.7468 7.24779L78.9376 0.574432C79.0944 0.324694 78.9149 0 78.62 0Z" fill="#4166FB"/>
</svg>
