<svg width="30" height="33" viewBox="0 0 30 33" fill="none" xmlns="http://www.w3.org/2000/svg">
<path d="M24.7111 0.815325C26.0663 1.47213 26.7477 2.59204 26.9452 4.01927C27.2014 5.8699 26.8083 7.6442 26.218 9.3851C25.8803 10.3808 25.5075 11.3625 24.9142 12.2414C24.8169 12.3855 24.8739 12.4586 24.9819 12.5517C26.0814 13.4999 26.9947 14.5972 27.6029 15.9242C27.8758 16.5195 28.1751 17.1114 28.2256 17.7843C28.2362 17.9254 28.3314 18.0003 28.4573 18.0522C28.6816 18.1446 28.9107 18.2277 29.1137 18.3654C29.6664 18.7403 29.9562 19.2618 29.9602 19.9288C29.9662 20.9248 29.9552 21.9209 29.959 22.917C29.9622 23.7478 29.6021 24.3796 28.8385 24.6789C28.4632 24.826 28.3392 25.0485 28.2387 25.38C27.6446 27.3384 26.3738 28.7923 24.7764 30.0037C23.4811 30.9859 21.9966 31.5229 20.4347 31.8864C19.2363 32.1654 18.0232 32.3345 16.795 32.4125C16.0517 32.4598 15.3089 32.5224 14.5645 32.492C12.2045 32.3955 9.864 32.1632 7.63086 31.3232C5.12676 30.3813 3.25667 28.7359 2.12957 26.2855C1.95215 25.8998 1.8306 25.4944 1.7473 25.079C1.71175 24.9017 1.62484 24.8173 1.44358 24.7773C0.479163 24.5645 -0.00158799 23.958 3.94052e-06 22.9726C0.00154924 22.0157 0.00680693 21.0589 0.0105151 20.102C0.0127799 19.5177 0.14149 18.9825 0.603836 18.577C0.837787 18.3719 1.1014 18.2191 1.40939 18.1655C1.56361 18.1386 1.63492 18.0689 1.67068 17.9167C1.99638 16.5297 2.61228 15.2824 3.48618 14.1588C3.92116 13.5996 4.40277 13.0855 4.94546 12.6312C5.11905 12.4859 5.15615 12.3685 5.02679 12.1604C4.07625 10.6313 3.49597 8.95934 3.16619 7.19735C3.0192 6.412 2.91844 5.61774 2.96847 4.81681C3.03468 3.75699 3.22421 2.72925 3.94263 1.886C4.4994 1.23249 5.15493 0.730139 6.03523 0.594837C6.7712 0.481718 7.46529 0.612979 8.1357 0.925663C8.97858 1.31879 9.60207 1.95848 10.1568 2.68144C11.1929 4.03192 11.751 5.60003 12.2162 7.20913C12.3876 7.80189 12.5454 8.39935 12.649 9.00852C12.689 9.24336 12.8001 9.32449 13.0451 9.32482C14.3152 9.32655 15.5853 9.34845 16.8555 9.36149C17.228 9.36531 17.2339 9.3629 17.3085 9.01021C17.5536 7.85212 17.8812 6.7182 18.3069 5.61371C18.8318 4.25184 19.4882 2.96529 20.4888 1.88103C21.1536 1.16069 21.9614 0.685689 22.9327 0.534498C23.5401 0.43996 24.1347 0.541713 24.7111 0.815325ZM20.0864 4.57264C19.8339 5.09526 19.6227 5.63484 19.4193 6.17801C18.9325 7.47738 18.6024 8.82257 18.2433 10.1595C18.1486 10.5119 18.0838 10.5675 17.7185 10.5681C15.8833 10.5709 14.0481 10.5685 12.2129 10.5638C11.9279 10.5631 11.7841 10.4491 11.6917 10.1796C11.5391 9.7349 11.4536 9.27267 11.3427 8.81726C10.9788 7.32324 10.5359 5.85789 9.82009 4.48751C9.31309 3.5169 8.65116 2.69005 7.68629 2.13458C6.93539 1.70229 5.67417 1.75254 5.01098 2.53173C4.40578 3.24278 4.18701 4.09332 4.13592 4.98643C4.09251 5.74511 4.2374 6.49962 4.39075 7.24064C4.69096 8.69127 5.24361 10.054 5.92299 11.3665C6.09227 11.6936 6.28253 12.0102 6.44169 12.3419C6.59192 12.655 6.55184 12.7928 6.29833 13.0261C6.24075 13.0791 6.18093 13.13 6.11949 13.1784C5.40777 13.74 4.77147 14.3739 4.25313 15.1212C3.65459 15.984 3.17635 16.9038 2.9277 17.9316C2.89824 18.0534 2.85066 18.1939 2.96597 18.2831C3.12963 18.4097 3.30254 18.5258 3.46844 18.6786C3.74173 18.2129 4.04078 17.8017 4.4429 17.4785C5.29575 16.7929 6.26389 16.4269 7.36535 16.4206C9.4826 16.4086 11.5998 16.4252 13.7172 16.4009C16.6265 16.3675 19.5364 16.3749 22.446 16.3774C23.7227 16.3785 24.8295 16.8354 25.7668 17.7024C26.0604 17.9739 26.3066 18.2874 26.5607 18.6154C26.666 18.5194 26.7518 18.4121 26.8625 18.3467C27.0754 18.2208 27.0775 18.0593 27.0168 17.8473C26.5103 16.0767 25.5462 14.6055 24.1394 13.4218C23.9717 13.2807 23.7846 13.1628 23.6356 12.9993C23.4852 12.8342 23.3995 12.6441 23.4457 12.4195C23.4855 12.2259 23.5782 12.0498 23.6858 11.886C23.9707 11.4519 24.2107 10.9933 24.42 10.5202C25.2524 8.6387 25.9317 6.72114 25.7904 4.61216C25.7325 3.74787 25.4236 2.99178 24.8053 2.38718C24.0372 1.63612 22.8032 1.61878 21.8733 2.32031C21.0936 2.90855 20.5169 3.66065 20.0864 4.57264ZM21.7444 30.2311C21.9189 30.1609 22.0938 30.092 22.2678 30.0205C23.8239 29.3804 25.1505 28.4434 26.1208 27.0441C26.5855 26.374 26.9257 25.6489 27.1166 24.8542C27.1448 24.737 27.1313 24.6497 27.0227 24.5976C26.8032 24.4923 26.6084 24.3497 26.4007 24.1827C26.1327 24.5459 25.8317 24.8595 25.4875 25.1343C24.1527 26.2002 22.628 26.6371 20.9416 26.4637C20.0619 26.3733 19.2403 26.059 18.4738 25.6088C17.9317 25.2904 17.4401 24.8995 16.9193 24.5516C15.8868 23.8618 14.7866 23.6288 13.6095 24.1795C13.166 24.387 12.7801 24.6879 12.4038 24.9937C10.8909 26.2234 9.16981 26.7257 7.24695 26.4223C5.90482 26.2105 4.75659 25.5996 3.88856 24.5227C3.78717 24.3969 3.69438 24.2641 3.5837 24.116C3.39426 24.3172 3.20997 24.4852 2.99347 24.6137C2.88755 24.6765 2.88784 24.7875 2.90811 24.8874C2.98118 25.2474 3.04666 25.6118 3.20723 25.9456C4.11798 27.8388 5.57618 29.1555 7.49204 29.9794C9.37104 30.7875 11.3599 31.1129 13.382 31.2343C14.8202 31.3206 16.2621 31.2926 17.7005 31.1565C19.0784 31.0263 20.4185 30.744 21.7444 30.2311ZM3.84364 21.8116C3.9116 22.5911 4.16809 23.3088 4.69639 23.8822C5.93168 25.2229 7.4825 25.6696 9.26321 25.3904C10.1227 25.2556 10.8564 24.8498 11.5493 24.3467C12.1759 23.8918 12.7833 23.4081 13.5335 23.1496C14.6392 22.7687 15.7136 22.7185 16.7796 23.2966C17.3617 23.6122 17.8967 23.9925 18.4341 24.3718C19.8222 25.3516 21.334 25.7255 22.994 25.2642C24.3642 24.8835 25.4291 24.0907 25.9543 22.7339C26.3822 21.6282 26.2582 20.5075 25.7585 19.4499C25.1662 18.1963 24.1601 17.5358 22.7551 17.5341C20.8886 17.5319 19.0222 17.5328 17.1558 17.5377C13.831 17.5465 10.5063 17.5345 7.1814 17.5538C5.87649 17.5614 4.45606 18.4476 4.06225 19.8886C3.89321 20.5071 3.81097 21.1287 3.84364 21.8116ZM27.0913 21.7315C27.0916 22.1075 27.0817 22.4839 27.0947 22.8595C27.1118 23.3575 27.4892 23.7276 27.9444 23.7132C28.3911 23.6991 28.753 23.3209 28.7562 22.8437C28.7625 21.888 28.764 20.9322 28.7574 19.9766C28.7546 19.5784 28.4872 19.2529 28.1413 19.189C27.6766 19.1031 27.348 19.276 27.1789 19.6997C27.1207 19.8457 27.089 19.9972 27.09 20.1569C27.0931 20.666 27.0912 21.1752 27.0913 21.7315ZM1.78714 19.2525C1.43786 19.385 1.23624 19.639 1.20707 20.0087C1.13111 20.9715 1.16504 21.9367 1.16661 22.9008C1.16721 23.2733 1.43913 23.6128 1.75618 23.7C2.13058 23.8029 2.45076 23.6771 2.67408 23.3458C2.79263 23.1698 2.82926 22.9789 2.83647 22.7684C2.8649 21.9382 2.80001 21.1085 2.86194 20.277C2.91674 19.5412 2.52343 19.1779 1.78714 19.2525Z" fill="#A29E9C"/>
<path d="M6.54309 5.23129C7.03899 4.82116 7.84238 4.94412 8.29738 5.48733C8.62191 5.87476 8.87603 6.30575 9.08214 6.76619C9.53188 7.77085 9.86114 8.81257 10.0293 9.90147C10.0865 10.2722 10.1217 10.6456 9.99785 11.0159C9.83422 11.5053 9.36046 11.8538 8.86275 11.8423C8.61886 11.8366 8.43194 11.7155 8.25901 11.5621C7.92677 11.2674 7.66575 10.9142 7.44946 10.5305C6.92536 9.60066 6.44597 8.64761 6.18996 7.605C6.04868 7.02965 6.05602 6.43992 6.2086 5.86201C6.26856 5.63487 6.35764 5.41541 6.54309 5.23129Z" fill="#A29E9C"/>
<path d="M21.9263 11.3339C21.2502 12.1303 20.401 11.8329 20.0623 11.2131C19.8744 10.8691 19.8659 10.4829 19.9153 10.1111C20.1137 8.61953 20.6025 7.22369 21.3663 5.9272C21.5457 5.62269 21.7537 5.32826 22.0804 5.16333C22.9021 4.74845 23.5709 4.98175 23.7938 6.04404C23.9476 6.77675 23.7987 7.47741 23.559 8.16115C23.1953 9.19799 22.7714 10.2087 22.1186 11.1054C22.0634 11.1812 21.9983 11.2498 21.9263 11.3339Z" fill="#A29E9C"/>
<path d="M14.142 15.9636C13.8656 15.887 13.8181 15.7921 13.9376 15.5549C14.0678 15.2964 14.2145 15.046 14.3422 14.7864C14.4394 14.5889 14.4041 14.5334 14.1836 14.5289C13.7763 14.5206 13.3687 14.5227 12.9612 14.5182C12.8526 14.517 12.7208 14.5288 12.6801 14.4016C12.6417 14.2813 12.7646 14.2247 12.8398 14.1667C13.801 13.425 14.7556 12.6741 15.7779 12.016C15.8564 11.9655 15.9364 11.9145 16.0349 11.9073C16.1498 11.899 16.2575 11.9117 16.3252 12.0187C16.3871 12.1162 16.3653 12.2139 16.3076 12.3058C16.1368 12.5776 15.9648 12.8486 15.7938 13.1203C15.7304 13.2209 15.6558 13.331 15.7275 13.4462C15.7957 13.5559 15.9129 13.4864 16.0093 13.4769C16.4454 13.4341 16.8863 13.4885 17.321 13.4069C17.4242 13.3875 17.5314 13.4207 17.5703 13.5365C17.6054 13.6408 17.5203 13.6915 17.4505 13.7415C16.7507 14.2437 16.0506 14.7454 15.3503 15.2468C15.0765 15.4428 14.803 15.6392 14.5275 15.8326C14.4181 15.9094 14.3028 15.9767 14.142 15.9636Z" fill="#A29E9C"/>
<path d="M13.3959 25.2584C14.2303 24.6321 15.1171 24.5189 16.0589 24.9253C16.5602 25.1417 16.8296 25.5529 16.7811 25.9716C16.7359 26.3613 16.3295 26.7481 15.8395 26.847C15.4503 26.9257 15.4598 26.8694 15.4623 27.3078C15.4627 27.3862 15.4637 27.4646 15.4647 27.5429C15.4695 27.9162 15.5205 27.9647 15.8946 27.8927C16.3623 27.8028 16.8273 27.6994 17.2928 27.5985C17.4101 27.573 17.5253 27.5666 17.6414 27.5956C17.8341 27.6437 17.997 27.7187 18.0079 27.957C18.0201 28.2229 17.9321 28.3798 17.6812 28.4584C17.3228 28.5708 16.9518 28.6323 16.5814 28.689C15.4738 28.8587 14.368 28.8184 13.263 28.6543C12.9621 28.6096 12.6571 28.5933 12.3628 28.507C12.2392 28.4708 12.1269 28.4171 12.0505 28.3113C11.94 28.158 11.8741 27.9859 11.9672 27.8064C12.0576 27.6322 12.2337 27.6041 12.413 27.6086C12.8464 27.6195 13.2572 27.7624 13.6812 27.8284C13.8584 27.856 14.0362 27.8797 14.2137 27.9053C14.4231 27.9355 14.4987 27.8297 14.4923 27.6354C14.489 27.5336 14.4929 27.4316 14.492 27.3297C14.4887 26.9496 14.4776 26.9378 14.1148 26.8404C13.7282 26.7366 13.4516 26.491 13.2702 26.1435C13.1081 25.8331 13.1631 25.5379 13.3959 25.2584Z" fill="#A29E9C"/>
<path d="M24.4434 18.9731C25.6325 19.9454 25.7959 22.4483 24.3356 23.5936C23.4427 24.2939 22.4893 24.6301 21.3868 24.5879C20.5219 24.5548 19.7068 24.3463 18.9868 23.821C18.3801 23.3783 17.778 22.9237 17.0893 22.6061C16.3767 22.2776 15.6259 22.0894 14.8458 22.0624C14.039 22.0345 13.3172 22.3511 12.6178 22.7155C12.0938 22.9885 11.6325 23.3568 11.1626 23.7085C10.508 24.1985 9.7583 24.4209 8.96922 24.5417C8.25291 24.6514 7.55016 24.5703 6.86044 24.3554C5.57189 23.954 4.57873 22.6192 4.62457 21.3056C4.64826 20.6269 4.78103 19.9606 5.1845 19.3937C5.7327 18.6234 6.53548 18.358 7.43979 18.356C10.4193 18.3491 13.3992 18.3773 16.3784 18.3419C18.4324 18.3176 20.4862 18.3129 22.5401 18.3115C23.1301 18.3111 23.6905 18.4389 24.187 18.7784C24.2709 18.8357 24.3496 18.9007 24.4434 18.9731ZM8.55876 22.9867C8.99143 23.1633 9.33825 23.0618 9.60558 22.6892C9.80702 22.4085 9.92591 22.0959 9.95861 21.7559C10.0141 21.179 9.95534 20.6138 9.5471 20.1685C9.10481 19.686 8.78216 19.719 8.33731 20.1107C8.18635 20.2436 8.10448 20.4214 8.0295 20.6044C7.8733 20.9856 7.84964 21.3871 7.90129 21.7827C7.96176 22.2458 8.10549 22.6865 8.55876 22.9867ZM22.0711 21.4043C22.0936 20.9497 21.9963 20.5306 21.6863 20.183C21.2266 19.6676 20.6546 19.729 20.2938 20.3178C20.0389 20.7338 20.0207 21.1888 20.0286 21.6558C20.0356 22.0735 20.1774 22.4396 20.4278 22.7619C20.7414 23.1657 21.3871 23.1586 21.6964 22.751C21.9869 22.368 22.1121 21.9315 22.0711 21.4043Z" fill="#A29E9C"/>
</svg>
