<svg width="24" height="25" viewBox="0 0 24 25" fill="none" xmlns="http://www.w3.org/2000/svg">
<mask id="mask0_1065_27" style="mask-type:alpha" maskUnits="userSpaceOnUse" x="0" y="0" width="24" height="25">
<rect y="0.5" width="24" height="24" fill="#D9D9D9"/>
</mask>
<g mask="url(#mask0_1065_27)">
<path d="M4.25 18C4.0375 18 3.85942 17.9281 3.71575 17.7843C3.57192 17.6404 3.5 17.4622 3.5 17.2498C3.5 17.0371 3.57192 16.859 3.71575 16.7155C3.85942 16.5718 4.0375 16.5 4.25 16.5H14.9615C15.174 16.5 15.3522 16.5719 15.496 16.7158C15.6397 16.8596 15.7115 17.0378 15.7115 17.2503C15.7115 17.4629 15.6397 17.641 15.496 17.7845C15.3522 17.9282 15.174 18 14.9615 18H4.25ZM18.9193 16.5213L15.5212 13.1328C15.3404 12.9519 15.25 12.741 15.25 12.5C15.25 12.259 15.3404 12.0481 15.5212 11.8672L18.9193 8.4885C19.0578 8.35 19.2318 8.27917 19.4413 8.276C19.6509 8.27283 19.8282 8.34367 19.973 8.4885C20.1178 8.63333 20.1903 8.809 20.1903 9.0155C20.1903 9.22183 20.1178 9.39742 19.973 9.54225L16.9865 12.5L19.973 15.4672C20.1178 15.6036 20.1903 15.7771 20.1903 15.9878C20.1903 16.1984 20.1178 16.3763 19.973 16.5213C19.8367 16.6596 19.6632 16.7288 19.4525 16.7288C19.2418 16.7288 19.0641 16.6596 18.9193 16.5213ZM4.25 13.25C4.0375 13.25 3.85942 13.1781 3.71575 13.0342C3.57192 12.8904 3.5 12.7122 3.5 12.4997C3.5 12.2871 3.57192 12.109 3.71575 11.9655C3.85942 11.8218 4.0375 11.75 4.25 11.75H12.0385C12.251 11.75 12.4291 11.8219 12.5728 11.9658C12.7166 12.1096 12.7885 12.2878 12.7885 12.5003C12.7885 12.7129 12.7166 12.891 12.5728 13.0345C12.4291 13.1782 12.251 13.25 12.0385 13.25H4.25ZM4.25 8.5C4.0375 8.5 3.85942 8.42808 3.71575 8.28425C3.57192 8.14042 3.5 7.96225 3.5 7.74975C3.5 7.53708 3.57192 7.359 3.71575 7.2155C3.85942 7.07183 4.0375 7 4.25 7H14.9615C15.174 7 15.3522 7.07192 15.496 7.21575C15.6397 7.35958 15.7115 7.53775 15.7115 7.75025C15.7115 7.96292 15.6397 8.141 15.496 8.2845C15.3522 8.42817 15.174 8.5 14.9615 8.5H4.25Z" fill="#1C1B1F"/>
</g>
</svg>
