<svg width="79" height="17" viewBox="0 0 79 17" fill="none" xmlns="http://www.w3.org/2000/svg">
<path d="M8.57743 1.38889C6.51644 1.38889 1.44043 6.44631 1.44043 8.49995C1.44043 10.5536 6.51644 15.6111 8.57743 15.6111C10.6384 15.6111 15.7145 10.5535 15.7145 8.49995C15.7145 6.4464 10.6385 1.38889 8.57743 1.38889ZM7.46526 12.5663C6.59614 12.3304 4.25948 8.25777 4.49634 7.39182C4.73321 6.52582 8.82057 4.19768 9.68965 4.43369C10.5588 4.66965 12.8954 8.74217 12.6586 9.60817C12.4218 10.4741 8.33433 12.8023 7.46526 12.5663Z" fill="#111827"/>
<path d="M26.2285 10.0763V10.0737L22.1732 2.62123C22.0934 2.47453 21.8728 2.50967 21.8428 2.67384L19.8232 13.742C19.8034 13.8505 19.8871 13.9503 19.9977 13.9503H21.5603C21.646 13.9503 21.7194 13.8892 21.7348 13.8052L22.9109 7.34708L26.0721 13.3519C26.1385 13.4781 26.3198 13.4781 26.3863 13.3519L29.5475 7.34708L30.7236 13.8052C30.7389 13.8892 30.8124 13.9503 30.8981 13.9503H32.4607C32.5713 13.9503 32.6549 13.8505 32.6351 13.742L30.6156 2.67384C30.5856 2.50967 30.365 2.47453 30.2851 2.62123L26.2285 10.0763Z" fill="#111827"/>
<path d="M39.2053 2.82944C35.9886 2.82944 33.4688 5.32005 33.4688 8.50023C33.4688 11.6804 35.9886 14.1724 39.2053 14.1724C42.4138 14.1724 44.9273 11.6811 44.9273 8.50023C44.9273 5.31939 42.4138 2.82944 39.2053 2.82944ZM39.2053 12.2736C37.1077 12.2736 35.4642 10.616 35.4642 8.50023C35.4642 6.3845 37.1077 4.72825 39.2053 4.72825C41.2947 4.72825 42.9319 6.38521 42.9319 8.50023C42.9319 10.6153 41.2947 12.2736 39.2053 12.2736Z" fill="#111827"/>
<path d="M53.7692 9.80134L47.0424 2.58761C46.933 2.46997 46.7354 2.54731 46.7354 2.70788V13.7737C46.7354 13.8712 46.8147 13.9503 46.9129 13.9503H48.5388C48.6369 13.9503 48.7163 13.8712 48.7163 13.7737V7.18739L55.4279 14.4148C55.5372 14.5327 55.7354 14.4555 55.7354 14.2947V3.22896C55.7354 3.13137 55.656 3.05225 55.5579 3.05225H53.9463C53.8486 3.05225 53.7692 3.13137 53.7692 3.22896V9.80134Z" fill="#111827"/>
<path d="M57.4587 13.9501H59.2052C59.2742 13.9501 59.337 13.9101 59.3661 13.8475L60.6742 11.025H64.8571L66.1355 13.8462C66.1642 13.9095 66.2274 13.9501 66.2969 13.9501H68.1918C68.3222 13.9501 68.4083 13.8139 68.3514 13.6966L62.9851 2.6315C62.9205 2.4984 62.73 2.4984 62.6654 2.6315L57.2991 13.6966C57.2422 13.8139 57.3283 13.9501 57.4587 13.9501ZM61.4941 9.27382L62.7941 6.46302L64.0694 9.27382H61.4941Z" fill="#111827"/>
<path d="M72.5899 3.05209H69.907C69.8088 3.05209 69.7295 3.13121 69.7295 3.2288V13.7735C69.7295 13.8711 69.8088 13.9502 69.907 13.9502H72.5899C75.9166 13.9502 77.984 11.8622 77.984 8.50045C77.984 5.13872 75.9166 3.05209 72.5899 3.05209ZM72.5899 12.0805H71.7248V4.90724H72.5899C74.7497 4.90724 75.9883 6.21703 75.9883 8.50045C75.9883 10.7756 74.7497 12.0805 72.5899 12.0805Z" fill="#111827"/>
</svg>
