<svg width="315" height="250" viewBox="0 0 315 250" fill="none" xmlns="http://www.w3.org/2000/svg">
<g filter="url(#filter0_d_911_777)">
<rect x="18" y="18" width="279" height="375" rx="13.5" fill="white" shape-rendering="crispEdges"/>
<rect x="18.375" y="18.375" width="278.25" height="374.25" rx="13.125" stroke="#D4D4D4" stroke-width="0.75" shape-rendering="crispEdges"/>
<g filter="url(#filter1_f_911_777)">
<path d="M56.4697 172.28C56.7626 172.573 57.2374 172.573 57.5303 172.28L62.3033 167.507C62.5962 167.214 62.5962 166.74 62.3033 166.447C62.0104 166.154 61.5355 166.154 61.2426 166.447L57 170.689L52.7574 166.447C52.4645 166.154 51.9896 166.154 51.6967 166.447C51.4038 166.74 51.4038 167.214 51.6967 167.507L56.4697 172.28ZM56.25 139.5L56.25 171.75L57.75 171.75L57.75 139.5L56.25 139.5Z" fill="#5C7CFD"/>
<path d="M71.0303 140.47C70.7374 140.177 70.2626 140.177 69.9697 140.47L65.1967 145.243C64.9038 145.536 64.9038 146.01 65.1967 146.303C65.4896 146.596 65.9645 146.596 66.2574 146.303L70.5 142.061L74.7426 146.303C75.0355 146.596 75.5104 146.596 75.8033 146.303C76.0962 146.01 76.0962 145.536 75.8033 145.243L71.0303 140.47ZM69.75 141L69.75 173.25L71.25 173.25L71.25 141L69.75 141Z" fill="#5C7CFD"/>
</g>
<path d="M33.4048 36.2273C33.4048 36.9261 33.277 37.527 33.0213 38.0298C32.7656 38.5305 32.4151 38.9162 31.9698 39.1868C31.5266 39.4553 31.0227 39.5895 30.4581 39.5895C29.8913 39.5895 29.3853 39.4553 28.94 39.1868C28.4968 38.9162 28.1474 38.5295 27.8917 38.0266C27.636 37.5238 27.5082 36.924 27.5082 36.2273C27.5082 35.5284 27.636 34.9286 27.8917 34.4279C28.1474 33.9251 28.4968 33.5394 28.94 33.271C29.3853 33.0004 29.8913 32.8651 30.4581 32.8651C31.0227 32.8651 31.5266 33.0004 31.9698 33.271C32.4151 33.5394 32.7656 33.9251 33.0213 34.4279C33.277 34.9286 33.4048 35.5284 33.4048 36.2273ZM32.4268 36.2273C32.4268 35.6946 32.3406 35.2461 32.168 34.8817C31.9975 34.5153 31.7631 34.2383 31.4648 34.0508C31.1687 33.8612 30.8331 33.7663 30.4581 33.7663C30.081 33.7663 29.7443 33.8612 29.4482 34.0508C29.152 34.2383 28.9176 34.5153 28.745 34.8817C28.5746 35.2461 28.4893 35.6946 28.4893 36.2273C28.4893 36.7599 28.5746 37.2095 28.745 37.576C28.9176 37.9403 29.152 38.2173 29.4482 38.407C29.7443 38.5945 30.081 38.6882 30.4581 38.6882C30.8331 38.6882 31.1687 38.5945 31.4648 38.407C31.7631 38.2173 31.9975 37.9403 32.168 37.576C32.3406 37.2095 32.4268 36.7599 32.4268 36.2273ZM35.335 36.5852V39.5H34.3794V34.5909H35.2967V35.3899H35.3574C35.4703 35.13 35.6471 34.9212 35.8879 34.7635C36.1308 34.6058 36.4366 34.527 36.8052 34.527C37.1397 34.527 37.4327 34.5973 37.6841 34.7379C37.9355 34.8764 38.1305 35.0831 38.269 35.358C38.4074 35.6328 38.4767 35.9727 38.4767 36.3775V39.5H37.5211V36.4925C37.5211 36.1367 37.4284 35.8587 37.243 35.6584C37.0577 35.456 36.803 35.3548 36.4792 35.3548C36.2576 35.3548 36.0605 35.4027 35.8879 35.4986C35.7175 35.5945 35.5822 35.7351 35.482 35.9205C35.384 36.1037 35.335 36.3253 35.335 36.5852ZM42.0712 32.6477L39.9618 40.4844H39.1085L41.2179 32.6477H42.0712ZM48.4654 36.2273C48.4654 36.9261 48.3376 37.527 48.0819 38.0298C47.8262 38.5305 47.4757 38.9162 47.0304 39.1868C46.5872 39.4553 46.0833 39.5895 45.5187 39.5895C44.9519 39.5895 44.4459 39.4553 44.0006 39.1868C43.5574 38.9162 43.208 38.5295 42.9523 38.0266C42.6966 37.5238 42.5688 36.924 42.5688 36.2273C42.5688 35.5284 42.6966 34.9286 42.9523 34.4279C43.208 33.9251 43.5574 33.5394 44.0006 33.271C44.4459 33.0004 44.9519 32.8651 45.5187 32.8651C46.0833 32.8651 46.5872 33.0004 47.0304 33.271C47.4757 33.5394 47.8262 33.9251 48.0819 34.4279C48.3376 34.9286 48.4654 35.5284 48.4654 36.2273ZM47.4874 36.2273C47.4874 35.6946 47.4011 35.2461 47.2286 34.8817C47.0581 34.5153 46.8237 34.2383 46.5254 34.0508C46.2293 33.8612 45.8937 33.7663 45.5187 33.7663C45.1416 33.7663 44.8049 33.8612 44.5087 34.0508C44.2126 34.2383 43.9782 34.5153 43.8056 34.8817C43.6352 35.2461 43.5499 35.6946 43.5499 36.2273C43.5499 36.7599 43.6352 37.2095 43.8056 37.576C43.9782 37.9403 44.2126 38.2173 44.5087 38.407C44.8049 38.5945 45.1416 38.6882 45.5187 38.6882C45.8937 38.6882 46.2293 38.5945 46.5254 38.407C46.8237 38.2173 47.0581 37.9403 47.2286 37.576C47.4011 37.2095 47.4874 36.7599 47.4874 36.2273ZM51.7763 34.5909V35.358H49.0021V34.5909H51.7763ZM49.7628 39.5V34.022C49.7628 33.7152 49.8299 33.4606 49.9641 33.2582C50.0984 33.0536 50.2763 32.9013 50.4979 32.8011C50.7195 32.6989 50.9602 32.6477 51.2202 32.6477C51.4119 32.6477 51.576 32.6637 51.7124 32.6957C51.8487 32.7255 51.9499 32.7532 52.016 32.7788L51.7923 33.5522C51.7475 33.5394 51.69 33.5245 51.6197 33.5075C51.5494 33.4883 51.4641 33.4787 51.364 33.4787C51.1317 33.4787 50.9655 33.5362 50.8654 33.6513C50.7674 33.7663 50.7184 33.9325 50.7184 34.1499V39.5H49.7628ZM54.9185 34.5909V35.358H52.1444V34.5909H54.9185ZM52.905 39.5V34.022C52.905 33.7152 52.9722 33.4606 53.1064 33.2582C53.2406 33.0536 53.4185 32.9013 53.6401 32.8011C53.8617 32.6989 54.1025 32.6477 54.3624 32.6477C54.5542 32.6477 54.7183 32.6637 54.8546 32.6957C54.991 32.7255 55.0922 32.7532 55.1582 32.7788L54.9345 33.5522C54.8898 33.5394 54.8322 33.5245 54.7619 33.5075C54.6916 33.4883 54.6064 33.4787 54.5063 33.4787C54.274 33.4787 54.1078 33.5362 54.0077 33.6513C53.9097 33.7663 53.8607 33.9325 53.8607 34.1499V39.5H52.905ZM58.0031 39.5V32.9545H60.3361C60.8432 32.9545 61.2641 33.0419 61.5986 33.2166C61.9352 33.3913 62.1866 33.6332 62.3528 33.9421C62.519 34.2489 62.6021 34.6037 62.6021 35.0064C62.6021 35.407 62.518 35.7596 62.3496 36.0643C62.1834 36.3668 61.932 36.6023 61.5954 36.7706C61.2609 36.9389 60.8401 37.0231 60.333 37.0231H58.5656V36.1729H60.2435C60.5631 36.1729 60.823 36.1271 61.0233 36.0355C61.2257 35.9439 61.3738 35.8107 61.4675 35.636C61.5613 35.4613 61.6082 35.2514 61.6082 35.0064C61.6082 34.7592 61.5602 34.5451 61.4643 34.364C61.3706 34.1829 61.2225 34.0444 61.0201 33.9485C60.8198 33.8505 60.5567 33.8015 60.2307 33.8015H58.9906V39.5H58.0031ZM61.2342 36.5469L62.8514 39.5H61.7264L60.1412 36.5469H61.2342ZM64.9758 39.6087C64.6647 39.6087 64.3834 39.5511 64.132 39.4361C63.8806 39.3189 63.6814 39.1495 63.5343 38.9279C63.3895 38.7063 63.317 38.4347 63.317 38.1129C63.317 37.8359 63.3703 37.608 63.4768 37.429C63.5834 37.25 63.7272 37.1083 63.9083 37.0039C64.0894 36.8995 64.2918 36.8207 64.5155 36.7674C64.7392 36.7141 64.9672 36.6737 65.1995 36.646C65.4935 36.6119 65.7321 36.5842 65.9154 36.5629C66.0986 36.5394 66.2318 36.5021 66.3149 36.451C66.398 36.3999 66.4395 36.3168 66.4395 36.2017V36.1793C66.4395 35.9002 66.3607 35.6839 66.203 35.5305C66.0475 35.3771 65.8152 35.3004 65.5063 35.3004C65.1846 35.3004 64.931 35.3718 64.7456 35.5146C64.5624 35.6552 64.4356 35.8118 64.3653 35.9844L63.4672 35.7798C63.5738 35.4815 63.7293 35.2408 63.9338 35.0575C64.1405 34.8722 64.3781 34.7379 64.6466 34.6548C64.915 34.5696 65.1973 34.527 65.4935 34.527C65.6895 34.527 65.8973 34.5504 66.1167 34.5973C66.3383 34.642 66.545 34.7251 66.7368 34.8466C66.9307 34.968 67.0894 35.1417 67.213 35.3675C67.3365 35.5913 67.3983 35.8821 67.3983 36.2401V39.5H66.4651V38.8288H66.4267C66.365 38.9524 66.2723 39.0739 66.1487 39.1932C66.0251 39.3125 65.8664 39.4116 65.6725 39.4904C65.4786 39.5692 65.2463 39.6087 64.9758 39.6087ZM65.1835 38.8416C65.4477 38.8416 65.6735 38.7894 65.861 38.685C66.0507 38.5806 66.1945 38.4442 66.2925 38.2759C66.3927 38.1055 66.4427 37.9233 66.4427 37.7294V37.0966C66.4086 37.1307 66.3426 37.1626 66.2446 37.1925C66.1487 37.2202 66.039 37.2447 65.9154 37.266C65.7918 37.2852 65.6714 37.3033 65.5542 37.3203C65.437 37.3352 65.339 37.348 65.2602 37.3587C65.0748 37.3821 64.9054 37.4215 64.752 37.4769C64.6008 37.5323 64.4793 37.6122 64.3877 37.7166C64.2982 37.8189 64.2534 37.9553 64.2534 38.1257C64.2534 38.3622 64.3408 38.5412 64.5155 38.6626C64.6902 38.782 64.9129 38.8416 65.1835 38.8416ZM68.4912 39.5V34.5909H69.4084V35.3899H69.4691C69.5714 35.1193 69.7387 34.9084 69.9709 34.7571C70.2032 34.6037 70.4812 34.527 70.8051 34.527C71.1332 34.527 71.4081 34.6037 71.6296 34.7571C71.8534 34.9105 72.0185 35.1214 72.125 35.3899H72.1762C72.2934 35.1278 72.4798 34.919 72.7355 34.7635C72.9912 34.6058 73.2958 34.527 73.6495 34.527C74.0948 34.527 74.4581 34.6665 74.7394 34.9457C75.0228 35.2248 75.1644 35.6456 75.1644 36.2081V39.5H74.2088V36.2976C74.2088 35.9652 74.1183 35.7244 73.9372 35.5753C73.7561 35.4261 73.5398 35.3516 73.2884 35.3516C72.9773 35.3516 72.7355 35.4474 72.5629 35.6392C72.3903 35.8288 72.304 36.0728 72.304 36.3711V39.5H71.3516V36.2369C71.3516 35.9705 71.2685 35.7564 71.1023 35.5945C70.9361 35.4325 70.7198 35.3516 70.4535 35.3516C70.2724 35.3516 70.1051 35.3995 69.9517 35.4954C69.8005 35.5891 69.6779 35.7202 69.5842 35.8885C69.4926 36.0568 69.4468 36.2518 69.4468 36.4734V39.5H68.4912ZM76.2653 41.3409V34.5909H77.1985V35.3867H77.2784C77.3338 35.2844 77.4137 35.1662 77.5181 35.032C77.6225 34.8977 77.7674 34.7805 77.9528 34.6804C78.1381 34.5781 78.3832 34.527 78.6878 34.527C79.0841 34.527 79.4378 34.6271 79.7489 34.8274C80.06 35.0277 80.304 35.3164 80.4808 35.6935C80.6598 36.0707 80.7493 36.5245 80.7493 37.055C80.7493 37.5856 80.6608 38.0405 80.484 38.4197C80.3072 38.7969 80.0643 39.0877 79.7553 39.2923C79.4464 39.4947 79.0937 39.5959 78.6974 39.5959C78.3991 39.5959 78.1552 39.5458 77.9655 39.4457C77.778 39.3455 77.631 39.2283 77.5245 39.0941C77.418 38.9599 77.3359 38.8406 77.2784 38.7362H77.2209V41.3409H76.2653ZM77.2017 37.0455C77.2017 37.3906 77.2518 37.6932 77.3519 37.9531C77.452 38.2131 77.5969 38.4165 77.7866 38.5636C77.9762 38.7085 78.2084 38.7809 78.4833 38.7809C78.7688 38.7809 79.0074 38.7053 79.1992 38.554C79.391 38.4006 79.5358 38.1928 79.6339 37.9308C79.734 37.6687 79.7841 37.3736 79.7841 37.0455C79.7841 36.7216 79.7351 36.4308 79.6371 36.1729C79.5412 35.9151 79.3963 35.7116 79.2024 35.5625C79.0106 35.4134 78.7709 35.3388 78.4833 35.3388C78.2063 35.3388 77.9719 35.4102 77.7802 35.5529C77.5905 35.6957 77.4467 35.8949 77.3487 36.1506C77.2507 36.4062 77.2017 36.7045 77.2017 37.0455Z" fill="#1A1A1A"/>
<rect x="270" y="27" width="18" height="18" rx="9" fill="#F5F5F5"/>
<mask id="mask0_911_777" style="mask-type:alpha" maskUnits="userSpaceOnUse" x="270" y="27" width="18" height="18">
<rect x="270" y="27" width="18" height="18" fill="#D9D9D9"/>
</mask>
<g mask="url(#mask0_911_777)">
<path d="M279 36.7977L276.566 39.2322C276.457 39.3409 276.325 39.394 276.171 39.3915C276.016 39.3892 275.884 39.3337 275.775 39.225C275.667 39.1164 275.613 38.9835 275.613 38.8262C275.613 38.669 275.667 38.536 275.775 38.4274L278.203 36L275.768 33.5841C275.66 33.4755 275.606 33.3425 275.609 33.1853C275.611 33.0282 275.667 32.8953 275.775 32.7867C275.884 32.6779 276.017 32.6235 276.174 32.6235C276.332 32.6235 276.464 32.6779 276.573 32.7867L279 35.2212L281.416 32.7867C281.525 32.6779 281.657 32.6235 281.811 32.6235C281.966 32.6235 282.098 32.6779 282.207 32.7867C282.323 32.9029 282.381 33.0377 282.381 33.1911C282.381 33.3445 282.323 33.4755 282.207 33.5841L279.779 36L282.214 38.4347C282.323 38.5433 282.377 38.675 282.377 38.8298C282.377 38.9847 282.323 39.1164 282.214 39.225C282.098 39.3414 281.963 39.3996 281.809 39.3996C281.656 39.3996 281.525 39.3414 281.416 39.225L279 36.7977Z" fill="#1A1A1A"/>
</g>
<g filter="url(#filter2_d_911_777)">
<rect x="27" y="102" width="261" height="37.5" rx="12" fill="#F5F5F5"/>
<rect x="27" y="102" width="261" height="37.5" rx="12" fill="url(#paint0_linear_911_777)"/>
<g filter="url(#filter3_b_911_777)">
<rect x="30" y="105" width="255" height="31.5" rx="9" fill="white"/>
<g clip-path="url(#clip0_911_777)">
<rect x="39" y="113.25" width="15" height="15" rx="7.5" fill="white"/>
<path d="M46.5 128.25C50.6563 128.25 54 124.906 54 120.75C54 116.594 50.6563 113.25 46.5 113.25C42.3437 113.25 39 116.594 39 120.75C39 124.906 42.3437 128.25 46.5 128.25Z" fill="#2775CA"/>
<path d="M48.562 121.938C48.562 120.844 47.9057 120.469 46.5932 120.313C45.6557 120.188 45.4682 119.938 45.4682 119.5C45.4682 119.062 45.7808 118.781 46.4057 118.781C46.9682 118.781 47.2808 118.969 47.437 119.438C47.4683 119.531 47.562 119.594 47.6558 119.594H48.1557C48.2807 119.594 48.3745 119.5 48.3745 119.375V119.344C48.2495 118.656 47.687 118.125 46.9682 118.063V117.313C46.9682 117.188 46.8745 117.094 46.7183 117.062H46.2495C46.1245 117.062 46.0307 117.156 45.9995 117.313V118.031C45.062 118.156 44.4683 118.781 44.4683 119.563C44.4683 120.594 45.0932 121 46.4057 121.156C47.2808 121.313 47.562 121.5 47.562 122C47.562 122.5 47.1245 122.844 46.5308 122.844C45.7182 122.844 45.437 122.5 45.3432 122.031C45.312 121.906 45.2183 121.844 45.1245 121.844H44.5932C44.4683 121.844 44.3745 121.938 44.3745 122.063V122.094C44.4995 122.875 44.9995 123.438 46.0307 123.594V124.344C46.0307 124.469 46.1245 124.563 46.2807 124.594H46.7495C46.8745 124.594 46.9682 124.5 46.9995 124.344V123.594C47.937 123.438 48.562 122.781 48.562 121.938Z" fill="white"/>
<path d="M44.9069 125.219C42.4694 124.344 41.2193 121.625 42.1256 119.219C42.5944 117.906 43.6256 116.906 44.9069 116.437C45.0319 116.375 45.0944 116.281 45.0944 116.125V115.687C45.0944 115.562 45.0319 115.469 44.9069 115.438C44.8756 115.438 44.8131 115.437 44.7818 115.469C41.8131 116.406 40.1881 119.562 41.1256 122.531C41.6881 124.281 43.0319 125.625 44.7818 126.187C44.9069 126.25 45.0319 126.187 45.0631 126.062C45.0944 126.031 45.0944 126 45.0944 125.938V125.5C45.0944 125.406 45.0006 125.281 44.9069 125.219ZM48.2194 115.469C48.0944 115.406 47.9693 115.469 47.9381 115.594C47.9069 115.625 47.9069 115.656 47.9069 115.719V116.156C47.9069 116.281 48.0006 116.406 48.0944 116.469C50.5319 117.344 51.7819 120.062 50.8756 122.469C50.4068 123.781 49.3756 124.781 48.0944 125.25C47.9693 125.312 47.9069 125.406 47.9069 125.562V126C47.9069 126.125 47.9693 126.219 48.0944 126.25C48.1256 126.25 48.1881 126.25 48.2194 126.219C51.1881 125.281 52.8131 122.125 51.8756 119.156C51.3131 117.375 49.9381 116.031 48.2194 115.469Z" fill="white"/>
</g>
<path d="M60.1129 117.705V124.25H59.1222V118.695H59.0838L57.5178 119.718V118.772L59.1509 117.705H60.1129ZM63.9823 124.359C63.4773 124.357 63.0459 124.223 62.6879 123.959C62.3299 123.695 62.0562 123.31 61.8665 122.805C61.6769 122.3 61.5821 121.692 61.5821 120.98C61.5821 120.271 61.6769 119.665 61.8665 119.162C62.0583 118.659 62.3331 118.276 62.6911 118.011C63.0512 117.747 63.4816 117.615 63.9823 117.615C64.483 117.615 64.9123 117.748 65.2703 118.015C65.6282 118.279 65.902 118.662 66.0917 119.165C66.2834 119.666 66.3793 120.271 66.3793 120.98C66.3793 121.694 66.2845 122.304 66.0949 122.809C65.9052 123.311 65.6314 123.696 65.2735 123.962C64.9155 124.227 64.4851 124.359 63.9823 124.359ZM63.9823 123.505C64.4255 123.505 64.7717 123.289 65.021 122.857C65.2724 122.424 65.3981 121.799 65.3981 120.98C65.3981 120.437 65.3406 119.978 65.2255 119.603C65.1126 119.226 64.9496 118.94 64.7365 118.746C64.5256 118.55 64.2742 118.452 63.9823 118.452C63.5412 118.452 63.195 118.67 62.9436 119.104C62.6922 119.539 62.5654 120.164 62.5633 120.98C62.5633 121.526 62.6197 121.987 62.7326 122.364C62.8477 122.739 63.0107 123.024 63.2216 123.218C63.4326 123.409 63.6861 123.505 63.9823 123.505ZM69.6119 124.359C69.1069 124.357 68.6754 124.223 68.3175 123.959C67.9595 123.695 67.6857 123.31 67.4961 122.805C67.3065 122.3 67.2116 121.692 67.2116 120.98C67.2116 120.271 67.3065 119.665 67.4961 119.162C67.6879 118.659 67.9627 118.276 68.3207 118.011C68.6807 117.747 69.1111 117.615 69.6119 117.615C70.1126 117.615 70.5419 117.748 70.8999 118.015C71.2578 118.279 71.5316 118.662 71.7212 119.165C71.913 119.666 72.0089 120.271 72.0089 120.98C72.0089 121.694 71.9141 122.304 71.7244 122.809C71.5348 123.311 71.261 123.696 70.9031 123.962C70.5451 124.227 70.1147 124.359 69.6119 124.359ZM69.6119 123.505C70.055 123.505 70.4013 123.289 70.6506 122.857C70.902 122.424 71.0277 121.799 71.0277 120.98C71.0277 120.437 70.9702 119.978 70.8551 119.603C70.7422 119.226 70.5792 118.94 70.3661 118.746C70.1552 118.55 69.9038 118.452 69.6119 118.452C69.1708 118.452 68.8246 118.67 68.5732 119.104C68.3217 119.539 68.195 120.164 68.1928 120.98C68.1928 121.526 68.2493 121.987 68.3622 122.364C68.4773 122.739 68.6403 123.024 68.8512 123.218C69.0621 123.409 69.3157 123.505 69.6119 123.505ZM75.2414 124.359C74.7365 124.357 74.305 124.223 73.947 123.959C73.5891 123.695 73.3153 123.31 73.1257 122.805C72.936 122.3 72.8412 121.692 72.8412 120.98C72.8412 120.271 72.936 119.665 73.1257 119.162C73.3174 118.659 73.5923 118.276 73.9502 118.011C74.3103 117.747 74.7407 117.615 75.2414 117.615C75.7421 117.615 76.1715 117.748 76.5294 118.015C76.8874 118.279 77.1612 118.662 77.3508 119.165C77.5426 119.666 77.6384 120.271 77.6384 120.98C77.6384 121.694 77.5436 122.304 77.354 122.809C77.1644 123.311 76.8906 123.696 76.5326 123.962C76.1747 124.227 75.7443 124.359 75.2414 124.359ZM75.2414 123.505C75.6846 123.505 76.0308 123.289 76.2801 122.857C76.5316 122.424 76.6573 121.799 76.6573 120.98C76.6573 120.437 76.5997 119.978 76.4847 119.603C76.3718 119.226 76.2088 118.94 75.9957 118.746C75.7848 118.55 75.5333 118.452 75.2414 118.452C74.8004 118.452 74.4541 118.67 74.2027 119.104C73.9513 119.539 73.8245 120.164 73.8224 120.98C73.8224 121.526 73.8789 121.987 73.9918 122.364C74.1068 122.739 74.2698 123.024 74.4808 123.218C74.6917 123.409 74.9453 123.505 75.2414 123.505ZM85.0927 117.705H86.0835V122.01C86.0835 122.468 85.9759 122.874 85.7607 123.227C85.5455 123.579 85.2429 123.856 84.853 124.058C84.4631 124.259 84.0061 124.359 83.4819 124.359C82.9599 124.359 82.5039 124.259 82.114 124.058C81.7241 123.856 81.4216 123.579 81.2064 123.227C80.9912 122.874 80.8836 122.468 80.8836 122.01V117.705H81.8711V121.93C81.8711 122.226 81.9361 122.489 82.0661 122.719C82.1982 122.949 82.3846 123.13 82.6254 123.262C82.8662 123.392 83.1517 123.457 83.4819 123.457C83.8143 123.457 84.1009 123.392 84.3417 123.262C84.5846 123.13 84.7699 122.949 84.8978 122.719C85.0277 122.489 85.0927 122.226 85.0927 121.93V117.705ZM90.9093 119.424C90.8752 119.121 90.7345 118.887 90.4874 118.721C90.2402 118.553 89.9291 118.468 89.5541 118.468C89.2857 118.468 89.0534 118.511 88.8574 118.596C88.6614 118.679 88.509 118.794 88.4004 118.941C88.2938 119.086 88.2406 119.251 88.2406 119.437C88.2406 119.592 88.2768 119.727 88.3492 119.839C88.4238 119.952 88.5208 120.047 88.6401 120.124C88.7615 120.199 88.8915 120.261 89.03 120.312C89.1685 120.362 89.3017 120.402 89.4295 120.434L90.0687 120.6C90.2775 120.651 90.4916 120.721 90.7111 120.808C90.9306 120.895 91.134 121.01 91.3215 121.153C91.509 121.296 91.6603 121.473 91.7754 121.684C91.8926 121.895 91.9512 122.147 91.9512 122.441C91.9512 122.812 91.8553 123.141 91.6635 123.429C91.4739 123.716 91.198 123.943 90.8357 124.109C90.4757 124.276 90.0399 124.359 89.5286 124.359C89.0385 124.359 88.6145 124.281 88.2566 124.125C87.8986 123.97 87.6184 123.749 87.416 123.464C87.2136 123.176 87.1017 122.835 87.0804 122.441H88.0712C88.0904 122.678 88.1671 122.875 88.3013 123.032C88.4377 123.188 88.6113 123.304 88.8223 123.381C89.0353 123.455 89.2686 123.493 89.5222 123.493C89.8013 123.493 90.0495 123.449 90.2669 123.362C90.4863 123.272 90.6589 123.148 90.7846 122.991C90.9103 122.831 90.9732 122.645 90.9732 122.431C90.9732 122.238 90.9178 122.079 90.807 121.955C90.6983 121.832 90.5502 121.729 90.3627 121.648C90.1774 121.567 89.9675 121.496 89.7331 121.434L88.9597 121.223C88.4355 121.081 88.0201 120.871 87.7132 120.594C87.4085 120.317 87.2562 119.95 87.2562 119.494C87.2562 119.117 87.3585 118.788 87.563 118.507C87.7676 118.225 88.0446 118.007 88.394 117.852C88.7434 117.694 89.1376 117.615 89.5765 117.615C90.0197 117.615 90.4107 117.693 90.7495 117.848C91.0904 118.004 91.3588 118.218 91.5549 118.491C91.7509 118.761 91.8532 119.072 91.8617 119.424H90.9093ZM95.0703 124.25H92.9513V117.705H95.1374C95.7787 117.705 96.3295 117.836 96.7897 118.098C97.2499 118.358 97.6026 118.732 97.8476 119.219C98.0948 119.705 98.2183 120.288 98.2183 120.968C98.2183 121.65 98.0937 122.235 97.8444 122.725C97.5972 123.216 97.2393 123.593 96.7705 123.857C96.3018 124.119 95.735 124.25 95.0703 124.25ZM93.9389 123.387H95.0159C95.5145 123.387 95.9289 123.293 96.2592 123.106C96.5894 122.916 96.8366 122.642 97.0007 122.284C97.1647 121.924 97.2467 121.485 97.2467 120.968C97.2467 120.454 97.1647 120.018 97.0007 119.661C96.8387 119.303 96.5969 119.031 96.2752 118.846C95.9534 118.66 95.5539 118.567 95.0766 118.567H93.9389V123.387ZM104.703 119.833H103.706C103.667 119.62 103.596 119.433 103.492 119.271C103.387 119.109 103.259 118.971 103.108 118.858C102.957 118.745 102.787 118.66 102.6 118.603C102.414 118.545 102.217 118.516 102.009 118.516C101.631 118.516 101.294 118.611 100.995 118.801C100.699 118.99 100.465 119.268 100.292 119.635C100.122 120.001 100.037 120.449 100.037 120.977C100.037 121.51 100.122 121.96 100.292 122.326C100.465 122.692 100.7 122.969 100.999 123.157C101.297 123.344 101.633 123.438 102.005 123.438C102.212 123.438 102.408 123.411 102.593 123.355C102.781 123.298 102.95 123.213 103.102 123.103C103.253 122.992 103.381 122.857 103.485 122.697C103.592 122.535 103.665 122.349 103.706 122.141L104.703 122.144C104.65 122.466 104.546 122.762 104.393 123.032C104.242 123.301 104.047 123.533 103.808 123.729C103.571 123.923 103.301 124.073 102.996 124.18C102.691 124.286 102.359 124.339 101.999 124.339C101.432 124.339 100.927 124.205 100.484 123.937C100.041 123.666 99.6915 123.279 99.4358 122.777C99.1822 122.274 99.0555 121.674 99.0555 120.977C99.0555 120.278 99.1833 119.679 99.439 119.178C99.6947 118.675 100.044 118.289 100.487 118.021C100.93 117.75 101.434 117.615 101.999 117.615C102.346 117.615 102.67 117.665 102.971 117.765C103.273 117.863 103.545 118.008 103.786 118.2C104.026 118.39 104.226 118.622 104.383 118.897C104.541 119.169 104.647 119.482 104.703 119.833Z" fill="#1A1A1A"/>
</g>
</g>
<g filter="url(#filter4_d_911_777)">
<rect x="27" y="172.5" width="261" height="102" rx="12" fill="url(#paint1_linear_911_777)"/>
<g filter="url(#filter5_b_911_777)">
<path d="M30 184.5C30 179.529 34.0294 175.5 39 175.5H276C280.971 175.5 285 179.529 285 184.5V199.5H30V184.5Z" fill="white"/>
<path d="M39.7191 191V184.455H42.1161C42.5806 184.455 42.9652 184.531 43.2699 184.685C43.5746 184.836 43.8026 185.042 43.9538 185.301C44.1051 185.559 44.1808 185.85 44.1808 186.174C44.1808 186.447 44.1307 186.677 44.0305 186.864C43.9304 187.05 43.7962 187.199 43.6278 187.312C43.4616 187.423 43.2784 187.504 43.0781 187.555V187.619C43.2955 187.629 43.5075 187.7 43.7141 187.83C43.9229 187.957 44.0955 188.14 44.2319 188.376C44.3683 188.613 44.4364 188.9 44.4364 189.239C44.4364 189.574 44.3576 189.874 44.1999 190.14C44.0444 190.404 43.8036 190.614 43.4776 190.77C43.1516 190.923 42.7351 191 42.228 191H39.7191ZM40.7067 190.153H42.1321C42.6051 190.153 42.9439 190.061 43.1484 189.878C43.353 189.695 43.4553 189.466 43.4553 189.191C43.4553 188.984 43.4031 188.795 43.2987 188.622C43.1942 188.45 43.0451 188.312 42.8512 188.21C42.6594 188.108 42.4315 188.056 42.1673 188.056H40.7067V190.153ZM40.7067 187.286H42.0298C42.2514 187.286 42.4506 187.244 42.6275 187.158C42.8065 187.073 42.9482 186.954 43.0526 186.8C43.1591 186.645 43.2124 186.462 43.2124 186.251C43.2124 185.98 43.1175 185.753 42.9279 185.57C42.7383 185.387 42.4474 185.295 42.0554 185.295H40.7067V187.286ZM46.7797 191.109C46.4686 191.109 46.1874 191.051 45.9359 190.936C45.6845 190.819 45.4853 190.65 45.3383 190.428C45.1934 190.206 45.121 189.935 45.121 189.613C45.121 189.336 45.1742 189.108 45.2808 188.929C45.3873 188.75 45.5311 188.608 45.7122 188.504C45.8933 188.4 46.0957 188.321 46.3195 188.267C46.5432 188.214 46.7712 188.174 47.0034 188.146C47.2975 188.112 47.5361 188.084 47.7193 188.063C47.9026 188.039 48.0357 188.002 48.1188 187.951C48.2019 187.9 48.2435 187.817 48.2435 187.702V187.679C48.2435 187.4 48.1646 187.184 48.007 187.031C47.8514 186.877 47.6192 186.8 47.3102 186.8C46.9885 186.8 46.735 186.872 46.5496 187.015C46.3663 187.155 46.2396 187.312 46.1693 187.484L45.2712 187.28C45.3777 186.982 45.5332 186.741 45.7378 186.558C45.9445 186.372 46.182 186.238 46.4505 186.155C46.719 186.07 47.0013 186.027 47.2975 186.027C47.4935 186.027 47.7012 186.05 47.9207 186.097C48.1423 186.142 48.3489 186.225 48.5407 186.347C48.7346 186.468 48.8933 186.642 49.0169 186.868C49.1405 187.091 49.2023 187.382 49.2023 187.74V191H48.269V190.329H48.2307C48.1689 190.452 48.0762 190.574 47.9526 190.693C47.8291 190.812 47.6703 190.912 47.4764 190.99C47.2825 191.069 47.0503 191.109 46.7797 191.109ZM46.9874 190.342C47.2516 190.342 47.4775 190.289 47.665 190.185C47.8546 190.081 47.9984 189.944 48.0965 189.776C48.1966 189.605 48.2467 189.423 48.2467 189.229V188.597C48.2126 188.631 48.1465 188.663 48.0485 188.692C47.9526 188.72 47.8429 188.745 47.7193 188.766C47.5957 188.785 47.4754 188.803 47.3582 188.82C47.241 188.835 47.143 188.848 47.0641 188.859C46.8788 188.882 46.7094 188.922 46.556 188.977C46.4047 189.032 46.2832 189.112 46.1916 189.217C46.1021 189.319 46.0574 189.455 46.0574 189.626C46.0574 189.862 46.1448 190.041 46.3195 190.163C46.4942 190.282 46.7168 190.342 46.9874 190.342ZM51.2507 188.085V191H50.2951V186.091H51.2124V186.89H51.2731C51.386 186.63 51.5629 186.421 51.8036 186.263C52.0465 186.106 52.3523 186.027 52.7209 186.027C53.0554 186.027 53.3484 186.097 53.5998 186.238C53.8512 186.376 54.0462 186.583 54.1847 186.858C54.3232 187.133 54.3924 187.473 54.3924 187.877V191H53.4368V187.993C53.4368 187.637 53.3441 187.359 53.1587 187.158C52.9734 186.956 52.7187 186.855 52.3949 186.855C52.1733 186.855 51.9762 186.903 51.8036 186.999C51.6332 187.094 51.4979 187.235 51.3977 187.42C51.2997 187.604 51.2507 187.825 51.2507 188.085ZM56.3729 189.335L56.3665 188.168H56.5327L58.4887 186.091H59.6329L57.402 188.456H57.2518L56.3729 189.335ZM55.494 191V184.455H56.4496V191H55.494ZM58.5941 191L56.8363 188.667L57.4947 187.999L59.7671 191H58.5941Z" fill="#666666"/>
<path d="M185.397 186.091L186.48 188.002L187.573 186.091H188.618L187.087 188.545L188.631 191H187.586L186.48 189.165L185.377 191H184.329L185.857 188.545L184.348 186.091H185.397ZM190.023 192.841C189.881 192.841 189.751 192.829 189.634 192.806C189.516 192.784 189.429 192.761 189.371 192.735L189.602 191.952C189.776 191.999 189.932 192.02 190.068 192.013C190.205 192.007 190.325 191.956 190.429 191.86C190.536 191.764 190.63 191.607 190.711 191.39L190.829 191.064L189.033 186.091H190.055L191.299 189.901H191.35L192.593 186.091H193.619L191.596 191.655C191.502 191.911 191.383 192.127 191.238 192.304C191.093 192.483 190.92 192.617 190.72 192.707C190.52 192.796 190.288 192.841 190.023 192.841ZM194.235 191V190.345L196.894 186.967V186.922H194.321V186.091H198.086V186.788L195.529 190.124V190.169H198.176V191H194.235ZM202.389 184.455V191H201.401V184.455H202.389ZM204.526 188.085V191H203.571V186.091H204.488V186.89H204.549C204.661 186.63 204.838 186.421 205.079 186.263C205.322 186.106 205.628 186.027 205.996 186.027C206.331 186.027 206.624 186.097 206.875 186.238C207.127 186.376 207.322 186.583 207.46 186.858C207.599 187.133 207.668 187.473 207.668 187.877V191H206.712V187.993C206.712 187.637 206.62 187.359 206.434 187.158C206.249 186.956 205.994 186.855 205.67 186.855C205.449 186.855 205.252 186.903 205.079 186.999C204.909 187.094 204.773 187.235 204.673 187.42C204.575 187.604 204.526 187.825 204.526 188.085ZM211.061 186.091V186.858H208.38V186.091H211.061ZM209.099 184.915H210.054V189.559C210.054 189.744 210.082 189.884 210.137 189.977C210.193 190.069 210.264 190.132 210.351 190.166C210.441 190.198 210.538 190.214 210.642 190.214C210.719 190.214 210.786 190.208 210.844 190.198C210.901 190.187 210.946 190.179 210.978 190.172L211.15 190.962C211.095 190.983 211.016 191.004 210.914 191.026C210.812 191.049 210.684 191.062 210.53 191.064C210.279 191.068 210.045 191.023 209.827 190.93C209.61 190.836 209.434 190.691 209.3 190.495C209.166 190.299 209.099 190.053 209.099 189.757V184.915ZM214.001 191.099C213.517 191.099 213.101 190.996 212.751 190.789C212.404 190.58 212.136 190.287 211.946 189.91C211.759 189.531 211.665 189.087 211.665 188.577C211.665 188.075 211.759 187.631 211.946 187.248C212.136 186.864 212.4 186.565 212.739 186.35C213.08 186.135 213.478 186.027 213.934 186.027C214.211 186.027 214.479 186.073 214.739 186.164C214.999 186.256 215.233 186.4 215.439 186.596C215.646 186.792 215.809 187.047 215.928 187.36C216.048 187.671 216.107 188.049 216.107 188.494V188.833H212.205V188.117H215.171C215.171 187.866 215.12 187.643 215.017 187.449C214.915 187.253 214.771 187.099 214.586 186.986C214.403 186.873 214.188 186.816 213.94 186.816C213.672 186.816 213.438 186.882 213.237 187.015C213.039 187.145 212.886 187.315 212.777 187.526C212.67 187.735 212.617 187.962 212.617 188.207V188.766C212.617 189.094 212.675 189.373 212.79 189.603C212.907 189.833 213.07 190.009 213.279 190.131C213.488 190.25 213.732 190.31 214.011 190.31C214.192 190.31 214.357 190.284 214.506 190.233C214.655 190.18 214.784 190.101 214.893 189.996C215.001 189.892 215.085 189.763 215.142 189.61L216.047 189.773C215.974 190.039 215.844 190.272 215.657 190.473C215.471 190.671 215.238 190.825 214.957 190.936C214.678 191.045 214.359 191.099 214.001 191.099ZM216.988 191V186.091H217.911V186.871H217.962C218.052 186.607 218.21 186.399 218.435 186.248C218.663 186.094 218.921 186.017 219.209 186.017C219.268 186.017 219.339 186.02 219.42 186.024C219.503 186.028 219.568 186.033 219.615 186.04V186.954C219.576 186.943 219.508 186.931 219.41 186.919C219.312 186.904 219.214 186.896 219.116 186.896C218.89 186.896 218.689 186.944 218.512 187.04C218.337 187.134 218.199 187.265 218.097 187.433C217.994 187.599 217.943 187.789 217.943 188.002V191H216.988ZM221.217 188.085V191H220.262V186.091H221.179V186.89H221.24C221.353 186.63 221.529 186.421 221.77 186.263C222.013 186.106 222.319 186.027 222.687 186.027C223.022 186.027 223.315 186.097 223.566 186.238C223.818 186.376 224.013 186.583 224.151 186.858C224.29 187.133 224.359 187.473 224.359 187.877V191H223.403V187.993C223.403 187.637 223.311 187.359 223.125 187.158C222.94 186.956 222.685 186.855 222.361 186.855C222.14 186.855 221.943 186.903 221.77 186.999C221.6 187.094 221.464 187.235 221.364 187.42C221.266 187.604 221.217 187.825 221.217 188.085ZM226.889 191.109C226.578 191.109 226.297 191.051 226.045 190.936C225.794 190.819 225.595 190.65 225.448 190.428C225.303 190.206 225.23 189.935 225.23 189.613C225.23 189.336 225.284 189.108 225.39 188.929C225.497 188.75 225.641 188.608 225.822 188.504C226.003 188.4 226.205 188.321 226.429 188.267C226.653 188.214 226.881 188.174 227.113 188.146C227.407 188.112 227.646 188.084 227.829 188.063C228.012 188.039 228.145 188.002 228.228 187.951C228.311 187.9 228.353 187.817 228.353 187.702V187.679C228.353 187.4 228.274 187.184 228.116 187.031C227.961 186.877 227.729 186.8 227.42 186.8C227.098 186.8 226.844 186.872 226.659 187.015C226.476 187.155 226.349 187.312 226.279 187.484L225.381 187.28C225.487 186.982 225.643 186.741 225.847 186.558C226.054 186.372 226.292 186.238 226.56 186.155C226.828 186.07 227.111 186.027 227.407 186.027C227.603 186.027 227.811 186.05 228.03 186.097C228.252 186.142 228.458 186.225 228.65 186.347C228.844 186.468 229.003 186.642 229.126 186.868C229.25 187.091 229.312 187.382 229.312 187.74V191H228.379V190.329H228.34C228.278 190.452 228.186 190.574 228.062 190.693C227.939 190.812 227.78 190.912 227.586 190.99C227.392 191.069 227.16 191.109 226.889 191.109ZM227.097 190.342C227.361 190.342 227.587 190.289 227.774 190.185C227.964 190.081 228.108 189.944 228.206 189.776C228.306 189.605 228.356 189.423 228.356 189.229V188.597C228.322 188.631 228.256 188.663 228.158 188.692C228.062 188.72 227.952 188.745 227.829 188.766C227.705 188.785 227.585 188.803 227.468 188.82C227.35 188.835 227.252 188.848 227.174 188.859C226.988 188.882 226.819 188.922 226.665 188.977C226.514 189.032 226.393 189.112 226.301 189.217C226.212 189.319 226.167 189.455 226.167 189.626C226.167 189.862 226.254 190.041 226.429 190.163C226.604 190.282 226.826 190.342 227.097 190.342ZM232.696 186.091V186.858H230.015V186.091H232.696ZM230.734 184.915H231.689V189.559C231.689 189.744 231.717 189.884 231.772 189.977C231.828 190.069 231.899 190.132 231.987 190.166C232.076 190.198 232.173 190.214 232.277 190.214C232.354 190.214 232.421 190.208 232.479 190.198C232.536 190.187 232.581 190.179 232.613 190.172L232.786 190.962C232.73 190.983 232.651 191.004 232.549 191.026C232.447 191.049 232.319 191.062 232.166 191.064C231.914 191.068 231.68 191.023 231.462 190.93C231.245 190.836 231.069 190.691 230.935 190.495C230.801 190.299 230.734 190.053 230.734 189.757V184.915ZM233.573 191V186.091H234.529V191H233.573ZM234.056 185.333C233.89 185.333 233.747 185.278 233.628 185.167C233.51 185.054 233.452 184.92 233.452 184.765C233.452 184.607 233.51 184.473 233.628 184.362C233.747 184.249 233.89 184.192 234.056 184.192C234.222 184.192 234.364 184.249 234.481 184.362C234.6 184.473 234.66 184.607 234.66 184.765C234.66 184.92 234.6 185.054 234.481 185.167C234.364 185.278 234.222 185.333 234.056 185.333ZM237.702 191.099C237.242 191.099 236.84 190.994 236.497 190.783C236.154 190.572 235.888 190.277 235.698 189.897C235.509 189.518 235.414 189.075 235.414 188.568C235.414 188.059 235.509 187.613 235.698 187.232C235.888 186.85 236.154 186.554 236.497 186.343C236.84 186.132 237.242 186.027 237.702 186.027C238.162 186.027 238.564 186.132 238.907 186.343C239.25 186.554 239.517 186.85 239.706 187.232C239.896 187.613 239.991 188.059 239.991 188.568C239.991 189.075 239.896 189.518 239.706 189.897C239.517 190.277 239.25 190.572 238.907 190.783C238.564 190.994 238.162 191.099 237.702 191.099ZM237.705 190.297C238.004 190.297 238.251 190.218 238.447 190.06C238.643 189.903 238.788 189.693 238.882 189.431C238.977 189.169 239.025 188.88 239.025 188.565C239.025 188.251 238.977 187.964 238.882 187.702C238.788 187.437 238.643 187.225 238.447 187.066C238.251 186.906 238.004 186.826 237.705 186.826C237.405 186.826 237.156 186.906 236.958 187.066C236.762 187.225 236.616 187.437 236.52 187.702C236.426 187.964 236.379 188.251 236.379 188.565C236.379 188.88 236.426 189.169 236.52 189.431C236.616 189.693 236.762 189.903 236.958 190.06C237.156 190.218 237.405 190.297 237.705 190.297ZM241.833 188.085V191H240.877V186.091H241.795V186.89H241.855C241.968 186.63 242.145 186.421 242.386 186.263C242.629 186.106 242.934 186.027 243.303 186.027C243.638 186.027 243.931 186.097 244.182 186.238C244.433 186.376 244.628 186.583 244.767 186.858C244.905 187.133 244.975 187.473 244.975 187.877V191H244.019V187.993C244.019 187.637 243.926 187.359 243.741 187.158C243.556 186.956 243.301 186.855 242.977 186.855C242.755 186.855 242.558 186.903 242.386 186.999C242.215 187.094 242.08 187.235 241.98 187.42C241.882 187.604 241.833 187.825 241.833 188.085ZM247.505 191.109C247.194 191.109 246.912 191.051 246.661 190.936C246.41 190.819 246.21 190.65 246.063 190.428C245.919 190.206 245.846 189.935 245.846 189.613C245.846 189.336 245.899 189.108 246.006 188.929C246.112 188.75 246.256 188.608 246.437 188.504C246.618 188.4 246.821 188.321 247.045 188.267C247.268 188.214 247.496 188.174 247.729 188.146C248.023 188.112 248.261 188.084 248.444 188.063C248.628 188.039 248.761 188.002 248.844 187.951C248.927 187.9 248.969 187.817 248.969 187.702V187.679C248.969 187.4 248.89 187.184 248.732 187.031C248.577 186.877 248.344 186.8 248.035 186.8C247.714 186.8 247.46 186.872 247.275 187.015C247.091 187.155 246.965 187.312 246.894 187.484L245.996 187.28C246.103 186.982 246.258 186.741 246.463 186.558C246.67 186.372 246.907 186.238 247.176 186.155C247.444 186.07 247.726 186.027 248.023 186.027C248.219 186.027 248.426 186.05 248.646 186.097C248.867 186.142 249.074 186.225 249.266 186.347C249.46 186.468 249.618 186.642 249.742 186.868C249.866 187.091 249.927 187.382 249.927 187.74V191H248.994V190.329H248.956C248.894 190.452 248.801 190.574 248.678 190.693C248.554 190.812 248.395 190.912 248.202 190.99C248.008 191.069 247.775 191.109 247.505 191.109ZM247.713 190.342C247.977 190.342 248.203 190.289 248.39 190.185C248.58 190.081 248.724 189.944 248.822 189.776C248.922 189.605 248.972 189.423 248.972 189.229V188.597C248.938 188.631 248.872 188.663 248.774 188.692C248.678 188.72 248.568 188.745 248.444 188.766C248.321 188.785 248.2 188.803 248.083 188.82C247.966 188.835 247.868 188.848 247.789 188.859C247.604 188.882 247.434 188.922 247.281 188.977C247.13 189.032 247.008 189.112 246.917 189.217C246.827 189.319 246.783 189.455 246.783 189.626C246.783 189.862 246.87 190.041 247.045 190.163C247.219 190.282 247.442 190.342 247.713 190.342ZM251.976 184.455V191H251.02V184.455H251.976ZM255.36 191V184.455H257.757C258.221 184.455 258.606 184.531 258.911 184.685C259.215 184.836 259.443 185.042 259.595 185.301C259.746 185.559 259.822 185.85 259.822 186.174C259.822 186.447 259.772 186.677 259.671 186.864C259.571 187.05 259.437 187.199 259.269 187.312C259.103 187.423 258.919 187.504 258.719 187.555V187.619C258.936 187.629 259.148 187.7 259.355 187.83C259.564 187.957 259.736 188.14 259.873 188.376C260.009 188.613 260.077 188.9 260.077 189.239C260.077 189.574 259.998 189.874 259.841 190.14C259.685 190.404 259.444 190.614 259.118 190.77C258.792 190.923 258.376 191 257.869 191H255.36ZM256.348 190.153H257.773C258.246 190.153 258.585 190.061 258.789 189.878C258.994 189.695 259.096 189.466 259.096 189.191C259.096 188.984 259.044 188.795 258.94 188.622C258.835 188.45 258.686 188.312 258.492 188.21C258.3 188.108 258.072 188.056 257.808 188.056H256.348V190.153ZM256.348 187.286H257.671C257.892 187.286 258.092 187.244 258.268 187.158C258.447 187.073 258.589 186.954 258.693 186.8C258.8 186.645 258.853 186.462 258.853 186.251C258.853 185.98 258.758 185.753 258.569 185.57C258.379 185.387 258.088 185.295 257.696 185.295H256.348V187.286ZM262.421 191.109C262.109 191.109 261.828 191.051 261.577 190.936C261.325 190.819 261.126 190.65 260.979 190.428C260.834 190.206 260.762 189.935 260.762 189.613C260.762 189.336 260.815 189.108 260.922 188.929C261.028 188.75 261.172 188.608 261.353 188.504C261.534 188.4 261.737 188.321 261.96 188.267C262.184 188.214 262.412 188.174 262.644 188.146C262.938 188.112 263.177 188.084 263.36 188.063C263.543 188.039 263.677 188.002 263.76 187.951C263.843 187.9 263.884 187.817 263.884 187.702V187.679C263.884 187.4 263.805 187.184 263.648 187.031C263.492 186.877 263.26 186.8 262.951 186.8C262.629 186.8 262.376 186.872 262.19 187.015C262.007 187.155 261.88 187.312 261.81 187.484L260.912 187.28C261.019 186.982 261.174 186.741 261.379 186.558C261.585 186.372 261.823 186.238 262.091 186.155C262.36 186.07 262.642 186.027 262.938 186.027C263.134 186.027 263.342 186.05 263.562 186.097C263.783 186.142 263.99 186.225 264.182 186.347C264.375 186.468 264.534 186.642 264.658 186.868C264.781 187.091 264.843 187.382 264.843 187.74V191H263.91V190.329H263.872C263.81 190.452 263.717 190.574 263.593 190.693C263.47 190.812 263.311 190.912 263.117 190.99C262.923 191.069 262.691 191.109 262.421 191.109ZM262.628 190.342C262.893 190.342 263.118 190.289 263.306 190.185C263.495 190.081 263.639 189.944 263.737 189.776C263.837 189.605 263.888 189.423 263.888 189.229V188.597C263.853 188.631 263.787 188.663 263.689 188.692C263.593 188.72 263.484 188.745 263.36 188.766C263.237 188.785 263.116 188.803 262.999 188.82C262.882 188.835 262.784 188.848 262.705 188.859C262.52 188.882 262.35 188.922 262.197 188.977C262.046 189.032 261.924 189.112 261.832 189.217C261.743 189.319 261.698 189.455 261.698 189.626C261.698 189.862 261.786 190.041 261.96 190.163C262.135 190.282 262.358 190.342 262.628 190.342ZM266.892 188.085V191H265.936V186.091H266.853V186.89H266.914C267.027 186.63 267.204 186.421 267.444 186.263C267.687 186.106 267.993 186.027 268.362 186.027C268.696 186.027 268.989 186.097 269.241 186.238C269.492 186.376 269.687 186.583 269.826 186.858C269.964 187.133 270.033 187.473 270.033 187.877V191H269.078V187.993C269.078 187.637 268.985 187.359 268.8 187.158C268.614 186.956 268.36 186.855 268.036 186.855C267.814 186.855 267.617 186.903 267.444 186.999C267.274 187.094 267.139 187.235 267.039 187.42C266.941 187.604 266.892 187.825 266.892 188.085ZM272.014 189.335L272.007 188.168H272.174L274.13 186.091H275.274L273.043 188.456H272.893L272.014 189.335ZM271.135 191V184.455H272.09V191H271.135ZM274.235 191L272.477 188.667L273.136 187.999L275.408 191H274.235Z" fill="#1A1A1A"/>
</g>
<g filter="url(#filter6_b_911_777)">
<rect width="255" height="24" transform="translate(30 199.5)" fill="white"/>
<path d="M40.272 215H39.2237L41.5792 208.455H42.7202L45.0756 215H44.0273L42.1768 209.643H42.1257L40.272 215ZM40.4478 212.437H43.8484V213.268H40.4478V212.437ZM47.7529 215.099C47.2777 215.099 46.8687 214.991 46.5256 214.776C46.1847 214.559 45.9226 214.26 45.7394 213.878C45.5562 213.497 45.4645 213.06 45.4645 212.568C45.4645 212.069 45.5583 211.629 45.7458 211.248C45.9333 210.864 46.1975 210.565 46.5384 210.35C46.8793 210.135 47.2809 210.027 47.7433 210.027C48.1162 210.027 48.4486 210.096 48.7405 210.235C49.0324 210.371 49.2678 210.563 49.4468 210.81C49.6279 211.057 49.7355 211.346 49.7696 211.676H48.8395C48.7884 211.446 48.6712 211.248 48.488 211.082C48.3069 210.915 48.064 210.832 47.7593 210.832C47.4929 210.832 47.2596 210.903 47.0593 211.043C46.8612 211.182 46.7067 211.38 46.5959 211.638C46.4851 211.893 46.4297 212.196 46.4297 212.545C46.4297 212.903 46.4841 213.212 46.5927 213.472C46.7014 213.732 46.8548 213.934 47.053 214.076C47.2532 214.219 47.4887 214.29 47.7593 214.29C47.9404 214.29 48.1044 214.257 48.2515 214.191C48.4006 214.123 48.5253 214.026 48.6254 213.901C48.7277 213.775 48.799 213.624 48.8395 213.447H49.7696C49.7355 213.764 49.6321 214.048 49.4596 214.297C49.287 214.546 49.0558 214.742 48.766 214.885C48.4784 215.028 48.1407 215.099 47.7529 215.099ZM52.6793 215.099C52.2042 215.099 51.7951 214.991 51.4521 214.776C51.1111 214.559 50.8491 214.26 50.6658 213.878C50.4826 213.497 50.391 213.06 50.391 212.568C50.391 212.069 50.4847 211.629 50.6722 211.248C50.8597 210.864 51.1239 210.565 51.4648 210.35C51.8057 210.135 52.2074 210.027 52.6697 210.027C53.0426 210.027 53.375 210.096 53.6669 210.235C53.9588 210.371 54.1942 210.563 54.3732 210.81C54.5543 211.057 54.6619 211.346 54.696 211.676H53.766C53.7148 211.446 53.5977 211.248 53.4144 211.082C53.2333 210.915 52.9904 210.832 52.6857 210.832C52.4194 210.832 52.1861 210.903 51.9858 211.043C51.7876 211.182 51.6332 211.38 51.5224 211.638C51.4116 211.893 51.3562 212.196 51.3562 212.545C51.3562 212.903 51.4105 213.212 51.5192 213.472C51.6278 213.732 51.7812 213.934 51.9794 214.076C52.1797 214.219 52.4151 214.29 52.6857 214.29C52.8668 214.29 53.0309 214.257 53.1779 214.191C53.3271 214.123 53.4517 214.026 53.5518 213.901C53.6541 213.775 53.7255 213.624 53.766 213.447H54.696C54.6619 213.764 54.5586 214.048 54.386 214.297C54.2134 214.546 53.9822 214.742 53.6925 214.885C53.4048 215.028 53.0671 215.099 52.6793 215.099ZM57.6058 215.099C57.1455 215.099 56.7439 214.994 56.4009 214.783C56.0578 214.572 55.7915 214.277 55.6019 213.897C55.4122 213.518 55.3174 213.075 55.3174 212.568C55.3174 212.059 55.4122 211.613 55.6019 211.232C55.7915 210.85 56.0578 210.554 56.4009 210.343C56.7439 210.132 57.1455 210.027 57.6058 210.027C58.066 210.027 58.4676 210.132 58.8107 210.343C59.1537 210.554 59.42 210.85 59.6097 211.232C59.7993 211.613 59.8941 212.059 59.8941 212.568C59.8941 213.075 59.7993 213.518 59.6097 213.897C59.42 214.277 59.1537 214.572 58.8107 214.783C58.4676 214.994 58.066 215.099 57.6058 215.099ZM57.609 214.297C57.9073 214.297 58.1544 214.218 58.3504 214.06C58.5465 213.903 58.6914 213.693 58.7851 213.431C58.881 213.169 58.9289 212.88 58.9289 212.565C58.9289 212.251 58.881 211.964 58.7851 211.702C58.6914 211.437 58.5465 211.225 58.3504 211.066C58.1544 210.906 57.9073 210.826 57.609 210.826C57.3085 210.826 57.0593 210.906 56.8611 211.066C56.6651 211.225 56.5191 211.437 56.4232 211.702C56.3295 211.964 56.2826 212.251 56.2826 212.565C56.2826 212.88 56.3295 213.169 56.4232 213.431C56.5191 213.693 56.6651 213.903 56.8611 214.06C57.0593 214.218 57.3085 214.297 57.609 214.297ZM63.8905 212.964V210.091H64.8493V215H63.9097V214.15H63.8586C63.7456 214.412 63.5645 214.63 63.3152 214.805C63.0681 214.978 62.7602 215.064 62.3916 215.064C62.0763 215.064 61.7971 214.995 61.5542 214.856C61.3135 214.716 61.1238 214.508 60.9853 214.233C60.849 213.958 60.7808 213.618 60.7808 213.213V210.091H61.7364V213.098C61.7364 213.433 61.8291 213.699 62.0145 213.897C62.1998 214.096 62.4406 214.195 62.7368 214.195C62.9157 214.195 63.0937 214.15 63.2705 214.06C63.4495 213.971 63.5976 213.836 63.7147 213.654C63.8341 213.473 63.8927 213.243 63.8905 212.964ZM66.9089 212.085V215H65.9533V210.091H66.8706V210.89H66.9313C67.0442 210.63 67.2211 210.421 67.4619 210.263C67.7048 210.106 68.0105 210.027 68.3791 210.027C68.7136 210.027 69.0066 210.097 69.258 210.238C69.5094 210.376 69.7044 210.583 69.8429 210.858C69.9814 211.133 70.0506 211.473 70.0506 211.877V215H69.095V211.993C69.095 211.637 69.0023 211.359 68.817 211.158C68.6316 210.956 68.377 210.855 68.0531 210.855C67.8315 210.855 67.6344 210.903 67.4619 210.999C67.2914 211.094 67.1561 211.235 67.056 211.42C66.958 211.604 66.9089 211.825 66.9089 212.085ZM73.4438 210.091V210.858H70.7623V210.091H73.4438ZM71.4814 208.915H72.437V213.559C72.437 213.744 72.4647 213.884 72.5201 213.977C72.5755 214.069 72.6469 214.132 72.7343 214.166C72.8238 214.198 72.9207 214.214 73.0251 214.214C73.1018 214.214 73.1689 214.208 73.2265 214.198C73.284 214.187 73.3287 214.179 73.3607 214.172L73.5333 214.962C73.4779 214.983 73.399 215.004 73.2968 215.026C73.1945 215.049 73.0667 215.062 72.9133 215.064C72.6618 215.068 72.4275 215.023 72.2101 214.93C71.9928 214.836 71.817 214.691 71.6828 214.495C71.5486 214.299 71.4814 214.053 71.4814 213.757V208.915ZM81.8824 208.455V215H80.9748L77.6477 210.2H77.587V215H76.5994V208.455H77.5135L80.8437 213.261H80.9045V208.455H81.8824ZM86.1761 212.964V210.091H87.1349V215H86.1953V214.15H86.1441C86.0312 214.412 85.8501 214.63 85.6008 214.805C85.3536 214.978 85.0458 215.064 84.6771 215.064C84.3618 215.064 84.0827 214.995 83.8398 214.856C83.599 214.716 83.4094 214.508 83.2709 214.233C83.1345 213.958 83.0663 213.618 83.0663 213.213V210.091H84.022V213.098C84.022 213.433 84.1146 213.699 84.3 213.897C84.4854 214.096 84.7261 214.195 85.0223 214.195C85.2013 214.195 85.3792 214.15 85.556 214.06C85.735 213.971 85.8831 213.836 86.0003 213.654C86.1196 213.473 86.1782 213.243 86.1761 212.964ZM88.2389 215V210.091H89.1561V210.89H89.2169C89.3191 210.619 89.4864 210.408 89.7186 210.257C89.9509 210.104 90.2289 210.027 90.5528 210.027C90.8809 210.027 91.1558 210.104 91.3774 210.257C91.6011 210.411 91.7662 210.621 91.8728 210.89H91.9239C92.0411 210.628 92.2275 210.419 92.4832 210.263C92.7389 210.106 93.0436 210.027 93.3973 210.027C93.8426 210.027 94.2059 210.167 94.4871 210.446C94.7705 210.725 94.9122 211.146 94.9122 211.708V215H93.9566V211.798C93.9566 211.465 93.866 211.224 93.6849 211.075C93.5038 210.926 93.2875 210.852 93.0361 210.852C92.725 210.852 92.4832 210.947 92.3106 211.139C92.138 211.329 92.0517 211.573 92.0517 211.871V215H91.0993V211.737C91.0993 211.471 91.0162 211.256 90.85 211.094C90.6838 210.933 90.4676 210.852 90.2012 210.852C90.0201 210.852 89.8529 210.9 89.6995 210.995C89.5482 211.089 89.4257 211.22 89.3319 211.388C89.2403 211.557 89.1945 211.752 89.1945 211.973V215H88.2389ZM96.0897 215V208.455H97.0453V210.887H97.1028C97.1582 210.784 97.2381 210.666 97.3425 210.532C97.4469 210.398 97.5918 210.281 97.7772 210.18C97.9626 210.078 98.2076 210.027 98.5123 210.027C98.9086 210.027 99.2623 210.127 99.5734 210.327C99.8844 210.528 100.128 210.816 100.305 211.194C100.484 211.571 100.574 212.025 100.574 212.555C100.574 213.086 100.485 213.54 100.308 213.92C100.132 214.297 99.8887 214.588 99.5797 214.792C99.2708 214.995 98.9182 215.096 98.5219 215.096C98.2236 215.096 97.9796 215.046 97.79 214.946C97.6025 214.846 97.4555 214.728 97.3489 214.594C97.2424 214.46 97.1604 214.341 97.1028 214.236H97.0229V215H96.0897ZM97.0261 212.545C97.0261 212.891 97.0762 213.193 97.1763 213.453C97.2765 213.713 97.4214 213.917 97.611 214.064C97.8006 214.208 98.0329 214.281 98.3077 214.281C98.5932 214.281 98.8319 214.205 99.0236 214.054C99.2154 213.901 99.3603 213.693 99.4583 213.431C99.5584 213.169 99.6085 212.874 99.6085 212.545C99.6085 212.222 99.5595 211.931 99.4615 211.673C99.3656 211.415 99.2207 211.212 99.0268 211.062C98.8351 210.913 98.5954 210.839 98.3077 210.839C98.0307 210.839 97.7964 210.91 97.6046 211.053C97.415 211.196 97.2712 211.395 97.1731 211.651C97.0751 211.906 97.0261 212.205 97.0261 212.545ZM103.583 215.099C103.099 215.099 102.682 214.996 102.333 214.789C101.986 214.58 101.717 214.287 101.528 213.91C101.34 213.531 101.246 213.087 101.246 212.577C101.246 212.075 101.34 211.631 101.528 211.248C101.717 210.864 101.981 210.565 102.32 210.35C102.661 210.135 103.059 210.027 103.515 210.027C103.792 210.027 104.061 210.073 104.321 210.164C104.581 210.256 104.814 210.4 105.021 210.596C105.227 210.792 105.39 211.047 105.51 211.36C105.629 211.671 105.689 212.049 105.689 212.494V212.833H101.786V212.117H104.752C104.752 211.866 104.701 211.643 104.599 211.449C104.497 211.253 104.353 211.099 104.167 210.986C103.984 210.873 103.769 210.816 103.522 210.816C103.253 210.816 103.019 210.882 102.819 211.015C102.621 211.145 102.467 211.315 102.358 211.526C102.252 211.735 102.199 211.962 102.199 212.207V212.766C102.199 213.094 102.256 213.373 102.371 213.603C102.488 213.833 102.651 214.009 102.86 214.131C103.069 214.25 103.313 214.31 103.592 214.31C103.773 214.31 103.938 214.284 104.088 214.233C104.237 214.18 104.366 214.101 104.474 213.996C104.583 213.892 104.666 213.763 104.724 213.61L105.628 213.773C105.556 214.039 105.426 214.272 105.238 214.473C105.053 214.671 104.819 214.825 104.538 214.936C104.259 215.045 103.94 215.099 103.583 215.099ZM106.569 215V210.091H107.493V210.871H107.544C107.633 210.607 107.791 210.399 108.017 210.248C108.245 210.094 108.503 210.017 108.79 210.017C108.85 210.017 108.92 210.02 109.001 210.024C109.084 210.028 109.149 210.033 109.196 210.04V210.954C109.158 210.943 109.09 210.931 108.992 210.919C108.894 210.904 108.796 210.896 108.698 210.896C108.472 210.896 108.27 210.944 108.094 211.04C107.919 211.134 107.78 211.265 107.678 211.433C107.576 211.599 107.525 211.789 107.525 212.002V215H106.569Z" fill="#666666"/>
<path d="M203.113 208.455V215H202.122V209.445H202.084L200.518 210.468V209.522L202.151 208.455H203.113ZM204.704 215V214.284L206.918 211.989C207.155 211.74 207.35 211.522 207.503 211.334C207.659 211.145 207.775 210.964 207.852 210.794C207.928 210.624 207.967 210.442 207.967 210.251C207.967 210.033 207.916 209.846 207.813 209.688C207.711 209.528 207.571 209.406 207.395 209.321C207.218 209.233 207.019 209.19 206.797 209.19C206.563 209.19 206.358 209.238 206.183 209.333C206.009 209.429 205.874 209.565 205.781 209.739C205.687 209.914 205.64 210.119 205.64 210.353H204.697C204.697 209.955 204.789 209.606 204.972 209.308C205.155 209.01 205.407 208.778 205.726 208.614C206.046 208.448 206.409 208.365 206.816 208.365C207.227 208.365 207.59 208.447 207.903 208.611C208.218 208.773 208.464 208.995 208.641 209.276C208.818 209.555 208.906 209.87 208.906 210.222C208.906 210.465 208.86 210.702 208.769 210.935C208.679 211.167 208.523 211.426 208.299 211.711C208.075 211.995 207.764 212.339 207.366 212.744L206.065 214.105V214.153H209.012V215H204.704ZM210.043 215V214.284L212.258 211.989C212.494 211.74 212.689 211.522 212.843 211.334C212.998 211.145 213.114 210.964 213.191 210.794C213.268 210.624 213.306 210.442 213.306 210.251C213.306 210.033 213.255 209.846 213.153 209.688C213.051 209.528 212.911 209.406 212.734 209.321C212.557 209.233 212.358 209.19 212.136 209.19C211.902 209.19 211.698 209.238 211.523 209.333C211.348 209.429 211.214 209.565 211.12 209.739C211.026 209.914 210.979 210.119 210.979 210.353H210.037C210.037 209.955 210.128 209.606 210.312 209.308C210.495 209.01 210.746 208.778 211.066 208.614C211.385 208.448 211.749 208.365 212.156 208.365C212.567 208.365 212.929 208.447 213.242 208.611C213.558 208.773 213.804 208.995 213.981 209.276C214.157 209.555 214.246 209.87 214.246 210.222C214.246 210.465 214.2 210.702 214.108 210.935C214.019 211.167 213.862 211.426 213.639 211.711C213.415 211.995 213.104 212.339 212.705 212.744L211.405 214.105V214.153H214.351V215H210.043ZM217.661 215.089C217.222 215.089 216.83 215.014 216.485 214.863C216.142 214.711 215.871 214.501 215.67 214.233C215.472 213.962 215.366 213.649 215.351 213.293H216.354C216.367 213.487 216.432 213.656 216.549 213.798C216.668 213.939 216.824 214.048 217.016 214.124C217.208 214.201 217.421 214.239 217.655 214.239C217.913 214.239 218.141 214.195 218.339 214.105C218.539 214.016 218.696 213.891 218.809 213.731C218.922 213.569 218.978 213.383 218.978 213.172C218.978 212.952 218.922 212.76 218.809 212.593C218.698 212.425 218.535 212.293 218.32 212.197C218.107 212.101 217.849 212.053 217.546 212.053H216.993V211.248H217.546C217.789 211.248 218.002 211.204 218.185 211.117C218.371 211.029 218.516 210.908 218.62 210.752C218.725 210.595 218.777 210.411 218.777 210.2C218.777 209.997 218.731 209.821 218.639 209.672C218.55 209.521 218.422 209.403 218.256 209.317C218.092 209.232 217.898 209.19 217.674 209.19C217.461 209.19 217.262 209.229 217.076 209.308C216.893 209.385 216.744 209.495 216.629 209.64C216.514 209.783 216.452 209.955 216.444 210.155H215.488C215.499 209.801 215.603 209.49 215.801 209.222C216.002 208.953 216.266 208.743 216.594 208.592C216.922 208.441 217.286 208.365 217.687 208.365C218.107 208.365 218.469 208.447 218.774 208.611C219.08 208.773 219.317 208.989 219.483 209.26C219.651 209.531 219.735 209.827 219.732 210.148C219.735 210.515 219.632 210.826 219.426 211.082C219.221 211.337 218.948 211.509 218.607 211.596V211.647C219.042 211.713 219.379 211.886 219.617 212.165C219.858 212.444 219.977 212.79 219.975 213.204C219.977 213.564 219.877 213.887 219.675 214.172C219.475 214.458 219.201 214.683 218.853 214.847C218.506 215.009 218.109 215.089 217.661 215.089ZM223.289 215.089C222.997 215.085 222.709 215.032 222.426 214.93C222.144 214.827 221.889 214.657 221.659 214.418C221.428 214.18 221.244 213.859 221.106 213.456C220.969 213.054 220.901 212.551 220.901 211.948C220.901 211.377 220.958 210.87 221.07 210.426C221.186 209.983 221.351 209.609 221.566 209.305C221.781 208.998 222.041 208.765 222.346 208.605C222.65 208.445 222.992 208.365 223.372 208.365C223.762 208.365 224.108 208.442 224.41 208.595C224.713 208.749 224.958 208.961 225.145 209.231C225.335 209.502 225.455 209.81 225.507 210.155H224.532C224.466 209.882 224.335 209.659 224.139 209.487C223.943 209.314 223.687 209.228 223.372 209.228C222.892 209.228 222.518 209.437 222.25 209.854C221.983 210.272 221.849 210.853 221.847 211.596H221.895C222.008 211.411 222.146 211.253 222.311 211.123C222.477 210.991 222.662 210.89 222.867 210.82C223.073 210.747 223.291 210.711 223.519 210.711C223.898 210.711 224.241 210.804 224.548 210.989C224.857 211.172 225.103 211.426 225.286 211.75C225.469 212.074 225.561 212.444 225.561 212.862C225.561 213.279 225.466 213.658 225.276 213.996C225.089 214.335 224.825 214.604 224.484 214.802C224.143 214.998 223.744 215.094 223.289 215.089ZM223.285 214.259C223.537 214.259 223.762 214.197 223.96 214.073C224.158 213.95 224.314 213.783 224.43 213.575C224.545 213.366 224.602 213.132 224.602 212.875C224.602 212.623 224.546 212.394 224.433 212.188C224.322 211.981 224.168 211.817 223.972 211.695C223.779 211.574 223.557 211.513 223.308 211.513C223.118 211.513 222.942 211.549 222.78 211.622C222.621 211.694 222.48 211.794 222.358 211.922C222.237 212.05 222.141 212.197 222.071 212.363C222.003 212.527 221.969 212.701 221.969 212.884C221.969 213.129 222.025 213.356 222.138 213.565C222.253 213.774 222.41 213.942 222.608 214.07C222.808 214.196 223.034 214.259 223.285 214.259ZM228.83 215.089C228.538 215.085 228.251 215.032 227.967 214.93C227.686 214.827 227.43 214.657 227.2 214.418C226.97 214.18 226.786 213.859 226.647 213.456C226.511 213.054 226.443 212.551 226.443 211.948C226.443 211.377 226.499 210.87 226.612 210.426C226.727 209.983 226.892 209.609 227.108 209.305C227.323 208.998 227.583 208.765 227.887 208.605C228.192 208.445 228.534 208.365 228.913 208.365C229.303 208.365 229.649 208.442 229.952 208.595C230.255 208.749 230.5 208.961 230.687 209.231C230.877 209.502 230.997 209.81 231.048 210.155H230.073C230.007 209.882 229.876 209.659 229.68 209.487C229.484 209.314 229.229 209.228 228.913 209.228C228.434 209.228 228.06 209.437 227.791 209.854C227.525 210.272 227.391 210.853 227.389 211.596H227.437C227.55 211.411 227.688 211.253 227.852 211.123C228.018 210.991 228.204 210.89 228.408 210.82C228.615 210.747 228.832 210.711 229.06 210.711C229.44 210.711 229.783 210.804 230.089 210.989C230.398 211.172 230.644 211.426 230.828 211.75C231.011 212.074 231.103 212.444 231.103 212.862C231.103 213.279 231.008 213.658 230.818 213.996C230.631 214.335 230.366 214.604 230.026 214.802C229.685 214.998 229.286 215.094 228.83 215.089ZM228.827 214.259C229.078 214.259 229.303 214.197 229.501 214.073C229.7 213.95 229.856 213.783 229.971 213.575C230.086 213.366 230.144 213.132 230.144 212.875C230.144 212.623 230.087 212.394 229.974 212.188C229.864 211.981 229.71 211.817 229.514 211.695C229.32 211.574 229.099 211.513 228.849 211.513C228.66 211.513 228.484 211.549 228.322 211.622C228.162 211.694 228.022 211.794 227.9 211.922C227.779 212.05 227.683 212.197 227.613 212.363C227.544 212.527 227.51 212.701 227.51 212.884C227.51 213.129 227.567 213.356 227.68 213.565C227.795 213.774 227.951 213.942 228.149 214.07C228.35 214.196 228.576 214.259 228.827 214.259ZM232.307 215L235.164 209.349V209.301H231.86V208.455H236.187V209.33L233.34 215H232.307ZM239.248 215.089C238.809 215.089 238.417 215.014 238.072 214.863C237.729 214.711 237.457 214.501 237.257 214.233C237.059 213.962 236.952 213.649 236.937 213.293H237.941C237.954 213.487 238.019 213.656 238.136 213.798C238.255 213.939 238.411 214.048 238.602 214.124C238.794 214.201 239.007 214.239 239.242 214.239C239.499 214.239 239.727 214.195 239.926 214.105C240.126 214.016 240.282 213.891 240.395 213.731C240.508 213.569 240.565 213.383 240.565 213.172C240.565 212.952 240.508 212.76 240.395 212.593C240.285 212.425 240.122 212.293 239.906 212.197C239.693 212.101 239.435 212.053 239.133 212.053H238.58V211.248H239.133C239.376 211.248 239.589 211.204 239.772 211.117C239.958 211.029 240.102 210.908 240.207 210.752C240.311 210.595 240.363 210.411 240.363 210.2C240.363 209.997 240.318 209.821 240.226 209.672C240.136 209.521 240.009 209.403 239.842 209.317C239.678 209.232 239.484 209.19 239.261 209.19C239.048 209.19 238.848 209.229 238.663 209.308C238.48 209.385 238.331 209.495 238.216 209.64C238.101 209.783 238.039 209.955 238.03 210.155H237.075C237.085 209.801 237.19 209.49 237.388 209.222C237.588 208.953 237.852 208.743 238.181 208.592C238.509 208.441 238.873 208.365 239.274 208.365C239.693 208.365 240.056 208.447 240.36 208.611C240.667 208.773 240.904 208.989 241.07 209.26C241.238 209.531 241.321 209.827 241.319 210.148C241.321 210.515 241.219 210.826 241.012 211.082C240.808 211.337 240.535 211.509 240.194 211.596V211.647C240.629 211.713 240.965 211.886 241.204 212.165C241.445 212.444 241.564 212.79 241.562 213.204C241.564 213.564 241.464 213.887 241.261 214.172C241.061 214.458 240.787 214.683 240.44 214.847C240.093 215.009 239.695 215.089 239.248 215.089ZM244.869 215.089C244.43 215.089 244.038 215.014 243.693 214.863C243.35 214.711 243.078 214.501 242.878 214.233C242.679 213.962 242.573 213.649 242.558 213.293H243.562C243.574 213.487 243.639 213.656 243.757 213.798C243.876 213.939 244.031 214.048 244.223 214.124C244.415 214.201 244.628 214.239 244.862 214.239C245.12 214.239 245.348 214.195 245.546 214.105C245.747 214.016 245.903 213.891 246.016 213.731C246.129 213.569 246.186 213.383 246.186 213.172C246.186 212.952 246.129 212.76 246.016 212.593C245.905 212.425 245.742 212.293 245.527 212.197C245.314 212.101 245.056 212.053 244.754 212.053H244.201V211.248H244.754C244.997 211.248 245.21 211.204 245.393 211.117C245.578 211.029 245.723 210.908 245.828 210.752C245.932 210.595 245.984 210.411 245.984 210.2C245.984 209.997 245.938 209.821 245.847 209.672C245.757 209.521 245.629 209.403 245.463 209.317C245.299 209.232 245.105 209.19 244.882 209.19C244.668 209.19 244.469 209.229 244.284 209.308C244.101 209.385 243.952 209.495 243.836 209.64C243.721 209.783 243.66 209.955 243.651 210.155H242.695C242.706 209.801 242.811 209.49 243.009 209.222C243.209 208.953 243.473 208.743 243.801 208.592C244.129 208.441 244.494 208.365 244.894 208.365C245.314 208.365 245.676 208.447 245.981 208.611C246.288 208.773 246.524 208.989 246.691 209.26C246.859 209.531 246.942 209.827 246.94 210.148C246.942 210.515 246.84 210.826 246.633 211.082C246.428 211.337 246.156 211.509 245.815 211.596V211.647C246.249 211.713 246.586 211.886 246.825 212.165C247.066 212.444 247.185 212.79 247.183 213.204C247.185 213.564 247.085 213.887 246.882 214.172C246.682 214.458 246.408 214.683 246.061 214.847C245.714 215.009 245.316 215.089 244.869 215.089ZM248.431 215L251.289 209.349V209.301H247.984V208.455H252.311V209.33L249.464 215H248.431ZM255.372 215.089C254.933 215.089 254.541 215.014 254.196 214.863C253.853 214.711 253.581 214.501 253.381 214.233C253.183 213.962 253.076 213.649 253.061 213.293H254.065C254.078 213.487 254.143 213.656 254.26 213.798C254.379 213.939 254.535 214.048 254.726 214.124C254.918 214.201 255.131 214.239 255.366 214.239C255.623 214.239 255.851 214.195 256.05 214.105C256.25 214.016 256.406 213.891 256.519 213.731C256.632 213.569 256.689 213.383 256.689 213.172C256.689 212.952 256.632 212.76 256.519 212.593C256.409 212.425 256.246 212.293 256.03 212.197C255.817 212.101 255.56 212.053 255.257 212.053H254.704V211.248H255.257C255.5 211.248 255.713 211.204 255.896 211.117C256.082 211.029 256.226 210.908 256.331 210.752C256.435 210.595 256.487 210.411 256.487 210.2C256.487 209.997 256.442 209.821 256.35 209.672C256.261 209.521 256.133 209.403 255.967 209.317C255.802 209.232 255.609 209.19 255.385 209.19C255.172 209.19 254.973 209.229 254.787 209.308C254.604 209.385 254.455 209.495 254.34 209.64C254.225 209.783 254.163 209.955 254.154 210.155H253.199C253.209 209.801 253.314 209.49 253.512 209.222C253.712 208.953 253.976 208.743 254.305 208.592C254.633 208.441 254.997 208.365 255.398 208.365C255.817 208.365 256.18 208.447 256.484 208.611C256.791 208.773 257.028 208.989 257.194 209.26C257.362 209.531 257.445 209.827 257.443 210.148C257.445 210.515 257.343 210.826 257.136 211.082C256.932 211.337 256.659 211.509 256.318 211.596V211.647C256.753 211.713 257.089 211.886 257.328 212.165C257.569 212.444 257.688 212.79 257.686 213.204C257.688 213.564 257.588 213.887 257.386 214.172C257.185 214.458 256.911 214.683 256.564 214.847C256.217 215.009 255.819 215.089 255.372 215.089ZM260.926 215.089C260.468 215.089 260.063 215.011 259.711 214.853C259.362 214.695 259.088 214.478 258.89 214.201C258.692 213.924 258.594 213.609 258.596 213.255C258.594 212.978 258.65 212.723 258.765 212.491C258.882 212.257 259.041 212.062 259.241 211.906C259.442 211.749 259.665 211.648 259.913 211.606V211.567C259.587 211.489 259.326 211.314 259.13 211.043C258.934 210.773 258.837 210.462 258.839 210.11C258.837 209.776 258.925 209.477 259.104 209.215C259.285 208.951 259.533 208.743 259.849 208.592C260.164 208.441 260.523 208.365 260.926 208.365C261.324 208.365 261.68 208.442 261.993 208.595C262.309 208.746 262.557 208.954 262.738 209.218C262.919 209.48 263.011 209.778 263.013 210.11C263.011 210.462 262.91 210.773 262.712 211.043C262.514 211.314 262.256 211.489 261.939 211.567V211.606C262.184 211.648 262.404 211.749 262.6 211.906C262.799 212.062 262.956 212.257 263.073 212.491C263.193 212.723 263.253 212.978 263.256 213.255C263.253 213.609 263.153 213.924 262.955 214.201C262.757 214.478 262.482 214.695 262.131 214.853C261.781 215.011 261.38 215.089 260.926 215.089ZM260.926 214.281C261.196 214.281 261.431 214.236 261.629 214.147C261.827 214.055 261.98 213.928 262.089 213.766C262.198 213.602 262.253 213.411 262.255 213.191C262.253 212.963 262.193 212.762 262.076 212.587C261.961 212.412 261.805 212.275 261.606 212.175C261.408 212.075 261.181 212.025 260.926 212.025C260.668 212.025 260.439 212.075 260.239 212.175C260.038 212.275 259.881 212.412 259.766 212.587C259.651 212.762 259.594 212.963 259.596 213.191C259.594 213.411 259.646 213.602 259.753 213.766C259.861 213.928 260.016 214.055 260.216 214.147C260.416 214.236 260.653 214.281 260.926 214.281ZM260.926 211.235C261.143 211.235 261.336 211.191 261.504 211.104C261.673 211.017 261.805 210.895 261.901 210.74C261.999 210.584 262.049 210.402 262.051 210.193C262.049 209.989 262 209.81 261.904 209.656C261.81 209.503 261.679 209.385 261.511 209.301C261.342 209.216 261.147 209.174 260.926 209.174C260.7 209.174 260.502 209.216 260.331 209.301C260.163 209.385 260.032 209.503 259.938 209.656C259.844 209.81 259.799 209.989 259.801 210.193C259.799 210.402 259.845 210.584 259.941 210.74C260.037 210.895 260.169 211.017 260.338 211.104C260.508 211.191 260.704 211.235 260.926 211.235ZM264.083 213.722V212.923L266.912 208.455H267.541V209.631H267.142L265.119 212.833V212.884H268.995V213.722H264.083ZM267.187 215V213.479L267.193 213.114V208.455H268.129V215H267.187ZM272.208 215.089C271.769 215.089 271.377 215.014 271.032 214.863C270.689 214.711 270.417 214.501 270.217 214.233C270.019 213.962 269.912 213.649 269.897 213.293H270.901C270.914 213.487 270.979 213.656 271.096 213.798C271.215 213.939 271.371 214.048 271.562 214.124C271.754 214.201 271.967 214.239 272.202 214.239C272.459 214.239 272.687 214.195 272.886 214.105C273.086 214.016 273.242 213.891 273.355 213.731C273.468 213.569 273.525 213.383 273.525 213.172C273.525 212.952 273.468 212.76 273.355 212.593C273.245 212.425 273.082 212.293 272.866 212.197C272.653 212.101 272.396 212.053 272.093 212.053H271.54V211.248H272.093C272.336 211.248 272.549 211.204 272.732 211.117C272.918 211.029 273.062 210.908 273.167 210.752C273.271 210.595 273.323 210.411 273.323 210.2C273.323 209.997 273.278 209.821 273.186 209.672C273.097 209.521 272.969 209.403 272.802 209.317C272.638 209.232 272.445 209.19 272.221 209.19C272.008 209.19 271.809 209.229 271.623 209.308C271.44 209.385 271.291 209.495 271.176 209.64C271.061 209.783 270.999 209.955 270.99 210.155H270.035C270.045 209.801 270.15 209.49 270.348 209.222C270.548 208.953 270.812 208.743 271.141 208.592C271.469 208.441 271.833 208.365 272.234 208.365C272.653 208.365 273.016 208.447 273.32 208.611C273.627 208.773 273.864 208.989 274.03 209.26C274.198 209.531 274.281 209.827 274.279 210.148C274.281 210.515 274.179 210.826 273.972 211.082C273.768 211.337 273.495 211.509 273.154 211.596V211.647C273.589 211.713 273.925 211.886 274.164 212.165C274.405 212.444 274.524 212.79 274.522 213.204C274.524 213.564 274.424 213.887 274.222 214.172C274.021 214.458 273.747 214.683 273.4 214.847C273.053 215.009 272.655 215.089 272.208 215.089Z" fill="#1A1A1A"/>
</g>
<g filter="url(#filter7_b_911_777)">
<rect width="255" height="24" transform="translate(30 223.5)" fill="white"/>
<path d="M39.7191 239V232.455H42.1161C42.5806 232.455 42.9652 232.531 43.2699 232.685C43.5746 232.836 43.8026 233.042 43.9538 233.301C44.1051 233.559 44.1808 233.85 44.1808 234.174C44.1808 234.447 44.1307 234.677 44.0305 234.864C43.9304 235.05 43.7962 235.199 43.6278 235.312C43.4616 235.423 43.2784 235.504 43.0781 235.555V235.619C43.2955 235.629 43.5075 235.7 43.7141 235.83C43.9229 235.957 44.0955 236.14 44.2319 236.376C44.3683 236.613 44.4364 236.9 44.4364 237.239C44.4364 237.574 44.3576 237.874 44.1999 238.14C44.0444 238.404 43.8036 238.614 43.4776 238.77C43.1516 238.923 42.7351 239 42.228 239H39.7191ZM40.7067 238.153H42.1321C42.6051 238.153 42.9439 238.061 43.1484 237.878C43.353 237.695 43.4553 237.466 43.4553 237.191C43.4553 236.984 43.4031 236.795 43.2987 236.622C43.1942 236.45 43.0451 236.312 42.8512 236.21C42.6594 236.108 42.4315 236.056 42.1673 236.056H40.7067V238.153ZM40.7067 235.286H42.0298C42.2514 235.286 42.4506 235.244 42.6275 235.158C42.8065 235.073 42.9482 234.954 43.0526 234.8C43.1591 234.645 43.2124 234.462 43.2124 234.251C43.2124 233.98 43.1175 233.753 42.9279 233.57C42.7383 233.387 42.4474 233.295 42.0554 233.295H40.7067V235.286ZM47.4668 239.099C46.9832 239.099 46.5666 238.996 46.2172 238.789C45.8699 238.58 45.6014 238.287 45.4118 237.91C45.2243 237.531 45.1305 237.087 45.1305 236.577C45.1305 236.075 45.2243 235.631 45.4118 235.248C45.6014 234.864 45.8656 234.565 46.2044 234.35C46.5453 234.135 46.9438 234.027 47.3997 234.027C47.6767 234.027 47.9452 234.073 48.2051 234.164C48.4651 234.256 48.6984 234.4 48.9051 234.596C49.1117 234.792 49.2747 235.047 49.394 235.36C49.5134 235.671 49.573 236.049 49.573 236.494V236.833H45.6707V236.117H48.6366C48.6366 235.866 48.5854 235.643 48.4832 235.449C48.3809 235.253 48.2371 235.099 48.0517 234.986C47.8685 234.873 47.6533 234.816 47.4061 234.816C47.1376 234.816 46.9033 234.882 46.703 235.015C46.5048 235.145 46.3514 235.315 46.2428 235.526C46.1362 235.735 46.083 235.962 46.083 236.207V236.766C46.083 237.094 46.1405 237.373 46.2555 237.603C46.3727 237.833 46.5357 238.009 46.7445 238.131C46.9533 238.25 47.1973 238.31 47.4764 238.31C47.6575 238.31 47.8227 238.284 47.9718 238.233C48.121 238.18 48.2499 238.101 48.3585 237.996C48.4672 237.892 48.5503 237.763 48.6078 237.61L49.5123 237.773C49.4399 238.039 49.3099 238.272 49.1224 238.473C48.937 238.671 48.7037 238.825 48.4225 238.936C48.1433 239.045 47.8248 239.099 47.4668 239.099ZM51.4089 236.085V239H50.4533V234.091H51.3706V234.89H51.4313C51.5442 234.63 51.7211 234.421 51.9618 234.263C52.2047 234.106 52.5105 234.027 52.8791 234.027C53.2136 234.027 53.5066 234.097 53.758 234.238C54.0094 234.376 54.2044 234.583 54.3429 234.858C54.4814 235.133 54.5506 235.473 54.5506 235.877V239H53.595V235.993C53.595 235.637 53.5023 235.359 53.3169 235.158C53.1316 234.956 52.8769 234.855 52.5531 234.855C52.3315 234.855 52.1344 234.903 51.9618 234.999C51.7914 235.094 51.6561 235.235 51.5559 235.42C51.4579 235.604 51.4089 235.825 51.4089 236.085ZM57.768 239.099C57.2843 239.099 56.8678 238.996 56.5183 238.789C56.171 238.58 55.9026 238.287 55.7129 237.91C55.5254 237.531 55.4317 237.087 55.4317 236.577C55.4317 236.075 55.5254 235.631 55.7129 235.248C55.9026 234.864 56.1668 234.565 56.5055 234.35C56.8465 234.135 57.2449 234.027 57.7009 234.027C57.9778 234.027 58.2463 234.073 58.5063 234.164C58.7662 234.256 58.9995 234.4 59.2062 234.596C59.4129 234.792 59.5759 235.047 59.6952 235.36C59.8145 235.671 59.8742 236.049 59.8742 236.494V236.833H55.9718V236.117H58.9377C58.9377 235.866 58.8866 235.643 58.7843 235.449C58.682 235.253 58.5382 235.099 58.3528 234.986C58.1696 234.873 57.9544 234.816 57.7072 234.816C57.4388 234.816 57.2044 234.882 57.0041 235.015C56.806 235.145 56.6526 235.315 56.5439 235.526C56.4374 235.735 56.3841 235.962 56.3841 236.207V236.766C56.3841 237.094 56.4416 237.373 56.5567 237.603C56.6739 237.833 56.8369 238.009 57.0457 238.131C57.2545 238.25 57.4984 238.31 57.7776 238.31C57.9587 238.31 58.1238 238.284 58.2729 238.233C58.4221 238.18 58.551 238.101 58.6597 237.996C58.7683 237.892 58.8514 237.763 58.909 237.61L59.8134 237.773C59.741 238.039 59.611 238.272 59.4235 238.473C59.2381 238.671 59.0048 238.825 58.7236 238.936C58.4445 239.045 58.1259 239.099 57.768 239.099ZM63.0907 234.091V234.858H60.3166V234.091H63.0907ZM61.0772 239V233.522C61.0772 233.215 61.1443 232.961 61.2786 232.758C61.4128 232.554 61.5907 232.401 61.8123 232.301C62.0339 232.199 62.2747 232.148 62.5346 232.148C62.7264 232.148 62.8904 232.164 63.0268 232.196C63.1632 232.225 63.2644 232.253 63.3304 232.279L63.1067 233.052C63.062 233.039 63.0044 233.025 62.9341 233.007C62.8638 232.988 62.7786 232.979 62.6784 232.979C62.4462 232.979 62.28 233.036 62.1799 233.151C62.0818 233.266 62.0328 233.433 62.0328 233.65V239H61.0772ZM63.8967 239V234.091H64.8523V239H63.8967ZM64.3793 233.333C64.2131 233.333 64.0703 233.278 63.951 233.167C63.8338 233.054 63.7752 232.92 63.7752 232.765C63.7752 232.607 63.8338 232.473 63.951 232.362C64.0703 232.249 64.2131 232.192 64.3793 232.192C64.5455 232.192 64.6872 232.249 64.8044 232.362C64.9237 232.473 64.9833 232.607 64.9833 232.765C64.9833 232.92 64.9237 233.054 64.8044 233.167C64.6872 233.278 64.5455 233.333 64.3793 233.333ZM68.0257 239.099C67.5506 239.099 67.1415 238.991 66.7985 238.776C66.4576 238.559 66.1955 238.26 66.0122 237.878C65.829 237.497 65.7374 237.06 65.7374 236.568C65.7374 236.069 65.8311 235.629 66.0186 235.248C66.2061 234.864 66.4703 234.565 66.8112 234.35C67.1522 234.135 67.5538 234.027 68.0161 234.027C68.389 234.027 68.7214 234.096 69.0133 234.235C69.3052 234.371 69.5407 234.563 69.7196 234.81C69.9007 235.057 70.0083 235.346 70.0424 235.676H69.1124C69.0612 235.446 68.9441 235.248 68.7608 235.082C68.5797 234.915 68.3368 234.832 68.0321 234.832C67.7658 234.832 67.5325 234.903 67.3322 235.043C67.134 235.182 66.9796 235.38 66.8688 235.638C66.758 235.893 66.7026 236.196 66.7026 236.545C66.7026 236.903 66.7569 237.212 66.8656 237.472C66.9742 237.732 67.1277 237.934 67.3258 238.076C67.5261 238.219 67.7615 238.29 68.0321 238.29C68.2132 238.29 68.3773 238.257 68.5243 238.191C68.6735 238.123 68.7981 238.026 68.8982 237.901C69.0005 237.775 69.0719 237.624 69.1124 237.447H70.0424C70.0083 237.764 69.905 238.048 69.7324 238.297C69.5598 238.546 69.3286 238.742 69.0389 238.885C68.7512 239.028 68.4135 239.099 68.0257 239.099ZM70.8844 239V234.091H71.84V239H70.8844ZM71.367 233.333C71.2008 233.333 71.058 233.278 70.9387 233.167C70.8215 233.054 70.7629 232.92 70.7629 232.765C70.7629 232.607 70.8215 232.473 70.9387 232.362C71.058 232.249 71.2008 232.192 71.367 232.192C71.5331 232.192 71.6748 232.249 71.792 232.362C71.9113 232.473 71.971 232.607 71.971 232.765C71.971 232.92 71.9113 233.054 71.792 233.167C71.6748 233.278 71.5331 233.333 71.367 233.333ZM74.3742 239.109C74.0631 239.109 73.7819 239.051 73.5304 238.936C73.279 238.819 73.0798 238.65 72.9328 238.428C72.7879 238.206 72.7155 237.935 72.7155 237.613C72.7155 237.336 72.7687 237.108 72.8753 236.929C72.9818 236.75 73.1256 236.608 73.3067 236.504C73.4878 236.4 73.6902 236.321 73.914 236.267C74.1377 236.214 74.3657 236.174 74.5979 236.146C74.8919 236.112 75.1306 236.084 75.3138 236.063C75.4971 236.039 75.6302 236.002 75.7133 235.951C75.7964 235.9 75.838 235.817 75.838 235.702V235.679C75.838 235.4 75.7591 235.184 75.6015 235.031C75.4459 234.877 75.2137 234.8 74.9047 234.8C74.583 234.8 74.3294 234.872 74.1441 235.015C73.9608 235.155 73.8341 235.312 73.7637 235.484L72.8657 235.28C72.9722 234.982 73.1277 234.741 73.3323 234.558C73.539 234.372 73.7765 234.238 74.045 234.155C74.3135 234.07 74.5958 234.027 74.8919 234.027C75.088 234.027 75.2957 234.05 75.5152 234.097C75.7368 234.142 75.9434 234.225 76.1352 234.347C76.3291 234.468 76.4878 234.642 76.6114 234.868C76.735 235.091 76.7968 235.382 76.7968 235.74V239H75.8635V238.329H75.8252C75.7634 238.452 75.6707 238.574 75.5471 238.693C75.4235 238.812 75.2648 238.912 75.0709 238.99C74.877 239.069 74.6448 239.109 74.3742 239.109ZM74.5819 238.342C74.8461 238.342 75.072 238.289 75.2595 238.185C75.4491 238.081 75.5929 237.944 75.6909 237.776C75.7911 237.605 75.8412 237.423 75.8412 237.229V236.597C75.8071 236.631 75.741 236.663 75.643 236.692C75.5471 236.72 75.4374 236.745 75.3138 236.766C75.1902 236.785 75.0699 236.803 74.9527 236.82C74.8355 236.835 74.7375 236.848 74.6586 236.859C74.4733 236.882 74.3039 236.922 74.1505 236.977C73.9992 237.032 73.8777 237.112 73.7861 237.217C73.6966 237.319 73.6519 237.455 73.6519 237.626C73.6519 237.862 73.7392 238.041 73.914 238.163C74.0887 238.282 74.3113 238.342 74.5819 238.342ZM77.8896 239V234.091H78.8132V234.871H78.8644C78.9539 234.607 79.1115 234.399 79.3374 234.248C79.5654 234.094 79.8232 234.017 80.1108 234.017C80.1705 234.017 80.2408 234.02 80.3218 234.024C80.4049 234.028 80.4698 234.033 80.5167 234.04V234.954C80.4784 234.943 80.4102 234.931 80.3122 234.919C80.2142 234.904 80.1162 234.896 80.0181 234.896C79.7923 234.896 79.5909 234.944 79.4141 235.04C79.2394 235.134 79.1009 235.265 78.9986 235.433C78.8963 235.599 78.8452 235.789 78.8452 236.002V239H77.8896ZM81.9172 240.841C81.7744 240.841 81.6444 240.829 81.5272 240.806C81.4101 240.784 81.3227 240.761 81.2652 240.735L81.4953 239.952C81.67 239.999 81.8255 240.02 81.9619 240.013C82.0983 240.007 82.2186 239.956 82.323 239.86C82.4296 239.764 82.5233 239.607 82.6043 239.39L82.7226 239.064L80.9264 234.091H81.9491L83.1924 237.901H83.2435L84.4868 234.091H85.5127L83.4896 239.655C83.3958 239.911 83.2765 240.127 83.1316 240.304C82.9868 240.483 82.8142 240.617 82.6139 240.707C82.4136 240.796 82.1814 240.841 81.9172 240.841ZM93.7923 232.455V239H92.8847L89.5576 234.2H89.4969V239H88.5093V232.455H89.4234L92.7536 237.261H92.8143V232.455H93.7923ZM96.4049 239.109C96.0938 239.109 95.8125 239.051 95.5611 238.936C95.3097 238.819 95.1105 238.65 94.9634 238.428C94.8186 238.206 94.7461 237.935 94.7461 237.613C94.7461 237.336 94.7994 237.108 94.9059 236.929C95.0125 236.75 95.1563 236.608 95.3374 236.504C95.5185 236.4 95.7209 236.321 95.9446 236.267C96.1683 236.214 96.3963 236.174 96.6286 236.146C96.9226 236.112 97.1612 236.084 97.3445 236.063C97.5277 236.039 97.6609 236.002 97.744 235.951C97.8271 235.9 97.8686 235.817 97.8686 235.702V235.679C97.8686 235.4 97.7898 235.184 97.6321 235.031C97.4766 234.877 97.2443 234.8 96.9354 234.8C96.6137 234.8 96.3601 234.872 96.1747 235.015C95.9915 235.155 95.8647 235.312 95.7944 235.484L94.8963 235.28C95.0029 234.982 95.1584 234.741 95.3629 234.558C95.5696 234.372 95.8072 234.238 96.0757 234.155C96.3441 234.07 96.6264 234.027 96.9226 234.027C97.1186 234.027 97.3264 234.05 97.5458 234.097C97.7674 234.142 97.9741 234.225 98.1659 234.347C98.3598 234.468 98.5185 234.642 98.6421 234.868C98.7656 235.091 98.8274 235.382 98.8274 235.74V239H97.8942V238.329H97.8558C97.7941 238.452 97.7014 238.574 97.5778 238.693C97.4542 238.812 97.2955 238.912 97.1016 238.99C96.9077 239.069 96.6754 239.109 96.4049 239.109ZM96.6126 238.342C96.8768 238.342 97.1026 238.289 97.2901 238.185C97.4798 238.081 97.6236 237.944 97.7216 237.776C97.8218 237.605 97.8718 237.423 97.8718 237.229V236.597C97.8377 236.631 97.7717 236.663 97.6737 236.692C97.5778 236.72 97.4681 236.745 97.3445 236.766C97.2209 236.785 97.1005 236.803 96.9833 236.82C96.8661 236.835 96.7681 236.848 96.6893 236.859C96.5039 236.882 96.3345 236.922 96.1811 236.977C96.0299 237.032 95.9084 237.112 95.8168 237.217C95.7273 237.319 95.6825 237.455 95.6825 237.626C95.6825 237.862 95.7699 238.041 95.9446 238.163C96.1193 238.282 96.342 238.342 96.6126 238.342ZM99.9203 239V234.091H100.838V234.89H100.898C101.001 234.619 101.168 234.408 101.4 234.257C101.632 234.104 101.91 234.027 102.234 234.027C102.562 234.027 102.837 234.104 103.059 234.257C103.282 234.411 103.448 234.621 103.554 234.89H103.605C103.722 234.628 103.909 234.419 104.165 234.263C104.42 234.106 104.725 234.027 105.079 234.027C105.524 234.027 105.887 234.167 106.168 234.446C106.452 234.725 106.594 235.146 106.594 235.708V239H105.638V235.798C105.638 235.465 105.547 235.224 105.366 235.075C105.185 234.926 104.969 234.852 104.717 234.852C104.406 234.852 104.165 234.947 103.992 235.139C103.819 235.329 103.733 235.573 103.733 235.871V239H102.781V235.737C102.781 235.471 102.698 235.256 102.531 235.094C102.365 234.933 102.149 234.852 101.883 234.852C101.702 234.852 101.534 234.9 101.381 234.995C101.23 235.089 101.107 235.22 101.013 235.388C100.922 235.557 100.876 235.752 100.876 235.973V239H99.9203ZM109.81 239.099C109.326 239.099 108.91 238.996 108.56 238.789C108.213 238.58 107.945 238.287 107.755 237.91C107.568 237.531 107.474 237.087 107.474 236.577C107.474 236.075 107.568 235.631 107.755 235.248C107.945 234.864 108.209 234.565 108.548 234.35C108.889 234.135 109.287 234.027 109.743 234.027C110.02 234.027 110.288 234.073 110.548 234.164C110.808 234.256 111.042 234.4 111.248 234.596C111.455 234.792 111.618 235.047 111.737 235.36C111.857 235.671 111.916 236.049 111.916 236.494V236.833H108.014V236.117H110.98C110.98 235.866 110.929 235.643 110.826 235.449C110.724 235.253 110.58 235.099 110.395 234.986C110.212 234.873 109.997 234.816 109.749 234.816C109.481 234.816 109.247 234.882 109.046 235.015C108.848 235.145 108.695 235.315 108.586 235.526C108.48 235.735 108.426 235.962 108.426 236.207V236.766C108.426 237.094 108.484 237.373 108.599 237.603C108.716 237.833 108.879 238.009 109.088 238.131C109.297 238.25 109.541 238.31 109.82 238.31C110.001 238.31 110.166 238.284 110.315 238.233C110.464 238.18 110.593 238.101 110.702 237.996C110.81 237.892 110.894 237.763 110.951 237.61L111.856 237.773C111.783 238.039 111.653 238.272 111.466 238.473C111.28 238.671 111.047 238.825 110.766 238.936C110.487 239.045 110.168 239.099 109.81 239.099Z" fill="#666666"/>
<path d="M241.272 239H240.224L242.579 232.455H243.72L246.076 239H245.027L243.177 233.643H243.126L241.272 239ZM241.448 236.437H244.848V237.268H241.448V236.437ZM250.408 235.289L249.542 235.443C249.505 235.332 249.448 235.227 249.369 235.126C249.292 235.026 249.188 234.944 249.056 234.88C248.924 234.816 248.758 234.784 248.56 234.784C248.29 234.784 248.064 234.845 247.883 234.967C247.702 235.086 247.611 235.24 247.611 235.43C247.611 235.594 247.672 235.726 247.793 235.826C247.915 235.926 248.111 236.009 248.381 236.072L249.161 236.251C249.613 236.356 249.95 236.517 250.171 236.734C250.393 236.951 250.504 237.234 250.504 237.581C250.504 237.875 250.418 238.137 250.248 238.367C250.079 238.595 249.844 238.774 249.542 238.904C249.241 239.034 248.893 239.099 248.496 239.099C247.947 239.099 247.498 238.982 247.151 238.748C246.804 238.511 246.591 238.175 246.512 237.741L247.435 237.6C247.493 237.841 247.611 238.023 247.79 238.147C247.969 238.268 248.202 238.329 248.49 238.329C248.803 238.329 249.054 238.264 249.241 238.134C249.429 238.002 249.522 237.841 249.522 237.651C249.522 237.498 249.465 237.369 249.35 237.265C249.237 237.16 249.063 237.081 248.829 237.028L247.998 236.846C247.54 236.741 247.201 236.575 246.981 236.347C246.764 236.119 246.655 235.831 246.655 235.481C246.655 235.191 246.736 234.938 246.898 234.721C247.06 234.503 247.284 234.334 247.57 234.212C247.855 234.089 248.182 234.027 248.551 234.027C249.081 234.027 249.499 234.142 249.804 234.372C250.108 234.6 250.31 234.906 250.408 235.289ZM252.803 239.109C252.492 239.109 252.21 239.051 251.959 238.936C251.708 238.819 251.508 238.65 251.361 238.428C251.217 238.206 251.144 237.935 251.144 237.613C251.144 237.336 251.197 237.108 251.304 236.929C251.41 236.75 251.554 236.608 251.735 236.504C251.916 236.4 252.119 236.321 252.343 236.267C252.566 236.214 252.794 236.174 253.027 236.146C253.321 236.112 253.559 236.084 253.742 236.063C253.926 236.039 254.059 236.002 254.142 235.951C254.225 235.9 254.267 235.817 254.267 235.702V235.679C254.267 235.4 254.188 235.184 254.03 235.031C253.875 234.877 253.642 234.8 253.333 234.8C253.012 234.8 252.758 234.872 252.573 235.015C252.389 235.155 252.263 235.312 252.192 235.484L251.294 235.28C251.401 234.982 251.556 234.741 251.761 234.558C251.968 234.372 252.205 234.238 252.474 234.155C252.742 234.07 253.024 234.027 253.321 234.027C253.517 234.027 253.724 234.05 253.944 234.097C254.165 234.142 254.372 234.225 254.564 234.347C254.758 234.468 254.916 234.642 255.04 234.868C255.164 235.091 255.225 235.382 255.225 235.74V239H254.292V238.329H254.254C254.192 238.452 254.099 238.574 253.976 238.693C253.852 238.812 253.693 238.912 253.5 238.99C253.306 239.069 253.073 239.109 252.803 239.109ZM253.011 238.342C253.275 238.342 253.501 238.289 253.688 238.185C253.878 238.081 254.022 237.944 254.12 237.776C254.22 237.605 254.27 237.423 254.27 237.229V236.597C254.236 236.631 254.17 236.663 254.072 236.692C253.976 236.72 253.866 236.745 253.742 236.766C253.619 236.785 253.498 236.803 253.381 236.82C253.264 236.835 253.166 236.848 253.087 236.859C252.902 236.882 252.733 236.922 252.579 236.977C252.428 237.032 252.306 237.112 252.215 237.217C252.125 237.319 252.081 237.455 252.081 237.626C252.081 237.862 252.168 238.041 252.343 238.163C252.517 238.282 252.74 238.342 253.011 238.342ZM257.197 237.335L257.191 236.168H257.357L259.313 234.091H260.457L258.226 236.456H258.076L257.197 237.335ZM256.318 239V232.455H257.274V239H256.318ZM259.418 239L257.661 236.667L258.319 235.999L260.591 239H259.418ZM262.577 239.109C262.266 239.109 261.984 239.051 261.733 238.936C261.481 238.819 261.282 238.65 261.135 238.428C260.99 238.206 260.918 237.935 260.918 237.613C260.918 237.336 260.971 237.108 261.078 236.929C261.184 236.75 261.328 236.608 261.509 236.504C261.69 236.4 261.893 236.321 262.116 236.267C262.34 236.214 262.568 236.174 262.8 236.146C263.094 236.112 263.333 236.084 263.516 236.063C263.699 236.039 263.833 236.002 263.916 235.951C263.999 235.9 264.04 235.817 264.04 235.702V235.679C264.04 235.4 263.962 235.184 263.804 235.031C263.648 234.877 263.416 234.8 263.107 234.8C262.785 234.8 262.532 234.872 262.346 235.015C262.163 235.155 262.036 235.312 261.966 235.484L261.068 235.28C261.175 234.982 261.33 234.741 261.535 234.558C261.741 234.372 261.979 234.238 262.247 234.155C262.516 234.07 262.798 234.027 263.094 234.027C263.29 234.027 263.498 234.05 263.718 234.097C263.939 234.142 264.146 234.225 264.338 234.347C264.532 234.468 264.69 234.642 264.814 234.868C264.937 235.091 264.999 235.382 264.999 235.74V239H264.066V238.329H264.028C263.966 238.452 263.873 238.574 263.75 238.693C263.626 238.812 263.467 238.912 263.273 238.99C263.079 239.069 262.847 239.109 262.577 239.109ZM262.784 238.342C263.049 238.342 263.274 238.289 263.462 238.185C263.652 238.081 263.795 237.944 263.893 237.776C263.994 237.605 264.044 237.423 264.044 237.229V236.597C264.009 236.631 263.943 236.663 263.845 236.692C263.75 236.72 263.64 236.745 263.516 236.766C263.393 236.785 263.272 236.803 263.155 236.82C263.038 236.835 262.94 236.848 262.861 236.859C262.676 236.882 262.506 236.922 262.353 236.977C262.202 237.032 262.08 237.112 261.989 237.217C261.899 237.319 261.854 237.455 261.854 237.626C261.854 237.862 261.942 238.041 262.116 238.163C262.291 238.282 262.514 238.342 262.784 238.342ZM265.99 239V238.345L268.649 234.967V234.922H266.076V234.091H269.841V234.788L267.284 238.124V238.169H269.93V239H265.99ZM272.853 239.099C272.369 239.099 271.953 238.996 271.603 238.789C271.256 238.58 270.988 238.287 270.798 237.91C270.61 237.531 270.517 237.087 270.517 236.577C270.517 236.075 270.61 235.631 270.798 235.248C270.988 234.864 271.252 234.565 271.591 234.35C271.931 234.135 272.33 234.027 272.786 234.027C273.063 234.027 273.331 234.073 273.591 234.164C273.851 234.256 274.085 234.4 274.291 234.596C274.498 234.792 274.661 235.047 274.78 235.36C274.899 235.671 274.959 236.049 274.959 236.494V236.833H271.057V236.117H274.023C274.023 235.866 273.972 235.643 273.869 235.449C273.767 235.253 273.623 235.099 273.438 234.986C273.255 234.873 273.039 234.816 272.792 234.816C272.524 234.816 272.289 234.882 272.089 235.015C271.891 235.145 271.738 235.315 271.629 235.526C271.522 235.735 271.469 235.962 271.469 236.207V236.766C271.469 237.094 271.527 237.373 271.642 237.603C271.759 237.833 271.922 238.009 272.131 238.131C272.339 238.25 272.583 238.31 272.863 238.31C273.044 238.31 273.209 238.284 273.358 238.233C273.507 238.18 273.636 238.101 273.745 237.996C273.853 237.892 273.936 237.763 273.994 237.61L274.898 237.773C274.826 238.039 274.696 238.272 274.509 238.473C274.323 238.671 274.09 238.825 273.809 238.936C273.529 239.045 273.211 239.099 272.853 239.099Z" fill="#1A1A1A"/>
</g>
<g filter="url(#filter8_b_911_777)">
<path d="M30 247.5H285V262.5C285 267.471 280.971 271.5 276 271.5H39C34.0294 271.5 30 267.471 30 262.5V247.5Z" fill="white"/>
</g>
</g>
</g>
<defs>
<filter id="filter0_d_911_777" x="0" y="0" width="315" height="411" filterUnits="userSpaceOnUse" color-interpolation-filters="sRGB">
<feFlood flood-opacity="0" result="BackgroundImageFix"/>
<feColorMatrix in="SourceAlpha" type="matrix" values="0 0 0 0 0 0 0 0 0 0 0 0 0 0 0 0 0 0 127 0" result="hardAlpha"/>
<feOffset/>
<feGaussianBlur stdDeviation="9"/>
<feComposite in2="hardAlpha" operator="out"/>
<feColorMatrix type="matrix" values="0 0 0 0 0 0 0 0 0 0 0 0 0 0 0 0 0 0 0.08 0"/>
<feBlend mode="normal" in2="BackgroundImageFix" result="effect1_dropShadow_911_777"/>
<feBlend mode="normal" in="SourceGraphic" in2="effect1_dropShadow_911_777" result="shape"/>
</filter>
<filter id="filter1_f_911_777" x="51.1021" y="139.125" width="25.2959" height="34.5" filterUnits="userSpaceOnUse" color-interpolation-filters="sRGB">
<feFlood flood-opacity="0" result="BackgroundImageFix"/>
<feBlend mode="normal" in="SourceGraphic" in2="BackgroundImageFix" result="shape"/>
<feGaussianBlur stdDeviation="0.1875" result="effect1_foregroundBlur_911_777"/>
</filter>
<filter id="filter2_d_911_777" x="16.5" y="91.5" width="282" height="58.5" filterUnits="userSpaceOnUse" color-interpolation-filters="sRGB">
<feFlood flood-opacity="0" result="BackgroundImageFix"/>
<feColorMatrix in="SourceAlpha" type="matrix" values="0 0 0 0 0 0 0 0 0 0 0 0 0 0 0 0 0 0 127 0" result="hardAlpha"/>
<feMorphology radius="0.75" operator="dilate" in="SourceAlpha" result="effect1_dropShadow_911_777"/>
<feOffset/>
<feGaussianBlur stdDeviation="4.875"/>
<feComposite in2="hardAlpha" operator="out"/>
<feColorMatrix type="matrix" values="0 0 0 0 0 0 0 0 0 0 0 0 0 0 0 0 0 0 0.12 0"/>
<feBlend mode="normal" in2="BackgroundImageFix" result="effect1_dropShadow_911_777"/>
<feBlend mode="normal" in="SourceGraphic" in2="effect1_dropShadow_911_777" result="shape"/>
</filter>
<filter id="filter3_b_911_777" x="12" y="87" width="291" height="67.5" filterUnits="userSpaceOnUse" color-interpolation-filters="sRGB">
<feFlood flood-opacity="0" result="BackgroundImageFix"/>
<feGaussianBlur in="BackgroundImageFix" stdDeviation="9"/>
<feComposite in2="SourceAlpha" operator="in" result="effect1_backgroundBlur_911_777"/>
<feBlend mode="normal" in="SourceGraphic" in2="effect1_backgroundBlur_911_777" result="shape"/>
</filter>
<filter id="filter4_d_911_777" x="16.5" y="162" width="282" height="123" filterUnits="userSpaceOnUse" color-interpolation-filters="sRGB">
<feFlood flood-opacity="0" result="BackgroundImageFix"/>
<feColorMatrix in="SourceAlpha" type="matrix" values="0 0 0 0 0 0 0 0 0 0 0 0 0 0 0 0 0 0 127 0" result="hardAlpha"/>
<feMorphology radius="0.75" operator="dilate" in="SourceAlpha" result="effect1_dropShadow_911_777"/>
<feOffset/>
<feGaussianBlur stdDeviation="4.875"/>
<feComposite in2="hardAlpha" operator="out"/>
<feColorMatrix type="matrix" values="0 0 0 0 0 0 0 0 0 0 0 0 0 0 0 0 0 0 0.12 0"/>
<feBlend mode="normal" in2="BackgroundImageFix" result="effect1_dropShadow_911_777"/>
<feBlend mode="normal" in="SourceGraphic" in2="effect1_dropShadow_911_777" result="shape"/>
</filter>
<filter id="filter5_b_911_777" x="12" y="157.5" width="291" height="60" filterUnits="userSpaceOnUse" color-interpolation-filters="sRGB">
<feFlood flood-opacity="0" result="BackgroundImageFix"/>
<feGaussianBlur in="BackgroundImageFix" stdDeviation="9"/>
<feComposite in2="SourceAlpha" operator="in" result="effect1_backgroundBlur_911_777"/>
<feBlend mode="normal" in="SourceGraphic" in2="effect1_backgroundBlur_911_777" result="shape"/>
</filter>
<filter id="filter6_b_911_777" x="12" y="181.5" width="291" height="60" filterUnits="userSpaceOnUse" color-interpolation-filters="sRGB">
<feFlood flood-opacity="0" result="BackgroundImageFix"/>
<feGaussianBlur in="BackgroundImageFix" stdDeviation="9"/>
<feComposite in2="SourceAlpha" operator="in" result="effect1_backgroundBlur_911_777"/>
<feBlend mode="normal" in="SourceGraphic" in2="effect1_backgroundBlur_911_777" result="shape"/>
</filter>
<filter id="filter7_b_911_777" x="12" y="205.5" width="291" height="60" filterUnits="userSpaceOnUse" color-interpolation-filters="sRGB">
<feFlood flood-opacity="0" result="BackgroundImageFix"/>
<feGaussianBlur in="BackgroundImageFix" stdDeviation="9"/>
<feComposite in2="SourceAlpha" operator="in" result="effect1_backgroundBlur_911_777"/>
<feBlend mode="normal" in="SourceGraphic" in2="effect1_backgroundBlur_911_777" result="shape"/>
</filter>
<filter id="filter8_b_911_777" x="12" y="229.5" width="291" height="60" filterUnits="userSpaceOnUse" color-interpolation-filters="sRGB">
<feFlood flood-opacity="0" result="BackgroundImageFix"/>
<feGaussianBlur in="BackgroundImageFix" stdDeviation="9"/>
<feComposite in2="SourceAlpha" operator="in" result="effect1_backgroundBlur_911_777"/>
<feBlend mode="normal" in="SourceGraphic" in2="effect1_backgroundBlur_911_777" result="shape"/>
</filter>
<linearGradient id="paint0_linear_911_777" x1="46.125" y1="103.103" x2="96.8547" y2="197.443" gradientUnits="userSpaceOnUse">
<stop stop-color="#7F98FB"/>
<stop offset="1" stop-color="#B9C7FF"/>
</linearGradient>
<linearGradient id="paint1_linear_911_777" x1="46.125" y1="175.5" x2="200.25" y2="280.875" gradientUnits="userSpaceOnUse">
<stop stop-color="#7F98FB"/>
<stop offset="1" stop-color="#B9C7FF"/>
</linearGradient>
<clipPath id="clip0_911_777">
<rect x="39" y="113.25" width="15" height="15" rx="7.5" fill="white"/>
</clipPath>
</defs>
</svg>
