<svg width="345" height="254" viewBox="0 0 345 254" fill="none" xmlns="http://www.w3.org/2000/svg">
<g clip-path="url(#clip0_1136_523)">
<rect width="343.667" height="254" transform="translate(0.666992)" fill="#F1F1F1"/>
<g clip-path="url(#clip1_1136_523)">
<rect width="254" height="351" transform="translate(-3 254) rotate(-90)" fill="#F8F6F8"/>
<path d="M7.13574 264.692L12.7544 -13.6279" stroke="#F6F3F5" stroke-width="65.7627"/>
<path d="M200.703 128.52L236.453 72.1222" stroke="#F6F3F5" stroke-width="65.7627"/>
<path d="M227.529 209.867L258.597 258.351L269.779 277.901" stroke="#F8F6F8" stroke-width="65.7627"/>
<path d="M227.805 209.972L267.906 270.196" stroke="white" stroke-width="21.9209"/>
<path d="M353.068 258.979L349.322 108.183L331.309 91.6202L291.538 84.5442L117.525 46.0721" stroke="#F6F3F5" stroke-width="65.7627"/>
<path d="M-24.373 46.4392L56.2159 -30.243" stroke="white" stroke-width="10.9605"/>
<path d="M10.7158 14.1519L295.945 14.1518L273.029 -27.0458" stroke="white" stroke-width="10.9605"/>
<path d="M-8.0127 179.729L169.14 258.979L242.385 196.868M368.602 89.8381L268.871 174.409M296.496 12.9986L387.881 174.382M268.871 174.409L242.385 196.868M268.871 174.409L190.086 121.483M111.301 68.5579L190.086 121.483M242.385 196.868L95.161 116.465M147.987 190.369L190.086 121.483" stroke="white" stroke-width="10.9605"/>
<path d="M74.6699 172.653L150.797 190.972M228.522 209.762L150.797 190.972M114.441 232.353L150.797 190.972" stroke="white" stroke-width="21.9209"/>
<path d="M341.28 92.8259L117.525 47.2779" stroke="white" stroke-width="21.9209"/>
<path d="M348 104.305L353.453 290.585" stroke="white" stroke-width="21.9209"/>
<path d="M253.364 244.461L303.161 214.925M352.957 185.39L303.161 214.925M303.161 214.925L291.868 156.562" stroke="white" stroke-width="10.9605"/>
<path d="M202.631 127.996L234.745 71.3886" stroke="white" stroke-width="21.9209"/>
<path d="M11.542 56.1882L123.034 47.9068" stroke="white" stroke-width="21.9209"/>
<path d="M79.5717 174.435L7.46582 144.769" stroke="white" stroke-width="10.9605"/>
<path d="M6.91504 268.885L13.0845 -0.209814L13.0845 -17.7162" stroke="white" stroke-width="21.9209"/>
<path d="M-12.8047 98.1197L94.0597 110.542L44.3733 266.684L125.127 12.9988" stroke="white" stroke-width="21.9209"/>
</g>
<path d="M55.999 214L111.999 49" stroke="#2CFF3A" stroke-width="3" stroke-linecap="round"/>
<mask id="mask0_1136_523" style="mask-type:alpha" maskUnits="userSpaceOnUse" x="41" y="214" width="21" height="20">
<rect x="41.999" y="214" width="20" height="20" fill="#D9D9D9"/>
</mask>
<g mask="url(#mask0_1136_523)">
<path d="M51.5833 227.169C52.5822 227.169 53.4292 226.822 54.1242 226.126C54.8192 225.431 55.1667 224.584 55.1667 223.585C55.1667 222.586 54.8192 221.739 54.1242 221.044C53.4292 220.348 52.5822 220.001 51.5833 220.001C50.5844 220.001 49.7375 220.348 49.0425 221.044C48.3475 221.739 48 222.586 48 223.585C48 224.584 48.3475 225.431 49.0425 226.126C49.7375 226.822 50.5844 227.169 51.5833 227.169ZM51.5833 224.585C51.3 224.585 51.0625 224.489 50.8708 224.298C50.6792 224.106 50.5833 223.868 50.5833 223.585C50.5833 223.302 50.6792 223.064 50.8708 222.872C51.0625 222.681 51.3 222.585 51.5833 222.585C51.8667 222.585 52.1042 222.681 52.2958 222.872C52.4875 223.064 52.5833 223.302 52.5833 223.585C52.5833 223.868 52.4875 224.106 52.2958 224.298C52.1042 224.489 51.8667 224.585 51.5833 224.585ZM51.5904 231.17C50.5472 231.17 49.5647 230.973 48.6429 230.578C47.7211 230.183 46.9143 229.64 46.2225 228.948C45.5307 228.256 44.9873 227.45 44.5923 226.529C44.1974 225.608 44 224.624 44 223.577C44 222.53 44.1974 221.549 44.5921 220.634C44.9868 219.718 45.5299 218.915 46.2215 218.223C46.913 217.531 47.7192 216.988 48.64 216.592C49.5607 216.197 50.5445 216 51.5915 216C52.6384 216 53.6193 216.197 54.5342 216.592C55.449 216.987 56.2524 217.53 56.9442 218.222C57.636 218.914 58.1794 219.718 58.5744 220.636C58.9692 221.554 59.1667 222.534 59.1667 223.578C59.1667 224.621 58.9693 225.604 58.5746 226.526C58.1799 227.448 57.6367 228.255 56.9452 228.947C56.2537 229.639 55.4492 230.182 54.5317 230.578C53.614 230.973 52.6336 231.17 51.5904 231.17Z" fill="#B7B7B7"/>
</g>
<mask id="mask1_1136_523" style="mask-type:alpha" maskUnits="userSpaceOnUse" x="103" y="25" width="20" height="20">
<rect x="103" y="25" width="20" height="20" fill="#D9D9D9"/>
</mask>
<g mask="url(#mask1_1136_523)">
<path d="M113 42.9111C112.852 42.9111 112.714 42.8847 112.586 42.832C112.458 42.779 112.329 42.6968 112.197 42.5853C111.797 42.2173 111.295 41.715 110.692 41.0785C110.089 40.4422 109.501 39.7276 108.93 38.9347C108.358 38.1419 107.873 37.2924 107.475 36.3864C107.076 35.4803 106.877 34.5707 106.877 33.6576C106.877 31.8271 107.447 30.2598 108.587 28.9559C109.727 27.652 111.198 27 113 27C114.789 27 116.256 27.652 117.403 28.9559C118.55 30.2598 119.124 31.8271 119.124 33.6576C119.124 34.5707 118.921 35.4825 118.515 36.3932C118.11 37.304 117.626 38.1572 117.064 38.9529C116.502 39.7486 115.92 40.4594 115.317 41.0855C114.714 41.7117 114.212 42.2087 113.811 42.5766C113.682 42.6881 113.552 42.7717 113.422 42.8275C113.292 42.8832 113.151 42.9111 113 42.9111ZM113.002 35.0409C113.375 35.0409 113.691 34.9007 113.95 34.6202C114.21 34.3398 114.34 33.9989 114.34 33.5975C114.34 33.1962 114.21 32.8557 113.949 32.5762C113.689 32.2968 113.372 32.1571 112.999 32.1571C112.626 32.1571 112.31 32.2973 112.05 32.5778C111.79 32.8582 111.66 33.1992 111.66 33.6007C111.66 34.002 111.791 34.3424 112.051 34.6218C112.312 34.9012 112.629 35.0409 113.002 35.0409Z" fill="#B7B7B7"/>
</g>
<path d="M67.499 199.5L110.818 216.451C112.419 217.078 114.242 216.61 115.345 215.29L146.499 178L187.821 116.729C189.033 114.932 191.456 114.427 193.285 115.591L197.614 118.346C199.482 119.535 201.96 118.98 203.143 117.108L231.312 72.5428C232.832 70.1377 231.426 66.9592 228.624 66.4661L117.999 47" stroke="#B7B7B7" stroke-width="3" stroke-linecap="round"/>
<path d="M153.999 177L223.071 195.484C224.285 195.809 225.581 195.545 226.571 194.77L338.464 107.201C339.433 106.443 339.999 105.281 339.999 104.051V88.3802C339.999 86.4285 338.591 84.7617 336.666 84.4362L239.499 68" stroke="#B7B7B7" stroke-width="3" stroke-linecap="round"/>
<path d="M57.499 195L12.9328 176.036C11.457 175.408 10.499 173.959 10.499 172.355V58.6936C10.499 56.6078 12.1017 54.8721 14.1809 54.7062L104.499 47.5" stroke="#B7B7B7" stroke-width="3" stroke-linecap="round"/>
</g>
<defs>
<clipPath id="clip0_1136_523">
<rect width="343.667" height="254" fill="white" transform="translate(0.666992)"/>
</clipPath>
<clipPath id="clip1_1136_523">
<rect width="254" height="351" fill="white" transform="translate(-3 254) rotate(-90)"/>
</clipPath>
</defs>
</svg>
