<svg width="337" height="236" viewBox="0 0 337 236" fill="none" xmlns="http://www.w3.org/2000/svg">
<g filter="url(#filter0_ii_1136_1772)">
<path d="M214.608 74.8427C201.558 71.586 188.905 66.8962 176.885 60.8606L173.343 59.1186C170.285 57.6271 166.708 57.6271 163.649 59.1186L160.107 60.8606C148.088 66.8962 135.434 71.586 122.384 74.8427C117.531 76.0428 114.117 80.4006 114.123 85.4049V104.356C114.164 120.203 119.017 135.664 128.035 148.692C137.06 161.719 149.823 171.699 164.645 177.314C167.133 178.229 169.859 178.229 172.347 177.314C187.168 171.698 199.932 161.718 208.957 148.692C217.976 135.665 222.829 120.203 222.869 104.356V85.7137C222.997 80.6043 219.566 76.0895 214.608 74.8427ZM192.796 102.183L166.882 133.253C166.043 134.261 164.832 134.867 163.527 134.931C162.292 134.931 161.103 134.441 160.229 133.567L144.511 117.843C143.62 116.975 143.119 115.793 143.119 114.552C143.119 113.311 143.62 112.122 144.511 111.254C145.432 110.433 146.643 110.008 147.878 110.078C149.114 110.147 150.273 110.707 151.094 111.627L163.026 123.559L185.648 96.4043C187.285 94.4468 190.192 94.1672 192.173 95.7809C194.025 97.4239 194.293 100.214 192.796 102.183Z" fill="#B7B7B7"/>
</g>
<defs>
<filter id="filter0_ii_1136_1772" x="114.123" y="56" width="108.75" height="124" filterUnits="userSpaceOnUse" color-interpolation-filters="sRGB">
<feFlood flood-opacity="0" result="BackgroundImageFix"/>
<feBlend mode="normal" in="SourceGraphic" in2="BackgroundImageFix" result="shape"/>
<feColorMatrix in="SourceAlpha" type="matrix" values="0 0 0 0 0 0 0 0 0 0 0 0 0 0 0 0 0 0 127 0" result="hardAlpha"/>
<feOffset dy="-2"/>
<feGaussianBlur stdDeviation="2"/>
<feComposite in2="hardAlpha" operator="arithmetic" k2="-1" k3="1"/>
<feColorMatrix type="matrix" values="0 0 0 0 0 0 0 0 0 0 0 0 0 0 0 0 0 0 0.12 0"/>
<feBlend mode="normal" in2="shape" result="effect1_innerShadow_1136_1772"/>
<feColorMatrix in="SourceAlpha" type="matrix" values="0 0 0 0 0 0 0 0 0 0 0 0 0 0 0 0 0 0 127 0" result="hardAlpha"/>
<feOffset dy="2"/>
<feGaussianBlur stdDeviation="2"/>
<feComposite in2="hardAlpha" operator="arithmetic" k2="-1" k3="1"/>
<feColorMatrix type="matrix" values="0 0 0 0 1 0 0 0 0 1 0 0 0 0 1 0 0 0 1 0"/>
<feBlend mode="normal" in2="effect1_innerShadow_1136_1772" result="effect2_innerShadow_1136_1772"/>
</filter>
</defs>
</svg>
