<svg width="24" height="24" viewBox="0 0 24 24" fill="none" xmlns="http://www.w3.org/2000/svg">
<mask id="mask0_6029_2772" style="mask-type:alpha" maskUnits="userSpaceOnUse" x="0" y="0" width="24" height="24">
<rect width="24" height="24" fill="#0F172A"/>
</mask>
<g mask="url(#mask0_6029_2772)">
<path d="M6 21.4992C5.30133 21.4992 4.71 21.2572 4.226 20.7732C3.742 20.2892 3.5 19.6979 3.5 18.9992V17.4032C3.5 17.1454 3.58625 16.9303 3.75875 16.758C3.93108 16.5855 4.14617 16.4992 4.404 16.4992H6.5V3.18573C6.5 3.0819 6.542 3.0124 6.626 2.97723C6.71 2.9419 6.79042 2.95632 6.86725 3.02048L7.602 3.62998C7.68917 3.70432 7.78342 3.74148 7.88475 3.74148C7.98592 3.74148 8.08008 3.70432 8.16725 3.62998L9.00575 2.94548C9.09292 2.87115 9.18717 2.83398 9.2885 2.83398C9.38983 2.83398 9.48408 2.87115 9.57125 2.94548L10.4098 3.62998C10.4969 3.70432 10.5911 3.74148 10.6923 3.74148C10.7936 3.74148 10.8878 3.70432 10.975 3.62998L11.8135 2.94548C11.9007 2.87115 11.9949 2.83398 12.0963 2.83398C12.1974 2.83398 12.2916 2.87115 12.3787 2.94548L13.2172 3.62998C13.3044 3.70432 13.3987 3.74148 13.5 3.74148C13.6013 3.74148 13.6956 3.70432 13.7828 3.62998L14.6212 2.94548C14.7084 2.87115 14.8026 2.83398 14.9038 2.83398C15.0051 2.83398 15.0993 2.87115 15.1865 2.94548L16.025 3.62998C16.1122 3.70432 16.2064 3.74148 16.3077 3.74148C16.4089 3.74148 16.5031 3.70432 16.5903 3.62998L17.4288 2.94548C17.5159 2.87115 17.6102 2.83398 17.7115 2.83398C17.8128 2.83398 17.9071 2.87115 17.9943 2.94548L18.8328 3.62998C18.9199 3.70432 19.0141 3.74148 19.1152 3.74148C19.2166 3.74148 19.3108 3.70432 19.398 3.62998L20.1327 3.02048C20.2096 2.95632 20.29 2.9419 20.374 2.97723C20.458 3.0124 20.5 3.0819 20.5 3.18573V18.9992C20.5 19.6979 20.258 20.2892 19.774 20.7732C19.29 21.2572 18.6987 21.4992 18 21.4992H6ZM18 19.9992C18.2833 19.9992 18.5208 19.9034 18.7125 19.7117C18.9042 19.5201 19 19.2826 19 18.9992V4.99923H8V16.4992H16.0962C16.3539 16.4992 16.5689 16.5855 16.7413 16.758C16.9138 16.9303 17 17.1454 17 17.4032V18.9992C17 19.2826 17.0958 19.5201 17.2875 19.7117C17.4792 19.9034 17.7167 19.9992 18 19.9992ZM9.94225 7.24923H14.1155C14.3282 7.24923 14.5063 7.32107 14.65 7.46473C14.7935 7.60823 14.8652 7.7864 14.8652 7.99923C14.8652 8.21207 14.7935 8.39023 14.65 8.53373C14.5063 8.6774 14.3282 8.74923 14.1155 8.74923H9.94225C9.72942 8.74923 9.55125 8.6774 9.40775 8.53373C9.26408 8.39023 9.19225 8.21207 9.19225 7.99923C9.19225 7.7864 9.26408 7.60823 9.40775 7.46473C9.55125 7.32107 9.72942 7.24923 9.94225 7.24923ZM9.94225 10.2492H14.1155C14.3282 10.2492 14.5063 10.3211 14.65 10.4647C14.7935 10.6082 14.8652 10.7864 14.8652 10.9992C14.8652 11.2121 14.7935 11.3902 14.65 11.5337C14.5063 11.6774 14.3282 11.7492 14.1155 11.7492H9.94225C9.72942 11.7492 9.55125 11.6774 9.40775 11.5337C9.26408 11.3902 9.19225 11.2121 9.19225 10.9992C9.19225 10.7864 9.26408 10.6082 9.40775 10.4647C9.55125 10.3211 9.72942 10.2492 9.94225 10.2492ZM16.9423 8.88373C16.6974 8.88373 16.4888 8.79757 16.3163 8.62523C16.1439 8.45273 16.0577 8.24407 16.0577 7.99923C16.0577 7.7544 16.1439 7.54573 16.3163 7.37323C16.4888 7.2009 16.6974 7.11473 16.9423 7.11473C17.1871 7.11473 17.3958 7.2009 17.5682 7.37323C17.7407 7.54573 17.827 7.7544 17.827 7.99923C17.827 8.24407 17.7407 8.45273 17.5682 8.62523C17.3958 8.79757 17.1871 8.88373 16.9423 8.88373ZM16.9423 11.8837C16.6974 11.8837 16.4888 11.7976 16.3163 11.6252C16.1439 11.4527 16.0577 11.2441 16.0577 10.9992C16.0577 10.7544 16.1439 10.5457 16.3163 10.3732C16.4888 10.2009 16.6974 10.1147 16.9423 10.1147C17.1871 10.1147 17.3958 10.2009 17.5682 10.3732C17.7407 10.5457 17.827 10.7544 17.827 10.9992C17.827 11.2441 17.7407 11.4527 17.5682 11.6252C17.3958 11.7976 17.1871 11.8837 16.9423 11.8837Z" fill="#0F172A"/>
</g>
</svg>
