<svg width="76" height="17" viewBox="0 0 76 17" fill="none" xmlns="http://www.w3.org/2000/svg">
<path d="M4.38939 12.8826L2.34928 16.5H16.1114L14.1059 12.8826H4.38939Z" fill="#111827"/>
<path d="M7.2248 0.5L0.34375 12.8826H4.38939L9.26491 4.15217L7.2248 0.5Z" fill="#111827"/>
<path d="M11.2704 0.5L9.26491 4.11739L14.1404 12.8478H18.1861L11.2704 0.5Z" fill="#111827"/>
<path d="M9.23033 7.7C10.4406 7.7 11.4088 8.7087 11.4088 9.96087C11.4088 11.213 10.4406 12.2217 9.23033 12.2217C8.0201 12.2217 7.05191 11.213 7.05191 9.96087C7.05191 8.7087 8.05468 7.7 9.23033 7.7Z" fill="#111827"/>
<path d="M24.8251 3.19662C26.6231 3.19662 27.7642 4.24009 27.8679 5.90966H26.5885C26.5194 4.93575 25.8624 4.37923 24.8251 4.37923C23.6494 4.37923 22.8887 5.00531 22.8887 5.94444C22.8887 6.70966 23.3036 7.19662 24.2026 7.40531L25.7587 7.78792C27.2801 8.13575 28.0754 9.00531 28.0754 10.3966C28.0754 12.1357 26.7614 13.2488 24.7905 13.2488C22.8887 13.2488 21.6093 12.2053 21.5401 10.5357H22.8195C22.8541 11.4749 23.5802 12.0662 24.7905 12.0662C26.0353 12.0662 26.8306 11.4749 26.8306 10.501C26.8306 9.73575 26.4156 9.24879 25.5512 9.04009L23.9952 8.69227C22.4737 8.34444 21.6784 7.40531 21.6784 6.01401C21.6093 4.30966 22.8887 3.19662 24.8251 3.19662Z" fill="#111827"/>
<path d="M28.767 12.8478V2.96957H29.9772V7.31739C30.3922 6.58696 31.1529 6.13478 32.1211 6.13478C33.7462 6.13478 34.507 7.21304 34.507 8.88261V12.9174H33.2967V9.12609C33.2967 7.80435 32.6743 7.24783 31.7753 7.24783C30.5996 7.24783 29.9772 8.15217 29.9772 9.26522V12.8478H28.767Z" fill="#111827"/>
<path d="M39.6245 10.0304V9.68261L37.9994 9.82174C36.9274 9.92609 36.4779 10.3435 36.4779 11.0043C36.4779 11.7 36.962 12.0478 37.7573 12.0478C38.933 12.0478 39.6245 11.2826 39.6245 10.0304ZM35.2677 11.0391C35.2677 9.82174 36.1321 9.05652 37.619 8.95217L39.6245 8.77826V8.60435C39.6245 7.4913 39.0021 7.1087 38.1377 7.1087C37.1003 7.1087 36.5471 7.59565 36.5471 8.36087H35.4752C35.4752 7.00435 36.5471 6.1 38.2068 6.1C39.7628 6.1 40.8348 6.96957 40.8348 8.74348V12.8826H39.7974L39.6591 11.8043C39.3479 12.5696 38.4835 13.0217 37.4461 13.0217C36.063 13.0217 35.2677 12.2217 35.2677 11.0391Z" fill="#111827"/>
<path d="M45.4682 7.38696H44.915C43.7739 7.38696 43.0478 8.11739 43.0478 9.36956V12.8478H41.8375V6.3087H42.9786L43.0478 7.31739C43.2898 6.62174 43.9468 6.16956 44.8112 6.16956C45.0187 6.16956 45.2262 6.20435 45.4682 6.23913V7.38696Z" fill="#111827"/>
<path d="M50.5166 9.54348C50.5166 8.18696 49.7559 7.21304 48.5111 7.21304C47.2663 7.21304 46.5402 8.18696 46.5402 9.54348C46.5402 10.9 47.2663 11.8739 48.5111 11.8739C49.7559 11.8739 50.5166 10.9348 50.5166 9.54348ZM45.2953 9.61304C45.2953 7.59565 46.4364 6.1 48.3036 6.1C49.2718 6.1 50.1017 6.55217 50.5166 7.35217V2.96957H51.7269V12.8826H50.655L50.5512 11.7C50.1363 12.6043 49.2718 13.0565 48.2691 13.0565C46.4018 13.0217 45.2953 11.5957 45.2953 9.61304Z" fill="#111827"/>
<path d="M53.6287 8.98696H57.294C57.294 7.9087 56.6024 7.17826 55.5305 7.17826C54.4586 7.14348 53.767 7.80435 53.6287 8.98696ZM52.4184 9.57826C52.4184 7.52609 53.6633 6.1 55.4959 6.1C57.294 6.1 58.4696 7.38696 58.4696 9.33478V9.82174H53.5595C53.6633 11.213 54.3548 11.9783 55.5651 11.9783C56.4987 11.9783 57.1211 11.5609 57.3285 10.8304H58.4696C58.1584 12.2565 57.0865 13.0217 55.5305 13.0217C53.6978 13.0217 52.4184 11.6304 52.4184 9.57826Z" fill="#111827"/>
<path d="M64.7974 6.27391V12.8478H63.7255L63.5872 11.8391C63.2414 12.5348 62.3769 12.987 61.4433 12.987C59.9565 12.987 59.1266 11.9435 59.1266 10.3435V6.27391H60.3368V9.96087C60.3368 11.387 60.9247 11.9087 61.8583 11.9087C62.9648 11.9087 63.5872 11.1783 63.5872 9.75217V6.27391H64.7974Z" fill="#111827"/>
<path d="M65.9039 12.8826V6.27391H66.9758L67.0796 7.14348C67.3908 6.51739 68.0823 6.1 68.9814 6.1C69.9496 6.1 70.6757 6.62174 70.9869 7.42174C71.2981 6.58696 72.0588 6.1 73.027 6.1C74.4793 6.1 75.3438 7.03913 75.3438 8.56956V12.8826H74.1681V8.88261C74.1681 7.83913 73.6148 7.24783 72.7504 7.24783C71.8168 7.24783 71.229 7.9087 71.229 8.98696V12.8826H70.0187V8.84783C70.0187 7.80435 69.4655 7.24783 68.6356 7.24783C67.702 7.24783 67.1142 7.90869 67.1142 8.95217V12.8478H65.9039V12.8826Z" fill="#111827"/>
</svg>
