<svg width="150" height="29" viewBox="0 0 150 29" fill="none" xmlns="http://www.w3.org/2000/svg">
<g clip-path="url(#clip0_7_63)">
<path d="M50.7647 15.833H56.4095C57.2024 15.833 57.8451 16.4806 57.8451 17.2795C57.8451 18.0783 57.2024 18.7259 56.4095 18.7259H49.601C49.4946 18.7259 49.3919 18.7641 49.3111 18.8338L47.2554 20.6058C46.9407 20.877 47.1311 21.3963 47.5453 21.3963H56.0685C56.072 21.3963 56.0748 21.3934 56.0748 21.3899C56.0748 21.3861 56.078 21.3832 56.0817 21.3835C56.189 21.392 56.2973 21.3963 56.4067 21.3963C58.6677 21.3963 60.5006 19.5531 60.5006 17.2795C60.5006 15.1204 58.8477 13.3495 56.7451 13.1765C56.7414 13.1762 56.7387 13.1732 56.7387 13.1695C56.7387 13.1657 56.7356 13.1626 56.7318 13.1626H50.6507C49.8578 13.1626 49.215 12.5151 49.215 11.7162C49.215 10.9174 49.8578 10.2697 50.6507 10.2697H57.4497C57.5617 10.2697 57.6695 10.2273 57.7518 10.1509L59.6608 8.37895C59.9594 8.10175 59.7647 7.5994 59.3587 7.5994H50.7647C50.7643 7.5994 50.764 7.59967 50.764 7.60008C50.764 7.60049 50.7636 7.60083 50.7632 7.60083C50.7267 7.59987 50.6901 7.5994 50.6533 7.5994C48.3924 7.5994 46.5596 9.44254 46.5596 11.7162C46.5596 13.9898 48.3924 15.833 50.6533 15.833C50.6901 15.833 50.7267 15.8325 50.7632 15.8315C50.7636 15.8315 50.764 15.8319 50.764 15.8323C50.764 15.8327 50.7643 15.833 50.7647 15.833Z" fill="black"/>
<path d="M83.6419 7.5994C83.3947 7.5994 83.1948 7.80046 83.1948 8.04856V20.9471C83.1948 21.1951 83.3947 21.3963 83.6419 21.3963H93.9779C94.1011 21.3963 94.2196 21.3449 94.3038 21.2543L95.5977 19.867C95.8653 19.58 95.6627 19.1105 95.2718 19.1105H86.2468C86.0003 19.1105 85.8004 18.9094 85.8004 18.6613V8.04856C85.8004 7.80046 85.5998 7.5994 85.3534 7.5994H83.6419Z" fill="black"/>
<path fill-rule="evenodd" clip-rule="evenodd" d="M67.0867 7.5994L67.0855 7.60056L67.0843 7.60179C65.7632 7.65902 64.7024 8.72213 64.6453 10.0461L64.6441 10.0472V10.0472L64.6428 10.0484V18.7248L64.644 18.7259L64.6451 18.7271C64.6436 18.7636 64.6428 18.8003 64.6428 18.8372C64.6428 20.2129 65.726 21.335 67.0843 21.3939L67.0855 21.395L67.0859 21.396V21.396L76.4653 21.3963L76.4667 21.395L76.4674 21.394C77.8256 21.3351 78.9093 20.2129 78.9093 18.8372C78.9093 18.8003 78.9086 18.7636 78.9073 18.7271L78.908 18.7259L78.9093 18.7248V10.0484L78.908 10.0472L78.9073 10.0461C78.8498 8.72213 77.7893 7.65902 76.4681 7.60179L76.4667 7.60056L76.4653 7.5994H67.0867ZM68.8348 10.0472L68.8341 10.048L68.8334 10.0487C68.0078 10.0848 67.3448 10.7535 67.3091 11.5863L67.3083 11.587L67.3075 11.5877V17.0455L67.3083 17.0461L67.309 17.0469C67.308 17.0699 67.3075 17.093 67.3075 17.1162C67.3075 17.9815 67.9845 18.6874 68.8334 18.7244L68.8341 18.7251L68.8348 18.7259H74.7175L74.7182 18.7251L74.7189 18.7244C75.5678 18.6874 76.2449 17.9815 76.2449 17.1162C76.2449 17.093 76.2442 17.0699 76.2435 17.0469L76.2442 17.0461L76.2449 11.5877L76.2442 11.587V11.587C76.2079 10.7542 75.5445 10.0848 74.7189 10.0487L74.7182 10.048L74.7175 10.0472H68.8348Z" fill="black"/>
<path fill-rule="evenodd" clip-rule="evenodd" d="M110.628 20.9471C110.628 21.1951 110.827 21.3963 111.071 21.3963H112.824C113.069 21.3963 113.267 21.1951 113.267 20.9471V10.2709C113.267 10.2703 113.266 10.2697 113.266 10.2697V10.2696L113.265 10.2695C113.265 10.2692 113.265 10.2689 113.265 10.2685C113.266 10.232 113.267 10.1953 113.267 10.1585C113.267 8.78279 112.194 7.66067 110.849 7.60179C110.848 7.60179 110.848 7.60124 110.848 7.60056C110.848 7.59994 110.847 7.5994 110.846 7.5994H101.843C101.842 7.5994 101.841 7.59987 101.841 7.60056C101.841 7.60118 101.841 7.60172 101.84 7.60172C101.804 7.60015 101.768 7.5994 101.732 7.5994C100.334 7.5994 99.2021 8.74514 99.2021 10.1585C99.2021 10.1953 99.2028 10.232 99.2042 10.2685C99.2042 10.2692 99.2042 10.2697 99.2035 10.2697C99.2028 10.2697 99.2021 10.2703 99.2021 10.2709V20.9471C99.2021 21.1951 99.4007 21.3963 99.6451 21.3963H101.398C101.643 21.3963 101.841 21.1951 101.841 20.9471V16.5048C101.841 16.2567 102.04 16.0555 102.284 16.0555H110.184C110.43 16.0555 110.628 16.2567 110.628 16.5048V20.9471ZM101.841 13.6036V11.3824C101.841 10.5221 102.531 9.82468 103.381 9.82468H109.088C109.939 9.82468 110.628 10.5221 110.628 11.3824V13.6036C110.628 13.8517 110.43 14.0527 110.184 14.0527H102.285C102.04 14.0527 101.841 13.8517 101.841 13.6036Z" fill="black"/>
<path fill-rule="evenodd" clip-rule="evenodd" d="M147.631 21.3963C147.384 21.3963 147.183 21.1951 147.183 20.9471V16.5048C147.183 16.2567 146.983 16.0555 146.736 16.0555H138.748C138.501 16.0555 138.301 16.2567 138.301 16.5048V20.9471C138.301 21.1951 138.101 21.3963 137.854 21.3963H136.084C135.837 21.3963 135.636 21.1951 135.636 20.9471V10.2709V10.2706L135.637 10.2702C135.637 10.2699 135.638 10.2697 135.638 10.2697C135.638 10.2697 135.639 10.2692 135.639 10.2685C135.638 10.232 135.636 10.1953 135.636 10.1585C135.636 8.74514 136.78 7.5994 138.19 7.5994C138.227 7.5994 138.264 7.60015 138.3 7.60172C138.301 7.60172 138.301 7.60118 138.301 7.60056C138.301 7.59987 138.301 7.5994 138.302 7.5994H147.404C147.405 7.5994 147.406 7.59994 147.406 7.60056C147.406 7.60124 147.406 7.60179 147.406 7.60179C148.765 7.66067 149.848 8.78279 149.848 10.1585C149.848 10.1953 149.847 10.232 149.846 10.2685C149.846 10.2692 149.846 10.2697 149.847 10.2697C149.847 10.2697 149.848 10.2699 149.848 10.2701C149.848 10.2703 149.848 10.2706 149.848 10.2709V20.9471C149.848 21.1951 149.648 21.3963 149.401 21.3963H147.631ZM138.301 11.3824V13.6036C138.301 13.8517 138.501 14.0527 138.748 14.0527H146.736C146.983 14.0527 147.183 13.8517 147.183 13.6036V11.3824C147.183 10.5221 146.488 9.82468 145.629 9.82468H139.855C138.997 9.82468 138.301 10.5221 138.301 11.3824Z" fill="black"/>
<path d="M119.865 7.5994C119.995 7.5994 120.119 7.65704 120.203 7.75713L128.065 17.1291C128.332 17.4468 128.845 17.2552 128.845 16.8376V8.04856C128.845 7.80046 129.043 7.5994 129.288 7.5994H131.041C131.286 7.5994 131.484 7.80046 131.484 8.04856V20.9471C131.484 21.1951 131.286 21.3963 131.041 21.3963H128.862C128.852 21.3963 128.845 21.3887 128.845 21.3795C128.845 21.3755 128.843 21.3715 128.841 21.3685L120.847 12.0618C120.577 11.7492 120.07 11.9423 120.07 12.3573V20.9471C120.07 21.1951 119.871 21.3963 119.627 21.3963H117.862C117.618 21.3963 117.419 21.1951 117.419 20.9471V8.04856C117.419 7.80046 117.618 7.5994 117.862 7.5994H119.865Z" fill="black"/>
<path d="M5.80571 21.8713C6.02429 21.6529 6.32065 21.5302 6.62965 21.5302H35.1403C35.6597 21.5302 35.9198 22.1582 35.5523 22.5254L29.9186 28.1545C29.7001 28.3729 29.4038 28.4957 29.0947 28.4957H0.584019C0.0646433 28.4957 -0.195355 27.8676 0.172046 27.5005L5.80571 21.8713Z" fill="url(#paint0_linear_7_63)"/>
<path d="M5.80571 0.841098C6.02429 0.622687 6.32065 0.5 6.62965 0.5H35.1403C35.6597 0.5 35.9198 1.12804 35.5523 1.49515L29.9186 7.12433C29.7001 7.34274 29.4038 7.46543 29.0947 7.46543H0.584019C0.0646433 7.46543 -0.195355 6.83738 0.172046 6.47027L5.80571 0.841098Z" fill="url(#paint1_linear_7_63)"/>
<path d="M29.9186 11.2892C29.7001 11.0708 29.4038 10.9481 29.0947 10.9481H0.584019C0.0646432 10.9481 -0.195355 11.5761 0.172046 11.9433L5.80571 17.5725C6.02429 17.7908 6.32065 17.9135 6.62965 17.9135H35.1403C35.6597 17.9135 35.9197 17.2855 35.5523 16.9184L29.9186 11.2892Z" fill="url(#paint2_linear_7_63)"/>
</g>
<defs>
<linearGradient id="paint0_linear_7_63" x1="24.1518" y1="-7.17942" x2="4.41994" y2="30.615" gradientUnits="userSpaceOnUse">
<stop stop-color="#00FFA3"/>
<stop offset="1" stop-color="#DC1FFF"/>
</linearGradient>
<linearGradient id="paint1_linear_7_63" x1="24.1518" y1="-7.1794" x2="4.41994" y2="30.6151" gradientUnits="userSpaceOnUse">
<stop stop-color="#00FFA3"/>
<stop offset="1" stop-color="#DC1FFF"/>
</linearGradient>
<linearGradient id="paint2_linear_7_63" x1="24.1518" y1="-7.17941" x2="4.41995" y2="30.615" gradientUnits="userSpaceOnUse">
<stop stop-color="#00FFA3"/>
<stop offset="1" stop-color="#DC1FFF"/>
</linearGradient>
<clipPath id="clip0_7_63">
<rect width="149.858" height="28" fill="white" transform="translate(0 0.5)"/>
</clipPath>
</defs>
</svg>
