<svg width="87" height="17" viewBox="0 0 87 17" fill="none" xmlns="http://www.w3.org/2000/svg">
<g clip-path="url(#clip0_1234_1298)">
<path d="M29.4767 9.26173H32.7161C33.1711 9.26173 33.54 9.63176 33.54 10.0883C33.54 10.5447 33.1711 10.9148 32.7161 10.9148H28.8089C28.7478 10.9148 28.6889 10.9366 28.6425 10.9764L27.4628 11.989C27.2822 12.144 27.3914 12.4407 27.6291 12.4407H32.5204C32.5224 12.4407 32.5241 12.4391 32.5241 12.4371C32.5241 12.4349 32.5259 12.4332 32.528 12.4334C32.5896 12.4383 32.6518 12.4407 32.7145 12.4407C34.012 12.4407 35.0639 11.3875 35.0639 10.0883C35.0639 8.85449 34.1154 7.84254 32.9087 7.74372C32.9066 7.74353 32.905 7.74181 32.905 7.73973C32.905 7.73754 32.9033 7.73578 32.9011 7.73578H29.4113C28.9562 7.73578 28.5874 7.36575 28.5874 6.90926C28.5874 6.45277 28.9562 6.0827 29.4113 6.0827H33.3131C33.3773 6.0827 33.4392 6.05844 33.4865 6.01479L34.5819 5.00225C34.7533 4.84385 34.6416 4.55679 34.4086 4.55679H29.4767C29.4765 4.55679 29.4763 4.55695 29.4763 4.55718C29.4763 4.55742 29.4761 4.55761 29.4758 4.55761C29.4549 4.55707 29.4339 4.55679 29.4128 4.55679C28.1153 4.55679 27.0635 5.61001 27.0635 6.90926C27.0635 8.20847 28.1153 9.26173 29.4128 9.26173C29.4339 9.26173 29.4549 9.26142 29.4758 9.26087C29.4761 9.26087 29.4763 9.26106 29.4763 9.2613C29.4763 9.26153 29.4765 9.26173 29.4767 9.26173Z" fill="#111827"/>
<path d="M48.3435 4.55679C48.2016 4.55679 48.0869 4.67169 48.0869 4.81346V12.1841C48.0869 12.3258 48.2016 12.4407 48.3435 12.4407H54.2751C54.3458 12.4407 54.4138 12.4113 54.4621 12.3596L55.2046 11.5668C55.3582 11.4029 55.2419 11.1345 55.0176 11.1345H49.8383C49.6969 11.1345 49.5822 11.0197 49.5822 10.8779V4.81346C49.5822 4.67169 49.4671 4.55679 49.3256 4.55679H48.3435Z" fill="#111827"/>
<path fill-rule="evenodd" clip-rule="evenodd" d="M38.8429 4.55679L38.8422 4.55746L38.8415 4.55816C38.0834 4.59087 37.4746 5.19836 37.4418 5.95489L37.4411 5.95556L37.4404 5.95623V10.9141L37.4411 10.9148L37.4418 10.9155C37.4409 10.9363 37.4404 10.9573 37.4404 10.9784C37.4404 11.7645 38.062 12.4057 38.8415 12.4394L38.8422 12.44L38.8425 12.4406L44.2251 12.4407L44.2259 12.44L44.2263 12.4394C45.0057 12.4058 45.6276 11.7645 45.6276 10.9784C45.6276 10.9573 45.6272 10.9363 45.6265 10.9155L45.6268 10.9148L45.6276 10.9141V5.95623L45.6268 5.95556L45.6265 5.95489C45.5935 5.19836 44.9849 4.59087 44.2266 4.55816L44.2259 4.55746L44.2251 4.55679H38.8429ZM39.8461 5.95556L39.8457 5.95599L39.8453 5.95642C39.3715 5.977 38.991 6.35912 38.9705 6.83501L38.9701 6.8354L38.9697 6.83583V9.95454L38.9701 9.95493L38.9705 9.95536C38.9699 9.96851 38.9697 9.98169 38.9697 9.99495C38.9697 10.4894 39.3582 10.8928 39.8453 10.9139L39.8457 10.9143L39.8461 10.9148H43.2221L43.2225 10.9143L43.2229 10.9139C43.71 10.8928 44.0986 10.4894 44.0986 9.99495C44.0986 9.98169 44.0982 9.96851 44.0978 9.95536L44.0982 9.95493L44.0986 6.83583L44.0982 6.8354C44.0774 6.35951 43.6967 5.977 43.2229 5.95642L43.2225 5.95599L43.2221 5.95556H39.8461Z" fill="#111827"/>
<path fill-rule="evenodd" clip-rule="evenodd" d="M63.8305 12.1841C63.8305 12.3258 63.9444 12.4407 64.0847 12.4407H65.0908C65.2311 12.4407 65.345 12.3258 65.345 12.1841V6.08336C65.345 6.08301 65.3446 6.0827 65.3442 6.0827V6.08262L65.3438 6.08254C65.3438 6.08239 65.3438 6.08223 65.3438 6.082C65.3446 6.06114 65.345 6.04018 65.345 6.01913C65.345 5.23302 64.7294 4.59181 63.9574 4.55816C63.957 4.55816 63.9566 4.55785 63.9566 4.55746C63.9566 4.55711 63.9562 4.55679 63.9558 4.55679H58.7887C58.7884 4.55679 58.788 4.55707 58.788 4.55746C58.788 4.55781 58.7876 4.55812 58.7872 4.55812C58.7667 4.55722 58.7459 4.55679 58.7251 4.55679C57.9232 4.55679 57.2734 5.2115 57.2734 6.01913C57.2734 6.04018 57.2738 6.06114 57.2746 6.082C57.2746 6.08239 57.2746 6.0827 57.2742 6.0827C57.2738 6.0827 57.2734 6.08301 57.2734 6.08336V12.1841C57.2734 12.3258 57.3874 12.4407 57.5276 12.4407H58.5338C58.674 12.4407 58.788 12.3258 58.788 12.1841V9.64557C58.788 9.5038 58.9019 9.38887 59.0421 9.38887H63.5759C63.7166 9.38887 63.8305 9.5038 63.8305 9.64557V12.1841ZM58.788 7.98775V6.71851C58.788 6.22689 59.1836 5.82838 59.6715 5.82838H62.9469C63.4349 5.82838 63.8305 6.22689 63.8305 6.71851V7.98775C63.8305 8.12952 63.7166 8.24442 63.5759 8.24442H59.0425C58.9019 8.24442 58.788 8.12952 58.788 7.98775Z" fill="#111827"/>
<path fill-rule="evenodd" clip-rule="evenodd" d="M85.0662 12.4407C84.9243 12.4407 84.8092 12.3258 84.8092 12.1841V9.64557C84.8092 9.5038 84.6945 9.38887 84.5527 9.38887H79.9686C79.8268 9.38887 79.7121 9.5038 79.7121 9.64557V12.1841C79.7121 12.3258 79.597 12.4407 79.4551 12.4407H78.4396C78.2977 12.4407 78.1826 12.3258 78.1826 12.1841V6.08336V6.08321L78.183 6.08297C78.183 6.08282 78.1834 6.0827 78.1834 6.0827C78.1838 6.0827 78.1842 6.08239 78.1842 6.082C78.1834 6.06114 78.1826 6.04018 78.1826 6.01913C78.1826 5.2115 78.8387 4.55679 79.6484 4.55679C79.6692 4.55679 79.6905 4.55722 79.7113 4.55812C79.7117 4.55812 79.7121 4.55781 79.7121 4.55746C79.7121 4.55707 79.7121 4.55679 79.7125 4.55679H84.9361C84.9365 4.55679 84.9369 4.55711 84.9369 4.55746C84.9369 4.55785 84.9369 4.55816 84.9373 4.55816C85.7168 4.59181 86.3387 5.23302 86.3387 6.01913C86.3387 6.04018 86.3379 6.06114 86.3371 6.082C86.3371 6.08239 86.3375 6.0827 86.3379 6.0827C86.3379 6.0827 86.3383 6.08278 86.3383 6.08289C86.3383 6.08301 86.3387 6.08321 86.3387 6.08336V12.1841C86.3387 12.3258 86.2236 12.4407 86.0817 12.4407H85.0662ZM79.7121 6.71851V7.98775C79.7121 8.12952 79.8268 8.24442 79.9686 8.24442H84.5527C84.6945 8.24442 84.8092 8.12952 84.8092 7.98775V6.71851C84.8092 6.22689 84.4101 5.82838 83.9174 5.82838H80.6039C80.1112 5.82838 79.7121 6.22689 79.7121 6.71851Z" fill="#111827"/>
<path d="M69.1313 4.55679C69.2059 4.55679 69.2766 4.58973 69.325 4.64692L73.8367 10.0023C73.9899 10.1839 74.2846 10.0744 74.2846 9.83577V4.81346C74.2846 4.67169 74.3981 4.55679 74.5388 4.55679H75.5449C75.6852 4.55679 75.7991 4.67169 75.7991 4.81346V12.1841C75.7991 12.3258 75.6852 12.4407 75.5449 12.4407H74.294C74.2885 12.4407 74.2846 12.4364 74.2846 12.4311C74.2846 12.4288 74.2834 12.4266 74.2822 12.4248L69.6947 7.10674C69.5399 6.92812 69.2487 7.03843 69.2487 7.27558V12.1841C69.2487 12.3258 69.1348 12.4407 68.9946 12.4407H67.9817C67.8415 12.4407 67.7275 12.3258 67.7275 12.1841V4.81346C67.7275 4.67169 67.8415 4.55679 67.9817 4.55679H69.1313Z" fill="#111827"/>
<path d="M4.2817 12.4605C4.39507 12.3477 4.54879 12.2843 4.70905 12.2843H19.4964C19.7658 12.2843 19.9007 12.6087 19.7101 12.7983L16.7881 15.7054C16.6748 15.8182 16.5211 15.8816 16.3608 15.8816H1.57342C1.30404 15.8816 1.16918 15.5573 1.35974 15.3677L4.2817 12.4605Z" fill="#111827"/>
<path d="M4.2817 1.59923C4.39507 1.48643 4.54879 1.42307 4.70905 1.42307H19.4964C19.7658 1.42307 19.9007 1.74742 19.7101 1.93701L16.7881 4.84419C16.6748 4.95699 16.5211 5.02035 16.3608 5.02035H1.57342C1.30404 5.02035 1.16918 4.696 1.35974 4.50641L4.2817 1.59923Z" fill="#111827"/>
<path d="M16.7881 6.99524C16.6748 6.88245 16.5211 6.81906 16.3608 6.81906H1.57342C1.30404 6.81906 1.16918 7.14342 1.35974 7.33303L4.2817 10.2402C4.39507 10.353 4.54878 10.4163 4.70905 10.4163H19.4964C19.7658 10.4163 19.9007 10.092 19.7101 9.90242L16.7881 6.99524Z" fill="#111827"/>
</g>
<defs>
<clipPath id="clip0_1234_1298">
<rect width="86" height="16" fill="white" transform="translate(0.34375 0.5)"/>
</clipPath>
</defs>
</svg>
