<svg width="910" height="709" viewBox="0 0 910 709" fill="none" xmlns="http://www.w3.org/2000/svg">
<g opacity="0.7">
<g style="mix-blend-mode:overlay">
<circle cx="851.343" cy="432.313" r="1.68536" transform="rotate(113.954 851.343 432.313)" fill="white"/>
</g>
<circle cx="816.865" cy="445.582" r="0.843116" transform="rotate(113.954 816.865 445.582)" fill="white"/>
<g style="mix-blend-mode:overlay">
<circle cx="867.522" cy="497.596" r="0.843116" transform="rotate(113.954 867.522 497.596)" fill="white"/>
</g>
<circle cx="715.695" cy="494.758" r="0.843116" transform="rotate(113.954 715.695 494.758)" fill="white"/>
<g style="mix-blend-mode:overlay">
<circle cx="758" cy="478.444" r="0.843116" transform="rotate(113.954 758 478.444)" fill="white"/>
</g>
<g style="mix-blend-mode:overlay">
<circle cx="799.326" cy="482.971" r="1.68536" transform="rotate(113.954 799.326 482.971)" fill="white"/>
</g>
<circle cx="835.336" cy="495.273" r="1.68536" transform="rotate(113.954 835.336 495.273)" fill="white"/>
<g style="mix-blend-mode:overlay">
<circle cx="747.484" cy="520.801" r="1.68536" transform="rotate(113.954 747.484 520.801)" fill="white"/>
</g>
<g style="mix-blend-mode:overlay">
<circle cx="779.898" cy="429.16" r="0.843116" transform="rotate(113.954 779.898 429.16)" fill="white"/>
</g>
<circle cx="769.635" cy="468.859" r="0.843116" transform="rotate(113.954 769.635 468.859)" fill="white"/>
<circle cx="792.713" cy="507.975" r="0.843116" transform="rotate(113.954 792.713 507.975)" fill="white"/>
<g style="mix-blend-mode:overlay">
<circle cx="836.719" cy="483.908" r="0.843116" transform="rotate(113.954 836.719 483.908)" fill="white"/>
</g>
<g style="mix-blend-mode:overlay">
<circle cx="748.559" cy="421.953" r="1.70868" transform="rotate(-179.476 748.559 421.953)" fill="white"/>
</g>
<g style="mix-blend-mode:overlay">
<circle cx="722.311" cy="395.222" r="0.854782" transform="rotate(-179.476 722.311 395.222)" fill="white"/>
</g>
<g style="mix-blend-mode:overlay">
<circle cx="694.349" cy="463.322" r="0.854782" transform="rotate(-179.476 694.349 463.322)" fill="white"/>
</g>
<g style="mix-blend-mode:overlay">
<circle cx="626.509" cy="408.018" r="0.854782" transform="rotate(-179.476 626.509 408.018)" fill="white"/>
</g>
<circle cx="668.012" cy="353.718" r="0.854782" transform="rotate(-179.476 668.012 353.718)" fill="white"/>
<g style="mix-blend-mode:overlay">
<circle cx="680.464" cy="393.988" r="1.70868" transform="rotate(-179.476 680.464 393.988)" fill="white"/>
</g>
<g style="mix-blend-mode:overlay">
<circle cx="638.958" cy="448.29" r="1.70868" transform="rotate(-179.476 638.958 448.29)" fill="white"/>
</g>
<circle cx="624.375" cy="361.011" r="1.70868" transform="rotate(-179.476 624.375 361.011)" fill="white"/>
<circle cx="722.688" cy="354.221" r="0.854782" transform="rotate(-179.476 722.688 354.221)" fill="white"/>
<circle cx="681.621" cy="360.678" r="0.854782" transform="rotate(-179.476 681.621 360.678)" fill="white"/>
<g style="mix-blend-mode:overlay">
<circle cx="653.473" cy="449.276" r="0.854782" transform="rotate(-179.476 653.473 449.276)" fill="white"/>
</g>
<g style="mix-blend-mode:overlay">
<circle cx="694.664" cy="429.147" r="0.854782" transform="rotate(-179.476 694.664 429.147)" fill="white"/>
</g>
<circle cx="574.473" cy="256.422" r="1.86462" transform="rotate(118.947 574.473 256.422)" fill="white"/>
<g style="mix-blend-mode:overlay">
<circle cx="541.284" cy="257.458" r="0.932792" transform="rotate(118.947 541.284 257.458)" fill="white"/>
</g>
<circle cx="592.109" cy="319.665" r="0.932792" transform="rotate(118.947 592.109 319.665)" fill="white"/>
<g style="mix-blend-mode:overlay">
<circle cx="503.797" cy="356.049" r="0.932792" transform="rotate(118.947 503.797 356.049)" fill="white"/>
</g>
<g style="mix-blend-mode:overlay">
<circle cx="473.245" cy="288.012" r="0.932792" transform="rotate(118.947 473.245 288.012)" fill="white"/>
</g>
<g style="mix-blend-mode:overlay">
<circle cx="518.36" cy="296.982" r="1.86462" transform="rotate(118.947 518.36 296.982)" fill="white"/>
</g>
<circle cx="548.794" cy="377.978" r="1.86462" transform="rotate(118.947 548.794 377.978)" fill="white"/>
<g style="mix-blend-mode:overlay">
<circle cx="457.572" cy="333.677" r="1.86462" transform="rotate(118.947 457.572 333.677)" fill="white"/>
</g>
<g style="mix-blend-mode:overlay">
<circle cx="502.126" cy="235.799" r="0.932792" transform="rotate(118.947 502.126 235.799)" fill="white"/>
</g>
<g style="mix-blend-mode:overlay">
<circle cx="486.989" cy="278.565" r="0.932792" transform="rotate(118.947 486.989 278.565)" fill="white"/>
</g>
<circle cx="557.398" cy="351.601" r="0.932792" transform="rotate(118.947 557.398 351.601)" fill="white"/>
<circle cx="559.476" cy="301.614" r="0.932792" transform="rotate(118.947 559.476 301.614)" fill="white"/>
<g style="mix-blend-mode:overlay">
<circle cx="788.045" cy="224.202" r="2.06695" transform="rotate(60.0765 788.045 224.202)" fill="white"/>
</g>
<g style="mix-blend-mode:overlay">
<circle cx="776.258" cy="267.948" r="1.03401" transform="rotate(60.0765 776.258 267.948)" fill="white"/>
</g>
<g style="mix-blend-mode:overlay">
<circle cx="864.412" cy="255.371" r="1.03401" transform="rotate(60.0765 864.412 255.371)" fill="white"/>
</g>
<g style="mix-blend-mode:overlay">
<circle cx="848.331" cy="360.021" r="1.03401" transform="rotate(60.0765 848.331 360.021)" fill="white"/>
</g>
<g style="mix-blend-mode:overlay">
<circle cx="766.261" cy="350.021" r="1.03401" transform="rotate(60.0765 766.261 350.021)" fill="white"/>
</g>
<g style="mix-blend-mode:overlay">
<circle cx="800.623" cy="312.353" r="2.06695" transform="rotate(60.0765 800.623 312.353)" fill="white"/>
</g>
<circle cx="883.043" cy="351.525" r="2.06695" transform="rotate(60.0765 883.043 351.525)" fill="white"/>
<g style="mix-blend-mode:overlay">
<circle cx="800.893" cy="360.375" r="2.06695" transform="rotate(60.0765 800.893 360.375)" fill="white"/>
</g>
<g style="mix-blend-mode:overlay">
<circle cx="733.267" cy="292.697" r="1.03401" transform="rotate(60.0765 733.267 292.697)" fill="white"/>
</g>
<g style="mix-blend-mode:overlay">
<circle cx="765.176" cy="331.565" r="1.03401" transform="rotate(60.0765 765.176 331.565)" fill="white"/>
</g>
<circle cx="842.404" cy="314.985" r="1.03401" transform="rotate(60.0765 842.404 314.985)" fill="white"/>
<g style="mix-blend-mode:overlay">
<circle cx="828.587" cy="275.99" r="1.03401" transform="rotate(60.0765 828.587 275.99)" fill="white"/>
</g>
</g>
<g opacity="0.7">
<g style="mix-blend-mode:overlay">
<circle cx="657.087" cy="576.438" r="1.68536" transform="rotate(113.954 657.087 576.438)" fill="white"/>
</g>
<circle cx="622.609" cy="589.707" r="0.843116" transform="rotate(113.954 622.609 589.707)" fill="white"/>
<g style="mix-blend-mode:overlay">
<circle cx="673.267" cy="641.721" r="0.843116" transform="rotate(113.954 673.267 641.721)" fill="white"/>
</g>
<circle cx="521.439" cy="638.883" r="0.843116" transform="rotate(113.954 521.439 638.883)" fill="white"/>
<g style="mix-blend-mode:overlay">
<circle cx="563.744" cy="622.569" r="0.843116" transform="rotate(113.954 563.744 622.569)" fill="white"/>
</g>
<g style="mix-blend-mode:overlay">
<circle cx="605.07" cy="627.096" r="1.68536" transform="rotate(113.954 605.07 627.096)" fill="white"/>
</g>
<circle cx="641.08" cy="639.399" r="1.68536" transform="rotate(113.954 641.08 639.399)" fill="white"/>
<g style="mix-blend-mode:overlay">
<circle cx="553.228" cy="664.927" r="1.68536" transform="rotate(113.954 553.228 664.927)" fill="white"/>
</g>
<g style="mix-blend-mode:overlay">
<circle cx="585.642" cy="573.285" r="0.843116" transform="rotate(113.954 585.642 573.285)" fill="white"/>
</g>
<circle cx="575.379" cy="612.984" r="0.843116" transform="rotate(113.954 575.379 612.984)" fill="white"/>
<circle cx="598.457" cy="652.1" r="0.843116" transform="rotate(113.954 598.457 652.1)" fill="white"/>
<g style="mix-blend-mode:overlay">
<circle cx="642.464" cy="628.033" r="0.843116" transform="rotate(113.954 642.464 628.033)" fill="white"/>
</g>
<g style="mix-blend-mode:overlay">
<circle cx="554.303" cy="566.078" r="1.70868" transform="rotate(-179.476 554.303 566.078)" fill="white"/>
</g>
<g style="mix-blend-mode:overlay">
<circle cx="528.055" cy="539.347" r="0.854782" transform="rotate(-179.476 528.055 539.347)" fill="white"/>
</g>
<g style="mix-blend-mode:overlay">
<circle cx="500.094" cy="607.447" r="0.854782" transform="rotate(-179.476 500.094 607.447)" fill="white"/>
</g>
<g style="mix-blend-mode:overlay">
<circle cx="432.253" cy="552.144" r="0.854782" transform="rotate(-179.476 432.253 552.144)" fill="white"/>
</g>
<circle cx="473.756" cy="497.844" r="0.854782" transform="rotate(-179.476 473.756 497.844)" fill="white"/>
<g style="mix-blend-mode:overlay">
<circle cx="486.208" cy="538.113" r="1.70868" transform="rotate(-179.476 486.208 538.113)" fill="white"/>
</g>
<g style="mix-blend-mode:overlay">
<circle cx="444.702" cy="592.415" r="1.70868" transform="rotate(-179.476 444.702 592.415)" fill="white"/>
</g>
<circle cx="430.119" cy="505.136" r="1.70868" transform="rotate(-179.476 430.119 505.136)" fill="white"/>
<circle cx="528.432" cy="498.346" r="0.854782" transform="rotate(-179.476 528.432 498.346)" fill="white"/>
<circle cx="487.365" cy="504.803" r="0.854782" transform="rotate(-179.476 487.365 504.803)" fill="white"/>
<g style="mix-blend-mode:overlay">
<circle cx="459.217" cy="593.401" r="0.854782" transform="rotate(-179.476 459.217 593.401)" fill="white"/>
</g>
<g style="mix-blend-mode:overlay">
<circle cx="500.408" cy="573.272" r="0.854782" transform="rotate(-179.476 500.408 573.272)" fill="white"/>
</g>
<circle cx="380.218" cy="400.547" r="1.86462" transform="rotate(118.947 380.218 400.547)" fill="white"/>
<g style="mix-blend-mode:overlay">
<circle cx="347.028" cy="401.583" r="0.932792" transform="rotate(118.947 347.028 401.583)" fill="white"/>
</g>
<circle cx="397.853" cy="463.79" r="0.932792" transform="rotate(118.947 397.853 463.79)" fill="white"/>
<g style="mix-blend-mode:overlay">
<circle cx="309.541" cy="500.174" r="0.932792" transform="rotate(118.947 309.541 500.174)" fill="white"/>
</g>
<g style="mix-blend-mode:overlay">
<circle cx="278.989" cy="432.138" r="0.932792" transform="rotate(118.947 278.989 432.138)" fill="white"/>
</g>
<g style="mix-blend-mode:overlay">
<circle cx="324.104" cy="441.107" r="1.86462" transform="rotate(118.947 324.104 441.107)" fill="white"/>
</g>
<circle cx="354.538" cy="522.103" r="1.86462" transform="rotate(118.947 354.538 522.103)" fill="white"/>
<g style="mix-blend-mode:overlay">
<circle cx="263.316" cy="477.803" r="1.86462" transform="rotate(118.947 263.316 477.803)" fill="white"/>
</g>
<g style="mix-blend-mode:overlay">
<circle cx="307.87" cy="379.924" r="0.932792" transform="rotate(118.947 307.87 379.924)" fill="white"/>
</g>
<g style="mix-blend-mode:overlay">
<circle cx="292.733" cy="422.69" r="0.932792" transform="rotate(118.947 292.733 422.69)" fill="white"/>
</g>
<circle cx="363.142" cy="495.727" r="0.932792" transform="rotate(118.947 363.142 495.727)" fill="white"/>
<circle cx="365.22" cy="445.739" r="0.932792" transform="rotate(118.947 365.22 445.739)" fill="white"/>
<g style="mix-blend-mode:overlay">
<circle cx="593.789" cy="368.327" r="2.06695" transform="rotate(60.0765 593.789 368.327)" fill="white"/>
</g>
<g style="mix-blend-mode:overlay">
<circle cx="582.002" cy="412.073" r="1.03401" transform="rotate(60.0765 582.002 412.073)" fill="white"/>
</g>
<g style="mix-blend-mode:overlay">
<circle cx="670.156" cy="399.496" r="1.03401" transform="rotate(60.0765 670.156 399.496)" fill="white"/>
</g>
<g style="mix-blend-mode:overlay">
<circle cx="654.075" cy="504.146" r="1.03401" transform="rotate(60.0765 654.075 504.146)" fill="white"/>
</g>
<g style="mix-blend-mode:overlay">
<circle cx="572.005" cy="494.147" r="1.03401" transform="rotate(60.0765 572.005 494.147)" fill="white"/>
</g>
<g style="mix-blend-mode:overlay">
<circle cx="606.367" cy="456.478" r="2.06695" transform="rotate(60.0765 606.367 456.478)" fill="white"/>
</g>
<circle cx="688.787" cy="495.651" r="2.06695" transform="rotate(60.0765 688.787 495.651)" fill="white"/>
<g style="mix-blend-mode:overlay">
<circle cx="606.637" cy="504.5" r="2.06695" transform="rotate(60.0765 606.637 504.5)" fill="white"/>
</g>
<g style="mix-blend-mode:overlay">
<circle cx="539.011" cy="436.822" r="1.03401" transform="rotate(60.0765 539.011 436.822)" fill="white"/>
</g>
<g style="mix-blend-mode:overlay">
<circle cx="570.92" cy="475.69" r="1.03401" transform="rotate(60.0765 570.92 475.69)" fill="white"/>
</g>
<circle cx="648.148" cy="459.11" r="1.03401" transform="rotate(60.0765 648.148 459.11)" fill="white"/>
<g style="mix-blend-mode:overlay">
<circle cx="634.331" cy="420.116" r="1.03401" transform="rotate(60.0765 634.331 420.116)" fill="white"/>
</g>
</g>
<g opacity="0.7">
<g style="mix-blend-mode:overlay">
<circle cx="431.5" cy="258.647" r="1.68536" transform="rotate(113.954 431.5 258.647)" fill="white"/>
</g>
<circle cx="397.021" cy="271.915" r="0.843116" transform="rotate(113.954 397.021 271.915)" fill="white"/>
<g style="mix-blend-mode:overlay">
<circle cx="447.679" cy="323.929" r="0.843116" transform="rotate(113.954 447.679 323.929)" fill="white"/>
</g>
<circle cx="295.851" cy="321.091" r="0.843116" transform="rotate(113.954 295.851 321.091)" fill="white"/>
<g style="mix-blend-mode:overlay">
<circle cx="338.156" cy="304.777" r="0.843116" transform="rotate(113.954 338.156 304.777)" fill="white"/>
</g>
<g style="mix-blend-mode:overlay">
<circle cx="379.482" cy="309.305" r="1.68536" transform="rotate(113.954 379.482 309.305)" fill="white"/>
</g>
<circle cx="415.492" cy="321.607" r="1.68536" transform="rotate(113.954 415.492 321.607)" fill="white"/>
<g style="mix-blend-mode:overlay">
<circle cx="327.641" cy="347.135" r="1.68536" transform="rotate(113.954 327.641 347.135)" fill="white"/>
</g>
<g style="mix-blend-mode:overlay">
<circle cx="360.054" cy="255.493" r="0.843116" transform="rotate(113.954 360.054 255.493)" fill="white"/>
</g>
<circle cx="349.791" cy="295.192" r="0.843116" transform="rotate(113.954 349.791 295.192)" fill="white"/>
<circle cx="372.869" cy="334.308" r="0.843116" transform="rotate(113.954 372.869 334.308)" fill="white"/>
<g style="mix-blend-mode:overlay">
<circle cx="416.876" cy="310.241" r="0.843116" transform="rotate(113.954 416.876 310.241)" fill="white"/>
</g>
<g style="mix-blend-mode:overlay">
<circle cx="328.715" cy="248.286" r="1.70868" transform="rotate(-179.476 328.715 248.286)" fill="white"/>
</g>
<g style="mix-blend-mode:overlay">
<circle cx="302.467" cy="221.556" r="0.854782" transform="rotate(-179.476 302.467 221.556)" fill="white"/>
</g>
<g style="mix-blend-mode:overlay">
<circle cx="274.506" cy="289.655" r="0.854782" transform="rotate(-179.476 274.506 289.655)" fill="white"/>
</g>
<g style="mix-blend-mode:overlay">
<circle cx="206.666" cy="234.352" r="0.854782" transform="rotate(-179.476 206.666 234.352)" fill="white"/>
</g>
<circle cx="248.169" cy="180.052" r="0.854782" transform="rotate(-179.476 248.169 180.052)" fill="white"/>
<g style="mix-blend-mode:overlay">
<circle cx="260.621" cy="220.321" r="1.70868" transform="rotate(-179.476 260.621 220.321)" fill="white"/>
</g>
<g style="mix-blend-mode:overlay">
<circle cx="219.114" cy="274.623" r="1.70868" transform="rotate(-179.476 219.114 274.623)" fill="white"/>
</g>
<circle cx="204.531" cy="187.344" r="1.70868" transform="rotate(-179.476 204.531 187.344)" fill="white"/>
<circle cx="302.845" cy="180.554" r="0.854782" transform="rotate(-179.476 302.845 180.554)" fill="white"/>
<circle cx="261.778" cy="187.011" r="0.854782" transform="rotate(-179.476 261.778 187.011)" fill="white"/>
<g style="mix-blend-mode:overlay">
<circle cx="233.629" cy="275.609" r="0.854782" transform="rotate(-179.476 233.629 275.609)" fill="white"/>
</g>
<g style="mix-blend-mode:overlay">
<circle cx="274.82" cy="255.481" r="0.854782" transform="rotate(-179.476 274.82 255.481)" fill="white"/>
</g>
<circle cx="154.63" cy="82.7551" r="1.86462" transform="rotate(118.947 154.63 82.7551)" fill="white"/>
<g style="mix-blend-mode:overlay">
<circle cx="121.441" cy="83.7915" r="0.932792" transform="rotate(118.947 121.441 83.7915)" fill="white"/>
</g>
<circle cx="172.266" cy="145.998" r="0.932792" transform="rotate(118.947 172.266 145.998)" fill="white"/>
<g style="mix-blend-mode:overlay">
<circle cx="83.9532" cy="182.382" r="0.932792" transform="rotate(118.947 83.9532 182.382)" fill="white"/>
</g>
<g style="mix-blend-mode:overlay">
<circle cx="53.4017" cy="114.346" r="0.932792" transform="rotate(118.947 53.4017 114.346)" fill="white"/>
</g>
<g style="mix-blend-mode:overlay">
<circle cx="98.5164" cy="123.315" r="1.86462" transform="rotate(118.947 98.5164 123.315)" fill="white"/>
</g>
<circle cx="128.951" cy="204.311" r="1.86462" transform="rotate(118.947 128.951 204.311)" fill="white"/>
<g style="mix-blend-mode:overlay">
<circle cx="37.7283" cy="160.011" r="1.86462" transform="rotate(118.947 37.7283 160.011)" fill="white"/>
</g>
<g style="mix-blend-mode:overlay">
<circle cx="82.2828" cy="62.132" r="0.932792" transform="rotate(118.947 82.2828 62.132)" fill="white"/>
</g>
<g style="mix-blend-mode:overlay">
<circle cx="67.1456" cy="104.899" r="0.932792" transform="rotate(118.947 67.1456 104.899)" fill="white"/>
</g>
<circle cx="137.555" cy="177.935" r="0.932792" transform="rotate(118.947 137.555 177.935)" fill="white"/>
<circle cx="139.633" cy="127.947" r="0.932792" transform="rotate(118.947 139.633 127.947)" fill="white"/>
<g style="mix-blend-mode:overlay">
<circle cx="368.202" cy="50.5355" r="2.06695" transform="rotate(60.0765 368.202 50.5355)" fill="white"/>
</g>
<g style="mix-blend-mode:overlay">
<circle cx="356.414" cy="94.2809" r="1.03401" transform="rotate(60.0765 356.414 94.2809)" fill="white"/>
</g>
<g style="mix-blend-mode:overlay">
<circle cx="444.569" cy="81.7041" r="1.03401" transform="rotate(60.0765 444.569 81.7041)" fill="white"/>
</g>
<g style="mix-blend-mode:overlay">
<circle cx="428.487" cy="186.354" r="1.03401" transform="rotate(60.0765 428.487 186.354)" fill="white"/>
</g>
<g style="mix-blend-mode:overlay">
<circle cx="346.417" cy="176.355" r="1.03401" transform="rotate(60.0765 346.417 176.355)" fill="white"/>
</g>
<g style="mix-blend-mode:overlay">
<circle cx="380.779" cy="138.686" r="2.06695" transform="rotate(60.0765 380.779 138.686)" fill="white"/>
</g>
<circle cx="463.199" cy="177.859" r="2.06695" transform="rotate(60.0765 463.199 177.859)" fill="white"/>
<g style="mix-blend-mode:overlay">
<circle cx="381.05" cy="186.708" r="2.06695" transform="rotate(60.0765 381.05 186.708)" fill="white"/>
</g>
<g style="mix-blend-mode:overlay">
<circle cx="313.423" cy="119.03" r="1.03401" transform="rotate(60.0765 313.423 119.03)" fill="white"/>
</g>
<g style="mix-blend-mode:overlay">
<circle cx="345.333" cy="157.898" r="1.03401" transform="rotate(60.0765 345.333 157.898)" fill="white"/>
</g>
<circle cx="422.561" cy="141.318" r="1.03401" transform="rotate(60.0765 422.561 141.318)" fill="white"/>
<g style="mix-blend-mode:overlay">
<circle cx="408.744" cy="102.324" r="1.03401" transform="rotate(60.0765 408.744 102.324)" fill="white"/>
</g>
</g>
<g opacity="0.7">
<g style="mix-blend-mode:overlay">
<circle cx="851.343" cy="210.306" r="1.68536" transform="rotate(113.954 851.343 210.306)" fill="white"/>
</g>
<circle cx="816.865" cy="223.575" r="0.843116" transform="rotate(113.954 816.865 223.575)" fill="white"/>
<g style="mix-blend-mode:overlay">
<circle cx="867.522" cy="275.589" r="0.843116" transform="rotate(113.954 867.522 275.589)" fill="white"/>
</g>
<circle cx="715.695" cy="272.751" r="0.843116" transform="rotate(113.954 715.695 272.751)" fill="white"/>
<g style="mix-blend-mode:overlay">
<circle cx="758" cy="256.437" r="0.843116" transform="rotate(113.954 758 256.437)" fill="white"/>
</g>
<g style="mix-blend-mode:overlay">
<circle cx="799.326" cy="260.964" r="1.68536" transform="rotate(113.954 799.326 260.964)" fill="white"/>
</g>
<circle cx="835.336" cy="273.267" r="1.68536" transform="rotate(113.954 835.336 273.267)" fill="white"/>
<g style="mix-blend-mode:overlay">
<circle cx="747.484" cy="298.794" r="1.68536" transform="rotate(113.954 747.484 298.794)" fill="white"/>
</g>
<g style="mix-blend-mode:overlay">
<circle cx="779.898" cy="207.153" r="0.843116" transform="rotate(113.954 779.898 207.153)" fill="white"/>
</g>
<circle cx="769.635" cy="246.852" r="0.843116" transform="rotate(113.954 769.635 246.852)" fill="white"/>
<circle cx="792.713" cy="285.968" r="0.843116" transform="rotate(113.954 792.713 285.968)" fill="white"/>
<g style="mix-blend-mode:overlay">
<circle cx="836.719" cy="261.901" r="0.843116" transform="rotate(113.954 836.719 261.901)" fill="white"/>
</g>
<g style="mix-blend-mode:overlay">
<circle cx="748.559" cy="199.946" r="1.70868" transform="rotate(-179.476 748.559 199.946)" fill="white"/>
</g>
<g style="mix-blend-mode:overlay">
<circle cx="722.311" cy="173.215" r="0.854782" transform="rotate(-179.476 722.311 173.215)" fill="white"/>
</g>
<g style="mix-blend-mode:overlay">
<circle cx="694.349" cy="241.315" r="0.854782" transform="rotate(-179.476 694.349 241.315)" fill="white"/>
</g>
<g style="mix-blend-mode:overlay">
<circle cx="626.509" cy="186.012" r="0.854782" transform="rotate(-179.476 626.509 186.012)" fill="white"/>
</g>
<circle cx="668.012" cy="131.712" r="0.854782" transform="rotate(-179.476 668.012 131.712)" fill="white"/>
<g style="mix-blend-mode:overlay">
<circle cx="680.464" cy="171.981" r="1.70868" transform="rotate(-179.476 680.464 171.981)" fill="white"/>
</g>
<g style="mix-blend-mode:overlay">
<circle cx="638.958" cy="226.283" r="1.70868" transform="rotate(-179.476 638.958 226.283)" fill="white"/>
</g>
<circle cx="624.375" cy="139.004" r="1.70868" transform="rotate(-179.476 624.375 139.004)" fill="white"/>
<circle cx="722.688" cy="132.214" r="0.854782" transform="rotate(-179.476 722.688 132.214)" fill="white"/>
<circle cx="681.621" cy="138.671" r="0.854782" transform="rotate(-179.476 681.621 138.671)" fill="white"/>
<g style="mix-blend-mode:overlay">
<circle cx="653.473" cy="227.269" r="0.854782" transform="rotate(-179.476 653.473 227.269)" fill="white"/>
</g>
<g style="mix-blend-mode:overlay">
<circle cx="694.664" cy="207.14" r="0.854782" transform="rotate(-179.476 694.664 207.14)" fill="white"/>
</g>
<circle cx="574.473" cy="34.4149" r="1.86462" transform="rotate(118.947 574.473 34.4149)" fill="white"/>
<g style="mix-blend-mode:overlay">
<circle cx="541.284" cy="35.4513" r="0.932792" transform="rotate(118.947 541.284 35.4513)" fill="white"/>
</g>
<circle cx="592.109" cy="97.6579" r="0.932792" transform="rotate(118.947 592.109 97.6579)" fill="white"/>
<g style="mix-blend-mode:overlay">
<circle cx="503.797" cy="134.042" r="0.932792" transform="rotate(118.947 503.797 134.042)" fill="white"/>
</g>
<g style="mix-blend-mode:overlay">
<circle cx="473.245" cy="66.0055" r="0.932792" transform="rotate(118.947 473.245 66.0055)" fill="white"/>
</g>
<g style="mix-blend-mode:overlay">
<circle cx="518.36" cy="74.9752" r="1.86462" transform="rotate(118.947 518.36 74.9752)" fill="white"/>
</g>
<circle cx="548.794" cy="155.971" r="1.86462" transform="rotate(118.947 548.794 155.971)" fill="white"/>
<g style="mix-blend-mode:overlay">
<circle cx="457.572" cy="111.67" r="1.86462" transform="rotate(118.947 457.572 111.67)" fill="white"/>
</g>
<g style="mix-blend-mode:overlay">
<circle cx="502.126" cy="13.7918" r="0.932792" transform="rotate(118.947 502.126 13.7918)" fill="white"/>
</g>
<g style="mix-blend-mode:overlay">
<circle cx="486.989" cy="56.5584" r="0.932792" transform="rotate(118.947 486.989 56.5584)" fill="white"/>
</g>
<circle cx="557.398" cy="129.595" r="0.932792" transform="rotate(118.947 557.398 129.595)" fill="white"/>
<circle cx="559.476" cy="79.6071" r="0.932792" transform="rotate(118.947 559.476 79.6071)" fill="white"/>
<g style="mix-blend-mode:overlay">
<circle cx="788.045" cy="2.1953" r="2.06695" transform="rotate(60.0765 788.045 2.1953)" fill="white"/>
</g>
<g style="mix-blend-mode:overlay">
<circle cx="776.258" cy="45.9407" r="1.03401" transform="rotate(60.0765 776.258 45.9407)" fill="white"/>
</g>
<g style="mix-blend-mode:overlay">
<circle cx="864.412" cy="33.3639" r="1.03401" transform="rotate(60.0765 864.412 33.3639)" fill="white"/>
</g>
<g style="mix-blend-mode:overlay">
<circle cx="848.331" cy="138.014" r="1.03401" transform="rotate(60.0765 848.331 138.014)" fill="white"/>
</g>
<g style="mix-blend-mode:overlay">
<circle cx="766.261" cy="128.015" r="1.03401" transform="rotate(60.0765 766.261 128.015)" fill="white"/>
</g>
<g style="mix-blend-mode:overlay">
<circle cx="800.623" cy="90.3457" r="2.06695" transform="rotate(60.0765 800.623 90.3457)" fill="white"/>
</g>
<circle cx="883.043" cy="129.518" r="2.06695" transform="rotate(60.0765 883.043 129.518)" fill="white"/>
<g style="mix-blend-mode:overlay">
<circle cx="800.893" cy="138.368" r="2.06695" transform="rotate(60.0765 800.893 138.368)" fill="white"/>
</g>
<g style="mix-blend-mode:overlay">
<circle cx="733.267" cy="70.6898" r="1.03401" transform="rotate(60.0765 733.267 70.6898)" fill="white"/>
</g>
<g style="mix-blend-mode:overlay">
<circle cx="765.176" cy="109.558" r="1.03401" transform="rotate(60.0765 765.176 109.558)" fill="white"/>
</g>
<circle cx="842.404" cy="92.9781" r="1.03401" transform="rotate(60.0765 842.404 92.9781)" fill="white"/>
<g style="mix-blend-mode:overlay">
<circle cx="828.587" cy="53.9835" r="1.03401" transform="rotate(60.0765 828.587 53.9835)" fill="white"/>
</g>
</g>
<g opacity="0.7">
<g style="mix-blend-mode:overlay">
<circle cx="396.587" cy="538.841" r="1.68536" transform="rotate(113.954 396.587 538.841)" fill="white"/>
</g>
<circle cx="362.109" cy="552.109" r="0.843116" transform="rotate(113.954 362.109 552.109)" fill="white"/>
<g style="mix-blend-mode:overlay">
<circle cx="412.767" cy="604.123" r="0.843116" transform="rotate(113.954 412.767 604.123)" fill="white"/>
</g>
<circle cx="260.939" cy="601.285" r="0.843116" transform="rotate(113.954 260.939 601.285)" fill="white"/>
<g style="mix-blend-mode:overlay">
<circle cx="303.244" cy="584.971" r="0.843116" transform="rotate(113.954 303.244 584.971)" fill="white"/>
</g>
<g style="mix-blend-mode:overlay">
<circle cx="344.57" cy="589.499" r="1.68536" transform="rotate(113.954 344.57 589.499)" fill="white"/>
</g>
<circle cx="380.58" cy="601.801" r="1.68536" transform="rotate(113.954 380.58 601.801)" fill="white"/>
<g style="mix-blend-mode:overlay">
<circle cx="292.728" cy="627.329" r="1.68536" transform="rotate(113.954 292.728 627.329)" fill="white"/>
</g>
<g style="mix-blend-mode:overlay">
<circle cx="325.142" cy="535.688" r="0.843116" transform="rotate(113.954 325.142 535.688)" fill="white"/>
</g>
<circle cx="314.879" cy="575.386" r="0.843116" transform="rotate(113.954 314.879 575.386)" fill="white"/>
<circle cx="337.957" cy="614.502" r="0.843116" transform="rotate(113.954 337.957 614.502)" fill="white"/>
<g style="mix-blend-mode:overlay">
<circle cx="381.964" cy="590.435" r="0.843116" transform="rotate(113.954 381.964 590.435)" fill="white"/>
</g>
<g style="mix-blend-mode:overlay">
<circle cx="293.803" cy="528.48" r="1.70868" transform="rotate(-179.476 293.803 528.48)" fill="white"/>
</g>
<g style="mix-blend-mode:overlay">
<circle cx="267.555" cy="501.749" r="0.854782" transform="rotate(-179.476 267.555 501.749)" fill="white"/>
</g>
<g style="mix-blend-mode:overlay">
<circle cx="239.594" cy="569.849" r="0.854782" transform="rotate(-179.476 239.594 569.849)" fill="white"/>
</g>
<g style="mix-blend-mode:overlay">
<circle cx="171.753" cy="514.546" r="0.854782" transform="rotate(-179.476 171.753 514.546)" fill="white"/>
</g>
<circle cx="213.256" cy="460.246" r="0.854782" transform="rotate(-179.476 213.256 460.246)" fill="white"/>
<g style="mix-blend-mode:overlay">
<circle cx="225.708" cy="500.515" r="1.70868" transform="rotate(-179.476 225.708 500.515)" fill="white"/>
</g>
<g style="mix-blend-mode:overlay">
<circle cx="184.202" cy="554.817" r="1.70868" transform="rotate(-179.476 184.202 554.817)" fill="white"/>
</g>
<circle cx="169.619" cy="467.538" r="1.70868" transform="rotate(-179.476 169.619 467.538)" fill="white"/>
<circle cx="267.932" cy="460.748" r="0.854782" transform="rotate(-179.476 267.932 460.748)" fill="white"/>
<circle cx="226.865" cy="467.205" r="0.854782" transform="rotate(-179.476 226.865 467.205)" fill="white"/>
<g style="mix-blend-mode:overlay">
<circle cx="198.717" cy="555.803" r="0.854782" transform="rotate(-179.476 198.717 555.803)" fill="white"/>
</g>
<g style="mix-blend-mode:overlay">
<circle cx="239.908" cy="535.675" r="0.854782" transform="rotate(-179.476 239.908 535.675)" fill="white"/>
</g>
<circle cx="119.718" cy="362.949" r="1.86462" transform="rotate(118.947 119.718 362.949)" fill="white"/>
<g style="mix-blend-mode:overlay">
<circle cx="86.5282" cy="363.986" r="0.932792" transform="rotate(118.947 86.5282 363.986)" fill="white"/>
</g>
<circle cx="137.353" cy="426.192" r="0.932792" transform="rotate(118.947 137.353 426.192)" fill="white"/>
<g style="mix-blend-mode:overlay">
<circle cx="49.0409" cy="462.576" r="0.932792" transform="rotate(118.947 49.0409 462.576)" fill="white"/>
</g>
<g style="mix-blend-mode:overlay">
<circle cx="18.4894" cy="394.54" r="0.932792" transform="rotate(118.947 18.4894 394.54)" fill="white"/>
</g>
<g style="mix-blend-mode:overlay">
<circle cx="63.604" cy="403.509" r="1.86462" transform="rotate(118.947 63.604 403.509)" fill="white"/>
</g>
<circle cx="94.0384" cy="484.505" r="1.86462" transform="rotate(118.947 94.0384 484.505)" fill="white"/>
<g style="mix-blend-mode:overlay">
<circle cx="2.81595" cy="440.205" r="1.86462" transform="rotate(118.947 2.81595 440.205)" fill="white"/>
</g>
<g style="mix-blend-mode:overlay">
<circle cx="47.3705" cy="342.326" r="0.932792" transform="rotate(118.947 47.3705 342.326)" fill="white"/>
</g>
<g style="mix-blend-mode:overlay">
<circle cx="32.2332" cy="385.093" r="0.932792" transform="rotate(118.947 32.2332 385.093)" fill="white"/>
</g>
<circle cx="102.642" cy="458.129" r="0.932792" transform="rotate(118.947 102.642 458.129)" fill="white"/>
<circle cx="104.72" cy="408.141" r="0.932792" transform="rotate(118.947 104.72 408.141)" fill="white"/>
<g style="mix-blend-mode:overlay">
<circle cx="333.289" cy="330.729" r="2.06695" transform="rotate(60.0765 333.289 330.729)" fill="white"/>
</g>
<g style="mix-blend-mode:overlay">
<circle cx="321.502" cy="374.475" r="1.03401" transform="rotate(60.0765 321.502 374.475)" fill="white"/>
</g>
<g style="mix-blend-mode:overlay">
<circle cx="409.656" cy="361.898" r="1.03401" transform="rotate(60.0765 409.656 361.898)" fill="white"/>
</g>
<g style="mix-blend-mode:overlay">
<circle cx="393.575" cy="466.548" r="1.03401" transform="rotate(60.0765 393.575 466.548)" fill="white"/>
</g>
<g style="mix-blend-mode:overlay">
<circle cx="311.505" cy="456.549" r="1.03401" transform="rotate(60.0765 311.505 456.549)" fill="white"/>
</g>
<g style="mix-blend-mode:overlay">
<circle cx="345.867" cy="418.88" r="2.06695" transform="rotate(60.0765 345.867 418.88)" fill="white"/>
</g>
<circle cx="428.287" cy="458.053" r="2.06695" transform="rotate(60.0765 428.287 458.053)" fill="white"/>
<g style="mix-blend-mode:overlay">
<circle cx="346.137" cy="466.902" r="2.06695" transform="rotate(60.0765 346.137 466.902)" fill="white"/>
</g>
<g style="mix-blend-mode:overlay">
<circle cx="278.511" cy="399.224" r="1.03401" transform="rotate(60.0765 278.511 399.224)" fill="white"/>
</g>
<g style="mix-blend-mode:overlay">
<circle cx="310.42" cy="438.092" r="1.03401" transform="rotate(60.0765 310.42 438.092)" fill="white"/>
</g>
<circle cx="387.648" cy="421.512" r="1.03401" transform="rotate(60.0765 387.648 421.512)" fill="white"/>
<g style="mix-blend-mode:overlay">
<circle cx="373.831" cy="382.518" r="1.03401" transform="rotate(60.0765 373.831 382.518)" fill="white"/>
</g>
</g>
</svg>
