<svg width="59" height="13" viewBox="0 0 59 13" fill="none" xmlns="http://www.w3.org/2000/svg">
<path d="M23.8823 4.40379C23.8294 3.90858 23.6063 3.523 23.2132 3.24704C22.8238 2.97108 22.3172 2.83311 21.6935 2.83311C21.255 2.83311 20.8788 2.89926 20.565 3.03157C20.2513 3.16388 20.0112 3.34344 19.8449 3.57025C19.6785 3.79707 19.5935 4.05601 19.5897 4.34709C19.5897 4.58902 19.6445 4.79883 19.7541 4.9765C19.8676 5.15417 20.0207 5.30538 20.2135 5.43012C20.4063 5.55109 20.6199 5.65316 20.8542 5.73632C21.0886 5.81949 21.3249 5.88942 21.5631 5.94613L22.6518 6.2183C23.0903 6.32037 23.5118 6.45835 23.9163 6.63224C24.3246 6.80613 24.6894 7.02538 25.0107 7.29C25.3359 7.55461 25.5929 7.87404 25.7819 8.24828C25.971 8.62253 26.0655 9.06103 26.0655 9.5638C26.0655 10.2442 25.8916 10.8434 25.5438 11.3613C25.196 11.8754 24.6932 12.278 24.0354 12.5691C23.3814 12.8564 22.5894 13 21.6595 13C20.7559 13 19.9715 12.8602 19.3062 12.5804C18.6446 12.3007 18.1267 11.8924 17.7524 11.3556C17.382 10.8188 17.1816 10.1649 17.1514 9.39369H19.2211C19.2514 9.79818 19.3761 10.1346 19.5954 10.403C19.8146 10.6714 20.1001 10.8718 20.4516 11.0041C20.807 11.1364 21.2039 11.2025 21.6424 11.2025C22.0999 11.2025 22.5006 11.1345 22.8446 10.9984C23.1924 10.8585 23.4646 10.6657 23.6612 10.42C23.8577 10.1705 23.9579 9.87945 23.9617 9.54679C23.9579 9.24437 23.8691 8.99488 23.6952 8.79831C23.5213 8.59795 23.2774 8.43162 22.9637 8.29932C22.6537 8.16323 22.2908 8.04226 21.8749 7.93642L20.5537 7.59619C19.5973 7.35048 18.8412 6.97813 18.2855 6.47914C17.7335 5.97637 17.4576 5.30916 17.4576 4.47751C17.4576 3.79328 17.6428 3.19412 18.0133 2.68001C18.3875 2.1659 18.896 1.76708 19.5387 1.48356C20.1813 1.19627 20.909 1.05262 21.7218 1.05262C22.5459 1.05262 23.268 1.19627 23.888 1.48356C24.5117 1.76708 25.0013 2.16212 25.3566 2.66867C25.712 3.17144 25.8953 3.74981 25.9067 4.40379H23.8823Z" fill="#111827"/>
<path d="M33.4017 9.16121V4.1146H35.4545V12.8243H33.4641V11.2762H33.3734C33.1768 11.7639 32.8536 12.1627 32.4037 12.4727C31.9576 12.7827 31.4076 12.9377 30.7536 12.9377C30.1828 12.9377 29.6781 12.811 29.2396 12.5577C28.8048 12.3007 28.4646 11.9283 28.2189 11.4407C27.9731 10.9493 27.8503 10.3558 27.8503 9.6602V4.1146H29.903V9.34266C29.903 9.89457 30.0542 10.3331 30.3567 10.6582C30.6591 10.9833 31.056 11.1458 31.5475 11.1458C31.8499 11.1458 32.1429 11.0721 32.4264 10.9247C32.7099 10.7773 32.9424 10.558 33.1239 10.2669C33.3091 9.97207 33.4017 9.6035 33.4017 9.16121Z" fill="#111827"/>
<path d="M44.4494 6.41676L42.5781 6.62089C42.5252 6.43188 42.4326 6.25421 42.3002 6.08788C42.1717 5.92155 41.9978 5.78736 41.7785 5.68529C41.5593 5.58322 41.2909 5.53219 40.9733 5.53219C40.5461 5.53219 40.187 5.6248 39.8959 5.81004C39.6086 5.99527 39.4669 6.23531 39.4706 6.53017C39.4669 6.78345 39.5595 6.98947 39.7485 7.14824C39.9413 7.30701 40.2588 7.43742 40.7011 7.53949L42.1868 7.85703C43.0109 8.0347 43.6234 8.31633 44.0241 8.70191C44.4286 9.08749 44.6327 9.59216 44.6365 10.2159C44.6327 10.764 44.4721 11.2479 44.1545 11.6675C43.8407 12.0833 43.4041 12.4084 42.8446 12.6428C42.2851 12.8772 41.6425 12.9944 40.9166 12.9944C39.8506 12.9944 38.9924 12.7713 38.3422 12.3253C37.692 11.8754 37.3045 11.2498 37.1797 10.4484L39.1814 10.2556C39.2722 10.6487 39.465 10.9455 39.7598 11.1458C40.0547 11.3462 40.4384 11.4464 40.911 11.4464C41.3986 11.4464 41.7899 11.3462 42.0848 11.1458C42.3834 10.9455 42.5327 10.6979 42.5327 10.403C42.5327 10.1535 42.4363 9.9475 42.2435 9.78495C42.0545 9.6224 41.7596 9.49765 41.3589 9.4107L39.8732 9.09883C39.0378 8.92494 38.4197 8.63198 38.019 8.21993C37.6183 7.80411 37.4198 7.27866 37.4236 6.64358C37.4198 6.10678 37.5653 5.64182 37.8602 5.24867C38.1588 4.85175 38.5728 4.54555 39.1021 4.33008C39.6351 4.11082 40.2494 4.0012 40.945 4.0012C41.9657 4.0012 42.769 4.21856 43.355 4.65329C43.9447 5.08801 44.3095 5.67584 44.4494 6.41676Z" fill="#111827"/>
<path d="M48.3819 7.72094V12.8243H46.3292V1.21139H48.3365V5.59456H48.4386C48.6427 5.10313 48.9584 4.71566 49.3856 4.43214C49.8165 4.14485 50.3647 4.0012 51.03 4.0012C51.6349 4.0012 52.1623 4.12783 52.6121 4.38111C53.062 4.63438 53.4098 5.00485 53.6555 5.4925C53.905 5.98015 54.0298 6.57553 54.0298 7.27866V12.8243H51.977V7.59619C51.977 7.01026 51.8258 6.55474 51.5234 6.22964C51.2247 5.90076 50.8051 5.73632 50.2645 5.73632C49.9016 5.73632 49.5765 5.81571 49.2892 5.97448C49.0057 6.12947 48.7826 6.35439 48.6201 6.64925C48.4613 6.94411 48.3819 7.30134 48.3819 7.72094Z" fill="#111827"/>
<path d="M56.1222 12.8243V4.1146H58.1749V12.8243H56.1222ZM57.1542 2.87847C56.8291 2.87847 56.5494 2.77073 56.315 2.55526C56.0806 2.33601 55.9634 2.07328 55.9634 1.76708C55.9634 1.4571 56.0806 1.19438 56.315 0.978904C56.5494 0.759651 56.8291 0.650024 57.1542 0.650024C57.4831 0.650024 57.7629 0.759651 57.9935 0.978904C58.2279 1.19438 58.345 1.4571 58.345 1.76708C58.345 2.07328 58.2279 2.33601 57.9935 2.55526C57.7629 2.77073 57.4831 2.87847 57.1542 2.87847Z" fill="#111827"/>
<g clip-path="url(#clip0_1234_1287)">
<path fill-rule="evenodd" clip-rule="evenodd" d="M13.3557 8.27892L10.8199 11.8242C10.4506 12.3412 9.73045 12.5689 8.81332 12.4951C7.53915 12.3843 5.84646 11.7072 4.2277 10.5441C3.69984 10.1693 3.20115 9.75514 2.73593 9.305C1.87816 8.47195 1.2477 7.60528 0.910085 6.8325C0.540819 5.98317 0.528606 5.23232 0.897872 4.71534L3.43978 1.17001C3.80918 0.653035 4.52315 0.425337 5.44645 0.499136C6.72063 0.603792 8.40715 1.28701 10.0319 2.44415C11.6508 3.60745 12.8389 4.99228 13.3435 6.16175C13.3871 6.26208 13.4257 6.36096 13.4593 6.45839C13.7103 7.18521 13.6814 7.823 13.3557 8.27892Z" fill="#111827"/>
<path fill-rule="evenodd" clip-rule="evenodd" d="M12.9492 6.33452C12.463 5.22046 11.3242 3.90943 9.77319 2.80154C8.22824 1.69365 6.62182 1.03511 5.40923 0.936627C4.67057 0.875041 4.08581 1.01056 3.79048 1.42288L3.778 1.44744C3.50105 1.85989 3.56264 2.44463 3.85193 3.10934C4.3382 4.22957 5.47686 5.54047 7.02195 6.64836C8.56677 7.75626 10.1733 8.41491 11.3858 8.5134C12.1121 8.56868 12.6846 8.43948 12.9861 8.05172L13.0047 8.02097C13.3001 7.61469 13.2385 7.01157 12.9492 6.33452ZM10.678 6.35921C10.5426 6.54987 10.2656 6.60542 9.9271 6.57456C9.31765 6.52532 8.51753 6.19296 7.74197 5.63908C6.9664 5.08507 6.39399 4.43258 6.15394 3.87253C6.01855 3.55869 5.98165 3.28175 6.11704 3.09082C6.25256 2.90002 6.52951 2.84461 6.87408 2.8693C7.47723 2.92471 8.28365 3.25089 9.05304 3.8049C9.82861 4.35878 10.401 5.01732 10.6411 5.5775C10.7826 5.89134 10.8195 6.16828 10.678 6.35921Z" fill="#F2F2F2"/>
</g>
<defs>
<clipPath id="clip0_1234_1287">
<rect width="13.0005" height="13" fill="white" transform="translate(0.626953 -3.05176e-05)"/>
</clipPath>
</defs>
</svg>
