<svg width="151" height="356" viewBox="0 0 151 356" fill="none" xmlns="http://www.w3.org/2000/svg">
<path d="M224.795 -96C159.88 -96 0 64.528 0 129.713C0 194.898 159.88 355.429 224.795 355.429C289.71 355.429 449.593 194.895 449.593 129.713C449.593 64.5308 289.713 -96 224.795 -96ZM189.765 258.783C162.39 251.294 88.7918 122.026 96.2525 94.5395C103.713 67.0518 232.453 -6.84582 259.827 0.645218C287.203 8.13512 360.8 137.401 353.341 164.889C345.88 192.375 217.138 266.274 189.765 258.783Z" fill="#836EF9"/>
<path d="M224.795 -96C159.88 -96 0 64.528 0 129.713C0 194.898 159.88 355.429 224.795 355.429C289.71 355.429 449.593 194.895 449.593 129.713C449.593 64.5308 289.713 -96 224.795 -96ZM189.765 258.783C162.39 251.294 88.7918 122.026 96.2525 94.5395C103.713 67.0518 232.453 -6.84582 259.827 0.645218C287.203 8.13512 360.8 137.401 353.341 164.889C345.88 192.375 217.138 266.274 189.765 258.783Z" fill="white" fill-opacity="0.8"/>
</svg>
