<svg width="184" height="121" viewBox="0 0 184 121" fill="none" xmlns="http://www.w3.org/2000/svg">
<g filter="url(#filter0_d_7_421)">
<rect x="3" y="3" width="174" height="34" rx="8" fill="white" shape-rendering="crispEdges"/>
<rect x="11" y="8" width="24" height="24" rx="12" fill="#0B4AE1"/>
<path d="M19.4 18C19.2867 18 19.1917 17.9617 19.115 17.885C19.0383 17.8083 19 17.7133 19 17.6V16.4C19 16.2867 19.0383 16.1917 19.115 16.115C19.1917 16.0383 19.2867 16 19.4 16H20.6C20.7133 16 20.8083 16.0383 20.885 16.115C20.9617 16.1917 21 16.2867 21 16.4C21 16.5133 20.9617 16.6083 20.885 16.685C20.8083 16.7617 20.7133 16.8 20.6 16.8H19.8V17.6C19.8 17.7133 19.7617 17.8083 19.685 17.885C19.6083 17.9617 19.5133 18 19.4 18ZM19.4 24C19.2867 24 19.1917 23.9617 19.115 23.885C19.0383 23.8083 19 23.7133 19 23.6V22.4C19 22.2867 19.0383 22.1917 19.115 22.115C19.1917 22.0383 19.2867 22 19.4 22C19.5133 22 19.6083 22.0383 19.685 22.115C19.7617 22.1917 19.8 22.2867 19.8 22.4V23.2H20.6C20.7133 23.2 20.8083 23.2383 20.885 23.315C20.9617 23.3917 21 23.4867 21 23.6C21 23.7133 20.9617 23.8083 20.885 23.885C20.8083 23.9617 20.7133 24 20.6 24H19.4ZM25.4 24C25.2867 24 25.1917 23.9617 25.115 23.885C25.0383 23.8083 25 23.7133 25 23.6C25 23.4867 25.0383 23.3917 25.115 23.315C25.1917 23.2383 25.2867 23.2 25.4 23.2H26.2V22.4C26.2 22.2867 26.2383 22.1917 26.315 22.115C26.3917 22.0383 26.4867 22 26.6 22C26.7133 22 26.8083 22.0383 26.885 22.115C26.9617 22.1917 27 22.2867 27 22.4V23.6C27 23.7133 26.9617 23.8083 26.885 23.885C26.8083 23.9617 26.7133 24 26.6 24H25.4ZM26.6 18C26.4867 18 26.3917 17.9617 26.315 17.885C26.2383 17.8083 26.2 17.7133 26.2 17.6V16.8H25.4C25.2867 16.8 25.1917 16.7617 25.115 16.685C25.0383 16.6083 25 16.5133 25 16.4C25 16.2867 25.0383 16.1917 25.115 16.115C25.1917 16.0383 25.2867 16 25.4 16H26.6C26.7133 16 26.8083 16.0383 26.885 16.115C26.9617 16.1917 27 16.2867 27 16.4V17.6C27 17.7133 26.9617 17.8083 26.885 17.885C26.8083 17.9617 26.7133 18 26.6 18ZM25.2 22.8V22.2H25.8V22.8H25.2ZM25.2 21.6V21H25.8V21.6H25.2ZM24.6 22.2V21.6H25.2V22.2H24.6ZM24 22.8V22.2H24.6V22.8H24ZM23.4 22.2V21.6H24V22.2H23.4ZM24.6 21V20.4H25.2V21H24.6ZM24 21.6V21H24.6V21.6H24ZM23.4 21V20.4H24V21H23.4ZM23.8 19.6C23.6867 19.6 23.5917 19.5617 23.515 19.485C23.4383 19.4083 23.4 19.3133 23.4 19.2V17.6C23.4 17.4867 23.4383 17.3917 23.515 17.315C23.5917 17.2383 23.6867 17.2 23.8 17.2H25.4C25.5133 17.2 25.6083 17.2383 25.685 17.315C25.7617 17.3917 25.8 17.4867 25.8 17.6V19.2C25.8 19.3133 25.7617 19.4083 25.685 19.485C25.6083 19.5617 25.5133 19.6 25.4 19.6H23.8ZM20.6 22.8C20.4867 22.8 20.3917 22.7617 20.315 22.685C20.2383 22.6083 20.2 22.5133 20.2 22.4V20.8C20.2 20.6867 20.2383 20.5917 20.315 20.515C20.3917 20.4383 20.4867 20.4 20.6 20.4H22.2C22.3133 20.4 22.4083 20.4383 22.485 20.515C22.5617 20.5917 22.6 20.6867 22.6 20.8V22.4C22.6 22.5133 22.5617 22.6083 22.485 22.685C22.4083 22.7617 22.3133 22.8 22.2 22.8H20.6ZM20.6 19.6C20.4867 19.6 20.3917 19.5617 20.315 19.485C20.2383 19.4083 20.2 19.3133 20.2 19.2V17.6C20.2 17.4867 20.2383 17.3917 20.315 17.315C20.3917 17.2383 20.4867 17.2 20.6 17.2H22.2C22.3133 17.2 22.4083 17.2383 22.485 17.315C22.5617 17.3917 22.6 17.4867 22.6 17.6V19.2C22.6 19.3133 22.5617 19.4083 22.485 19.485C22.4083 19.5617 22.3133 19.6 22.2 19.6H20.6ZM20.8 22.2H22V21H20.8V22.2ZM20.8 19H22V17.8H20.8V19ZM24 19H25.2V17.8H24V19Z" fill="#E8EAED"/>
<path d="M44.888 20.136C44.888 20.928 44.656 21.624 44.24 22.144L44.88 22.784L44.32 23.344L43.656 22.68C43.224 22.96 42.688 23.12 42.08 23.12C40.352 23.12 39.272 21.856 39.272 20.136C39.272 18.416 40.352 17.16 42.08 17.16C43.8 17.16 44.888 18.416 44.888 20.136ZM42.08 22.304C42.464 22.304 42.784 22.216 43.048 22.064L42.272 21.288L42.832 20.728L43.6 21.504C43.832 21.128 43.936 20.648 43.936 20.136C43.936 18.984 43.392 17.976 42.08 17.976C40.768 17.976 40.216 18.984 40.216 20.136C40.216 21.296 40.768 22.304 42.08 22.304ZM45.6443 23V17.28H48.0843C49.2603 17.28 50.0203 17.88 50.0203 18.92C50.0203 19.72 49.6123 20.184 48.9563 20.344V20.36C50.2763 20.608 49.7963 22.848 50.1003 22.944V23H49.1003C48.8363 22.76 49.3723 20.792 47.9963 20.792H46.5963V23H45.6443ZM46.5963 18.088V19.976H47.8843C48.4683 19.976 49.0763 19.864 49.0763 19.032C49.0763 18.208 48.4683 18.088 47.8843 18.088H46.5963ZM56.3079 19.248C56.2039 18.672 55.8279 17.976 54.7719 17.976C53.5399 17.976 53.0519 19.008 53.0519 20.136C53.0519 21.272 53.5399 22.304 54.7719 22.304C55.8359 22.304 56.2439 21.608 56.3079 20.912H57.2599C57.1319 22.2 56.2519 23.12 54.7959 23.12C53.1479 23.12 52.1079 21.864 52.1079 20.136C52.1079 18.416 53.1479 17.16 54.7959 17.16C56.2439 17.16 57.1239 18.08 57.2599 19.248H56.3079ZM59.74 23.12C58.46 23.12 57.684 22.232 57.684 20.96C57.684 19.688 58.46 18.8 59.74 18.8C61.02 18.8 61.796 19.688 61.796 20.96C61.796 22.232 61.02 23.12 59.74 23.12ZM59.74 22.432C60.54 22.432 60.956 21.8 60.956 20.96C60.956 20.112 60.54 19.488 59.74 19.488C58.94 19.488 58.524 20.112 58.524 20.96C58.524 21.8 58.94 22.432 59.74 22.432ZM65.2486 17.28H66.0886V23H65.2486V22.528H65.2326C65.0166 22.808 64.6166 23.12 63.9846 23.12C62.9366 23.12 62.1606 22.304 62.1606 20.96C62.1606 19.616 62.9366 18.8 63.9846 18.8C64.6166 18.8 65.0166 19.096 65.2326 19.408H65.2486V17.28ZM64.1286 22.432C64.8166 22.432 65.2406 21.864 65.2406 20.96C65.2406 20.048 64.8166 19.488 64.1286 19.488C63.3926 19.488 63.0006 20.16 63.0006 20.96C63.0006 21.76 63.3926 22.432 64.1286 22.432ZM68.7002 22.432C69.3962 22.432 69.6762 22 69.7482 21.752H70.5882C70.3802 22.528 69.7722 23.12 68.7242 23.12C67.4522 23.12 66.6762 22.24 66.6762 20.96C66.6762 19.632 67.4522 18.8 68.6842 18.8C70.0042 18.8 70.6522 19.72 70.6522 21.176H67.5162C67.5162 21.864 67.9562 22.432 68.7002 22.432ZM68.6842 19.464C68.0042 19.464 67.5162 19.92 67.5162 20.552H69.8122C69.8122 19.92 69.3642 19.464 68.6842 19.464Z" fill="#1B1B1B"/>
</g>
<path d="M125.294 68.8439C125.216 68.3948 125.109 67.7797 125.002 66.8431C124.867 65.6651 124.654 65.1325 124.29 65.0632C124.2 65.0467 124.116 65.0599 124.041 65.0946C123.166 62.9638 122.508 62.5518 122.416 62.5029L122.415 62.5014L98.1212 49.3156C97.9393 49.1953 96.2668 48.1978 94.2876 50.5184C94.0163 50.8362 67.1109 82.5128 66.6614 84.0123C66.6597 84.018 66.6645 84.0235 66.6632 84.0292C66.6617 84.0354 66.6548 84.0382 66.6538 84.0446C66.6343 84.1712 66.1753 87.1537 66.4541 88.3393C66.7333 89.5242 68.1036 90.9821 68.1998 91.0839L54.8358 106.779C54.5816 107.147 54.3198 108.027 55.1498 108.729C56.0309 109.475 71.9761 120.085 72.6173 120.506C72.6254 120.514 73.1262 121.001 73.8902 121C74.3748 121 74.9653 120.805 75.6031 120.167C76.742 119.028 84.4786 109.187 88.2639 104.352C88.267 104.353 88.2673 104.358 88.2705 104.359C88.4071 104.423 91.6299 105.932 93.0612 106.273C93.36 106.344 93.6161 106.374 93.8342 106.374C94.6518 106.374 94.942 105.965 95.016 105.829C95.5405 105.165 109.114 87.9884 112.414 83.8952C112.898 83.2963 113.313 82.7741 113.675 82.3198C115.83 79.6143 116.009 79.3995 117.161 79.4455C118.8 79.528 119.199 78.7412 119.195 78.7412C120.164 77.4825 124.921 71.2818 125.303 70.3906L125.305 70.3894L125.305 70.3857C125.312 70.3694 125.328 70.3417 125.332 70.3292C125.472 69.8659 125.416 69.5457 125.294 68.8439ZM121.798 62.7196C121.245 63.052 120.207 63.7468 119.36 64.7242C118.222 66.0369 94.4222 96.3302 92.3167 99.0106C91.6206 98.7207 88.845 97.5382 85.3109 95.7062C85.6724 94.0949 84.5414 93.3269 84.5292 93.3188C84.2926 93.168 78.7188 89.5989 77.6741 89.1446C76.6265 88.6904 75.5137 89.4493 75.2677 89.6326C72.8737 87.9093 70.6262 86.016 68.8395 84.0095L95.403 52.1204C95.8962 51.5394 97.2772 50.038 97.9686 49.7853L121.798 62.7196ZM84.8668 95.4739C82.03 93.9859 78.7584 92.0995 75.6902 89.9312C76.0281 89.7118 76.8032 89.2973 77.4806 89.5904C78.4902 90.0285 84.2096 93.6915 84.2665 93.7276C84.3026 93.751 85.0729 94.2905 84.8668 95.4739ZM94.6575 50.8333C95.8696 49.4121 96.8835 49.3903 97.4267 49.5346C96.4696 50.1376 95.1996 51.6096 95.0312 51.8079L68.3336 83.8587C68.2567 83.9507 68.2586 84.0844 68.3373 84.1741C72.5902 89.0293 79.5262 93.2336 84.8457 96.0098C84.8754 96.0496 84.9088 96.0886 84.9598 96.1045C84.9835 96.1111 85.0077 96.1149 85.0309 96.1149C85.0346 96.1149 85.0374 96.1118 85.041 96.1116C89.1398 98.2398 92.2329 99.5019 92.3033 99.5304C92.3328 99.5427 92.3641 99.5484 92.3944 99.5484C92.4675 99.5484 92.5386 99.5152 92.5851 99.4554C92.845 99.1253 118.57 66.3774 119.727 65.0419C120.195 64.5019 120.729 64.0543 121.201 63.7074L92.0985 100.381C72.273 90.9381 67.7265 84.8963 67.1688 84.0626C68.3326 81.9565 89.9834 56.3126 94.6575 50.8333ZM75.2598 119.824C73.9651 121.118 72.9996 120.2 72.9237 120.132C72.7577 120.021 56.3235 109.086 55.4637 108.359C54.7779 107.778 55.1872 107.127 55.2204 107.075L69.9894 89.7314C72.1495 91.5716 78.6349 96.617 89.8367 101.552C88.6222 103.108 76.6559 118.428 75.2598 119.824ZM119.409 77.6684C118.876 77.4194 117.314 76.9881 115.139 78.9999C113.541 80.4779 103.533 93.3296 97.928 100.616C95.6626 103.56 94.9804 104.794 94.8038 105.315C94.6926 105.455 94.6293 105.535 94.6205 105.546C94.6091 105.561 94.5968 105.584 94.5882 105.601C94.5874 105.604 94.3591 106.023 93.3452 105.832C92.9883 103.029 94.639 101.065 94.666 101.034C94.8737 100.76 115.495 73.6266 118.036 70.5488C120.17 67.9693 123.921 69.8667 124.783 70.3549C124.265 71.2456 121.505 74.9265 119.409 77.6684ZM124.921 69.8772C123.82 69.2755 119.957 67.4635 117.663 70.2396C115.113 73.3249 94.4877 100.466 94.2895 100.727C94.2149 100.813 92.5567 102.792 92.8508 105.712C91.487 105.303 89.0522 104.186 88.5692 103.962C89.493 102.781 90.1262 101.97 90.2929 101.756C90.3685 101.789 90.4375 101.822 90.5136 101.855C90.5449 101.868 90.5781 101.875 90.6103 101.875C90.7043 101.875 90.7934 101.82 90.8333 101.729C90.8863 101.606 90.8294 101.462 90.7071 101.409C76.3538 95.2015 69.5689 88.7149 69.5021 88.6504C69.4063 88.5574 69.2526 88.5613 69.1587 88.6561C69.0658 88.7519 69.0681 88.9055 69.1644 88.9994C69.1739 89.0088 69.3365 89.1617 69.6221 89.4134L68.517 90.7114C68.3105 90.4888 67.1579 89.2102 66.9265 88.2274C66.7415 87.4398 66.9281 85.6734 67.0486 84.7347C68.3614 86.4529 73.7372 92.1774 91.9259 100.836V104.726C91.9259 104.86 92.0349 104.969 92.1687 104.969C92.3024 104.969 92.4115 104.86 92.4115 104.726V100.769L122.334 63.0615C122.578 63.3124 123.092 63.9815 123.722 65.6039C123.756 65.6916 123.838 65.7509 123.932 65.7571C124.045 65.7614 124.116 65.7134 124.162 65.6314C124.173 65.6101 124.191 65.5859 124.207 65.5674C124.269 65.656 124.412 65.9548 124.52 66.8981C124.628 67.8484 124.736 68.4716 124.816 68.9269C124.896 69.3859 124.937 69.6432 124.921 69.8772Z" fill="#0B4AE1"/>
<path d="M94.7872 53.7844L81.5535 69.4003L104.055 82.644C104.311 82.7948 104.639 82.7333 104.823 82.4998L117.263 66.7375C117.489 66.4512 117.406 66.0309 117.089 65.8512L95.5342 53.6513C95.2855 53.5106 94.9719 53.5664 94.7872 53.7844ZM104.773 82.0489L82.9087 69.1293L94.6539 55.1254L116.428 67.4126L104.773 82.0489Z" fill="#0B4AE1"/>
<path d="M100.646 84.0483L81.1216 72.7178C80.6369 72.4371 80.0095 72.5556 79.6624 72.9962L78.5527 74.3999C78.3516 74.6546 78.269 74.9842 78.3264 75.3038C78.3838 75.6234 78.5759 75.9037 78.8533 76.0726L98.0632 87.7487C98.2444 87.8588 98.4473 87.9119 98.6494 87.9119C98.9813 87.9119 99.3095 87.7677 99.5324 87.4955L100.956 85.7456C101.167 85.4876 101.253 85.1523 101.193 84.8251C101.133 84.4984 100.934 84.2152 100.646 84.0483ZM79.1056 75.6576C78.9467 75.5609 78.8372 75.4006 78.8045 75.218C78.7713 75.0349 78.8187 74.8467 78.9339 74.7011L80.0437 73.2973C80.1698 73.1376 80.3604 73.0512 80.5544 73.0512C80.6649 73.0512 80.7768 73.0792 80.8778 73.138L83.7516 74.8056C83.2089 75.0633 82.3073 75.7275 81.8033 77.2973L79.1056 75.6576ZM82.2987 77.5984L84.3343 75.1438L88.0717 77.3126C87.5265 77.5627 86.5752 78.235 86.066 79.8881L82.2987 77.5984ZM86.54 80.1762L88.6409 77.6429L92.4311 79.8423C91.8811 80.089 90.8841 80.7713 90.3754 82.5073L86.54 80.1762ZM90.8245 82.7803L92.9914 80.1674L96.7354 82.3401C96.1696 82.5976 95.1483 83.298 94.6561 85.1091L90.8245 82.7803ZM98.4114 87.37C98.3795 87.357 98.3457 87.3518 98.3155 87.3333L95.0692 85.3602L97.3016 82.6687L100.403 84.4684C100.499 84.5239 100.57 84.6057 100.625 84.698C100.163 84.8611 98.9946 85.4649 98.4114 87.37Z" fill="#0B4AE1"/>
<path d="M97.2823 87.911L77.7575 76.5806C77.2737 76.2994 76.6468 76.4179 76.2982 76.858L75.1885 78.2622C74.9874 78.5169 74.9049 78.8465 74.9623 79.1661C75.0201 79.4862 75.2122 79.766 75.4896 79.9348L94.6986 91.611C94.8807 91.7211 95.0837 91.7742 95.2857 91.7742C95.6186 91.7742 95.9468 91.63 96.1687 91.3588L97.5933 89.6079C97.8029 89.3499 97.8893 89.0141 97.8295 88.6869C97.7688 88.3606 97.5697 88.077 97.2823 87.911ZM75.7419 79.5194C75.5831 79.4231 75.473 79.2633 75.4403 79.0803C75.4076 78.8972 75.4546 78.709 75.5698 78.5634L76.6795 77.1596C76.8782 76.9083 77.2363 76.8395 77.5137 77.0007L80.3875 78.6683C79.8451 78.9259 78.9438 79.5896 78.4395 81.1591L75.7419 79.5194ZM78.9351 81.4604L80.9702 79.0064L84.7078 81.175C84.1624 81.4252 83.2112 82.0975 82.7023 83.7503L78.9351 81.4604ZM83.1763 84.0384L85.277 81.5054L89.0674 83.7046C88.5175 83.9514 87.5204 84.634 87.0119 86.3699L83.1763 84.0384ZM87.4605 86.6425L89.6277 84.0297L93.372 86.2022C92.8062 86.4598 91.7847 87.1602 91.2924 88.9718L87.4605 86.6425ZM95.0475 91.2327C95.0153 91.2196 94.9814 91.2143 94.9509 91.1956L91.7052 89.2227L93.9378 86.5306L97.0394 88.3303C97.135 88.386 97.2062 88.4678 97.2619 88.5602C96.7992 88.7232 95.6301 89.327 95.0475 91.2327Z" fill="#0B4AE1"/>
<path d="M94.1642 92.0217L74.6403 80.6912C74.1561 80.41 73.5282 80.53 73.1806 80.9686L72.0713 82.3729C71.8698 82.6275 71.7873 82.9576 71.8447 83.2772C71.9025 83.5969 72.0946 83.8767 72.372 84.0455L91.5815 95.7217C91.7636 95.8327 91.9675 95.8858 92.1686 95.8858C92.5015 95.8858 92.8287 95.7406 93.0497 95.4694L94.4762 93.7185C94.6858 93.4615 94.7712 93.1257 94.7114 92.7985C94.6507 92.4713 94.4515 92.1877 94.1642 92.0217ZM72.6243 83.63C72.4654 83.5338 72.3559 83.374 72.3227 83.1914C72.29 83.0084 72.3369 82.8196 72.4526 82.6735L73.5619 81.2703C73.7601 81.0189 74.1196 80.9497 74.3965 81.1114L77.2703 82.7789C76.7278 83.0366 75.8266 83.7005 75.3225 85.2701L72.6243 83.63ZM75.8178 85.5712L77.853 83.117L81.5907 85.2859C81.0456 85.5359 80.0944 86.2081 79.585 87.861L75.8178 85.5712ZM80.0588 88.149L82.1594 85.6159L85.9502 87.8155C85.4003 88.062 84.4029 88.7445 83.8947 90.4806L80.0588 88.149ZM84.3433 90.7533L86.51 88.1404L90.2543 90.3131C89.6882 90.5707 88.6669 91.2712 88.1752 93.0825L84.3433 90.7533ZM91.9297 95.3429C91.8978 95.33 91.8639 95.3247 91.8338 95.3062L88.5878 93.3332L90.8204 90.6415L93.9213 92.4409C94.0167 92.4966 94.0879 92.5785 94.1435 92.6709C93.681 92.8341 92.5127 93.438 91.9297 95.3429Z" fill="#0B4AE1"/>
<path d="M61.292 103.301C60.8284 102.919 60.1432 102.986 59.7617 103.45L57.5744 106.108C57.1928 106.572 57.2594 107.257 57.7231 107.638L59.5253 109.121C59.9889 109.503 60.6741 109.436 61.0556 108.972L63.2429 106.314C63.6244 105.851 63.5578 105.165 63.0942 104.784L61.292 103.301Z" fill="#0B4AE1"/>
<defs>
<filter id="filter0_d_7_421" x="0.788945" y="0.788945" width="182.844" height="42.8442" filterUnits="userSpaceOnUse" color-interpolation-filters="sRGB">
<feFlood flood-opacity="0" result="BackgroundImageFix"/>
<feColorMatrix in="SourceAlpha" type="matrix" values="0 0 0 0 0 0 0 0 0 0 0 0 0 0 0 0 0 0 127 0" result="hardAlpha"/>
<feOffset dx="2.21106" dy="2.21106"/>
<feGaussianBlur stdDeviation="2.21106"/>
<feComposite in2="hardAlpha" operator="out"/>
<feColorMatrix type="matrix" values="0 0 0 0 0.904167 0 0 0 0 0.904167 0 0 0 0 0.904167 0 0 0 1 0"/>
<feBlend mode="normal" in2="BackgroundImageFix" result="effect1_dropShadow_7_421"/>
<feBlend mode="normal" in="SourceGraphic" in2="effect1_dropShadow_7_421" result="shape"/>
</filter>
</defs>
</svg>
