<svg width="182" height="118" viewBox="0 0 182 118" fill="none" xmlns="http://www.w3.org/2000/svg">
<g filter="url(#filter0_d_7_398)">
<rect x="2" y="2" width="174" height="34" rx="8" fill="white" shape-rendering="crispEdges"/>
<g clip-path="url(#clip0_7_398)">
<rect width="24" height="24" transform="translate(10 7)" fill="white"/>
<path d="M22 31C28.65 31 34 25.65 34 19C34 12.35 28.65 7 22 7C15.35 7 10 12.35 10 19C10 25.65 15.35 31 22 31Z" fill="#2775CA"/>
<path d="M25.3005 20.8996C25.3005 19.1497 24.2505 18.5496 22.1505 18.2997C20.6505 18.0996 20.3505 17.6997 20.3505 16.9996C20.3505 16.2995 20.8506 15.8496 21.8505 15.8496C22.7505 15.8496 23.2506 16.1496 23.5005 16.8996C23.5506 17.0496 23.7006 17.1496 23.8506 17.1496H24.6505C24.8505 17.1496 25.0005 16.9996 25.0005 16.7997V16.7496C24.8005 15.6496 23.9005 14.7996 22.7505 14.6997V13.4997C22.7505 13.2996 22.6005 13.1496 22.3506 13.0996H21.6006C21.4005 13.0996 21.2505 13.2496 21.2005 13.4997V14.6496C19.7005 14.8497 18.7506 15.8496 18.7506 17.0997C18.7506 18.7497 19.7505 19.3996 21.8505 19.6497C23.2506 19.8997 23.7006 20.1997 23.7006 20.9997C23.7006 21.7997 23.0005 22.3497 22.0506 22.3497C20.7505 22.3497 20.3005 21.7996 20.1505 21.0496C20.1006 20.8497 19.9506 20.7496 19.8006 20.7496H18.9505C18.7506 20.7496 18.6006 20.8996 18.6006 21.0997V21.1497C18.8005 22.3996 19.6005 23.2996 21.2505 23.5497V24.7497C21.2505 24.9496 21.4005 25.0996 21.6505 25.1497H22.4005C22.6005 25.1497 22.7505 24.9997 22.8006 24.7497V23.5497C24.3006 23.2996 25.3005 22.2496 25.3005 20.8996Z" fill="white"/>
<path d="M19.45 26.1499C15.55 24.75 13.55 20.4 15 16.5499C15.75 14.4499 17.4 12.85 19.45 12.1C19.65 12 19.75 11.85 19.75 11.5999V10.9C19.75 10.6999 19.65 10.5499 19.45 10.5C19.4 10.5 19.3 10.5 19.25 10.5499C14.5 12.0499 11.9 17.1 13.4 21.85C14.3 24.6499 16.45 26.8 19.25 27.7C19.45 27.7999 19.65 27.7 19.7 27.4999C19.75 27.45 19.75 27.4 19.75 27.3V26.5999C19.75 26.4499 19.6 26.25 19.45 26.1499ZM24.75 10.5499C24.55 10.45 24.35 10.5499 24.3 10.75C24.25 10.8 24.25 10.8499 24.25 10.95V11.65C24.25 11.85 24.4 12.0499 24.55 12.15C28.45 13.5499 30.45 17.8999 29 21.75C28.25 23.85 26.6 25.45 24.55 26.2C24.35 26.2999 24.25 26.4499 24.25 26.7V27.4C24.25 27.6 24.35 27.75 24.55 27.7999C24.6 27.7999 24.7 27.7999 24.75 27.75C29.5 26.25 32.1 21.1999 30.6 16.45C29.7 13.6 27.5 11.4499 24.75 10.5499Z" fill="white"/>
</g>
<path d="M42.92 15.5813C42.92 16.8293 42.256 17.6533 40.664 17.6533C39.072 17.6533 38.408 16.8293 38.408 15.5813V11.8133H39.36V15.5813C39.36 16.4453 39.792 16.8373 40.664 16.8373C41.544 16.8373 41.976 16.4453 41.976 15.5813V11.8133H42.92V15.5813ZM46.0544 14.1253C47.2784 14.4373 48.2064 14.7013 48.2064 15.9813C48.2064 16.8933 47.5184 17.6533 46.0784 17.6533C44.6784 17.6533 43.6144 16.9253 43.5584 15.6293H44.5104C44.5584 16.3573 45.0544 16.8373 46.0784 16.8373C46.9264 16.8373 47.2544 16.4613 47.2544 16.0213C47.2544 15.3413 46.7664 15.2133 45.6384 14.9333C44.7424 14.7093 43.7744 14.3653 43.7744 13.2773C43.7744 12.2613 44.5584 11.6933 45.8064 11.6933C47.0624 11.6933 47.9744 12.3493 48.0544 13.5253H47.1024C47.0144 12.8613 46.5984 12.5093 45.8064 12.5093C45.1264 12.5093 44.7184 12.7653 44.7184 13.1893C44.7184 13.8133 45.2544 13.9253 46.0544 14.1253ZM48.9489 17.5333V11.8133H51.1729C52.7489 11.8133 53.7169 12.8373 53.7169 14.6773C53.7169 16.5173 52.7809 17.5333 51.1969 17.5333H48.9489ZM49.9009 12.6213V16.7253H51.1249C52.4049 16.7253 52.7649 15.7733 52.7649 14.6773C52.7649 13.5813 52.4049 12.6213 51.1249 12.6213H49.9009ZM58.4642 13.7813C58.3602 13.2053 57.9842 12.5093 56.9282 12.5093C55.6962 12.5093 55.2082 13.5413 55.2082 14.6693C55.2082 15.8053 55.6962 16.8373 56.9282 16.8373C57.9922 16.8373 58.4002 16.1413 58.4642 15.4453H59.4162C59.2882 16.7333 58.4082 17.6533 56.9522 17.6533C55.3042 17.6533 54.2642 16.3973 54.2642 14.6693C54.2642 12.9493 55.3042 11.6933 56.9522 11.6933C58.4002 11.6933 59.2802 12.6133 59.4162 13.7813H58.4642Z" fill="#1B1B1B"/>
<path d="M38.942 24.7907H38.27C38.27 23.8967 38.75 23.2307 39.812 23.2307C40.58 23.2307 41.186 23.6867 41.186 24.4787C41.186 25.7987 39.416 26.0207 39.074 26.8667V26.8787H41.144V27.4667H38.168C38.168 26.7347 38.606 26.2007 39.242 25.7987C40.004 25.2947 40.49 25.0967 40.49 24.5087C40.49 24.1667 40.328 23.8247 39.794 23.8247C39.176 23.8247 38.942 24.2207 38.942 24.7907ZM43.2944 27.5567C42.1244 27.5567 41.6264 26.5727 41.6264 25.3967C41.6264 24.2207 42.1244 23.2307 43.2944 23.2307C44.4644 23.2307 44.9624 24.2207 44.9624 25.3967C44.9624 26.5727 44.4644 27.5567 43.2944 27.5567ZM43.2944 26.9627C44.0264 26.9627 44.2664 26.2607 44.2664 25.3967C44.2664 24.5327 44.0264 23.8247 43.2944 23.8247C42.5624 23.8247 42.3164 24.5327 42.3164 25.3967C42.3164 26.2607 42.5624 26.9627 43.2944 26.9627ZM47.0796 27.5567C45.9096 27.5567 45.4116 26.5727 45.4116 25.3967C45.4116 24.2207 45.9096 23.2307 47.0796 23.2307C48.2496 23.2307 48.7476 24.2207 48.7476 25.3967C48.7476 26.5727 48.2496 27.5567 47.0796 27.5567ZM47.0796 26.9627C47.8116 26.9627 48.0516 26.2607 48.0516 25.3967C48.0516 24.5327 47.8116 23.8247 47.0796 23.8247C46.3476 23.8247 46.1016 24.5327 46.1016 25.3967C46.1016 26.2607 46.3476 26.9627 47.0796 26.9627ZM52.6588 26.0027C52.6588 26.9387 52.1608 27.5567 50.9668 27.5567C49.7728 27.5567 49.2748 26.9387 49.2748 26.0027V23.1767H49.9888V26.0027C49.9888 26.6507 50.3128 26.9447 50.9668 26.9447C51.6268 26.9447 51.9508 26.6507 51.9508 26.0027V23.1767H52.6588V26.0027ZM55.0096 24.9107C55.9276 25.1447 56.6236 25.3427 56.6236 26.3027C56.6236 26.9867 56.1076 27.5567 55.0276 27.5567C53.9776 27.5567 53.1796 27.0107 53.1376 26.0387H53.8516C53.8876 26.5847 54.2596 26.9447 55.0276 26.9447C55.6636 26.9447 55.9096 26.6627 55.9096 26.3327C55.9096 25.8227 55.5436 25.7267 54.6976 25.5167C54.0256 25.3487 53.2996 25.0907 53.2996 24.2747C53.2996 23.5127 53.8876 23.0867 54.8236 23.0867C55.7656 23.0867 56.4496 23.5787 56.5096 24.4607H55.7956C55.7296 23.9627 55.4176 23.6987 54.8236 23.6987C54.3136 23.6987 54.0076 23.8907 54.0076 24.2087C54.0076 24.6767 54.4096 24.7607 55.0096 24.9107ZM57.1805 27.4667V23.1767H58.8485C60.0305 23.1767 60.7565 23.9447 60.7565 25.3247C60.7565 26.7047 60.0545 27.4667 58.8665 27.4667H57.1805ZM57.8945 23.7827V26.8607H58.8125C59.7725 26.8607 60.0425 26.1467 60.0425 25.3247C60.0425 24.5027 59.7725 23.7827 58.8125 23.7827H57.8945ZM64.3169 24.6527C64.2389 24.2207 63.9569 23.6987 63.1649 23.6987C62.2409 23.6987 61.8749 24.4727 61.8749 25.3187C61.8749 26.1707 62.2409 26.9447 63.1649 26.9447C63.9629 26.9447 64.2689 26.4227 64.3169 25.9007H65.0309C64.9349 26.8667 64.2749 27.5567 63.1829 27.5567C61.9469 27.5567 61.1669 26.6147 61.1669 25.3187C61.1669 24.0287 61.9469 23.0867 63.1829 23.0867C64.2689 23.0867 64.9289 23.7767 65.0309 24.6527H64.3169Z" fill="#A19F9F"/>
</g>
<g filter="url(#filter1_d_7_398)">
<rect x="2" y="40" width="174" height="34" rx="8" fill="#0B4AE1" shape-rendering="crispEdges"/>
<rect width="24" height="24" transform="translate(10 45)" fill="#0B4AE1"/>
<path d="M18.9014 60.9499C18.7397 60.9499 18.6042 60.8953 18.4949 60.7859C18.3855 60.6765 18.3308 60.541 18.3308 60.3793L18.3237 54.1901L17.2538 55.26C17.1491 55.3646 17.0184 55.4169 16.8614 55.4169C16.7045 55.4169 16.569 55.3646 16.4549 55.26C16.3408 55.1459 16.2837 55.0103 16.2837 54.8534C16.2837 54.6965 16.3408 54.561 16.4549 54.4468L18.4949 52.4069C18.5519 52.3498 18.6137 52.3094 18.6803 52.2856C18.7469 52.2618 18.8182 52.2499 18.8943 52.2499C18.9704 52.2499 19.0417 52.2618 19.1083 52.2856C19.1748 52.3094 19.2367 52.3498 19.2937 52.4069L21.348 54.4611C21.4621 54.5752 21.5168 54.7084 21.512 54.8605C21.5073 55.0127 21.4478 55.1459 21.3337 55.26C21.2196 55.3646 21.0864 55.4193 20.9343 55.424C20.7821 55.4288 20.649 55.3741 20.5348 55.26L19.4649 54.1901L19.472 60.3793C19.472 60.541 19.4174 60.6765 19.308 60.7859C19.1986 60.8953 19.0631 60.9499 18.9014 60.9499Z" fill="#E8EAED"/>
<path d="M23.9302 52.2499C23.7685 52.2499 23.633 52.3046 23.5236 52.414C23.4143 52.5234 23.3596 52.6589 23.3596 52.8206L23.3524 59.0098L22.2825 57.9399C22.1779 57.8353 22.0471 57.783 21.8902 57.783C21.7333 57.783 21.5978 57.8353 21.4837 57.9399C21.3695 58.054 21.3125 58.1895 21.3125 58.3465C21.3125 58.5034 21.3695 58.6389 21.4837 58.753L23.5236 60.793C23.5807 60.8501 23.6425 60.8905 23.7091 60.9143C23.7757 60.9381 23.847 60.9499 23.9231 60.9499C23.9991 60.9499 24.0705 60.9381 24.137 60.9143C24.2036 60.8905 24.2654 60.8501 24.3225 60.793L26.3767 58.7388C26.4909 58.6246 26.5456 58.4915 26.5408 58.3393C26.536 58.1872 26.4766 58.054 26.3625 57.9399C26.2484 57.8353 26.1152 57.7806 25.963 57.7758C25.8109 57.7711 25.6777 57.8258 25.5636 57.9399L24.4937 59.0098L24.5008 52.8206C24.5008 52.6589 24.4461 52.5234 24.3368 52.414C24.2274 52.3046 24.0919 52.2499 23.9302 52.2499Z" fill="#E8EAED"/>
<path d="M39.592 54.472H40.336V60H39.408V55.992C39.08 56.312 38.712 56.312 38.248 56.312V55.648C39.248 55.648 39.536 55.152 39.592 54.472ZM45.8419 58.048C45.8419 59.296 45.1779 60.12 43.5859 60.12C41.9939 60.12 41.3299 59.296 41.3299 58.048V54.28H42.2819V58.048C42.2819 58.912 42.7139 59.304 43.5859 59.304C44.4659 59.304 44.8979 58.912 44.8979 58.048V54.28H45.8419V58.048ZM48.9763 56.592C50.2003 56.904 51.1283 57.168 51.1283 58.448C51.1283 59.36 50.4403 60.12 49.0003 60.12C47.6003 60.12 46.5363 59.392 46.4803 58.096H47.4323C47.4803 58.824 47.9763 59.304 49.0003 59.304C49.8483 59.304 50.1763 58.928 50.1763 58.488C50.1763 57.808 49.6883 57.68 48.5603 57.4C47.6643 57.176 46.6963 56.832 46.6963 55.744C46.6963 54.728 47.4803 54.16 48.7283 54.16C49.9843 54.16 50.8963 54.816 50.9763 55.992H50.0243C49.9363 55.328 49.5203 54.976 48.7283 54.976C48.0483 54.976 47.6403 55.232 47.6403 55.656C47.6403 56.28 48.1763 56.392 48.9763 56.592ZM51.8708 60V54.28H54.0948C55.6708 54.28 56.6388 55.304 56.6388 57.144C56.6388 58.984 55.7028 60 54.1188 60H51.8708ZM52.8228 55.088V59.192H54.0468C55.3268 59.192 55.6868 58.24 55.6868 57.144C55.6868 56.048 55.3268 55.088 54.0468 55.088H52.8228ZM61.3861 56.248C61.2821 55.672 60.9061 54.976 59.8501 54.976C58.6181 54.976 58.1301 56.008 58.1301 57.136C58.1301 58.272 58.6181 59.304 59.8501 59.304C60.9141 59.304 61.3221 58.608 61.3861 57.912H62.3381C62.2101 59.2 61.3301 60.12 59.8741 60.12C58.2261 60.12 57.1861 58.864 57.1861 57.136C57.1861 55.416 58.2261 54.16 59.8741 54.16C61.3221 54.16 62.2021 55.08 62.3381 56.248H61.3861ZM64.4941 56.408H68.1661V57.192H64.4941V56.408ZM64.4941 57.816H68.1661V58.6H64.4941V57.816ZM71.3419 56.432H70.4459C70.4459 55.24 71.0859 54.352 72.5019 54.352C73.5259 54.352 74.3339 54.96 74.3339 56.016C74.3339 57.776 71.9739 58.072 71.5179 59.2V59.216H74.2779V60H70.3099C70.3099 59.024 70.8939 58.312 71.7419 57.776C72.7579 57.104 73.4059 56.84 73.4059 56.056C73.4059 55.6 73.1899 55.144 72.4779 55.144C71.6539 55.144 71.3419 55.672 71.3419 56.432ZM75.4416 60.064C75.1456 60.064 74.9216 59.864 74.9216 59.544C74.9216 59.232 75.1456 59.024 75.4416 59.024C75.7296 59.024 75.9536 59.232 75.9536 59.544C75.9536 59.864 75.7296 60.064 75.4416 60.064ZM79.8219 60H78.8939V58.744H76.2779V57.88L78.8939 54.472H79.8219V57.96H80.5979V58.744H79.8219V60ZM78.8939 55.624L77.1019 57.96H78.8939V55.624ZM83.2858 56.272C84.3498 56.272 85.0778 57.04 85.0778 58.12C85.0778 59.352 84.1898 60.12 83.0378 60.12C81.6858 60.12 80.9498 59.32 80.9178 58.368H81.8378C81.8938 58.864 82.2218 59.328 82.9898 59.328C83.6698 59.328 84.1498 58.912 84.1498 58.112C84.1498 57.36 83.7098 57.008 83.0378 57.008C82.6058 57.008 82.2138 57.16 81.9498 57.488H81.0138L81.6138 54.472H84.7978V55.256H82.3098L82.0138 56.736V56.752C82.3018 56.456 82.7098 56.272 83.2858 56.272ZM85.8005 60V54.28H87.0325L88.6325 58.68H88.6485L90.2405 54.28H91.4725V60H90.5445V55.664H90.5285L89.0165 60H88.2565L86.7445 55.664H86.7285V60H85.8005ZM95.7535 58.648H93.4175L92.9535 60H91.9855L94.0895 54.28H95.0895L97.1855 60H96.2175L95.7535 58.648ZM93.6815 57.856H95.4975L94.6015 55.152H94.5855L93.6815 57.856ZM98.5154 60V55.088H96.6834V54.28H101.291V55.088H99.4674V60H98.5154ZM101.957 54.28H102.909V60H101.957V54.28ZM107.917 56.248C107.813 55.672 107.437 54.976 106.381 54.976C105.149 54.976 104.661 56.008 104.661 57.136C104.661 58.272 105.149 59.304 106.381 59.304C107.445 59.304 107.853 58.608 107.917 57.912H108.869C108.741 59.2 107.861 60.12 106.405 60.12C104.757 60.12 103.717 58.864 103.717 57.136C103.717 55.416 104.757 54.16 106.405 54.16C107.853 54.16 108.733 55.08 108.869 56.248H107.917Z" fill="white"/>
</g>
<g filter="url(#filter2_d_7_398)">
<rect x="2" y="78" width="174" height="34" rx="8" fill="white" shape-rendering="crispEdges"/>
<g clip-path="url(#clip1_7_398)">
<rect width="24" height="24" transform="translate(10 83)" fill="white"/>
<path d="M22 107C28.65 107 34 101.65 34 95C34 88.35 28.65 83 22 83C15.35 83 10 88.35 10 95C10 101.65 15.35 107 22 107Z" fill="#7B3FE4"/>
<path d="M24.652 97.4511L27.7354 95.5957C27.8986 95.4975 28 95.3145 28 95.118V91.4067C28 91.2105 27.8986 91.0272 27.7354 90.929L24.652 89.0736C24.4889 88.9753 24.286 88.9756 24.1229 89.0736L21.0395 90.929C20.8764 91.0272 20.775 91.2102 20.775 91.4067V98.0386L18.6128 99.3393L16.4506 98.0386V95.4361L18.6128 94.1353L20.0391 94.9933V93.2477L18.8773 92.5487C18.7972 92.5006 18.7057 92.4752 18.6128 92.4752C18.5199 92.4752 18.4284 92.5006 18.3483 92.5487L15.2645 94.4044C15.1014 94.5026 15 94.6856 15 94.8821L15 98.5932C15 98.7894 15.1014 98.9726 15.2645 99.0709L18.348 100.927C18.5111 101.024 18.7137 101.024 18.8771 100.927L21.9605 99.0712C22.1236 98.9729 22.225 98.7896 22.225 98.5935V91.9616L22.264 91.9382L24.3872 90.6608L26.5493 91.9618V94.564L24.3872 95.8651L22.9631 95.0083V96.7539L24.1227 97.452C24.2858 97.5499 24.4886 97.5499 24.6517 97.452L24.652 97.4511Z" fill="white"/>
</g>
<path d="M38.488 93.5333V87.8133H40.92C42.016 87.8133 42.808 88.3253 42.808 89.5253C42.808 90.7253 42.016 91.2453 40.92 91.2453H39.44V93.5333H38.488ZM39.44 88.6213V90.4293H40.88C41.52 90.4293 41.856 90.1573 41.856 89.5253C41.856 88.9013 41.52 88.6213 40.88 88.6213H39.44ZM45.0603 93.6533C43.7803 93.6533 43.0043 92.7653 43.0043 91.4933C43.0043 90.2213 43.7803 89.3333 45.0603 89.3333C46.3403 89.3333 47.1163 90.2213 47.1163 91.4933C47.1163 92.7653 46.3403 93.6533 45.0603 93.6533ZM45.0603 92.9653C45.8603 92.9653 46.2763 92.3333 46.2763 91.4933C46.2763 90.6453 45.8603 90.0213 45.0603 90.0213C44.2603 90.0213 43.8443 90.6453 43.8443 91.4933C43.8443 92.3333 44.2603 92.9653 45.0603 92.9653ZM47.7129 87.8133H48.5609V93.5333H47.7129V87.8133ZM52.9846 89.4453L51.3526 93.7893C51.1206 94.4213 50.8566 94.9253 50.0726 94.9253C49.8326 94.9253 49.6326 94.8853 49.4726 94.8453V94.2053H49.5446C49.8966 94.2533 50.1606 94.2293 50.3446 94.0053C50.4966 93.8213 50.6086 93.5013 50.4566 93.1173L48.9766 89.4453H49.8806L51.0246 92.5733H51.0406L52.0886 89.4453H52.9846ZM56.1304 89.4453H56.9704V93.2533C56.9704 94.4293 56.2584 94.9493 55.0984 94.9493C53.9224 94.9493 53.2744 94.3333 53.1864 93.6453H54.0344C54.1144 94.0053 54.4024 94.2773 55.0664 94.2773C55.7704 94.2773 56.1304 93.9573 56.1304 93.2213V92.7253H56.1144C55.8984 93.0293 55.5224 93.3333 54.8744 93.3333C53.8504 93.3333 53.0824 92.6213 53.0824 91.3333C53.0824 90.0373 53.8504 89.3333 54.8744 89.3333C55.5224 89.3333 55.8984 89.6373 56.1144 89.9253H56.1304V89.4453ZM55.0344 92.6453C55.7144 92.6453 56.1224 92.1973 56.1224 91.3333C56.1224 90.4693 55.7144 90.0213 55.0344 90.0213C54.2984 90.0213 53.9224 90.5733 53.9224 91.3333C53.9224 92.0853 54.2984 92.6453 55.0344 92.6453ZM59.6072 93.6533C58.3272 93.6533 57.5512 92.7653 57.5512 91.4933C57.5512 90.2213 58.3272 89.3333 59.6072 89.3333C60.8872 89.3333 61.6632 90.2213 61.6632 91.4933C61.6632 92.7653 60.8872 93.6533 59.6072 93.6533ZM59.6072 92.9653C60.4072 92.9653 60.8232 92.3333 60.8232 91.4933C60.8232 90.6453 60.4072 90.0213 59.6072 90.0213C58.8072 90.0213 58.3912 90.6453 58.3912 91.4933C58.3912 92.3333 58.8072 92.9653 59.6072 92.9653ZM64.4438 89.3333C65.2038 89.3333 65.8038 89.7733 65.8038 90.7093V93.5333H64.9558V90.9493C64.9558 90.3973 64.7238 90.0453 64.1478 90.0453C63.4998 90.0453 63.0838 90.4373 63.0838 91.0453V93.5333H62.2438V89.4453H63.0838V89.9733H63.0998C63.3158 89.6533 63.7398 89.3333 64.4438 89.3333Z" fill="#1B1B1B"/>
<path d="M38.942 100.791H38.27C38.27 99.8967 38.75 99.2307 39.812 99.2307C40.58 99.2307 41.186 99.6867 41.186 100.479C41.186 101.799 39.416 102.021 39.074 102.867V102.879H41.144V103.467H38.168C38.168 102.735 38.606 102.201 39.242 101.799C40.004 101.295 40.49 101.097 40.49 100.509C40.49 100.167 40.328 99.8247 39.794 99.8247C39.176 99.8247 38.942 100.221 38.942 100.791ZM44.0422 103.467H43.3462V102.525H41.3842V101.877L43.3462 99.3207H44.0422V101.937H44.6242V102.525H44.0422V103.467ZM43.3462 100.185L42.0022 101.937H43.3462V100.185ZM47.5637 103.467H46.8677V102.525H44.9057V101.877L46.8677 99.3207H47.5637V101.937H48.1457V102.525H47.5637V103.467ZM46.8677 100.185L45.5237 101.937H46.8677V100.185ZM48.8956 103.515C48.6736 103.515 48.5056 103.365 48.5056 103.125C48.5056 102.891 48.6736 102.735 48.8956 102.735C49.1116 102.735 49.2796 102.891 49.2796 103.125C49.2796 103.365 49.1116 103.515 48.8956 103.515ZM50.2795 101.265C50.4835 100.929 50.8675 100.725 51.3475 100.725C52.1635 100.725 52.7215 101.289 52.7215 102.105C52.7215 102.921 52.1515 103.557 51.2215 103.557C50.0095 103.557 49.5835 102.651 49.5835 101.409C49.5835 99.9927 50.1775 99.2307 51.2215 99.2307C52.0015 99.2307 52.5235 99.7467 52.6075 100.371H51.9115C51.8695 100.053 51.6535 99.8007 51.2155 99.8007C50.4655 99.8007 50.2915 100.497 50.2795 101.253V101.265ZM51.1975 102.987C51.7315 102.987 52.0435 102.645 52.0435 102.141C52.0435 101.613 51.7075 101.295 51.2335 101.295C50.6815 101.295 50.3155 101.643 50.3155 102.153C50.3155 102.645 50.6455 102.987 51.1975 102.987ZM55.72 103.467H55.024V102.525H53.062V101.877L55.024 99.3207H55.72V101.937H56.302V102.525H55.72V103.467ZM55.024 100.185L53.68 101.937H55.024V100.185ZM57.3459 101.265C57.5499 100.929 57.9339 100.725 58.4139 100.725C59.2299 100.725 59.7879 101.289 59.7879 102.105C59.7879 102.921 59.2179 103.557 58.2879 103.557C57.0759 103.557 56.6499 102.651 56.6499 101.409C56.6499 99.9927 57.2439 99.2307 58.2879 99.2307C59.0679 99.2307 59.5899 99.7467 59.6739 100.371H58.9779C58.9359 100.053 58.7199 99.8007 58.2819 99.8007C57.5319 99.8007 57.3579 100.497 57.3459 101.253V101.265ZM58.2639 102.987C58.7979 102.987 59.1099 102.645 59.1099 102.141C59.1099 101.613 58.7739 101.295 58.2999 101.295C57.7479 101.295 57.3819 101.643 57.3819 102.153C57.3819 102.645 57.7119 102.987 58.2639 102.987ZM61.8804 103.557C60.7104 103.557 60.2124 102.573 60.2124 101.397C60.2124 100.221 60.7104 99.2307 61.8804 99.2307C63.0504 99.2307 63.5484 100.221 63.5484 101.397C63.5484 102.573 63.0504 103.557 61.8804 103.557ZM61.8804 102.963C62.6124 102.963 62.8524 102.261 62.8524 101.397C62.8524 100.533 62.6124 99.8247 61.8804 99.8247C61.1484 99.8247 60.9024 100.533 60.9024 101.397C60.9024 102.261 61.1484 102.963 61.8804 102.963ZM63.8967 102.297C63.8967 101.727 64.2687 101.433 64.6647 101.259V101.247C64.3707 101.091 64.0947 100.833 64.0947 100.365C64.0947 99.6507 64.6887 99.2307 65.4987 99.2307C66.3087 99.2307 66.9027 99.6507 66.9027 100.365C66.9027 100.833 66.6207 101.091 66.3327 101.247V101.259C66.7227 101.433 67.1067 101.727 67.1067 102.297C67.1067 103.137 66.4047 103.557 65.4987 103.557C64.5927 103.557 63.8967 103.137 63.8967 102.297ZM65.4987 101.001C65.9607 101.001 66.2487 100.797 66.2487 100.395C66.2487 99.9987 65.9607 99.7827 65.4987 99.7827C65.0367 99.7827 64.7487 99.9987 64.7487 100.395C64.7487 100.797 65.0367 101.001 65.4987 101.001ZM65.4987 102.987C66.0627 102.987 66.4107 102.711 66.4107 102.255C66.4107 101.805 66.0627 101.529 65.4987 101.529C64.9407 101.529 64.5867 101.805 64.5867 102.255C64.5867 102.711 64.9407 102.987 65.4987 102.987ZM67.6394 103.467V99.1767H68.5634L69.7634 102.477H69.7754L70.9694 99.1767H71.8934V103.467H71.1974V100.215H71.1854L70.0514 103.467H69.4814L68.3474 100.215H68.3354V103.467H67.6394ZM75.1042 102.453H73.3522L73.0042 103.467H72.2782L73.8562 99.1767H74.6062L76.1782 103.467H75.4522L75.1042 102.453ZM73.5502 101.859H74.9122L74.2402 99.8307H74.2282L73.5502 101.859ZM77.1756 103.467V99.7827H75.8016V99.1767H79.2576V99.7827H77.8896V103.467H77.1756ZM79.7569 99.1767H80.4709V103.467H79.7569V99.1767ZM84.227 100.653C84.149 100.221 83.867 99.6987 83.075 99.6987C82.151 99.6987 81.785 100.473 81.785 101.319C81.785 102.171 82.151 102.945 83.075 102.945C83.873 102.945 84.179 102.423 84.227 101.901H84.941C84.845 102.867 84.185 103.557 83.093 103.557C81.857 103.557 81.077 102.615 81.077 101.319C81.077 100.029 81.857 99.0867 83.093 99.0867C84.179 99.0867 84.839 99.7767 84.941 100.653H84.227Z" fill="#A19F9F"/>
</g>
<defs>
<filter id="filter0_d_7_398" x="0.0666668" y="0.0666668" width="181.733" height="41.7333" filterUnits="userSpaceOnUse" color-interpolation-filters="sRGB">
<feFlood flood-opacity="0" result="BackgroundImageFix"/>
<feColorMatrix in="SourceAlpha" type="matrix" values="0 0 0 0 0 0 0 0 0 0 0 0 0 0 0 0 0 0 127 0" result="hardAlpha"/>
<feOffset dx="1.93333" dy="1.93333"/>
<feGaussianBlur stdDeviation="1.93333"/>
<feComposite in2="hardAlpha" operator="out"/>
<feColorMatrix type="matrix" values="0 0 0 0 0.904167 0 0 0 0 0.904167 0 0 0 0 0.904167 0 0 0 1 0"/>
<feBlend mode="normal" in2="BackgroundImageFix" result="effect1_dropShadow_7_398"/>
<feBlend mode="normal" in="SourceGraphic" in2="effect1_dropShadow_7_398" result="shape"/>
</filter>
<filter id="filter1_d_7_398" x="0.0666668" y="38.0667" width="181.733" height="41.7333" filterUnits="userSpaceOnUse" color-interpolation-filters="sRGB">
<feFlood flood-opacity="0" result="BackgroundImageFix"/>
<feColorMatrix in="SourceAlpha" type="matrix" values="0 0 0 0 0 0 0 0 0 0 0 0 0 0 0 0 0 0 127 0" result="hardAlpha"/>
<feOffset dx="1.93333" dy="1.93333"/>
<feGaussianBlur stdDeviation="1.93333"/>
<feComposite in2="hardAlpha" operator="out"/>
<feColorMatrix type="matrix" values="0 0 0 0 0.904167 0 0 0 0 0.904167 0 0 0 0 0.904167 0 0 0 1 0"/>
<feBlend mode="normal" in2="BackgroundImageFix" result="effect1_dropShadow_7_398"/>
<feBlend mode="normal" in="SourceGraphic" in2="effect1_dropShadow_7_398" result="shape"/>
</filter>
<filter id="filter2_d_7_398" x="0.0666668" y="76.0667" width="181.733" height="41.7333" filterUnits="userSpaceOnUse" color-interpolation-filters="sRGB">
<feFlood flood-opacity="0" result="BackgroundImageFix"/>
<feColorMatrix in="SourceAlpha" type="matrix" values="0 0 0 0 0 0 0 0 0 0 0 0 0 0 0 0 0 0 127 0" result="hardAlpha"/>
<feOffset dx="1.93333" dy="1.93333"/>
<feGaussianBlur stdDeviation="1.93333"/>
<feComposite in2="hardAlpha" operator="out"/>
<feColorMatrix type="matrix" values="0 0 0 0 0.904167 0 0 0 0 0.904167 0 0 0 0 0.904167 0 0 0 1 0"/>
<feBlend mode="normal" in2="BackgroundImageFix" result="effect1_dropShadow_7_398"/>
<feBlend mode="normal" in="SourceGraphic" in2="effect1_dropShadow_7_398" result="shape"/>
</filter>
<clipPath id="clip0_7_398">
<rect width="24" height="24" fill="white" transform="translate(10 7)"/>
</clipPath>
<clipPath id="clip1_7_398">
<rect width="24" height="24" fill="white" transform="translate(10 83)"/>
</clipPath>
</defs>
</svg>
