<svg width="174" height="128" viewBox="0 0 174 128" fill="none" xmlns="http://www.w3.org/2000/svg">
<path d="M23.0294 57.2706C32.0326 -17.447 139.84 -15.3929 150.459 57.2706" stroke="#0B4AE1" stroke-width="2.55882" stroke-linecap="round" stroke-dasharray="5.63 5.63"/>
<rect y="61.8768" width="42.9882" height="42.9882" rx="21.4941" fill="#0B4AE1"/>
<path d="M15.9859 78.1701C15.9859 76.7911 16.5291 75.4679 17.4958 74.4928C18.4625 73.5177 19.7744 72.9699 21.1416 72.9699C22.5089 72.9699 23.8207 73.5178 24.7875 74.4928C25.7543 75.4678 26.2973 76.7911 26.2973 78.1701C26.2973 79.5491 25.7541 80.8723 24.7875 81.8474C23.8208 82.8226 22.5089 83.3703 21.1416 83.3703C19.7744 83.3703 18.4626 82.8224 17.4958 81.8474C16.529 80.8724 15.9859 79.5491 15.9859 78.1701ZM29.759 91.0739C29.6494 90.6244 29.504 90.1843 29.3244 89.759C28.0134 86.7354 24.8759 84.856 21.1416 84.856C16.8993 84.856 13.445 87.3223 12.5464 90.9997C12.3807 91.6655 12.5289 92.3712 12.9478 92.9126C13.3657 93.4539 14.0093 93.7706 14.6896 93.7706H27.5935C28.2775 93.7753 28.9247 93.4595 29.3464 92.9163C29.7543 92.3972 29.9063 91.7192 29.759 91.0739Z" fill="white"/>
<rect x="4.09412" y="108.959" width="34.8" height="18.4235" rx="9.21177" fill="#0B4AE1"/>
<path d="M17.6062 121.971C17.4356 122.039 17.2735 122.024 17.12 121.926C16.9665 121.828 16.8897 121.685 16.8897 121.497V119.194L20.9838 118.171L16.8897 117.147V114.844C16.8897 114.657 16.9665 114.514 17.12 114.416C17.2735 114.318 17.4356 114.303 17.6062 114.371L25.4874 117.698C25.7006 117.791 25.8072 117.949 25.8072 118.171C25.8072 118.393 25.7006 118.551 25.4874 118.644L17.6062 121.971Z" fill="white"/>
<rect x="131.012" y="61.8768" width="42.9882" height="42.9882" rx="21.4941" fill="#0B4AE1"/>
<path d="M146.997 78.1701C146.997 76.7911 147.541 75.4679 148.507 74.4928C149.474 73.5177 150.786 72.9699 152.153 72.9699C153.52 72.9699 154.832 73.5178 155.799 74.4928C156.766 75.4678 157.309 76.7911 157.309 78.1701C157.309 79.5491 156.766 80.8723 155.799 81.8474C154.832 82.8226 153.52 83.3703 152.153 83.3703C150.786 83.3703 149.474 82.8224 148.507 81.8474C147.541 80.8724 146.997 79.5491 146.997 78.1701ZM160.771 91.0739C160.661 90.6244 160.515 90.1843 160.336 89.759C159.025 86.7354 155.887 84.856 152.153 84.856C147.911 84.856 144.457 87.3223 143.558 90.9997C143.392 91.6655 143.54 92.3712 143.959 92.9126C144.377 93.4539 145.021 93.7706 145.701 93.7706H158.605C159.289 93.7753 159.936 93.4595 160.358 92.9163C160.766 92.3972 160.918 91.7192 160.771 91.0739Z" fill="white"/>
<rect x="135.106" y="108.959" width="34.8" height="18.4235" rx="9.21177" fill="#0B4AE1"/>
<path d="M151.79 119.092L150.69 117.992C150.596 117.898 150.477 117.851 150.332 117.851C150.187 117.851 150.067 117.898 149.974 117.992C149.88 118.085 149.833 118.205 149.833 118.35C149.833 118.495 149.88 118.614 149.974 118.708L151.432 120.167C151.534 120.269 151.654 120.32 151.79 120.32C151.927 120.32 152.046 120.269 152.149 120.167L155.04 117.275C155.134 117.181 155.181 117.062 155.181 116.917C155.181 116.772 155.134 116.652 155.04 116.559C154.946 116.465 154.827 116.418 154.682 116.418C154.537 116.418 154.417 116.465 154.324 116.559L151.79 119.092ZM152.507 123.288C151.799 123.288 151.134 123.154 150.511 122.885C149.888 122.617 149.347 122.252 148.886 121.791C148.425 121.331 148.061 120.789 147.792 120.167C147.523 119.544 147.389 118.879 147.389 118.171C147.389 117.463 147.523 116.797 147.792 116.175C148.061 115.552 148.425 115.01 148.886 114.55C149.347 114.089 149.888 113.725 150.511 113.456C151.134 113.187 151.799 113.053 152.507 113.053C153.215 113.053 153.88 113.187 154.503 113.456C155.125 113.725 155.667 114.089 156.127 114.55C156.588 115.01 156.953 115.552 157.221 116.175C157.49 116.797 157.624 117.463 157.624 118.171C157.624 118.879 157.49 119.544 157.221 120.167C156.953 120.789 156.588 121.331 156.127 121.791C155.667 122.252 155.125 122.617 154.503 122.885C153.88 123.154 153.215 123.288 152.507 123.288Z" fill="white"/>
</svg>
