<svg width="72" height="72" viewBox="0 0 72 72" fill="none" xmlns="http://www.w3.org/2000/svg">
<rect width="72" height="72" rx="36" fill="#0B4AE1"/>
<path d="M45.3333 24H26.6667C25.1939 24 24 25.1939 24 26.6667V45.3333C24 46.8061 25.1939 48 26.6667 48H45.3333C46.8061 48 48 46.8061 48 45.3333V26.6667C48 25.1939 46.8061 24 45.3333 24Z" stroke="white" stroke-width="2" stroke-linecap="round" stroke-linejoin="round"/>
<path d="M24 32C24 31.2928 24.281 30.6145 24.781 30.1144C25.2811 29.6143 25.9594 29.3333 26.6667 29.3333H45.3333C46.0406 29.3333 46.7189 29.6143 47.219 30.1144C47.719 30.6145 48 31.2928 48 32" stroke="white" stroke-width="2" stroke-linecap="round" stroke-linejoin="round"/>
<path d="M24 34.6667H28C29.0667 34.6667 30.1333 35.0667 30.8 35.8667L32.2667 37.0667C34.4 39.2 37.7333 39.2 39.8667 37.0667L41.3333 35.8667C42 35.2 43.0667 34.6667 44.1333 34.6667H48" stroke="white" stroke-width="2" stroke-linecap="round" stroke-linejoin="round"/>
</svg>
