<svg width="28" height="32" viewBox="0 0 28 32" fill="none" xmlns="http://www.w3.org/2000/svg">
<g clip-path="url(#clip0_60_10055)">
<path d="M1.0625 10.0893V21.9108C1.0625 22.6656 1.48509 23.3634 2.16954 23.7396L12.8951 29.6516C13.5795 30.0278 14.4221 30.0278 15.1066 29.6516L25.8322 23.7396C26.5166 23.3634 26.9392 22.6656 26.9392 21.9108V10.0893C26.9392 9.33452 26.5166 8.63666 25.8322 8.26052L15.1066 2.34852C14.4221 1.97237 13.5795 1.97237 12.8951 2.34852L2.16694 8.26052C1.4825 8.63666 1.0625 9.33452 1.0625 10.0893Z" fill="#213147"/>
<path d="M16.341 18.2926L14.8114 22.2966C14.7699 22.408 14.7699 22.5294 14.8114 22.6406L17.4429 29.5302L20.4866 27.8524L16.8336 18.2926C16.7506 18.0724 16.424 18.0724 16.341 18.2926Z" fill="#12AAFF"/>
<path d="M19.4078 11.5592C19.3249 11.339 18.9982 11.339 18.9152 11.5592L17.3856 15.5632C17.3441 15.6746 17.3441 15.7959 17.3856 15.9072L21.697 27.1868L24.7408 25.509L19.4078 11.5592Z" fill="#12AAFF"/>
<path d="M14 2.79172C14.0752 2.79172 14.1504 2.81152 14.2178 2.84616L25.8248 9.24318C25.9596 9.31742 26.0426 9.45602 26.0426 9.60202V22.3936C26.0426 22.542 25.9596 22.6782 25.8248 22.7524L14.2178 29.1494C14.153 29.1866 14.0752 29.2038 14 29.2038C13.9248 29.2038 13.8496 29.184 13.7822 29.1494L2.17518 22.7574C2.04038 22.6832 1.95741 22.5446 1.95741 22.3986V9.6045C1.95741 9.45602 2.04038 9.3199 2.17518 9.24566L13.7822 2.84864C13.8496 2.81152 13.9248 2.79172 14 2.79172ZM14 0.92334C13.5878 0.92334 13.173 1.0248 12.8022 1.2302L1.19778 7.62476C0.456296 8.03308 0 8.78784 0 9.6045V22.396C0 23.2126 0.456296 23.9674 1.19778 24.3758L12.8048 30.7728C13.1756 30.9758 13.5878 31.0796 14.0026 31.0796C14.4148 31.0796 14.8296 30.9782 15.2004 30.7728L26.8074 24.3758C27.5488 23.9674 28.0052 23.2126 28.0052 22.396V9.6045C28.0052 8.78784 27.5488 8.03308 26.8074 7.62476L15.1978 1.2302C14.827 1.0248 14.4122 0.92334 14 0.92334Z" fill="#9DCCED"/>
<path d="M6.32324 27.2016L7.3914 24.4102L9.54066 26.1152L7.5314 27.8672L6.32324 27.2016Z" fill="#213147"/>
<path d="M13.0223 8.68848H10.0797C9.8593 8.68848 9.66226 8.81964 9.58708 9.01762L3.2793 25.5237L6.323 27.2015L13.2686 9.02504C13.3334 8.8617 13.2063 8.68848 13.0223 8.68848Z" fill="white"/>
<path d="M18.1716 8.68848H15.229C15.0086 8.68848 14.8116 8.81964 14.7364 9.01762L7.53418 27.8647L10.5779 29.5425L18.4179 9.02504C18.4801 8.8617 18.3531 8.68848 18.1716 8.68848Z" fill="white"/>
</g>
<defs>
<clipPath id="clip0_60_10055">
<rect width="28" height="32" fill="white"/>
</clipPath>
</defs>
</svg>
