<svg width="62" height="62" viewBox="0 0 62 62" fill="none" xmlns="http://www.w3.org/2000/svg">
<rect width="62" height="62" fill="white"/>
<path fill-rule="evenodd" clip-rule="evenodd" d="M32.1425 18.8548L33.1726 12.2378C32.1526 12.0801 31.1099 12 30.0698 12H30.0547V25.5019H30.0698C30.6401 25.5019 31.2054 25.5745 31.7506 25.7197L33.5018 19.1403C33.0546 19.0226 32.5998 18.9275 32.14 18.8574L32.1425 18.8548Z" fill="black"/>
<path fill-rule="evenodd" clip-rule="evenodd" d="M26.8049 26.3753L23.4332 20.587C23.0362 20.8173 22.6493 21.0677 22.2774 21.3356L18.25 15.8377C19.0967 15.2218 19.9987 14.6685 20.9308 14.1928L23.996 20.1539C24.619 19.8359 25.2647 19.568 25.928 19.3527L23.8402 12.9861C24.8351 12.6631 25.8677 12.4152 26.9029 12.25L27.9757 18.9722C27.5209 19.0448 27.0712 19.1424 26.6265 19.2601L28.3701 25.7243C27.8224 25.872 27.2948 26.0899 26.8024 26.3753H26.8049Z" fill="black"/>
<path fill-rule="evenodd" clip-rule="evenodd" d="M18.2599 26.0245L12.1722 22.9375C11.6949 23.8689 11.2903 24.8478 10.9688 25.8417L17.4685 27.9347C17.682 27.2813 17.9483 26.6378 18.2599 26.0245Z" fill="black"/>
<path fill-rule="evenodd" clip-rule="evenodd" d="M41.525 25.3783L35.7188 28.7407C36.0051 29.2314 36.2238 29.7571 36.372 30.3029L42.8566 28.5604C42.9772 29.0035 43.0751 29.4517 43.1455 29.9048L49.8915 28.8333C49.7257 27.7993 49.4769 26.7728 49.1528 25.7789L42.7637 27.8594C42.5476 27.1984 42.2788 26.555 41.9597 25.9366L47.9392 22.8797C47.4619 21.9534 46.9066 21.0547 46.2885 20.2109L40.7737 24.2267C41.0451 24.5972 41.2938 24.9828 41.5275 25.3783H41.525Z" fill="black"/>
<path fill-rule="evenodd" clip-rule="evenodd" d="M39.1529 14.1602C38.2158 13.687 37.2359 13.2839 36.2385 12.9609L34.1406 19.4378C34.7963 19.6481 35.442 19.9134 36.0576 20.2264L39.1529 14.1577V14.1602Z" fill="black"/>
<path fill-rule="evenodd" clip-rule="evenodd" d="M36.7297 20.4611L33.3203 26.3595C33.8152 26.6425 34.27 26.9905 34.6745 27.3935L44.2394 17.8298C43.4982 17.0937 42.6917 16.4103 41.845 15.7969L37.9005 21.2172C37.5236 20.9468 37.1342 20.6939 36.7322 20.4611H36.7297Z" fill="black"/>
<path fill-rule="evenodd" clip-rule="evenodd" d="M24.4154 28.7607L18.4985 25.3583C18.7296 24.9577 18.9859 24.5697 19.2573 24.1941L13.8203 20.2609C14.4359 19.4172 15.1218 18.6136 15.8629 17.875L25.4555 27.4087C25.051 27.8118 24.7018 28.2675 24.4179 28.7582L24.4154 28.7607Z" fill="black"/>
<path fill-rule="evenodd" clip-rule="evenodd" d="M17.1655 28.5703L23.7657 30.3203C23.62 30.8636 23.5471 31.4269 23.5471 31.9978H10C10 30.9588 10.0804 29.9148 10.2412 28.8958L16.8816 29.9273C16.9545 29.4691 17.0474 29.0185 17.168 28.5703H17.1655Z" fill="black"/>
<path fill-rule="evenodd" clip-rule="evenodd" d="M41.8828 37.9727L47.9705 41.0597C48.4453 40.1283 48.8524 39.1494 49.1739 38.1555L42.6742 36.0625C42.4607 36.7159 42.1944 37.3594 41.8828 37.9727Z" fill="black"/>
<path fill-rule="evenodd" clip-rule="evenodd" d="M33.3412 37.625L36.7129 43.4134C37.1098 43.183 37.4968 42.9327 37.8686 42.6648L41.8961 48.1627C41.0494 48.7786 40.1474 49.3319 39.2153 49.8075L36.1501 43.8465C35.527 44.1644 34.8838 44.4323 34.218 44.6476L36.3034 51.0143C35.3084 51.3372 34.2758 51.5851 33.2407 51.7503L32.1679 45.0282C32.6226 44.9556 33.0723 44.8579 33.517 44.7403L31.7734 38.276C32.3211 38.1283 32.8487 37.9104 33.3412 37.625Z" fill="black"/>
<path fill-rule="evenodd" clip-rule="evenodd" d="M18.6165 38.6199L24.4228 35.2575C24.1364 34.7668 23.9178 34.2411 23.7696 33.6953L17.2849 35.4378C17.1643 34.9947 17.0663 34.5465 16.9959 34.0934L10.25 35.1649C10.4158 36.1989 10.6646 37.2254 10.9887 38.2193L17.3778 36.1388C17.5939 36.7998 17.8627 37.4432 18.1818 38.0616L12.2022 41.1185C12.6795 42.0473 13.2348 42.9436 13.8529 43.7873L19.3677 39.7715C19.0963 39.401 18.8476 39.0154 18.614 38.6199H18.6165Z" fill="black"/>
<path fill-rule="evenodd" clip-rule="evenodd" d="M20.9844 49.8396C21.9215 50.3128 22.9014 50.7158 23.8988 51.0388L25.9967 44.562C25.3409 44.3517 24.6952 44.0863 24.0797 43.7734L20.9844 49.8396Z" fill="black"/>
<path fill-rule="evenodd" clip-rule="evenodd" d="M23.4082 43.5315L26.8176 37.6356C26.3226 37.3526 25.8679 37.0046 25.4634 36.6016L15.8984 46.1653C16.6396 46.9014 17.4461 47.5849 18.2928 48.1982L22.2374 42.7779C22.6142 43.0483 23.0037 43.3012 23.4057 43.534L23.4082 43.5315Z" fill="black"/>
<path fill-rule="evenodd" clip-rule="evenodd" d="M35.7277 35.2422L41.6445 38.6446C41.4134 39.0452 41.1571 39.4332 40.8858 39.8088L46.3227 43.7419C45.7072 44.5856 45.0213 45.3893 44.2801 46.1279L34.6875 36.5942C35.092 36.1911 35.4413 35.7354 35.7252 35.2447L35.7277 35.2422Z" fill="black"/>
<path fill-rule="evenodd" clip-rule="evenodd" d="M28.3917 38.2838L26.6406 44.8632C27.0878 44.9809 27.5425 45.0759 28.0023 45.146L26.9697 51.7631C27.9898 51.9208 29.0324 52.0009 30.0726 52.0009H30.0877V38.4991H30.0726C29.5023 38.4991 28.9369 38.4264 28.3917 38.2812V38.2838Z" fill="black"/>
<path fill-rule="evenodd" clip-rule="evenodd" d="M36.375 33.6775C36.5207 33.1342 36.5936 32.5709 36.5936 32H50.1433C50.1433 33.039 50.0629 34.083 49.9021 35.102L43.2617 34.0705C43.1888 34.5287 43.0958 34.9793 42.9752 35.4275L36.375 33.6775Z" fill="black"/>
</svg>
