<svg width="234" height="241" viewBox="0 0 234 241" fill="none" xmlns="http://www.w3.org/2000/svg">
<path d="M193.763 241H39.9334C17.9159 241 0 223.069 0 201.056V51.8672C0 29.8439 17.9159 11.9234 39.9334 11.9234C42.1716 11.9234 43.9845 13.7367 43.9845 15.9755C43.9845 18.2143 42.1716 20.0276 39.9334 20.0276C22.3822 20.0276 8.10214 34.3113 8.10214 51.8672V201.046C8.10214 218.602 22.3822 232.886 39.9334 232.886H193.763C211.314 232.886 225.594 218.612 225.594 201.046L225.898 51.857C225.898 34.3113 211.628 20.0276 194.067 20.0276C191.828 20.0276 190.015 18.2143 190.015 15.9755C190.015 13.7367 191.838 11.9234 194.067 11.9234C216.084 11.9234 234 29.8439 234 51.8672L233.696 201.056C233.696 223.069 215.78 241 193.763 241ZM101.743 20.0276H75.7753C73.5371 20.0276 71.7242 18.2143 71.7242 15.9755C71.7242 13.7367 73.5371 11.9234 75.7753 11.9234H101.743C103.981 11.9234 105.794 13.7367 105.794 15.9755C105.794 18.2143 103.981 20.0276 101.743 20.0276Z" fill="white"/>
<path d="M84.2218 113.682C84.2218 113.297 83.8369 112.923 83.8369 112.538C83.4521 112.153 83.4521 111.778 83.0773 111.778C82.6925 111.393 82.6925 111.393 82.3178 111.018C81.9329 111.018 81.5582 110.633 81.1733 110.633C80.7885 110.633 80.4138 110.248 80.0289 110.248C79.2693 110.248 78.4996 110.248 77.7401 110.248C77.3552 110.248 76.9805 110.248 76.5956 110.633C76.2108 110.633 75.8361 111.018 75.4512 111.018C75.0663 111.403 74.6916 111.403 74.6916 111.778C74.3068 112.163 74.3068 112.163 73.9321 112.538C73.9321 112.923 73.5472 113.297 73.5472 113.682C73.5472 114.067 73.1623 114.442 73.1623 114.827C73.1623 115.212 73.1623 115.587 73.1623 115.972C73.1623 116.732 73.1623 117.501 73.5472 118.261C73.9321 119.021 74.3068 119.791 74.6916 120.166C75.0765 120.551 75.8361 120.925 76.5956 121.31C77.3552 121.695 78.1249 121.695 78.8845 121.695C79.6441 121.695 80.4138 121.695 81.1733 121.31C81.9329 120.925 82.7026 120.551 83.0773 120.166C84.2218 119.021 84.5965 117.501 84.5965 115.972C84.5965 115.587 84.5965 115.212 84.5965 114.827C84.5965 114.452 84.2218 114.067 84.2218 113.682Z" fill="white"/>
<path d="M122.342 113.682C122.342 113.297 121.957 112.923 121.957 112.538C121.573 112.153 121.573 111.778 121.198 111.778C120.053 110.633 117.765 109.873 116.245 110.248C115.861 110.248 115.486 110.248 115.101 110.633C114.716 110.633 114.341 111.018 113.957 111.018C113.572 111.403 113.197 111.403 113.197 111.778C112.812 112.163 112.812 112.163 112.437 112.538C112.437 112.923 112.053 113.297 112.053 113.682C112.053 114.067 111.668 114.442 111.668 114.827C111.668 115.212 111.668 115.587 111.668 115.972C111.668 117.501 112.427 119.021 113.197 120.166C113.582 120.551 114.341 120.925 115.101 121.31C115.861 121.695 116.63 121.695 117.39 121.695C118.149 121.695 118.919 121.695 119.679 121.31C120.438 120.925 121.208 120.551 121.583 120.166C122.727 119.021 123.112 117.501 123.112 115.972C123.112 115.587 123.112 115.212 123.112 114.827C122.727 114.452 122.342 114.067 122.342 113.682Z" fill="white"/>
<path d="M150.933 111.778C149.788 112.923 149.404 114.442 149.404 115.972C149.404 116.732 149.404 117.501 149.788 118.261C150.173 119.021 150.548 119.791 150.933 120.166C151.318 120.541 152.077 120.925 152.837 121.31C153.596 121.695 154.366 121.695 155.126 121.695C156.655 121.695 158.174 120.936 159.318 120.166C160.463 119.021 160.848 117.501 160.848 115.972C160.848 114.442 160.088 112.923 159.318 111.778C157.03 109.873 153.222 109.873 150.933 111.778Z" fill="white"/>
<path d="M198.584 113.682C198.584 113.297 198.199 112.923 198.199 112.538C197.814 112.153 197.814 111.778 197.439 111.778C195.535 109.488 191.342 109.488 189.438 111.778C189.053 112.163 189.053 112.538 188.679 112.538C188.679 112.923 188.294 113.297 188.294 113.682C188.294 114.067 187.909 114.442 187.909 114.827C187.909 115.212 187.909 115.587 187.909 115.972C187.909 117.501 188.294 119.021 189.438 120.166C190.583 121.31 192.102 121.695 193.631 121.695C194.391 121.695 195.16 121.695 195.92 121.31C196.68 120.925 197.449 120.551 197.824 120.166C198.968 119.021 199.353 117.501 199.353 115.972C199.353 115.587 199.353 115.212 199.353 114.827C198.968 114.452 198.584 114.067 198.584 113.682Z" fill="white"/>
<path d="M43.8123 149.533C43.4275 149.533 43.0528 149.148 42.6679 149.148C42.2831 149.148 41.9083 148.764 41.5235 148.764C40.7639 148.764 39.9942 148.764 39.2346 148.764C38.8498 148.764 38.4751 148.764 38.0902 149.148C37.7053 149.148 37.3306 149.533 36.9458 149.533C36.5609 149.918 36.1862 149.918 36.1862 150.293C35.8013 150.678 35.8013 150.678 35.4266 151.053C35.4266 151.438 35.0418 151.813 35.0418 152.198C35.0418 152.583 34.6569 152.957 34.6569 153.342C34.6569 153.727 34.6569 154.102 34.6569 154.487C34.6569 155.247 34.6569 156.017 35.0418 156.777C35.4266 157.536 35.8013 158.306 36.1862 158.681C36.571 159.066 37.3306 159.441 38.0902 159.826C38.8498 160.211 39.6195 160.211 40.3791 160.211C41.9083 160.211 43.4275 159.451 44.5719 158.681C45.7163 157.536 46.1012 156.017 46.1012 154.487C46.1012 152.957 45.3416 151.438 44.5719 150.293C44.5719 149.908 44.1871 149.533 43.8123 149.533Z" fill="white"/>
<path d="M84.2218 151.823C84.2218 151.438 83.8369 151.063 83.8369 150.678C83.4521 150.293 83.4521 149.918 83.0773 149.918C82.6925 149.533 82.6925 149.533 82.3178 149.159C81.9329 149.159 81.5582 148.774 81.1733 148.774C80.7885 148.774 80.4138 148.389 80.0289 148.389C79.2693 148.389 78.4996 148.389 77.7401 148.389C77.3552 148.389 76.9805 148.389 76.5956 148.774C76.2108 148.774 75.8361 149.159 75.4512 149.159C75.0663 149.544 74.6916 149.544 74.6916 149.918C74.3068 150.303 74.3068 150.303 73.9321 150.678C73.9321 151.063 73.5472 151.438 73.5472 151.823C73.5472 152.208 73.1623 152.583 73.1623 152.968C73.1623 153.353 73.1623 153.727 73.1623 154.112C73.1623 154.872 73.1623 155.642 73.5472 156.402C73.9321 157.162 74.3068 157.931 74.6916 158.306C75.0765 158.691 75.8361 159.066 76.5956 159.451C77.3552 159.836 78.1249 159.836 78.8845 159.836C79.6441 159.836 80.4138 159.836 81.1733 159.451C81.9329 159.066 82.7026 158.691 83.0773 158.306C83.4622 157.921 83.8369 157.162 84.2218 156.402C84.5965 155.632 84.5965 154.872 84.5965 154.102C84.5965 153.717 84.5965 153.342 84.5965 152.958C84.5965 152.573 84.2218 152.198 84.2218 151.823Z" fill="white"/>
<path d="M122.342 151.823C122.342 151.438 121.957 151.063 121.957 150.678C121.573 150.293 121.573 149.918 121.198 149.918C120.053 148.774 117.765 148.014 116.245 148.389C115.861 148.389 115.486 148.389 115.101 148.774C114.716 148.774 114.341 149.159 113.957 149.159C113.572 149.544 113.197 149.544 113.197 149.918C112.812 150.303 112.812 150.303 112.437 150.678C112.437 151.063 112.053 151.438 112.053 151.823C112.053 152.208 111.668 152.583 111.668 152.968C111.668 153.353 111.668 153.727 111.668 154.112C111.668 155.642 112.427 157.162 113.197 158.306C113.582 158.691 114.341 159.066 115.101 159.451C115.861 159.836 116.63 159.836 117.39 159.836C118.919 159.836 120.438 159.076 121.583 158.306C122.727 157.162 123.112 155.642 123.112 154.112C123.112 153.727 123.112 153.353 123.112 152.968C122.727 152.583 122.342 152.198 122.342 151.823Z" fill="white"/>
<path d="M150.933 149.908C150.548 150.293 150.548 150.293 150.173 150.668C150.173 151.053 149.788 151.428 149.788 151.813C149.788 152.198 149.404 152.573 149.404 152.958C149.404 153.342 149.404 153.717 149.404 154.102C149.404 154.862 149.404 155.632 149.788 156.392C150.173 157.151 150.548 157.921 150.933 158.296C151.318 158.681 152.077 159.056 152.837 159.441C153.596 159.826 154.366 159.826 155.126 159.826C155.885 159.826 156.655 159.826 157.414 159.441C158.174 159.056 158.944 158.681 159.318 158.296C160.463 157.151 160.848 155.632 160.848 154.102C160.848 152.573 160.088 151.053 159.318 149.908C157.03 148.004 153.222 148.004 150.933 149.908Z" fill="white"/>
<path d="M198.584 151.823C198.584 151.438 198.199 151.063 198.199 150.678C197.814 150.293 197.814 149.918 197.439 149.918C195.535 147.629 191.342 147.629 189.438 149.918C188.294 151.063 187.909 152.583 187.909 154.112C187.909 155.642 188.294 157.162 189.438 158.306C190.583 159.451 192.102 159.836 193.631 159.836C194.391 159.836 195.16 159.836 195.92 159.451C196.68 159.066 197.449 158.691 197.824 158.306C198.968 157.162 199.353 155.642 199.353 154.112C199.353 153.727 199.353 153.353 199.353 152.968C198.968 152.583 198.584 152.198 198.584 151.823Z" fill="white"/>
<path d="M36.5609 188.049C35.4165 189.194 35.0316 190.713 35.0316 192.243C35.0316 193.773 35.7912 195.292 36.5609 196.437C37.7053 197.581 39.2245 197.966 40.7538 197.966C41.5134 197.966 42.2831 197.966 43.0426 197.581C43.8022 197.197 44.5719 196.822 44.9466 196.437C46.0911 195.292 46.4759 193.773 46.4759 192.243C46.4759 190.713 45.7163 189.194 44.9466 188.049C42.6679 186.134 38.8498 186.134 36.5609 188.049Z" fill="white"/>
<path d="M81.9329 187.664C81.5481 187.664 81.1733 187.279 80.7885 187.279C80.4036 187.279 80.0289 186.894 79.6441 186.894C77.7401 186.509 75.8361 187.279 74.3068 188.424C73.1623 189.568 72.7775 191.088 72.7775 192.618C72.7775 194.147 73.5371 195.667 74.3068 196.812C74.6916 197.197 75.4512 197.571 76.2108 197.956C76.9704 198.341 77.7401 198.341 78.4996 198.341C79.2592 198.341 80.0289 198.341 80.7885 197.956C81.5481 197.571 82.3178 197.197 82.6925 196.812C83.8369 195.667 84.2218 194.147 84.2218 192.618C84.2218 191.088 83.4622 189.568 82.6925 188.424C82.6925 188.049 82.3178 187.664 81.9329 187.664Z" fill="white"/>
<path d="M122.342 189.953C122.342 189.568 121.957 189.194 121.957 188.809C121.573 188.424 121.573 188.049 121.198 188.049C120.053 186.904 117.765 186.144 116.245 186.519C115.861 186.519 115.486 186.519 115.101 186.904C114.716 186.904 114.341 187.289 113.957 187.289C113.572 187.674 113.197 187.674 113.197 188.049C112.812 188.434 112.812 188.434 112.437 188.809C112.437 189.194 112.053 189.568 112.053 189.953C112.053 190.338 111.668 190.713 111.668 191.098C111.668 191.483 111.668 191.858 111.668 192.243C111.668 193.003 111.668 193.773 112.053 194.532C112.437 195.292 112.812 196.062 113.197 196.437C113.582 196.812 114.341 197.197 115.101 197.581C115.861 197.966 116.63 197.966 117.39 197.966C118.919 197.966 120.438 197.207 121.583 196.437C121.968 196.052 122.342 195.292 122.727 194.532C123.112 193.773 123.112 193.003 123.112 192.243C123.112 191.858 123.112 191.483 123.112 191.098C122.727 190.713 122.342 190.328 122.342 189.953Z" fill="white"/>
<path d="M150.933 188.049C149.788 189.194 149.404 190.713 149.404 192.243C149.404 193.773 149.788 195.292 150.933 196.437C151.318 196.822 152.077 197.197 152.837 197.581C153.596 197.966 154.366 197.966 155.126 197.966C156.655 197.966 158.174 197.207 159.318 196.437C159.703 196.052 160.078 195.292 160.463 194.532C160.848 193.773 160.848 193.003 160.848 192.243C160.848 190.713 160.088 189.194 159.318 188.049C157.03 186.134 153.222 186.134 150.933 188.049Z" fill="white"/>
<path d="M58.5987 39.0118C56.3605 39.0118 54.5477 37.1985 54.5477 34.9597V4.13316C54.5477 1.89437 56.3605 0.0810425 58.5987 0.0810425C60.837 0.0810425 62.6498 1.89437 62.6498 4.13316V34.9496C62.6498 37.1884 60.837 39.0118 58.5987 39.0118Z" fill="white"/>
<path d="M58.5987 43.4286C63.2804 43.4286 67.0756 39.6324 67.0756 34.9496C67.0756 30.2667 63.2804 26.4705 58.5987 26.4705C53.9171 26.4705 50.1219 30.2667 50.1219 34.9496C50.1219 39.6324 53.9171 43.4286 58.5987 43.4286Z" fill="white"/>
<path d="M117.005 38.9308C114.767 38.9308 112.954 37.1174 112.954 34.8786V4.05212C112.954 1.81332 114.767 0 117.005 0C119.243 0 121.056 1.81332 121.056 4.05212V34.8685C121.056 37.1174 119.243 38.9308 117.005 38.9308Z" fill="white"/>
<path d="M117.005 43.3577C121.687 43.3577 125.482 39.5615 125.482 34.8786C125.482 30.1958 121.687 26.3996 117.005 26.3996C112.323 26.3996 108.528 30.1958 108.528 34.8786C108.528 39.5615 112.323 43.3577 117.005 43.3577Z" fill="white"/>
<path d="M175.411 39.0118C173.173 39.0118 171.36 37.1985 171.36 34.9597V4.13316C171.36 1.89437 173.183 0.0810425 175.411 0.0810425C177.639 0.0810425 179.462 1.89437 179.462 4.13316V34.9496C179.462 37.1884 177.639 39.0118 175.411 39.0118Z" fill="white"/>
<path d="M175.411 43.4286C180.093 43.4286 183.888 39.6324 183.888 34.9496C183.888 30.2667 180.093 26.4705 175.411 26.4705C170.73 26.4705 166.935 30.2667 166.935 34.9496C166.935 39.6324 170.73 43.4286 175.411 43.4286Z" fill="white"/>
<path d="M159.308 20.0276H133.341C131.103 20.0276 129.29 18.2143 129.29 15.9755C129.29 13.7367 131.113 11.9234 133.341 11.9234H159.308C161.547 11.9234 163.359 13.7367 163.359 15.9755C163.359 18.2143 161.536 20.0276 159.308 20.0276Z" fill="white"/>
</svg>
